<?xml version="1.0" encoding="utf-8"?>
<!-- Generator: Adobe Illustrator 25.2.1, SVG Export Plug-In . SVG Version: 6.00 Build 0)  -->
<!DOCTYPE svg PUBLIC "-//W3C//DTD SVG 1.1//EN" "http://www.w3.org/Graphics/SVG/1.1/DTD/svg11.dtd" [
	<!ENTITY ns_extend "http://ns.adobe.com/Extensibility/1.0/">
	<!ENTITY ns_ai "http://ns.adobe.com/AdobeIllustrator/10.0/">
	<!ENTITY ns_graphs "http://ns.adobe.com/Graphs/1.0/">
	<!ENTITY ns_vars "http://ns.adobe.com/Variables/1.0/">
	<!ENTITY ns_imrep "http://ns.adobe.com/ImageReplacement/1.0/">
	<!ENTITY ns_sfw "http://ns.adobe.com/SaveForWeb/1.0/">
	<!ENTITY ns_custom "http://ns.adobe.com/GenericCustomNamespace/1.0/">
	<!ENTITY ns_adobe_xpath "http://ns.adobe.com/XPath/1.0/">
]>
<svg version="1.1"
	 id="svg1411" xmlns:x="&ns_extend;" xmlns:i="&ns_ai;" xmlns:graph="&ns_graphs;" inkscape:version="0.92.4 (5da689c313, 2019-01-14)" sodipodi:docname="friend.svg" xmlns:cc="http://creativecommons.org/ns#" xmlns:dc="http://purl.org/dc/elements/1.1/" xmlns:inkscape="http://www.inkscape.org/namespaces/inkscape" xmlns:rdf="http://www.w3.org/1999/02/22-rdf-syntax-ns#" xmlns:sodipodi="http://sodipodi.sourceforge.net/DTD/sodipodi-0.dtd" xmlns:svg="http://www.w3.org/2000/svg"
	 xmlns="http://www.w3.org/2000/svg" xmlns:xlink="http://www.w3.org/1999/xlink" x="0px" y="0px" width="482.7px" height="358.6px"
	 viewBox="0 0 482.7 358.6" style="enable-background:new 0 0 482.7 358.6;" xml:space="preserve">
<metadata  id="metadata1417">
	<rdf:RDF>
		<cc:Work  rdf:about="">
			<dc:format>image/svg+xml</dc:format>
			<dc:type  rdf:resource="http://purl.org/dc/dcmitype/StillImage"></dc:type>
			<dc:title></dc:title>
		</cc:Work>
	</rdf:RDF>
	<sfw  xmlns="&ns_sfw;">
		<slices></slices>
		<sliceSourceBounds  bottomLeftOrigin="true" height="358.6" width="482.7" x="0" y="0"></sliceSourceBounds>
	</sfw>
</metadata>
<sodipodi:namedview  bordercolor="#666666" borderopacity="1" gridtolerance="10" guidetolerance="10" id="namedview1413" inkscape:current-layer="svg1411" inkscape:cx="-708.76454" inkscape:cy="-282.51447" inkscape:pageopacity="0" inkscape:pageshadow="2" inkscape:window-height="1699" inkscape:window-maximized="1" inkscape:window-width="2736" inkscape:window-x="-13" inkscape:window-y="-13" inkscape:zoom="0.28921569" objecttolerance="10" pagecolor="#ffffff" showgrid="false">
	</sodipodi:namedview>
<path id="path1964" inkscape:connector-curvature="0" d="M68.1,358.3c-0.2-0.6,1.8-7,3.4-10.7c0.8-1.8,1.8-4.2,2.2-5.3
	c2.4-6,4.7-9.9,7.3-12.6l1.6-1.6l-2.7-0.9c-1.5-0.5-3.2-1.1-3.8-1.4l-1.1-0.5l-2.8,1.4c-3.2,1.6-4.7,2-8.1,2
	c-4.5,0-8.4-1.2-12.4-3.9c-3.1-2-5.2-4.3-8-8.7c-5.9-9-8.2-13.5-9.1-18c-0.6-2.9,0-7.3,1-7.3c0.1,0,0.1,0.3-0.1,0.6
	c-0.5,0.9-0.1,5.8,0.5,7.6c1.3,3.8,4.6,9.2,9.9,16.3c3.6,4.9,6.2,7.2,10.5,9.2c5.5,2.6,11,2.5,16.5-0.2c0.7-0.4,0.7-0.4,0.3-1.4
	c-0.7-1.6-0.9-4.2-0.6-7.1c1.2-12.5,10.4-24.2,21.2-27c4.6-1.2,10-0.9,13.1,0.6c0.7,0.3,0.9,0.5,0.6,0.4c-5.3-1.6-11.6-1-16.7,1.5
	c-1.2,0.6-2.8,1.5-3.5,2.1c-0.7,0.5-1.4,1-1.5,1c-0.4,0-3.1,3-4.1,4.5c-1.4,2.1-3,5.7-3.8,8.6c-0.6,2.4-0.7,3.2-0.7,8.1
	c0,5,0,5.4,0.5,6.2c1.1,1.5,5.1,3,17.1,6.5c7.6,2.2,10.5,2.9,15.7,4c4.7,0.9,4.8,0.9,6.6-1.1c1.3-1.5,4.1-5.7,5.9-9
	c8.5-15,14.4-42.1,14.5-66.5c0-13.1-1-19.5-4.4-26.7c-3.2-6.7-7.3-10.4-12.4-11.3c-6.6-1.1-15.1,1.7-38.5,12.5
	c-7.8,3.6-15.3,7.5-20.6,10.7c-1.3,0.8-3.4,2-4.7,2.7c-1.3,0.7-2.5,1.5-2.6,1.7c-0.1,0.2-1.4,1.2-3,2.2c-1.5,1-3.8,2.7-5.1,3.7
	c-1.3,1.1-2.9,2.4-3.7,3c-1.5,1.2-11,10.7-18.3,18.5c-2.7,2.8-6.3,6.5-7.9,8.1s-5.2,5-7.9,7.6c-2.6,2.6-5.6,5.3-6.5,6
	c-1.4,1.1-1.7,1.3-1.9,0.9c-0.1-0.4,2-2.6,9-9.6c5-5,13.7-13.7,19.3-19.4c9.4-9.5,10.6-10.7,16.3-15.2c3.4-2.7,7.6-6,9.3-7.4
	c4.1-3.3,5.2-4,9.8-6.7c10.6-6.2,33.6-16.2,44.3-19.3c4.4-1.3,6.9-1.7,10.3-1.7c4.3,0,6.4,0.6,9.2,2.7l2,1.5l2.5-1.2
	c2.7-1.3,5.3-2.3,5.9-2.4c0.2,0,1.3-0.2,2.5-0.4c5.1-0.9,12.2,0.6,17.7,3.8c2.7,1.6,7.2,5.9,9.1,8.8c4.8,7.2,7,15.8,6.5,26.1
	c-0.2,5.3-0.5,7.6-1.7,15.2c-0.5,3.3-1.5,9.7-2.2,14.2c-1.6,10.8-2.7,15.9-4.3,21.2c-1.4,4.7-2.7,8-4.3,10.8c-0.8,1.4-0.9,1.8-0.6,2
	c0.3,0.2,0.2,0.2-0.2,0.2c-0.3,0-0.8,0.5-1.3,1.2c-0.4,0.7-1.6,2.2-2.7,3.3c-3.3,3.6-5.6,4.2-13.5,3.8c-2.7-0.1-6.4-0.2-8.2-0.2
	c-3.1,0.1-3.3,0.1-3.8,0.7c-0.5,0.6-0.5,0.6-0.3,0.1c0.2-0.5,0.1-0.5-2.9-0.5c-1.7,0-3.6,0-4.1-0.2c-1-0.3-1-0.3-1.9,1
	c-1.7,2.5-4.3,5.7-5,6.2c-1.1,0.7-2.3,0.8-6.3,0.4c-4.4-0.4-10.8-1.7-19.7-3.9l-6.8-1.7l-1.2,1.1c-2.9,2.7-6,6.9-6,8.1
	c0,0.4-0.5,1.8-1.2,3.2c-0.7,1.3-2.2,5.3-3.5,8.9C68.9,358.4,68.5,359.3,68.1,358.3L68.1,358.3z M129,325.2c2.3-0.3,4.4-0.5,4.7-0.5
	c15.2-0.1,16.9-0.3,18.8-1.8c2.2-1.9,5.8-7.8,7.5-12.3c2.2-6,3.4-11.5,5.7-26.2c0.9-6,2-12.6,2.3-14.7c3.9-22.1,1.2-37.1-8.1-45.8
	c-2.6-2.4-4.5-3.6-7.6-4.7c-3.5-1.3-6.2-1.8-10.1-1.8c-1.9,0-3.5,0.1-3.6,0.1c-0.1,0.1-1.1,0.3-2.1,0.4c-2.1,0.3-6.1,1.5-6.3,1.9
	c-0.1,0.1,0.6,1.3,1.6,2.5c3.9,5.1,6,10.6,7.5,19.6c2.4,14.2,0.9,35.5-3.7,52.5c-2.6,9.6-5.5,17.3-9.5,25.2
	c-1.6,3.1-2.8,5.7-2.7,5.8C123.4,325.9,124.4,325.8,129,325.2z M142,353c-5-0.8-7.7-1.8-9.7-3.8c-2.2-2.1-3.3-5.2-3.6-9.8
	c-0.3-4.1,0.7-11,1.6-11.6c0.2-0.1,0.2,0.1,0,0.5c-0.9,2.5-1.2,10.1-0.5,13.6c0.9,4.4,2.7,6.6,6.5,8.1c5.2,2,13,1.7,24.2-1.1
	c7.8-2,38.7-11.2,43-12.8c3.3-1.3,6.8-3.3,8.3-4.8c4.9-4.8,7.9-13.1,7.9-21.8c0-4.4-0.6-6.8-1.8-6.6c-0.1,0-1-0.3-1.9-0.8
	s-1.9-0.8-2.1-0.8c-0.2,0-1.8-0.5-3.6-1.1c-2.1-0.7-3.7-1.1-4.6-1.1c-0.8,0-1.5-0.1-1.6-0.2c-0.2-0.3-2.4-0.6-3.3-0.4
	c-0.6,0.2-0.9,0.6-1.8,2.9c-1.9,4.7-3.6,6.8-7.2,8.8c-4.9,2.7-15.3,5.6-24.7,6.9c-5.8,0.8-5.8,0.7-0.1-0.8
	c10.9-2.8,12.1-3.2,15.8-4.9c6.8-3,9.2-4.8,10.8-8.1c1.3-2.6,4.2-11.5,5.6-16.9c1.2-4.5,2.5-11.2,3.2-16.4
	c0.6-4.2,0.8-16.5,0.4-20.3c-0.7-6.1-2.5-12.8-4.7-17.5c-2.4-5.1-5.4-7.4-11-8.9c-2.8-0.7-8-1-10.1-0.6c-0.8,0.2-3.2,0.6-5.2,1
	c-2,0.4-4.1,0.8-4.7,1c-1.5,0.4-1.4,0.3,0.5-0.6c2.6-1.2,6.3-2.5,7.6-2.6c0.7-0.1,2-0.3,3-0.4c4.4-0.7,11.3,0.2,15.4,2.1
	c3.4,1.6,6,4.3,8.2,8.8c1.2,2.5,1.3,2.5,2.2,2.6c1.5,0,1.5,0,5-1.2c1.7-0.6,4.6-1.9,6.4-2.9c13.1-6.9,16.6-8.3,23.6-10.2
	c2.9-0.7,5.6-1.5,6-1.7c0.4-0.2,1.2-0.3,1.7-0.3c0.9,0,4-1.8,5.7-3.2c1-0.8,5-2,6.5-2c0.7,0,1.5,0.2,1.8,0.3
	c0.3,0.2,1.4,0.8,2.4,1.4l1.8,1l2-0.6c2.1-0.6,3.9-0.7,8.3-0.4c4.1,0.3,5,0.4,7.6,1.3c1.3,0.4,2.6,0.8,2.8,0.7
	c0.2-0.1,0.7-1.1,1.1-2.3c1-2.8,5.1-11.7,6.7-14.4c1.9-3.3,4-5.9,7.4-9.3c3.4-3.4,5.6-4.8,8.7-5.5c0.8-0.2,1.5-0.4,1.7-0.6
	s1.2-1.7,2.2-3.4c4.9-8.2,9-12.5,13.1-13.8c3.3-1,5.9-0.7,13.6,1.9c7.3,2.5,12.8,4.7,18.2,7.4c7.2,3.6,12.5,7.6,16.8,12.7
	c6.9,8.3,10.6,16.7,11.2,25.8c0.2,3.5-0.3,6.3-2,10.3c-1.5,3.7-3,5.4-6.5,7.5c-3.3,2.1-3.7,2.1-1.7,0.3c2.3-2.1,4.3-5.6,5.7-9.7
	c0.9-2.8,1.1-3.7,1.2-6.4c0.5-12-7.1-25.9-18.8-34.3c-2.8-2-10.7-6-16.1-8.1c-5.5-2.1-13.7-4.8-15.8-5.1c-2.9-0.4-5.1,0-7.3,1.4
	c-2.5,1.6-7.8,7-9.8,9.9c-0.5,0.8-1.2,1.7-1.6,2c-0.4,0.4-0.7,0.7-0.7,0.8c0,0.1,2.1,0.2,4.6,0.2c4.9,0,8.2,0.5,12.7,1.6
	c5.5,1.4,13.8,5,19.1,8.1c11.7,7,20.4,18,22,28c0.3,2,0.3,7.4,0,9.3c-0.2,1-0.2,0.7-0.4-2.1c-0.1-1.8-0.4-4.4-0.8-5.8
	s-0.7-2.9-0.8-3.5c-0.6-3-4.4-8.7-9.2-13.6c-6-6.2-13.4-10.8-23.5-14.5c-7.2-2.7-11.1-3.4-17.7-3.4c-5,0-6.9,0.4-10.2,1.9
	c-4.1,1.9-9.6,8.3-15.9,18.4c-0.8,1.2-1.4,2.3-1.4,2.4c0,0.1,1.2-0.6,2.7-1.4c7.7-4.2,14.7-5.5,22-4c2,0.4,7.8,2.9,9.3,3.9l0.7,0.5
	l0.5-1c0.5-1,1.6-2,2.1-2c0.1,0-0.1,0.4-0.6,0.8c-1.5,1.4-1.8,2.4-1.9,7.3c-0.2,6.7,0.5,10.7,4,25.4c2.3,9.8,3.5,15.2,5.7,26.3
	c1.8,9.1,2.8,13.2,4.3,17.7c2.4,7,4,9,12,14.6c1.9,1.3,5.2,3.8,7.4,5.6c5.4,4.2,5.9,4.6,10.8,7c4.4,2.2,6.8,2.9,12.3,3.8
	c10.6,1.8,25.9,1.2,35.8-1.4c3.8-1,5.3-1.6,8.5-3.4c1.4-0.8,2-1,2-0.7c0,0.6-0.7,1.1-3,2.5l-2,1.2l4.1,0c2.7,0,5,0.2,6.7,0.5
	c3.1,0.6,9.2,2.8,12.1,4.3c2,1.1,8,5.1,8,5.3c0,0.1-0.7-0.2-1.6-0.7c-0.9-0.5-2.3-1.1-3.1-1.4s-1.9-0.8-2.5-1.1
	c-10.9-4.9-15-6.1-21.1-6.5l-3-0.2l-3.4,1.2c-3.6,1.2-10.4,2.7-15.4,3.5c-9.8,1.4-24.5,1.7-28.9,0.5c-2.5-0.7-4.8-1.7-6.1-2.7
	c-0.7-0.6-1.4-0.7-3.6-1c-1.5-0.1-3.3-0.4-4.2-0.5c-2.4-0.4-7.1-1.1-12.6-1.8c-7-1-27.6-4.1-31.1-4.8c-3.3-0.6-13.2-3.3-13.7-3.7
	c-0.4-0.3-9.2-2.1-11.8-2.5c-0.7-0.1-1.4-0.3-1.5-0.4c-0.1-0.1-0.5-0.2-0.9-0.2c-1.8,0-15.6-3.4-17.1-4.2c-0.3-0.1-1.8-0.4-3.3-0.7
	c-5.3-0.8-11-2-13.6-3c-3-1.1-10.1-4.2-14.9-6.5c-5.8-2.7-10.4-6.2-12-8.9c-0.2-0.3-0.6-0.1-1.8,1c-0.9,0.8-3.3,2.9-5.4,4.7
	c-2.1,1.8-5.1,4.6-6.6,6.1c-2.7,2.8-5.9,6.5-5.9,6.8c0,0.1,0.7,0.3,1.6,0.5c0.9,0.2,2.2,0.6,3,1c0.8,0.4,1.6,0.6,1.7,0.5
	c0.3-0.2,4.4,1.5,5.1,2.2c1.6,1.4,2.5,6.6,2,12c-0.8,9.7-4.7,17.6-10.6,21.8c-4,2.9-7.3,4.1-24.3,9c-20.1,5.9-26.4,7.4-34.5,8.4
	C150.3,353.1,144,353.3,142,353L142,353z M367.1,314.3c0-0.1-1.4-1.4-3-2.9c-1.6-1.5-3.4-3.2-4.1-3.9c-0.7-0.7-3.1-2.6-5.3-4.2
	c-9-6.6-10.8-8.4-13.3-12.8c-2.5-4.3-4-9.6-6.7-24c-1.1-5.6-1.7-8.2-2-8.5c-0.7-0.7-11.1-4-15.1-4.7c-5.7-1.1-6-1.1-6-0.7
	c0,0.2,0.2,1.1,0.4,2c0.6,2.5,1.5,8.4,1.8,12c0.3,3.6,0,11.3-0.7,16c-0.5,3.6-2.2,9.4-3,10.2c-0.3,0.4-1.2,1.1-1.9,1.6
	c-1.1,0.8-1.6,1-3.6,1.2c-1.4,0.1-2.3,0.1-2.5,0c-0.1-0.1-0.7-0.3-1.1-0.3c-1.5,0-15.6-3-17.7-3.7c-1.1-0.4-3.3-1.4-4.9-2.1
	c-1.6-0.8-3.4-1.6-3.9-1.8c-5-1.9-7.4-4.4-8.6-9c-0.4-1.4-0.4-2.7-0.3-7.8c0.2-6.8,0.2-6.6-1.9-13.3l-1.1-3.6l-1.4,1.6
	c-0.8,0.9-1.8,2.1-2.4,2.6c-2,1.9-7.3,6.6-7.5,6.6c-0.7,0,0.1-1.2,2.7-4.3c1.6-1.9,3.1-3.7,3.3-3.9c1.8-2.1,6.9-9,8.4-11.4
	c4.9-7.4,6.5-11.4,6.6-16.3c0-3.2-0.2-3.9-2-6.1c-1.7-2.1-5.7-5.3-7.8-6.3c-2.8-1.4-3.7-1.4-6.6-0.5c-1.4,0.4-2.5,0.8-2.6,1
	c-0.1,0.1-1.1,0.6-2.2,1.1c-4.8,2.1-13.6,9.4-16.7,13.9l-0.9,1.3l1-1.2c1.5-1.8,3.2-3.5,2.8-2.9c-0.9,1.4-3.6,4.5-3.8,4.4
	c-0.1-0.1-0.4,0.1-0.6,0.3c-0.3,0.4-0.3,0.4,0.1,0.1c0.9-0.7,0.5-0.1-1.7,2.8c-2.5,3.3-2.9,3.9-4.6,7.6l-1.3,2.9l0.2,3.2
	c0.8,14.8,3.1,24.7,6.5,28.7c1.2,1.4,4.7,3.8,7.6,5.2c7.8,3.9,21.7,9.2,24,9.2c0.3,0,0.8,0.2,1.2,0.5c0.6,0.4,1.4,0.6,4.4,0.7
	c5.5,0.3,7.8,0.6,12.8,1.8c1.8,0.5,5.8,1.4,8.8,2.1c9,2,10,2.3,13.1,3.5c4,1.6,4.2,1.6,10.2,2.8c2.9,0.5,7.6,1.5,10.6,2.1
	c10,2,25.2,4.9,38.5,7.2C366,314.5,367.3,314.6,367.1,314.3L367.1,314.3z M238,228c0,0,0.4-0.4,0.9-0.9l0.9-0.8l-0.8,0.9
	C238.2,228.1,238,228.2,238,228z M206,296.9c0.5,0,1.4,0.1,2.1,0.2l1.3,0.2l1.1-2c1.2-2.1,3.7-5.3,6.5-8c2.3-2.3,8.8-7.8,10.5-9
	c0.8-0.5,1.4-1,1.4-1.2c0-0.1-0.4-1.1-0.8-2.2c-1.6-4-2.7-9.7-3.3-17.4c-0.3-3.2-0.4-4.1-0.9-4.7c-0.5-0.6-0.5-1-0.3-1.9
	c0.1-0.7,0.3-2.3,0.3-3.7c0-1.4,0.1-2.5,0.1-2.5c0,0,0.1-0.3,0.1-0.6c0.1-0.7,2.6-5.1,4.4-7.7c1.9-2.8,7.1-9,9.1-10.8
	c1-1,2.9-2.4,4.1-3.3c2.6-1.8,3-2.1,2-1.7c-0.4,0.2-2.6,0.8-4.9,1.4c-2.3,0.6-5.5,1.7-7.1,2.4c-3.7,1.6-12.5,6.1-15.4,7.8
	c-1.2,0.7-2.4,1.3-2.5,1.3c-0.2,0-1.3,0.6-2.6,1.2c-1.3,0.7-2.4,1.2-2.6,1.2c-0.2,0-1.1,0.2-2,0.5c-1.4,0.5-1.7,0.5-1.9,0.1
	c-0.4-0.6-1-0.5-0.8,0.1c0.4,1,1.7,6.6,2.2,9c1.1,6.5,1.3,19.1,0.3,26.3c-1.1,8.3-2.5,15.1-4.5,21.4c-0.6,1.9-1.1,3.5-1.1,3.6
	c0,0.1,1,0.1,2.3,0C204.2,296.9,205.6,296.8,206,296.9L206,296.9z M306.2,295.2c1-0.2,1.2-0.9,2-6.7c0.7-5.1,1-16.6,0.5-21.3
	c-1.7-17.2-6.9-29.9-15.6-38.7c-2.8-2.8-8.3-6.8-13.4-9.6l-3.8-2.2l-4.1,0c-2.3,0-4.3,0.1-4.5,0.2c-0.2,0.2,0.1,0.6,1.2,1.5
	c1.8,1.4,4,4,5.3,6.2c2,3.3,2.7,7.2,1.9,10.2c-0.5,1.8-4.3,7.6-9,13.8c-1.5,2-3,3.9-3.2,4.2c-0.3,0.4-0.2,0.9,0.9,3.3
	c2.3,5.1,3.6,10.8,4,16.8c0.2,2.7,0.4,4.3,0.7,5c0.3,0.6,0.7,1.6,1,2.2c1,2.2,2.3,3.3,7.2,6c3.1,1.7,8.3,3.6,13.4,5
	c2.6,0.7,6.1,1.6,7.7,2.1c1.6,0.4,3.3,0.9,3.7,0.9c0.5,0.1,1.2,0.4,1.6,0.7C304.6,295.4,304.9,295.4,306.2,295.2L306.2,295.2z
	 M329.9,243.5c-3.6-16.1-4.3-20.9-4-27.1c0.1-2,0.2-4,0.3-4.4c0.2-0.7,0.1-0.7-2.3-1.4c-1.3-0.4-3.1-0.9-3.9-1s-2.2-0.4-3.2-0.6
	c-2.4-0.5-7.6-0.4-9.9,0.1c-4.4,1-9.6,3.2-12.5,5.2c-1.7,1.2-5.2,4.2-5.2,4.5c0,0.1,0.9,0.8,2,1.5c2.3,1.5,6.9,5.7,8.9,8.2
	c2.3,2.9,4.4,6.2,6.1,9.6c1.6,3.2,3.8,8.9,3.8,9.6c0,0.4,0.4,0.5,0.9,0.4c1-0.2,6.2,0,8,0.4c2.4,0.4,7.5,2.2,9.3,3.3
	c0.6,0.4,1.7,1.2,2.5,1.9c0.8,0.7,1.4,1.1,1.4,1C332.3,254.6,331.3,249.6,329.9,243.5L329.9,243.5z M272.1,215.5
	c-0.1-0.1-0.7-0.1-1.3,0l-1.1,0.2l1.3,0C271.7,215.7,272.2,215.6,272.1,215.5L272.1,215.5z M448.1,296.6c0.1-0.1,1.7-0.7,3.6-1.5
	c1.9-0.8,4.9-2.1,6.6-2.9c1.7-0.8,2.8-1.3,2.5-1.1c-0.9,0.8-6.7,3.6-9.5,4.6C449,296.6,447.8,296.9,448.1,296.6L448.1,296.6z
	 M381.4,268.7c0-1.5-0.4-2.3-2.6-5.6c-0.6-0.9-1.6-2.4-2.1-3.4c-0.6-1-1.7-3-2.5-4.4c-2-3.4-3.6-7.6-5.7-14.4
	c-2.7-9-5.4-15-8.5-19.1c-1.6-2.1-6.4-6.6-9.3-8.7c-2-1.4-5.2-3.1-7.8-3.9c-2.3-0.8-6.7-1.4-9.4-1.3c-1.2,0-2.2-0.1-2.2-0.2
	c-0.1-0.4,3.2-0.9,5.9-0.9c6.2-0.1,12.1,2.1,17.9,6.7c3.7,3,6.8,6,8.3,8.3c2.9,4.4,5.2,10.2,7.3,18.4c2.5,9.5,3.6,12.4,9.1,22.3
	l2.1,3.8l0.7-1c1.5-2,4.9-4.7,7.9-6.2c2.1-1.1,5.8-2.2,8.7-2.7c2.5-0.4,11.1-0.4,13.3,0c4.6,0.9,10.1,2.9,14.1,5.1
	c2.4,1.3,5.8,3.9,7.2,5.4c1,1.1,1,1.2,0.6,1.5c-0.4,0.3-0.9,0-3.5-2.1c-3.6-2.9-8.7-5.6-12.5-6.5c-4.6-1.1-11-1.3-17.4-0.5
	c-6,0.7-12.6,4.1-16.4,8.5c-1.2,1.4-2.5,2.4-3.1,2.4C381.5,270.1,381.4,269.4,381.4,268.7L381.4,268.7z M461.8,260.6
	c-1.9-1.5-6.9-4.9-9.8-6.6c-1.2-0.7-2.2-1.4-2.2-1.4c0.2-0.2,7,3.8,9.4,5.6c3.1,2.3,4.7,3.6,4.4,3.6
	C463.4,261.8,462.6,261.3,461.8,260.6L461.8,260.6z M429.1,257.6c0.3-1.7,1.6-4.8,3.3-7.7c3.6-6,5.6-11.1,6-14.7
	c0.7-7.3-3.1-13.6-11.4-19.1c-4.2-2.8-12.4-7.1-19.6-10.3c-4.3-1.9-15.3-6.3-16-6.4c-0.4-0.1-1.9-0.5-3.4-0.9
	c-1.5-0.5-3.3-1-4.1-1.2l-1.4-0.4l1.1,0c2.7-0.1,10.1,1.4,18.8,3.7c6.9,1.8,10.3,2.9,16.5,5.4c11.6,4.7,17.8,8.8,21.5,14.5
	c2.3,3.4,3.7,8.3,3.3,11c-0.2,1.2-0.7,1,4.8,1.8c3.5,0.5,7.1,0.9,11,1.3c1,0.1,3,0.3,4.5,0.6c4.2,0.6,9.8,1.2,11.2,1.2
	c0.7,0,1.3,0.1,1.3,0.3c0,0.2-2.7,0.3-7.7,0.3c-7,0-8.1-0.1-11.7-0.7c-2.2-0.4-4.7-0.8-5.5-0.9c-0.8-0.1-2.9-0.7-4.7-1.2
	c-1.7-0.5-3.2-0.9-3.2-0.9c0,0-0.3,0.8-0.5,1.7c-0.2,0.9-0.8,2.4-1.3,3.4c-0.9,1.8-4.7,7.4-8.2,12.2c-1.6,2.1-2.8,4.3-4.3,7.6
	C428.9,258.6,428.9,258.6,429.1,257.6L429.1,257.6z M448.6,252.1c-1-0.6-1-0.8,0.1-0.3c0.5,0.2,0.8,0.5,0.8,0.6
	C449.5,252.6,449.4,252.6,448.6,252.1L448.6,252.1z M407.1,242.6l-0.5-0.6L407.1,242.6c0.7,0.4,0.8,0.6,0.6,0.6
	C407.6,243.2,407.4,242.9,407.1,242.6L407.1,242.6z M403.8,239.6c-0.9-0.9-1.7-2-1.8-2.3c-0.2-0.4-0.1-0.4,0.3,0.1
	c0.3,0.4,1.2,1.4,2,2.3C406.1,241.8,405.8,241.7,403.8,239.6L403.8,239.6z M42.8,173.8c6.3-6.6,13.3-10.3,22.3-11.8l3.3-0.6
	l-2.2-0.7c-2.3-0.8-3.5-1.5-3.5-1.9c0-0.4,0.1-0.4,3.1,0.7c3.5,1.2,6.5,1.6,12.9,1.6c9.1,0,18-1.3,26.7-3.9c6-1.8,10.4-3.8,13.8-6.3
	c1.3-0.9,2.7-2,3.1-2.3c1.7-1.2,4.1-3.6,6.8-6.7c1.5-1.7,4.7-5.1,7.1-7.6c5.7-5.9,7.2-8.2,8.6-12.9c1.2-4.1,1.5-8.3,1.8-21.2
	c0.3-14.4,0.4-18,1-27.4c0.5-9,0.4-21.1-0.3-24.7c-0.7-3.8-1.6-6-2.9-7.2c-0.6-0.6-1-1-0.8-1c0.2,0,0.8,0.5,1.4,1.2
	c0.8,0.8,1.2,1.1,1.4,0.9c4.2-4.2,8.2-6.4,13.5-7.4c5.6-1.1,13.3-0.1,19.5,2.6c2.3,1,2.3,1-1.6-3.4c-3.6-4-7.2-7.5-10.8-10.3
	c-4.7-3.8-7.1-4.7-12.1-4.7c-6.2,0-13.3,2.1-20.3,6.1c-10.1,5.7-17.6,12.3-22.8,20.1c-2.1,3.1-4.7,8.2-5.6,10.8
	c-0.9,2.6-1.3,8.2-0.9,12.3c0.2,1.7,0.3,3.2,0.2,3.3c-0.1,0.1-0.4-1-0.7-2.3c-2-8.6-1.2-14.8,3-23.2c3.5-7.1,8.7-12.9,16.3-18.6
	c10.6-7.9,19-11.5,29.2-12.5l1.8-0.2l-0.9-0.7c-0.5-0.4-1.5-1.2-2.1-1.9c-3.3-3.3-9.6-7.7-12.4-8.6c-4-1.2-6.2-0.6-15.6,4.7
	c-15.3,8.6-23.1,15.7-27.9,25.3c-4,7.9-5.6,14.7-5.2,21.9c0.2,4.3,0.6,5.9,2.7,9.9c1.9,3.9,3.8,6.1,6.8,8.2c1.1,0.7,1.9,1.4,1.8,1.4
	c-0.3,0.3-4.3-1.4-5.9-2.5c-2.3-1.6-3.7-3.1-5.6-6.3c-2-3.4-2.8-5.9-3.2-10.2c-1-10.7,3.5-23.2,11.9-33c2.7-3.2,4.5-4.8,8.4-7.7
	c7.4-5.5,19.6-12.7,24.4-14.4c6.2-2.1,11.5,0.4,20.3,9.5l4.1,4.3l1.7,0.2c4.9,0.7,9.8,3.6,15.7,9.3c3.4,3.3,10,12,11.9,15.8
	c1,1.9,1.1,1.9,3.6,0.4c2.6-1.6,4.4-2.3,7.2-2.9c1.1-0.2,2.6-0.6,3.4-0.8c1.5-0.5,4.7-0.5,6.3-0.2c1.1,0.2,1.1,0.2,2.8-1.5
	c2.2-2.2,3.3-2.5,6.8-2c1.8,0.2,3.1,0.6,4.9,1.4l2.5,1.1l6.9,0.5c3.8,0.3,7.8,0.6,8.9,0.8c3.4,0.5,9.1,2,16.3,4.3
	c3.8,1.2,8.1,2.4,9.6,2.6c3.3,0.6,6.1,0.6,6.6,0.1c0.2-0.2,0.5-1,0.7-1.9c1.7-7.3,5.6-11.6,13.2-14.2c5.8-2,13.7-2.2,19.3-0.5
	c1,0.3,0.4,0.4-5.3,0.4c-5.1,0-6.9,0.1-8.6,0.5c-4.4,0.9-8.6,3-11.2,5.3c-3.9,3.6-5.7,11-5.4,22.2c0.3,12.2,4.3,26.1,11.7,41.1
	c5.9,11.8,7.7,14.4,11.6,16.3c2.2,1.1,6.1,2.3,9.8,3.2c2.5,0.6,11.4,1.5,14.6,1.6c1.4,0,3.4,0.1,4.3,0.2l1.8,0.2l-1.3,0.2
	c-2.3,0.4-21.4,0-24.5-0.5c-6.1-1-10-2.6-12-4.8c-1.4-1.6-3.7-5-3.9-5.9c-0.3-1-1.4-1.2-3.3-0.4c-0.9,0.3-1.6,0.7-1.6,0.8
	c0,0.1-0.4,0.2-0.8,0.2c-1,0-7.2,3-9.9,4.9c-0.7,0.5-1.6,0.9-2,1c-0.6,0.2-0.8,0.4-0.9,1.5c-0.7,4.4,2.7,14.1,6.8,19.6
	c4.3,5.8,9.4,8.2,19,9.3c1.5,0.2,5.7,0.7,9.4,1.1c23.3,2.8,28.2,3.3,36,3.5c10.9,0.3,16.5-1,20.6-4.5c3.4-3,4.1-8.1,2.1-16.1
	c-0.7-2.8-1.6-5.1-2.5-6.1c-0.5-0.6-0.6-0.6-3-0.3c-1.4,0.2-4.8,0.9-7.5,1.6c-4.8,1.2-5.3,1.3-8.8,1.3l-3.7,0l-1.6-1
	c-1.9-1.2-5.9-4.8-7.2-6.5c-2.2-2.9-4-5.6-5.9-9.3c-3.1-5.9-4.6-9.8-9.2-23.4c-1.3-3.9-3.3-9.6-4.4-12.7c-2.2-6.2-3.9-12.9-4.6-17.6
	c-0.7-4.5-0.4-11.9,0.5-15.9c1.6-6.8,4.6-12.1,9.1-16.5c3.3-3.1,8.6-6,12.9-6.9c3.7-0.8,8.8-0.4,13.9,1.1l1.6,0.5l2-2
	c2.2-2.2,3.9-3.2,7-4c6.2-1.6,15.7-0.6,34.1,3.6c9.9,2.3,14.8,3.6,21,5.6c6.1,2,8.4,3,11.1,4.5c1.1,0.6,4.1,2.3,6.8,3.7
	c13.9,7.3,17.3,9.4,27.3,16.6c2.4,1.7,6.3,4.5,8.6,6.2c2.3,1.7,6,4.3,8.1,5.8c2.1,1.5,6.3,4.4,9.3,6.4c5,3.4,6,4.2,5.6,4.6
	c-0.5,0.5-18.5-10.9-27-17.2c-11.2-8.3-13.8-10.1-17.9-12.9c-4.5-3-8.3-5.3-11.2-6.7c-2.5-1.2-7.3-3.2-8.6-3.6
	c-0.6-0.2-3.4-1.2-6.3-2.2c-9.5-3.4-17.1-5.6-31.5-9.2c-12.5-3.1-18-4-23.4-4c-5.8,0-8.8,1.1-11.9,4.1c-1.5,1.5-2.1,2.5-3.2,4.7
	c-2.4,5-3.3,9.5-3.3,16.4c0,10.6,2.6,23.5,8.2,40.4c2.2,6.7,4.4,11.9,8.4,19.9c5,10,8,14.7,13.5,21c3.8,4.3,6.7,6.8,8,6.8
	c0.8,0,7.6-2.7,12.7-5.1c5.6-2.6,15.9-7.8,18.7-9.5c3.5-2.1,3.7-2.4,3.7-4.6c-0.1-4-2.2-11-4.4-14.7c-2.8-4.7-5.8-7.6-10.2-9.7
	c-3.8-1.9-5.8-2.3-10.6-2.3c-4.3,0-6.5,0.4-9.3,1.8l-1.1,0.5l0.7-0.6c1.3-1.1,5.1-2.3,8.3-2.7c6.2-0.7,13.3,1.3,18.5,5.3
	c2.3,1.8,6,5.8,7.7,8.4c3.3,5.1,5.1,11.2,4.5,15.3c-0.1,0.9-0.2,1.7-0.2,1.8c0.1,0.1,1.3,0.4,2.8,0.7c9,1.9,17.6-2.7,22.3-12.1
	c1.7-3.2,4.9-10.3,5.8-12.7c0.9-2.4,1.9-7.1,1.9-9.1c0-2.2-0.6-5.1-1.1-5.7c-0.3-0.4-0.3-0.4,0.2-0.3c0.4,0.1,0.7,0.7,1.3,2.3
	c1.8,5.1,1.3,8.2-3.2,19.3c-1.1,2.6-2.5,6-3.2,7.6c-3.8,7.9-10.9,13-19,13.7c-2.3,0.2-4.6-0.2-7.2-1.2l-1.9-0.7l-1.3,1
	c-0.7,0.5-2,1.3-2.9,1.8c-2,1-2.9,1.7-2.3,1.7c0.8,0,4.9,3.6,6.6,5.7c4.6,5.8,13.4,20.3,13,21.4c-0.2,0.4-0.3,0.4-0.8-0.2
	c-0.3-0.4-2.3-3.7-4.4-7.3s-4.5-7.5-5.3-8.6c-0.8-1.1-1.6-2.4-1.8-3c-0.5-2-7.7-7.9-9.2-7.6c-0.4,0.1-0.7,0.3-0.7,0.4
	s-0.2,0.3-0.4,0.3c-0.2,0-2.3,0.9-4.6,1.9c-10.2,4.7-15,6.6-20.3,7.9l-3.5,0.9l-1.2-0.6c-0.7-0.3-2.6-1.9-4.2-3.4
	c-2.8-2.7-3-2.8-3.6-2.5c-0.8,0.4-2.9,0.9-5.3,1.1c-0.9,0.1-1.7,0.2-1.9,0.3c-0.1,0.1,0.1,0.5,0.4,1c1,1.4,1.7,2.9,2.5,5.6
	c1.9,6.4,2,11.6,0.3,14.9c-0.8,1.7-3.8,4.4-5.4,5c-0.7,0.2-2.2,0.8-3.4,1.3c-5.5,2-11.4,2.7-22.3,2.4c-7.3-0.2-10.1-0.4-21.5-1.5
	c-3-0.3-8.5-0.9-12.2-1.2c-8.3-0.8-8.2-0.8-12.3-1.8c-6.9-1.7-10.9-4.3-14.7-10c-3.7-5.5-6-12.5-6-18.6c0-3.4,0.3-4.7,1.4-5.8
	c1.2-1.1,3.4-2.6,4.1-2.7c0.4-0.1,0.8-0.3,1.1-0.5c0.2-0.2,1.4-0.8,2.6-1.4l2.1-1.1l-1-0.9c-4.1-3.6-8.7-6.8-14.6-10.2
	c-2.2-1.3-4.6-2.7-5.5-3.2l-1.5-0.9l-0.7,1.6c-1.1,2.4-5.1,6.4-9.7,9.7c-4.6,3.4-10.4,7.2-13.6,9.2c-2.1,1.2-11,5-13.1,5.4
	c-0.4,0.1-3.3,1.4-6.4,2.9c-3.1,1.5-7,3.3-8.8,4c-1.8,0.7-3.6,1.5-4.1,1.7c-0.5,0.3-1.5,0.6-2.1,0.8c-2,0.7-10.7,4.2-10.8,4.4
	c-0.2,0.3-9.8,5-11.9,5.8c-2.4,1-23,8-32.6,11.2c-5.1,1.7-9.4,3.2-9.6,3.3c-0.2,0.1-1.7,0.6-3.5,1.1c-2.9,0.8-3.3,1-4.8,2.4
	c-3.4,3.2-8.1,4.7-18.8,6.4c-7.3,1.1-12.4,1.5-20.4,1.4c-6.3,0-8.2-0.1-10.8-0.5l-3.1-0.5l-3.1,0.8c-5.2,1.3-8.8,3-14.5,6.8
	c-2,1.3-5,3.3-6.7,4.5c-1.7,1.2-3.6,2.4-4.1,2.8S41,175.7,42.8,173.8L42.8,173.8z M136.1,147.5c7.4-2.8,17.7-6.7,27.2-10.4
	c17-6.7,18.9-7.4,21.5-9.1c1.8-1.1,5.4-2.9,11.1-5.3c13.4-5.8,15.3-6.5,20.4-7.9c2.6-0.7,5-1.4,5.2-1.7s1.7-1,3.2-1.8
	c4.3-2.1,14.3-8.4,19.7-12.4c2.5-1.8,6-5.5,6.8-7c2.1-4.2,2.6-12.3,1.6-23.9c-0.3-3.6-0.7-7-0.9-7.6c-0.4-1.6-4.1-6.5-6.9-9.1
	c-1.4-1.3-2.5-2.5-2.5-2.6c0.1-0.3-3-3.3-5.1-4.9c-1.8-1.4-2.6-1.8-1.9-0.9c0.3,0.4,0.3,0.4-0.1,0.1c-0.3-0.2-0.4-0.5-0.4-0.6
	c0.2-0.7-10.1-5.7-13-6.4c-1.1-0.3-2.4-0.6-2.8-0.8c-1-0.5-5.4-0.8-6.4-0.4c-3.1,1.2-7.3,5.5-9.5,9.9c-2.9,5.6,0.2,12.5,9.8,22.1
	c3.4,3.4,7,6.7,9.1,8.2c2.7,2,7.8,6.4,7.8,6.7c0,0.2-0.2,0.2-0.5,0.2c-1-0.3-8.5-5-10.6-6.7c-1.2-1-2.2-1.7-2.2-1.7
	c-0.2,0.2-1,9-1,10.4c0,0.8,0.5,4.1,1.1,7.1c0.9,4.6,1.1,5.9,0.9,7.4c-0.2,2.3-1.1,4.7-2.1,6.2c-0.9,1.3-3.9,3.8-5.7,4.7
	c-0.6,0.3-2.2,1.4-3.6,2.4c-3.3,2.4-5.5,3.5-13.2,6.6c-3.7,1.4-7.1,2.8-7.5,3c-1,0.4-5.1,0.8-4.5,0.4c0.2-0.1,0.7-0.3,1.1-0.3
	c0.4,0,0.9-0.2,1.1-0.4c0.4-0.4,2.3-1.4,9.3-4.7c8.2-3.8,11.3-5.6,15.6-8.9c3.6-2.8,4.8-4.1,5.5-5.9c0.3-0.9,0.6-1.9,0.6-2.3
	c0-0.4,0.1-1.2,0.3-1.8c0.2-0.8,0.2-1.8-0.1-3.9c-0.5-3.3-0.6-9.2-0.1-12.5c0.2-1.3,0.6-3.7,1-5.3l0.7-3l-2.7-2.4
	c-4.5-4.1-11.8-11.5-12.5-12.8c-1-1.8-1.7-4.4-1.4-6.3c0.5-4.7,2.4-8.7,5.8-12.3l1.1-1.2l-2.2,0.2c-2.5,0.2-5.3,0.8-6.9,1.3
	c-3,1-12.9,10.3-15.9,15c-9.6,14.5-10.9,37.1-3.5,60.3c1,3,2,5.9,2.4,6.4c0.8,1.1,0.4,1.1-1.8-0.1c-1.7-0.9-1.7-1-3.5-4.5
	c-2.1-4.1-3-6.9-4.4-12.7c-1.3-5.8-1.6-7.8-1.7-15.9c-0.1-7-0.1-7.1-0.7-7.1c-1.5,0.2-8.6,3.3-13.4,5.8c-2.9,1.6-5.6,3-5.8,3.2
	c-0.4,0.3-0.5,1.4-0.6,10.1c-0.2,14.2-0.7,18.9-2.1,23.2c-1.8,5.2-3.2,7.3-9.8,14.4c-2.5,2.6-5.2,5.7-6,6.9
	c-2.8,3.9-4.9,6.8-5.1,7.2C124.9,151.6,125.7,151.4,136.1,147.5L136.1,147.5z M240.7,47.4c-0.8-0.7-1.9-1.7-2.3-2.1
	c-0.8-0.8-0.8-0.8,0.3,0c1.4,1,3.9,3.3,3.7,3.3C242.3,48.7,241.6,48.2,240.7,47.4L240.7,47.4z M236.5,43.7l-0.5-0.6L236.5,43.7
	c0.7,0.4,0.8,0.6,0.6,0.6C237,44.3,236.7,44.1,236.5,43.7z M345.4,121.7c0.8-0.1,3-0.6,5.1-0.9c2.2-0.4,6-0.9,9.6-1.1
	c5.6-0.4,6.9-0.5,6.9-1c0-0.1-0.8-1.2-1.8-2.4c-5.8-6.9-10-13.8-15.2-24.4c-3.2-6.5-4.9-10.7-6.6-15.9c-5.1-15.8-7.4-28.6-7-40
	c0.3-7.8,2.1-14.9,4.9-18.9c0.4-0.6,0.4-0.8,0.2-0.9c-4.2-1.4-11.7-1.2-16.6,0.5c-8.3,2.8-13.7,8.2-16.4,16.1
	c-3.2,9.6-2.1,21.2,3.7,37.1c0.9,2.6,3.2,9,5,14.4c4,11.6,5.1,14.5,7,18.7c3.4,7.5,7.1,12.9,11.4,16.5c1,0.8,2.1,1.7,2.5,1.9
	C339.5,122.2,342.2,122.3,345.4,121.7z M278.7,105.8c1-0.4,3.6-0.8,6.1-0.8c0.5,0,0.3-0.5-1.8-4.8c-5.2-10.4-8.7-21.2-10.5-32.3
	c-1.3-7.8-1.5-13.1-1-19.2c0.2-1.7,0.2-3.2,0.1-3.3c-0.1-0.1-0.4,0.1-0.8,0.4c-0.6,0.6-0.8,0.6-2.8,0.3c-2.6-0.3-3.3-0.5-7.9-2
	c-10.5-3.5-19.4-5.8-24.8-6.3c-6.1-0.6-6.1-0.6-2.8,1c1.6,0.8,3.7,1.9,4.7,2.6c2.4,1.7,8.3,6.7,10.3,8.7c2.5,2.5,5.4,6.1,5.4,6.5
	c0,0.2,0.1,0.5,0.3,0.7c0.2,0.2,0.3,0.9,0.4,1.6c0,0.7,0.4,2.2,0.8,3.2c0.8,1.9,0.8,3.1,0.1,3.5c-0.2,0.1-0.1,1.5,0.2,4.4
	c0.6,5.7,0.7,13.8,0,17.2c-0.3,1.4-0.5,2.6-0.5,2.8s0.8,0.6,1.7,1c0.9,0.4,3.2,1.6,5,2.7c7.4,4.3,12.4,8,14.7,11
	c0.7,0.8,1.3,1.5,1.5,1.5C277.3,106.3,278,106.1,278.7,105.8L278.7,105.8z M149.1,85.3c0.9-1.8,5.5-5.1,9-6.5c2.5-1.1,6.3-2,8.7-2.2
	l2.2-0.2l0.2-1.3c1.1-7.4,3.5-14.8,6.6-20.4c1.9-3.4,5.1-7.6,7.2-9.6l1.7-1.5l-1.3-1c-6-4.4-16.1-6.7-23.4-5.3
	c-2.2,0.4-9.7,3-10.4,3.6c-0.2,0.2-1,0.6-1.7,1s-1.3,0.7-1.3,0.8c0,0.1,0.3,1.3,0.7,2.6c1.1,3.7,1.5,7.1,1.7,13.1
	c0.1,4.9-0.1,15.1-0.6,24.4C148.2,86.1,148.4,86.7,149.1,85.3L149.1,85.3z M202.6,36.9c0.6-0.2,0.6-0.2,0.1-0.2
	c-0.3,0-0.8,0.1-1.1,0.2C201,37.2,201.7,37.2,202.6,36.9L202.6,36.9z M40.5,148.4c-4.3-0.7-10.9-2.5-10.6-2.8
	c0.1-0.1,1.3,0.2,2.7,0.6c1.4,0.4,4.2,1.1,6.3,1.5C41.9,148.4,43.1,148.8,40.5,148.4L40.5,148.4z M28.6,145.3
	c-0.4-0.2-0.4-0.2-0.1-0.3c0.2,0,0.6,0.1,0.8,0.3C29.8,145.6,29.3,145.6,28.6,145.3z M50,118.1c-0.6-0.9,4.1-6.2,8.3-9.4
	c5.2-4,8.5-5.7,13.9-7c4.5-1.2,7.4-1.5,12.2-1.3c3.5,0.1,4.6,0.3,6.6,0.9c3.6,1.1,8.5,3.5,9.4,4.7c0.4,0.5,0.9,1,1,1
	c0.1,0,0.3-0.4,0.4-0.9c0.1-0.5,0.7-2.3,1.2-4c3.1-9.3,4-14,4.7-24.5c0.7-10,3.2-18.7,6.9-23.4c4.5-5.7,8.4-9.3,12.1-11.2
	c2-1,5.1-2.2,5.3-2c0.1,0.1,0.5,0,1-0.3c2-0.8,8.4-1.2,8-0.4c-0.1,0.1-0.9,0.3-1.9,0.4c-2,0.2-6.3,1.5-8.6,2.6
	c-1.6,0.8-4.8,3-6.3,4.3c-1.1,1-4.1,4.5-6.3,7.5c-4.1,5.6-6.2,12.3-7.6,24.3c-1.2,10.2-1.7,12.4-5.7,22.1c-2.3,5.6-2.5,6.4-2.2,7.5
	c0.2,0.7,0.2,1.2,0.1,1.3c-0.3,0.3-1.8-0.6-4-2.3c-1.8-1.4-5.9-3.4-8.6-4.1c-4.8-1.3-15.7-0.5-22.4,1.7c-5.7,1.9-10.2,5-14.7,10.2
	C50.6,118.4,50.3,118.7,50,118.1L50,118.1z M20.7,116.3c2.4-3.1,6.6-7.2,11.4-10.9c2.1-1.7,1.5-0.9-1,1.2c-2.7,2.4-7.3,6.7-9,8.7
	C20.6,116.9,19.8,117.5,20.7,116.3z M53.8,107.5c-0.3-1-3.3-4.8-5.1-6.4c-6-5.5-12.8-13.4-13.3-15.4c-0.2-0.6-0.3-0.6-4.2,1.4
	c-2.2,1.1-4.4,2.1-4.8,2.1c-0.4,0.1-1.9,0.6-3.4,1.2c-1.4,0.6-4,1.3-5.7,1.7c-1.7,0.3-3.2,0.7-3.4,0.8C13.6,93,6.6,94.1,4,94.4
	c-1.3,0.1-1.2,0.1,1-0.5c3.1-0.8,7.8-2.3,8.5-2.6c1.1-0.5,10.2-3.2,12.7-3.7c0.2-0.1,2.3-0.7,4.6-1.6l4.1-1.5l-0.5-1.8
	c-0.6-2.2-0.6-5.7-0.1-7.8c0.6-2.2,2.6-6.2,4.2-8.4c6.5-8.5,27.8-21,46.3-27c4.7-1.5,4.6-1.3-1,1.4c-11.6,5.9-27.4,16.9-35.4,24.8
	c-3.7,3.7-6,7.1-7.5,11.6c-0.7,2-0.7,2.4-0.6,5.5c0.1,2.5,0.3,3.7,0.7,5.1c0.8,2.4,4,7.2,7.1,10.7c1.4,1.6,2.9,3.4,3.3,4
	c1,1.5,2.8,5.1,2.7,5.3C54.1,108,53.9,107.8,53.8,107.5L53.8,107.5z M33.7,104.3c0-0.1,0.2-0.3,0.5-0.5c0.4-0.3,0.4-0.3,0.1,0.1
	C33.9,104.4,33.7,104.5,33.7,104.3z M72.6,87.6c0-0.1,0.2-0.3,0.5-0.5c0.4-0.3,0.4-0.3,0.1,0.1C72.8,87.7,72.6,87.8,72.6,87.6z
	 M73.7,86.2c0-0.1,0.2-0.3,0.5-0.5c0.4-0.3,0.4-0.3,0.1,0.1C73.9,86.3,73.7,86.4,73.7,86.2z M75.7,83c0.6-1.2,1.2-2.1,1.2-2.1
	c0.2,0.2-1.6,3.6-2,4C74.8,85.1,75.1,84.2,75.7,83z M142.2,39.5c0.2-0.1,0.5-0.1,0.7,0s0,0.1-0.3,0.1
	C142.2,39.6,142,39.6,142.2,39.5z"/>
</svg>
