<?xml version="1.0" encoding="utf-8"?>
<!-- Generator: Adobe Illustrator 25.2.1, SVG Export Plug-In . SVG Version: 6.00 Build 0)  -->
<!DOCTYPE svg PUBLIC "-//W3C//DTD SVG 1.1//EN" "http://www.w3.org/Graphics/SVG/1.1/DTD/svg11.dtd" [
	<!ENTITY ns_extend "http://ns.adobe.com/Extensibility/1.0/">
	<!ENTITY ns_ai "http://ns.adobe.com/AdobeIllustrator/10.0/">
	<!ENTITY ns_graphs "http://ns.adobe.com/Graphs/1.0/">
	<!ENTITY ns_vars "http://ns.adobe.com/Variables/1.0/">
	<!ENTITY ns_imrep "http://ns.adobe.com/ImageReplacement/1.0/">
	<!ENTITY ns_sfw "http://ns.adobe.com/SaveForWeb/1.0/">
	<!ENTITY ns_custom "http://ns.adobe.com/GenericCustomNamespace/1.0/">
	<!ENTITY ns_adobe_xpath "http://ns.adobe.com/XPath/1.0/">
]>
<svg version="1.1"
	 id="svg2535" xmlns:x="&ns_extend;" xmlns:i="&ns_ai;" xmlns:graph="&ns_graphs;" inkscape:version="0.92.4 (5da689c313, 2019-01-14)" sodipodi:docname="area.svg" xmlns:cc="http://creativecommons.org/ns#" xmlns:dc="http://purl.org/dc/elements/1.1/" xmlns:inkscape="http://www.inkscape.org/namespaces/inkscape" xmlns:rdf="http://www.w3.org/1999/02/22-rdf-syntax-ns#" xmlns:sodipodi="http://sodipodi.sourceforge.net/DTD/sodipodi-0.dtd" xmlns:svg="http://www.w3.org/2000/svg"
	 xmlns="http://www.w3.org/2000/svg" xmlns:xlink="http://www.w3.org/1999/xlink" x="0px" y="0px" width="632.2px" height="323.4px"
	 viewBox="0 0 632.2 323.4" style="enable-background:new 0 0 632.2 323.4;" xml:space="preserve">
<style type="text/css">
	.st0{fill:#D0D1D0;}
	.st1{fill:#B0B0B0;}
	.st2{fill:#8E8E8E;}
	.st3{fill:#727373;}
	.st4{fill:#4F4F4F;}
	.st5{fill:#2E2E2E;}
	.st6{fill:#060707;}
</style>
<metadata  id="metadata2541">
	<rdf:RDF>
		<cc:Work  rdf:about="">
			<dc:format>image/svg+xml</dc:format>
			<dc:type  rdf:resource="http://purl.org/dc/dcmitype/StillImage"></dc:type>
			<dc:title></dc:title>
		</cc:Work>
	</rdf:RDF>
	<sfw  xmlns="&ns_sfw;">
		<slices></slices>
		<sliceSourceBounds  bottomLeftOrigin="true" height="323.4" width="632.2" x="0" y="0"></sliceSourceBounds>
	</sfw>
</metadata>
<sodipodi:namedview  bordercolor="#666666" borderopacity="1" gridtolerance="10" guidetolerance="10" id="namedview2537" inkscape:current-layer="svg2535" inkscape:cx="-786.93191" inkscape:cy="157.02146" inkscape:pageopacity="0" inkscape:pageshadow="2" inkscape:window-height="1699" inkscape:window-maximized="1" inkscape:window-width="2736" inkscape:window-x="-13" inkscape:window-y="-13" inkscape:zoom="0.28921569" objecttolerance="10" pagecolor="#ffffff" showgrid="false">
	</sodipodi:namedview>
<path id="path3102" inkscape:connector-curvature="0" class="st0" d="M263.9,322.7c-2.1-0.6-4.7-1.9-6.7-3.1
	c-5.3-3.4-13.7-9.6-16.5-12.2c-0.8-0.7-1.4-1.3-1.5-1.3s-0.1,0.6,0.1,1.3c0.8,4.6,0.9,5.4,0.5,7.1c-0.3,1.5-0.5,1.8-2.5,3.8
	c-3,2.9-3.6,3.2-7.8,3.2c-6.3,0-12.3-1.7-20.5-5.8c-3.6-1.8-6-3.5-9.5-6.6c-2.8-2.5-4.4-4.7-7.7-10.3c-2.7-4.5-3.3-5.8-4.9-10.7
	c-0.8-2.4-1.9-5.2-2.4-6.2c-2.3-4.7-5.5-8.1-10.4-11.3c-5.4-3.6-7.2-4.3-23.6-10.2c-10-3.5-13.9-5.1-19.3-7.9
	c-10.6-5.4-18.5-11.7-27.9-22.4c-1.8-2-4.1-4.9-5.1-6.3l-1.8-2.6l-8.4,7c-4.6,3.8-8.9,7.4-9.6,7.8c-0.7,0.5-2.8,2.1-4.8,3.8
	c-3.2,2.6-8.3,6.6-31.7,24.7c-3.2,2.5-7.8,5.9-10.1,7.5c-2.3,1.6-4.6,3.3-5.1,3.7s-5,3.7-10,7.2c-5.1,3.6-10.7,7.6-12.6,9
	s-3.5,2.5-3.7,2.5c-0.6,0-1.2,0.5,16.9-14.2c4.7-3.8,10.3-8.3,12.4-10.1c5-4,19.2-15,34.8-26.6c6.6-5,12.5-9.4,13-9.9
	c0.5-0.5,4.7-3.7,9.3-7.2s8.4-6.5,8.4-6.6c0-0.1-0.5-1.5-1.3-3.1c-2.9-6-3.6-9.4-3.6-17.1c0-5.8,0.4-9,1.5-12.9
	c1.1-3.6,3.3-7.8,3.9-7.3c0.1,0.1-0.2,1.2-0.7,2.5c-1.2,3.2-1.6,5.2-2,9.7c-0.5,6.5,0,12.6,1.5,17.2c0.9,2.6,3.8,8.5,4.4,8.8
	c0.2,0.1,0.4,0.4,0.4,0.7c0,1.4,7,9.8,13.6,16.4c8.3,8.3,16.6,13.9,27,18c1.7,0.7,8.7,3.1,15.5,5.4c13.2,4.5,14.8,5.1,19.5,7.8
	c3.7,2.2,5.5,3.5,7.9,5.8c3.9,3.9,5.8,7,8.1,13.9c1.1,3.2,2.3,6.2,3.5,8.5c3.5,6.7,4.6,8.3,7.4,11.1c3.4,3.3,5.3,4.7,10,7.1
	c7.6,3.8,13,5.8,17.3,6.4c2.1,0.3,2.6,0.3,4.1-0.1c2.4-0.6,3-1.1,3.7-2.9c0.6-1.4,0.6-1.8,0.3-5c-0.2-3.2-0.3-3.6-1.2-5.3
	c-0.5-1-1.3-2.8-1.7-4c-0.4-1.2-1.2-2.8-1.8-3.7c-0.6-0.9-1.9-3.2-2.9-5.2c-1.2-2.2-2.4-4.2-3.4-5.3c-3.2-3.7-6.7-8.8-8-12
	c-0.6-1.3-2-4.5-3.1-6.9c-3.1-6.8-5.2-13.2-6.2-19c-0.5-3.1-0.4-4,0.6-4c0.4,0,0.8,0.2,1,0.4s0.7,2,1.2,4c1.1,4.5,2.4,8,6.1,16.7
	c3.3,7.7,4.6,10.3,7.7,15.1c9.9,15.4,9.7,15.1,11.3,19.1c0.9,2.2,1,2.4,3.4,4.4c1.4,1.2,3.8,3,5.4,4c3.1,2,11.7,6.4,15.8,8
	c7.5,3,12.2,2.2,19.7-3.2c4.9-3.6,5.7-6.5,3.3-11.5c-0.6-1.3-1.7-3.1-2.4-4c-1.5-1.9-7.9-8.2-11.9-11.7c-6.1-5.2-16-16.7-19.4-22.4
	c-2.8-4.7-6.1-11.6-9.2-19.2c-3.5-8.4-4.5-11.2-4.9-13.9c-0.4-2.3-0.6-10.8-0.2-11.1c0.2-0.1,0.8-0.4,1.4-0.5c4.6-1.3,9.7,2,17,11.1
	c1.5,1.8,4.1,5,5.8,7.1s4.4,5.2,5.8,7c3.7,4.5,9.4,10.3,12.7,13c3.7,3,11.1,8.6,14.7,11c1.6,1.1,4.4,3.2,6.2,4.6
	c6.9,5.6,12.2,9,16.7,10.9c7.3,3.1,21.7,4.9,27.9,3.6c6.2-1.3,9-5.3,8.6-12.6c-0.3-6.5-2.2-8.5-13.5-14.7c-4.4-2.4-13.3-7.5-20-11.5
	c-3.9-2.3-13.9-9.2-19.2-13.1c-9.5-7.1-21-17.5-25.3-22.8c-2.3-2.9-4.6-6.9-5.3-9.5c-0.9-3.4-0.7-3.8,0.8-1.4
	c0.8,1.3,0.9,1.4,2.7,1.7c3.9,0.7,9.8,2.9,16.9,6.3c17.8,8.5,29.7,13.4,37,15.3c7.2,1.9,15.1,2.3,27.3,1.4
	c7.2-0.5,10.9-1.3,14.9-3.3c6.3-3,9.8-7.2,10.2-12.3c0.1-1.9,0.1-2.2-0.5-3c-0.9-1.4-3.4-3-7.8-5.2c-4.2-2.1-8.7-3.7-13.6-4.8
	c-4-0.9-15.1-2.3-21.3-2.6c-10.3-0.6-15.9-2-24.7-6c-1.6-0.7-5.3-2.2-8.1-3.2c-5.8-2.1-9.2-3.8-15.1-7.3c-5.3-3.2-6.4-3.6-12.9-5.7
	c-5.5-1.8-9.2-3.2-13.8-5.3c-2.6-1.2-3.4-1.4-2.7-0.7c0.5,0.5,0.4,2-0.1,3c-0.5,0.9-1.7,1.6-2.7,1.6c-1.1,0-6.7,1.6-15.4,4.4
	l-3.6,1.1l-0.2,5.3c-0.2,7-0.7,9.1-3.3,14.6c-3.7,7.9-9.7,14.9-18,21.1c-3.3,2.5-13.2,8.2-18.7,10.6c-4.3,2-13.5,4.8-19,5.8
	c-3.8,0.7-14.4,0.9-19.1,0.3c-7.7-1-16.6-3.8-22.5-7.2c-3.8-2.2-8.9-6.7-11.6-10.3c-5.1-6.8-7.9-17.8-7.1-27.3
	c0.6-6.1,2.4-13,5.2-19.4c2.9-6.7,8.6-14.8,15.1-21.5c1.6-1.7,2.7-3,2.6-3c-0.5,0-5.7,1.7-13.6,4.5c-6.2,2.2-12.1,4.4-39.5,14.6
	c-14.1,5.3-17,6.3-27.4,9.3c-3.3,1-6.4,2-7,2.2c-1.4,0.6-15.4,5.4-19.1,6.6c-1.7,0.5-3.2,1-3.4,1.1c-0.2,0.1-0.3,0.1-0.3,0
	c0-0.3,16.2-7.7,21.8-9.9c1-0.4,4.2-1.9,7-3.2c6.5-3.1,11.3-5,21.8-8.7c4.7-1.6,13.1-4.6,18.7-6.5c12.3-4.3,15.2-5.2,23.9-7.5
	c3.7-1,7.7-2.1,9-2.5s3.7-1,5.5-1.4c5.8-1.3,5.9-1.3,9.2-4c8.2-6.6,19.1-12.5,29-15.8c14.3-4.7,29.1-6,39.7-3.4
	c4.8,1.2,10.4,4.4,13.2,7.7c0.8,0.9,1.7,1.8,2.1,2s1,0.8,1.4,1.3c0.6,0.8,0.6,0.9,0.2,1.4c-0.2,0.3-0.4,0.6-0.4,0.6
	c0,0.1,0.6,0.4,1.4,0.6c3.1,1,8.2,3.5,15.7,7.7c9.1,5.1,13.9,6,28.8,5.7c7.5-0.2,8.8-0.1,10.8,0.3c4.3,0.9,6.2,2.2,7.7,5.5
	c1.9,4,1.7,6.1-1,10.4c-2.5,4-3.6,5.6-5.1,7.5l-1.3,1.7l0.6,0.5c0.8,0.6,8.7,4.7,10.6,5.4c0.8,0.3,3.5,1.3,5.9,2.1
	c2.4,0.9,5.8,2.2,7.6,3c8.9,4.1,14.1,5.5,25.3,6.8c5.5,0.7,13.9,2,17.4,2.8c6.5,1.4,13.2,4.1,18.4,7.5c6.6,4.1,7.8,6.6,5.9,12
	c-2.1,6-6.5,11-12.7,14.1c-4,2-7.7,2.9-15.5,3.8c-13,1.5-19.3,1.1-27.9-1.6c-3.8-1.2-20.6-9.7-33.8-17.1c-6.3-3.5-18.2-8.9-19-8.6
	c-0.3,0.1,0.9,1.9,3.6,5c7.2,8.5,28.4,24.5,50.6,38.4c4.5,2.8,8.8,5.6,9.5,6.1s3.8,2.6,6.7,4.5c9.8,6.5,12.3,9.9,12.3,16.9
	c0,2.8-0.8,6.5-1.8,8.7c-1.1,2.2-3.6,4.7-6.1,5.9c-4.3,2.1-9.5,2.8-18.2,2.6c-10.8-0.3-16-1.4-23.2-5.2c-4.6-2.4-7.1-4.1-14-9.8
	c-11.8-9.7-21.2-19.8-30.7-33.2c-1.7-2.4-4.5-6.2-6.3-8.6s-4-5.5-5.1-7c-2.3-3.3-5.3-6.3-7.4-7.5c-1.3-0.8-1.9-1-3.5-1.1
	c-2.2-0.1-2.1-0.3-1.3,3.3c1.7,7.6,1.9,8.2,7.6,20.6c3.1,6.8,7.2,14.2,9.9,18.3c3.1,4.6,12.3,15.2,16.1,18.5
	c5.1,4.5,12,11.7,13.6,14.1c4.9,7.3,5.3,12.9,1.4,17.7c-3.3,4.1-10,8.5-14.4,9.5C270,323.6,266.3,323.5,263.9,322.7L263.9,322.7z
	 M183.3,207.5c9.3-1.2,17.7-4,25.7-8.5c3.9-2.2,5.4-3.4,6.9-5.7c2.2-3.2,3-5.2,3.1-7.6c0.1-2.2,0.3-2.1-2.1-1.3
	c-3.4,1.2-11.7,3.5-14.9,4c-1.6,0.3-2.1,0.2-3.1-0.1c-1.3-0.5-1.7-1.1-1.7-2.3c0-1.6,1.3-3.7,8.8-13.5c4.2-5.5,6.7-9.5,8.6-13.5
	c1.3-2.7,2.6-3.9,4.6-4.3c1.5-0.3,1.6-0.3,6.6,0.7c2.1,0.4-0.5-0.8-9.9-4.7l-4.4-1.8l-3.6,1.8c-2.3,1.2-3.9,1.8-4.5,1.8
	c-0.5,0-1.7,0.4-2.5,0.8c-2.5,1.3-3.9,1-2.9-0.6c0.4-0.7,0.4-0.8-0.9-2.3c-1.5-1.8-2.8-2.6-5.5-3.6c-3.2-1.1-5-1.3-9.2-1.2
	c-8.5,0.3-15.4,3-23.7,9.1c-8.8,6.6-14,16.7-13.5,26.6c0.3,6.2,2.4,11.5,6.4,16C158.6,205.3,170.7,209.2,183.3,207.5L183.3,207.5z
	 M288.5,172.5c0.8-0.8,5.1-7.5,5.9-9.2c1.1-2.2,1.4-3.6,1-5c-0.5-1.7-2.6-3.9-4.4-4.8l-1.4-0.7l-10.3,0.1
	c-17.1,0.1-20.9-0.7-31.6-7.2c-5.7-3.4-13-7.2-15.3-8l-1.6-0.5l-3.1,1.9c-4.6,2.8-4.9,3-9.9,5.8c-2.5,1.4-4.6,2.7-4.6,2.9
	c0,0.2,1,0.4,2.2,0.5c6.4,0.6,7.8,1,15,4c4.7,1.9,6.8,2.6,14.4,4.6c7.9,2,10,2.8,17.7,6.2c7.7,3.4,10,4.3,16.2,6.3
	c2.9,0.9,6.1,2.1,7.1,2.6c1.1,0.5,2,0.9,2.1,0.9C287.8,173.1,288.2,172.8,288.5,172.5L288.5,172.5z M255.6,165.3
	c-0.7-0.7-11.9-4.3-12.2-3.9c-0.1,0.1,0.7,0.4,1.7,0.8c1,0.3,3.6,1.2,5.7,1.9C254.2,165.2,256,165.6,255.6,165.3z M184,246.4
	c0-0.3,4-5,6.3-7.3c1.6-1.6,2.9-2.6,5.4-4.1c1.8-1.1,4.8-3,6.6-4.2c3.5-2.4,6.3-3.7,11.2-5.3c5.9-1.9,6.4-2.3,15.4-11.1
	c10.9-10.7,12.9-12,21.5-13.7c3.2-0.6,4.5-1.1,6.6-2.1c2.5-1.2,2.8-1.5,7.1-5.8c4.9-4.9,5.9-5.7,12.5-9c2.6-1.3,5.2-2.1,6-1.7
	c0.6,0.2,0.4,0.6-0.4,0.8c-1.6,0.3-3,1-7.1,3.3c-5.1,2.9-7.2,4.6-10.4,8.5c-2.9,3.5-4.7,5.2-6.4,6.2c-1.5,0.8-5.5,2.1-9.9,3.1
	c-3.7,0.8-7.2,2.4-9.9,4.5c-1,0.8-4.7,4.3-8.1,7.8c-3.5,3.5-7.1,7.1-8.1,7.9c-2.3,1.9-5.4,3.4-9.3,4.7c-4.5,1.4-6.8,2.4-9.6,4.2
	c-1.4,0.9-3.7,2.3-5.1,3c-1.4,0.8-3,1.8-3.5,2.3c-0.5,0.5-1.6,1.2-2.4,1.8c-0.8,0.5-2.9,2.2-4.7,3.7
	C184.4,246.5,184,246.8,184,246.4L184,246.4z M531.3,197.4c-4.3-0.8-9.3-2.7-12.7-4.9c-6.7-4.3-19.1-15.1-30.2-26.2
	c-6.2-6.2-7.7-7.6-10-9c-3.1-2-9.2-7-13.8-11.3c-4.3-4-6.8-6.2-9.8-8.4c-1.4-1-3.7-2.8-5.2-3.9c-9.2-7.2-35.5-25-40.8-27.6
	c-1.8-0.9-5.3-1.8-6.2-1.6c-0.4,0.1-0.9,0.3-1,0.5c-0.2,0.2-0.4,1.7-0.5,3.3c-0.3,3.8-1.3,9.7-2.6,15.2c-2.7,11.6-5.6,19.9-8.4,24.1
	c-4.6,7-10.7,14-15,17.2c-2.6,1.9-8,5.2-10,5.9c-1.2,0.5-2.2,0.6-4,0.6c-2.1,0-2.7-0.1-4-0.7c-3.4-1.6-7.8-5.4-9.7-8.3
	c-2-3.2-2.7-6.9-2.1-11.2c0.5-3.6,1.5-6,5.5-13c4.1-7.3,5.5-10.2,7.3-15.6c1.4-4.2,3.1-11.5,2.4-10.8c-0.1,0.2-1,1.2-1.9,2.3
	c-1.9,2.3-11.8,11.6-15.5,14.5c-3.2,2.5-8.1,6.7-14,12c-5.3,4.7-7.3,6.4-7.5,6.4c-0.3,0,1-1.5,4.1-4.7c1.9-1.9,6.8-6.9,11-11.2
	c6.6-6.7,13.8-13.5,19.3-18.1c0.8-0.7,2.2-2.1,3.1-3.1c1.5-1.8,1.6-2,1.6-3.3c0-1.4-0.5-4.4-1.8-10c-1.5-6.7-1.9-10.4-1.7-15.8
	c0.2-5.8,0.6-7.8,2.6-12c1.7-3.5,3.3-5.7,5.7-7.6c1.8-1.5,4.2-2.8,4.5-2.5c0.1,0.1-0.3,0.5-0.8,1c-2.2,1.9-5,4.8-5.8,6
	c-1.1,1.7-2.5,5-3.1,7.5c-0.4,1.7-0.5,2.8-0.5,8.5c0,7.3,0.1,8,2.3,17.3c1.1,4.8,1.2,5,1.2,9.7c0,5.7-0.5,8.2-2.6,14.6
	c-1.9,5.6-3.3,8.6-6.8,14.8c-5.5,9.6-6.2,11.6-6.1,16.4c0.1,2.6,0.2,3.1,1,4.7c1.1,2.2,3.6,5,6.7,7.2c4.9,3.5,7.4,3.3,14.1-0.9
	c3.9-2.5,5.7-3.9,8.9-7.1c2.8-2.8,5.8-6.7,9.1-11.4c2.6-3.8,4.9-10.3,7.5-21c1.2-5.1,2.9-12.9,3.4-16.2c0.2-1,0.8-4,1.4-6.8
	s1-5.1,0.9-5.1c-0.2-0.2-14.9,7.9-16.2,8.9c-0.5,0.4-1.2,0.9-1.6,1.1c-1.7,0.9-3.7-0.2-3.6-2.1c0-1.2,0.1-1.3,4.6-8.4
	c1.9-2.9,5.4-8.7,7.9-12.8c9.5-15.9,12.5-19.7,15.9-20.3c1.1-0.2,1.6-0.1,4.4,1c3.8,1.5,7.8,2.6,12.9,3.4c6.2,1,11.6,2.1,12.7,2.6
	c0.7,0.3,1.2,0.7,1.5,1.4c0.6,1.4,0.2,2.5-1.4,3.9c-2.1,2-8.8,6.1-14.7,9.1c-1.5,0.8-2.7,1.4-2.7,1.5c0,0.1,0.4,0.7,0.8,1.4
	c1,1.6,3.2,2.8,6.5,3.5c2,0.4,2.5,0.4,4.1,0.1c3.9-0.8,12.5-3.9,16.9-6.3c11.8-6.2,21.2-14.6,27.1-24.2c4.2-6.8,6.5-14.8,6.2-21.6
	c-0.1-1.7-0.3-3.3-0.4-3.5c-0.2-0.3-2.4-1.2-5.4-2.3c-2.8-1-8.3-3.1-12-4.5c-10.9-4.2-18.7-6.7-21.8-6.8c-2.4-0.1-11.2,6-14.9,10.4
	c-3.4,4-5.5,7.8-6,10.8c-0.4,2.7-0.4,3.3,0.3,3.3c0.8,0,1,0.7,0.4,1.4c-0.3,0.3-1.4,0.9-2.5,1.3s-2.2,1-2.3,1.2
	c-0.3,0.5-4.8,2.3-8.1,3.2c-5.1,1.4-6.3,1.7-10.7,3c-9.1,2.7-12.9,3.5-15.1,2.9c-0.6-0.1-0.7-0.3-0.5-0.5c0.1-0.2,0.3-0.8,0.3-1.4
	c0-0.6,0.1-1.2,0.3-1.4c0.2-0.2,0.5-1.5,0.7-2.9c0.8-4.7,3-10.2,5.6-14.3c2.8-4.3,8.7-10.9,13-14.5c1.2-1,2-1.9,1.9-1.9
	c-0.7-0.2-14.8,4.6-29.5,10.2c-15.6,5.9-39.2,15.4-40,16c-0.3,0.3-5.5,2.5-16.8,7.1c-9.3,3.9-13.7,5.8-20.4,8.8
	c-5.6,2.6-7.5,3.1-3.6,1c9.3-5,38.6-19.1,39.6-19.1c0.1,0,2.8-1.2,6-2.6c6.9-3,10.4-4.5,19.3-7.9c23.9-9.1,39.2-14.5,47.6-16.8
	c3.2-0.9,3.7-1.1,6-2.7C427.1,8.1,443,1.9,458.4,0.3c3.6-0.4,11.9-0.4,15.4,0c8.3,0.9,15.5,3.2,21.1,6.6c4.7,2.9,9.5,7.2,11.9,10.8
	c4.5,6.6,7.1,16.1,6.5,24.1l-0.2,2.8l6,2.3c13,5,15.4,5.7,26.1,7.7c6.9,1.3,8.7,1.9,12,3.5c3,1.5,4.9,2.8,9.3,6
	c5.2,3.8,13.3,7.7,18.1,8.6c3.3,0.7,9.2,1.1,14.8,1.1c8,0,14.6,0.8,20.6,2.5c6.8,1.9,9.5,4.4,8.6,8.1c-0.7,2.9-5.2,7.5-10.4,10.8
	c-3.6,2.3-9.7,5.4-11.3,5.8c-0.7,0.2-1.3,0.4-1.4,0.5c-0.1,0.1,0.7,0.6,1.8,1.1c4.7,2.2,15.1,7.4,17,8.7c2.8,1.8,5.8,4.9,6.9,7.2
	c2.1,4.3,1,10.2-2.8,14.1c-2.2,2.2-3.6,3.1-6.5,4.1c-4.8,1.7-11.2,1.7-17.3,0.1c-3-0.8-10.5-3.7-14.1-5.5c-6-3-17.6-9.7-25-14.4
	c-2.1-1.4-6.1-3.9-8.9-5.7c-4.5-2.9-7.7-5.1-19.1-13.5c-3.8-2.8-7.1-4.8-8.2-5.1l-0.8-0.2l1.1,1c0.6,0.6,4.4,4.2,8.4,8.2
	c4,3.9,8.5,8.2,10,9.4c1.5,1.2,3.8,3.1,5.1,4.2c1.3,1.1,3.8,3,5.5,4.2s6.3,4.5,10.1,7.3c7.9,5.8,16.3,11.6,21,14.6
	c7.7,4.9,14.2,9.3,17.4,11.9c4.6,3.8,5.8,5.3,6.5,8.6c0.8,3.6-0.3,6.5-3.6,9.7c-2.1,2.1-2.6,2.3-8.2,4.3c-7,2.4-14.8,2.8-23.1,1.1
	c-7.8-1.6-15.4-5.4-22.9-11.5c-1.5-1.2-5.4-4.4-8.7-7c-6.2-5-14.1-12.2-18.3-16.8c-10.5-11.4-14.5-15.8-14.5-16c0-0.1-2.9-3-6.4-6.3
	c-5.2-5-6.7-6.3-8.2-7.1c-2.3-1.2-4.4-1.4-5.4-0.7l-0.6,0.5l0.9,2.5c0.5,1.4,2,4.7,3.3,7.4c2.7,5.4,5.4,9.2,11.5,16.3
	c4.3,5,6.5,7,14.1,12.6c3.8,2.8,8.9,6.7,11.4,8.6c2.5,2,5,4,5.7,4.4c0.7,0.5,3.8,2,7.5,3.4c3.5,1.4,6.9,2.9,7.5,3.4
	c1.4,1.1,3.3,3.9,3.9,5.7c0.6,1.9,0.8,6.5,0.4,8.4c-0.9,4-3.6,7.3-8,9.4C545.6,197.2,537.5,198.5,531.3,197.4L531.3,197.4z
	 M543.3,192.4c6.8-1.2,11.1-3.7,12.3-7.2c0.5-1.6,0.6-5.5,0.1-7.4c-0.2-0.8-0.8-2-1.3-2.8c-1.1-1.7-1.8-2.1-9.7-5.4
	c-4.9-2-5.4-2.3-8.2-4.6c-5.1-4.1-10.3-8.1-15.4-11.9c-6.1-4.6-8.6-6.8-10.9-9.4c-1-1.1-3.1-3.5-4.8-5.3c-4.3-4.7-6-7.1-8.4-12
	c-2.2-4.4-3.2-7.1-4.1-10.7c-0.3-1.1-0.5-1.7-0.5-1.3c0,0.5-0.1,0.6-0.4,0.3c-0.6-0.5-0.5-1.2,0.2-2.8c1.4-3.2,5.2-3.3,10-0.3
	c2.5,1.5,8.6,7.2,20.4,19c10.9,10.9,17.1,16.4,24.1,21.3c1.6,1.1,5.3,3.9,8.2,6.1c8.5,6.4,11.2,8.2,16.1,10.7
	c3.6,1.8,6,2.6,10.7,3.8c9.4,2.3,15.1,2.3,21.6,0.2c3.6-1.2,6.7-3.6,7.7-6.2c1-2.4,0.3-5.9-1.8-8.3c-1.9-2.2-8.4-6.6-16-11
	c-12.8-7.3-30.4-20-46.5-33.5c-5.7-4.8-16.3-16-18.8-19.8c-0.7-1.2-0.9-1.3-1-0.8c-0.1,0.3,0.1,1,0.4,1.5c0.6,1.2,0,1-0.9-0.3
	c-0.7-1-0.8-2.8-0.3-3.2c1.2-0.9,4-0.4,7.2,1.3c1.4,0.7,5.8,3.6,9.9,6.4c7.9,5.4,10.6,7.2,15.2,9.7c1.6,0.9,5.5,3.1,8.6,4.9
	c20.6,11.9,30.8,17.2,38.3,19.6c5,1.6,13.3,2.2,16.3,1.1c1.9-0.7,4.2-2.1,5.7-3.7c1.9-1.9,2.7-3.8,2.7-6.9c0-3-0.6-4.4-3.4-7.1
	c-2.9-2.9-6.1-4.5-24.2-11.9c-11.2-4.6-18.4-8.2-29-14.3c-8.3-4.8-13.2-8.5-16.1-12.3c-1.5-1.9-5.1-7.9-5.1-8.5
	c0-0.5,0.5-0.1,1.4,1.1c2.3,3.2,8.6,8.7,14.4,12.6c6.4,4.3,33.2,17.5,35.5,17.4c1.5,0,3.7-1,8.4-3.7c5.6-3.2,7.9-4.8,10.7-7.5
	c2.9-2.8,4.2-5.1,3.7-6.8c-0.6-1.9-2.3-2.8-8-4.2c-5.5-1.4-9.8-1.8-20-1.9c-13.9-0.2-16.2-0.6-24.4-4.6c-4.6-2.3-5.7-3-10.3-6.4
	c-7.5-5.6-9.8-6.7-18.6-8.2c-9.3-1.7-13.5-2.9-25.6-7.4c-3.7-1.4-6.8-2.4-6.9-2.4c-0.1,0.1-0.3,0.7-0.4,1.3
	c-0.4,2.3-2.1,7.7-3.5,10.7c-2.7,5.9-7.7,14-12.4,19.7c-4.6,5.6-11.7,12.3-17.2,16.3c-4.5,3.2-13.8,8.4-18.4,10.2
	c-2,0.8-11,3.8-14.9,5c-5.6,1.7-15.1,2.4-21,1.6c-1.7-0.2-3.2-0.4-3.2-0.4c0,0,1.1,0.8,2.6,1.7c2.1,1.3,11.8,7.6,20.1,13.1
	c0.5,0.4,1.4,0.9,1.8,1.1s1.8,1.3,3.1,2.3c1.3,1,2.8,2,3.3,2.3c1.1,0.6,3.3,2.5,8.6,7.6c2.1,2,4.2,3.7,4.6,3.8
	c0.7,0.2,1.4,0.7,6.2,4.8c1.3,1.1,2.8,2.1,3.3,2.3c2.2,0.6,2.2,0.6,12.6,10.8c5.9,5.7,10.9,10.1,18.8,16.4
	c12.5,10,16.8,12.6,23.5,14.3C534.6,193.1,538.6,193.2,543.3,192.4L543.3,192.4z M477,118c0-0.4,8-9.5,9.5-11
	c3.7-3.4,6.1-4.7,13.6-7.6c2.3-0.9,4.8-1.9,5.6-2.2c2.9-1.3,7.1-4.4,10.4-7.5c5.4-5.1,13.7-11.4,17.2-13.1c1.9-0.9,4.7-1.8,11.4-3.8
	c1.3-0.4,1.8-0.7,4-3c1.4-1.4,2.6-2.5,2.7-2.3c0.2,0.3-2.5,4.4-4,6c-0.8,0.8-1.7,1.4-3.2,2c-1.2,0.5-2.4,0.8-2.6,0.8
	c-0.9,0-6,1.9-8.2,3c-2.4,1.2-10.2,7-13,9.5c-1,0.9-2.8,2.6-4.1,3.9c-2.4,2.3-6.2,5-9.3,6.6c-1,0.5-3.8,1.7-6.3,2.6
	c-5.3,2-5.7,2.2-8.8,4.3c-2.4,1.7-4.4,3.2-10.4,8.5C477.2,118.2,477,118.4,477,118L477,118z M405.7,102.1c-0.4-0.5-1.3-1.9-2.1-3.1
	c-0.7-1.2-1.4-2.1-1.5-2.1c-0.3,0-0.5,0.8-0.6,3.7l-0.1,2.5l2.6,0l2.6,0L405.7,102.1L405.7,102.1z M480.8,32.8
	c0-0.1-0.5-1.2-1.1-2.4c-4.3-8.7-13.6-12.9-25-11.3c-3,0.4-6.8,1.3-7.7,1.8c-0.4,0.2-0.4,0.2,3.4,1.2c2.5,0.6,6.5,2,14.1,5
	c7.4,2.8,15.6,5.9,16,5.9C480.7,32.9,480.8,32.8,480.8,32.8L480.8,32.8z"/>
<path id="path3100" inkscape:connector-curvature="0" class="st1" d="M264.4,322.7c-1.8-0.5-5.1-2-7-3.2c-4.8-3-14-9.9-16.8-12.5
	c-1.6-1.5-2-1.7-1.8-0.8c1.1,5.4,1.2,8,0.3,9.8c-0.6,1.1-3.9,4.1-5.2,4.7c-0.9,0.4-1.8,0.5-4.6,0.5c-5.7,0-10.9-1.3-17.9-4.6
	c-4.2-2-5.9-3-8.6-5c-4.8-3.6-6.9-6.1-10.8-12.8c-2.7-4.6-3.4-6-5-10.7c-3.1-9-6-13.1-12.7-17.5c-5.7-3.7-7.1-4.3-23.2-10.1
	c-11-3.9-14.2-5.2-19.6-8c-5.5-2.8-8-4.3-13.1-8.1c-6.2-4.6-16.1-14.9-20.4-21.2l-1.7-2.5l-0.6,0.5c-1.7,1.6-16.4,13.6-17.3,14.2
	c-0.6,0.4-2.4,1.8-4.1,3.2c-3.5,2.9-6.3,5.1-21.5,16.9c-6.1,4.7-12.4,9.6-14,10.8c-1.6,1.2-4.8,3.6-7.1,5.2
	c-2.3,1.6-4.6,3.3-5.1,3.7c-1.6,1.5-18.5,13.3-18.7,13.1c-0.1-0.1,0.4-0.6,1-1.2c1.2-1.1,12.7-10.5,15.3-12.5
	c0.8-0.6,3.1-2.5,5.1-4.1c4.3-3.5,22.2-17.3,37.2-28.6c6-4.5,14.7-11.1,19.3-14.7s8.8-6.8,9.2-7.1l0.7-0.5l-1.4-3
	c-3-6.4-3.6-9.2-3.6-17.3c0-7.1,0.6-10.8,2.3-15.3c0.7-1.8,1.6-3.4,1.9-3.1c0.1,0.1-0.1,0.9-0.4,1.8c-1.5,4.6-2.2,12.5-1.6,18.2
	c1.1,10.9,6.4,20.1,19.8,33.7c6.7,6.8,14,12,22.5,16.1c4.4,2.1,6.9,3,20.8,7.7c12.9,4.3,14.5,5,18.6,7.4c5.5,3.3,8.3,5.6,11.2,9.4
	c2.1,2.8,3.5,5.8,5.4,11.2c2.4,7.1,6.5,14.6,10.1,18.3c3.1,3.2,5.9,5.3,10.3,7.5c10.4,5.2,17.2,7.3,21.2,6.6c2.7-0.5,3.8-1.2,4.6-3
	c0.6-1.4,0.6-1.8,0.5-4.8c-0.2-3.1-0.2-3.4-1.4-5.9c-0.7-1.4-1.4-3.3-1.7-4s-0.9-2.1-1.4-3s-1.9-3.3-3.1-5.5
	c-1.4-2.5-2.7-4.7-3.9-6.1c-3.5-4.1-6.8-9.3-8.1-12.6c-0.3-0.7-1.3-3.1-2.4-5.3c-3.2-6.8-5.1-12.7-6.4-19.3c-0.6-3.3-0.6-4,0.4-4
	c0.9,0,1.2,0.4,1.5,2.4c0.7,3.8,3,10.2,7.4,20.5c2.7,6.2,3.8,8.5,6.8,13c10.1,15.7,9.8,15.3,11.3,19.1c0.8,2.1,1,2.4,3.1,4.2
	c3.6,3.1,8.4,6.1,14.3,9c9.2,4.5,12.8,5.6,17.1,5c2.6-0.4,5.6-1.8,9.1-4.2c5.9-4,7-7.1,4.5-12.4c-0.6-1.2-1.7-3-2.3-3.9
	c-1.5-2-8.6-9-12.4-12.3c-3.2-2.8-4-3.6-9.2-9.4c-4.2-4.8-8.1-9.7-9.7-12.5c-2.7-4.6-6.4-12.3-9.3-19.4c-3.6-8.8-4.1-10.2-4.7-12.9
	c-0.4-2.1-0.9-10-0.6-11c0.3-1.4,3.9-1.8,6.5-0.7c3.3,1.4,6.4,4.1,11,9.8c1.7,2,3.7,4.5,4.6,5.5c0.9,1,3.5,4.1,5.8,7
	c5.9,7.3,12.8,14.1,18.9,18.8c2.6,2,6.4,4.8,8.3,6.1c1.9,1.3,5.3,3.9,7.5,5.6c6.4,5,7.9,6.1,11.1,8.1c5.3,3.3,9.1,4.8,15.3,6
	c11,2.2,19.5,2,23.5-0.5c3.3-2.1,5-6.5,4.6-12c-0.4-5.3-2.7-8.1-9.9-12.1c-6.6-3.6-19.7-11.1-23.6-13.5c-4.7-2.8-14.6-9.5-19.7-13.4
	c-9.5-7.1-20.6-17.1-24.7-22.3c-2.4-3-4.6-6.8-5.3-9.1c-0.9-3-0.3-2.6,3.6,2.8c2,2.8,7.1,7.9,11.7,11.8c5.2,4.4,14.7,11.7,19.7,15.2
	c9.6,6.7,13.1,9,17,11.5c10.8,6.8,14.6,9.3,20.1,13c10.4,7,12.4,9.4,13.1,15.5c0.3,2.5-0.1,6-1.2,9c-1.6,4.7-5.6,7.7-12.2,9.1
	c-4.8,1.1-16.9,1-23.6-0.2c-5.3-0.9-11.5-3.5-17.2-7c-4.8-3-14.3-11.1-21.3-18.2c-6.9-6.9-12-13-18.5-22.1c-1.6-2.2-4.3-5.9-6-8.3
	s-4.1-5.5-5.1-7c-4.1-5.7-8.2-8.9-11.5-8.9c-0.8,0-1.5,0.1-1.6,0.3c-0.2,0.3,0.5,3.7,1.7,8.5c1.4,5.9,11,25.8,16.1,33.4
	c3.1,4.6,12.1,15,16.6,19.1c5.8,5.2,11.7,11.4,13.3,13.9c4.1,6.1,5,10.9,3,15.2c-1.7,3.7-8.3,9.1-13.6,11.2c-2,0.8-2.6,0.9-5.5,1
	C266.9,323.1,265.5,323,264.4,322.7L264.4,322.7z M186.2,244.2c0-0.3,1.8-2.5,4-4.7c1.8-1.8,2.9-2.7,5.9-4.5c2-1.2,4.8-3,6.2-4
	c3.1-2.2,6-3.6,10.9-5.2c4.1-1.4,6-2.2,7.7-3.5c0.6-0.5,4.4-4.1,8.5-8.1c11-10.8,11.9-11.3,23.6-13.9c1.2-0.3,3.2-1,4.4-1.6
	c1.9-1,2.8-1.7,6.9-5.8c3.7-3.7,5.1-4.9,6.9-5.9c3.4-2,7.3-4,8.4-4.3c2-0.7,1.7-0.1-0.8,1.2c-8,4.3-10.4,6.1-13.7,10.1
	c-5.5,6.6-6.6,7.3-14.8,9.3c-9,2.2-11.3,3.7-21.1,14c-7.4,7.7-9.7,9.4-15.8,11.3c-4.4,1.4-7.2,2.6-9.9,4.3c-1.4,0.9-3.7,2.3-5.1,3.1
	s-3.2,1.9-3.8,2.5s-1.9,1.4-2.6,1.9c-0.8,0.5-2.3,1.6-3.4,2.5C186.5,244.4,186.2,244.5,186.2,244.2L186.2,244.2z M159.4,235.2
	c-8.9-1.2-19-4.8-24.7-8.9c-9.6-6.9-14.3-15.2-15.8-27.9c-0.4-3.3-0.4-4.5-0.1-7.4c1.4-15.1,8.5-29.1,21.6-42.5
	c1.2-1.2,2.1-2.3,2-2.3c-1,0-16,5.2-28.4,9.8c-5.1,1.9-16.2,6.1-24.8,9.3c-14.9,5.6-20.7,7.5-30.7,10.4c-2.4,0.7-4.6,1.4-4.9,1.6
	c-0.8,0.5-16.6,5.7-16.8,5.6c-0.3-0.3,1.2-1,8.5-4.2c9.6-4.2,14.2-6.2,17.4-7.8c4.4-2.2,9-3.9,27.5-10.4
	c23.1-8.1,24.7-8.6,35.1-11.4c11.9-3.2,13-3.5,16.6-4.4l3.2-0.7l3.1-2.5c8.5-6.8,20.3-13.1,30.3-16.2c10.8-3.3,22.8-4.9,31.4-4
	c8.5,0.9,14.2,3.3,19.3,8.3c1.2,1.2,2.5,2.3,2.8,2.6c0.9,0.6,1.5,1.8,1.1,2.4c-0.4,0.7-0.2,0.9,2.1,1.7c2.9,1,7.5,3.3,12.4,5.9
	c6.3,3.5,8,4.3,10.8,5.2c5.6,1.8,11.3,2.3,20.7,1.9c5.7-0.2,7.4-0.2,9.5,0.1c5.2,0.8,7.2,2.1,8.9,5.7c1.2,2.5,1.4,4.5,0.9,6.3
	c-0.5,1.5-4.3,7.6-6.7,10.7l-1.7,2.3l0.7,0.6c1.6,1.3,10.6,5.5,15.6,7.2c2.7,0.9,6.3,2.3,8,3.1c9.4,4.3,14.3,5.7,24.3,6.9
	c6.7,0.8,15,2.1,18.6,2.9c5.7,1.2,12.9,4,17.8,6.9c8.4,5.1,9.3,7.7,5.5,15.4c-3.7,7.6-11.8,12.7-22.3,14.1c-15.4,2-23.1,1.8-31.8-1
	c-4.2-1.4-19.7-9.1-31.8-15.9c-5.8-3.3-11.5-6.1-15.5-7.8c-3.7-1.6-4.4-1.9-3.2-1.9c2,0,8.3,2.6,20.2,8.2
	c9.4,4.5,20.8,9.3,26.5,11.2c8.1,2.7,12.7,3.5,21.8,3.4c10.7,0,19.6-1.1,24.1-2.9c2.9-1.2,5.8-3,7.7-4.9c2.3-2.3,4-5.5,4.3-8.3
	c0.2-2.6-0.4-3.8-2.9-5.5c-5.4-3.7-13.3-6.9-20.6-8.3c-4-0.8-12.6-1.8-18.9-2.2c-11.8-0.8-16.6-2-25.3-5.9c-1.6-0.7-5.2-2.2-8.1-3.2
	c-5.7-2.1-9.9-4.1-14.7-7c-4.8-2.9-7.5-4.2-11.8-5.6c-7.2-2.3-9.9-3.3-16-6.1c-9.9-4.5-10.6-4.8-17.1-6.5c-6-1.6-6.6-1.7-4.7-0.8
	c1.6,0.7,13,4.6,16.4,5.6c2.9,0.8,3.7,2.1,2.7,4.1c-0.5,1-1.5,1.5-3.3,1.7c-0.8,0.1-3,0.7-5.1,1.3c-7.4,2.2-13.3,4.1-13.4,4.2
	c-0.1,0.1-0.1,1.8-0.1,3.9c0.1,6.6-0.9,11.2-3.7,16.7c-2.7,5.3-6.4,10.2-11,14.7c-5.5,5.3-8.9,7.7-17.9,12.5
	c-6.5,3.5-8.5,4.4-12.2,5.7c-6.9,2.4-12.6,3.8-17.4,4.3C171.4,235.7,162.9,235.6,159.4,235.2L159.4,235.2z M183.6,207.8
	c6.1-0.9,13.5-2.8,17.1-4.5c4.3-1.9,10-4.9,11.7-6.1c2.6-1.8,5.4-5.6,6.5-9c0.5-1.4,0.6-4.8,0.2-4.8c-0.1,0-1.9,0.5-3.9,1.2
	c-4.2,1.4-10.8,3.1-13.2,3.4c-4.2,0.6-5.6-1.3-3.6-4.7c0.4-0.7,2.9-4.2,5.6-7.7c6.2-8.3,8.1-11.1,10.3-15.5c2-3.9,2.8-4.7,4.8-5.2
	c1.5-0.3,3.5-0.1,7.3,1c1.4,0.4,2.7,0.6,2.8,0.6c0.4-0.1-5.3-2.7-11-5.1c-6.9-2.8-7-3-1.6-2.6c4.6,0.4,5.7,0.7,12.3,3.3
	c6.1,2.5,8.4,3.2,16.9,5.4c6.7,1.7,9.4,2.7,17.8,6.4c6.7,2.9,8.8,3.8,15.3,5.9c2.6,0.9,5.7,2,6.8,2.5l2,0.9l0.9-0.9
	c1.2-1.3,5.6-8.2,6.4-10c1.2-2.8,0.7-5.1-1.4-7.3c-2.4-2.4-4.7-2.8-14.7-2.4c-7.5,0.3-10.5,0.2-15.6-0.7c-5.4-0.9-8.6-2.3-15.7-6.5
	c-7.4-4.5-15.3-8.4-16.8-8.4c-0.2,0-1.7,0.8-3.3,1.9c-1.6,1-5.4,3.3-8.4,5c-3,1.7-5.9,3.5-6.3,3.9s-1,0.8-1.1,0.8
	c-0.1,0-1.8,0.8-3.7,1.8c-2.5,1.3-3.7,1.8-4.4,1.7c-0.6,0-1.6,0.3-2.6,0.8c-1.9,1-2.8,1.1-2.8,0.4c0-0.3,0.1-0.6,0.3-0.8
	c0.5-0.5,0.1-1.2-1.5-2.8c-5.8-5.9-18.2-6.1-30-0.4c-10,4.8-17.5,12.6-20.5,21.5c-2.5,7.4-2.1,14.8,1.3,21.4
	c1.4,2.8,2.5,4.3,4.8,6.6c5,5,12,8.1,20.4,9.2C175,208.3,181.2,208.1,183.6,207.8L183.6,207.8z M531.7,197.2
	c-4.5-0.8-9.8-2.9-13.8-5.6c-7-4.7-21.9-17.8-31-27.3c-3.7-3.9-5.2-5.2-6.8-6.2c-3.7-2.3-10.4-7.7-16.3-13.2
	c-4.7-4.4-5.1-4.8-16.4-13.2c-4.7-3.5-15-10.7-22.4-15.6c-4.2-2.8-8.1-5.4-8.6-5.8c-1.3-1-5.3-3.4-7.3-4.4c-3.1-1.5-6.3-2.1-7.5-1.2
	c-0.5,0.4-0.6,0.7-0.6,2c0,0.9-0.1,2.2-0.2,3.1c-2,13.2-5.8,27.8-9.2,34.7c-2.2,4.5-8.1,12.2-12.7,16.7c-3.5,3.4-7.4,6.2-11.9,8.4
	c-2.5,1.3-3,1.4-5.1,1.5c-2.7,0.2-4.4-0.3-7.2-2.2c-2.7-1.8-6.8-6-7.8-8.2c-1.5-3.2-1.9-6.8-1-10.9c0.6-3,1.5-5,5.6-12.2
	c2-3.5,4.1-7.7,4.8-9.3c2.4-5.8,4.1-11.7,4.7-16.3l0.2-1.4l-0.5,0.7c-2.4,3.3-12.2,12.9-16.7,16.3c-1.2,0.9-3.1,2.4-4.1,3.4
	c-3.3,2.9-11.7,10.1-12.3,10.5c-1.6,1.2,0.7-1.4,8.5-9.3c7.3-7.5,13.3-13,19.8-18.7c1-0.8,2.5-2.4,3.5-3.5c1.6-1.9,1.7-2.1,1.7-3.3
	c0-1.4-0.5-4.1-1.7-9.4c-2.6-11.8-2.7-20.2-0.2-26.5c1.7-4.3,3.9-7.4,6.7-9.6c1-0.8,2-1.4,2.1-1.4c0.1,0-0.7,1-1.9,2.3
	c-2.4,2.6-3.8,4.9-5,8c-1.4,3.7-1.6,4.9-1.5,11.5c0,6.3,0.3,8.3,1.6,14.1c1.7,7.1,2,9.3,2,13c0,4.5-0.8,8.7-2.7,14.4
	c-2,5.9-3,8.2-6.4,14.1c-5.9,10.4-6.7,12.5-6.5,17.5c0.1,2.4,0.2,2.9,1,4.5c1.6,3.2,5.9,7.2,9.5,9c1.9,0.9,3.9,1,6.1,0.4
	c1.6-0.5,6.5-3.4,9.4-5.6c4.3-3.2,10.4-10.1,14.6-16.7c2.9-4.5,5.8-13.6,9-28.5c0.8-3.5,1.4-6.7,1.4-7.1c0-0.7,1.4-7.4,2-9.3
	l0.3-1.1l0.2,0.8c0.1,0.5,0.2,1.2,0.1,1.6c-0.2,0.8-0.1,0.9,1.3,0.5c0.7-0.2,1.5-0.2,2.7,0.1c1,0.2,1.8,0.3,1.9,0.3
	c0.1-0.1-0.4-0.8-1-1.5c-0.6-0.8-1.6-2.3-2.3-3.4c-0.6-1.1-1.3-2-1.4-2c-0.3,0-5.8,2.8-7.7,4c-0.8,0.5-3.2,1.8-5.2,2.9
	c-2,1.1-4.3,2.5-5.1,3.1c-1.9,1.4-3.1,1.6-4.1,0.7c-1.2-1.2-0.9-2.2,2.1-6.8c2.9-4.4,6.8-10.7,11.9-19.2c5.7-9.6,9.3-14.5,11.7-15.9
	c1.8-1.1,3.1-1,6.3,0.3c3.6,1.5,8.8,2.8,15,3.7c4.2,0.6,9.5,1.7,10.3,2.1c1.8,0.9,2.1,2.4,1,4.1c-1.1,1.6-9.4,6.9-16,10.2
	c-1.4,0.7-2.5,1.3-2.5,1.4c0,0.1,0.3,0.5,0.6,1s0.9,1.1,1.2,1.6c0.3,0.4,1.1,1,1.8,1.4c1.5,0.7,5.2,1.7,6.5,1.7
	c2.1,0,8.7-2.1,14.7-4.5c7.5-3.2,17.1-9.6,22.9-15.5c7.4-7.4,12.3-16,14.2-24.7c0.5-2.4,0.7-9.8,0.3-11.3c-0.2-0.6-0.7-0.9-4-2
	c-2.1-0.7-8-3-13.2-5c-12-4.6-14.7-5.5-20.4-6.7l-2.5-0.5l-1.4,0.6c-5.1,2.3-11.4,7.4-14.7,11.7c-3.1,4.1-4.2,6.5-4.8,10.1
	c-0.4,2.5-0.4,2.8,0.4,2.8c0.3,0,0.6,0.1,0.7,0.3c0.3,0.5-0.9,1.3-2.9,1.9c-1.2,0.4-2.1,0.9-2.3,1.3c-0.4,0.7-5,2.4-8.6,3.3
	c-1,0.3-4.3,1.2-7.3,2.1c-11.4,3.3-14.9,4.2-16.4,3.8c-0.9-0.3-1-0.3-1-1.4c0-0.6,0.1-1.3,0.3-1.6c0.1-0.3,0.5-1.6,0.7-3
	c0.8-4.4,2.6-9.4,5.1-13.3c2.8-4.7,9.4-12,14.4-16.1c1.4-1.1,2-1.8,1.7-1.9c-1.4-0.3-34,11.6-52.9,19.2c-12.2,5-17.4,7.1-17.9,7.5
	c-0.3,0.2-1.5,0.7-2.5,1.2c-1.1,0.4-7.6,3.2-14.5,6.1s-13.1,5.5-13.6,5.7c-1.9,0.8-1.3,0.2,1-1.1c4.2-2.3,28.1-13.7,28.8-13.7
	c0.1,0,2.6-1.1,5.5-2.4c8.3-3.7,21.3-8.8,40.9-16c13.1-4.8,24.2-8.5,28.3-9.3c1.2-0.3,2.3-0.8,4.1-2.1c11.1-7.7,22.8-12.9,35.5-16
	c13.7-3.3,30.6-2.4,41.1,2.2c6.5,2.9,12.6,7.6,16.5,12.7c2.4,3.2,5,8.9,6.1,13.6c0.7,2.8,1.1,8.1,0.8,11.1c-0.1,1.5-0.1,2.4,0.1,2.6
	c0.3,0.4,16.2,6.4,18.9,7.2c2.6,0.8,8.3,2.1,12.9,2.9c10,1.9,12.6,3,21.1,9.2c2.7,1.9,5.1,3.4,7.9,4.8c9,4.5,11.1,4.9,25.6,5.3
	c11.8,0.4,15.5,0.8,21.9,2.9c3.4,1.1,5.2,2.1,6.3,3.6c0.7,0.9,0.8,1.3,0.8,2.6c0,2.5-1.3,4.4-5.2,8c-2.5,2.2-4.6,3.7-9.7,6.5
	c-4.4,2.4-5.7,3-7.6,3.4c-1.1,0.2-1.3,0.3-1,0.6c0.2,0.2,3,1.6,6.3,3.2c10.8,5.2,13.9,7,16.8,9.9c1.2,1.3,2.2,2.6,2.9,3.9
	c0.9,1.9,1,2.2,1,4.3c0,3.8-1.3,6.9-4,9.6c-2,2-3.3,2.8-6.5,3.9c-9.3,3.2-20.2,0.6-37.7-9c-11.6-6.3-30.7-18.5-39.2-24.8
	C534.4,95,530,92.2,528.5,92.2c-0.7,0,14.9,15.5,19.5,19.2c1.9,1.6,4.2,3.5,5.2,4.4c1,0.8,4.9,3.8,8.8,6.5s9.2,6.6,11.8,8.5
	c6,4.4,14.1,9.8,20,13.5c7.3,4.6,13.2,8.9,16.2,11.8c3.5,3.4,4.4,7.8,2.5,11.7c-1,2.1-4.2,5.2-5.8,5.8c-0.7,0.2-2.1,0.8-3.2,1.3
	c-5.5,2.3-13.2,3.3-20,2.5c-10.8-1.2-19-5-29.4-13.5c-2.1-1.7-5.9-4.8-8.5-6.9c-5.7-4.6-14.1-12.4-18.5-17.4
	c-7.9-8.8-12.5-13.7-18.7-19.9c-5.8-5.7-6.9-6.7-8.7-7.6c-2.7-1.4-4.6-1.7-5.7-0.8c-0.4,0.3-0.8,0.8-0.8,1c0,0.4-0.8,0.8-1,0.6
	c-0.1-0.1,0-0.5,0.2-1c0.4-1,1.7-2.1,2.8-2.3c1.1-0.3,3.3,0.3,5.7,1.5c2.9,1.4,8.6,6.6,21.7,19.8c11.4,11.4,16.6,16,25.6,22.4
	c2.4,1.7,6.2,4.5,8.4,6.2c5.1,4,6.2,4.7,9.5,6.7c5.8,3.5,10.5,5.4,17.3,6.9c5.6,1.2,9.5,1.6,13.2,1.2c7.2-0.7,11.5-2.8,14-6.6
	c1-1.5,1-1.6,1-3.9c0-2.7-0.5-3.8-2.3-5.8c-2.1-2.3-8.4-6.7-16-11c-7.8-4.5-16.6-10.3-24.6-16.3c-2.3-1.8-6.7-5-9.6-7.3
	c-8.7-6.6-15.4-12.4-21.3-18.5c-4.9-5.1-7.9-8.6-9.4-10.8c-1-1.5-1.3-1.8-1.6-1.5c-0.5,0.4-0.8,0.2-0.5-0.7c0.4-1.5,3.7-1.1,7.3,0.9
	c1,0.5,3.8,2.4,6.2,4c10.6,7.2,13.6,9.2,16.5,10.8c1.7,1,5.9,3.3,9.2,5.3c15,8.7,25.8,14.6,30.3,16.6c7.9,3.6,10.9,4.5,15.8,5.2
	c5.7,0.7,8.9,0.5,11.7-1c4.9-2.5,7.1-5.7,7.1-10.3c0-2.7-1-4.8-3.6-7.3c-2.9-2.8-6.6-4.6-23-11.4c-12-5-20.2-9-30.6-15
	c-8-4.6-12.3-8-15.4-11.8c-1.8-2.2-4-5.9-3.6-6.2c0.1-0.1,1,0.7,2,1.9c2.6,2.9,9.5,8.3,13.9,11c2.9,1.7,12.2,6.7,16.3,8.7
	c6.5,3.1,16.3,7.5,17,7.6c1.1,0.2,4.6-1.4,9.5-4.2c5.5-3.2,7.4-4.6,10.1-7.2c2.7-2.6,3.7-4.3,3.7-6.2c0-1.2-0.1-1.4-1.1-2.4
	c-1.5-1.5-5.9-2.8-12.9-4c-1.9-0.3-5.6-0.5-13.2-0.7c-15.4-0.3-17.5-0.7-26.3-5.2c-3.7-1.9-5.6-3-8.2-5.1
	c-8.4-6.5-10.3-7.3-20.2-9.2c-10-1.9-12.9-2.7-25.9-7.5c-3.5-1.3-6.4-2.3-6.5-2.3c-0.1,0.1-0.5,1.5-0.9,3.2
	c-3.1,12.1-11.4,25.6-22.6,36.4c-7.4,7.2-12.4,10.7-22.8,16.1c-3.5,1.8-7.4,3.4-13.9,5.4c-7.5,2.4-9.8,3-14.5,3.6
	c-5.3,0.7-12.4,0.4-16.3-0.5c-1.4-0.4-0.8,0.3,1.9,1.9c1.5,0.9,6.7,4.3,11.6,7.5c4.9,3.3,9.5,6.2,10.2,6.6c0.7,0.4,2.5,1.6,4,2.8
	s3.1,2.3,3.5,2.5c0.9,0.5,3.6,2.9,8.6,7.6c2.1,2,3.9,3.5,4.2,3.5c0.3,0,2.4,1.5,4.6,3.4c2.3,1.9,4.4,3.5,4.8,3.6
	c1.7,0.4,3.4,1.7,10.2,8.4c9,8.7,12.4,11.7,21.2,18.7c13.3,10.7,18,13.4,25.8,14.9c3.6,0.7,9.4,0.4,13.3-0.5c4-1,7-2.5,8.6-4.3
	c1.5-1.7,2.1-3.4,2.1-6.3c0-2.7-0.6-5-1.8-6.8c-1.1-1.7-1.8-2.1-9.2-5.1c-2.8-1.2-5.4-2.3-5.8-2.5c-0.4-0.2-2.8-2.1-5.3-4.2
	c-2.6-2.1-7.3-5.7-10.4-8.1c-8.1-6.1-11.1-8.6-13-10.9c-0.9-1.1-2.9-3.3-4.3-4.8c-5-5.4-6.5-7.4-9.3-13.1c-2.5-5.1-3.7-8.3-4.1-11.3
	c-0.3-2.3,0.3-1.7,1.6,1.5c2.5,5.9,5,10.4,8.1,14.6c6.5,8.6,11.2,13.5,16.5,17.5c8.5,6.3,14.4,10.7,17.8,13.5l3.8,3l6.3,2.5
	c3.5,1.4,6.9,2.9,7.5,3.4c1.5,1,3.4,3.7,4,5.7c0.2,0.8,0.5,2.8,0.6,4.5c0.1,2.6,0.1,3.4-0.4,5c-1.7,5.5-7.2,9.2-16.4,11
	C539.6,197.5,534.4,197.6,531.7,197.2L531.7,197.2z M481.1,32.9c0-0.2-0.6-1.5-1.3-2.9c-2.6-5.3-7.4-9.1-13.5-10.8
	c-2.8-0.8-9.7-0.8-13.3-0.1c-2.9,0.6-6.5,1.6-6.5,2c0,0.1,1.1,0.5,2.4,0.9c3.7,1,7.9,2.4,14.9,5.1c8.9,3.4,16.5,6.2,16.9,6.2
	C480.9,33.2,481.1,33,481.1,32.9L481.1,32.9z M479.7,115.2c0-0.5,6-7.2,8.2-9.2c2.6-2.3,5.6-3.9,12-6.3c2.6-1,5.4-2.2,6.3-2.6
	c3.1-1.6,6.7-4.2,9.9-7.2c4.9-4.7,13.2-11.1,16.6-12.9c1.7-0.9,7-2.7,11.7-3.9c1.3-0.3,1.9-0.7,3.5-2.2c1.1-1,1.9-1.7,1.9-1.6
	c0,0.5-1.7,3.1-2.7,4c-1.1,1.1-3.4,2.2-5,2.5c-2.4,0.5-6.5,1.9-8.7,3c-3.3,1.7-11.7,8.1-16.2,12.3c-3.6,3.4-7.1,6-10.7,7.8
	c-0.9,0.5-3.8,1.6-6.3,2.6c-5.5,2.1-5.5,2.1-8.7,4.3c-2.3,1.6-3.9,2.9-8.9,7.2C479.9,115.4,479.7,115.6,479.7,115.2L479.7,115.2z"/>
<path id="path3098" inkscape:connector-curvature="0" class="st2" d="M265,322.7c-1.9-0.4-5.1-1.8-7.3-3.2
	c-4.9-3.1-13.8-9.7-16.8-12.4c-1.1-1-2-1.8-2.1-1.8c-0.3,0-0.2,1.6,0.3,3.5c0.3,1.2,0.4,2.7,0.3,4.2c-0.1,2-0.2,2.5-0.8,3.3
	c-1,1.5-4.5,4.3-5.7,4.6c-1.6,0.4-7.5,0.2-10.4-0.5c-3.8-0.9-7.8-2.4-12.6-4.7c-4.6-2.3-6.7-3.7-10.6-7.2c-2.4-2.2-3.9-4.2-6.6-8.6
	c-2.9-4.8-4-7.2-5.6-11.7c-3.4-10-6.3-13.8-14.7-19c-4.5-2.8-5.5-3.3-21.1-8.8c-11.9-4.2-14.5-5.3-20.1-8.2
	c-10.7-5.4-18.7-11.9-28-22.5c-1.8-2.1-4.1-4.9-5-6.3c-0.9-1.4-1.8-2.6-2-2.6s-1.5,0.9-2.9,2.2c-4.4,3.8-13.5,11.3-15.3,12.6
	c-0.9,0.7-3.5,2.7-5.8,4.5c-2.2,1.8-7.9,6.3-12.6,9.9c-4.7,3.6-12,9.3-16.3,12.6s-9.7,7.4-12.1,9c-2.3,1.6-4.6,3.3-5.1,3.7
	c-0.8,0.8-14.9,10.8-15.8,11.3c-0.7,0.4-0.6-0.1,0-0.6c0.3-0.2,3.5-2.9,7.2-5.9s7.1-5.8,7.6-6.2s2.7-2.1,4.8-3.9
	c4.2-3.5,23.4-18.2,37-28.3c4.6-3.5,9.2-6.9,10.1-7.7c0.9-0.8,5.3-4.2,9.8-7.6c4.5-3.4,8.2-6.4,8.4-6.6c0.2-0.3,0-1-1-3.1
	c-1.4-2.7-2.7-6.5-3.3-9.2c-0.5-2.3-0.7-11-0.3-14.3c0.2-1.6,0.6-4,1-5.4c0.7-2.6,2-5.9,2.3-5.9c0.1,0-0.1,1.2-0.4,2.6
	c-1.6,6.7-1.6,16-0.1,22.1c0.9,3.4,2.1,6,5.6,12.1c1,1.8,4.6,6.3,8.1,10.3c9.1,10.2,17.1,16.5,27.3,21.4c5.1,2.5,6.7,3.1,21.1,7.9
	c6.8,2.3,13.5,4.7,14.8,5.3c5.7,2.7,11.1,6.6,13.8,9.8c3.2,4,4.3,6,6.5,12.6c2.3,6.7,6.7,15,9.8,18.3c3.6,3.9,7.1,6.2,13.9,9.4
	c8.2,3.8,12.1,5,16.3,5.1c2.4,0,2.9-0.1,4.3-0.7c1.4-0.7,1.6-0.9,2.2-2.3c0.6-1.4,0.6-1.9,0.5-5c-0.1-3.5-0.1-3.5-1.2-5.7
	c-0.6-1.2-1.4-3.1-1.8-4.1c-0.3-1.1-1.2-2.8-1.8-3.8c-0.6-1.1-2-3.5-3.1-5.5c-1.2-2.2-2.6-4.3-3.7-5.5c-3.1-3.6-6.4-8.6-8.4-13.3
	c-1-2.3-2.5-5.5-3.2-7.1c-2.4-5.4-5.1-14.4-5.5-18.6c-0.2-1.5-0.1-1.8,0.3-2c0.8-0.3,1.3,0.5,1.8,3c0.8,3.5,2.8,9.3,5.7,16.1
	c3.7,8.7,5.2,11.7,8.2,16.5c1.5,2.3,4.2,6.6,6,9.4c3.8,5.9,4.1,6.4,5.3,9.7c0.8,2,1.1,2.5,3,4.2c4,3.7,11.2,8,19.6,11.8
	c5.1,2.3,7.5,2.8,10.8,2.7c3-0.2,4.9-0.8,8-2.6c4.7-2.8,7.5-5.5,8.2-8.1c0.7-2.4-1-6.8-4.1-10.6c-1.8-2.2-6.4-6.8-11.3-11.1
	c-3.3-2.9-5.2-4.9-9.1-9.1c-10.3-11.4-13.4-16.9-21.6-37.5c-2.9-7.2-3.1-8.3-3.1-14.3c0-3.6,0.1-5.1,0.3-5.2
	c0.2-0.1,0.3,0.2,0.3,0.5c0,0.6,0.7,4.2,1.6,8c0.6,2.7,1.3,4.3,4.2,10.8c5.6,12.3,8.6,18.1,12.4,23.6c3.4,5,12.8,15.7,17.3,19.6
	c4.8,4.3,10.6,10.3,12.4,13c2.9,4.3,4.3,8.5,3.9,11.6c-0.4,3-2.4,6.2-5.8,8.9c-3.4,2.8-7.2,5.1-10.2,6
	C271.3,323.1,267.1,323.2,265,322.7L265,322.7z M327.4,292.8c-14.5-1.1-21-3.8-33.7-14.2c-9.2-7.5-16.9-15.2-23.5-23.5
	c-2.7-3.4-6-7.7-7.3-9.5c-1.3-1.8-4-5.5-6.1-8.3s-4.7-6.4-5.8-8c-2.5-3.5-6.1-6.9-8.3-8c-0.9-0.4-2.3-0.9-3.3-1l-1.7-0.2l1.1-0.3
	c2.3-0.7,5.2,0.4,8.7,3.2c2,1.6,3.7,3.5,8.1,8.8c1.2,1.5,3.3,4,4.6,5.6c1.4,1.6,4,4.8,5.9,7.1c4.9,5.9,11.1,12,16.2,16
	c5.1,3.9,8.7,6.6,11.5,8.5c1.1,0.8,4.2,3.1,6.8,5.1c12,9.5,17.5,12,30,13.9c5.2,0.8,12.2,0.9,14.8,0.2c6-1.6,8.5-5.1,8.5-12.1
	c0-7.1-2-9.5-13.6-15.7c-4.6-2.5-9.3-5.2-18.4-10.5c-5.3-3.1-14.8-9.5-20.8-14.1c-9.9-7.5-21.6-17.9-25.5-23c-2.9-3.7-5.7-9.2-5-9.9
	c0.1-0.1,1.1,1.1,2.3,2.7c4.1,5.5,6,7.5,12.5,13.1c2.6,2.3,3.5,3,10.1,8.1c6,4.6,8.3,6.3,15.6,11.3c8.5,5.8,10,6.8,17.1,11.2
	c3.5,2.2,7,4.4,8,5.1s4.1,2.8,7.1,4.8c6.1,4.1,9.9,7.5,11.1,10c1.4,3.1,1.7,7,0.9,11.1c-0.7,3.2-1.6,5.2-3.3,7
	c-2.4,2.6-5.8,4.2-10.8,5C338.7,292.7,330.2,293,327.4,292.8L327.4,292.8z M187.5,242.8c0.3-0.5,1.6-2,3-3.3c2-2,3.3-2.9,6.3-4.8
	c2.1-1.3,4.6-2.9,5.6-3.6c2.4-1.8,6-3.5,10.7-5.1c6.9-2.4,7.1-2.4,16.2-11.4c4-3.9,8-7.7,8.9-8.4c3.7-2.8,6.5-3.9,12.4-5.1
	c3.3-0.7,4.6-1.1,6.7-2.1c2.4-1.2,2.8-1.5,6.9-5.6c4.8-4.9,5.6-5.5,11.2-8.4c4-2.1,6.1-2.7,2.7-0.8c-7.9,4.4-9.8,5.9-13.9,10.8
	c-2.4,2.9-4.6,5-6,5.7c-1.4,0.7-4.1,1.6-8.5,2.6c-8.2,2-9.7,3-19.1,12.5c-3.9,4-7.8,7.8-8.7,8.5c-2.1,1.7-4.7,3-8.9,4.3
	c-4.9,1.6-6.9,2.5-9.5,4.2c-1.2,0.8-3.5,2.2-5.1,3.1c-1.6,0.9-3.5,2.1-4.4,2.8c-2.1,1.6-6.1,4.6-6.6,4.9
	C187.1,243.6,187.1,243.4,187.5,242.8L187.5,242.8z M161.1,235.2c-7-0.9-12.2-2.2-18.2-4.7c-8.4-3.4-15.3-9.4-19.1-16.3
	c-4.3-7.9-5.9-18.2-4.3-27.5c1.5-8.5,4.9-16.9,9.9-24.6c2.7-4.1,9.8-12.6,12.7-15.1c0.5-0.4,0.8-0.9,0.8-1c-0.1-0.1-2.1,0.5-4.5,1.3
	s-4.4,1.4-4.6,1.4c-0.4,0-10.8,3.8-36.4,13.3c-23.6,8.8-29.4,10.8-38.1,13.3c-2.2,0.6-4.6,1.4-5.3,1.7c-3.1,1.2-14.8,5.2-15.3,5.2
	c-0.5,0-0.4-0.1,0.3-0.5c1.2-0.7,10.9-4.9,13.7-6c1.4-0.5,4.8-2.1,7.7-3.5c6.9-3.3,11.4-5.1,30.3-11.7c21.5-7.5,24.3-8.4,33.8-11
	c4.5-1.2,8.9-2.4,9.8-2.7c0.8-0.3,3.5-1,6-1.5c2.5-0.6,4.8-1.1,5.1-1.3c0.3-0.2,1.7-1.2,3.2-2.4c8-6.5,20.2-13,29.9-16
	c14.1-4.4,28.1-5.4,38.1-3c4.9,1.2,9,3.5,12.9,7.3c1.3,1.2,2.6,2.5,3,2.8c0.5,0.5,0.7,0.8,0.6,1.6l-0.1,1l2.9,1.1
	c3.4,1.3,9.3,4.3,14.7,7.3c8.8,4.9,13.3,5.8,29.2,5.7c10.1-0.1,10.9,0,13.9,1.3c3.8,1.7,6.3,8.2,4.5,11.7c-1.3,2.5-3.9,6.5-5.9,9.1
	c-1.1,1.5-2,2.8-2,2.9c0,0.9,9.6,5.5,16.6,8c3,1.1,6.7,2.5,8.1,3.2c8.5,3.9,14.1,5.5,23.7,6.7c6.1,0.8,14.6,2.1,18.2,2.8
	c10.6,2.1,23,8.6,25.4,13.2c1.5,2.9-1,9.7-5.2,14.1c-4.9,5.1-10.7,7.9-18.9,9c-11.1,1.5-18.5,1.7-24.4,0.7
	c-6.3-1.1-9.3-2.2-20.3-7.8c-5.4-2.8-13.1-6.8-17.1-9c-8.2-4.5-12.7-6.8-16.3-8.3c-4.8-2-3.5-2.2,1.7-0.2c2.8,1.1,6.2,2.6,15.4,6.9
	c12,5.7,24.9,10.9,30.5,12.4c6.6,1.7,14.5,2.2,24.4,1.6c9.8-0.6,14-1.4,18.5-3.6c4.7-2.3,7.3-4.7,9.3-8.6c0.7-1.5,0.9-2.1,1-4.1
	c0.1-2.1,0-2.4-0.6-3.3c-2.1-3.1-13.2-8.3-21.7-10.1c-3.8-0.8-14.5-2.1-20.1-2.5c-8.6-0.5-12.4-1.2-17.9-3c-2.2-0.7-5.5-2-7.3-2.8
	s-5.6-2.3-8.4-3.4c-5.8-2.1-9.2-3.8-15.1-7.3c-5.2-3.1-6.5-3.7-12.6-5.6c-6.2-2-8.4-2.8-15.8-6.2c-8.3-3.7-9.8-4.3-16.9-6.2
	c-7.6-2-7.9-2.1-7.5-1.7c0.6,0.7,12,4.7,19.7,7c2.6,0.8,3.2,1.3,3.2,2.7c0,1.5-1.1,2.4-3.4,2.7c-1.8,0.3-18.2,5.2-18.6,5.7
	c-0.1,0.1-0.2,2-0.2,4.2c0.1,6.4-0.8,10.5-3.3,15.8c-3.9,8.2-11.4,16.6-20,22.4c-2.1,1.5-13.1,7.5-16.2,8.9
	c-3.6,1.7-12.1,4.4-16.8,5.4c-4,0.9-7.4,1.1-13.4,1.1C164.5,235.3,161.6,235.2,161.1,235.2L161.1,235.2z M183.3,208.1
	c3.8-0.5,7.8-1.3,11.8-2.5c5.3-1.5,14.7-6,18.3-8.7c1.7-1.3,3.8-4.1,5.1-7c0.8-1.7,1-2.4,1-4.2c0.1-1.5,0-2.2-0.3-2.3
	c-0.2-0.1-1.8,0.4-3.5,0.9c-3.4,1.2-10.7,3.1-13.9,3.6c-1.8,0.3-2.1,0.3-3-0.2c-0.9-0.5-1.1-0.6-1.1-1.6c-0.1-1.5,0.7-2.8,6.3-10.2
	c5.6-7.4,8.3-11.5,10.6-16c1.8-3.5,2.5-4.2,4.4-4.6c1.6-0.4,3.9,0,8.7,1.3c2.2,0.6,4,1.1,4.1,1c0.1-0.1-0.7-0.5-1.6-0.9
	s-3-1.4-4.4-2.1c-1.5-0.7-3.6-1.6-4.8-2.1c-7.3-2.9-9.6-4.1-7-3.7c0.6,0.1,2.1,0.2,3.3,0.3c3.7,0.2,5.2,0.7,12.8,3.8
	c5.1,2.1,6.6,2.5,15.4,4.8c6.8,1.8,9.6,2.8,17.3,6.2c6.6,2.9,9.6,4.1,14.5,5.7c2.3,0.8,5.6,1.9,7.2,2.6l3,1.2l0.9-0.9
	c1.1-1.1,5.4-7.6,6.3-9.7c0.8-1.8,1.1-3.6,0.7-4.9c-0.5-1.5-2.8-3.8-4.4-4.5c-2.1-0.9-4.5-1-13-0.7c-6.6,0.2-8.1,0.2-11.6-0.2
	c-7.7-0.9-10.9-2.1-19.3-7.1c-5.6-3.4-12.8-7.1-15.4-7.9l-1.5-0.5l-3,1.9c-1.7,1-5.5,3.3-8.5,5c-3,1.7-5.9,3.5-6.4,3.9
	c-1.7,1.3-8.1,4.4-9.1,4.3c-0.5,0-1.6,0.3-2.6,0.8c-0.9,0.5-1.9,0.9-2.1,0.9c-0.5,0-0.6-0.6-0.1-1c0.5-0.5,0.1-1.2-1.6-2.9
	c-1.9-2-4.3-3.2-7.9-4c-5-1.2-12.9-0.3-18.5,1.9c-12.1,4.8-21,13.3-24.3,23.2c-2.1,6.4-2.2,12.3-0.2,18.1c1.4,4.1,3.2,7,6.3,10.1
	c5.1,5.1,11.9,8.1,20.6,9.3C174.9,208.5,180.6,208.4,183.3,208.1L183.3,208.1z M532.8,197.2c-4.2-0.6-9.3-2.4-13-4.5
	c-6-3.5-19.7-15.3-30.7-26.4c-5-5.1-7.5-7.4-8.7-8.1c-3.5-2-10.4-7.6-15.7-12.6c-4.1-3.9-6.3-5.7-10-8.5c-1.8-1.4-4.6-3.5-6.2-4.7
	c-5.4-4.1-14-10.1-27.7-19.2c-1.9-1.3-4.4-2.9-5.5-3.7c-3.9-2.7-5.4-3.5-7.7-4.3c-3.1-1-4.4-1.2-5.4-0.8c-1,0.4-1.3,1.2-1.3,3.3
	c0,1.8-1,8.1-2.1,13.1c-2.7,12.3-5.9,22.1-8.9,26.7c-7.2,11-14.1,17.7-22.9,22.1c-3.5,1.7-5.6,2.1-8.3,1.3c-3.4-1-8.4-5-10.6-8.2
	c-1.9-2.8-2.4-4.8-2.4-8.4c0-3.3,0.6-6.1,1.9-8.9c0.4-0.8,2.2-4.2,4-7.4c3.7-6.6,5-9.4,6.9-14.8c1.5-4.4,3.1-11.7,2.6-12.1
	c-0.1-0.1-0.6,0.5-1.2,1.2c-0.6,0.8-1.4,1.8-1.9,2.4c-1.3,1.6-11.3,10.9-14.3,13.2c-1.5,1.2-3,2.4-3.3,2.7
	c-0.8,0.8-10.2,8.8-10.8,9.1c-1.9,1.1,14.9-15.8,21.5-21.5c6.1-5.4,7.5-6.7,9.2-8.9c1.1-1.3,1.1-1.4,0.9-3c-0.1-0.9-0.6-3.7-1.1-6.2
	c-2.3-11-2.7-14.1-2.5-19.5c0.2-6.2,1.6-10.6,4.5-14.9c1.2-1.8,4.3-4.8,4.6-4.5c0.1,0.1-0.5,0.8-1.2,1.6c-4.9,5.5-6.7,12.1-6,22.1
	c0.3,4.7,0.7,7.1,2,12.8c2,8.4,2.2,11.3,1.2,17c-0.7,4-1.9,8.2-3.8,12.9c-1.6,4.1-1.8,4.5-5.6,11.1c-4.7,8.2-5.5,10.1-5.8,14.2
	c-0.4,4.2,0.9,7.6,4.4,11c1.2,1.2,3.1,2.8,4.1,3.5c4.9,3.2,7.4,2.9,15.2-2.2c4.6-3,9.2-7.5,13.3-13c3.7-5,4.9-6.7,5.9-9.1
	c1.2-2.9,3.2-8.9,4.4-13.5c1.2-4.7,3.7-16.4,4-18.5c0.1-0.8,0.5-3,1-4.9c0.4-1.9,0.8-3.6,0.8-3.7c0-0.1,0.1-0.2,0.3-0.2
	c0.2,0,0.3,0.4,0.3,1c0,0.9,0.1,1,0.6,0.8c0.8-0.3,2.8-0.3,4.6,0l1.5,0.2l-1.2-1.6c-0.7-0.9-1.8-2.5-2.4-3.6
	c-0.7-1.1-1.3-2.1-1.5-2.1c-0.2-0.1-1,0.2-1.8,0.7c-0.8,0.4-3.8,2.1-6.7,3.6c-6.8,3.7-8.8,4.9-10,5.8c-1.3,1.1-2.7,1.3-3.5,0.5
	c-1-1-0.8-2.1,1.1-5c5.4-8.3,6.8-10.6,12.4-20c7.5-12.6,10.9-16.8,13.9-17.4c0.8-0.1,1.4,0,2.7,0.5c5.2,2.2,8.7,3,18.3,4.6
	c6.5,1.1,8.4,1.5,9.3,2.3c0.8,0.7,0.8,2.1,0,3.2c-1.1,1.5-9.4,6.8-15.7,10c-1.5,0.7-2.7,1.5-2.8,1.6c-0.1,0.2,0,0.6,0.3,0.9
	c0.3,0.3,0.7,0.9,1,1.4c1,1.6,4.5,3.2,8,3.6c4.2,0.5,17.4-4.5,25.8-9.9c15.7-10,25.3-22.9,27.4-36.7c0.5-2.9,0.4-8,0-9.6
	c-0.1-0.5-0.9-0.8-3.5-1.8c-1.8-0.6-8.1-3-14-5.2c-5.8-2.2-12.1-4.5-13.9-5c-3.8-1.1-8-2.1-9-2.1c-1.7,0-8.9,4.8-12.6,8.4
	c-4.3,4.1-7.7,9.6-8.3,13.4c-0.2,1.1-0.3,2.2-0.4,2.5c-0.1,0.5,0,0.7,0.7,1c0.8,0.3,0.8,0.4,0.4,0.8c-0.3,0.2-1.3,0.7-2.3,1
	c-1,0.3-2,0.9-2.3,1.3c-0.6,0.7-3.4,1.9-7.1,2.9c-1.4,0.4-4.1,1.2-6.2,1.7s-5.7,1.6-8.1,2.3c-6.6,1.9-10,2.6-10.9,2.2
	c-0.7-0.3-0.8-0.4-0.6-1.5c0.2-2.1,1.5-7.5,2.2-9.8c2.5-7.6,8.6-15.7,17.7-23.5c1.7-1.5,2.7-2.5,2.4-2.5c-1.5-0.3-27.7,9.1-49,17.6
	c-9.4,3.7-21.8,8.9-22.5,9.3c-1.2,0.8-28.5,12.1-28.7,11.9c-0.2-0.2,1.9-1.3,10.6-5.5c7.2-3.5,17.3-8.1,17.7-8.1
	c0.1,0,2.8-1.2,6-2.6c8.7-3.9,24.7-10.1,44.6-17.3c11.1-4,23-7.8,24.5-7.8c0.3,0,2.5-1.2,4.7-2.7c8.7-5.8,15.8-9.3,24.4-12.3
	c9.7-3.3,17.9-4.8,27.4-4.8c16.2,0,27.9,4.3,36.8,13.5c3.9,4,5.9,7.5,7.9,13.4c1.4,4.3,1.9,7.1,1.9,12.5l0,4.8l6.7,2.6
	c13,4.9,13.6,5.1,25.9,7.6c9.4,1.9,12.3,3.1,18.4,7.6c4.3,3.2,6.5,4.6,9.6,6.1c9.1,4.5,11.3,5,24.3,5.4c10,0.3,13.4,0.6,17.8,1.5
	c9.2,1.9,12.9,4.1,12.9,7.6c0,2.3-1.6,4.7-5.4,8.1c-2.7,2.4-5.8,4.3-11.2,7.1c-3.2,1.6-6.2,2.8-6.2,2.4c0,0,1.3-0.8,2.9-1.6
	c4-2.1,9.6-5.5,11.5-7c3.9-3,7-6.8,7-8.7c0-1.2-0.8-2.5-1.9-3.2c-1.6-1-6.7-2.5-11.6-3.3c-3.9-0.7-5.2-0.8-15.2-1
	c-14.8-0.3-15.9-0.5-24.2-4.7c-4.1-2-5.7-3-8.9-5.4c-8.8-6.7-10-7.2-19.8-9.1c-10-1.9-14.7-3.2-20.9-5.6c-4.6-1.8-11.5-4.2-11.9-4.2
	c-0.3,0-0.6,0.3-0.7,0.8c-1.5,6.7-3.1,11-6.7,17.3c-4.3,7.8-9.7,14.8-15.9,20.9c-7.8,7.6-13.1,11.4-23.6,16.7
	c-3.8,1.9-6,2.8-11.4,4.6c-8.6,2.9-9.9,3.2-13.8,3.9c-6.2,1.1-12.6,1-19.6-0.2c-1.7-0.3-0.8,0.4,3.8,3.3c2.5,1.5,8,5.1,12.3,7.9
	c4.3,2.8,8.2,5.3,8.6,5.6c0.5,0.2,0.9,0.5,1,0.6c0.2,0.3,4.4,3.4,5.8,4.3c1.4,0.9,2.2,1.6,8.1,7.2c2.6,2.5,4.7,4.2,5,4.2
	c0.3,0,2.4,1.5,4.7,3.4s4.3,3.4,4.6,3.4c1.3,0,3.4,1.7,9.7,7.8c9.9,9.6,13.6,12.8,23.9,21c9.1,7.2,13.7,10.1,19,11.9
	c6.7,2.2,12.9,2.3,19.7,0.2c4.2-1.3,6.8-2.9,8.1-5.1c2-3.5,1.3-10.1-1.5-13c-1-1-1.9-1.5-8.9-4.4l-5.2-2.2l-5-4
	c-2.8-2.2-8-6.3-11.6-9c-8-6.1-10.3-8-12.9-11.1c-1.1-1.3-3.3-3.7-4.8-5.3c-1.5-1.6-3.4-3.9-4.3-5c-2-2.7-5.5-9.6-6.7-13.2
	c-1-2.9-1.5-5.7-1.1-5.7c0.1,0,0.5,0.8,0.9,1.7c0.4,0.9,1.7,3.9,3.1,6.5c2,4,3,5.5,5.6,9.1c3.7,4.9,8.4,10.4,10.7,12.6
	c2.2,2.1,3.4,3,10.7,8.4c3.5,2.6,8.5,6.4,11.1,8.4c2.6,2.1,5,3.9,5.3,4.1c0.3,0.2,3.4,1.5,7,3c3.6,1.4,6.8,2.9,7.4,3.4
	c4.2,3.4,5.7,11.1,3.1,16.5c-1,2.1-3.8,4.8-6.3,6.1C546.6,196.5,538.5,198,532.8,197.2L532.8,197.2z M481.3,33.1
	c0.2-0.6-2.2-5.3-3.8-7.2c-0.8-0.9-2.3-2.3-3.3-3.1c-5.4-4-11.7-5.4-19.5-4.2c-3.2,0.5-7.9,1.7-8.7,2.2c-0.6,0.4-0.8,0.3,3.5,1.5
	c3.7,1,7.5,2.3,16.4,5.7c6.6,2.5,14.5,5.5,14.9,5.5C481,33.5,481.2,33.3,481.3,33.1z M584.8,177.4c-3.7-0.3-8.9-1.4-12-2.5
	c-5.3-1.8-11.5-5.5-17-9.9c-1.5-1.2-5.4-4.4-8.6-7c-5.7-4.6-13.1-11.3-17.3-15.7c-2.3-2.4-11.7-12.7-14.8-16.2
	c-1.1-1.2-4.5-4.7-7.7-7.7c-4.5-4.3-6-5.6-7.6-6.4c-3.6-1.9-5.5-1.9-6.7-0.3c-0.5,0.7-0.6,0.7-0.6,0.1c0-0.7,1.3-1.9,2.4-2.2
	c1.3-0.3,3.2,0.1,5.7,1.4c3.2,1.6,6.4,4.5,21.7,19.7c12,12,17,16.3,25.8,22.6c2.4,1.7,6.7,4.9,9.4,7c10.7,8.1,16.4,10.8,27.9,13.2
	c4.3,0.9,12,0.9,15.5,0c4.4-1.1,7.3-2.8,9.3-5.6c2.7-3.6,1.7-8.2-2.6-11.9c-2.6-2.2-8.6-6.2-14.1-9.3c-5.6-3.2-7.9-4.6-14.1-8.8
	c-4.6-3.1-7.6-5.3-20.7-15.2c-4.8-3.7-10.7-8.6-15.7-13c-3.9-3.5-13.8-14.3-14.8-16.1c-1.2-2.3,1.5,0.1,11.7,10.3
	c7,7,11.6,10.8,27.4,22.2c11.1,8,19.1,13.5,26.2,18c6.5,4.1,10,6.6,14.1,9.9c4.3,3.5,5.7,5.9,5.7,9.8c0,2.6-1.2,5.1-3.8,7.5
	c-1.1,1-2.1,1.8-2.3,1.8s-1.3,0.4-2.4,0.9C599.3,176.8,591.6,178,584.8,177.4L584.8,177.4z M608.2,137.1c-3.8-0.6-12.2-3.6-17.6-6.2
	c-6-3-17.6-9.7-25-14.4c-2.1-1.4-6-3.8-8.6-5.5c-5.4-3.4-6.8-4.3-14.9-10.4c-10-7.4-12-8.6-14.3-8.5c-1.1,0-1.4-0.1-1.4-0.4
	c0-0.5,1.1-0.8,2.8-0.6c1.9,0.2,5,1.9,9.4,4.8c10.4,7.1,15.9,10.7,20.4,13.2c2.8,1.6,7.5,4.3,10.6,6c19,11,28.3,15.7,35.5,18
	c3.2,1,5,1.4,9.1,1.7c5.9,0.5,9.4-0.6,13-3.9c2.5-2.3,3.3-4.2,3.3-7.6c0-2.3-0.1-2.8-0.7-4c-0.4-0.8-1.4-2.1-2.1-2.9
	c-2.8-3-6.4-4.9-24-12.1c-11.9-4.9-20.3-9.1-31.7-15.7c-6.6-3.8-11.2-7.5-14.1-11.1c-1.8-2.2-3.3-4.8-3.1-5.1c0.1-0.1,1,0.7,2,1.8
	c2.3,2.4,8.1,7,11.6,9.3c3.1,2,13.1,7.4,18.5,10c7,3.4,16.1,7.4,16.6,7.4c0.3,0,0.7,0.2,0.9,0.4s1.7,1,3.3,1.7
	c6.6,3.1,14.8,7.3,16.9,8.7c2.8,1.9,5.3,4.5,6.4,6.9c0.8,1.6,0.9,2,0.9,4.3c0,3.1-0.6,5-2.1,7.3c-1.4,2.1-4.4,4.7-6.2,5.3
	c-4.7,1.7-4.4,1.6-9.1,1.7C611.9,137.4,609.1,137.3,608.2,137.1L608.2,137.1z M481.1,113.6c0.2-0.3,1.5-1.8,2.9-3.4
	c4.6-5.3,7.5-7.1,16.4-10.5c7.4-2.8,10.8-4.9,16.2-10c5-4.8,13.2-11,16.4-12.7c1.8-0.9,7.3-2.8,10.2-3.4c2.4-0.5,2.6-0.7,4.5-2.2
	c1.5-1.3,1.7-1.3,1.1-0.3c-1.2,2.2-3.7,4-6.3,4.5c-1.9,0.3-7,2.1-9.2,3.2c-3,1.5-11,7.6-15.3,11.5c-1.9,1.8-3.6,3.3-3.7,3.5
	c-0.3,0.5-5.8,4.1-7.8,5c-1,0.5-3.8,1.7-6.3,2.6c-2.5,0.9-5,1.9-5.5,2.2c-1.9,1-5.6,3.7-9.6,7.1C481.4,114,480.4,114.7,481.1,113.6
	L481.1,113.6z"/>
<path id="path3096" inkscape:connector-curvature="0" class="st3" d="M266.7,322.8c-3.5-0.4-6.6-1.8-12.3-5.7
	c-5.7-3.9-11-7.9-13.4-10.1c-1.2-1.1-2.3-2-2.4-2c-0.3,0-0.3,0.8,0.4,4.3c0.9,4.5,0.5,6.1-2.2,8.7c-2.8,2.7-3.4,2.9-7.6,2.9
	c-5.2,0-9.3-0.9-15-3.3c-7.4-3.1-11.2-5.6-15.8-10.2c-2.4-2.5-3.1-3.4-5.7-7.7c-3.8-6.3-3.8-6.5-5.6-11.6c-1.7-5.1-2.9-7.6-5-10.5
	c-2-2.8-4.1-4.6-8.1-7.3c-5.4-3.6-6.6-4.1-23.1-10c-10.7-3.8-14-5.2-19-7.6c-5.8-2.9-8.1-4.3-13.2-8.2c-7-5.2-16.2-14.7-20.5-21.1
	c-1-1.5-1.9-2.7-2-2.7c-0.1,0-1,0.7-1.9,1.5c-3.6,3.1-15.6,12.9-16.2,13.3c-0.4,0.2-1.7,1.2-3,2.3c-3.3,2.8-16.9,13.4-38,29.6
	c-1.2,0.9-3.9,2.8-5.9,4.2c-2,1.4-4.1,2.9-4.7,3.4c-0.9,0.8-12.8,9.3-14.7,10.5c-0.8,0.5-0.8,0.5-0.4,0c0.5-0.6,10.9-9.2,13.7-11.3
	c1-0.7,3.2-2.6,5-4c3.6-3,22.9-17.8,36.9-28.2c5-3.7,9.5-7.2,10.1-7.7s5-4,9.8-7.6s8.7-6.8,8.7-6.9s-0.7-1.6-1.5-3.3
	c-3-6.2-3.5-8.9-3.5-16.9c0-6.2,0.3-9,1.4-12.8c0.6-2,1.3-3.6,1.5-3.4c0.1,0.1-0.1,1.3-0.4,2.7c-0.8,3.5-1.1,10.7-0.8,14.9
	c0.8,9,4.6,16.7,13.2,26.8c9.3,10.8,17.4,17.5,27.4,22.5c5.5,2.7,7.6,3.6,22.4,8.6c12.6,4.2,14.7,5.1,18.5,7.3
	c6,3.5,9.6,6.6,12.3,10.8c1.9,2.9,2.6,4.4,4.4,9.9c1.5,4.5,3.3,8.2,6.4,13.4c1.9,3.2,5,6.6,8.4,9.1c2.9,2.2,13.3,7.2,18.2,8.7
	c5.2,1.7,8.8,1.8,11.7,0.4c1-0.5,1.3-0.8,1.8-2c0.8-2.1,0.9-2.5,0.6-5.9c-0.2-2.8-0.3-3.4-1.2-5.1c-0.5-1.1-1.3-2.8-1.7-4
	c-0.4-1.1-1.3-3.1-2.1-4.4c-0.7-1.3-2.1-3.8-3.1-5.6c-1-1.9-2.6-4.2-3.7-5.5c-2.8-3.3-6-8.2-7.4-11.3c-0.7-1.5-1.9-4.3-2.8-6.3
	c-3-6.6-5-12.6-6.3-19c-0.5-2.5-0.5-3.2-0.3-3.5c0.5-0.6,1.3,0,1.5,1.2c0.7,4.2,2.8,10.3,6.9,19.7c4.1,9.6,3.5,8.5,12.7,22.8
	c4,6.3,4.9,7.9,6.1,10.9c0.7,1.9,1.2,2.5,2.3,3.6c3.9,3.6,8.7,6.6,15.6,10c11.6,5.7,15.5,6.2,21.7,3.2c4.8-2.4,8.6-5.6,9.8-8.2
	c1.1-2.6,0.1-6.4-3-10.7c-1.5-2.1-6.9-7.5-12.3-12.2c-5.4-4.7-14.5-15.1-18.1-20.4c-1.7-2.5-5.8-10.3-7.4-14
	c-2.6-5.9-6.7-16.4-7.3-18.4c-0.9-3.2-1.4-11.5-0.8-11.9c0.3-0.2,0.7,1.1,1.3,4.2c0.8,4,1.5,6.5,3,9.8c6.4,14.4,11.6,24.3,15.5,29.6
	c2.1,2.9,7.2,8.9,11.1,13.1c1.2,1.3,4.1,4.1,6.4,6.2c8.4,7.6,12.3,12.4,14.1,18c1.8,5.5,0.2,9.8-5.4,14.3
	C277.1,321.5,272,323.4,266.7,322.8L266.7,322.8z M323.4,292.4c-3-0.3-7.6-1.2-9.9-1.9c-2.3-0.7-8.2-3.6-11.3-5.5
	c-1.3-0.8-5.3-3.9-8.9-6.8c-11.5-9.4-21.1-19.7-30.2-32.4c-1.5-2-4.1-5.6-5.8-8s-4.2-5.8-5.5-7.6c-3.1-4.4-6.4-7.7-9-9
	c-1.1-0.6-2.4-1-2.9-1c-0.5,0-0.9-0.1-0.9-0.3c0-0.4,2.4-0.3,3.6,0.1c3.4,1.2,6.5,4,12,10.7c2.2,2.7,6.1,7.4,8.5,10.3
	c5.6,6.8,10.8,12.5,14.1,15.3c4.1,3.5,12.7,10.1,17.1,13c1.1,0.7,4,2.9,6.4,4.9c7.7,6.2,13.7,9.8,19.1,11.5
	c7.3,2.3,18.7,3.6,24.2,2.7c6.5-1.1,9.6-4.4,10-11.3c0.3-4.7-0.6-7.5-3.3-10.3c-2-2-4.1-3.4-9.7-6.4c-6.5-3.5-22.2-12.7-25.9-15.2
	c-11.2-7.5-15.2-10.5-23.5-17.4c-6.6-5.5-13.9-12.6-16.4-16c-1.9-2.6-4-6.4-4.3-7.9c-0.2-0.9-0.1-0.9,0.3-0.6
	c0.2,0.2,1.3,1.6,2.4,3.2c6.6,9.3,28.7,26.7,53.6,42.1c3,1.9,8.9,5.7,13.2,8.5c12.9,8.6,14.7,10.7,15.4,17.7
	c0.2,2.4-0.6,6.8-1.8,9.3c-2,4.2-6.5,6.9-13.3,7.9C337.5,292.7,327.4,292.8,323.4,292.4L323.4,292.4z M187.9,242.4
	c0.2-0.4,1.4-1.7,2.7-3c1.8-1.8,3.1-2.8,5.4-4.1c1.7-1,4.4-2.7,6-3.8c3.6-2.5,6.3-3.8,11.3-5.4c6.9-2.3,7.4-2.7,16.6-11.9
	c9.9-10,11.9-11.2,21.3-13.2c6.2-1.3,7.4-2,12.9-7.6c2.4-2.4,5.1-4.9,5.9-5.4c2.1-1.3,6.9-3.9,7-3.7c0.1,0.1-1.5,1.1-3.4,2.2
	c-4,2.4-6.2,4.3-9.5,8.3c-2.6,3.2-4,4.5-5.7,5.5c-1.5,0.9-5.3,2.1-9.9,3.2c-4,0.9-7.1,2.3-9.9,4.5c-1.1,0.8-5.1,4.6-8.9,8.5
	c-3.8,3.9-7.6,7.5-8.3,8.1c-2,1.5-4.5,2.7-8.5,4c-4.9,1.6-6.9,2.5-9.5,4.2c-1.3,0.8-3.4,2.1-4.9,2.9s-3,1.8-3.6,2.2
	c-0.5,0.4-1.7,1.3-2.6,1.9c-0.9,0.6-2.1,1.5-2.7,2C187.7,243.1,187.5,243.2,187.9,242.4L187.9,242.4z M159.2,234.6
	c-7.7-1-16-3.8-21.9-7.2c-3.8-2.2-8.7-6.6-11.4-10.3c-2.2-3-4.3-7.6-5.4-12c-2-7.7-1.9-14.6,0.1-22.8c3-12,9-22.3,19.3-32.8
	c1.9-2,3.4-3.7,3.3-3.8c-0.1-0.1-2.2,0.5-4.6,1.2c-2.4,0.8-5.2,1.7-6.2,2c-3.4,1.1-10.8,3.8-47.7,17.6c-10.6,4-15.6,5.6-26.3,8.8
	c-2.3,0.7-4.6,1.4-5.1,1.7c-1.1,0.5-13,4.5-13.4,4.5c-0.2,0-0.1-0.2,0.2-0.4c0.6-0.4,11.8-5.4,12.2-5.4c0.1,0,2.8-1.2,5.8-2.6
	c6.4-3,11.8-5.4,15.7-6.8c5-1.8,28.7-10.1,35.2-12.3c8.4-2.9,33.9-9.8,35.9-9.8c0.2,0,1.5-1,3-2.1c8.9-7.1,20.3-13.2,30.4-16.4
	c17.1-5.3,34-5.6,43.6-0.8c3.1,1.5,5.1,3.1,8.2,6.2c2.1,2.2,2.4,2.5,2.3,3.2c-0.2,1,0,1.1,2.7,2c2.7,0.9,9.1,4.1,15.2,7.5
	c8.8,4.9,15.1,6.1,28.5,5.5c7.1-0.3,9.6-0.2,12.7,0.7c3.1,0.9,4.4,2.1,5.8,5.4c0.9,2.1,1.1,3.6,0.7,5.3c-0.4,1.5-4.4,8.2-6.8,11.2
	c-0.8,1-1.5,2-1.6,2.2c-0.3,0.9,9.4,5.7,16.5,8.1c2.7,0.9,6.4,2.4,8.2,3.2c7.9,3.6,13.7,5.4,21.1,6.4c16.9,2.3,22.5,3.3,27.5,4.9
	c6,2,9.2,3.5,14.1,6.8c2.9,1.9,3.9,2.9,4.7,4.7c1.4,3.1-1.2,9.8-5.4,14.2c-4.9,5-10.7,7.6-19.3,8.7c-15,1.9-22.4,1.6-30.9-1.1
	c-3.5-1.1-18.8-8.8-31-15.4c-6.5-3.6-15.1-7.9-17-8.6c-0.3-0.1-0.5-0.2-0.4-0.3c0.2-0.2,3.1,0.8,6,2c1.3,0.5,5.8,2.6,10,4.6
	c21.1,10,31.2,13.8,40.6,15.1c5.9,0.8,19,0.5,26.5-0.6c3.6-0.6,6.3-1.3,9-2.6c4-1.9,6.8-4.2,8.6-7.1c1.3-2.1,1.8-3.4,2-5.6
	c0.2-2.7-0.4-3.9-3-5.7c-5.5-3.7-13.3-6.8-20.8-8.3c-3.7-0.7-12.8-1.8-19-2.2c-11.5-0.8-16.4-2-25-5.9c-1.6-0.7-5.2-2.2-8.1-3.2
	c-5.9-2.2-9.6-3.9-14.9-7.2c-4.8-2.9-6.8-3.8-11.5-5.4c-8-2.6-9.9-3.3-18.1-7.1c-7-3.2-9.2-4-17.6-6.2c-8-2.1-8.7-2.4-14.8-5.2
	c-2.3-1.1-6.3-2.8-8.9-3.9c-2.6-1-4.8-2-5-2.2c-0.3-0.3-0.1-0.3,3.8,0c3.6,0.3,5.3,0.8,11.8,3.4c5.6,2.3,8,3,16.5,5.2
	c6.6,1.7,9.5,2.8,17.1,6.2c6.2,2.8,9.7,4.1,15.9,6.2c2.6,0.9,5.7,2,6.8,2.5l2,0.9l1.1-1.2c1.4-1.5,5.6-8.1,6.4-10.2
	c1.3-3.2,0.3-6.2-2.8-8.3c-2.4-1.6-3.3-1.7-17.9-1.5c-5.8,0.1-7,0-10.2-0.5c-6.4-1-9.5-2.3-16.7-6.7c-5.5-3.3-12-6.7-15.2-7.9
	l-2.3-0.9l-3.2,2c-1.8,1.1-5.8,3.5-8.9,5.2c-3.1,1.8-5.8,3.4-6,3.6c-0.2,0.2-2.1,1.3-4.2,2.4c-2.8,1.4-4,1.9-4.6,1.8
	c-0.5-0.1-1.3,0.2-2.6,0.8c-2.2,1.1-2.6,1.2-2,0.3c0.4-0.7,0.4-0.7-1.3-2.6c-2.1-2.4-4.7-3.8-8.6-4.7c-5-1.2-12.9-0.4-18.6,1.9
	c-5.3,2.1-11,5.5-15.1,9.1c-1.4,1.2-4.9,5.3-6.2,7.4c-5.6,8.8-6.5,19.2-2.4,28c1.5,3.2,2.5,4.6,5.1,7.3c4.3,4.5,10.8,7.8,17.7,9.1
	c3.4,0.6,9.3,0.8,12.7,0.4c6.5-0.8,14.7-2.9,19.2-5c1.3-0.6,3-1.4,3.8-1.7c2.2-1,6.9-3.7,8.3-4.8c1.7-1.3,3.2-3.4,4.8-6.5
	c1.2-2.3,1.3-2.7,1.4-4.9c0.1-1.9,0-2.4-0.3-2.5c-0.2-0.1-2.3,0.5-4.7,1.2c-6.9,2.2-14,3.8-15.2,3.4c-1.7-0.5-2-1.9-0.9-3.9
	c0.4-0.7,2.5-3.6,4.7-6.5c6.4-8.5,9-12.3,11.3-16.8c0.9-1.7,2-3.5,2.4-3.9c2.3-2.2,7.5-1.2,21.8,4.2c5.2,2,13.7,4.9,17.3,5.9
	c2.1,0.6,3,1.3,3,2.4c0,1.3-1.2,2.3-3,2.5c-1.4,0.2-9.1,2.4-16.2,4.7c-1.6,0.5-3,1.1-3,1.3c0,0.2,0,1.9,0,3.9
	c0.1,7.6-1.3,12.8-5.3,19.5c-4,6.8-11.2,14.3-18.5,19c-2.3,1.5-8.8,5.1-13.6,7.5c-6.8,3.4-17.2,6.5-24.2,7.3
	C171.9,235.2,162.5,235.1,159.2,234.6L159.2,234.6z M208.7,204.6c0-0.2-0.1-0.3-0.3-0.3c-0.2,0-0.2,0.1-0.1,0.3
	c0.1,0.2,0.2,0.3,0.3,0.3C208.7,204.9,208.7,204.8,208.7,204.6z M213.3,198.5c0.1-0.4,0-0.5-0.4-0.4c-0.3,0.1-0.5,0.3-0.6,0.6
	c-0.1,0.4,0,0.5,0.4,0.4C213,199,213.3,198.8,213.3,198.5z M249.3,169.2c0-0.1-0.2-0.3-0.4-0.3c-0.4,0-0.5,0.3-0.2,0.6
	C248.9,169.8,249.3,169.6,249.3,169.2L249.3,169.2z M532.5,197c-0.3-0.1-1.2-0.2-2.1-0.4c-5-1-10.1-3.4-15.1-7.2
	c-7.3-5.5-18.2-15.2-26.8-23.9c-5.2-5.3-6.8-6.7-8.6-7.8c-2.9-1.8-9-6.7-14-11.2c-6.1-5.6-7.6-6.8-11.5-9.8c-2-1.5-5-3.8-6.6-5
	c-4.3-3.3-14.3-10.3-22.5-15.7c-4-2.6-8-5.4-9-6.2c-3.1-2.4-6-4-9.2-5c-5.2-1.6-6.5-1.2-6.5,2.1c0,1-0.1,2.4-0.3,3.1
	c-0.1,0.8-0.4,2.6-0.7,4.1c-1.5,9.4-5.6,24.1-8.3,29.9c-1.3,2.7-6.4,9.9-9.7,13.6c-4.4,5-9.4,8.8-15.3,11.7
	c-2.2,1.1-2.8,1.3-4.7,1.4c-2.7,0.2-4.2-0.3-7-2.1c-4-2.6-7.3-6.3-8.5-9.6c-0.5-1.3-0.6-2.1-0.6-5.1c0-5.6,0.4-6.7,5.9-16.4
	c1.8-3.3,3.8-7.1,4.4-8.5c2.5-5.6,4.5-12.7,5-17.3c0.2-1.8-0.2-2.1-0.9-0.7c-0.2,0.5-1.2,1.7-2.1,2.7c-2.1,2.4-11.7,11.4-15,14
	c-1.4,1.1-4.3,3.6-6.5,5.4c-5.1,4.4-5.6,4.8-5.8,4.6c-0.1-0.1,2.8-3.1,6.4-6.8c5.7-5.8,10.6-10.4,18.4-17.3c1.1-1,2.8-2.7,3.8-3.8
	c2.3-2.7,2.3-2.6,0-13.2c-1-4.8-1.7-9.1-2-12.8c-0.2-2.8,0.3-8.2,1-10.8c0.9-3.2,3-7.3,5-9.4c2-2.2,2.7-2.4,0.9-0.2
	c-1.7,2-3.8,6.4-4.6,9.5c-0.6,2.2-0.6,3.1-0.6,8.5c0,6.6,0.2,7.7,2.3,17c1.8,7.7,1.9,11.4,0.5,18c-0.8,3.9-3.6,11.8-5.4,15.4
	c-0.4,0.8-2,3.7-3.6,6.5c-5.2,9.2-6,11.3-5.8,16.3c0.1,2.4,0.2,2.9,1.1,4.7c1.2,2.4,3.9,5.3,7.1,7.5c2.8,1.9,4.1,2.4,6.5,2.2
	c2.3-0.2,4.5-1.2,9.5-4.5c5.5-3.6,11.8-10.5,16.9-18.4c3-4.6,6.6-16.6,9.3-30.8c1.7-8.7,2.4-12.2,2.6-12.6c0.2-0.3,0.2-0.3,0.2,0.2
	c0,0.9,0.4,1,1.5,0.5c0.9-0.4,1.2-0.4,2.9,0c3.2,0.7,3.3,0.6,1.5-1.6c-0.6-0.8-1.8-2.5-2.5-3.7c-0.7-1.2-1.5-2.3-1.7-2.3
	c-0.4,0-3.9,1.8-8.4,4.3c-1.2,0.7-3.5,1.9-5.1,2.8c-1.6,0.9-3.7,2.1-4.7,2.8c-2,1.4-2.5,1.5-3.4,0.8c-1-0.7-0.7-2.1,1.3-5
	c3.2-4.8,7.8-12.3,12.5-20.2c2.9-4.9,7.3-11.5,9.1-13.6c1.6-1.9,2.7-2.7,4-3c1.2-0.3,1.4-0.3,4.7,1.1c3.5,1.5,9.3,2.9,15.9,3.8
	c3.2,0.5,8.4,1.5,9.3,1.9c1.7,0.8,1.5,2.6-0.5,4.4c-2,1.8-9.8,6.5-15.1,9.1c-1.4,0.7-2.5,1.4-2.5,1.6c0,0.2,0.3,0.7,0.6,1
	c0.3,0.4,0.7,1,0.9,1.4c0.5,1,2.6,2.3,5.1,3c4.1,1.3,7.7,0.6,16.6-2.9c5.3-2.1,8.8-4,14-7.4c8.1-5.4,14.1-11,18.5-17.6
	c5.5-8.2,8.3-16.7,7.9-24.6c-0.1-1.8-0.3-3.4-0.4-3.7c-0.1-0.3-2.1-1.1-4.7-2c-2.5-0.9-7.3-2.6-10.7-4c-12.7-4.9-16.7-6.3-22.7-7.6
	l-2.8-0.6l-1.8,0.9c-3.8,2-8.5,5.4-11.3,8.2c-2.7,2.8-5.5,6.7-6.8,9.7c-0.4,1-1.4,5.8-1.4,6.8c0,0.1,0.3,0.2,0.7,0.3
	c1,0.3,0.6,0.6-1.8,1.3c-1.3,0.4-2.1,0.9-2.3,1.2c-0.1,0.3-1,0.8-2.2,1.3c-2.5,1-6.8,2.3-7.4,2.3c-0.3,0-3,0.8-6,1.7
	c-9.9,3-15.1,4.2-16.3,3.9c-0.5-0.1-0.7-0.3-0.7-1.1c0-0.5,0.1-1.2,0.2-1.4c0.1-0.3,0.4-1.6,0.7-3c0.8-4.7,2.8-9.8,5.5-13.9
	c3.1-4.8,8.5-10.7,13.7-15c2.9-2.4,3.4-3.2,1.9-2.8c-5.7,1.3-34.4,11.8-52.7,19.2c-12.2,4.9-17.8,7.3-18.7,7.8
	c-1.7,1-26.1,11.1-26.3,10.9c-0.3-0.3,24.7-12.2,25.5-12.2c0.1,0,2.7-1.1,5.7-2.4c16.7-7.5,58.9-22.9,68.5-25.1
	c2.5-0.6,3-0.8,5.6-2.5c14.7-9.9,29.6-15.5,44.8-17.1c4.8-0.5,14.7-0.2,18.9,0.5c10.6,1.9,18.2,5.6,24.9,12.3
	c3.7,3.7,6.2,7.8,8.1,13.5c1.4,4.3,1.9,7.1,1.9,12.6l0,4.8l8.9,3.4c9.9,3.8,13.4,4.8,24.1,6.9c4.2,0.8,7.8,1.7,9.1,2.2
	c2.8,1.1,6.9,3.5,11.3,6.8c2.6,1.9,4.6,3.1,8.4,5c8.2,4,10.3,4.5,20.8,4.9c16.2,0.6,20,1.1,26.4,3.1c4.7,1.5,6.6,3,6.8,5.5
	c0.2,1.8-0.9,3.9-3.4,6.5c-3.5,3.6-7.2,6.1-14,9.5c-2.9,1.5-4.6,2.1-3.2,1.2c0.5-0.3,2.9-1.7,5.5-3.2c5.5-3.2,8.1-5.1,10.7-7.8
	c2.3-2.4,3.1-3.9,3.1-5.5c0-2.4-1.9-3.7-7.2-5.1c-6.5-1.7-8.7-2-20.4-2.2c-15.2-0.3-17-0.7-25.5-4.9c-4.2-2.1-5.6-3-9.7-6.1
	c-5-3.8-7.9-5.5-10.9-6.5c-0.9-0.3-4.8-1.2-8.6-2c-10.1-2-13.1-2.9-23-6.5c-4.9-1.8-9.1-3.3-9.4-3.3c-0.4,0-0.6,0.5-0.9,2.1
	c-1.8,8.2-6.7,18.1-13.6,27.2c-5.5,7.3-14.2,15.6-21.1,20.2c-3.9,2.6-12.5,7.2-16.3,8.7c-2.5,1-14.2,4.8-16.9,5.4
	c-6.6,1.5-15.3,1.8-21.2,0.6c-1.5-0.3-2.8-0.5-2.8-0.4c-0.2,0.2,1.6,1.6,4.7,3.5c1.8,1.1,7.4,4.7,12.3,8s9.2,6,9.4,6
	c0.2,0,0.5,0.2,0.7,0.4c0.4,0.5,5.1,4,6,4.5c1,0.5,3.4,2.6,8.2,7.2c2.5,2.4,4.5,4,4.8,4.1c0.3,0,2.5,1.6,4.8,3.6s4.5,3.6,4.7,3.6
	c1.3,0,3.3,1.6,9.8,8c9.7,9.4,12.6,12,22.2,19.6c10.9,8.7,15.8,11.7,21.4,13.4c7.3,2.1,15.9,1.5,22.1-1.5c2.6-1.2,4.2-2.7,5.1-4.6
	c0.5-1.1,0.6-1.8,0.6-4.6c0-2.7-0.1-3.6-0.6-4.8c-1.2-3.1-2.2-3.8-8.8-6.6c-7.2-3-7-2.9-13-7.7c-3.2-2.5-7.5-5.9-9.7-7.6
	c-9.2-6.9-10.3-7.9-16.7-14.9c-4.2-4.6-5.5-6.2-7-8.4c-3.2-4.8-7-13.7-7-16.2l0-1.1l0.6,1.4c0.3,0.8,1.7,3.5,3,6.2
	c2.6,5.2,5.1,8.9,11,15.9c4.3,5.2,6.8,7.5,12.2,11.5c10.8,8,12.2,9.1,16.4,12.4l4.4,3.5l5,2c2.7,1.1,5.8,2.4,6.9,2.9
	c4.3,1.9,6.4,5.9,6.4,11.7c0,5.8-2.4,9.5-8.1,12.4c-1.9,1-6.3,2.3-9.1,2.8C539.9,197.2,533.9,197.3,532.5,197L532.5,197z
	 M389.3,98.9c0.1-0.2,0-0.4-0.2-0.4c-0.5,0-0.8,0.4-0.5,0.6C388.9,99.4,389.1,99.3,389.3,98.9z M439.7,94.9c0-0.2-0.1-0.3-0.3-0.3
	s-0.3,0.1-0.3,0.3s0.1,0.3,0.3,0.3S439.7,95.1,439.7,94.9z M405.7,94.6c0-0.2-0.1-0.3-0.3-0.3s-0.3,0.1-0.3,0.3s0.1,0.3,0.3,0.3
	S405.7,94.8,405.7,94.6z M433.5,93.7c0-0.2-0.3-0.3-0.6-0.4c-0.4-0.1-0.6,0.1-0.6,0.4s0.2,0.4,0.6,0.4
	C433.2,94,433.5,93.8,433.5,93.7z M407.6,67.5c0-0.2-0.1-0.3-0.3-0.3s-0.3,0.1-0.3,0.3s0.1,0.3,0.3,0.3S407.6,67.6,407.6,67.5z
	 M481.6,33c0-1.1-2.8-6.1-4.4-7.9c-6.2-6.8-15-8.8-26.7-6c-3.6,0.8-4.9,1.3-4.9,1.8c0,0.2,1.1,0.7,3.2,1.2c4.3,1.2,7.7,2.3,14,4.7
	c10.1,3.9,17.7,6.6,18.3,6.6C481.4,33.5,481.6,33.3,481.6,33L481.6,33z M582.3,177.1c-9.6-1.3-17.8-5.1-26.5-12.1
	c-1.7-1.3-5.6-4.5-8.7-7c-6.9-5.5-15.1-13.1-19.4-18c-5.5-6.2-14.9-16.3-17.6-18.9c-8.7-8.4-8.6-8.3-10.8-9.3
	c-2.7-1.3-4.2-1.5-5.5-0.7c-0.6,0.4-0.9,0.4-0.8,0.2c0.1-0.2,0.7-0.7,1.3-1c1.1-0.6,1.3-0.6,2.7-0.3c2.5,0.5,5.4,2.2,7.9,4.5
	c1.2,1.1,3.5,3.2,5.1,4.6c1.6,1.4,7.1,6.8,12.2,12c8.8,8.9,11.8,11.7,19.8,18.1c1.5,1.2,3.8,2.9,5.1,3.8s5.1,3.7,8.4,6.2
	c3.3,2.5,7.2,5.3,8.5,6.2c3.1,2,7.8,4.5,10.6,5.6c4,1.6,11.8,3.3,16.6,3.7c4.4,0.4,10.8-0.7,14.2-2.4c2-1,4.9-3.7,5.7-5.3
	c1.1-2.4,0.7-5.7-1-8.1c-1.8-2.6-8-6.9-17.7-12.6c-6.5-3.7-16.9-10.7-22.9-15.2c-18.1-13.7-22.1-17-28.7-23.3
	c-6.1-5.9-13-13.8-12.6-14.3c0.2-0.2,6.7,6,11.8,11.2c3.1,3.2,7.3,6.9,13.2,11.7c1,0.8,4.1,3.1,7,5.2c2.9,2.1,6.9,4.9,8.8,6.4
	c7.6,5.6,15.6,11,27.9,18.9c8.3,5.3,13.6,9.9,15.1,12.9c0.8,1.6,0.9,2.1,0.9,4.1c0,2-0.1,2.5-0.8,4c-1.1,2.1-4,5.1-5.6,5.7
	c-0.7,0.2-2.1,0.8-3.3,1.3C597.7,177.1,589.5,178,582.3,177.1L582.3,177.1z M610.1,137.3c-3.1-0.5-4.7-0.8-6.7-1.4
	c-3-0.9-9.9-3.7-13-5.2c-6.6-3.3-18.8-10.4-28.8-16.9c-2.7-1.7-6.3-4-8-5.1c-1.7-1.1-5.7-3.9-8.9-6.3c-12.3-9-14.6-10.5-16.9-10.5
	c-1.3,0-1.6-0.4-0.6-0.7c1.9-0.6,5.7,1.1,12,5.4c10.6,7.3,14.8,10,20.1,13c3.1,1.7,7.3,4.1,9.3,5.3c5.1,3,20.4,11.5,23.4,13
	c3.6,1.8,9.8,4.4,12.6,5.4c5,1.7,12.4,2.4,15.9,1.6c3.7-0.9,7.6-3.7,8.9-6.6c2.2-4.6,1.5-8.5-2.3-12.4c-2.7-2.7-7-4.9-22.6-11.3
	c-7.6-3.1-10.4-4.4-17.4-7.8c-5.6-2.7-16.5-8.8-20.1-11.3c-4.6-3.1-8.7-7-10.9-10.4c-1.5-2.4-1.2-2.5,1-0.4c3.1,3,8.8,7.5,12.4,9.7
	c2.8,1.7,13.2,7.2,17.1,9.1c4,1.9,15.9,7.3,16.1,7.3c0.2,0,7.9,3.7,13.9,6.7c7.6,3.8,10.2,5.5,12.4,8.4c2,2.6,2.7,4.4,2.7,7
	c0,3.6-1.1,6.4-3.6,9c-2.5,2.6-3.7,3.3-8,4.6C618.4,137.2,612.2,137.6,610.1,137.3L610.1,137.3z M482.2,112.5c1-1.4,5.6-6.1,7.1-7.3
	c2.1-1.6,5-3,10.7-5.2c7.5-2.9,11.1-5,15.6-9.3c4.3-4.1,5.7-5.3,10.7-9c4.7-3.5,7.1-5,10-5.9c1.7-0.6,6.7-2,8.5-2.5
	c0.6-0.2,1.6-0.7,2.2-1.2c1.8-1.6,2-1.2,0.4,0.8c-0.8,0.9-1.6,1.5-3.1,2.1c-1.1,0.5-2.3,0.8-2.6,0.8c-1,0-6.4,1.9-8.5,3
	c-3.2,1.7-11.8,8.2-16,12.2c-5.6,5.3-9,7.4-17,10.4c-2.5,0.9-5,1.9-5.5,2.2c-1.4,0.7-6.3,4.2-7.5,5.3c-1.5,1.4-5.2,4.4-5.5,4.4
	C481.7,113.3,481.8,112.9,482.2,112.5L482.2,112.5z"/>
<path id="path3094" inkscape:connector-curvature="0" class="st4" d="M264.5,322.3c-2.6-0.7-5.3-2.1-9.3-4.7
	c-4-2.7-9.5-6.7-11.8-8.5c-1.7-1.4-4.4-4-4.1-4c0.1,0,0.9,0.6,1.8,1.3c4.7,3.7,13.5,8.5,20.4,11.2c7.2,2.8,11.7,2.2,18.8-2.5
	c3.7-2.5,5.7-5,6.1-7.5c0.3-2-1-5.7-3.2-8.9c-1.3-1.9-7.2-7.8-12-12c-4.1-3.6-9.8-9.7-14.4-15.3c-6.2-7.5-9.5-13.8-16.4-30.9
	c-3-7.6-3.3-8.7-3.4-14.2c-0.1-3,0-4.4,0.2-4.1c0.1,0.2,0.6,2,1,4c1,4.8,1.6,6.4,4.8,13.6c5.4,11.9,8.5,17.8,12.1,23.2
	c3.2,4.7,12.2,15.2,16.5,19.1c6,5.5,11.8,11.5,13.6,14.2c5.2,7.9,5.1,13.2-0.3,18.5c-2.4,2.4-6.7,5.4-9.4,6.6
	C272.1,322.9,268,323.2,264.5,322.3L264.5,322.3z M224.9,320.6c-5.7-0.8-15.6-4.8-20.5-8.3c-2.7-1.9-6.6-5.4-7.9-7.2
	c-3.6-4.8-7.1-11.4-9-16.9c-3.5-10.2-6.4-13.9-14.8-19.2c-4.6-2.9-6.7-3.8-21.7-9.1c-10.1-3.6-14.2-5.2-19.3-7.8
	c-5.5-2.8-8.3-4.5-13.1-8.1c-6.9-5.1-16.8-15.6-20.7-21.7c-0.6-0.9-1.2-1.7-1.4-1.7c-0.2-0.1-1.5,0.8-3.1,2.2
	c-4.5,3.8-13.6,11.3-15.2,12.4c-0.8,0.6-3.1,2.4-5.1,4s-6.7,5.3-10.4,8.2s-10.4,8.1-14.8,11.5s-8.9,6.9-10.1,7.9
	c-1.2,0.9-4.1,3-6.4,4.7c-2.3,1.6-4.7,3.3-5.2,3.8c-1.3,1.2-12.9,9.3-13,9.2c-0.1-0.1,6.3-5.5,10.4-8.6c1.3-1,4.3-3.4,6.6-5.3
	c4.4-3.6,17.6-13.8,27.8-21.3c14.1-10.5,18.2-13.7,19.6-14.9c0.8-0.7,5.3-4.2,9.9-7.7c4.6-3.5,8.5-6.5,8.6-6.7
	c0.1-0.2-0.2-1.1-0.7-2.1c-1.4-2.8-2.8-6.3-3.5-8.8c-0.7-2.9-1-12.2-0.6-16c0.4-2.9,1.3-6.8,1.8-7.8c0.5-0.9,0.5-0.7,0,2.3
	c-0.6,3.6-0.8,11-0.4,14.4c1.3,10.8,6.8,20,20,33.2c6.9,6.9,13,11.4,20.9,15.4c4.1,2.1,7.8,3.5,16,6.3c21.2,7.2,20.9,7.1,26.2,10.3
	c3.2,2,5.1,3.4,7.3,5.6c3.6,3.8,5.3,6.7,7.6,13.7c1,2.8,2.2,5.9,3.4,8.1c3.6,6.8,4.6,8.3,7.5,11.3c3.5,3.5,5.4,4.8,10.2,7.2
	c11.9,5.9,18.5,7.6,23.1,6c0.6-0.2,1.2-0.4,1.2-0.3c0,0.3-1.8,1.6-2.6,1.9C232.3,320.9,227.2,321,224.9,320.6L224.9,320.6z
	 M237.2,317c0-0.2,0.2-0.9,0.4-1.4c0.6-1.3,0.6-6.2,0-8.1c-0.2-0.8-0.7-1.9-1.1-2.6c-0.4-0.7-1-2.1-1.4-3.3
	c-1.1-3.1-6.8-13.1-8.6-15.2c-2.9-3.2-6.6-9-8.4-13.2c-0.9-2.1-2.3-5.2-3-6.9c-2.3-5.2-4.2-11-5.4-16.8c-0.6-3.2-0.6-3.9,0-3.9
	c0.6,0,0.8,0.6,1.3,3c0.7,3.2,2.7,9.1,5.6,16.1c4.3,10.4,4.7,11.1,14.1,25.8c3.7,5.8,4.1,6.5,5.4,9.6c0.5,1.2,1.2,2.6,1.7,3.2
	c0.5,0.7,0.7,1.1,0.6,1.3c-0.2,0.1-0.2,0.8,0.1,2.2c0.6,2.9,0.8,7.1,0.4,8.3C238.6,316.3,237.2,317.7,237.2,317L237.2,317z
	 M325.2,292.4c-4.1-0.3-9-1.2-11.6-2c-2.7-0.9-8.6-3.8-11.6-5.7c-1.3-0.8-5.4-4-9.1-7c-11-9.1-19.7-18.2-28.4-30.1
	c-4.1-5.6-8.1-11.1-11.3-15.5c-4.2-5.9-7.9-9.7-10.8-11.1c-1.8-0.9-1.9-1-1.2-1c1.3,0,4.4,1.7,6.6,3.6c1.1,0.9,2.9,2.9,4.1,4.3
	c1.2,1.5,3.4,4.1,4.9,5.9c1.5,1.8,4.2,5.1,6,7.3c9.2,11.4,14.2,16.1,26.2,24.9c1.4,1.1,3.6,2.6,4.7,3.3c1.2,0.8,3.9,2.9,6.2,4.7
	c5.6,4.4,6.8,5.3,10.8,7.7c5.7,3.4,9.7,4.9,17.3,6.1c12.4,2.1,19.8,1.3,23.3-2.7c2.1-2.4,2.9-5.3,2.7-9.9c-0.1-3.8-0.6-5.2-2.3-7.3
	c-2.1-2.6-4.1-3.9-11.8-8.1c-4.4-2.4-9.2-5.2-18.1-10.4c-5.3-3.1-16.9-11-22.1-15c-9.7-7.5-19.8-16.7-23.7-21.5
	c-2.1-2.6-4.7-7-4.9-8.4l-0.2-1l0.9,1c0.5,0.5,1.2,1.5,1.6,2.1c1.4,2.1,5,6.1,7.5,8.4c6.4,5.8,16.5,13.8,24.1,19.1
	c7.8,5.5,13.8,9.5,17.6,11.9c10.6,6.7,14.4,9.1,19.8,12.8c10.7,7.2,12.7,9.6,13,16c0.2,3.1-0.6,7.2-1.8,9.6
	C350.5,291,341.1,293.6,325.2,292.4L325.2,292.4z M188.4,242c0-0.1,1.1-1.3,2.4-2.6c1.8-1.8,3.2-2.8,6-4.4c2-1.1,4.4-2.7,5.5-3.5
	c2.6-1.9,6.7-3.8,11.2-5.3c6.6-2.2,6.8-2.3,15.8-11.3c7.7-7.6,9.5-9.1,12.7-10.8c2.5-1.3,4.6-2,9.1-2.9c2.8-0.5,4.1-1,6.1-2
	c2.4-1.2,2.8-1.5,7-5.7c3.9-3.9,7.3-6.8,7.7-6.4c0.1,0.1-0.3,0.4-0.9,0.7c-1.8,1.1-4.2,3.4-6.7,6.4c-4.9,5.9-6.5,6.9-14.1,8.6
	c-5.7,1.3-8.5,2.5-11.9,5c-1,0.7-4.8,4.4-8.5,8.2c-3.7,3.8-7.4,7.4-8.2,8c-2,1.5-5.2,3.1-8.6,4.2c-4.3,1.3-7.1,2.6-10.3,4.6
	c-1.6,1-3.9,2.4-5.1,3s-2.5,1.5-2.9,1.8c-0.6,0.5-5,3.8-6,4.4C188.6,242.1,188.4,242.1,188.4,242L188.4,242z M337.2,232.3
	c-3.5-0.3-7.5-1.1-10.9-2.2c-3.9-1.3-17-7.8-32.7-16.4c-3.5-1.9-7.9-4.2-9.8-5.2c-3.7-1.8-4.3-2.2-3-1.8c1.8,0.5,5.1,2,13.1,5.8
	c15.1,7.2,27.5,12.2,33.9,13.8c7,1.8,14.8,2.2,25.5,1.4c9.4-0.7,13.6-1.6,18-4c4.2-2.3,6.4-4.5,8.3-8.2c0.7-1.5,0.9-2.2,1-4
	c0.1-1.9,0-2.4-0.5-3.3c-0.7-1.3-3.2-3.1-7.5-5.3c-8.7-4.5-18.7-6.6-37.9-8c-8.5-0.6-14.1-2-22.3-5.8c-1.6-0.7-4.9-2-7.3-2.9
	c-5.6-2-10-4.1-15.7-7.5c-5.3-3.2-6.6-3.8-13.4-5.9c-6-1.9-7.3-2.5-14.6-5.7c-8.5-3.8-9.9-4.4-18-6.6c-9.2-2.5-9.2-2.5-15.9-5.6
	c-3-1.4-7.1-3.1-9-3.9c-4.8-1.9-4.8-1.9-2.5-1.9c3.7,0,6.9,0.8,13.4,3.6c4.9,2.1,6.9,2.7,14.5,4.7c7.6,2,10.4,2.9,15.7,5.2
	c1.7,0.7,4.9,2.1,7.3,3.2c2.3,1,7.1,2.8,10.6,4c3.5,1.2,7.2,2.5,8.2,3c1,0.5,2.1,0.8,2.4,0.7c1.2-0.4,6.9-9.3,7.7-12
	c0.5-1.7,0.5-2.1,0.2-3.2c-0.6-2.1-2.3-4.1-4.7-5.2l-1.5-0.7l-10.1,0.1c-17.4,0.1-21-0.7-32.3-7.5c-5.8-3.5-11.8-6.6-14.5-7.6
	c-1.2-0.4-1.7-0.8-1.7-1.1c0-0.8,0.9-0.8,2.9-0.2c3.9,1.3,8,3.3,16.2,7.9c6.2,3.5,9.4,4.5,16.2,5.3c2.9,0.4,5.1,0.4,12.3,0.3
	c7.3-0.1,9.1-0.1,10.9,0.2c4.3,0.8,5.9,2,7.5,5.4c1.2,2.5,1.3,5.4,0.4,7.1c-1.4,2.7-3.9,6.6-5.9,9.1c-1.1,1.5-2,2.8-2,3
	c0,0.4,4.3,2.8,8.5,4.8c1.6,0.7,5.2,2.2,8.1,3.2s6.7,2.5,8.4,3.3c9,4.1,13.7,5.4,25,6.8c7.8,1,16.9,2.5,19.8,3.3
	c6.6,1.8,12.2,4.2,17.1,7.5c5.7,3.8,6.6,5.9,4.6,11.2c-1.7,4.4-4.3,8-8.2,10.8c-5.2,3.8-9.9,5.2-20.7,6.3
	C345.5,232.5,340.8,232.6,337.2,232.3L337.2,232.3z M532.5,196.9c-4.2-0.7-9-2.3-12.5-4.4c-6-3.5-19.3-14.9-31-26.6
	c-6.3-6.3-7.7-7.5-10.1-9.1c-3.2-2-9.8-7.5-14.2-11.6c-5.1-4.8-5.7-5.3-17.2-14c-5.4-4.1-16.9-12-26.5-18.3c-3.8-2.5-5-3.5-4.1-3.5
	c0.6,0,1.4,0.4,2.8,1.5c0.6,0.5,2.6,1.8,4.4,2.9c1.8,1.1,7.1,4.5,11.8,7.6c4.7,3.1,8.9,5.9,9.5,6.2c0.5,0.3,2.2,1.5,3.7,2.6
	c1.5,1.1,3.3,2.4,3.9,2.8c0.7,0.4,3.7,3.1,6.8,6c3.2,3,5.8,5.2,6.1,5.2c0.3,0,1.7,1,3,2.1c4.4,3.7,6.1,5,6.7,5
	c1.1,0,2.5,1.2,10.3,8.7c9.5,9.1,11.3,10.7,20.4,18c7.4,6,12.5,9.6,15.8,11.4c6.1,3.3,13.6,4.7,19.8,3.8c5.9-0.9,10.5-2.8,12.6-5.2
	c1.6-1.8,2.2-3.6,2.2-6.5c0-3-0.5-4.8-1.8-6.8c-1.2-1.9-1.8-2.2-9.9-5.6l-5.1-2.2l-5.3-4.2c-2.9-2.3-7.7-6.1-10.8-8.4
	c-7.6-5.7-10.7-8.3-12.6-10.5c-0.9-1-2.8-3.2-4.3-4.8c-4.8-5.1-6.5-7.6-9.1-12.6c-2.4-4.6-4-8.9-4-10.4c0-0.5,0.9,1,2.8,5
	c2.5,5.1,3.2,6.2,6.1,10c4.3,5.6,8.3,10.3,11.1,13c1.3,1.2,5.4,4.5,9.2,7.3c7.3,5.4,10.2,7.6,14.4,11c3.6,2.9,3.3,2.7,10.2,5.5
	c3.4,1.4,6.6,2.8,7.2,3.2c2,1.3,3.5,3.9,4.2,7c2,9.6-3,15.5-15.3,18.3C540.6,197,535,197.3,532.5,196.9L532.5,196.9z M472.2,150
	c-0.1-0.2-0.4-0.4-0.8-0.6c-0.6-0.3-0.6-0.3-0.1,0.3C471.8,150.3,472.5,150.6,472.2,150L472.2,150z M41.8,180.6
	c1.3-0.7,10.6-4.7,10.9-4.7c0.1,0,2.9-1.2,6.1-2.8c8.8-4.2,12-5.4,33.2-12.8c21.8-7.6,23-8,32.6-10.6c3.7-1,7.6-2,8.6-2.4
	c3.6-1.1,11-2.7,11.3-2.5c0.2,0.2-0.1,0.3-0.5,0.4c-0.4,0.1-2.6,0.8-4.8,1.5c-2.2,0.7-4.5,1.5-5.1,1.6c-1.6,0.3-10.6,3.6-30.8,11.2
	c-9.3,3.5-19.8,7.4-23.5,8.8c-6.4,2.4-12.6,4.4-21.7,7.1c-2.4,0.7-4.5,1.4-4.7,1.5c-0.4,0.3-11.6,4.1-12,4.1
	C41.1,181,41.4,180.8,41.8,180.6L41.8,180.6z M584.4,177.2c-11-1.1-19.4-4.9-29.9-13.5c-2.1-1.7-5.9-4.8-8.5-6.8
	c-5.1-4-14.4-12.8-17.7-16.4c-1.1-1.3-4.5-5-7.5-8.3s-5.5-6.1-5.6-6.2c0-0.1-3.1-3.1-6.7-6.7c-6-5.8-6.9-6.5-8.9-7.6
	c-1.8-0.9-2.6-1.1-3.8-1.1c-1.1,0-1.4-0.1-1.1-0.3c1.2-0.8,4.5,0,7.3,1.7c2.3,1.4,8.7,7.4,20.3,19c11.6,11.6,16.8,16.2,25.7,22.5
	c2.5,1.8,6.3,4.6,8.5,6.3c4.8,3.7,6,4.6,9.2,6.5c6.1,3.8,11.2,5.8,18.8,7.4c3.8,0.8,4.7,0.9,9,0.9c5,0,6.5-0.2,10.2-1.4
	c5.1-1.6,8.5-5.4,8.5-9.2c0-2.2-0.3-3.4-1.4-5.1c-1.8-2.6-8.1-7.2-17.1-12.3c-9.1-5.2-17.5-10.9-28.4-19.2c-4-3.1-8.2-6.2-9.3-7.1
	c-2.1-1.6-8.8-7.2-12.2-10.3c-2.4-2.1-10-10.1-12.5-13.1c-1.8-2.2-2.7-3.4-2.3-3.4c0.1,0,3.8,3.6,8.2,7.9c9.1,9,15.2,14.2,24.3,20.7
	c3.2,2.3,7.3,5.3,9.1,6.6c6.8,5.1,16.3,11.5,23.3,15.9c5.7,3.5,9.1,5.9,13.2,9.2c4.7,3.8,6.3,6.2,6.3,9.9c0,2.1-0.5,3.6-1.7,5.3
	c-0.9,1.4-3.7,4-4.3,4c-0.2,0-1.3,0.4-2.4,0.9C599.2,176.6,591,177.9,584.4,177.2L584.4,177.2z M358.3,170.4c-2.7-1-4.5-2.2-7.6-5.2
	c-3.8-3.6-5-6.3-5-11.1c0-5.2,0.6-6.7,6.1-16.5c5.8-10.4,8-16.6,9.5-26.4c0.1-0.4,0-0.9-0.1-1.1c-0.2-0.3-0.4-0.2-0.7,0.5
	c-1.6,2.9-11.4,12.6-17.5,17.3c-1.5,1.2-2.8,2.3-2.9,2.4c-0.1,0.2-2.5,2.2-7.5,6.4c-0.5,0.4-0.5,0.4-0.3,0
	c0.6-1.2,13.2-13.5,18.4-18.1c5.9-5.2,7.9-7.1,9.7-9.3c0.9-1.2,1-1.3,0.9-2.9c0-0.9-0.4-3.5-0.9-5.6c-2.5-11.8-2.8-14.6-2.7-20.2
	c0.1-3.6,0.3-5.1,0.7-6.8c0.9-3.2,3-7.4,4.5-9.1c1-1,1.1-1.1,0.6-0.4c-1.1,1.5-3.1,5.9-3.8,8.3c-0.6,2.1-0.6,2.6-0.6,9.2
	c0,7.7-0.1,6.9,2.4,18c1.4,6.2,1.6,9.8,0.6,15.2c-0.8,4.3-2.7,10.3-4.7,14.8c-0.7,1.5-2.6,5.2-4.4,8.3c-5,8.8-5.5,9.9-6,13.8
	c-0.4,2.9,0,5.4,1.1,7.8c1.1,2.2,4.6,5.9,7.5,7.7c4.8,3.2,7.5,2.8,14.9-2c5.6-3.7,9.3-7.3,14.4-14.1c4.5-6.1,5.3-7.6,7.6-14.6
	c2-5.9,5.7-21.9,6.2-26.3c0.3-2.4,1.3-6.6,1.7-6.5c0.2,0,0.3,0.4,0.2,0.7c0,0.3-0.1,1.5-0.2,2.7c-0.5,6.7-3.7,21.1-6.6,29.9
	c-2.4,7.3-3.4,9-9,16.5c-3.6,4.8-8.6,9.7-12.4,12.2C365.4,170.5,361.8,171.6,358.3,170.4L358.3,170.4z M607.5,136.7
	c-1.1-0.2-3-0.6-4.1-1c-2.6-0.8-10-3.8-12.7-5.1c-6.6-3.3-18.9-10.4-28-16.3c-10.4-6.7-13.2-8.5-19.7-13.3
	c-10.1-7.5-11.5-8.4-14.4-9.2l-1.6-0.5l1.4,0c2.6,0,4.7,1.1,14.9,8.2c8.3,5.7,9.2,6.3,15.7,10c2.8,1.6,7.4,4.2,10.3,5.9
	c6.8,3.9,19.7,11.1,22.8,12.6c3.5,1.8,10.1,4.5,12.9,5.4c3.3,1.1,7.6,1.7,11.5,1.7c3.5,0,5.1-0.4,7.3-1.6c4.8-2.7,6.8-5.7,6.8-10.4
	c0-2.2-0.1-2.6-0.7-3.9c-1.6-2.9-4.5-5.5-8.9-7.7c-2.2-1.1-10-4.5-18.1-7.8c-7.6-3.1-16.1-7.1-21.5-10C567.1,86,560.6,81.3,557,76.2
	c-1.9-2.6-1.7-2.9,0.4-0.9c2.6,2.4,8.3,6.8,11.2,8.7c5.3,3.4,18.7,10.2,30.2,15.3c9.6,4.3,22.6,10.7,25.7,12.8
	c2.6,1.8,4.9,4.1,6.2,6.5c0.9,1.6,0.9,1.8,0.9,4.6c0,2.3-0.1,3.2-0.6,4.5c-1.5,3.8-4.6,6.7-8.5,8.1c-1.3,0.5-3,1-3.6,1.1
	C617.1,137.2,610,137.2,607.5,136.7L607.5,136.7z M482.9,111.8c0.3-0.3,1.3-1.5,2.2-2.5c2.1-2.5,5.5-5.1,8-6.4
	c1.2-0.6,4.3-1.8,6.9-2.9c2.6-1,5.5-2.2,6.4-2.7c3.2-1.6,6.6-4.1,10.1-7.5c5.2-4.9,13.2-11,16.6-12.8c1.7-0.9,7.2-2.7,10.7-3.6
	c1-0.2,2.3-0.8,2.9-1.3c1.4-1,1.5-0.6,0.1,0.8c-1.1,1.1-1.5,1.2-7.7,3.1c-3.7,1.1-7.2,2.8-10,4.8c-5.4,3.9-9,6.9-12.3,10
	c-3.5,3.3-7.1,5.9-10.5,7.6c-0.9,0.5-3.7,1.6-6.2,2.5c-2.5,0.9-5,1.9-5.5,2.2c-1.8,0.9-5.4,3.5-8.7,6.3
	C483,112.3,481.7,113.2,482.9,111.8L482.9,111.8z M405.9,104.3c-1.1-0.4-2.4-0.7-2.7-0.7c-0.4,0-0.5-0.1-0.3-0.2
	c0.5-0.2,5.4,0.7,6,1.2c0.5,0.4,0.5,0.4-0.2,0.4C408.3,105,407.1,104.7,405.9,104.3z M609.5,99.2c0-0.1,1.5-1,3.4-2.1
	c5.1-3,8.1-5.1,10.5-7.5c2.7-2.7,3.8-4.4,3.8-6.2c0-2.5-1.7-3.7-6.9-5.2c-6.4-1.8-10-2.2-22.1-2.4c-14.7-0.3-15.7-0.5-24.2-4.8
	c-4.2-2.1-5.8-3.1-8.6-5.3c-8.2-6.3-10.6-7.5-20.6-9.3c-8.4-1.5-12.9-2.8-22.5-6.4c-5-1.9-9.4-3.5-9.7-3.7s-0.5-0.5-0.5-0.7
	c0-0.7,1.4-0.3,10.3,3c9.4,3.6,12.4,4.4,22.6,6.4c3.8,0.8,7.7,1.6,8.6,2c3.5,1.2,6.6,3,12.7,7.5c2.4,1.8,4.6,3.1,8.2,4.8
	c2.7,1.3,5.7,2.7,6.7,3c3.6,1.2,7.7,1.7,16.9,1.9c12.7,0.4,16.8,0.9,23.1,2.9c6.9,2.2,8.5,4.9,5.8,9.4c-1,1.7-4.1,4.7-6.7,6.6
	C617.8,94.9,609.5,99.6,609.5,99.2L609.5,99.2z M311,59.4c0-0.3,22.7-11.1,23.4-11.1c0.1,0,2.6-1.1,5.5-2.4
	c14.5-6.5,53-20.8,65.5-24.4c3.2-0.9,4.4-1.1,4.4-0.8c0,0.5-1.5,1.3-2.7,1.6c-3.6,0.6-18.1,5.7-38.3,13.4
	c-11.6,4.4-32.8,13-33.9,13.7c-0.7,0.5-6.8,3.1-16.2,6.9c-3.5,1.4-6.6,2.7-7,2.9C311.3,59.4,311,59.4,311,59.4L311,59.4z
	 M475.5,33.4c-3-1.1-8.3-3.1-11.7-4.4c-10.3-4-12.3-4.7-20.4-6.6c-1-0.2-1-0.6,0.1-1c0.7-0.3,1.3-0.2,4.2,0.5
	c5.2,1.3,7.8,2.2,17.8,6.1c5.1,1.9,10.8,4,12.6,4.7c3.2,1.1,4,1.6,4,2.3C482.2,35.7,481,35.4,475.5,33.4L475.5,33.4z"/>
<path id="path3092" inkscape:connector-curvature="0" class="st5" d="M266.6,322.6c-3.3-0.4-6.4-1.8-11.1-5
	c-6.3-4.3-13.7-9.8-14.3-10.7c-0.2-0.4-0.5-0.6,3.9,2.4c3.9,2.6,12.8,7.1,17.2,8.8c7.2,2.7,12,1.7,19.6-3.9c3.5-2.6,4.9-5,4.7-7.9
	c-0.4-4.7-4-9.7-13-17.7c-5.6-5-6.8-6.2-10.5-10.3c-7.2-8-9.6-11.1-12.8-16.9c-3.5-6.2-4.3-8-9-19.5c-3.4-8.2-3.8-9.9-4.1-15.6
	c-0.2-4,0.1-4.7,0.7-1.5c0.6,3.5,1.6,7.1,2.6,9.3c5.2,12.2,10.8,23.2,14.5,28.8c3.3,4.9,13.3,16.4,17.8,20.4
	c4.2,3.7,10.2,9.9,11.8,12.2c4.2,6,5.3,11.2,3.3,15.4c-1.5,3-5.1,6.3-10.1,9.2C274.2,322.1,270.1,323,266.6,322.6L266.6,322.6z
	 M222.9,320.1c-2.9-0.6-4.5-1.1-8.3-2.7c-6.7-2.7-10.5-5-15.2-9.3c-2.4-2.2-4.6-5.3-8-11.2c-2.1-3.6-2.4-4.4-4.3-9.9
	c-2.1-6.1-4.3-9.9-7.8-13.2c-1.9-1.8-3.1-2.7-6.4-4.8c-4.8-3-6-3.5-21.7-9.1c-10.9-3.9-14.4-5.3-19.6-7.9c-5.2-2.6-8.1-4.4-12.8-7.9
	c-4.9-3.7-7.8-6.4-12.1-11c-4.8-5.2-6.6-7.4-8.6-10.4c-0.9-1.3-1.8-2.5-1.9-2.5c-0.1,0-0.3-0.2-0.3-0.5s-0.4-1.3-0.9-2.3
	c-1.4-2.6-2.9-6.6-3.5-9.4c-1.1-4.9-0.6-17.1,0.7-20.6l0.4-1.1l-0.2,1.4c-0.1,0.8-0.3,3.3-0.4,5.6c-0.6,9.6,0.8,15.7,5.5,23.9
	c3,5.2,7.7,11,14.7,18c6.5,6.5,12.8,11.2,20.2,14.9c5.4,2.8,8.3,3.9,22.5,8.6c13.6,4.6,15.6,5.4,20.3,8.2c4.8,2.9,7.2,4.9,9.9,8.6
	c2.1,2.8,3.4,5.6,5.4,11.4c1.6,4.8,4.2,10,7.3,14.8c1.9,2.9,6.3,7,10.2,9.4c2.1,1.3,10,5,13.3,6.2c4.8,1.8,8.3,2.5,11,2.1
	c1-0.1,2-0.3,2.3-0.4c0.9-0.4-0.2,0.8-1.2,1.2C232.2,320.8,225.9,320.7,222.9,320.1L222.9,320.1z M237.5,316.7
	c0-0.1,0.2-0.7,0.4-1.4c0.3-1.1,0.4-1.9,0.2-4.6c-0.2-3.1-0.3-3.5-1.3-5.5c-0.6-1.2-1.3-2.8-1.6-3.6c-0.6-1.9-0.7-2.2-4.2-8.3
	c-2-3.6-3.5-5.8-4.7-7.2c-2.6-3-6-8.1-7.5-11.5c-0.7-1.7-2-4.5-2.9-6.3c-2.8-6.1-4.6-11.6-6-18c-0.8-3.6-0.8-4.1-0.3-4.1
	c0.6,0,0.7,0.3,1.2,2.6c0.6,3.1,2.8,9.4,5.6,16c4.4,10.6,5.2,12,14.8,26.9c2.1,3.2,3.6,6,4.5,8.1c0.7,1.7,1.6,3.4,1.8,3.7
	c0.3,0.4,0.6,1.2,0.7,2.5c0.1,1.1,0.4,2.8,0.6,3.8c0.5,2.3,0.4,5.2-0.3,6.5C238,316.7,237.5,317.1,237.5,316.7L237.5,316.7z
	 M323.4,292.1c-5.3-0.5-9.9-1.7-13.9-3.6c-5.3-2.4-8.8-4.7-15.5-10.3c-9.2-7.5-16.9-15.2-23.5-23.5c-2.7-3.4-6-7.7-7.3-9.5
	c-1.3-1.8-4-5.5-6.1-8.3s-4.5-6.1-5.4-7.4c-2.3-3.3-5.3-6.4-7.8-8c-2-1.3-1.9-1.6,0.2-0.5c2.8,1.4,5.3,3.8,9.9,9.5
	c1.5,1.8,4.1,5,5.8,7c1.7,2.1,4.5,5.4,6.1,7.4c4.5,5.5,11.1,12,16,15.8c5.1,3.9,8.7,6.6,11.5,8.5c1.1,0.8,4.2,3.1,6.9,5.2
	c10.5,8.3,16.4,11.3,25.2,13.1c14,2.8,22.9,1.8,26.3-2.9c2.5-3.4,3.2-10.4,1.4-14.6c-0.7-1.7-3.1-4.1-5.6-5.9
	c-1.1-0.7-4.1-2.5-6.8-3.9c-4.5-2.4-18.2-10.3-22.4-12.9c-2.8-1.7-12.6-8.5-16.7-11.5c-3.8-2.8-12.1-9.6-14.7-11.9
	c-3.8-3.4-9.8-9.6-11.4-11.6c-1.9-2.5-4.1-6.2-4.4-7.4l-0.2-0.8l0.7,0.8c0.4,0.5,1.2,1.5,1.8,2.3c5.4,7.8,22.1,21.3,45.5,36.8
	c1.3,0.8,5.2,3.3,8.6,5.5c3.5,2.2,7.5,4.7,8.9,5.7s3.7,2.5,5,3.3c6.9,4.4,11,8,12.3,10.8c0.7,1.4,1.4,4.7,1.4,6.6
	c0,1.3-0.9,5.7-1.5,7.3c-1.8,4.7-6.3,7.5-13.5,8.6C337.5,292.4,327.4,292.5,323.4,292.1z M15.5,282.3c1.7-1.4,9.4-7.8,10.2-8.3
	c0.5-0.4,2.7-2.1,4.8-3.8c4.5-3.7,18.8-14.7,35-26.8c6.3-4.7,11.5-8.7,11.6-8.8c0.1-0.1,3.6-2.9,7.9-6.1c9.1-6.9,10.1-7.7,10.1-7.5
	c0,0.3-15.3,13.1-16.9,14c-0.5,0.3-2.7,2.1-5.1,4c-2.3,1.9-10.6,8.4-18.4,14.4s-15.4,11.9-17,13.2c-1.6,1.2-4.5,3.4-6.6,4.8
	s-4.1,2.9-4.7,3.4c-1,0.9-9.4,6.8-10.8,7.7C15,282.9,15,282.9,15.5,282.3L15.5,282.3z M189.5,240.9c1.2-1.7,3.6-3.5,7.2-5.7
	c2-1.2,4.7-2.9,5.9-3.8c2.7-2,5.8-3.4,10.6-5c6.9-2.3,7.9-3,16.3-11.5c10.2-10.3,12.3-11.6,21.6-13.6c5.6-1.2,7.5-2.2,11.5-6
	c2.9-2.8,2.9-2.8,1.6-1.1c-4.4,5.7-6.3,6.8-15.8,9c-4.3,1-7.7,2.6-10.8,5.1c-1.2,1-4.9,4.6-8.2,8c-8.3,8.6-9.8,9.7-16.7,11.9
	c-5,1.6-6.8,2.5-10.2,4.6c-1.6,1-3.9,2.4-5.2,3.1c-1.2,0.7-2.6,1.6-3.2,2.1c-0.5,0.5-1.7,1.3-2.5,1.9c-0.8,0.5-1.8,1.2-2.1,1.5
	l-0.7,0.5L189.5,240.9z M335.5,232c-2.9-0.3-7.5-1.4-10.3-2.4c-3.8-1.4-17.5-8.3-29.8-15c-2.6-1.4-6.5-3.5-8.6-4.6
	c-2.1-1.1-3.8-2-3.6-2c0.5,0,3.7,1.4,11.3,5.1c14.2,6.8,26.1,11.7,32.9,13.5c4.8,1.3,9.6,1.8,16.2,1.9c9.4,0,17.7-0.8,22.6-2.2
	c5.5-1.6,10.5-5.1,12.8-8.9c1.2-2,1.7-3.3,1.9-5.5c0.3-3-0.5-4.3-4-6.5c-5.6-3.6-12.9-6.4-20.2-7.8c-3.8-0.7-12.8-1.8-19-2.2
	c-11.5-0.8-16.4-2-25.2-6c-1.5-0.7-5.1-2.1-8-3.2c-6-2.2-8.8-3.5-14.7-7.1c-5.3-3.2-6.8-3.9-12.3-5.6c-6.5-2.1-9.7-3.3-16.5-6.4
	c-8-3.7-10.1-4.4-18.1-6.6c-7.6-2.1-10.3-3-15.8-5.6c-2.1-1-5.7-2.5-8-3.4c-3.9-1.5-5.1-2.1-4.3-2.1c0.2,0,1.6,0.1,3.1,0.3
	c3.3,0.3,5,0.8,10.4,3c5.9,2.4,7.9,3.1,15.5,5.1c8.1,2.1,10.8,3,18.4,6.4c7.7,3.4,8.9,3.9,15.8,6.2c3.2,1.1,6.7,2.4,7.7,2.8l1.8,0.8
	l0.9-0.7c1-0.9,5.7-7.9,6.7-10.1c0.8-1.8,1.1-4,0.6-5.4c-0.5-1.4-2.6-3.6-4.1-4.4c-2.3-1.2-4.5-1.3-12.9-1c-7.7,0.3-10,0.2-15.5-0.7
	c-4.9-0.8-8.7-2.3-14.3-5.7c-6.2-3.8-11.7-6.7-14.7-8c-2.8-1.1-3.4-1.6-2.5-1.9c1.2-0.4,9.6,3.3,18,8.1c6.9,3.9,10.6,5,18.9,5.8
	c2.3,0.2,5.3,0.2,10.1,0c5.9-0.3,7.3-0.2,9.7,0.1c4.8,0.7,6.7,2,8.3,5.4c1,2.3,1.3,3.9,0.9,5.6c-0.4,1.6-4.2,7.8-6.7,11
	c-1,1.3-1.9,2.5-1.9,2.6c0,0.4,2.7,2,6.7,4c4.3,2.1,5,2.4,11.2,4.6c2.4,0.9,5.7,2.2,7.4,2.9c5.9,2.7,11.4,4.6,16.2,5.5
	c1.2,0.2,4.7,0.7,7.7,1.1c13.1,1.7,19.1,2.8,24.7,4.6c5.2,1.7,9,3.5,13,6.1c4.4,2.9,5.8,4.6,5.8,7.3c0,1.7-1.4,5.3-2.9,8
	c-3,5.1-9,9.3-15.8,11C356.1,231.7,342.3,232.8,335.5,232L335.5,232z M531.7,196.6c-5-0.8-11.2-3.6-15.9-7.1
	c-7.3-5.5-17.3-14.4-26.2-23.3c-5.3-5.3-7.7-7.6-9.1-8.4c-3.9-2.3-9.4-6.8-16.6-13.4c-2.6-2.4-6.1-5.4-8-6.8
	c-1.8-1.4-4.2-3.2-5.3-4.1c-4.6-3.7-16.1-11.7-26.7-18.7c-3.6-2.4-6.6-4.4-6.7-4.6c-0.4-0.6,0.4-0.2,2.8,1.3c1.3,0.9,3.5,2.2,4.8,3
	c1.3,0.8,6.3,4,11.1,7.2c4.8,3.2,9.1,6,9.6,6.2c0.5,0.2,1.6,1,2.6,1.9s2.4,1.9,3.2,2.4c1.9,1.2,5.2,4,9,7.7c3.9,3.8,4.9,4.6,5.6,4.8
	c0.6,0.1,4.5,3.1,4.3,3.3c-0.1,0.1-0.4-0.1-0.8-0.3c-1.3-0.9-0.7,0.1,1,1.6c2.8,2.4,4,3,2.5,1.2c-0.6-0.7-0.2-0.6,1.1,0.3
	c0.6,0.4,1.2,0.8,1.4,0.7c0.6-0.4,3,1.5,9.1,7.5c9.4,9.1,13.7,12.9,23.5,20.8c10.6,8.4,15.4,11.3,21.9,13c2.4,0.6,3.2,0.7,7.6,0.7
	c4.5,0,5.2,0,7.9-0.7c7.9-2,11.1-4.9,11.4-10.3c0.1-2.8-0.3-5.3-1.2-7c-1.4-2.6-2.2-3.1-10.9-6.7l-4.6-1.9l-5-4
	c-2.8-2.2-7.8-6.1-11.2-8.6c-7.9-6-10.4-8.1-12.6-10.5c-1-1.1-2.7-3-3.9-4.3c-3.1-3.3-5.6-6.3-6.7-8c-2.5-3.8-6.7-12.9-6.7-14.7
	c0-0.3,1.2,1.9,2.7,4.9c2.7,5.4,3.2,6.2,8.5,13c2.5,3.2,6.5,7.8,8.4,9.6c1.2,1.1,4,3.4,6.3,5.1c2.3,1.7,6.1,4.5,8.4,6.2
	s5.9,4.5,8,6.2c2.1,1.7,4.4,3.4,5.1,3.7c0.7,0.3,3.8,1.6,6.9,2.9c6.2,2.5,7.2,3.1,8.8,5.6c2.6,4,2.6,11.1,0,14.9
	c-2.5,3.6-8,6.5-15,7.7C539.6,197,534,197,531.7,196.6L531.7,196.6z M44.4,179.6c0.7-0.4,2.8-1.3,4.7-2.1c5.2-2.2,10-4.3,13.2-5.9
	c1.6-0.8,4.6-2.1,6.7-3c3.8-1.5,34.9-12.5,43.2-15.2c5.6-1.8,26.3-7.5,29.6-8.1c2.3-0.4-0.5,0.6-9.3,3.4c-2.5,0.8-11.8,4.2-24.1,8.8
	c-36.5,13.6-37,13.8-50.4,17.8c-2.1,0.6-4.2,1.3-4.7,1.5c-0.8,0.4-9.7,3.4-10,3.4C43.3,180.2,43.7,179.9,44.4,179.6z M583.8,177
	c-0.6-0.1-2.5-0.4-4.1-0.7c-8.2-1.5-16-5.3-23.5-11.4c-1.5-1.2-5.4-4.4-8.7-7c-5.8-4.6-13.2-11.4-17.4-15.8
	c-1.1-1.1-4.9-5.4-8.6-9.4c-8-8.8-8.6-9.4-14.8-15.3c-4.2-4-5-4.7-7.3-5.8c-1.7-0.9-2.2-1.2-1.6-1.1c0.5,0.1,1.8,0.6,2.9,1.2
	c2.7,1.3,6.7,5.1,21.1,19.3c12.3,12.2,17.4,16.7,25.8,22.7c2.3,1.6,6.2,4.5,8.6,6.4c11.8,9,18.4,12.2,29.8,14.2
	c4.3,0.8,7.2,0.9,10.5,0.6c6.1-0.6,9.7-2,12.6-4.9c1-1,2-2.3,2.3-2.9c1.1-2.4,0.7-5.6-1-8.2c-1.6-2.5-8.1-7.1-17.5-12.5
	c-6.9-4-16.8-10.5-23.7-15.8c-3-2.3-7.7-5.8-10.3-7.8c-4.8-3.7-10.7-8.6-15.7-13c-2.5-2.3-10.4-10.6-12.8-13.5
	c-3.1-3.7,0.2-0.8,9.2,8.2c4.6,4.6,12.9,11.8,17.3,14.9c1.2,0.9,6,4.3,10.6,7.6c10.7,7.8,18.2,12.9,25.3,17.4
	c6.3,4,9.9,6.5,13.9,9.6c3.1,2.5,4.4,4,5.5,6.1c0.6,1.3,0.7,1.9,0.7,3.8c0,2-0.1,2.5-0.8,4c-0.8,1.5-4,5.1-4.6,5.1
	c-0.1,0-1.5,0.6-3.1,1.2c-5.1,2.2-10.4,3.2-16,3.1C586.4,177.1,584.4,177.1,583.8,177z M357.6,170c-2.1-0.9-4.6-2.7-7.1-5.2
	c-2.2-2.1-3.6-4.5-4.3-6.9c-0.8-3-0.3-8.2,1.1-11.7c0.4-1,2.3-4.6,4.3-8.2c2-3.5,4.1-7.5,4.7-8.9c2.6-6.1,4.7-13.4,5.1-17.9
	c0.2-2.3-0.2-2.4-1.4-0.3c-0.5,0.8-1.5,2.1-2.3,3.1c-1.9,2.2-10.9,10.6-14.2,13.2c-1.4,1.1-3.9,3.2-5.6,4.7c-4,3.4-4.4,3.7-3.1,2.2
	c3.5-4,13-13,21.9-20.7c0.7-0.6,2.1-2.1,3.1-3.2c1.6-1.9,1.8-2.3,1.8-3.3c0-1.4-0.6-4.9-1.7-9.7c-1.6-7.1-2-10.6-2-15.8
	c0-4.2,0.1-5.1,0.7-7.5c0.7-2.6,2.4-6.5,3.3-7.7c0.2-0.3,0.1,0.3-0.4,1.3c-2.3,5.2-2.9,9-2.6,16c0.2,4.7,0.7,7.9,1.9,13.1
	c1.4,5.9,1.9,8.8,1.9,12c0,4.1-0.8,8.5-2.4,13.6c-1.9,5.8-3.5,9.4-7,15.6c-5.6,9.9-6.4,12-6.1,17c0.1,2.4,0.2,2.9,1.1,4.7
	c1.2,2.5,3.4,4.9,6.5,7.2c3.1,2.3,4.8,3,7.4,2.8c2.4-0.2,4.4-1.1,9.4-4.3c2.8-1.8,4.2-3,7.4-6.3c4.3-4.4,9.1-10.6,11.1-14.5
	c2.4-4.7,6-17.3,8.2-28.9c1.6-8.5,2.1-10.8,2.3-11.1c0.3-0.3,0.1,3.1-0.3,5.6c-1.1,7.3-1.7,10.2-3.5,17.4c-2.3,9.2-4.8,16-7.2,19.7
	c-7.4,11.3-14.8,18.3-23.7,22.5c-1.6,0.7-2.3,0.9-4.2,1C359.5,170.6,358.9,170.5,357.6,170L357.6,170z M609,136.9
	c-5.9-0.8-14.3-4.1-23.7-9.2c-6.4-3.5-16.2-9.3-22.6-13.5c-2.5-1.6-6-3.9-7.8-5c-1.8-1.1-4.9-3.3-7-4.8
	c-10.3-7.5-14.8-10.7-16.7-11.7c-1.4-0.7-1.9-1.1-1.5-1.1c1.1,0,5.5,2.4,10.1,5.7c7.8,5.5,13.3,9,17.2,11.2c2.1,1.2,6.4,3.6,9.6,5.5
	c7.9,4.6,21.5,12.2,25.4,14.1c4,2,9.7,4.4,12.8,5.5c4.9,1.6,12,2.3,15.6,1.6c3.9-0.8,7.9-3.8,9.5-7c0.8-1.5,0.9-2.2,1-4.3
	c0.1-2.3,0-2.7-0.6-4c-0.9-2-2.7-4.2-4.6-5.6c-2.9-2.1-8-4.5-23-10.7c-10.7-4.4-17.5-7.7-27.8-13.7c-8.6-4.9-13.2-8.3-16.5-12.2
	c-1.6-1.9-2.5-3.3-2.2-3.3c0.1,0,1,0.8,2.1,1.8c2.6,2.4,7.3,6.1,10.1,7.9c5.3,3.4,17.2,9.5,28.5,14.6c11.7,5.2,23.9,11.2,27.2,13.4
	c4.1,2.6,7.1,6.6,7.5,9.9c0.4,3.1-1,7.3-3.3,9.8c-2.4,2.6-4.1,3.6-8.5,4.8C618,137,611.7,137.2,609,136.9L609,136.9z M484.3,110.3
	c1-1.3,3.6-3.8,5.3-5.1c1.7-1.4,4.9-2.9,10.4-5c2.6-1,5.5-2.2,6.4-2.7c3.3-1.6,6.9-4.4,10.8-7.9c4.3-4,12.9-10.7,15.7-12.1
	c1.9-1,6.2-2.5,10.5-3.6c1.3-0.4,2.7-0.8,3-1.1c1.1-0.8,1.2-0.4,0.2,0.5c-1,0.9-2.4,1.4-7.4,2.8c-3.1,0.9-6.4,2.4-8.8,4
	c-4.2,2.8-9.6,7.1-13.2,10.5c-3.8,3.6-7.4,6.2-10.8,7.9c-0.9,0.5-3.7,1.6-6.2,2.5c-4.7,1.8-6.5,2.6-7.7,3.5
	c-0.4,0.3-1.7,1.3-2.9,2.1c-1.2,0.9-3,2.3-4,3.1C483.7,111.6,483.2,111.8,484.3,110.3L484.3,110.3z M615.9,95.5c0.2-0.2,1.4-1,2.7-2
	c2.8-1.9,7.2-6.2,8.1-7.9c0.7-1.5,0.8-3.2,0-4.3c-1.1-1.8-5.7-3.5-13.3-4.8c-2.8-0.5-4.9-0.6-14-0.8c-15.1-0.3-17-0.7-25.3-4.8
	c-3.8-1.9-5.5-2.9-8.7-5.4c-8.8-6.7-10.2-7.3-21.3-9.4c-8.8-1.7-12.8-2.8-22.4-6.4c-4.9-1.8-9-3.5-9.2-3.6c-0.2-0.2-0.2-0.4,0-0.5
	c0.2-0.2,3.3,0.9,9,3c9.4,3.6,14.6,5.1,22.7,6.5c10.7,2,12.7,2.9,22,9.6c3,2.2,9.5,5.7,13.3,7.2c4.4,1.8,8.4,2.3,20.3,2.6
	C611.2,75,614,75.3,620,77c7.2,2,9.3,4.5,7.3,8.7c-1.3,2.7-6,6.9-10.3,9.4C616.2,95.5,615.7,95.7,615.9,95.5L615.9,95.5z
	 M314.6,57.7c0-0.3,18.9-9.2,19.5-9.2c0.1,0,2.5-1,5.2-2.2c6.3-2.8,9.8-4.2,18.7-7.7c26.1-10.1,50.1-18.4,50.8-17.7
	c0.3,0.3-0.5,0.8-3.3,1.5c-9.2,2.6-33.8,11.6-52.1,19c-13.4,5.4-17.8,7.3-18.4,7.7c-0.6,0.4-7.7,3.4-14.7,6.3
	C315.7,57.5,314.6,57.9,314.6,57.7L314.6,57.7z M477,33.8c-2-0.7-7.7-2.9-12.6-4.8c-9.7-3.7-13.5-5-17.6-6c-1.4-0.3-2.9-0.7-3.2-0.8
	c-0.5-0.2-0.5-0.2,0.2-0.6c1.4-0.6,8.1,1.3,20.2,6c4.1,1.6,9.7,3.7,12.3,4.6c3.3,1.2,4.9,1.9,5.2,2.3c0.3,0.5,0.3,0.6-0.3,0.6
	C481,35.1,479,34.5,477,33.8L477,33.8z"/>
<path id="path3090" inkscape:connector-curvature="0" class="st6" d="M266.5,322.4c-3.2-0.5-6.6-2.1-11.6-5.5
	c-4.7-3.2-10.1-7.2-10.4-7.6c-0.1-0.2,0.2-0.1,0.6,0.2c5.9,3.9,15.7,8.6,20,9.6c2.2,0.5,6,0.5,7.9,0c3.1-0.8,8.3-3.9,11-6.6
	c3.4-3.3,3.7-6.3,1.1-11.4c-1.7-3.4-6.3-8.4-14.1-15.3c-6.1-5.4-14.3-14.7-18.3-20.7c-3.5-5.4-6.9-12.4-11.9-24.9
	c-2.7-6.7-3.3-9-3.4-13.3c-0.1-3.6-0.2-3.6,1,1.6c0.7,3.1,1.2,4.5,4.4,11.5c5.1,11.3,7.9,16.6,11.7,22.5c2.7,4.3,13,16.2,16.8,19.6
	c1.3,1.1,4.5,4.2,7.1,6.9c3.7,3.7,5.2,5.4,6.5,7.4c3.2,4.9,4.3,8.8,3.5,12.1c-0.5,2-1.8,4.1-3.6,5.9c-2.8,2.8-8.3,6.3-11.4,7.3
	C271.7,322.3,268,322.6,266.5,322.4L266.5,322.4z M225.7,320.4c-4.6-0.6-9.9-2.3-16.1-5.4c-3.9-1.9-5.8-3.2-9.4-6.5
	c-2.8-2.5-4.4-4.7-7.7-10.2c-2.6-4.4-3-5.3-4.7-10.2c-3.3-9.4-6.2-13.4-13.3-18.2c-5.6-3.7-7.2-4.4-23.7-10.3
	c-12.2-4.3-18.6-7.1-24.9-10.9c-2.9-1.7-9.9-7-12.7-9.5c-5.7-5.2-12.8-13.4-16.6-19.3c-0.1-0.2-0.9-1.7-1.7-3.5
	c-1.5-3.3-2.6-6.3-3.2-9.2c-0.5-2.3-0.4-14.2,0.1-16.6l0.4-1.8l-0.1,3.6c-0.1,2-0.2,3.7-0.2,3.9c-0.2,0.6,0.4,7,0.9,9.1
	c0.6,3,1.3,4.9,3.1,8.6c1.6,3.3,4.3,7.6,6.4,10.1c10.4,12.7,19.3,20.5,29.8,25.9c5.9,3.1,7.9,3.8,28.3,10.7
	c8.5,2.9,10.1,3.6,14.5,6.1c4.8,2.8,7.6,5.2,10.2,8.7c2.2,2.9,3.2,5.1,5.1,10.6c1.8,5.2,3.3,8.4,6.6,14c1.4,2.3,2.3,3.6,4.5,5.7
	c1.5,1.5,3.7,3.4,4.9,4.2c3.8,2.6,14.7,7.6,19.4,8.9c2.5,0.7,6.6,1,8,0.6c1.1-0.3,1.2,0.1,0,0.5
	C232.5,320.5,227.9,320.6,225.7,320.4L225.7,320.4z M238.1,315.5c0.2-0.4,0.3-2.1,0.3-3.6c0-1.8,0.1-2.6,0.2-2.2
	c0.6,1.7,0.1,6.6-0.7,6.6C237.9,316.3,237.9,315.9,238.1,315.5L238.1,315.5z M236.9,304.9c-0.5-1.1-1.3-2.9-1.7-4.1
	c-0.4-1.1-1.2-3-1.9-4.1c-3.9-7-5.1-9-6.6-10.6c-3.2-3.5-6.3-8.5-8.6-13.6c-1.1-2.6-2.5-5.8-3.1-7.1c-2.2-5-4.9-14.2-5.3-18
	c-0.2-1.4-0.1-1.5,0.2-1.1c0.2,0.2,0.6,1.2,0.7,2.2c0.5,2.9,3.1,10.1,5.9,16.8c4.2,10.1,5,11.4,13.8,25.2c3.6,5.5,4.6,7.5,5.5,9.9
	c0.3,0.8,0.9,1.9,1.2,2.5s0.7,1.1,0.6,1.3c0,0.2,0,0.8,0.2,1.4c0.1,0.6,0.2,1.1,0.1,1.2S237.5,306,236.9,304.9L236.9,304.9z
	 M328.7,292.2c-6.5-0.2-12.9-1.3-16.8-2.8c-2.2-0.9-6.9-3.3-9.8-5c-0.9-0.5-4.5-3.3-8-6.1c-9.1-7.4-17-15.3-23.6-23.5
	c-2.7-3.4-6.3-8.1-8-10.4c-1.6-2.3-4.3-6-5.9-8.1c-1.6-2.1-3.7-5-4.7-6.5s-3-3.8-4.6-5.4c-1.6-1.6-2.4-2.6-1.9-2.3
	c1.4,0.8,5.1,4.6,8.1,8.3c1.5,1.9,4.2,5.1,5.9,7.1s4.5,5.4,6.1,7.4c4.7,5.8,11.3,12.2,16.9,16.5c5.5,4.3,8.1,6.1,11,8.1
	c1.1,0.8,4.2,3.1,6.9,5.2c10.3,8.2,16.6,11.4,24.8,13c6.3,1.2,9,1.5,13.9,1.5c5.4,0,7.1-0.3,10-1.8c4.1-2.2,6.1-7.2,5.3-13.9
	c-0.3-2.7-1.2-4.6-3.3-6.8c-2-2.1-4.3-3.6-9.8-6.6c-5.4-2.9-20.9-11.9-24.3-14.1c-13.6-8.8-25.4-18.1-34.4-26.8
	c-5.9-5.7-8.2-8.6-10.7-13.5c-0.6-1.2,0.1-0.6,1.1,0.8c1.5,2.3,5.5,6.8,7.9,8.9c11.6,10.4,28.8,23,46.2,33.8
	c6.9,4.3,19,12.4,21.5,14.4c2.1,1.7,4.6,4.3,5.2,5.4c1.5,2.9,1.9,6.8,1,10.9c-0.8,3.7-1.8,5.8-3.8,7.5c-2,1.8-4.2,2.9-7.4,3.7
	c-2.5,0.6-8.6,1.3-11.2,1.2C331.5,292.3,329.9,292.3,328.7,292.2z M19.2,279.7c0-0.2,5.7-4.9,6.7-5.5c0.4-0.3,2.5-2,4.7-3.7
	c4.5-3.7,17.8-13.9,34.2-26.2c6.4-4.8,12.1-9.1,12.6-9.6c0.9-0.9,10.3-8,12.5-9.6c0.8-0.6,0.9-0.6,0.4-0.1
	c-1.9,1.7-11.5,9.5-12.1,9.8c-0.4,0.2-2.6,1.9-4.9,3.8c-3.8,3.1-9.2,7.3-32.4,25.2c-3.2,2.5-7.6,5.7-9.6,7.1c-2,1.4-4.1,3-4.7,3.4
	c-0.8,0.8-2.9,2.3-6.5,4.8C19.6,279.5,19.2,279.8,19.2,279.7L19.2,279.7z M190.6,240c0-0.5,2.5-2.4,5.4-4.1c1.6-1,4.3-2.7,6-3.8
	c3.7-2.5,6.8-4,11.7-5.6c6.5-2.2,6.7-2.3,16.3-11.7c10.5-10.4,12-11.3,20.9-13.2c4.7-1,7.7-2.3,10-4.4c0.8-0.7,1.3-1,1.1-0.7
	c-0.5,0.9-2.9,2.9-4.2,3.6c-1.7,0.8-4.3,1.6-8.2,2.5c-8.2,1.9-9.9,3-19.9,13c-4.2,4.2-8.3,8.1-9,8.6c-2.1,1.5-4.4,2.5-8.7,3.9
	c-4.5,1.5-6.4,2.4-9.7,4.5c-1.2,0.8-3.4,2.1-4.8,2.8c-1.4,0.8-2.9,1.7-3.2,2C193.6,238.4,190.6,240.4,190.6,240L190.6,240z
	 M334.2,231.6c-3.5-0.6-6.8-1.4-9.5-2.5c-2.2-0.9-12.4-5.8-18.3-9c-6.7-3.6-17.8-9.6-17.8-9.7c0-0.1,2.9,1.2,9.3,4.3
	c10,4.8,23.6,10.3,29.5,11.8c7.8,2,15.4,2.4,29.2,1.3c8.3-0.7,13.5-2.4,18.4-6.1c2.1-1.6,3.7-3.7,5.1-6.4c0.8-1.6,0.9-2.3,1-4.1
	c0.1-3-0.5-4-3.4-5.9c-9.7-6.4-20.2-9.2-40.6-10.6c-10.9-0.8-16.4-2.1-25-6.1c-1.3-0.6-4.1-1.7-6.2-2.5c-7.4-2.7-10.7-4.2-16.3-7.7
	c-3.8-2.4-7.5-4.1-13-5.8c-6.4-2-7.8-2.6-15.1-5.9c-8.5-3.9-9.7-4.3-18.2-6.6c-8.5-2.3-9.9-2.8-16.7-6c-3.9-1.8-6-2.7-10.1-4.2
	c-1.1-0.4-0.5-0.5,2-0.2c2.8,0.3,5.3,1.1,10.1,3.1c5.8,2.4,7.5,3,15.5,5c8.2,2.1,11.4,3.3,22.2,8.1c2.5,1.1,7.4,2.9,10.8,4.1
	c3.5,1.2,7.2,2.5,8.2,3c1,0.5,2.1,0.9,2.4,0.9c0.6,0,2-1.6,3.8-4.1c3.5-5.3,5-8.4,5-10.5c0-2.1-2.5-5.3-5-6.4
	c-2.3-1-4.7-1.2-12.2-0.8c-7.2,0.3-10.2,0.2-14.9-0.5c-5.9-0.9-9.2-2.2-16.6-6.7c-5.5-3.3-11.2-6.4-14-7.4c-1.1-0.4-1.9-0.9-1.9-1
	c0.4-1.1,8.4,2.4,18.2,8c5.8,3.3,9.2,4.4,15.6,5.3c2.9,0.4,4.9,0.4,12.3,0.3c9.5-0.2,12.2,0,14.9,1.2c2.7,1.2,5.1,5.4,4.8,8.8
	c-0.1,1.4-0.4,2-2.3,5.2c-1.8,3.1-3.6,5.6-5.9,8.5c-0.3,0.4-0.5,0.9-0.4,1.1c0.4,1.1,9.7,5.6,15.9,7.8c4.7,1.7,6.3,2.3,11.7,4.7
	c7.6,3.3,12.2,4.5,22.2,5.8c13.2,1.7,20.6,3.2,26.6,5.4c7.2,2.7,14.9,7.6,15.9,10.3c0.7,2,0,5.1-2.1,9.2c-1.7,3.2-4.7,6.3-8.5,8.7
	c-4,2.5-8.6,3.8-16.6,4.8C347.6,232,337.8,232.2,334.2,231.6L334.2,231.6z M531.8,196.5c-4.1-0.7-9.4-2.8-13-5.1
	c-6.6-4.3-19.1-15.1-29.4-25.6c-5.8-5.8-7.2-7.2-9.3-8.4c-3.5-2.2-9.4-7-16-13.1c-3.1-2.9-6.7-6-8-6.9c-1.3-0.9-3.6-2.7-5.2-4
	c-3.9-3.1-9.8-7.2-18.7-13.3c-4.1-2.8-7.7-5.2-7.9-5.4c-1.7-1.4,9.4,5.7,16.5,10.6c2.3,1.5,4.2,2.8,4.4,2.8s1.5,1,3,2.2
	s3.2,2.4,3.7,2.6c1.1,0.5,3.9,2.9,8,6.8c10,9.7,15.1,13.9,14.4,12.1c-0.1-0.3,0-0.3,0.6-0.1c0.4,0.1,1.1,0.3,1.5,0.4
	c0.4,0.1,3,2.4,6.7,6c3.3,3.2,7.3,7,8.8,8.4c7.4,6.9,23.1,19.4,28.4,22.6c9.5,5.6,21.3,6.4,30.5,2c4.6-2.2,6.4-5.3,6.1-10.4
	c-0.2-2.8-0.7-4.5-2-6.4c-0.9-1.3-1.3-1.6-3.8-2.8c-1.5-0.7-4.7-2.1-7-3.1c-4.2-1.7-4.2-1.8-9.2-5.7c-2.8-2.2-7.5-5.9-10.6-8.2
	c-8.4-6.3-10.9-8.5-13.9-11.9c-1.5-1.7-3.8-4.2-5-5.5c-3.5-3.9-5.2-6.3-7.6-11.1c-2-3.9-3.5-7.4-3.3-7.6c0,0,1,1.9,2.2,4.2
	c2.3,4.6,5.9,9.6,11.7,16.5c3.7,4.4,6.1,6.6,10.7,10c2,1.5,5.9,4.4,8.6,6.4c2.7,2,6.1,4.6,7.7,5.9c4.8,3.8,5.3,4.2,12,6.9
	c3.5,1.4,6.8,2.9,7.3,3.3c1.2,0.9,3,3.6,3.4,5c1.1,3.8,0.9,7.8-0.5,10.7c-2,4.2-7.5,7.5-15.1,8.9
	C540.4,196.6,533.7,196.8,531.8,196.5L531.8,196.5z M477.9,154.7c-0.1-0.1-0.4-0.3-0.6-0.3c-0.3,0-0.4,0.1-0.1,0.4
	C477.6,155.3,478.2,155.1,477.9,154.7L477.9,154.7z M46.1,179c0.3-0.2,5.8-2.6,6.1-2.6c0.4,0,4.1-1.7,8-3.6
	c5.8-2.9,11.9-5.2,32-12.2c21.9-7.7,23-8,33.2-10.7c4-1.1,8.5-2.3,10-2.7c1.5-0.4,3.2-0.9,3.8-1c1-0.1,0.8,0-0.8,0.5
	c-1.1,0.4-2.8,0.9-3.9,1.2c-2.6,0.7-12.3,4.3-39.3,14.3c-21.2,7.9-26.4,9.7-36.6,12.7c-2.4,0.7-4.8,1.5-5.2,1.7
	C52.6,177,46.4,179.1,46.1,179C46,179.1,46,179.1,46.1,179L46.1,179z M583.4,176.7c-10.2-1.3-18.4-5-27.8-12.6
	c-1.8-1.5-5.7-4.6-8.7-7c-5.7-4.6-13.7-12-17.6-16.2c-1.3-1.4-5-5.4-8.2-9c-6.2-6.8-8.3-9-15-15.5c-2.3-2.2-4-3.9-3.7-3.8
	c1.1,0.6,8.4,7.5,19.5,18.5c12.7,12.6,18.2,17.5,26.5,23.1c1.3,0.9,4.7,3.4,7.5,5.6c10.6,8.1,16.8,11.4,25.5,13.5
	c9.1,2.2,16.2,2.2,22.3,0.1c4.5-1.5,8.1-5.1,8.7-8.8c0.2-1.5-0.5-4.3-1.7-6c-1.8-2.7-8.4-7.4-18.5-13.1
	c-5.4-3.1-16.7-10.6-22.3-14.8c-2.4-1.8-6.7-5.1-9.7-7.4c-4.9-3.7-9-7.1-15.8-13c-2.2-1.9-11.7-11.8-13.1-13.6
	c-0.9-1.1,2.3,1.8,8,7.6c5.9,5.9,13,11.9,20.8,17.5c3.2,2.3,7.7,5.6,9.9,7.2c6.4,4.7,15,10.6,22.1,15.1c7,4.5,8.7,5.6,12.8,8.7
	c6,4.5,7.7,6.8,7.9,10.9c0.1,2,0,2.3-0.8,4c-1,2-3.7,4.9-4.8,5.2c-0.4,0.1-1.4,0.5-2.2,0.9c-1.8,0.9-5.1,2-8,2.6
	C594.8,176.7,585.7,177,583.4,176.7L583.4,176.7z M358.4,170c-1-0.3-2.7-1.2-3.7-1.9c-2-1.4-5.4-4.7-6.6-6.4
	c-2.9-4.2-2.8-11.3,0.2-17.3c0.5-0.9,2.2-4.1,3.9-7.2c3.3-5.9,4.9-9.4,6.7-14.7c1.8-5.3,3.2-13.1,2.5-13.6c-0.2-0.1-0.2-0.4,0-1
	c0.4-1.1,0-3.8-1.4-10.5c-1.8-8.4-2.3-12.5-2.1-17.3c0.2-4,0.8-7.7,1.6-8.9c0.3-0.4,0.3-0.4,0.2,0c-0.6,2.1-1,5.2-1.1,8.4
	c-0.1,7.2,0.3,9.7,2.5,19.6c1.5,6.3,1.6,9.1,0.9,13.8c-0.6,3.7-1.5,7.2-3,11.5c-1.7,4.6-3,7.4-6.5,13.5c-4.9,8.6-5.6,10.4-5.9,14.6
	c-0.3,4.6,0.9,7.4,4.6,11.1c4.1,4.2,7.6,6,10.7,5.7c4.8-0.4,14.7-7.5,20.5-14.6c2.7-3.3,6.3-8.4,7.4-10.6c1.7-3.4,4-10.3,5.8-17.4
	c1.3-5.2,3.2-14.5,3.4-16.5c0.1-0.9,0.3-2.3,0.6-3l0.4-1.4l0,1.6c0,0.9-0.2,2.5-0.4,3.6c-0.2,1.1-0.7,3.5-1,5.4
	c-1.5,8.6-5.4,22.1-7.8,27c-0.7,1.4-2.7,4.5-4.5,7c-6.2,8.6-11,13-18.5,17.3C363.9,170.5,361.4,171,358.4,170L358.4,170z
	 M608.7,136.6c-4-0.5-12-3.3-18-6.4c-6.8-3.4-17.9-9.9-26.7-15.6c-2.5-1.6-5.7-3.6-7.1-4.5c-3.1-1.9-6.9-4.5-10.4-7.1
	c-3.7-2.7-9.1-6.6-11.7-8.3c-2.9-1.9-3.2-2.2-0.8-1c1.1,0.6,3.8,2.4,6.2,4.1c6.6,4.7,13.2,9,17.4,11.3c2.1,1.2,6.3,3.6,9.3,5.3
	c6.7,3.9,21.9,12.4,25,13.9c3.6,1.8,10.2,4.6,13.1,5.5c4.9,1.6,11.7,2.3,15.3,1.6c2.6-0.5,5.6-2.2,7.9-4.5c1.2-1.2,1.6-1.4,1.2-0.9
	c-0.7,1.1-3.8,4-4.8,4.5c-2.2,1-4.6,1.8-6.1,2C616.5,136.9,611.3,136.9,608.7,136.6L608.7,136.6z M336.3,132.9
	c0-0.4,10-10,15.2-14.7c3.2-2.8,6.4-5.7,7.2-6.6l1.5-1.5l-0.5,1.1c-1,2-11.5,12.2-16.6,16.2c-1.4,1-2.6,2-2.7,2.2
	C340.1,130.1,336.3,133.1,336.3,132.9z M631.1,122.4c-0.2-2.1-0.7-3.4-2.5-5.6c-3-3.7-5.5-5-24.6-12.9c-12.3-5.1-19.3-8.5-29.7-14.5
	c-6.1-3.5-8.6-5.2-12-8.1c-2-1.7-5.5-5.6-5.3-5.8c0.1-0.1,0.7,0.4,1.4,1.1c3,2.9,9.2,7.4,13.4,9.8c7.6,4.2,14.3,7.6,24.1,12.1
	c13.4,6.1,24.6,11.5,28,13.8c1.2,0.8,3,2.3,4,3.3c2.3,2.4,3.2,4.4,3.4,6.9c0.1,1.1,0.1,1.9,0,1.9
	C631.3,124.3,631.1,123.4,631.1,122.4L631.1,122.4z M423.1,114c-0.5-0.4-0.5-0.4,0.1-0.1c0.3,0.2,0.6,0.4,0.6,0.4
	C423.8,114.5,423.6,114.4,423.1,114z M484.9,110.1c0-0.4,4-4.2,5.5-5.2c1.6-1.1,5.2-2.7,10.5-4.8c7.2-2.7,10.6-4.8,16-10
	c5.3-5,13-10.8,16.6-12.7c2.3-1.1,13.2-4.5,12.6-3.9c-0.4,0.4-3.7,1.6-4.3,1.6c-0.8,0-6.7,2-8.4,2.9c-3.5,1.8-12,8.3-16.8,12.8
	c-5.4,5.1-8.7,7.1-16.8,10.2c-2.6,1-5.2,2.1-5.8,2.4c-1.9,1.1-5.1,3.4-6.6,4.8C485.1,110.3,484.9,110.4,484.9,110.1L484.9,110.1z
	 M627.3,84.6c0.9-3.3-0.9-5.1-6.8-6.7c-6.7-1.9-9.6-2.2-21.7-2.5c-15.2-0.3-16.2-0.5-25.1-5c-3.2-1.6-5.2-2.8-7.6-4.7
	c-8.6-6.6-11.6-7.9-20.3-9.5c-8.3-1.5-13.8-2.9-18.6-4.7c-2.1-0.8-6.1-2.3-8.9-3.4c-2.9-1.1-5.2-2.1-5.3-2.3
	c-0.1-0.2,0.5-0.1,1.8,0.4c16,6.1,18.7,6.9,30,9.2c3.8,0.8,7.6,1.6,8.6,1.9c2.8,0.9,6.4,2.9,9.8,5.4c5.3,3.9,7,5,11.1,6.9
	c8.3,4,10.5,4.5,22.7,4.9c14,0.5,17.8,0.9,24.2,2.9c3.5,1.1,5.8,2.4,6.4,3.7c0.5,1,0.4,3.6-0.1,4.1
	C627.1,85.6,627.1,85.4,627.3,84.6L627.3,84.6z M320.2,55.1c1.7-0.9,11.6-5.4,13.4-6.1c0.9-0.3,3.9-1.6,6.7-2.9
	c16.7-7.4,65.4-25.2,67.3-24.6c0.2,0.1-0.4,0.3-1.3,0.6C394.6,25.4,369,35,337.6,47.8c-1.1,0.5-2.4,1-2.7,1.3
	c-1,0.6-15.2,6.6-15.6,6.6C319.2,55.7,319.6,55.4,320.2,55.1L320.2,55.1z M475.3,32.9c-2.8-1-8.1-3.1-11.9-4.5
	c-8.1-3.1-12.1-4.5-16.3-5.5c-1.7-0.4-3.1-0.9-3.1-1c0-0.4,0.8-0.3,4.2,0.6c4.2,1.1,7.4,2.2,14.7,5c3.2,1.2,8.7,3.3,12,4.5
	c5.5,2,7.3,2.9,5.9,2.9C480.6,34.8,478.1,34,475.3,32.9L475.3,32.9z"/>
</svg>
