<?xml version="1.0" encoding="utf-8"?>
<!-- Generator: Adobe Illustrator 25.2.1, SVG Export Plug-In . SVG Version: 6.00 Build 0)  -->
<!DOCTYPE svg PUBLIC "-//W3C//DTD SVG 1.1//EN" "http://www.w3.org/Graphics/SVG/1.1/DTD/svg11.dtd" [
	<!ENTITY ns_extend "http://ns.adobe.com/Extensibility/1.0/">
	<!ENTITY ns_ai "http://ns.adobe.com/AdobeIllustrator/10.0/">
	<!ENTITY ns_graphs "http://ns.adobe.com/Graphs/1.0/">
	<!ENTITY ns_vars "http://ns.adobe.com/Variables/1.0/">
	<!ENTITY ns_imrep "http://ns.adobe.com/ImageReplacement/1.0/">
	<!ENTITY ns_sfw "http://ns.adobe.com/SaveForWeb/1.0/">
	<!ENTITY ns_custom "http://ns.adobe.com/GenericCustomNamespace/1.0/">
	<!ENTITY ns_adobe_xpath "http://ns.adobe.com/XPath/1.0/">
]>
<svg version="1.1"
	 id="svg2587" xmlns:x="&ns_extend;" xmlns:i="&ns_ai;" xmlns:graph="&ns_graphs;" inkscape:version="0.92.4 (5da689c313, 2019-01-14)" sodipodi:docname="character.svg" xmlns:cc="http://creativecommons.org/ns#" xmlns:dc="http://purl.org/dc/elements/1.1/" xmlns:inkscape="http://www.inkscape.org/namespaces/inkscape" xmlns:rdf="http://www.w3.org/1999/02/22-rdf-syntax-ns#" xmlns:sodipodi="http://sodipodi.sourceforge.net/DTD/sodipodi-0.dtd" xmlns:svg="http://www.w3.org/2000/svg"
	 xmlns="http://www.w3.org/2000/svg" xmlns:xlink="http://www.w3.org/1999/xlink" x="0px" y="0px" width="570.2px" height="679.6px"
	 viewBox="0 0 570.2 679.6" style="enable-background:new 0 0 570.2 679.6;" xml:space="preserve">
<style type="text/css">
	.st0{fill:#B0B0B0;}
	.st1{fill:#8F8F8F;}
	.st2{fill:#717272;}
	.st3{fill:#4F4F4F;}
	.st4{fill:#2E2E2E;}
	.st5{fill:#030303;}
</style>
<metadata  id="metadata2593">
	<rdf:RDF>
		<cc:Work  rdf:about="">
			<dc:format>image/svg+xml</dc:format>
			<dc:type  rdf:resource="http://purl.org/dc/dcmitype/StillImage"></dc:type>
			<dc:title></dc:title>
		</cc:Work>
	</rdf:RDF>
	<sfw  xmlns="&ns_sfw;">
		<slices></slices>
		<sliceSourceBounds  bottomLeftOrigin="true" height="679.6" width="570.2" x="0" y="0"></sliceSourceBounds>
	</sfw>
</metadata>
<sodipodi:namedview  bordercolor="#666666" borderopacity="1" gridtolerance="10" guidetolerance="10" id="namedview2589" inkscape:current-layer="svg2587" inkscape:cx="-775.28445" inkscape:cy="319.09147" inkscape:pageopacity="0" inkscape:pageshadow="2" inkscape:window-height="1699" inkscape:window-maximized="1" inkscape:window-width="2736" inkscape:window-x="-13" inkscape:window-y="-13" inkscape:zoom="0.28921569" objecttolerance="10" pagecolor="#ffffff" showgrid="false">
	</sodipodi:namedview>
<path id="path3179" inkscape:connector-curvature="0" class="st0" d="M100.7,679.2c-0.5-1.3,3.1-31,4.8-39.4l0.2-0.8l-3.5,0.2
	c-7.8,0.4-18.4-1.2-24.4-3.7c-3.1-1.3-7.9-4.7-10.7-7.5c-2.2-2.2-9.8-11-13.8-16.1c-0.8-1-2.6-2.7-4-3.7c-8.8-6.7-15.9-17.1-20-29.4
	c-4.9-14.6-6.6-27.8-6.4-50.1l0.1-10l-0.9-0.5c-0.5-0.3-2.1-1.7-3.6-3c-1.5-1.4-4.3-3.6-6.2-4.9c-4.3-2.9-6.1-4.5-7.9-6.6
	c-3.2-3.9-4.5-7.3-4.2-10.6c0.2-2.2,0.8-3.7,2.4-5.9c0.7-0.9,1.9-3.3,2.8-5.3c1.6-3.7,4.3-8.4,8.1-14.3l2.1-3.2l0.1-7.9
	c0.2-8.4,0.3-9.5,2.4-21.5c2.3-12.8,5.1-22.2,12.1-40.1c0.9-2.2,1.5-3.4,2.4-4.4c3.2-3.6,4.5-5.7,7.2-10.9
	c6.9-13.5,20-27.4,35.3-37.7l2.1-1.4l0.2-1.9c0.3-4.1,2.5-8.1,6.6-12.3c3.4-3.5,8.2-6.7,15.1-10.1c7.1-3.6,8.2-4.8,7-7.8
	c-0.6-1.4-0.6-1.6-0.2-2.2c0.6-1.1,1.6-1.1,2.8,0c2.1,1.9,2.8,4.6,2.9,11.1c0,1.6,0.2,2.5,0.6,3.4c0.7,1.5,1.8,2.7,2.5,2.7
	c0.3,0,2.3-0.5,4.5-1.1c4.7-1.3,14.3-3.2,20.1-4.1c4.5-0.7,4.8-0.8,4.5-2.6c-0.3-1.8-1-3.2-2.9-5.3c-2-2.3-5.1-4.7-8.5-6.5
	c-7.5-4-9.4-5.7-11.5-10c-1.7-3.5-2.2-5.1-2.2-6.7c0-1,0.2-1.4,0.8-2c0.9-0.9,1.7-1,2.2-0.4c0.2,0.2,0.8,1.3,1.3,2.4
	c0.8,1.7,1.3,2.2,2.9,3.4c2.2,1.6,3.5,2.1,6.5,2.5c3.8,0.5,8.1-0.4,10.9-2.2c3-1.9,6.4-6.3,8.1-10.2c0.8-2,1.8-8.2,2.4-15.9
	c0.5-5.7,1.4-11.5,2.5-14.9c1-3.3,3.4-7.8,5.5-10.4c3.9-4.9,9.5-8.7,15.1-10.3c1.9-0.5,2.8-0.6,6.6-0.6c3.9,0,4.7,0.1,7.1,0.8
	c1.5,0.4,2.7,0.7,2.8,0.7c0.1,0,0.1-0.3,0.1-0.6c0-0.4,0.4-1.2,0.9-1.9l0.9-1.3l-1.5-3.2c-7-14.9-11.6-34.2-13.5-56.7
	c-1.3-15.6-1.2-35.4,0.3-52c4.6-52,22.9-86.2,54.8-102.5c11.2-5.7,22.5-8.9,37.2-10.7c5-0.6,21.1-0.8,26.8-0.4
	C320.9,1.8,339,8.2,353.2,19c16,12.2,27.5,30.3,34.3,53.7c2.9,9.8,4.9,20.7,6.3,32.5c2.2,19.8,2.2,45.3,0,64.9
	c-3.3,29.7-12.2,54.2-25.7,71.3c-1,1.3-1.9,2.4-1.9,2.6c0,0.1,2.2,0.2,5,0.2c5.3,0,9.5,0.3,13.5,1c1.4,0.2,4.4,0.7,6.7,1.1
	c7,1.1,15.5,3.5,22.3,6.2c7.7,3.1,18.5,9.4,25.4,15c5.4,4.4,13.2,12.4,17.4,17.9c9,11.9,15.9,26.4,19,40c0.4,1.7,0.8,3.1,0.9,3.3
	s1.6,0.8,3.2,1.5l3,1.3l4.7-0.2c6.3-0.2,10.8-1.4,12.3-3.2c0.7-0.8,2.1-1.4,2.1-0.8c0,0.2-0.4,0.9-0.8,1.6c-1.3,2-5,9.1-5,9.5
	c0,0.2,0.5,0.6,1,1c0.6,0.3,2.6,1.7,4.6,3.1c15.1,10.5,27.7,24.2,34.2,37c1.2,2.5,2.7,6.2,3.7,9.8c0.5,1.7,1.2,3.6,1.6,4.1
	c0.8,1.3,2.7,6.4,4.7,12.9c3.1,10.3,3.6,12.9,5.3,28.1c1.2,11,1.2,10.8,1.7,14.2c0.4,2.6,0.7,3.1,5.3,9.6c1.9,2.7,2.7,4.2,5.3,9.9
	c1.7,3.7,3.3,7.4,3.6,8.2c0.3,0.8,1,2.3,1.6,3.2c1.8,3,2,4.6,1.1,7.3c-1.4,4-5.5,8.2-11,11.5c-1.9,1.1-3.5,2.1-3.5,2.2
	c0,0.1,0.4,2.1,0.8,4.6c3.6,19.5,5.7,41,6.3,63.3c0.4,14.5-0.5,47.3-1.9,70c-0.3,4.7-0.7,10.7-0.8,13.3c-0.4,6.4-1.6,20.5-2,23
	c-0.2,1.1-0.4,2-0.5,2c-0.1,0-0.1-4.3,0-9.8c0.3-14.2,0.2-66.5-0.2-82.2c-0.9-39.8-4-73.8-8.9-97.6c-0.6-3-0.6-3-1.3-2.9
	c-1.4,0.1-7.5,1.9-11.8,3.5c-10.2,3.6-28.9,12.9-41.1,20.4c-7.8,4.8-21,13.9-28.2,19.4c-1.4,1.1-3.5,2.6-4.6,3.4
	c-1.1,0.8-2.1,1.5-2.2,1.5s-0.8,2.7-1.6,5.9c-1.3,4.9-1.8,6.3-3.5,10c-1.1,2.3-2.3,4.9-2.6,5.6l-0.6,1.4l1.3,5.3
	c0.7,2.9,1.6,6.6,1.8,8.1c1.1,6.5,3.2,15.8,8,35.1c6.6,26.7,7.4,30.5,9.6,44.8c1.4,8.8,3.2,25.5,3.3,29.9l0,1.2l-1.8,0.1
	c-2.1,0.1-2.3-0.1-2.7-2.1c-0.4-1.9-3.4-22.2-4.1-27.5c-0.9-6.5-2.7-17.8-3.6-22.4c-0.4-2.3-1.4-7.4-2.2-11.5
	c-0.7-4.1-2.4-12.7-3.6-19.2c-1.2-6.5-2.7-14.8-3.3-18.5c-1.5-9.1-3.3-20.1-3.4-20.8c-0.1-0.4-0.3-0.6-0.6-0.5
	c-0.6,0.2-0.5-0.6,0.3-4.5c0.4-1.9,0.9-4.8,1.1-6.5c0.5-3.6,2.5-10.5,7.6-25.9c4.5-13.8,5.8-18.2,8.1-29.8c0.5-2.6,1-4.8,1.1-4.9
	c0.1-0.1,0.2,0,0.3,0.1c0.4,0.4-1.2,14.2-1.8,16.2c-0.1,0.4-0.6,2.7-1.1,4.9s-1.8,8-2.9,12.6c-1.1,4.7-2,8.5-1.9,8.6
	c0.1,0.1,1.3-1,2.7-2.3c7.1-7,22.3-18.6,34.5-26.2c9.5-5.9,26.9-15.1,34.3-18.1c10.9-4.3,18.3-6.1,25.8-6.1l4,0l-0.4-0.9
	c-0.2-0.5-1.5-2.8-2.9-5.2c-1.6-2.8-2.8-5.5-3.5-7.5c-0.6-1.7-1.2-3.3-1.3-3.4s-0.5-1.1-0.7-2.1c-0.5-1.9-1.5-4.6-4.1-10.8
	c-0.8-2.1-1.5-3.8-1.5-3.9c0-0.6,0.7,0.2,1.9,2.1c0.8,1.2,1.5,2.2,1.5,2.1c0.2-0.2-2.4-15.5-3.6-21.5c-1.3-6.5-4.2-15.5-7.7-24.1
	c-0.7-1.7-1.5-3.8-1.7-4.7c-0.9-3.2-3.6-9.9-5-12.9c-3.3-6.8-7.4-13.1-11.9-18.4c-3.9-4.6-10.5-11-15.1-14.7
	c-3.6-2.9-10.7-7.9-11.2-7.9c-0.1,0-1.6,1.8-3.2,4c-2.3,3.1-4.2,5.3-8.3,9.4c-8.6,8.6-12.4,11.8-21.9,18.3
	c-6.9,4.7-8.2,5.7-10.3,7.3c-3.2,2.5-8.3,4.9-10.5,4.8c-1.4,0-1.4-0.3,0.1-4.3c1.2-3.2,1.5-4.4,2-7.9c0.9-6.7,1.2-11.1,1.2-19.8
	c0-8.9-0.1-10.1-1.8-18c-0.9-4.1-2.8-11.3-3.4-13.1c-0.4-1.1-0.5-1.1-2.1-1.4c-7.1-1.2-15.4-1.8-21.6-1.6
	c-6.1,0.2-10.9,0.7-11.4,1.2c-0.4,0.4-0.5,1.4-0.1,1.4c0.5,0,3.3,3.8,4.2,5.7c1.2,2.5,2.2,5.4,2.2,7c0,1.1,0.2,1.5,1.2,2.5
	c1.7,1.8,1.8,2.1,1.3,3.9c-0.7,2.8-1.9,4.6-4.7,7.1c-3.6,3.3-4.3,3.6-7.8,3.4c-1.5-0.1-4.9-0.6-7.4-1.2c-7.1-1.5-8.4-1.7-9.9-1.3
	c-2.2,0.6-5.8,2.4-6.5,3.4c-0.4,0.5-2,2.2-3.7,3.9c-3.4,3.4-4.7,5.5-5.8,9.1c-0.6,2-0.7,2.8-0.8,8.8c-0.1,3.6,0,9,0.1,11.9l0.2,5.3
	l2.7,0.1c4.2,0.1,6.4-0.7,7.5-2.8c0.2-0.4,0.8-2.1,1.3-3.7c1.6-4.9,4.1-8,8.3-10.2c2.8-1.4,4.8-2,7.6-2c2.2,0,2.3,0,3.6,1.1
	c2.1,1.7,2.4,2.7,2.4,10.6c0,9.3-0.3,14.6-0.8,16.2c-0.6,1.8-1.5,3.4-1.8,3.4c-0.1,0-1.8,1.3-3.8,2.8s-4,3.2-4.6,3.6
	c-0.6,0.4-2.5,1.9-4.1,3.2c-1.7,1.3-3.3,2.5-3.7,2.7c-0.4,0.2-2.6,1.6-4.9,3c-2.3,1.4-5.9,3.4-8,4.3c-7.8,3.7-13.6,6.9-15.7,8.5
	c-3.6,2.8-6.9,4.7-9.7,5.7c-1.5,0.5-5.8,1.1-9.5,1.4c-2.7,0.2-10.4-0.5-13-1.1c-3.3-0.8-2.9-1-4.9,1.7c-2.5,3.4-7.7,9.7-8.7,10.5
	c-1.3,1.2-7.8,8.8-12.9,15.2c-7.5,9.4-12.3,15.7-19.3,25.6c-7.1,10-17,23.3-26.7,35.8c-21.2,27.3-33.5,42.8-39.4,49.5
	c-1.8,2-4.9,5.7-7,8.1c-4.9,5.8-15.4,16.7-19.8,20.5c-4.5,3.9-7.2,5.9-17.9,13.4c-1.2,0.9-3.5,2.2-5.1,3s-4.9,2.7-7.4,4.2
	c-5.4,3.3-7.7,4.4-13.9,6.7c-7.6,2.8-12.7,4.1-21.3,5.3c-1.9,0.3-3.6,0.6-3.6,0.6c-0.1,0.1-0.7,4.4-1.5,9.7
	c-1.9,13.2-4.1,28-4.4,29.5c-0.4,1.7-0.6,1.9-2.5,1.9C101.2,679.6,100.8,679.5,100.7,679.2L100.7,679.2z M106.6,635.6
	c8.9-1,17.8-2.8,24-4.9c7.1-2.4,16.2-6.7,19.4-9.1c1.1-0.8,3.2-2.2,4.7-3.1c3.3-1.9,3.9-2.3,9-6.1c2.2-1.6,5.2-3.9,6.8-5
	c7.2-5.3,17.9-15.6,26.1-25.2c2.3-2.7,5.6-6.4,7.3-8.4c5.1-5.8,14.8-17.7,31.2-38.5c15-19,20.2-25.9,29.1-38.1
	c12-16.4,13.9-18.9,21.4-27.7c6.2-7.3,10.1-11.8,14.4-16.3c2-2.1,5.2-5.6,7.2-7.8c2-2.2,4.5-4.8,5.5-5.9c1.1-1.1,1.9-2,1.9-2.2
	c0-0.2-0.6-0.6-1.2-0.9c-1.5-0.8-3.3-2.7-2.9-3.1c0.2-0.2,0.9,0,2,0.6c3.2,1.5,6.8,2.2,12.6,2.4c7.6,0.3,13.8-0.7,17.2-2.5
	c6.9-3.8,10.2-7.3,13.8-15.1c1.2-2.5,2.7-7.9,3.3-11.9c0.4-2.4,0.4-8.4,0.2-28.1c-0.1-8.3-0.1-8.9,0.5-11.2
	c1.9-7.6,5.3-11.9,13.2-16.9c8.2-5.2,9.1-5.3,19.4-2.9c6.2,1.5,8.1,1.2,12-1.9c1.6-1.3,3.1-3.7,2.9-4.9c-0.1-0.4-0.9-1.1-3.1-2.3
	c-3.6-2.1-6.3-3.1-10.2-4.1c-2.7-0.7-3.4-0.7-8.1-0.7c-5.1,0-5.2,0-7.7,0.9c-4.4,1.5-9,4.1-12.3,6.9c-2.5,2.1-7,5.6-7,5.4
	c0-0.9,7.9-9.1,11-11.5c2.2-1.7,5.3-3.2,8.5-4.3c7-2.3,17.5-1.4,24.9,2.3c1.6,0.8,2.9,1.3,3,1.2c0.3-0.3-0.7-4.3-1.4-5.8
	c-0.9-1.8-4.2-5.4-6-6.4c-1.3-0.7-1.6-0.8-3.9-0.8c-3.9,0-13.3,0.5-17.4,1c-4.8,0.5-6.5,1-9.3,2.4c-2.8,1.5-11,7.4-13.8,9.9
	c-3,2.7-9.3,8.1-9.7,8.4c-0.8,0.4-0.4-0.3,0.9-1.8c7.4-8.4,13.6-14.7,16.8-17.1c2.7-2,6.5-4.2,8.9-4.9c2-0.6,8.3-1.5,14.1-1.9
	c2.8-0.2,5-0.4,5-0.5c0-0.4-3.3-1.9-5-2.3c-3.4-0.9-11.8,0.4-21.3,3.3c-3.5,1.1-5.7,2.2-10.2,5.7c-4.3,3.2-6.2,5-13.3,12
	c-3.3,3.3-6,5.8-6,5.6c0-0.7,9-12.1,11.7-15c4.1-4.2,11.1-9.1,15-10.6c1.4-0.5,0.6-0.6-2.1-0.2c-6.9,1-13,3.8-24.7,11.3
	c-1.7,1.1-8.9,8.3-11,10.9c-1.1,1.4-2.7,3.5-3.7,4.6c-1,1.2-2.1,2.9-2.5,3.8c-0.4,0.9-1.9,3.2-3.4,5.1c-3,4.1-5,7.2-7.9,12.4
	c-4.4,7.9-6.4,12.3-10.6,23.5c-3.5,9.3-6.2,15.2-7.4,16.6c-0.6,0.7-1.9,2.2-2.9,3.3c-2.3,2.7-5.9,6-8.5,7.9c-1.1,0.8-4.3,3.2-7,5.2
	c-6.3,4.7-11.1,7.9-18.3,12.1c-8.3,4.9-11.9,6.6-21.4,10.7c-7.6,3.3-11.4,4.8-25.9,10.5c-9.1,3.6-17.2,7.2-31.8,14.2
	c-9.6,4.6-11.4,5.5-21,11c-8.9,5.1-10.8,6.2-17.8,11.1c-8.8,6.1-12.9,9.4-20.1,16.5c-9.4,9.1-16.3,18.2-20.9,27.6
	c-2.9,5.9-3.8,8.3-5.3,14.9c-1.4,5.9-1.5,6.3-2.6,7.9c-1.2,1.7-2,3.4-2.8,5.8c-0.4,1.2-0.9,2.2-1,2.3c-0.2,0.1-0.4-0.3-0.5-0.9
	c-0.1-0.6-0.6-2.6-1-4.5c-0.5-1.9-0.8-4.1-0.8-4.9c0-1.8,1.4-7.4,2.7-11c1.7-4.5,6.6-13.6,10.1-18.6c0.7-1,1.2-1.9,1.2-2
	c0-0.3-29.7-15.4-35.6-18.1c-2.7-1.2-7.4-3.2-10.4-4.4c-6.3-2.5-18.9-6.8-19.2-6.5c-0.3,0.3-1.1,7.6-1.5,12.9c-0.3,3.6-0.3,5,0,6.2
	c0.3,1.4,0.3,1.9-0.1,3.3c-0.4,1.5-0.4,2.8-0.3,11.4c0.3,17.2,1.7,29.3,4.9,40.7c3.8,13.7,8.8,23.7,16.3,32.1
	c2.3,2.6,7.4,7.2,9.7,8.8c2.4,1.6,7.1,4.1,10.1,5.4c5.7,2.3,6,2.8,1,1.5c-3.8-1-8.1-2.4-10.8-3.5c-1-0.4-1.9-0.7-2-0.6
	c-0.2,0.2,6.3,7.2,11.1,12c7,7,12.5,9.8,22,11.4c3.7,0.6,3.9,0.6,9.7,0.7C100.8,636,104.5,635.9,106.6,635.6L106.6,635.6z
	 M97.4,517.2c2.7-3.4,5.7-6.8,9.3-10.7l3-3.2l-0.5-2.7c-0.6-3-1.7-11.8-1.7-13.9c0-2.3,0.5-1.1,1.4,3.3c1.1,5.8,2.5,11.3,2.8,11.3
	c0.1,0,1.2-0.8,2.3-1.9c6.9-6.2,10.4-8.9,19.7-15.1c10.5-7,23.3-13.9,40.2-21.5c16.2-7.4,23.8-10.5,34.7-14.5
	c12.7-4.6,28.4-11,33.8-13.7c9.4-4.8,18.4-10.2,26.3-16c8.5-6.1,11.3-8.5,15.2-12.3c3.8-3.8,5.6-6.2,6.2-8.5c0.2-0.8,1.1-3.6,2-6.2
	c0.9-2.6,1.6-4.8,1.6-5c0-0.4-10.9-0.4-15.6,0c-3.6,0.3-8.7,1.4-10.4,2.3c-0.5,0.3-2.4,1.4-4.2,2.5c-3.8,2.4-5.8,3.4-6.5,3.4
	c-1.4,0-5.2-10.2-6.5-17.7c-0.6-3.5-0.7-3.6-2.1-4c-2.4-0.6-10.3-3.4-13.1-4.5c-8.4-3.4-17.7-9-24.9-14.9
	c-3.8-3.1-8.6-7.9-10.5-10.5c-7.1-9.7-11.4-16.5-12.5-19.7c-0.2-0.6-0.5-0.9-0.8-0.9c-0.3,0-2.9,0.6-5.8,1.4c-4,1-5.8,1.4-7.3,1.4
	c-1.9,0-2.7-0.3-2-0.7c0.2-0.1,2-0.9,4.1-1.7c2-0.8,3.7-1.6,3.7-1.8c0-0.3-2-0.5-9.7-1.4c-11.1-1.2-20.8-0.7-34.6,1.7
	c-17.4,3-33.2,8.3-46.8,15.5c-14.4,7.7-27.3,18.4-36,30.1c-4.6,6.1-12.6,18.2-16.1,24.2c-2.3,4-2.8,5.1-5.4,12
	c-5.2,14-7.2,21.1-10,36.3c-1.7,9.1-2.1,12.5-2.5,20.9l-0.3,6.6l-0.9,1.9c-0.5,1.1-2.2,4.4-3.8,7.4s-2.9,5.5-2.8,5.6
	c0.1,0.1,1,0,2.1-0.2c3.8-0.6,9.5-0.1,15,1.1c3,0.7,13.8,4.3,18.5,6.2c8.7,3.5,17.5,7.9,24.6,12.5c7.7,4.9,20.1,13.8,22.5,16
	c1.1,1.1,2.2,2,2.3,2C95.3,519.7,96.3,518.6,97.4,517.2L97.4,517.2z M23.7,508.4c0.1-0.3,0.3-2.1,0.4-3.9c0.2-1.8,0.6-5.1,0.9-7.3
	c0.6-3.5,0.6-4,0.2-4.3c-1.1-0.9-10-2.4-13-2.2c-5.4,0.4-6.4,2-3.8,6.3c1.7,2.8,3.2,4.1,8.4,7.6c2.5,1.7,4.9,3.3,5.3,3.7
	C23.3,509.2,23.5,509.2,23.7,508.4z M556.3,496.2c4.2-4.5,6.8-7.9,7.3-9.6c0.3-0.8,0.2-1-0.3-1.6c-1.3-1.4-3.1-1.9-7.4-2
	c-2.2-0.1-4.1,0-4.3,0.1c-0.3,0.2-0.3,0.7,0.2,2.4c0.3,1.2,1,4.1,1.5,6.6c0.5,2.4,1,4.7,1.1,5C554.6,497.9,554.8,497.8,556.3,496.2
	L556.3,496.2z M359.6,424.6c4.4-2.1,23.1-14,28.1-17.9c1.4-1.1,3.6-2.8,4.9-3.8s2.5-2,2.6-2.2c0.4-0.6,1.1-10.7,1.1-15.9
	c0-5.6-0.3-8.2-1.3-8.6c-0.7-0.3-4.7-0.2-6.2,0.1c-2.3,0.5-4.2,1.5-5.8,3c-1.9,1.8-2.5,3-3,6.4c-0.6,4.1-0.8,4.6-2,5.7
	c-0.8,0.7-1.7,1.2-3.9,1.8c-1.6,0.5-3.6,1.1-4.5,1.4s-2.3,0.7-3.2,0.7l-1.5,0.1l-0.2,4.4c-0.4,9.5-2.4,17.2-5.8,22.7
	c-1.2,1.9-1.5,2.6-1.2,2.6C357.8,425.4,358.6,425,359.6,424.6z M300.2,370.8c3.2-6.1,6.7-12.1,9.2-15.8c1.3-1.9,4-5.9,6.1-9
	c2-3,4.4-6.3,5.3-7.4s2.6-3.1,3.7-4.6c1.2-1.4,3.2-3.7,4.6-5c4.6-4.4,14.5-11.3,20.1-14.2c0.7-0.4,2.6-1.1,4.1-1.6l2.7-0.9h5.8
	c3.2,0,5.8-0.1,5.8-0.2c0-0.4-4.6-2.8-8.8-4.5c-4.2-1.7-4.7-2-6.4-3.6c-3-2.8-6.7-8.8-8.4-13.9c-1-2.8-2.3-8-2.8-11.2
	c-0.2-1.2-0.5-2.2-0.7-2.3c-1-0.4-11.6,5-17.5,9c-6.4,4.3-14.9,12.3-19.2,18.1c-8.3,11.1-13.3,22.9-15,35.8
	c-1.6,11.6-0.4,23.1,3.3,32c1.4,3.2,1.4,3.3,4.3,3.2l1.5,0L300.2,370.8z M248.9,363.6c-0.4-5.4-0.5-14.7-0.2-18.3
	c0.7-8.1,2-14.6,4.3-21.7c3.1-9.7,6.4-16.4,12.1-25.2c4.4-6.7,7.7-10.7,14.1-17.2c2.3-2.3,4.1-4.3,4-4.3c-0.1-0.1-2.4-0.3-5.2-0.4
	c-14.7-0.7-28.5-3.8-39.9-8.8c-1.9-0.8-2.8-1.1-2.9-0.9c-0.1,0.2-0.3,1.6-0.5,3.2c-0.9,8-2.5,15.6-4.2,20
	c-2.1,5.4-5.4,10.7-8.8,14.1c-2,2-2.3,2.2-6,3.8c-3.9,1.7-9.2,4.6-17.2,9.3c-2.3,1.4-5.5,3.1-7.1,3.9c-1.5,0.8-2.8,1.5-2.8,1.5
	c0,0.3,2.3,4.1,3.3,5.3c0.5,0.7,2.1,2.4,3.5,3.8s3.7,4,5.3,5.8c3.6,4,5.3,5.7,9.1,8.8c7.4,6,18.2,12.3,26.6,15.7
	c2.7,1.1,11.5,4,12.2,4C249,365.9,249.1,365.7,248.9,363.6L248.9,363.6z M82.4,336.9c6.4-3.7,15.7-8,24-10.9c2.8-1,5.1-1.8,5.2-1.9
	c0.1-0.1-0.3-0.6-0.8-1.1c-1.3-1.5-1.7-2.7-1.8-5.9c-0.1-1.6-0.2-3.3-0.3-3.8l-0.1-0.9l-1.3,1.3c-1.8,1.8-2.8,2.5-8.2,5.2
	c-7.2,3.7-12.4,7.3-15,10.5c-1.4,1.7-4.8,7.9-4.8,8.8C79.2,338.7,79.6,338.5,82.4,336.9L82.4,336.9z M457.5,326
	c0-0.4-0.6-0.7-1.5-0.7c-0.6,0-0.6,0,0.1,0.5C456.8,326.5,457.5,326.5,457.5,326L457.5,326z M457.3,320.9
	c-0.5-2.7-5.7-11.2-10.5-17.2c-2.8-3.5-8.5-9.2-12.3-12.3c-10.7-8.8-22.9-14.9-37-18.5c-12.3-3.2-27.4-3.6-40.3-1.2
	c-4,0.7-11.4,2.7-11.9,3.2c-0.3,0.3,0,1.3,1.1,4.7c4,11.8,8.8,19.3,16,24.7c2.4,1.8,7.9,5.4,10.6,6.8l1.8,1l3.9-0.3
	c4.6-0.4,7.3-0.1,10,1.1c1.9,0.8,5.8,3.6,6.2,4.4c0.4,0.8,2.3,1.3,3.7,0.9c2.5-0.7,11.8-1.7,16.5-1.9c5.3-0.2,11.5,0.2,17.2,1
	c1.9,0.3,3.6,0.4,3.6,0.3c0.1-0.1-0.3-1.8-0.9-3.8s-0.9-3.7-0.8-3.8c0.2-0.2,1.7,0.6,3.3,2c0.8,0.6,2.6,2.1,4.1,3.2
	c1.5,1.1,3.5,2.6,4.3,3.3c0.9,0.7,2,1.4,2.6,1.6c3.2,0.9,8.5,2.1,8.7,2C457.4,322,457.4,321.5,457.3,320.9L457.3,320.9z
	 M401.5,320.6c0-0.2-0.2-0.3-0.4-0.3s-0.4,0.1-0.4,0.3s0.2,0.3,0.4,0.3C401.3,320.9,401.5,320.8,401.5,320.6z M187.7,318
	c9.2-3.5,14.9-6.4,22.2-11.3c6-4,8.6-6.5,11.9-11.6c3.3-5.1,6-11.4,8.3-19.9c1.3-4.6,1.3-5.3,0.6-7.3c-1-2.6-2-3.9-4.3-5.5
	c-1.2-0.8-3.1-2.4-4.3-3.7c-1.2-1.2-3.2-3.1-4.4-4.1c-1.2-1-3-2.6-3.9-3.5c-0.9-0.9-1.8-1.6-1.8-1.5c-0.1,0.1,0.2,1.2,0.6,2.5
	c0.6,1.9,0.7,3.1,0.8,6.3c0.1,4.1-0.1,8.1-0.5,7.9c-0.1-0.1-0.3-1-0.4-2c-0.7-6.8-1.9-12.8-3.3-16.7c-0.4-1-1.2-2.5-1.8-3.2
	c-1.4-1.9-3.2-3.7-3.5-3.7c-0.1,0-0.4,0.6-0.6,1.3c-0.7,2.7-5.2,10.6-5.2,9.1c0-0.2,0.8-2.6,1.9-5.2c1-2.6,2-5.2,2.1-5.6
	c0.2-0.8,0.1-0.9-1.1-1.6c-0.7-0.4-1.9-1.2-2.6-1.7s-1.3-0.9-1.4-0.9c-0.1,0-0.2,0.4-0.3,0.9c-0.1,0.5-0.7,1.7-1.4,2.5
	c-1.3,1.7-6.2,6.5-6.4,6.3c-0.2-0.2,1.8-2.7,3.9-5.2c2.2-2.5,3.7-4.8,3.5-5.4c-0.1-0.3-0.5-0.9-0.9-1.4c-0.7-0.8-1.1-1-3.6-1.6
	c-7.5-1.7-14.1-0.9-19.7,2.6c-2.8,1.7-7.3,6.2-8.8,8.7c-2.9,4.9-4.3,10.7-5,20.6c-0.4,5.8-1.3,13.2-1.8,15.1c-0.6,2.2-2.9,7-4.5,9.1
	c-1.6,2.1-4.8,5.3-6.7,6.6c-3,2.1-7.4,3.3-11.7,3.3c-1.5,0-2.2,0.1-2.1,0.3c0.1,0.2,1.1,0.8,2.3,1.3c3.6,1.8,6.9,4.2,9.6,7
	c3,3.1,4.1,5.1,4.4,8l0.2,1.9l2.3-0.1c1.3-0.1,5-0.1,8.4-0.1c6.4,0,9.5,0.3,18.2,1.8c2.6,0.4,5.1,0.8,5.5,0.9
	C183.6,319.2,185.2,318.9,187.7,318L187.7,318z M176.3,297.2c-3.2-0.8-5.5-3.1-6.8-6.7c-0.9-2.6-2-6.6-2.5-9.8
	c-0.3-1.8-0.3-2.1,0.1-2.7c0.7-1,1.5-1.1,4.7-0.6c3.9,0.7,7.2,0.5,9.1-0.5c1.4-0.7,3.4-2.5,4.3-3.7c0.7-1,0.9-0.5,0.5,1
	c-0.6,2.2-2.6,4.2-5.8,5.6c-1.7,0.7-5.1,1.1-7.4,0.8c-1-0.1-1.9-0.2-2-0.1c-0.3,0.2,0.8,3.2,2.3,6c1,1.9,1.7,2.8,4.2,5.2
	c3.4,3.3,3.9,3.6,6,4c2.8,0.5,2,1.3-1.7,1.5c-1.2,0.1-2.5,0.2-2.9,0.2C177.9,297.5,177,297.4,176.3,297.2z M299.8,264.6
	c5.1-3.3,7.4-4.5,12.8-7.1c12.6-6.1,26.2-10.2,39.5-12.1c1.7-0.2,3.3-0.5,3.5-0.7c0.7-0.4,4.5-4.4,6.9-7.3
	c13.4-16.2,21.9-39,25.3-68.7c2.3-19.6,2.3-44.6,0-64.2c-3.4-29.4-12.1-52.7-25.9-69.4c-3.1-3.7-9.2-9.6-12.9-12.4
	c-11.2-8.4-24-13.8-39.4-16.5c-14.4-2.6-33-2.5-47,0c-13.1,2.4-24.2,6.7-33.9,13.1c-23.8,15.8-38,44-42.4,84.5
	c-1.1,10.3-1.3,13.4-1.2,29.1c0,18,0.4,24.6,2.3,38.1c6.1,42.7,22.8,71.2,50,85.1c14.9,7.6,33,11.3,53.3,10.9l5.3-0.1L299.8,264.6
	L299.8,264.6z M339.9,73.4c-7.5-0.8-20.8-5.9-30-11.3c-8.2-4.9-19.4-13.4-25-19.1c-4.3-4.3-7.8-8.4-8.5-10.1c-0.6-1.4-1-5.8-0.5-5.8
	c0.2,0,0.4,0.5,0.6,1.2c0.9,3.6,1.6,4.7,5.1,7.9c4.6,4.2,7.4,6.4,14.7,11.3c9.6,6.4,14.9,9.4,21.9,12.4c4,1.7,16.4,6.3,20.2,7.5
	c3.4,1,6.9,1.9,7.1,1.7c0.1-0.1-0.9-1-2.1-2.1c-5.7-5.1-10.6-12-15.7-21.7c-2.1-4.1-5.2-11.5-6-14.4c-1.1-3.9-1.9-10.4-1.3-9.8
	c0.1,0.1,0.7,1.8,1.3,3.7c1.3,4.3,2.5,7.3,3.2,8.2c1.2,1.3,8,5.6,12.3,7.7c5.9,3,9.6,4.5,9.6,4c0-0.1-0.4-1.1-0.9-2.4
	c-1.4-3.5-2.9-8.3-2.9-9.4c0-0.7,0.4,0,2.3,3.6c3.2,6.4,6.4,10.6,9.2,12c1.8,0.9,2.2,2.5,1,3.7c-0.8,0.8-2.1,0.9-3.4,0.1
	c-0.5-0.3-2.9-1.3-5.3-2.3c-7.3-2.9-13.8-6.8-18-10.7c-0.9-0.8-1.7-1.4-1.7-1.2c0,0.9,6.6,12.5,9.8,17.1c2.8,4,4,5.5,7.1,8.7
	c2.6,2.6,7,5.9,8,5.9c0.3,0,0.8,0.2,1.1,0.4c1.4,1-0.1,2.6-3.1,3.1C347.9,73.8,343.1,73.8,339.9,73.4L339.9,73.4z"/>
<path id="path3177" inkscape:connector-curvature="0" class="st1" d="M100.9,679.3c-0.3-0.3-0.2-1.4,0.1-4.9
	c0.7-7.2,2.3-20,3.3-26.6c0.5-3.4,1-6.7,1.1-7.5l0.2-1.4l-6.5,0c-7.2,0-9.8-0.3-15.9-1.8c-6.2-1.5-11.5-4.6-16.3-9.6
	c-1.6-1.6-5.6-6.2-9-10.2c-5.1-6.1-6.6-7.7-8.8-9.4c-7.5-5.9-13.7-14.2-17.7-23.6c-2.6-6.1-5.4-16-6.6-23.5
	c-1.5-9.3-2.3-22.8-2-34.7c0.2-7.6,0.2-7.6-0.4-7.8c-0.3-0.1-1.5-1.1-2.7-2.1c-3.2-3-4.9-4.3-7.9-6.3c-5.1-3.4-7.2-5.4-9.7-9.5
	c-1.5-2.5-2-4.1-2-6.6c0-2.5,0.5-4,2.3-6.4c0.7-1,1.9-3.3,2.8-5.4c1.6-3.7,5-9.8,8.5-14.9l1.8-2.7l0.1-7c0.1-7.4,0.2-9,1.5-17
	c2.7-16.6,5.6-26.7,12.6-44.4c1.5-3.9,1.8-4.4,3.5-6.3c2.3-2.7,4.2-5.5,6.7-10.3c3.8-7.4,8.7-13.9,15.9-21.3
	c6-6.2,12.6-11.7,19.6-16.4c1.7-1.1,1.8-1.3,1.8-2.2c0-3.8,2.9-9.5,6.8-13.4c3.2-3.2,8.5-6.6,15.7-10.2c5.3-2.6,6.8-3.9,6.8-5.7
	c0-0.6-0.2-1.5-0.4-1.9c-0.6-1.1-0.5-2.1,0.3-2.6c0.7-0.4,0.7-0.4,1.8,0.3c0.8,0.5,1.3,1.2,2,2.5c0.9,1.8,0.9,1.9,1.1,6.5
	c0.2,5.1,0.2,5.2,1.4,7c1.3,1.9,1.3,1.9,5.8,0.6c5.3-1.4,11.7-2.8,18.1-3.8c2.9-0.5,5.6-0.9,6.2-1l1-0.2l0-1.6c0-2-0.5-2.9-2.5-5.4
	c-1.8-2.3-4.6-4.5-8-6.4c-6.2-3.5-7.3-4.2-9.1-5.9c-1.5-1.5-2.1-2.3-3.2-4.7c-2.4-4.9-2.7-7-1.4-8.4c1.2-1.2,2.4-0.7,3,1.3
	c0.4,1.4,2.7,3.9,4.7,5.1c3.8,2.3,10.5,2.3,15,0c2.2-1.1,5.7-4.5,7.4-7.1c2.5-3.8,3.4-7.7,4.3-18.7c1-12.3,2.9-19,6.7-24.7
	c2.7-3.9,7.4-8,11.6-10.1c5.9-2.9,11.3-3.4,18-1.8c3,0.7,3.6,0.7,3.6-0.2c0-0.7,0.4-1.6,1.1-2.3c0.5-0.5,0.5-0.6-1-3.8
	c-8.1-17.3-12.7-38.6-14.1-65.3c-0.4-6.7-0.4-23.6,0-31c0.7-14.7,2.1-26.3,4.5-38.3c4.5-22,12.3-39.9,23.2-53.7
	c2.8-3.5,10.2-11,13.4-13.6c6.5-5.2,16.5-10.8,24.3-13.7c10.1-3.7,22-6.1,34.2-6.7c27.6-1.5,50.7,3.7,68.7,15.4
	c9.2,6.1,17.7,14.5,24.2,24.2c12,18,19.2,41.8,21.8,72.4c1,12.4,1.3,34.1,0.4,45.3c-2.7,36.9-11,63.2-26.4,83.2
	c-1.2,1.5-2.2,3-2.2,3.1c-0.1,0.3,1.1,0.4,5.3,0.4c5.4,0.1,9.2,0.3,13.4,1.1c1.3,0.2,4.1,0.7,6.2,1c7.5,1.1,17.9,4.2,25.5,7.5
	c5.2,2.3,13.7,7.2,19.2,11.2c6.5,4.7,14.4,12.5,20.2,19.8c3.5,4.4,8.4,12.2,11.2,17.9c3.4,6.8,7.2,17.6,8.5,24.3l0.3,1.6l2.9,1.4
	l2.9,1.4l4.8,0c4.1,0,5.2-0.1,7.3-0.7c3.2-0.8,5-1.6,6-2.7c1.1-1.3,2.1-1.1,1.1,0.2c-0.7,1-5.3,9.7-5.3,10.1c0,0.2,1.3,1.2,3,2.3
	c18.6,12.2,33.5,29,39.2,44c0.4,1,1,3.1,1.5,4.6c0.4,1.5,1.2,3.6,1.7,4.5c1.8,3.3,6.3,17.6,7.7,24.5c0.4,1.9,1,6,1.4,9.1
	s1.1,8.9,1.5,12.8c1.3,10.9,1.2,10.4,2.2,12.1c0.5,0.8,2.2,3.2,3.7,5.4c2.5,3.5,3.1,4.6,5.7,10.4c1.6,3.5,3.2,7.2,3.6,8.2
	s1.2,2.6,1.9,3.7c1.1,1.9,1.2,2,1.2,4.3c0,3.4-0.9,5.2-4.8,9.1c-2.4,2.4-3.4,3.2-6.3,4.9c-1.9,1.1-3.4,2.2-3.5,2.4s0.3,3,0.8,6.1
	c5,28.5,6.8,55.3,6,86.5c-0.8,27.5-1.1,35.5-2.2,51.8c-0.3,4.3-0.6,9.2-0.7,11c-0.2,5-1.5,17.9-1.8,18.2c-0.2,0.2-0.2-3.4,0-11
	c0.3-14.2,0.2-50.8-0.2-71.6c-0.6-33.6-2.1-56.7-5.2-81.1c-1.2-9.7-4-26.1-4.5-26.6c-0.4-0.4-10.6,2.6-16.3,4.9
	c-5.8,2.3-20.4,9.4-27.6,13.3c-11,6.1-24.2,14.7-37.9,24.9c-2.9,2.1-5.6,4.1-6.1,4.4c-1,0.6-1.2,1.2-2.9,8.1c-0.8,3.2-1.4,4.8-3,8.2
	c-2.8,5.9-3.2,6.8-3.2,7.4c0,0.3,0.5,2.7,1.2,5.3c0.7,2.6,1.5,6.2,1.8,8c1.7,8.9,3.2,15.5,7.4,32.9c4.8,19.4,7.1,29.6,8.3,36.1
	c1.7,9.5,4,26.5,4.8,35.9c0.2,1.9,0.3,4,0.4,4.7l0.1,1.3h-0.9c-0.5,0-1.3,0.1-1.7,0.1c-1.7,0.3-1.5,0.8-3.8-14.3
	c-0.8-5.6-1.9-12.9-2.4-16.2c-1.1-8-2.5-16.5-3.8-23.6c-0.6-3.2-2.1-11.4-3.4-18.4s-2.7-14.5-3.2-16.9c-0.5-2.3-1.4-7.6-2-11.8
	c-2.8-17.7-3.5-21.3-3.9-21.6c-0.5-0.4-0.5-1,0.1-4.2c0.3-1.5,0.7-4.2,1-6.1c0.5-4,3-12.4,7.8-26.9c4.1-12.3,6-19.2,8-29.3
	c0.7-3.7,1.2-4.2,1-1.1c-0.2,3.3-1,8.9-1.4,10.8c-0.2,0.9-0.8,3.8-1.4,6.4s-1.9,8.4-2.9,12.7s-1.9,8.1-1.9,8.5
	c0,0.4,0.7-0.1,2.9-2.2c12.1-11.3,30.4-24.3,46.6-33.1c23-12.5,37.4-17.6,48.8-17c2,0.1,3.1,0,3.1-0.1c0-0.2-1.3-2.6-2.9-5.5
	c-2.8-5-3.6-7-6.2-14.6c-0.6-1.7-1.9-5.2-3-7.8s-1.9-4.9-1.9-5.1c0.1-0.2,0.7,0.6,1.4,1.7c1.2,1.9,2,2.6,1.7,1.5
	c-0.1-0.3-0.8-4.6-1.7-9.7s-1.9-10.9-2.3-13.1c-1.1-5.3-3.6-13-7.6-23.4c-0.7-1.9-2.1-5.6-3-8.2c-6-16.9-16.3-30.7-32-43
	c-2.9-2.3-9-6.5-9.8-6.8c-0.3-0.1-1.4,1.3-3.6,4.2c-2.5,3.4-4.4,5.4-8.3,9.4c-9,8.9-14.4,13.3-24.9,20.3c-2.6,1.7-5.1,3.5-5.6,4
	c-3.2,2.8-9.2,5.9-11.7,5.9c-1.2,0-1.3-0.5-0.8-1.8c1.8-4.2,2.3-6.1,3-11.7c0.8-6.7,1.4-17.6,1.1-22.7c-0.3-7.1-2.1-15.9-5.1-25.8
	c-0.4-1.2-0.7-1.9-1-2c-0.8-0.3-8.1-1.2-11.3-1.5c-4.6-0.4-14.6-0.3-19.1,0.1c-6.8,0.7-6.5,0.7-6.1,1.1c0.2,0.2,0.6,0.3,1,0.2
	c0.4-0.1,0.6-0.1,0.5,0.1c-0.1,0.2,0.7,1.3,1.7,2.5s2.3,3,2.7,3.9c1.2,2.5,2.3,5.9,2.3,7.3c0,1.1,0.1,1.4,1.4,2.7
	c1.8,1.9,1.8,2.6,0,6.3c-0.6,1.3-1.4,2.2-3.5,4.1c-1.5,1.4-3.2,2.7-3.8,3c-1.9,0.9-6.9,0.5-14.9-1.4c-4-1-6-0.9-8.4,0.1
	c-3,1.2-4.4,2.2-5.1,3.3c-0.4,0.6-1.6,1.9-2.8,2.9c-4.9,4.4-6.7,8.6-7.1,16c-0.2,4.9,0.3,19.5,0.7,19.8c0.5,0.4,5.6,0,7.2-0.5
	c2.2-0.7,2.9-1.7,4.3-6.1c1.5-4.8,4.4-8.2,8.6-10.2c4.6-2.2,8.2-2.5,10.6-0.8c1.3,0.9,1.6,1.4,2.2,3.6c0.4,1.5,0.4,10.8,0,17.7
	c-0.2,4-0.4,4.9-1,6.4c-0.4,1.1-1,2-1.5,2.3c-0.4,0.3-2,1.5-3.5,2.8c-1.5,1.2-3.8,3-5.1,4s-3.2,2.4-4.2,3.3
	c-1.1,0.9-2.4,1.8-2.9,2.1c-0.5,0.3-2.9,1.7-5.3,3.2s-5.9,3.4-7.8,4.3c-7.4,3.5-13.9,7.1-15.5,8.4c-4.3,3.6-8.4,5.7-12.6,6.4
	c-6.3,1.1-16.5,0.8-20.7-0.6c-0.9-0.3-1.7-0.5-1.8-0.5c-0.1,0-0.8,0.8-1.5,1.7c-2,2.8-7.5,9.5-10,12.1c-7.4,7.9-20.1,24-32.4,41.3
	c-6.7,9.4-16.6,22.7-23.5,31.6c-20.9,27-34.8,44.4-39.9,50.3c-1.4,1.7-4.9,5.7-7.7,8.9c-4.9,5.7-13.3,14.7-17.2,18.4
	c-3.6,3.4-8.8,7.7-12.5,10.3c-2,1.4-5.2,3.7-7.1,5.1s-5.2,3.4-7.4,4.6s-5.7,3.1-7.7,4.4c-5.8,3.5-8.1,4.6-16.7,7.5
	c-5.5,1.9-9.8,2.9-16.6,3.9c-4.6,0.7-5.1,0.8-5.2,1.3c-0.1,0.3-0.6,3.7-1.1,7.6c-2.7,19-4.8,32.4-5.1,32.8c-0.1,0.1-0.8,0.2-1.6,0.3
	C101.6,679.7,101.2,679.6,100.9,679.3L100.9,679.3z M105,635.9c4.6-0.4,12.9-1.7,17-2.6c6.3-1.4,13.5-3.9,21-7.5
	c3.3-1.5,4.6-2.3,9.1-5.3c0.9-0.6,2.7-1.7,4-2.4c1.3-0.7,4.1-2.6,6.2-4.2s5.4-4,7.2-5.3s5-3.8,7-5.5c4.8-4,14.7-14.1,20.6-20.9
	c2.6-3,5.9-6.8,7.4-8.5c6.5-7.3,36.1-44.4,48.3-60.7c2.7-3.6,6.2-8.1,7.6-10c1.4-1.9,4.7-6.3,7.3-10c8-11.1,11-14.9,19.2-24.5
	c6.6-7.7,9.8-11.3,13.6-15.3c1.8-1.9,4-4.3,4.9-5.4c0.9-1.1,3.5-3.8,5.7-6.1c2.2-2.3,4-4.3,4-4.4s-0.5-0.5-1.2-0.9
	c-1.3-0.7-3.4-2.7-3.1-3c0.1-0.1,0.9,0.1,1.8,0.5c3.1,1.4,6.4,2.1,11.7,2.4c4.3,0.3,5.4,0.3,8.5-0.1c7.1-0.9,8.3-1.3,12.8-4.2
	c2.8-1.8,5.7-4.5,7.2-6.7c1.4-2,3.9-6.8,4.6-8.7c0.8-2.3,1.9-6.6,2.4-10.1c0.6-3.8,0.6-11.2,0.3-25.1c-0.2-6.9-0.2-10.2,0.1-11.8
	c0.4-3,1.7-6.8,3.3-9.4c1.6-2.7,5.5-6.7,7.9-8.1c0.9-0.5,2.9-1.8,4.5-2.8c5.2-3.3,7.8-3.7,14-2.3c7.9,1.8,8.2,1.9,9.8,1.6
	c2.2-0.5,3.8-1.3,5.8-3.3c1.4-1.4,1.9-2.1,2.3-3.2c0.3-0.8,0.4-1.6,0.3-1.7c-0.3-0.6-7.4-4.2-9.6-5c-7.1-2.4-14.6-2.7-20.2-0.8
	c-3.9,1.3-9.1,4.2-11.5,6.3c-1.8,1.5-5.9,4.7-6,4.6c-0.4-0.4,3.8-4.9,7.5-8.2c3.3-2.9,6.2-4.6,10.1-5.9c3.1-1.1,5.1-1.4,9.3-1.4
	c6.4,0,12.4,1.4,17.1,4c0.9,0.5,1.8,0.9,1.9,0.8c0.5-0.3-0.5-4.5-1.4-6.3c-0.9-1.8-4.2-5.3-5.9-6.3l-1.6-0.9l-4.7,0.1
	c-7.5,0.1-18,1-20.9,1.7c-3,0.8-11.3,6.1-16.4,10.6c-10.7,9.3-10.1,8.8-10.1,8.4c0-0.4,7.1-8.2,11.3-12.4c4.9-5,9.1-7.9,13.9-9.8
	c2.3-0.9,7.3-1.6,18.1-2.4c1.1-0.1,2-0.2,2-0.4c0-0.4-3.8-2.2-5.6-2.6c-1.7-0.4-2.1-0.4-6.4,0.2c-4.6,0.6-10.4,1.9-15.4,3.5
	c-5.5,1.8-12.1,6.8-21.5,16.4c-2.7,2.8-5.2,5.2-5.6,5.5l-0.7,0.5l0.5-0.8c1-1.5,5.5-7.4,7.4-9.7c5.1-6.1,12.9-12.2,18-14
	c2.1-0.8,2.3-1.1,0.6-0.9c-6.7,0.9-10.4,2-16,5c-3.5,1.8-8.4,4.8-11.6,6.9c-1.7,1.1-9.2,8.7-11.1,11.1c-0.9,1.2-2.4,3.1-3.4,4.3
	s-2,2.7-2.4,3.6s-1.7,2.9-2.9,4.5c-4.1,5.6-6.1,8.7-10.3,16.5c-3.2,6-4.5,8.9-8.2,18.6c-4.8,12.7-6.3,15.9-8.5,18.7
	c-1.1,1.3-3.1,3.6-4.6,5.1c-2.6,2.7-7.4,6.8-7.9,6.8c-0.1,0-0.9,0.5-1.8,1.2c-4,3.1-9.5,7.2-12.1,8.9c-4.8,3.2-15.8,9.6-20.3,11.9
	c-3.2,1.6-16.3,7.2-25,10.6c-4,1.6-9.6,3.8-12.5,4.9c-10.6,4.2-26.2,11.3-40,18.2c-3.3,1.6-17.7,9.7-21.5,12.1
	c-2.4,1.5-12.7,8.6-15.6,10.8c-5.7,4.3-13.9,11.9-18.8,17.3c-8.1,9.1-13,16.3-16.9,25.1c-1.8,4.1-2.5,6.4-3.8,12.2
	c-1.1,5.2-1.2,5.3-2.9,8.1c-1.3,2.1-1.8,3.4-2.5,5.5c-0.5,1.6-1,1.7-1.2,0.2c-0.1-0.6-0.5-2.6-1-4.4c-0.4-1.8-0.8-3.7-0.8-4.3
	c0-1.4,1.4-7,2.6-10.5c1.6-4.5,6-12.7,10.2-19c0.8-1.2,1.4-2.2,1.4-2.2s-6.9-3.6-15.3-8c-19-9.7-24.3-12.1-35.6-16.4
	c-4-1.5-14.1-4.9-14.5-4.9c-0.2,0-0.4,1.2-1,5.7c-0.8,7.2-1.1,12.3-0.8,14c0.2,1.1,0.2,1.8-0.2,3.5c-0.4,1.9-0.5,2.9-0.3,9.8
	c0.6,24,3,38.7,8.7,53.3c3,7.6,7.6,15.3,12.7,20.9c5.5,6.1,12,10.8,18.9,13.7c3.1,1.3,4.3,1.9,3.7,1.9c-1.3,0-12-3.3-14.2-4.5
	c-0.5-0.3-1-0.4-1-0.3c-0.3,0.3,10,11.3,13.8,14.7c4.1,3.8,8.7,6.5,13.1,7.8C88.6,636.1,96.2,636.7,105,635.9L105,635.9z
	 M97.2,517.6c2.7-3.4,5.6-6.8,9.2-10.6c3.1-3.2,3.3-3.6,3.2-4.4c-1.1-7.1-1.5-10.4-1.7-12.8c-0.2-3.7,0.2-3.4,1,0.7
	c1,5,2.5,11.1,2.8,11.1c0.1,0,1.7-1.3,3.5-2.9c6.2-5.6,10.9-9.2,21.5-16.1c7.9-5.2,22.2-12.8,35.9-19c18.4-8.3,22.4-10,37.6-15.6
	c14.5-5.4,26.6-10.2,31.6-12.8c10.1-5.1,21.4-12,29.7-18.3c6.1-4.6,7.5-5.7,10.3-8.2c4.6-4.1,7.8-8.2,8.5-10.6
	c0.4-1.6,1.7-5.6,2.9-8.8c0.5-1.5,0.9-2.8,0.8-2.9c-0.2-0.3-8.8-0.3-14.3,0c-3.7,0.2-5.3,0.4-8,1.1c-2.9,0.8-3.6,1.1-6.7,2.9
	c-5.4,3.3-7.9,4.6-8.4,4.2c-0.6-0.5-3.1-6.6-4.1-10.2c-0.5-1.8-1.3-4.9-1.7-6.9c-0.4-2-0.8-3.7-1-3.9c-0.1-0.1-2-0.8-4.2-1.5
	c-6.2-1.9-11-3.8-16-6.2c-13.2-6.5-24.7-15.6-31.1-24.7c-1.3-1.8-3.5-4.9-4.9-7c-2.8-4-5.3-8.2-5.9-10.2c-0.2-0.7-0.5-1.4-0.7-1.5
	c-0.2-0.1-6.7,1.4-9.9,2.3c-1.2,0.3-5.5,0.4-5.5,0c0-0.2,0.2-0.3,5.2-2.4c1.7-0.7,3-1.4,2.9-1.5c-0.3-0.2-5.1-0.9-11.6-1.5
	c-4.9-0.5-14.6-0.5-19.2-0.1c-12.6,1.1-27.9,4.4-40.2,8.6c-23.9,8.1-43.4,21.6-56.6,39c-3,4-12.2,17.7-14.8,22
	c-0.7,1.1-1.7,2.8-2.3,3.8c-1.7,2.8-6.4,15-9.1,23.9c-2.1,7-3.5,12.6-5.2,21.8c-1.8,9.5-2.2,12.2-2.7,21.4c-0.2,3.8-0.5,7.3-0.6,7.6
	c-0.1,0.6-4.1,8.2-6.5,12.4c-0.6,1-1.1,2-1.1,2.2c0,0.2,0.4,0.2,1,0.1c5.7-1.1,13.6-0.2,22,2.5c13.9,4.5,27.1,10.5,37.2,16.8
	c4.9,3.1,16,10.8,19.9,13.7c1.1,0.9,2.7,2.2,3.4,3c0.7,0.8,1.6,1.4,1.8,1.4C95.4,519.7,96.3,518.8,97.2,517.6L97.2,517.6z
	 M24.2,504.9c0.3-2.3,0.7-5.9,1-7.9s0.5-3.8,0.4-4c-0.1-0.2-1.2-0.6-2.6-0.9c-7.8-1.9-13.9-1.9-15.7,0.1c-0.9,0.9-0.6,2.3,1.1,5
	c1.7,2.8,2.9,3.9,8.8,7.8c2.6,1.8,5,3.5,5.3,3.8s0.7,0.5,0.8,0.5C23.5,509.2,23.9,507.3,24.2,504.9L24.2,504.9z M558.2,494.3
	c6.8-7.9,7.1-9.1,2.7-10.8c-1.3-0.5-2.1-0.6-5.4-0.6c-2.1,0-4,0.1-4.1,0.2c-0.1,0.1-0.1,0.9,0.1,1.6c1,4.6,2.9,12.7,3,13.1
	C554.6,498.3,555.6,497.4,558.2,494.3L558.2,494.3z M359.4,424.8c2.6-1.2,15-8.8,21.5-13.2c2.9-2,7.2-5.1,9.4-6.8
	c2.3-1.8,4.3-3.3,4.4-3.4c0.2-0.1,0.5-0.5,0.6-1c0.5-1.6,1-10.1,1-16.1c0-8.5-0.2-8.8-5.3-8.3c-4.8,0.5-7.6,2-9.7,5
	c-0.9,1.3-1.1,1.9-1.6,4.9c-0.3,1.9-0.8,3.8-1,4.3c-0.7,1.4-2.2,2.2-6,3.4c-1.9,0.6-4.1,1.3-4.7,1.5s-1.7,0.4-2.2,0.4h-1l-0.2,2.1
	c-0.1,1.2-0.2,2.8-0.2,3.7c0,4.1-1.7,12.5-3.3,16.7c-0.5,1.2-1.5,3.2-2.3,4.6c-1.3,2.2-1.7,3.1-1.4,3.1
	C357.5,425.7,358.4,425.3,359.4,424.8L359.4,424.8z M298.1,374.6c0.2-0.2,1.3-2.1,2.5-4.3c3-5.9,6-10.9,8.9-15.2
	c1.4-2.1,3.9-5.8,5.4-8.1c2.7-4,3.8-5.6,8.4-11.4c3.3-4.2,7.4-8.1,12.7-12.1c7.5-5.7,13.2-8.9,18.2-10.4c2.5-0.8,2.8-0.8,8.3-0.7
	c3.1,0,5.6,0,5.6-0.2c-0.5-0.8-6.4-3.7-12.3-6.1c-2.7-1.1-5.5-4.2-8.6-9.7c-2.5-4.4-4.2-9.6-5.5-16.6c-0.3-1.7-0.7-3.2-0.8-3.4
	c-0.5-0.5-7.1,2.6-12.5,5.7c-6.4,3.7-11.3,7.5-17.1,13.1c-12.2,12-19.8,26.7-22.4,43.5c-0.2,1.6-0.5,5.5-0.6,8.8
	c-0.2,6.1,0.2,10.4,1.2,15.3c0.6,2.7,2.3,8,3.4,10.1l0.8,1.7l1.6,0.1c0.9,0.1,1.8,0.1,2,0.2C297.5,374.9,297.9,374.8,298.1,374.6
	L298.1,374.6z M249.2,365.7c0.1-0.2,0-2.2-0.2-4.3c-1.9-22.8,3.7-44.1,16.8-63.7c4.2-6.2,7-9.7,13.5-16.2c2.9-3,4.5-4.8,4.3-4.8
	c-0.2-0.1-2.3-0.2-4.6-0.3c-14.4-0.6-29-3.7-40.2-8.7c-1.7-0.7-3.2-1.3-3.3-1.3c-0.2,0-0.4,1.1-0.6,2.7c-1.4,11.8-3.2,19-6.1,24.8
	c-2.1,4.1-4.4,7.4-6.9,10c-2.1,2.1-2.4,2.3-5.9,3.8c-3.9,1.7-8.4,4.1-16.3,8.8c-2.6,1.5-6.1,3.5-7.8,4.4s-3.1,1.8-3.1,1.9
	c0.3,1.2,3,5,5.1,7.2c1.4,1.5,4.4,4.8,6.7,7.4c7.7,8.6,17.6,15.9,30.1,22c5,2.5,7.3,3.4,13.4,5.4C248.9,366.3,249,366.3,249.2,365.7
	L249.2,365.7z M82.4,337.1c6.7-3.9,16.5-8.4,24.5-11.2c2.3-0.8,4.4-1.5,4.6-1.6c0.2-0.1,0-0.6-0.8-1.6c-1.4-1.8-1.6-2.5-1.8-6.9
	c-0.1-1.9-0.3-3.6-0.4-3.6c-0.1-0.1-0.5,0.3-0.9,0.8c-1.1,1.5-3.7,3.1-8.7,5.6c-4.4,2.2-9.8,5.6-12.5,7.8c-0.7,0.6-1.9,1.9-2.8,2.9
	c-2.3,2.9-5.3,9.2-4.3,9.2C79.5,338.7,80.8,338,82.4,337.1L82.4,337.1z M457.7,326.1c0-0.6-1.5-1.2-2.5-1.1
	c-0.6,0.1-0.5,0.2,0.5,0.8C457,326.8,457.7,326.9,457.7,326.1L457.7,326.1z M457.5,321.2c-0.2-2.3-4.9-10.3-9.6-16.4
	c-11.7-15.1-28.7-26.1-48.5-31.5c-7.5-2-14.1-3-22.5-3.2c-10.5-0.3-20,1-29.7,3.9c-1.7,0.5-2.3,0.8-2.3,1.2c0,1.6,3.6,11.3,5.7,15.1
	c4.3,8.2,8.7,12.6,18,18.5c6,3.7,6.1,3.8,8.3,3.4c2.8-0.4,7.4-0.4,9.2,0c0.8,0.2,2.2,0.7,3.1,1.2c2.1,1.1,5.4,3.4,5.6,4.1
	c0.2,0.7,3,1.5,3.5,1.1c0.6-0.5,10.1-1.7,15.1-2c5-0.3,11.6,0,17,0.7c1.8,0.2,3.9,0.5,4.6,0.6c0.7,0.1,1.3,0.1,1.3-0.1
	c0-0.1-0.4-1.8-1-3.7s-1-3.5-1-3.5c0-0.5,1.8,0.5,3.5,2c1.2,1,3,2.4,4.2,3.2s2.8,2.2,3.8,2.9s2,1.5,2.3,1.5s2.3,0.5,4.4,1.1
	C457.4,322.4,457.6,322.4,457.5,321.2L457.5,321.2z M190,317.2c8.4-3.3,13.3-5.9,20.8-11c7.5-5,12.4-11.4,16.3-21.3
	c1.2-3,3-8.8,3.9-12.5c0.5-2.3,0.6-2.5,0.1-3.8c-1.1-3.4-2.2-4.7-5.9-7.3c-1.1-0.8-3.2-2.6-4.5-3.9c-3.2-3.2-8.9-8.5-9-8.3
	c-0.1,0.1,0.2,1.1,0.5,2.2c1.1,3.5,1.3,5.7,1.1,9.6c-0.1,1.9-0.3,3.5-0.4,3.5c-0.1,0-0.3-0.8-0.4-1.9c-0.5-5.2-1.4-9.5-2.9-14.3
	c-0.7-2.1-1.1-2.9-2.4-4.5c-1.9-2.4-3.2-3.6-3.5-3.4c-0.1,0.1-0.3,0.7-0.4,1.3c-0.2,1.3-3.1,7.1-4.1,8.3c-0.7,0.8-0.7,0.8-0.5,0.1
	c0.1-0.4,0.9-2.6,1.8-4.9s1.7-4.7,1.8-5.2c0.1-0.9,0.1-1-1.1-1.6c-2.3-1.3-4.2-2.8-5.1-4.1c-1.1-1.5-1.4-1.7-5.8-2.6
	c-3.1-0.7-8.8-0.6-11.6,0.1c-4.3,1.2-8.8,3.9-12.1,7.5c-5.2,5.5-7.1,11.5-8.2,24.8c-0.5,6.6-1.2,12.1-1.7,14.5
	c-0.5,2.4-2.9,7.4-4.7,9.7c-3.2,4.2-7.1,7.3-11,8.6c-2.5,0.8-6.3,1.3-8.5,1.1c-1-0.1-1.4,0-1.4,0.2c0,0.2,1.1,0.9,2.4,1.5
	c5.5,2.8,11.2,7.5,13,10.8c0.8,1.5,1.6,4.1,1.6,5.5v0.9l2.5-0.2c1.4-0.1,5-0.2,8-0.2c5.9,0,10.8,0.5,19.2,2
	C183.8,319.5,184.4,319.4,190,317.2L190,317.2z M175.3,296.7c-0.7-0.3-1.8-1-2.5-1.5c-2.3-1.7-3.9-5.5-5.3-12.9
	c-0.7-3.5-0.6-4.2,0.5-4.9c0.6-0.4,0.9-0.4,3.1,0c1.4,0.2,3.7,0.5,5.2,0.5c2.6,0,2.9,0,4.6-0.9c1.1-0.5,2.4-1.5,3.4-2.5l1.6-1.6
	l-0.1,1c-0.2,1.6-1.4,3.1-3.6,4.4c-2.9,1.8-3.6,2-7.9,2c-3,0-3.8,0.1-3.8,0.4c0,0.6,1.8,4.8,2.8,6.5c1.6,2.7,2.5,3.7,7.4,7.6
	c0.3,0.3,1.3,0.7,2,0.8c0.8,0.2,1.4,0.4,1.4,0.6c0,0.4-1.1,0.6-4.4,0.8C176.8,297.3,176.3,297.3,175.3,296.7L175.3,296.7z
	 M190.1,243.9c0.2-0.3,1.2-1.5,2.2-2.7c1-1.2,2.3-2.8,2.8-3.6s1.1-1.4,1.2-1.4c0.4,0-0.3,1.8-1.1,3c-1,1.5-4.8,5.3-5.2,5.3
	C189.8,244.4,189.8,244.2,190.1,243.9L190.1,243.9z M299.6,265c8.2-5.4,19.4-10.7,29.1-13.9c7-2.3,17.7-4.8,24.3-5.7l2.6-0.3
	l2.6-2.6c16.9-17.3,26.9-42.9,30.3-77.8c0.9-8.9,1-11.8,1.2-24.3c0.2-19.1-0.6-32.1-3.1-46.5c-8.7-51.5-34.5-80.8-77.5-88
	c-8.1-1.4-11.7-1.6-22.6-1.6c-10.4,0-12.9,0.1-20.4,1.3c-45.6,6.7-72.2,38.6-79.3,94.7c-2.5,20.3-2.5,45.7,0.1,66.7
	c3.9,30.9,12.9,54.3,27.5,71.2c12,13.9,29.2,23.2,49.7,26.9c8.2,1.5,14.2,2,24.8,2.1l7.4,0L299.6,265z M343.5,73.6
	c-5.2-0.3-7.8-0.8-13.7-2.7c-13-4.2-22.5-9.6-36.7-20.8c-5.9-4.7-8.2-6.8-12.8-12.1c-3.4-3.9-4-4.9-4.4-7.6
	c-0.4-2.7,0.1-2.8,0.9-0.2c0.7,2.3,0.8,2.3,3.9,5.4c4.4,4.4,7.7,6.9,15.6,12.1c9.2,6.1,14.5,9.1,21.3,12.1
	c3.8,1.7,17.3,6.7,20.9,7.7c3.8,1.1,7.2,1.9,7.4,1.8c0.1-0.1-0.9-1-2.3-2.2c-7-5.9-14.8-17.8-19.8-30.3c-1.9-4.7-2.6-7.1-3.2-10.8
	c-0.8-5.1-0.5-5.1,1.2,0.3c1.7,5.5,2.2,6.3,4.3,7.9c1,0.8,3,2.1,4.3,2.9c4.2,2.6,15.3,8,16,7.8c0.1-0.1-0.2-1.3-0.8-2.8
	c-1.5-3.8-2.8-7.8-2.7-8.4c0.1-0.3,0.7,0.7,1.8,2.9c2.8,5.7,6,10.1,8.3,11.5c2.4,1.5,2.5,1.6,2.5,2.7c0,2-1.6,2.6-3.7,1.5
	c-0.7-0.4-3.1-1.4-5.2-2.3c-7.9-3.2-13.9-6.7-18.5-11.1c-0.9-0.9-1.8-1.6-1.9-1.5c-0.3,0.3,4.6,9.3,8.2,15.1
	C340,61,347.9,69,352.1,70.2c0.9,0.2,1.1,0.4,1.1,0.9c0,0.9-1.1,1.7-2.7,2C349.1,73.5,345.5,73.7,343.5,73.6L343.5,73.6z"/>
<path id="path3175" inkscape:connector-curvature="0" class="st2" d="M100.8,679.1c-0.4-1.1,2.6-25.4,4.3-35.7
	c0.4-2.2,0.6-4.2,0.5-4.3c-0.1-0.1-2.9-0.2-6.3-0.2c-6.9,0-10.3-0.4-16.1-1.9c-6.7-1.7-11.6-4.6-16.9-10.1
	c-1.6-1.7-5.7-6.3-8.9-10.2c-4.6-5.6-6.4-7.5-7.9-8.6c-8.6-6.4-16-17.2-20.1-29.3c-4.9-14.7-6.6-27.6-6.4-49.9l0.1-10.3l-0.7-0.4
	c-0.4-0.2-2-1.6-3.6-3.1c-1.6-1.5-4.7-3.8-6.7-5.2c-9-6.1-13.2-12.9-11.4-18.9c0.5-1.6,0.7-2.1,2.3-4.3c0.5-0.8,1.7-3,2.6-5.1
	c1.6-3.7,4.6-8.9,8.3-14.6l2-3v-6.4c0-6.9,0.3-10,1.6-18.3c2.3-14,5.1-24.3,10-37.3c3.8-9.9,3.9-10.3,5.3-11.9
	c3.3-3.9,4.8-6.1,6.9-10.3c6.6-13.1,18.8-26.4,34.4-37.3l3.4-2.4l0.2-2.1c0.3-2.6,0.8-4.1,2.6-7c3.2-5.5,9.1-10.1,19.2-15.1
	c3.3-1.6,5-2.6,5.9-3.5c1.7-1.6,1.9-2.4,1.1-4.2c-0.7-1.7-0.7-1.9-0.2-2.5c0.6-0.6,1.3-0.5,2.3,0.3c1.9,1.6,2.7,4.7,2.7,10.5
	c0,2.9,0.4,4.1,1.7,5.7c1.3,1.5,0.9,1.5,7.6-0.3c5.2-1.4,12.4-2.8,18.7-3.8c2.2-0.3,4.2-0.8,4.4-1c0.6-0.6,0.4-2.6-0.4-4.4
	c-0.5-1.1-1.5-2.3-3.4-4.2c-2.8-2.7-4.5-3.9-10.5-7.1c-4.1-2.2-6.7-4.8-8.3-8.3c-1.5-3.2-2.1-4.9-2.1-6.1c0-2.9,2.5-3.9,3.3-1.3
	c0.7,2.4,3.7,5.3,6.5,6.4c3.2,1.2,8.2,1.2,11.8,0c4.2-1.4,8.7-6,11-11.1c1.1-2.6,1.7-6,2.6-15.5c0.6-6.9,0.6-6.8,1.6-11.7
	c0.8-4.1,1.8-6.9,3.5-10.2c3.7-6.9,10.6-12.6,17.9-14.7c1.9-0.5,2.8-0.6,6.6-0.6c4,0,4.7,0.1,7.1,0.7c1.5,0.4,2.8,0.8,2.9,0.8
	s0.3-0.3,0.3-0.8c0-0.7,0.4-1.4,1.4-2.9c0.3-0.4,0.1-1-1.1-3.4c-10.6-22.5-15.5-53.3-14.4-90.2c0.5-17.6,1.8-30.2,4.4-43.3
	c7.7-38.5,24.8-64.3,51.6-77.9c16.4-8.3,34.6-11.7,58.3-11.1c22,0.6,41.2,6.4,56.2,16.9c5.5,3.8,12.9,10.8,17.1,16
	c14.1,17.6,22.5,41,26,71.9c1.7,15.1,2.1,33,1.2,49.8c-2,37.8-11.3,66.9-27.9,87.5c-0.8,0.9-1.2,1.7-1,1.9c0.1,0.2,0.9,0.3,2.7,0.2
	c3.2-0.2,10.8,0.2,15.1,0.9c1.8,0.3,5,0.8,7.1,1.1c9.3,1.4,21.1,5.1,28.9,9c6.1,3,13.7,7.9,18.7,11.8c3.7,2.9,13.1,12.4,16.3,16.3
	c3.9,4.8,9.4,13.5,12.2,18.9c1.4,2.8,3.4,7.5,4.6,11.2c0.7,2,1.4,4,1.6,4.4c0.4,0.9,2.1,7.6,2.4,9.4c0.1,0.9,0.3,1,1.5,1.5
	c0.7,0.3,2.3,1,3.4,1.6l2.2,1.1l4.6-0.1c6.3-0.2,10.9-1.4,12.7-3.4c0.8-0.8,1.4-0.7,0.7,0.1c-0.6,0.7-5.2,9.3-5.2,9.7
	c0,0.2,1.3,1.2,2.9,2.2c13.5,8.8,25,19.8,32.9,31.7c3.8,5.7,6.7,12,8.2,17.9c0.2,0.9,0.9,2.4,1.4,3.3c1.1,2,2.4,5.6,4.5,12.4
	c3.2,10.5,3.8,13.2,5.5,28.4c1.4,12.3,1.9,15.6,2.4,16.9c0.2,0.5,1.9,3.1,3.8,5.8c3.5,5,3.6,5.3,8.3,15.9c1.4,3.2,2.9,6.4,3.4,7.1
	s1,1.7,1.1,2.3c1.3,4.8-3.4,11.3-11.5,15.9c-1.7,1-3.2,1.9-3.3,2.1c-0.1,0.1,0.2,2.3,0.7,4.7c4.8,26.1,7.1,56.8,6.4,83.6
	c-0.7,26.4-0.9,30.1-1.1,35.7c-0.2,3.2-0.5,9.7-0.8,14.3c-0.3,4.6-0.7,10.6-0.8,13.4c-0.3,4.8-1.2,15.9-1.5,19.1
	c-0.1,0.8-0.3,1.4-0.4,1.2s-0.1-4.7,0-10.1c0.5-19.9,0.2-66.2-0.6-89c-0.8-24.8-2.5-45.9-5.2-66c-1.4-10.5-3.6-22.8-4.2-23.4
	c-0.6-0.6-11.8,2.7-18.5,5.6c-4.4,1.9-17.2,8.1-22.4,10.9c-12.3,6.5-26.6,15.8-40.9,26.5c-2.6,1.9-5.2,3.8-5.8,4.2
	c-0.6,0.4-1.2,0.8-1.3,1c-0.1,0.2-0.8,2.8-1.7,6c-1.2,4.7-1.8,6.3-3.2,9.1c-0.9,1.9-2.1,4.5-2.6,5.7l-0.9,2.3l1.1,4.2
	c1.1,4.3,2.2,9.4,2.8,12.7c0.7,4.1,2.4,11.7,7,30.4c6.7,27.4,8.2,34.6,10.4,49.5c0.8,5.6,2.5,20.8,2.8,24.8l0.2,2.7h-1.8
	c-1.6,0-1.9-0.1-2.1-0.6c-0.3-0.7-1.9-11.5-4.1-26.8c-1.6-11.5-2.9-19.7-4.1-25.5c-0.5-2.3-1.1-6-1.5-8.2c-0.7-3.7-1.7-9-5-26.3
	c-0.7-3.5-1.7-9.5-2.3-13.2c-2.5-15.5-3.6-22.1-4.1-22.4c-0.4-0.3-0.3-0.7,0.2-3.1c0.3-1.6,0.8-4.5,1.1-6.6
	c0.6-4.1,3.1-12.9,7.4-25.7c4.1-12.3,5.6-17.5,7.8-28.1c0.5-2.5,1-4.6,1.1-4.6c0.4-0.4-0.3,6.9-1.1,11.2c-0.7,3.9-2.7,12.5-4.6,20.6
	c-1.1,4.5-1.9,8.2-1.8,8.4s1.3-0.9,2.7-2.3c7.8-7.7,25.6-21,38.2-28.5c7.7-4.6,22.1-12.2,28.4-14.9c7.2-3.1,15.4-5.7,21.3-6.7
	c2.4-0.4,9-0.6,10.7-0.3c0.3,0,0.6,0,0.6-0.2c0.1-0.2-1.3-2.7-2.9-5.8c-2-3.6-3.3-6.4-3.9-8.1c-0.5-1.4-1-2.9-1.2-3.3
	c-0.2-0.4-0.9-2.2-1.4-4c-0.6-1.8-1.6-4.4-2.2-5.9c-1.7-4.1-2.3-5.5-2-5.5c0.1,0,0.7,0.7,1.2,1.6c1.3,2.2,1.7,2.3,1.5,0.8
	c-0.3-2.4-2.7-16.4-3.7-21.2c-1.3-6.6-3.3-13-7.4-23.4c-0.9-2.4-2.5-6.6-3.4-9.3c-6-17-15.9-30.5-31.7-43.1
	c-3.6-2.8-10-7.3-10.7-7.4c-0.2,0-1.8,1.8-3.5,4.1c-2.4,3.2-4.3,5.4-9,10c-8.7,8.6-13.9,12.9-24.2,19.7c-2.2,1.5-4.9,3.4-6,4.3
	c-3.6,2.9-8.9,5.6-11.2,5.6c-1,0-1-0.2-0.4-1.6c1.6-3.8,2.3-6.2,2.8-10.2c1.2-8.5,1.7-20.6,1.2-26.9c-0.5-5.8-3.7-20.3-5.3-24.2
	l-0.4-1l-3-0.5c-10.2-1.5-20.1-1.8-29.4-0.9c-2.8,0.3-5.1,0.6-5.2,0.6c-0.2,0.2,0.6,0.9,1,0.9c0.7,0,3.8,3.5,5.1,5.8
	c1.1,1.9,2.4,6,2.6,7.8c0.1,1.4,0.2,1.7,1.3,2.8c0.6,0.7,1.3,1.4,1.4,1.6c0.3,0.5-0.2,2.3-1.2,4.4c-0.9,1.8-3.8,4.9-6.3,6.7
	c-1.2,0.9-1.6,1-3.4,1.1c-2.3,0.1-5.9-0.4-11.4-1.7c-5.3-1.2-7.1-1.2-10.3,0.2c-1.6,0.7-2.8,1.5-3.6,2.2c-7.9,8-8.8,9.2-10.1,13.7
	c-0.6,2.1-0.6,2.4-0.6,13.5c0,6.2,0.1,11.6,0.2,12c0.2,0.7,0.2,0.7,2.8,0.7c4.4,0,6.5-0.7,7.6-2.6c0.4-0.6,1.1-2.5,1.6-4.1
	c1.7-5.1,4.1-8,8.4-10.2c4.4-2.2,8.3-2.5,10.7-0.8c2,1.4,2.2,2.6,2.2,10.6c0,14.3-0.4,17.4-2.7,19.2c-0.6,0.5-2.6,2.1-4.4,3.5
	c-6.7,5.3-10.7,8.3-11.7,8.9c-0.6,0.3-3,1.8-5.5,3.3s-5.9,3.4-7.7,4.2s-3.8,1.8-4.5,2.2c-6.2,3.2-9.2,5-11.8,6.9
	c-3.3,2.5-7.1,4.5-9.6,5.1c-3,0.7-9.4,1.3-12.2,1.1c-4-0.3-9.4-1-10.4-1.4c-0.5-0.2-1.1-0.4-1.4-0.4c-0.8,0-4.5-2.4-5-3.3
	c-0.5-0.8-0.1-0.8,1.6,0.1c0.9,0.4,3,1.1,4.7,1.5c2.8,0.7,3.4,0.7,9.5,0.8c5.7,0,6.9-0.1,9.7-0.6c3.7-0.7,4.9-1.2,8.6-3.5
	c7.6-4.7,12.5-13.1,14.5-25.1c0.5-3.1,0.6-7.8,0.3-28.5c-0.1-8.5-0.1-9,0.5-11.3c1.2-4.7,3.3-8.6,6.5-11.9
	c2.4-2.5,10.5-7.6,13.6-8.6c2.6-0.9,5.4-0.7,11.5,0.8c7,1.7,8.8,1.4,12.8-1.9c1.7-1.4,2.7-3,3-4.8l0.2-0.9l-3.7-2
	c-6.6-3.6-11-4.8-18.2-4.8c-4.1,0-5,0.1-6.9,0.6c-4.6,1.3-9.5,4.1-15.1,8.6c-1.5,1.2-2.8,2.2-3,2.2c-0.8,0,4.9-5.9,8.4-8.7
	c4-3.2,9.3-5.3,14.6-5.9c6.3-0.6,13.9,0.7,19.3,3.4c1.6,0.8,3,1.5,3.1,1.5c0.4,0.1,0-2.7-0.7-4.8c-0.9-2.8-4.6-7.2-7.4-8.6l-1.2-0.6
	l-7.8,0.3c-7.5,0.3-13.6,0.8-16.7,1.5c-0.8,0.2-2.6,0.8-3.9,1.5c-3.4,1.7-13.2,8.8-15.1,10.8c-0.9,1-7.2,6.3-7.3,6.1
	c-0.3-0.3,11.3-12.7,14.3-15.3c3.8-3.2,8.5-5.9,11.8-6.7c2.4-0.6,9.9-1.5,14.3-1.7c2.2-0.1,4-0.3,4-0.4c0.3-0.6-3.4-2.5-5.9-3
	c-2.9-0.6-10.9,0.6-18.6,2.8c-4.9,1.4-6.1,1.9-9.2,4c-5,3.4-9.5,7.3-16.1,13.9c-2.4,2.4-4.3,4.2-4.3,4.1c0-0.4,3.4-4.9,6.9-9.2
	c4.7-5.8,12.3-11.7,17.8-13.8c2.9-1.1,2.9-1.1,1.4-1.2c-2,0-6.8,0.9-9.6,1.8c-4.2,1.3-16.4,8-20,10.9c-4.5,3.7-14.6,15.3-15.9,18.4
	c-0.3,0.8-1.4,2.4-2.4,3.7c-4.2,5.5-6.3,8.9-10.7,17c-3.4,6.2-4.7,9.2-8.3,18.6c-3,7.9-6.2,15.7-7,16.8c-2.6,4-10.6,12-13.7,13.7
	c-0.4,0.2-3.3,2.3-6.4,4.6c-6.6,5-9.7,7-17.4,11.5c-8.4,4.9-11.9,6.7-21.3,10.6c-7.5,3.2-11.2,4.7-26.1,10.5
	c-8.8,3.4-17.2,7.2-30.9,13.8c-10.3,4.9-12.5,6.1-22.1,11.6c-11.1,6.3-21.8,13.5-28.4,19c-14,11.7-24.1,23.7-30.2,35.8
	c-3,5.9-4.2,9.3-5.7,15.9c-0.8,3.5-1.3,5.3-1.9,6.4c-0.5,0.8-1.2,2.2-1.7,3c-0.5,0.9-1.1,2.4-1.5,3.3c-0.3,1-0.7,1.8-0.9,1.9
	s-0.4-0.4-0.5-1.1c-0.1-0.6-0.5-2.5-0.9-4.1c-0.9-3.7-0.9-5.2,0.2-9.3c2-8,5.6-15.2,13-26.1l0.5-0.7l-15.6-8
	c-20-10.2-28.8-14.1-40.8-18.2c-7.9-2.7-9.2-3.1-9.5-2.8c-0.4,0.4-1.2,7.1-1.7,13.1c-0.3,3.8-0.3,5.1,0,6.3c0.3,1.3,0.3,1.7-0.1,3.2
	c-0.4,1.5-0.5,2.7-0.3,11.3c0.4,21,2.4,34.6,7.3,48.9c2.8,8.1,5.7,13.5,10.7,20.3c2.3,3.1,4.8,5.8,8.3,8.9c3.7,3.3,6.8,5.3,12.1,7.9
	c2.4,1.2,4.2,2.2,3.9,2.2c-1.3,0-9.9-2.9-13.6-4.6c-1-0.5,0.2,1,5.1,6.3c6.9,7.4,9.9,10.2,12.9,12.3c4.2,2.8,6.5,3.8,11.1,4.9
	c4.8,1.2,9.1,1.6,14.5,1.6c9.7,0,23.9-2.3,32.7-5.3c7.5-2.6,16-6.6,19.9-9.4c1.4-1,2.9-2,3.4-2.2c2.2-1.1,5.3-3.2,8.8-5.8
	c2.1-1.6,5.7-4.2,7.8-5.8c2.2-1.6,5.4-4.2,7.2-5.7c4.5-3.9,14.3-13.9,19.4-19.9c2.3-2.7,5.3-6.1,6.6-7.6
	c10.3-11.4,47.8-59.2,64.7-82.4c6.2-8.6,9.3-12.6,13.5-17.7c5.3-6.3,14-16.5,16.9-19.5c1.6-1.7,4.7-5,6.8-7.4c4.5-5,9.2-9.8,9.2-9.4
	c0,0.7-7,9.4-10.1,12.7c-6.9,7.1-20.4,24.3-31.4,39.8c-8.9,12.6-9.1,12.8-12.6,17.4c-1.7,2.3-5.2,6.8-7.7,10.1
	c-12.5,16.5-39,50-44.4,56.2c-1.3,1.5-4.7,5.5-7.6,8.9c-5.7,6.6-14.8,16.3-18.9,20c-4.3,3.9-7.9,6.8-12.7,10.1
	c-2.5,1.8-5.6,4-6.8,4.8c-1.2,0.9-3.6,2.3-5.3,3.2s-5.1,2.8-7.4,4.2c-4.9,3-6.5,3.8-10,5.2c-9.4,3.7-14.7,5.2-24.5,6.7
	c-2.5,0.4-4.6,0.7-4.6,0.8s-0.8,5.4-1.7,11.9c-2.3,16.2-4.1,27.7-4.4,28.5c-0.2,0.6-0.4,0.7-1.9,0.7
	C101.6,679.4,100.9,679.2,100.8,679.1L100.8,679.1z M97.1,517.9c3.4-4.2,6.6-7.9,9.7-11.1c1.7-1.8,3.1-3.3,3.1-3.4
	c0-0.1-0.2-1.4-0.5-2.8c-0.7-3.7-1.4-9.5-1.3-11.2c0.1-1.3,0.1-1.2,0.7,1.6c0.7,3.2,1.8,8.1,2.3,9.8c0.2,0.6,0.4,1,0.5,1
	c0.1,0,1.6-1.3,3.3-2.8c6.8-6.1,10-8.5,19.6-14.8c6.1-4.1,7.2-4.7,16.7-9.9c8.3-4.5,10.8-5.7,22.8-11.2c17.3-7.8,21.3-9.5,38.9-16
	c8.8-3.3,22.4-8.7,26.4-10.5c2.9-1.3,8.5-4.3,14.9-8.1c7.2-4.1,14.7-9.3,23.2-16c5.9-4.6,11.6-10.7,12.5-13.5c2.2-6.5,4-12.3,4-12.7
	c0-0.5-0.4-0.5-8.6-0.4c-7.3,0.1-9,0.2-11.3,0.7c-4.7,1-6.1,1.5-10.1,4c-4.6,2.8-6.5,3.8-7,3.6c-0.6-0.2-3.2-6.1-3.8-8.4
	c-0.1-0.5-0.6-2.3-1-4c-0.4-1.7-1-4.2-1.3-5.7c-0.3-1.5-0.6-2.7-0.8-2.8c-0.2-0.1-1.7-0.5-3.3-1c-15.4-4.5-29.2-12.2-40-22.2
	c-4-3.7-5.8-5.8-10.6-12.6c-5.3-7.5-6.8-9.9-8-12.9c-0.7-1.7-1-2.2-1.4-2.2c-0.3,0-2.9,0.6-5.8,1.4c-5.3,1.4-8.8,1.8-8.5,1.1
	c0.1-0.2,1.8-1,3.9-1.9c3.8-1.6,4.2-1.8,4-2c-0.1-0.1-2.7-0.4-5.7-0.8c-15-1.8-22.7-1.6-37.6,0.8c-27.2,4.5-49.3,13.7-67.2,28
	c-5.6,4.5-12.8,11.7-16.8,16.8c-4.1,5.4-15.5,22.2-17.1,25.4c-0.2,0.5-0.8,1.4-1.2,2.1c-1.4,2.1-6.4,15.4-8.8,23.4
	c-2.4,7.9-3.6,12.9-5.6,23.8c-1.5,7.9-2,12-2.3,20.1c-0.2,3.4-0.4,6.4-0.5,6.7c-0.2,0.6-5.1,10.1-6.7,12.8c-0.6,1-1,2-0.9,2.1
	c0.1,0.1,1,0.1,2.1-0.1c3.6-0.6,8.4-0.4,14.1,0.8c5.3,1.1,18.2,5.6,26.1,9.2c11.2,5.1,16.8,8.4,30,17.6c7.7,5.4,9.2,6.5,11.4,8.6
	c0.9,0.9,1.8,1.6,1.9,1.6C95.3,520,96.2,519.1,97.1,517.9L97.1,517.9z M24.4,504.4c0.3-2.6,0.8-6.2,1-8c0.3-1.8,0.4-3.3,0.3-3.5
	c-0.2-0.4-5-1.5-8.6-2.1c-4.6-0.7-8.7-0.2-10,1.3c-0.8,0.8-0.4,2.7,0.9,4.9c1.6,2.8,3.3,4.3,8.2,7.5c2.4,1.6,4.9,3.3,5.7,3.9
	c0.8,0.6,1.5,1,1.6,0.9S24.1,507,24.4,504.4L24.4,504.4z M558.3,494.3c4.8-5.5,6.2-7.9,5.6-9.1c-0.4-0.7-2.5-1.8-4.3-2.2
	c-2-0.4-7.5-0.4-8.1,0c-0.4,0.3-0.4,0.7,0.8,5.6c0.7,2.9,1.4,6.2,1.7,7.3c0.3,1.4,0.6,2.1,0.8,2.1
	C554.9,498.1,556.5,496.4,558.3,494.3L558.3,494.3z M361.3,423.9c6.5-3.4,22.6-13.9,28.7-18.7c6.3-4.9,5.6-4,6-8.4
	c0.5-5.8,0.8-13.9,0.6-16.5c-0.1-1.3-0.4-2.9-0.7-3.4l-0.5-1l-2.5-0.1c-2.7-0.1-4.2,0.2-6.6,1.1c-1.9,0.7-4.8,3.3-5.6,5
	c-0.3,0.6-0.8,2.7-1.1,4.6c-0.7,4.5-1.5,5.5-4.9,6.4c-0.9,0.2-2.7,0.8-4.2,1.3c-1.4,0.5-3.3,0.9-4.3,1l-1.6,0.2l-0.2,4.4
	c-0.4,9.9-2.3,17.2-5.9,23.2c-0.8,1.3-1.4,2.5-1.4,2.6C357.1,426,358.2,425.6,361.3,423.9L361.3,423.9z M298.3,374.7
	c0.2-0.1,1.2-1.9,2.2-3.9c3-5.9,6.6-12.1,9.2-15.9c1.3-1.9,4-5.8,5.9-8.7s4.4-6.2,5.4-7.5c1.1-1.3,2.6-3.2,3.3-4.1
	c3.7-5,13.2-12.7,21.3-17.4c4.2-2.4,6.2-3.3,9.7-4.2c1.9-0.5,2.8-0.6,7.5-0.5c3.3,0.1,5.4,0,5.5-0.2c0.2-0.5-4.1-2.8-9-4.9
	c-4.6-1.9-4.9-2.1-6.6-3.8c-1-1-2.7-3.1-3.7-4.7c-3.8-5.8-5.6-10.9-7.2-19.9c-0.3-1.6-0.6-3-0.7-3.1c-0.3-0.3-2.4,0.6-6.6,2.6
	c-9.9,4.8-16.5,9.5-24,17.1c-11,11-18.9,25.8-21.4,40.5c-1.5,9-1.5,18.6,0.2,26.7c0.5,2.5,2.4,8.1,3.4,10.1c0.7,1.5,0.8,1.5,2.1,1.7
	C296.8,374.9,297.9,374.9,298.3,374.7L298.3,374.7z M249.4,362.6c-0.4-6-0.3-17.6,0.3-21.6c1.9-14.6,6.8-28.2,14.8-40.7
	c4.4-7,8.8-12.4,15.3-19c2.4-2.4,4.3-4.5,4.3-4.6c0-0.1-0.3-0.2-0.8-0.2c-2.9,0-11.4-0.6-15.2-1.1c-10.9-1.3-21.6-4.2-30-8.1
	c-2.5-1.1-2.8-1.2-3.1-0.8c-0.2,0.3-0.3,0.8-0.3,1.2c0,1.5-1.4,10.5-2.2,14.1c-2,9.1-5.8,16.7-10.9,21.8c-2.3,2.2-2.5,2.4-6,3.9
	c-3.7,1.6-9.3,4.6-17,9.2c-2.3,1.4-5.6,3.2-7.2,3.9c-1.6,0.8-2.9,1.5-2.9,1.7c0,0.1,0.7,1.4,1.5,2.8c1,1.6,2.5,3.6,4.3,5.5
	c1.6,1.6,4.1,4.4,5.6,6.2c4.1,4.6,5.7,6.3,9.8,9.5c7.4,5.9,16.7,11.5,25.1,15.1c3.7,1.6,13.1,4.8,14.2,4.8l0.8,0L249.4,362.6z
	 M82,337.4c3.1-1.9,11-5.8,15.3-7.7c3.3-1.4,11.4-4.5,13.4-5c0.6-0.2,1.1-0.4,1.1-0.6s-0.4-0.7-0.9-1.3c-1.4-1.6-1.7-2.6-1.9-6.9
	c-0.1-2.2-0.3-4-0.3-4.1c-0.1-0.1-1,0.7-2,1.7c-1.7,1.7-2.5,2.2-7.2,4.6c-8.7,4.5-13.9,8.2-16.6,12.1c-2.2,3.2-4.6,8.7-3.8,8.7
	C79.3,339,80.6,338.3,82,337.4L82,337.4z M457.9,326.1c0-0.6-0.2-0.7-1.1-1c-1.3-0.4-2.9-0.5-2.9-0.1c0,0.4,2.8,1.9,3.4,1.9
	C457.7,326.8,457.9,326.6,457.9,326.1z M457.9,322.1c0.3-0.7-0.9-3.9-2.6-6.8c-9.4-16.8-26-31.2-44.3-38.5
	c-13.1-5.2-25.2-7.4-39-7.1c-8.7,0.2-14.4,1-22.4,3.2c-2.2,0.6-4.2,1.3-4.5,1.5c-0.4,0.3-0.4,0.6,0.7,4c4.1,12.8,9.5,21.2,17.2,26.6
	c2.9,2,8.7,5.7,10.5,6.7c1.5,0.8,1.5,0.8,4.2,0.4c5-0.6,8.4-0.3,11.3,1c1.6,0.7,4.5,2.8,5.6,4c1.1,1.2,3.2,1.9,4.1,1.4
	c1.3-0.8,13.1-2.1,19.2-2.1c5.1,0,14.4,0.8,17.6,1.5c1.3,0.3,1.4-0.2,0.4-3.6c-0.5-1.8-0.8-3.3-0.7-3.4c0.2-0.2,1.1,0.3,4.2,2.8
	c6,4.8,8.1,6.3,9.1,6.5c0.6,0.1,2.7,0.6,4.9,1.1C457.8,322.6,457.7,322.6,457.9,322.1z M188,318.1c10.1-4.1,13.3-5.7,18.9-9.3
	c10-6.3,13.7-10.3,18.2-19.4c2.1-4.2,3.5-8.3,5.2-14.5c1.3-4.7,1.3-5.5-0.1-8.4c-1-2.2-1.9-3.1-5-5.2c-1.1-0.8-2.8-2.3-3.8-3.3
	s-2.4-2.5-3.2-3.1c-0.8-0.7-2.7-2.3-4.1-3.7c-1.8-1.7-2.7-2.4-2.7-2.1c0,0.2,0.3,1.4,0.7,2.7c0.7,2,0.8,2.8,0.9,6.7
	c0.1,3,0,4.5-0.2,4.5c-0.2,0-0.4-0.7-0.5-1.6c-0.6-5.3-2.1-11.9-3.5-15.3c-0.5-1.2-3.5-4.9-4.5-5.6c-0.9-0.7-0.9-0.7-1.4,1.3
	c-0.3,1.3-2.8,6.4-3.6,7.4c-0.9,1.1-0.6,0,1.1-4.3c0.9-2.2,1.7-4.5,1.8-4.9c0.2-1,0.4-0.8-3.1-3.1c-1.2-0.8-2.4-1.9-3-2.6
	c-1.2-1.7-1.6-1.9-4.8-2.6c-3.5-0.8-8-1-10.8-0.6c-9.2,1.5-17.4,8.9-20.3,18.4c-0.9,2.8-1.9,9.7-2.4,15.7
	c-0.5,6.5-1.1,11.4-1.7,13.7c-0.6,2.4-2.8,6.8-4.7,9.4c-5,6.6-10.4,9.4-18.3,9.4c-3.4,0-3.4,0.1,0.3,2c3.8,1.9,6.7,4,9.5,6.8
	c3.2,3.2,4.4,5.3,4.6,8.2c0.1,1,0.3,2,0.4,2s1.5,0,3-0.1c6.8-0.6,18.4,0.2,27.4,2C182.4,319.5,185.2,319.3,188,318.1L188,318.1z
	 M176.1,296.9c-1.3-0.4-3.5-1.7-4.4-2.7c-1.4-1.5-3-6.2-4.2-11.9c-1-5-0.6-5.4,4.1-4.6c6,1,9,0.3,12.3-2.7c1.6-1.5,1.7-1.6,1.5-0.8
	c-0.9,4-7.2,7-13,6.1c-1.2-0.2-2.1-0.2-2.3,0c-0.3,0.3,1.4,4.7,2.7,6.9c1.6,2.7,3.3,4.5,7.4,7.8c0.3,0.3,1.3,0.7,2,0.8
	c0.8,0.2,1.4,0.4,1.5,0.6C183.9,297,177.9,297.4,176.1,296.9L176.1,296.9z M191.2,242.5c0.4-0.6,1.2-1.6,1.8-2.2
	c0.5-0.6,1.4-1.7,1.9-2.4c0.7-1,1-1.2,1-0.9c0.1,0.6-0.9,2.1-2.9,4.2C191.2,243.4,190,244.2,191.2,242.5L191.2,242.5z M300.1,265
	c8.4-5.5,20-10.9,30-14.1c6.2-2,16.7-4.4,23-5.2l2.4-0.3l2.6-2.6c3.2-3.3,5-5.3,7.3-8.4c11.9-15.8,19.4-37.1,22.8-64.6
	c2.3-18.7,2.5-41.9,0.6-61.3c-4.7-46.7-21.7-78.1-50.7-93.2c-11.8-6.1-24.5-9.6-40.2-10.9c-4.5-0.4-18.7-0.4-23,0
	c-29.9,2.6-51.7,14-66.8,35c-13.5,18.8-21,44.8-22.8,79c-0.4,6.8-0.2,28.8,0.3,34.6c2.2,27.4,7,47.4,15.4,64.5
	c8.9,18.2,21,30.8,37.1,39c15,7.6,32.1,11.1,53.4,10.8l5.5-0.1L300.1,265L300.1,265z M339.2,73.1c-5-0.7-11.2-2.7-19-6.1
	c-9.3-4-16.2-8.5-28.3-18.1c-5.1-4.1-8.4-7.3-12.9-12.6c-2.1-2.5-2.7-3.7-3-6c-0.2-2,0.2-1.9,0.8,0.2c0.7,2,1.7,3.3,4.6,6
	c4.2,3.9,8.2,6.9,14.3,11c7.8,5.2,11.8,7.6,17.9,10.6c5.4,2.6,18.3,7.7,24.7,9.6c3.8,1.1,7.9,2.1,8.1,1.9c0.1-0.1-0.4-0.6-1.1-1.1
	c-6.6-5.3-12.6-13.4-18-24.2c-3.9-7.8-6.2-14.7-6.6-19.3l-0.2-1.9l1.3,3.8c2.1,6.2,2.2,6.3,7.3,9.7c3.8,2.5,16.3,8.8,17.5,8.8
	c0.4,0,0.2-0.7-1-3.9c-1.4-3.4-2.4-6.8-2.2-7c0.1-0.1,1,1.5,2,3.5c2.4,4.6,5.6,9,7.6,10.2c2.8,1.8,3.2,2.5,2.1,3.9
	c-0.7,0.9-1.9,1-3.2,0.2c-0.5-0.3-2.4-1.2-4.3-1.9c-8.6-3.4-14.6-7-19.6-11.7c-0.9-0.9-1.8-1.5-1.9-1.4c-0.4,0.4,5.8,11.5,9.6,17.2
	c4.6,6.9,8.5,11.3,12.9,14.2c1,0.7,2.5,1.5,3.2,1.7c2.4,0.8,1.7,2.2-1.5,2.9C348.3,73.6,342.7,73.5,339.2,73.1L339.2,73.1z"/>
<path id="path3173" inkscape:connector-curvature="0" class="st3" d="M101,679.1c-0.4-0.6,1.9-20.5,3.5-30.7c0.6-4,1.2-7.8,1.2-8.5
	l0-1.2l-5.2,0.1c-7.2,0.1-11.7-0.4-18.2-2.2c-5.6-1.5-10.7-4.6-15.4-9.3c-2.4-2.4-7.8-8.7-13.6-15.9c-0.8-0.9-2.5-2.6-4-3.7
	c-6.3-4.8-12.2-12.2-16.3-20.4c-3.3-6.7-6.7-18.1-8.2-27.5c-1.4-8.9-2.1-22.1-1.8-33.8l0.2-7.7l-0.8-0.4c-0.4-0.2-2.1-1.6-3.6-3
	c-1.6-1.4-4.5-3.7-6.4-5.1c-5.6-3.8-7.6-5.7-10-9.7c-1.5-2.5-2-4.1-2.1-6.5c0-2.4,0.7-4.3,2.5-6.7c0.6-0.8,1.8-3,2.6-5.1
	c1.6-3.8,4.3-8.5,8.2-14.4c1.2-1.8,2.2-3.5,2.2-3.8c0-0.3,0-2.4,0-4.7c-0.1-6.1,0.4-11.2,1.8-19.6c2.6-15.6,5.3-25.5,11.6-41.6
	c1.9-4.8,2.6-6.4,3.5-7.3c3.2-3.6,4.7-5.9,7.2-10.8c6.7-13.1,18.4-25.9,33.7-36.7c3.8-2.7,3.9-2.8,3.9-3.8c0-3.4,2.2-8.1,5.7-12.3
	c2.6-3,8.8-7.2,16.1-10.9c5.9-3,7.5-4.3,7.5-6.2c0-0.7-0.2-1.5-0.4-1.9c-0.6-1-0.5-2.1,0.1-2.5c0.9-0.5,2.3,0.6,3.3,2.6
	c0.8,1.7,0.9,1.9,1.1,6.5c0.2,4.2,0.3,4.9,0.8,6c0.8,1.6,1.9,2.7,2.8,2.7c0.4,0,2.8-0.6,5.4-1.2c5.8-1.5,11-2.6,18.1-3.7
	c4-0.6,5.4-1,5.7-1.3c0.5-0.6,0.2-3-0.5-4.4c-1.7-3.2-6.3-7.3-11.4-9.9c-6.6-3.4-8.7-5.3-10.8-9.7c-0.7-1.5-1.6-3.6-1.8-4.7
	c-0.5-1.8-0.5-1.9,0.1-2.9c0.9-1.7,2.3-1.5,2.9,0.4c0.7,2.1,3,4.5,5.7,5.9c1.7,0.9,4.9,1.4,7.8,1.2c4.8-0.3,7.8-1.8,11.4-5.5
	c4.7-5,5.9-8.7,7-22.4c0.8-9.6,2.1-15.4,4.3-20.1c4.3-8.8,12.1-14.9,21.1-16.5c3.3-0.6,6.9-0.4,10.9,0.7c3.2,0.8,3.6,0.8,3.6-0.5
	c0-0.4,0.3-1.2,0.7-1.7s0.7-1.2,0.7-1.4c0-0.2-0.6-1.7-1.4-3.4c-7.9-16.6-12.5-38.2-14-64.6c-0.4-6.5-0.4-25.2,0-32.1
	c2.3-45.1,13.1-76.7,33.3-97.6c15.2-15.7,34.7-24.4,60.4-27.1c5.6-0.6,22.4-0.7,27.7-0.2c20.8,2.1,37.3,8,50.9,18.2
	c15.1,11.3,25.7,27,32.9,48.5c4.8,14.3,7.4,29,9.1,50.5c0.5,6.2,0.5,33.4,0,39.5c-1.2,15.6-2.8,26.5-5.5,37.6
	c-4.6,18.6-11.5,33.6-21.3,46.2l-2.6,3.3l-4.3,0.3c-2.4,0.2-4.4,0.3-4.4,0.2c-0.1-0.1,1-1.3,2.3-2.7c6.8-7.1,11.7-14.3,16.2-23.4
	c8.7-17.9,13.6-40.2,15-68.6c0.4-7.4,0.2-28.3-0.3-34c-1.6-20-4.4-34.7-9.2-48.7c-8.8-25.6-23.4-43.3-44.2-53.5
	c-12.2-6-24.7-9.1-40.9-10.2c-6-0.4-18.2-0.2-23.5,0.4c-19.5,2.2-34,7.6-47.2,17.4c-3.6,2.7-11.3,10.2-14.1,13.8
	c-14.9,18.9-23,44.3-25.4,80.1c-0.4,6.4-0.4,26.9,0,34c1.8,28.4,6.9,50.5,16,68.6c10.2,20.4,24.9,34.1,44.7,41.8
	c12.2,4.8,24.2,6.9,40.9,7.2c4.8,0.1,8.8,0.3,8.8,0.4c0.1,0.1-0.7,0.8-1.7,1.5c-1,0.7-3.5,2.6-5.4,4.2l-3.6,2.9l-3-0.1
	c-15.8-0.4-30.9-3.5-43.1-8.9c-1.7-0.8-3.3-1.3-3.5-1.2c-0.2,0.1-0.5,1.1-0.7,3c-0.9,7.6-2.2,14.1-3.6,18.6
	c-2.7,8.1-8.6,16.7-13,18.7c-0.9,0.4-2.7,1.2-4,1.8c-2.5,1.1-8.7,4.5-15.6,8.6c-2.3,1.4-5.5,3.1-7.1,3.9c-1.5,0.8-2.9,1.5-2.9,1.6
	c-0.3,0.4,2.8,5.1,4.7,7.3c1.2,1.3,4,4.5,6.4,7.1c4.9,5.4,6.2,6.7,10,9.7c5.8,4.6,12.5,8.9,19.7,12.6c5.2,2.7,8.7,4.1,15.4,6.2
	c5.7,1.8,5.1,1.3,5.5,5.6l0.2,2.3h-0.7c-0.9,0-8.4-2.4-13.1-4.2c-11.6-4.5-23.2-12.1-32-20.9c-2.8-2.8-4.1-4.5-8.5-10.7
	c-4.6-6.5-7-10.5-8.4-13.9c-0.5-1.2-0.6-1.2-6.7,0.4c-3.4,0.9-5.1,1.2-6.6,1.2c-1.2,0-1.8-0.1-1.7-0.2c0.1-0.1,1.9-0.9,3.8-1.7
	c4-1.6,4.7-2.1,3.7-2.3c-2.9-0.6-14.1-1.6-20-1.7c-7.4-0.2-11.3,0.1-18.9,1.2c-22.5,3.2-41.7,9.6-58,19.3
	c-12.3,7.3-23.5,17.1-31.4,27.6c-6.3,8.3-16.9,24.7-18.7,28.9c-1.3,3-4.8,12.6-6.6,18.1c-2.4,7.4-4.3,14.9-6.1,24.6
	c-2,10.6-2.4,14-3,26.3l-0.1,2.7l-2.9,5.5c-1.6,3-3.3,6.3-3.8,7.1c-1.2,2.1-1.2,2.5,0,2.3c5.1-1,10.8-0.6,17.3,1
	c4.8,1.2,15.6,5,21.7,7.6c11.5,5,19.7,9.7,31.1,17.8c9.2,6.5,10.4,7.4,12.2,9.2c1.1,1,2.1,1.9,2.4,1.9s0.8-0.5,1.3-1.2
	c2.2-2.8,6.5-7.8,9.8-11.4c3.5-3.8,3.6-4,3.5-4.9c-0.1-0.6-0.4-2.5-0.7-4.3c-0.3-1.8-0.6-4.4-0.7-5.8l-0.1-2.5l0.5,2.2
	c0.3,1.2,0.9,3.9,1.4,5.9s0.9,3.8,1.1,3.9s2-1.3,4.1-3.2c4.8-4.3,8.3-7.1,12.5-10c14.1-9.8,26-16.4,46-25.5
	c16.8-7.6,22.5-10,39-16.1c10.7-4,24.5-9.5,28.8-11.7c10.2-5.1,21.2-11.8,29.7-18.2c6-4.5,7.5-5.7,10.4-8.2
	c5.7-5.1,7.7-7.8,9.4-13.1c0.7-2.1,1.6-5,2.2-6.5c0.5-1.5,1-2.9,1-3.2c0-0.2,0.5-1.7,1.1-3.2l1.1-2.7l-1.2-2.2
	c-1.7-3.1-1.7-3.2,0.7-3.1c1,0.1,2.1,0,2.3-0.1c0.2-0.1,1.4-2.1,2.6-4.4c4.3-8.2,6.8-12.3,13.4-21.9c1.6-2.3,3.2-4.7,3.6-5.3
	c0.4-0.6,1.5-2.1,2.4-3.3s2.8-3.4,4-4.9s3.4-4,5-5.5c5.8-5.6,17.4-13.5,22.9-15.4c4.2-1.5,6-1.7,11.8-1.5c4.3,0.2,5.2,0.1,5.1-0.2
	c-0.3-0.8-6.6-4-12.9-6.5c-3.4-1.4-8.3-8-11-15c-1.5-3.9-3.8-13.9-3.4-14.9c0.2-0.5,2.6-1.2,2.9-0.9c0.1,0.1,0.7,1.7,1.2,3.5
	c3.3,10.6,8,18.8,14,24c2.3,2,7.8,5.8,12.4,8.6l2.4,1.4l3.1-0.2c6-0.5,8.8-0.2,11.7,1.2c1.8,0.9,4.8,3.1,5.4,4
	c0.2,0.4,1,0.8,1.9,1.1c0.9,0.3,2,0.9,2.8,1.6c0.7,0.6,1.5,1.2,1.9,1.3c0.8,0.3,3.6,3.6,4.7,5.5c1.2,2.1,2.5,6.2,2.5,7.8
	c0,1.2,0.1,1.4,1.4,2.8c0.8,0.8,1.4,1.7,1.4,2c0,1-0.8,3.4-1.6,4.7c-0.8,1.4-4.7,5.2-6.5,6.3c-2,1.2-5.8,0.9-15.4-1.3
	c-4.1-0.9-6.1-0.8-9.3,0.6c-1.5,0.7-2.8,1.4-3.4,2c-0.5,0.5-2.4,2.5-4.2,4.3c-2.8,2.9-3.4,3.6-4.5,5.9c-1.9,3.9-2.2,5.5-2.2,14.4
	c0,4.1,0.1,9.2,0.2,11.3c0.2,3.4,0.3,4,0.7,4.2c1.2,0.6,6.6,0,8.3-0.9c1.7-0.9,2.3-2.1,3.7-6.6c1.2-3.9,4.2-7.4,8.1-9.2
	c2.9-1.4,5.3-2,7.5-1.8c1.6,0.1,2,0.2,3,1c0.7,0.5,1.3,1.3,1.5,1.8c0.7,1.7,1,5.8,0.8,11c-0.1,2.7-0.2,6.5-0.3,8.5
	c-0.1,3.9-0.8,6.8-1.9,7.8c-0.3,0.3-2.5,2.1-4.9,3.9c-2.4,1.8-5.6,4.4-7.2,5.7c-1.6,1.3-3.5,2.6-4.1,3s-3.3,2-5.8,3.5
	s-6.2,3.5-7.9,4.3c-1.8,0.8-3.8,1.8-4.6,2.2c-0.8,0.4-3,1.6-5.1,2.7s-5,3-6.6,4.1c-3.2,2.4-6.4,4.2-8.8,4.9
	c-4.3,1.2-11.6,1.6-17.7,0.9c-4.2-0.5-7.1-1.3-9.2-2.5c-1.3-0.8-3.4-2.6-3-2.6c0.1,0,0.9,0.3,1.8,0.7c2.9,1.3,6.4,2,11.3,2.3
	c4.9,0.3,8.2,0.1,13.3-0.9c3.2-0.6,4.8-1.3,8.4-3.6c4.7-3.1,7-5.8,10.1-11.9c3.7-7.3,5.1-17,4.5-30.9c-0.4-8.2-0.4-17.8,0-20.2
	c0.5-2.9,1.8-6.6,3.3-9.1c1.7-2.7,5.1-6.3,7.5-7.7c0.9-0.5,2.9-1.8,4.4-2.7c6.1-3.8,7.8-4,17.4-1.6c4.5,1.1,6.4,1.1,8.9,0
	c2.4-1.1,5.4-4,6-6c0.4-1.2,0.4-1.5,0.2-1.9c-0.6-0.8-7.3-4.3-9.7-5.1c-1.3-0.4-3.6-1-5-1.3c-7.9-1.6-13.6-0.8-20.6,2.9
	c-2.8,1.4-3.7,2.1-8.6,6c-1.1,0.9-2.1,1.6-2.2,1.5c-0.2-0.2,4.6-5.1,7.3-7.4c2.8-2.3,5.8-4,9.4-5.3c2.8-1,5-1.3,9.2-1.3
	c6.1,0,11.4,1.2,16.2,3.6c1.5,0.8,2.9,1.4,3,1.4c0.4,0,0-3.3-0.6-5c-1-2.8-4-6.5-6.7-8.1l-1.5-0.9l-4.3,0c-8.1,0-18.9,1-21.6,1.9
	c-4.4,1.4-11.5,6.3-20.2,14c-3.2,2.9-4.3,3.8-4.3,3.5c0-0.2,4.5-5.3,5.3-6.1c0.3-0.3,1.9-1.9,3.5-3.6c4.9-5.2,8.2-7.7,12.7-9.9
	c3.6-1.7,8.1-2.5,17.8-3.1c2.5-0.2,4.6-0.4,4.8-0.5c0.5-0.5-2.9-2.3-5.8-3.1c-2.1-0.5-2.1-0.5-6.4,0c-7.9,1-16.6,3.4-20,5.4
	c-4.2,2.5-9.7,6.9-14.5,11.7c-4.5,4.5-7.2,7.1-7.2,7c0-0.2,3.6-4.9,6.1-7.9c5.3-6.5,13-12.5,18.7-14.5c3.3-1.2,3.6-1.4,2.1-1.4
	c-2.1,0-8,1-10.8,1.9c-4.1,1.3-12.6,5.8-18.9,10.1c-1.9,1.3-8.7,8.1-10.9,10.9c-1.2,1.5-2.9,3.7-3.8,4.8c-0.9,1.1-2,2.7-2.3,3.5
	s-1.9,3.1-3.3,5.1c-2.8,3.8-5.1,7.2-7.4,11.3c-2.7,4.8-5.3,9.9-6.6,12.7c-1.5,3.4-6.7,16.7-6.7,17c0,0.1-1,2.5-2.1,5.1
	c-2.4,5.4-3.6,7.2-8.4,12.1c-2.5,2.5-6.8,6.2-8.1,6.9c-0.4,0.2-2.9,2-5.6,4.1s-6.2,4.6-7.8,5.7c-5.6,3.8-16.6,10.1-21.5,12.5
	c-4.7,2.3-17.9,7.8-29.1,12.2c-15.4,6-21.6,8.8-38.5,16.9c-9.1,4.4-11.7,5.7-20,10.4c-9.8,5.6-11.4,6.5-18.1,11.2
	c-10.2,7-14.2,10.3-22.1,18.3c-10.4,10.4-17.2,20.1-21.8,30.6c-1.6,3.8-2.2,5.6-3.5,11.5c-0.7,3.3-1.2,5-1.9,6.2
	c-0.5,0.9-1.4,2.5-1.9,3.5c-0.5,1-1.1,2.4-1.3,3c-0.4,1.4-0.8,1.7-1,0.7c0-0.4-0.4-2.2-0.9-4c-0.4-1.8-0.8-3.9-0.8-4.5
	c0-2.8,2.7-11.4,5-15.9c1.8-3.5,5.7-10.2,7.7-13.2c0.9-1.3,1.6-2.5,1.6-2.6c0-0.2-0.8-0.7-1.9-1.2c-1-0.5-8-4-15.4-7.8
	c-20.1-10.3-30.6-14.8-44.8-19.3c-3.1-1-3.6-1.1-3.9-0.7c-0.6,0.8-1.8,12.5-1.7,16.6c0.1,5,0,5.6-0.3,7.8c-0.3,1.7-0.3,4.3,0,11.7
	c0.6,20.4,2.4,32.1,6.9,45.5c4.2,12.8,10.6,22.7,19.2,30.4c4.1,3.6,6.7,5.3,11.4,7.7c2.3,1.2,4.2,2.1,4.1,2.2
	c-0.3,0.3-9.5-2.8-11.8-3.9c-1.5-0.8-1.6-0.8-1.6-0.3c0,0.5,13,14.2,15.3,16.2c2.6,2.2,6.9,4.9,9.4,5.9c6.2,2.5,16.2,3.7,24.6,3
	c8.2-0.7,18.1-2.4,24.7-4.3c4-1.2,12.1-4.4,16.7-6.7c1.9-0.9,4.7-2.6,6.2-3.7c1.6-1.1,4-2.7,5.4-3.5c1.4-0.8,3.6-2.3,4.9-3.2
	c1.2-1,4.3-3.2,6.8-5c2.5-1.8,6.1-4.6,8.1-6.2c4.7-3.9,15.7-15,21.7-21.9c2.6-3,6-6.9,7.5-8.6c3-3.3,14.2-17.1,22.2-27.3
	c20.3-25.7,28.6-36.5,40.5-52.8c8.4-11.5,10.7-14.4,17.2-22.2c6.8-8,12.1-14.1,16-18.2c1.8-1.9,4.5-4.9,6.1-6.6
	c3.2-3.6,6.9-7.4,6.9-7c0,0.2-0.6,1.1-1.4,2.1c-5.4,6.7-6.9,8.5-7.2,8.7c-0.9,0.5-9.3,10.4-16,18.9c-6.7,8.5-10.6,13.7-17.4,23.3
	c-9.3,13.1-16.9,23.3-36.6,48.4c-15.4,19.8-24.1,30.6-28,35c-1.1,1.2-4.5,5.2-7.6,8.8c-6.6,7.7-17.3,18.6-22.2,22.7
	c-1.9,1.6-4.9,3.9-6.7,5.2c-1.8,1.3-4.8,3.4-6.6,4.8c-1.9,1.4-5.2,3.4-7.4,4.6c-2.2,1.2-5.8,3.2-7.9,4.5c-4.8,3-7.6,4.3-13.7,6.4
	c-7.8,2.8-12,3.8-19.8,5c-5.5,0.8-5.2,0.7-5.2,1.7c0,1.3-4.4,31.5-5.5,38c-0.3,1.5-0.4,1.8-1,2C102.9,679.4,101.2,679.4,101,679.1
	L101,679.1z M109.3,638.5c-0.1-0.1-0.3-0.2-0.6-0.1c-0.6,0.2-0.5,0.4,0.2,0.4C109.2,638.8,109.4,638.7,109.3,638.5z M24.4,505.2
	c0.3-2.3,0.7-6,1.1-8.2c0.4-2.9,0.5-4,0.3-4.3c-0.3-0.4-3.6-1.2-7.7-1.9c-3.7-0.6-7.9-0.5-9.6,0.4c-2.3,1.1-2.4,2.6-0.1,6.2
	c1.7,2.7,3.4,4.2,8.5,7.6c2.4,1.6,4.8,3.3,5.3,3.8C23.8,510.1,23.9,510,24.4,505.2L24.4,505.2z M360,424.7c6-3,23.5-14.3,29.5-19.1
	c1.9-1.5,4-3.1,4.7-3.6c0.9-0.6,1.3-1.2,1.5-1.9c0.8-3.3,1.3-20.2,0.6-22.4c-0.6-2.1-0.8-2.2-4-2.1c-4.8,0.1-7.8,1.3-10.2,4
	c-1.6,1.8-2,2.7-2.7,6.8c-0.6,3.6-0.6,3.6-1.7,4.6c-0.9,0.8-1.7,1.2-3.5,1.8c-1.3,0.4-3.5,1.1-4.8,1.5s-2.9,0.8-3.6,0.8h-1.3l-0.2,4
	c-0.5,10.1-2.3,17.3-5.8,23.3c-1,1.6-1.8,3.1-1.8,3.2C356.8,426.2,357.7,425.9,360,424.7z M81,338.2c7.3-4.5,18.7-9.7,28-12.7
	c1.7-0.6,3.1-1.1,3.1-1.3c0-0.2-0.4-0.8-1-1.4c-1.4-1.6-1.7-2.5-1.9-6.4c-0.3-5.3-0.4-5.6-1.5-3.8c-1,1.6-3.6,3.3-8.5,5.8
	c-7.3,3.7-12.8,7.5-15.5,10.8c-1.8,2.2-4.8,7.9-4.8,9.2c0,0.5,0.1,1,0.1,1C79.2,339.3,80,338.8,81,338.2z M185,319.2
	c3.3-0.8,14.6-5.8,19.2-8.5c4-2.4,9.4-6.1,11.6-8c6.4-5.5,11.6-15.5,15.1-29.1c0.8-3.2,0.8-3.3,0.4-4.8c-1-3.4-2.3-5-6.3-7.8
	c-1.2-0.8-2.8-2.3-3.6-3.2c-0.8-0.9-2.3-2.4-3.4-3.4c-1.1-1-3.1-2.7-4.3-3.9s-2.3-2.1-2.4-2c-0.1,0.1,0.2,1.3,0.6,2.6
	c0.4,1.3,0.9,3.1,1,3.9c0.3,1.7,0.4,6.1,0.1,6.5c-0.1,0.2-0.5-1.4-0.8-3.6c-0.7-4.3-2.2-9.9-3.2-12.1c-0.7-1.5-4.6-5.9-5.2-5.9
	c-0.2,0-0.5,0.6-0.7,1.5c-0.3,1.5-2.7,6.5-3.5,7.3c-0.4,0.4-0.4,0.3-0.2-0.3c0.1-0.4,0.8-2.2,1.6-4.1c0.7-1.9,1.4-3.9,1.4-4.5
	c0-1.1,0-1.1-1.9-2.2c-1.8-1.1-3.3-2.3-5-4.3c-0.7-0.9-1.1-1-3.4-1.6c-7.8-1.8-14.3-1-20,2.5c-3,1.8-7.4,6.2-9,8.9
	c-3,5.1-4.4,11.1-5.3,22.7c-0.4,5.5-1.2,12-1.8,13.8c-0.6,1.9-2.6,6-3.9,7.8c-1.7,2.3-5,5.6-7.1,7c-3.4,2.2-8.6,3.5-12.9,3.1
	c-2.8-0.3-2.5,0.2,1.4,2.3c4.1,2.2,6.7,4,8.9,6.2c3.6,3.5,4.8,5.7,5.1,9c0.1,0.9,0.3,1.7,0.4,1.8c0.1,0.1,2.3,0,5-0.1
	c7.6-0.4,15.8,0.2,26.6,2.2C182.7,319.6,183.5,319.6,185,319.2L185,319.2z M175,296.4c-3.9-1.8-5.6-5.1-7.3-13.8
	c-1-5-0.6-5.6,3.3-4.8c1.3,0.3,3.6,0.5,5.2,0.5c2.6,0,2.9-0.1,4.6-0.9c1-0.5,2.4-1.4,3.1-2.1c1.4-1.4,1.6-1.5,1.4-0.6
	c-0.4,1.3-1.4,2.5-3.3,3.6c-2.8,1.7-4.7,2.2-8.7,2c-2.9-0.2-3.2-0.1-3.2,0.3c0,1.1,2.3,6.2,3.8,8.4c0.4,0.6,2.1,2.4,3.7,3.8
	c2.4,2.2,3.1,2.7,4.4,3.1c0.9,0.2,1.4,0.6,1.3,0.7c-0.1,0.1-1.7,0.3-3.5,0.4C176.6,297,176.4,297,175,296.4L175,296.4z M191.4,242.6
	c0-0.1,0.4-0.6,0.9-1.2c0.5-0.6,1.5-1.7,2.2-2.6c1.4-1.7,1.7-1.7,0.6,0C193.9,240.6,191.4,243.1,191.4,242.6z M470.7,679
	c-0.4-0.5-1.9-10.1-4.7-29.8c-2-14-2.5-17-10.4-58.8c-0.6-3.2-1.6-8.8-2.2-12.6c-2.2-14.1-3.5-21.4-3.8-21.5
	c-0.4-0.1-0.4-0.9,0.3-3.9c0.3-1.4,0.7-4.1,1-5.9c0.5-3.8,2.5-10.9,7.9-27.3c4-12.3,5.6-17.8,7.4-26.9c0.2-1.1,0.5-2.1,0.5-2.2
	c0.4-0.4-0.4,7-1.1,10.4c-0.2,1-0.8,3.5-1.2,5.6c-0.9,4.2-2.4,10.7-4.1,17.7c-0.7,2.7-1,4.6-0.9,4.8c0.1,0.1,1.2-0.7,2.6-2.1
	c5.5-5.5,20-16.8,30-23.4c6.6-4.3,10.9-7,17.2-10.4c23.3-12.7,37.5-17.6,49.1-17.1c1.8,0.1,3.3,0.1,3.4-0.1c0.1-0.1-1.2-2.7-2.9-5.7
	c-1.9-3.4-3.3-6.4-3.9-8.1c-0.5-1.4-1.1-3.1-1.4-3.7c-0.3-0.6-0.8-2.1-1.2-3.3c-0.4-1.2-1.4-4-2.3-6.1c-2.4-5.6-2.5-6.3-0.7-3.5
	c1.4,2.2,1.7,1.7,1-2c-0.3-1.6-1.1-6-1.7-9.7c-2.2-13.4-3.6-18.4-8-29.9c-1.1-2.8-2.5-6.7-3.3-8.8c-4.2-11.7-6.4-16.2-11.7-24.2
	c-6.4-9.5-17.1-19.9-27.8-27.1c-2-1.4-3.8-2.6-3.9-2.7c-0.2-0.2,0.8-2.2,1.2-2.2c0.4,0,3.6,2.1,7.1,4.6
	c17.2,12.2,30.5,27.9,35.5,41.7c0.4,1.1,1,3.1,1.4,4.5s1.1,3.1,1.5,3.9c2,3.5,6.7,18.5,8,25.8c0.5,2.7,1,6.2,2.4,18.2
	c0.6,5.2,1.2,10.3,1.4,11.4c0.3,2.2,0.7,3,4.6,8.4c2.7,3.8,4.7,7.8,8.6,16.8c0.9,2.1,2.1,4.7,2.8,5.7c1,1.6,1.2,2.2,1.2,3.7
	c0.1,2.4-0.4,4-2.1,6.5c-2.1,2.9-5.1,5.6-9.1,8c-2.9,1.7-3.5,2.2-3.5,2.7c0,0.4,0.4,2.7,0.8,5.1c2.5,13.8,4.6,31.2,5.7,47.8
	c1.3,19.7,0.4,61.1-1.9,93.7c-0.2,3.1-0.5,7.1-0.5,8.9c-0.1,3.7-0.9,11.8-1.3,13.4c-0.1,0.6-0.2-3.5,0-9.5c0.2-13.6,0.1-47-0.2-67.6
	c-0.6-34-2-56.8-5.1-80.8c-1.6-12.6-4.1-27.4-4.8-28.1c-0.4-0.4-3.6,0.4-10.2,2.6c-6.3,2.1-9,3.2-17.1,7
	c-13.7,6.5-24.4,12.5-35.9,20.2c-5.3,3.5-14.5,10-18.5,13.1c-1.7,1.3-4,3-5.2,3.8c-1.1,0.8-2.2,1.6-2.3,1.8s-0.8,2.8-1.6,5.8
	c-1.2,4.7-1.7,6.1-3.4,9.7c-3.1,6.6-3.3,7-3.1,8c0.1,0.5,0.7,3.1,1.4,5.7s1.4,6,1.7,7.5c1.3,7.4,3,14.9,9,39.4
	c6.3,25.5,8,34.7,10.3,54.6c0.9,7.9,1.7,15.9,1.6,16.1c0,0-0.7,0.1-1.6,0.2C471.4,679.3,470.9,679.3,470.7,679L470.7,679z
	 M556.5,496.5c4.8-5.1,7.6-9,7.6-10.5c0-2.2-5.2-3.9-10.5-3.4c-1.8,0.1-2.4,0.3-2.6,0.6c-0.1,0.2,0.1,1.3,0.3,2.4
	c0.3,1.1,1,4.1,1.6,6.8s1.1,5.1,1.2,5.4s0.2,0.6,0.4,0.6S555.6,497.5,556.5,496.5L556.5,496.5z M476.3,331.1
	c-0.5-0.5-0.6-1.6-0.2-1.9c0.3-0.2,3.9,1.4,4.4,1.9c0.4,0.4,0.2,0.4-1.7,0.4C477.3,331.6,476.6,331.5,476.3,331.1z M457.4,325.1
	c-0.1-0.1-1.2-0.3-2.4-0.6c-2.3-0.5-3.4-1-5.5-2.8l-1-0.8l0.9,0c0.5,0,2.2,0.3,3.7,0.7c5.4,1.3,4.8,1.1,4.8,2.3
	C458,324.8,457.7,325.4,457.4,325.1L457.4,325.1z M432.1,320c-8.4-1.2-20-1.4-28.2-0.4c-3.5,0.4-3.8,0.4-4.6,0
	c-0.5-0.2-0.8-0.6-0.8-0.8c0.2-0.5,1.2-0.7,7.3-1.5c9-1.2,18.2-1,28.5,0.5c2.3,0.3,2.3,0.3,2.6,1.3c0.2,0.5,0.3,1,0.2,1.2
	C437.1,320.7,435.9,320.6,432.1,320L432.1,320z M341.4,73.2c-1.4-0.1-3.6-0.4-4.8-0.7c-4.8-1-15.2-4.8-21.3-7.9
	c-5.6-2.8-12.9-7.7-20.9-13.9c-6.4-5-8.8-7.3-13.5-12.5c-3.8-4.2-4.4-5.3-4.6-7.4c-0.1-1.6-0.1-1.6,1.1,1.1c0.6,1.3,5.1,5.8,9.2,9.1
	c1.5,1.2,5.4,4,8.8,6.3c12.9,8.6,18.1,11.3,31.2,16.2c10.4,3.9,18.2,6.3,19.9,6c0.5-0.1,0.4-0.3-1.2-1.5c-7.7-6.1-15.7-18-21.2-31.6
	c-1-2.5-2.1-5.5-2.4-6.7c-0.6-2.4-1-5.1-0.8-5.1c0.1,0,0.5,1.2,1,2.7c1.6,4.7,2,5.4,4.4,7.2c3.1,2.3,6.5,4.3,11,6.6
	c5.5,2.8,9.4,4.4,9.6,4.1c0.1-0.1-0.2-1.3-0.8-2.8c-1.3-3.2-2.3-6.3-2.3-6.8c0-0.2,0.8,1,1.7,2.7c1.6,3.1,4.7,7.4,6.2,8.8
	c0.4,0.4,1.4,1.1,2.2,1.5c1.2,0.7,1.4,0.9,1.5,1.8c0.1,0.7-0.1,1.2-0.5,1.6c-0.7,0.7-1.3,0.7-2.6,0c-0.6-0.3-2.7-1.2-4.7-2
	c-5.2-2.2-6.4-2.7-9.2-4.3c-3.5-1.9-7.6-4.9-10.2-7.4c-1.2-1.1-2.2-2-2.3-1.8c-0.4,0.4,6,12.1,10,18.1c2.8,4.2,5.5,7.4,8.6,10.5
	c2.4,2.4,6,4.9,7.4,5.2c1.9,0.4,1.4,1.8-0.9,2.5C349.1,73.3,344.7,73.5,341.4,73.2L341.4,73.2z"/>
<path id="path3171" inkscape:connector-curvature="0" class="st4" d="M101.5,679.1c-0.5-0.2-0.5-0.4-0.3-2.6
	c0.8-8.5,2.3-20.9,3.4-27.8c0.7-4.5,1.3-8.5,1.3-9l0-1l-6.3,0c-7.2,0-10.5-0.4-16.3-1.9c-9.4-2.4-15.3-7.1-26.6-21.4
	c-0.2-0.3,2.7,2.6,6.4,6.4c7.3,7.3,9.3,9,14.1,11.2c2.6,1.2,8.1,2.6,12.6,3.2c8.7,1.1,22.4-0.1,34.2-3c9.1-2.3,20.8-7.2,26.2-11
	c1.4-1,3.8-2.6,5.3-3.4s4.8-3.1,7.3-4.9s6.1-4.6,8-5.9c7.8-5.7,18.1-15.7,27-26.2c2.3-2.6,5.2-6.1,6.6-7.6c1.4-1.5,3.7-4.2,5.1-5.9
	c8.5-10.3,35.1-43.9,43.4-54.9c2.7-3.6,6-7.9,7.2-9.5s4.5-6.1,7.4-10c2.8-3.9,6.5-8.9,8.1-11c5.5-7.3,18.4-22.4,25-29.4
	c2-2.1,4.7-5,5.8-6.3c2.6-3,6.7-7.1,6.3-6.2c-0.2,0.4-0.7,1.1-1.2,1.6s-1.7,2-2.6,3.2c-1,1.2-2.7,3.2-4,4.5
	c-7.8,8.2-20.3,24.1-33.1,42c-10.6,14.9-19.7,26.8-45.2,59.4c-8.2,10.4-16.2,20.3-21.2,26.1c-2.4,2.7-5.7,6.6-7.4,8.5
	c-1.7,2-5.5,6.1-8.3,9.1c-7.7,8-12.9,12.6-20.7,18.1c-2.3,1.6-5.2,3.7-6.4,4.5c-1.2,0.9-3.6,2.3-5.5,3.3c-1.9,0.9-5.3,2.9-7.6,4.3
	c-4.8,3-6.3,3.7-9.7,5.1c-10.2,4-16.9,5.7-28.5,7.2c-2.1,0.3-3.8,0.6-3.8,0.7c0,0.4,1.1,0.6,2,0.4c0.8-0.2,0.9-0.2,0.7,0.7
	c-0.1,0.5-0.9,5.7-1.7,11.6c-1.7,12.1-3.9,26.7-4.1,27.3C104.1,679.1,102.4,679.4,101.5,679.1L101.5,679.1z M470.5,678.5
	c-0.3-1.4-2.5-16-4.4-29.5c-1.8-12.8-3-19.4-9.2-52c-1.2-6.5-2.7-14.8-3.3-18.5c-0.6-3.7-1.5-9.3-2-12.3c-0.5-3-1-6.1-1.1-6.9
	l-0.2-1.4l0.5,1.6c0.6,1.9,2.3,9.6,2.6,11.6c0.3,2.8,2.6,12.8,7.5,32.7c6.5,26.4,7.3,30.1,9.4,43.6c1.2,7.9,3.6,28,3.6,30.8
	c0,0.8,0,0.8-1.6,0.8C470.8,679.1,470.6,679,470.5,678.5L470.5,678.5z M557.7,632.6c0-57.1-1-83-4.4-113.1
	c-1.7-15.5-4.9-34.9-5.8-35.8c-0.4-0.4-2.2-0.1-7.2,1.4c-7.5,2.2-12.7,4.4-24.6,10.2c-14.8,7.2-25.3,13.5-40.5,24.2
	c-5.3,3.7-14.9,10.8-16.5,12.1c-0.7,0.6-1,1.3-2.3,6.4c-1.3,4.8-1.8,6.3-3.2,9.2c-1.9,3.8-3.5,7.8-3.5,8.4c0,0.2-0.1,0.3-0.2,0.3
	c-0.1-0.1-0.1-1,0.1-2.1c0.2-1.1,0.7-3.9,1-6.3c0.8-5,2.3-10.5,7.8-27.2c3.9-11.8,4.9-15.5,6.6-22.8c0.6-2.7,1.2-5.1,1.2-5.2
	c0.3-0.6-0.2,4-0.7,6.6c-0.8,4.3-2.6,12.4-4.7,21.1c-1.9,7.7-2.1,9.2-1.7,9.2c0.1,0,0.9-0.7,1.7-1.5c3.8-3.8,14.1-12.3,22.2-18.2
	c12.1-8.8,21.2-14.3,37-22.2c12.4-6.3,21.8-9.6,30-10.9c3-0.5,8.3-0.6,10.3-0.3c1.1,0.2,1.2,0.1,1.2-0.4c0-0.3-1.3-2.9-2.9-5.8
	c-2.1-3.7-3.2-6.1-4-8.4c-0.6-1.7-1.2-3.5-1.5-3.9s-0.8-2-1.3-3.4c-0.5-1.5-1.5-4.1-2.2-5.9c-0.8-1.8-1.3-3.3-1.2-3.3
	c0.1-0.1,0.4,0.4,0.8,1c0.8,1.3,1.3,1.4,1.3,0.4c0-1.1-2.9-18.2-4-23.5c-1.2-6-3.5-12.9-8.4-25.4c-0.4-1-1.5-3.9-2.4-6.6
	c-2.6-7.5-5.5-13-10.2-20.2c-6.6-9.8-16.8-19.8-28.1-27.4c-1.8-1.2-3.4-2.4-3.4-2.7c0-0.5,0.7-1.6,1.1-1.6c0.4,0,6.8,4.4,9.9,6.8
	c9.3,7,17.3,15,23.5,23.4c4.8,6.5,8.6,14.3,10.4,21c0.2,0.9,0.8,2.4,1.3,3.3c1.7,3.1,5.5,14.7,7.3,22.1c1.1,4.5,1.4,7.1,2.8,18.8
	c1,8.5,1.7,14,2.1,16.2c0.1,0.7,2.7,4.6,5.3,8.1c1.8,2.4,4.3,7.5,8.2,16.7c0.7,1.7,1.8,3.9,2.4,4.7c2.5,3.9,1.4,7.9-3.7,13
	c-2.2,2.2-3.4,3.1-6.1,4.7c-1.8,1.1-3.5,2.1-3.6,2.3c-0.2,0.3-0.1,1.6,0.7,5.8c2.6,14.4,4.5,30.2,5.5,45.9c1.1,16.4,1,31.8-0.1,65.3
	c-0.4,11.7-2.4,44.5-3,49C557.8,666.8,557.7,651.8,557.7,632.6z M556.4,496.9c4.5-4.9,6.9-8,7.7-9.9c0.5-1.2,0.5-1.3-0.1-2
	c-0.7-1-2.6-1.9-4.6-2.3c-2-0.4-8-0.2-8.4,0.2c-0.2,0.2-0.1,1.3,0.7,4.4c0.5,2.2,1.3,5.6,1.7,7.6C554.2,499,554.4,499,556.4,496.9
	L556.4,496.9z M61.3,613.6c-2.1-0.7-4.7-1.7-5.7-2.2s-2.1-0.9-2.3-0.9s-0.9-0.5-1.6-1c-0.6-0.6-2.3-2-3.7-3.1
	c-6-4.9-12.2-13.2-15.8-21.4c-1.7-3.8-3.9-10.7-5.1-15.6c-2.8-11.4-3.8-22.7-3.7-40.7l0.1-10.4l-0.9-0.5c-0.5-0.3-1.8-1.3-2.9-2.3
	c-2.6-2.5-3.9-3.5-7.6-6c-1.8-1.2-3.9-2.8-4.8-3.5c-1.9-1.6-4.2-4.7-5.5-7.5c-1-1.9-1-2.2-1-4.6c0-2.8,0.5-4.2,2.3-6.6
	c0.6-0.8,1.8-3.2,2.8-5.3c1.8-4.1,5-9.7,8.3-14.6l2-2.9l0.2-8c0.2-8.3,0.2-8.8,2.1-19.6c2.2-12.8,4.9-22.6,10.3-36.6
	c3.1-8.2,3.3-8.6,4.6-10c3.2-3.6,4.6-5.9,7.2-10.8c4.1-7.9,9-14.3,17.2-22.5c5.6-5.6,10.1-9.4,16.3-13.8c4.1-2.9,4.2-3,4.1-3.8
	c-0.4-1.9,1.3-6.2,3.6-9.7c3.1-4.6,8.6-8.7,17.4-13.1c7.8-3.9,9.2-5.4,7.8-8.6c-0.7-1.6-0.5-2.3,0.5-2.4c0.8-0.1,2.4,1.6,3.1,3.4
	c0.5,1.2,0.6,2.4,0.7,5.7c0.1,2.3,0.3,4.6,0.4,5.2c0.3,1.3,2,3.5,2.9,3.7c0.4,0.1,2.2-0.2,4.4-0.8c5.2-1.4,11.6-2.8,18.8-4
	c3.4-0.6,6.3-1.1,6.5-1.2c0.9-0.6,0.4-4.1-1-6.1c-1.2-1.8-4-4.6-6-6c-1-0.7-3.3-2.1-5.2-3.1c-6.3-3.4-8.2-5.1-10.3-9.3
	c-2.2-4.6-2.6-6.7-1.4-8c0.4-0.4,0.8-0.7,0.9-0.7c0.4,0,1.1,0.9,1.4,2c0.4,1.4,2.8,3.9,4.8,5.1c2.1,1.3,4,1.7,7.3,1.7
	c5.3,0.1,8.6-1.3,12.2-4.8c4.1-4,5.9-7.6,6.7-13.2c0.3-1.9,0.8-6.3,1.1-9.7c0.9-10.3,2.2-16.3,4.6-20.9c3-6,8-10.8,14-13.7
	c4.2-2,5.6-2.3,10.7-2.3c4,0,4.7,0.1,7.2,0.8c1.5,0.4,2.9,0.7,3.1,0.6c0.2-0.1,0.3-0.5,0.3-0.9c0-0.7,0.4-1.4,1.4-2.8
	c0.3-0.4,0-1.1-1.4-4.2c-7.8-17.2-12.2-37-13.7-62.3c-1-15.7-0.5-36.5,1.2-51.7c5.9-52.6,26.4-85.8,61.7-99.8
	c8.8-3.5,17.9-5.7,29.4-7c6-0.7,25.4-0.7,31.3,0c18.2,2.2,31.9,6.9,44.4,15.1c6.4,4.2,13.9,11.1,18.9,17.3c2.6,3.2,6.7,9.3,8.7,12.9
	c8.6,15.2,14.6,35.6,17.1,58.7c1.9,17.1,2.2,39.2,0.8,56c-2.5,31-9.6,54.9-21.9,73.6c-2.2,3.4-6.2,8.6-6.9,9.2c-0.2,0.2-2,0.4-4,0.5
	c-2,0.1-3.8,0.3-4,0.3c-0.8,0.3-0.3-0.4,1.7-2.5c10-10.6,17.1-22.9,22.3-38.8c6.4-19.6,9.6-45.3,9-72.9c-0.5-24.6-3.4-43.6-9.2-61.2
	c-8.7-26.1-23.1-44.2-43.5-54.7c-10.7-5.5-21.1-8.5-35.5-10.3c-5.1-0.6-24.8-0.7-30-0.1C245.8,7.2,226,16.9,211.7,34
	c-15.1,18-23.5,42.6-26.5,77.1c-0.6,6.9-0.8,27.5-0.4,36.1c2.1,43.4,13,75,32.7,94.8c13.4,13.5,30.1,21.3,51.9,24.4
	c5.9,0.8,9.7,1.1,18,1.3c4.1,0.1,7.5,0.2,7.5,0.3c0,0.1-0.8,0.7-1.7,1.4c-0.9,0.7-3.3,2.5-5.2,4.1l-3.5,2.8l-5.9-0.3
	c-15.1-0.8-27.9-3.6-39-8.5c-1.9-0.8-3.7-1.5-4-1.5c-0.7-0.1-0.8,0.4-1.5,6.1c-0.8,5.9-2,11.9-3.2,15.6c-1.9,5.8-5.5,12-9.3,15.8
	c-2.1,2.1-2.4,2.3-5.9,3.8c-3.7,1.6-9.6,4.8-17.6,9.5c-2.3,1.4-5.5,3.1-7.1,3.9c-2.3,1.1-2.8,1.5-2.7,1.9c0.4,1.3,3,5.2,5.2,7.6
	c1.4,1.5,4.4,4.8,6.7,7.4c5.7,6.4,11,10.8,19.3,16c8,5,14.7,8.2,23.4,11.1c3.3,1.1,6.1,2.1,6.2,2.2c0.3,0.3,0.8,5.7,0.6,5.9
	c-0.4,0.4-10-2.8-15.4-5.1c-7.6-3.2-16.1-8.3-23-13.9c-3.5-2.8-9.2-8.5-11-11C193,333,189.4,327.5,188,324c-0.5-1.1-0.8-1.6-1.2-1.7
	c-0.3,0-3,0.5-5.9,1.3c-4.9,1.3-8.1,1.8-7.7,1.2c0.1-0.1,1.9-0.9,4-1.8c3.6-1.5,4.3-1.9,3.5-2.2c-0.9-0.3-12.7-1.5-17.4-1.8
	c-15.9-1-39.4,3.1-58.2,10.1c-16.2,6-28.9,13.6-40.8,24.3c-7.9,7.1-16,17.5-26.2,33.8c-4.7,7.5-4.9,8-8.1,16.6
	c-5,13.3-7.1,20.9-9.9,36.3c-1.6,8.6-2.1,12.5-2.5,20.8c-0.2,3.4-0.4,6.4-0.5,6.7c-0.2,0.5-3.5,6.9-6.3,12c-1.7,3.1-1.8,3.6-0.7,3.4
	c6.1-1.4,13.8-0.6,23.2,2.5c9.4,3,16,5.7,24.6,9.9c7.3,3.6,12.5,6.8,23.5,14.4c7.9,5.5,9.1,6.5,11.6,8.8c1.1,1,2.1,1.9,2.4,1.9
	s1.2-1.1,2.3-2.4c2.5-3.1,7-8.3,10.2-11.7c2.4-2.5,2.6-2.7,2.4-3.6c-0.6-3-1.2-6.7-1.4-8.6c-0.2-2.5-0.1-2.3,1.3,3.6
	c1.1,4.7,1,4.5,1.4,4.5c0.2,0,1.8-1.3,3.6-2.9c9.7-8.7,20.2-16,34.1-23.6c10.8-5.9,12.1-6.6,24.4-12.1c17.3-7.8,22.1-9.8,36.4-15.1
	c8.7-3.2,19-7.3,26.3-10.3c4.3-1.8,10.7-5.2,18.4-9.6c10-5.8,22.5-15,28.8-21c3-2.9,4.2-4.3,6.2-7c0.5-0.7,0.5-0.6,0.1,0.4
	c-0.2,0.6-0.7,1.4-1,1.8s-1.2,1.4-1.8,2.3c-2.3,3.2-9.2,9.5-12,11.1c-0.4,0.2-2,1.4-3.6,2.6c-5.3,4.1-9.7,7.2-14,9.8
	c-5.3,3.2-13.2,7.8-15.8,9.1c-4.3,2.2-19.7,8.6-31.5,13.2c-13.5,5.2-19,7.7-35.8,15.6c-11.5,5.5-12.1,5.8-22.8,11.8
	c-9.3,5.3-10,5.7-16.9,10.4c-8.6,6-10.9,7.7-17.4,13.6c-10.1,9.1-19.2,20.4-24,29.9c-3.5,6.8-4.5,9.6-6.1,17c-0.8,3.6-1.3,5.4-2,6.5
	c-0.5,0.8-1.3,2.3-1.8,3.2c-0.5,0.9-1.1,2.3-1.4,3.2c-0.5,1.5-0.5,1.5-0.7,0.7c-1-3.5-1.7-7.1-1.7-8.4c0-3,2.6-11.3,5-16.1
	c1.6-3.2,5.5-9.9,7.6-12.9c1-1.4,1.7-2.7,1.7-2.8s-0.4-0.4-1-0.6c-0.5-0.2-7.7-3.9-16-8.1c-21.3-10.9-30.9-15-45.9-19.8
	c-2.8-0.9-3.4-1-3.7-0.6c-0.3,0.4-1.2,8.6-1.6,13.4c-0.3,3.7-0.3,5.1,0,6.2c0.3,1.3,0.3,1.7-0.1,3.1c-0.4,1.4-0.4,2.7-0.3,11.3
	c0.3,18.3,1.9,30.5,5.4,42.9c3.1,10.8,6.3,17.7,11.8,25.4c2.4,3.4,5.1,6.4,8.6,9.5c3.8,3.5,6.5,5.3,11,7.7c2.1,1.1,3.7,2,3.5,2
	C65.3,614.9,63.4,614.3,61.3,613.6L61.3,613.6z M24.2,508.1c0.3-3.3,1.3-10.5,1.6-12.8c0.3-1.7,0.3-2.4,0-2.7
	c-0.4-0.5-4.7-1.6-8.8-2.2c-6.2-0.9-10.6,0.3-10.6,2.9c0,1.9,2.2,5.7,4.6,7.7c0.7,0.6,3.2,2.4,5.6,4c2.3,1.5,4.7,3.3,5.3,3.8
	C23.7,510.3,24,510.2,24.2,508.1L24.2,508.1z M82.3,337.6c3.6-2.2,14-7.2,18.2-8.9c2.6-1,11.6-4.2,11.9-4.2c0.3,0-0.1-0.6-0.9-1.5
	c-1.6-1.7-1.9-2.6-2.1-7.1c-0.3-5.2-0.4-5.5-1.7-3.5c-1.1,1.6-3.4,3.2-8.7,5.9c-8.2,4.2-14,8.5-16.6,12.4c-2.5,3.8-4.4,8.6-3.3,8.6
	C79.3,339.3,80.7,338.5,82.3,337.6L82.3,337.6z M188,318.4c10.7-4.3,15.3-6.7,23.5-12.2c9.5-6.4,15.1-15.7,19.5-32.1
	c1-3.8,1-4.8-0.3-7.6c-1-2.1-2.2-3.4-5-5.3c-1.1-0.7-3.1-2.5-4.5-3.9c-3.9-4-9.9-9.5-10.1-9.3c-0.1,0.1,0.1,0.9,0.3,1.9
	c1.3,4.5,1.5,5.4,1.5,8c0,1.5,0,2.7-0.1,2.6c-0.1-0.1-0.3-1.4-0.6-3c-0.9-5.7-2.7-11.4-4.4-13.7c-1.5-1.9-3.9-4.2-4.3-4.1
	c-0.2,0.1-0.5,0.8-0.7,1.7c-0.4,1.6-2.9,7-3,6.5c0-0.1,0.5-1.8,1.3-3.8c1.5-4,1.7-4.8,1.5-5.2c-0.1-0.2-0.9-0.7-1.7-1.2
	c-2.2-1.3-3.7-2.6-4.7-4c-1-1.4-1.4-1.6-4.8-2.4c-9.2-2.1-17.1-0.1-23.8,6c-6.3,5.8-8.7,12.6-9.9,27.8c-0.5,6.5-1.1,11.4-1.7,13.7
	c-0.6,2.4-2.5,6.3-4.3,8.8c-5.2,7-11.1,10-19,9.7c-1.7-0.1-3.1,0-3.1,0.1c0,0.4,1,1.1,3.3,2.2c7.1,3.5,12.7,8.6,14,12.8
	c0.3,1,0.6,2.3,0.6,3s0.2,1.3,0.3,1.4c0.2,0.2,1.3,0.2,3.4,0c6.8-0.6,16.8,0.1,26.5,1.8C182.4,319.7,185,319.6,188,318.4L188,318.4z
	 M176.2,296.6c-1.9-0.6-4.2-2.3-5.1-3.8c-1.1-1.9-2.3-5.7-3.2-10.2c-1.1-5.2-0.8-5.4,3.7-4.7c5.9,1,9,0.3,12.1-2.4
	c1.5-1.4,1.9-1.2,0.8,0.4c-0.7,1-3.8,3-5.7,3.7c-1.1,0.4-4.6,0.5-7.9,0.3c-0.9-0.1-1,0-0.9,0.7c0.1,1.1,1.6,4.8,2.9,7
	c1.8,3.1,6.9,7.8,9.1,8.4c1.6,0.4,0.9,0.7-2.1,0.9C178.2,296.9,176.9,296.8,176.2,296.6L176.2,296.6z M326.6,438.9
	c-8.2-1-9.2-1.2-11.8-2.5c-1.4-0.7-3.3-2-3.3-2.3c0-0.1,0.7,0.1,1.6,0.4c0.9,0.4,2.9,1,4.5,1.4c2.7,0.7,3.4,0.7,9.4,0.7
	c10,0,13.3-0.8,19.1-4.5c6.9-4.5,11.5-12.1,13.6-22.4c1-5.1,1.2-8.3,0.9-17.6c-0.1-4.8-0.2-11.7-0.2-15.5c0-7.4,0.3-9.5,1.9-13.3
	c1-2.5,3.4-6,5.7-8.1c2.5-2.3,10-7.1,12.7-8c2.7-0.9,5.4-0.8,11.7,0.8c3.9,0.9,5.1,1.1,6.6,1c2.4-0.2,4.5-1.2,6.8-3.5
	c1.5-1.4,2-2.1,2.5-3.4c0.7-2.1,0.9-1.9-3.9-4.5c-6.2-3.4-10.8-4.5-17.8-4.5c-5.5,0-7.2,0.4-12.1,2.7c-3.5,1.7-5.4,2.9-7.4,4.6
	c-2,1.7-3.9,3.1-3.9,2.7c0-0.4,3.8-4.2,6.6-6.5c5.9-4.9,13.2-7,21.5-6.2c5.3,0.5,10.6,2.1,14.1,4.1c1.8,1.1,2.3,1.1,2.2,0.1
	c0-1.4-0.8-4.6-1.6-6.1c-1-2.1-4.9-6.1-6.9-7l-1.5-0.7L392,321c-9.7,0.3-18.1,1.1-20.4,1.9c-2.2,0.8-5.4,2.7-9.5,5.6
	c-4.5,3.2-6.1,4.4-9,7.2c-2.7,2.5-4.4,3.8-4,3.1c0.5-1,10.6-11.3,12.5-12.9c3.6-2.9,6.8-4.8,10-5.9c2.4-0.8,13.2-2.1,17.9-2.2
	c1.9,0,2.7-0.3,2.4-0.8c-0.4-0.7-4.2-2.5-6.1-2.9c-1.8-0.4-2.2-0.4-5.9,0c-5,0.6-8.1,1.2-13.6,2.8c-5,1.4-6.9,2.4-11,5.4
	c-4.5,3.4-7.5,6-12,10.6c-2.3,2.3-4.2,4.2-4.3,4.1c-0.1-0.1,0.7-1.2,1.7-2.5c5.9-7.6,9.8-11.4,16-15.4c3.1-2,4.3-2.6,7.3-3.5
	c3.4-1.1,3.6-1.5,0.6-1.2c-3.4,0.3-8.2,1.1-10.9,2c-3,1-9.4,4.2-14.8,7.5c-5.6,3.4-11.1,8.4-15.1,13.7c-0.5,0.7-2.1,2.6-3.5,4.3
	c-1.6,1.9-2.6,3.4-2.7,3.9c-0.1,0.5-1.3,2.4-2.6,4.1c-3.4,4.6-5.4,7.6-8,12.1c-5,8.7-7.5,14.3-12.5,27.6c-2.5,6.6-4.4,10.8-3.8,8.5
	c0.4-1.8,3.7-11.4,5.2-15.4l1-2.5l-1.3-2.2c-0.7-1.2-1.3-2.3-1.3-2.5c0-0.4,0.7-0.6,2.2-0.4c1,0.1,1.6,0,1.9-0.2
	c0.2-0.2,1.4-2.2,2.5-4.3c4-7.8,7.4-13.3,13.5-21.9c1.4-2,3-4.4,3.6-5.3s1.7-2.6,2.7-3.7c1-1.1,2.5-3,3.4-4.3
	c6-7.9,20.4-18.5,29-21.4l3.1-1.1h6.6c4.3,0,6.6-0.1,6.7-0.3c0.2-0.6-10.4-5.9-14.1-7.1c-1.6-0.5-5.5-5.3-8.1-10
	c-2.1-3.9-4-9.6-5-15.5c-0.6-3.4-0.6-3.9,0.3-4.2c2.1-0.8,1.8-1.1,3.7,4.4c3.9,11.5,9,19.3,16.1,24.6c2.8,2.1,8.8,6,11.2,7.2
	l1.6,0.8l2.8-0.3c4.9-0.6,8-0.3,10.8,0.9c1.7,0.7,5.8,3.7,6,4.3c0.1,0.3,0.8,0.7,1.9,1.1c1,0.3,2,0.8,2.3,1.2c0.3,0.3,1.1,1,1.9,1.5
	c1.8,1.2,2,1.4,3.5,3.2c2.1,2.6,4.1,7.3,4.2,10.1c0.1,1.5,0.1,1.7,1.5,3.1c0.8,0.8,1.4,1.6,1.4,1.7c0,0.5-0.9,3.3-1.4,4.3
	c-0.6,1.2-4.4,5-6.2,6.3c-1,0.7-1.5,0.8-3.4,0.9c-2.3,0.1-6.3-0.5-11.7-1.8c-4.3-1-5.8-1.1-8-0.4c-2.5,0.9-5.5,2.4-6,3.3
	c-0.3,0.4-1.7,1.9-3.2,3.5c-3.9,3.8-5.3,6.1-6.5,10.2c-0.6,2.1-0.6,2.4-0.6,13.9c0,8.6,0.1,11.8,0.4,12.1c0.2,0.3,1,0.4,3,0.4
	c2.9,0,5.4-0.5,6.6-1.4c1-0.7,2-2.7,2.9-5.5c1.4-4.7,4.2-8,8.3-10c4.2-2.1,8-2.4,10.5-0.8c1.9,1.2,2.1,2.4,2.1,10.5
	c0,15.2-0.4,17.4-3.2,19.4c-0.8,0.6-3.1,2.4-5,3.9c-5.6,4.5-9.4,7.4-10.3,7.9c-0.5,0.2-2.8,1.6-5.2,3.1s-5.9,3.4-7.8,4.3
	s-4,1.9-4.8,2.3c-6.3,3.2-9.1,4.9-11.5,6.7c-5.2,3.9-8,5.2-12.9,5.9C334.4,438.8,328.3,439.1,326.6,438.9L326.6,438.9z M360,424.9
	c3.5-1.7,14.4-8.5,21-12.9c5-3.3,11.3-8.1,13.7-10.3l1.1-1l0.3-3.7c0.8-9.5,0.9-17.7,0.1-19.8c-0.1-0.4-0.5-0.9-0.8-1.2
	c-0.5-0.5-0.9-0.5-3.7-0.4c-3.7,0.2-5.8,0.8-8.1,2.5c-1.6,1.2-3,2.9-3.6,4.4c-0.1,0.4-0.5,2.2-0.8,4.1c-0.3,1.8-0.7,3.6-1,4
	c-0.6,0.9-2.5,1.9-4.5,2.4c-0.9,0.2-2.8,0.8-4.1,1.3s-3,0.8-3.7,0.8s-1.4,0.2-1.5,0.3c-0.1,0.2-0.3,2.3-0.4,4.7
	c-0.2,6.5-1.6,13.5-3.4,17.9c-0.5,1.2-1.7,3.5-2.6,5c-0.9,1.5-1.7,2.9-1.7,3C356.5,426.5,357.4,426.2,360,424.9L360,424.9z
	 M476.5,330.9c-0.5-0.5-0.6-1.1-0.2-1.3c0.3-0.2,3.3,1.1,3.3,1.5C479.7,331.5,477,331.4,476.5,330.9z M454.9,324.3
	c-1.6-0.4-2.6-0.9-3.8-1.8c-1.4-1.1-1.5-1.2-1-1.3c0.7-0.1,6.4,1.2,7.2,1.7c0.4,0.2,0.5,0.5,0.4,1.1c0,0.5-0.2,0.9-0.4,0.9
	S456.1,324.7,454.9,324.3z M433,320c-8.9-1.4-18.5-1.6-27.8-0.7c-5.3,0.5-5.4,0.5-6,0c-0.3-0.3-0.5-0.6-0.4-0.7
	c0.2-0.2,7.1-1.2,11.6-1.6c5.9-0.6,14.1-0.3,22,0.8c2.9,0.4,3.8,0.6,4.1,1c0.4,0.6,0.4,1.5-0.1,1.6C436.3,320.5,434.8,320.3,433,320
	L433,320z M339.2,72.8c-5.6-0.8-12.5-3-21.4-7.1c-6.4-2.9-14.1-7.8-22.3-14.2c-7.5-5.9-9.3-7.5-13.6-12.3c-4-4.4-5.4-6.5-5.4-7.8
	c0-0.6,0.1-0.6,0.6,0.5c0.6,1.5,5.2,6,9.4,9.4c1.5,1.2,5.5,4.1,8.9,6.3c12.8,8.6,18.4,11.4,32.3,16.6c9.8,3.7,17,5.8,19.3,5.8l0.8,0
	l-0.9-0.7c-0.5-0.4-1.8-1.5-3-2.5c-6.9-5.7-14.4-17.4-19.8-30.7c-1.4-3.4-3-9-2.8-9.7c0.1-0.2,0.6,1,1.2,2.7
	c0.8,2.2,1.4,3.3,2.1,4.1c1.9,2.1,8.9,6.5,14.7,9.2c3.7,1.8,7.2,3.2,7.6,3.2c0.6,0,0.4-1-1-4.5c-0.8-1.9-1.3-3.6-1.3-3.8
	c0.1-0.2,0.7,0.8,1.4,2.1c1.3,2.4,4.5,6.9,5.7,8c0.3,0.3,1.3,0.9,2,1.4c1.7,1,2.1,1.9,1.4,2.9c-0.6,0.9-1.8,0.9-3,0.2
	c-0.5-0.3-2.6-1.2-4.7-2.1C339,46.4,332.7,42.6,328,38c-1.8-1.7-2.3-2.1-2.4-1.8c-0.1,0.3,0.9,2.4,2.1,4.7
	c5.9,11.4,11.2,19.1,16.6,24.3c2.6,2.5,6,4.8,7.6,5.3c1.9,0.5,1,1.7-1.6,2.4C348.3,73.3,342.8,73.3,339.2,72.8L339.2,72.8z"/>
<path id="path3169" inkscape:connector-curvature="0" class="st5" d="M101.4,678.9c-0.3-0.6,2.1-21.2,3.5-30.4
	c1.6-10.4,1.5-9.8,2.3-9.5c0.4,0.1,1.2,0.2,1.8,0.2s1,0,1,0.1c0,0.3-3.7,25.4-4.6,31.2c-1.3,8.4-1.2,8.2-2,8.4
	C102.4,679.1,101.5,679.1,101.4,678.9L101.4,678.9z M469.7,672c-0.6-3.7-1.8-12.3-2.8-19c-2.7-18.7-2.4-17-8.6-50.1
	c-1.7-8.9-3.5-19.2-4.1-22.9c-0.6-3.7-1.3-8-1.6-9.6c-0.8-4.1-1.4-8.2-1.3-8.6c0.1-0.4,1.8,7.6,2.1,9.9c0.4,2.9,1.9,9.4,6.7,29.3
	c6.9,28.2,7.8,32.4,9.7,44.3c1.4,9.1,3.3,24.3,3.8,30.8l0.2,2.7h-1.5h-1.5L469.7,672z M558,631.8c0-40.3-0.5-61.7-1.9-83.4
	c-1.4-22.2-3.9-43.4-7.1-60.3c-0.8-4.4-1-4.8-1.9-4.8c-1.8,0-11.4,2.9-16.9,5.2c-5.5,2.2-20.3,9.4-27,13.1
	c-11.1,6.1-25.2,15.4-38,25.1c-2.5,1.9-5.1,3.8-5.8,4.2c-0.7,0.4-1.4,1.1-1.6,1.5c-0.2,0.4-0.9,3-1.6,5.8c-1.1,4.4-1.5,5.6-3.2,9.1
	c-1.1,2.2-2.1,4.6-2.3,5.3s-0.5,1.4-0.7,1.5c-0.4,0.2-0.3,0,0.1-1.8c0.2-0.8,0.6-3.1,0.9-5.1c0.5-4.1,3-12.6,8-27.8
	c3-9,4.6-14.3,6.1-20.6c0.6-2.7,0.8-3.1,0.7-1.8c-0.1,0.9-0.3,2.4-0.6,3.4s-0.9,4-1.5,6.7c-0.6,2.7-1.9,8.6-3,13
	c-1.1,4.5-2,8.3-2.1,8.6c-0.3,1.3,0.8,0.7,3.5-1.9c8.5-8.1,23.7-19.6,35.8-27.1c9.7-6,26.2-14.7,34-17.8c11.2-4.5,21.1-6.6,27.3-5.8
	c2.5,0.3,3.2,0.1,2.8-0.8c-0.1-0.3-1.5-2.9-3.1-5.8c-2.1-3.9-3.3-6.3-4.1-8.6c-0.6-1.8-1.2-3.4-1.4-3.6c-0.2-0.2-0.6-1.4-0.9-2.6
	c-0.6-2.1-1.3-3.8-2.8-7.2l-0.5-1.1l0.7,0.6c0.9,0.8,1,0.8,1-0.3c0-1-3.2-20.2-4-23.8c-1.2-5.8-4.2-14.9-7.6-23.3
	c-0.8-1.9-1.6-4.1-1.9-4.9c-3.4-10.8-8.9-21.1-16.1-30.2c-2.9-3.7-11.6-12.3-16-15.7c-2-1.6-5.3-4.1-7.3-5.4s-3.6-2.6-3.6-2.7
	c0-0.1,0.2-0.5,0.5-0.8l0.5-0.6l3.1,2.1c8.1,5.5,14,10.3,20.3,16.8c10.5,10.8,16.5,20.2,19.7,31.2c0.5,1.7,1.3,3.8,1.8,4.7
	c1,1.8,4.1,10.8,5.9,17.1c2,7,2.5,10,4.3,26.2c0.5,4.7,1.1,9.2,1.2,10.1s0.3,2.1,0.4,2.7c0.2,1.1,1.9,3.9,5.2,8.5
	c1.9,2.6,3.8,6.5,7.7,15.5c1,2.3,2.3,4.9,2.9,6c1.4,2.4,1.7,4.3,0.8,6.6c-1.3,3.7-5.4,7.9-10.8,11.2c-1.9,1.1-3.5,2.2-3.6,2.4
	s0.3,2.7,0.8,5.5c4.8,26,6.9,55.4,6.2,83.3c-0.9,33.7-1,37.1-3.3,71C558.1,661.7,558,649,558,631.8L558,631.8z M556.4,497.2
	c2.1-2.2,4.7-5.2,6.1-7.1c2.4-3.2,2.6-4.7,1-6c-1.7-1.4-3.6-1.8-8.1-1.8c-3.3,0-4.1,0.1-4.5,0.4c-0.4,0.4-0.3,0.9,0.8,5.6
	c0.7,2.9,1.4,6.2,1.7,7.5c0.4,2.2,0.8,3,1.2,3C554.6,498.9,555.5,498.1,556.4,497.2z M94.6,638.3c-4.9-0.5-6.5-0.8-8.6-1.2
	c-5.9-1.3-9.1-2.6-13.4-5.6c-2.6-1.8-7.4-6.4-10.3-10c-1.3-1.6-0.6-1,2.7,2.3c4.6,4.6,8.1,7.3,12,9.1c6.6,3.1,17.6,4.5,27.9,3.6
	c7.6-0.7,17.8-2.5,23.4-4.2c7.4-2.2,18.2-7.1,22.2-10c1.2-0.9,3.7-2.5,5.4-3.5c1.7-1,4.8-3,6.7-4.5s5.3-3.9,7.3-5.4
	c2.1-1.5,5.6-4.3,8-6.3c4.7-4,14.8-14.3,19.9-20.3c1.8-2.1,4.7-5.4,6.4-7.4c5.8-6.5,14.7-17.6,33.2-41c14.1-18,21.9-28.2,34.7-45.8
	c7.5-10.2,20-25.2,29.2-35c1.9-2,4.4-4.7,5.6-6.1c2-2.3,5-5.3,4-4c-2.5,3.2-5,6.2-5.4,6.5c-1.1,0.7-8.4,9.3-14.4,16.9
	c-6.8,8.5-11.6,15-20.2,27c-11.3,15.8-15.9,21.9-38.7,51c-13.1,16.8-21,26.6-25.4,31.5c-1.6,1.8-4.6,5.3-6.7,7.8
	c-4.8,5.6-15.4,16.7-19.6,20.4c-4.2,3.7-6.2,5.3-10.8,8.5c-2.1,1.5-4.9,3.5-6.2,4.4c-1.3,1-4.4,2.8-6.9,4.2s-6,3.3-7.8,4.5
	c-4.6,2.8-7.9,4.3-14,6.4c-8.1,2.8-12.7,3.9-22.8,5.2C107.1,638.2,97.2,638.6,94.6,638.3L94.6,638.3z M62.8,613.9
	c-6.7-2.3-10-3.9-13.5-6.7c-10.7-8.6-17.5-20.2-21.9-37.1c-3.1-12.1-4.2-25.4-3.9-46c0.1-6.2,0-6.5-1-6.5c-0.2,0-1.3-0.9-2.5-2
	c-3.2-3-4.9-4.3-8-6.4c-3.1-2.1-5.2-3.8-6.5-5.3c-1.5-1.7-3.8-5.6-4.3-7.1c-0.9-3.1-0.3-6.4,1.6-8.9c1.1-1.4,1.8-2.7,3.4-6.6
	c1.3-2.9,4.3-8.2,7.6-13.2c1.1-1.7,2.1-3.4,2.3-3.8c0.2-0.4,0.3-3.5,0.3-7c0-7.3,0.2-9.1,1.8-18.9c2.5-14.8,5.3-24.6,11.6-40.9
	c2-5.2,2.2-5.5,4.3-8.2c2.6-3.2,4.3-5.9,6.5-10.2c2-3.9,5.4-9.1,8.9-13.3c3.3-4.1,9.9-10.9,13.9-14.3c3.1-2.7,10-7.9,12.8-9.8
	c1.4-0.9,1.6-1.1,1.6-2c0-1.9,1.1-5.3,2.4-7.6c3.4-5.9,8.4-10,19-15.4c5.3-2.7,7.1-4,7.8-5.5c0.5-1.1,0.5-1.2,0-2.4
	c-0.9-2.5-0.5-3.4,1-2.4c1.7,1.1,2.7,4.4,2.7,9.5c0,1.6,0.1,3.4,0.3,4c0.4,1.3,1.7,3.3,2.6,3.9c0.8,0.5,0.5,0.6,6.7-1.1
	c5-1.3,10.7-2.5,17.6-3.6c3.1-0.5,5.9-1.1,6.1-1.3c0.7-0.6,0.5-3.2-0.4-5.1c-1.8-3.6-5.8-7.1-12.1-10.4c-6-3.2-8.1-5-9.9-8.8
	c-2.1-4.2-2.7-7-1.6-8.1c0.9-0.9,1.2-0.7,2.4,2.1c0.9,2,4.2,4.7,6.8,5.5c0.8,0.3,2.7,0.5,4.6,0.6c5.8,0.2,9.1-1.1,13.1-5.1
	c5.1-5.2,6.4-8.9,7.5-22.2c1.1-12.7,3-19.7,6.9-25.2c4.4-6.2,11.1-10.7,17.8-11.8c2.9-0.5,8.5-0.2,11.2,0.6c1.2,0.3,2.6,0.6,3,0.7
	c0.8,0,0.8-0.1,1-1.1c0.1-1,0.4-1.5,1.5-3c0.2-0.2-0.2-1.3-1.2-3.5C183.8,199.4,179,168,180.4,129c1.5-42.1,10.7-73.1,27.9-94.8
	c3-3.8,9-9.8,12.9-13c15.9-12.8,35.6-19.5,60.9-20.5c12.5-0.5,23.5,0.3,34.2,2.6C334.6,7.3,349.1,14.9,361,27
	c18.4,18.4,28.9,45.6,32.4,83.4c1.5,16,1.6,35.4,0.3,51.4c-2.5,30.8-10,55.5-22.5,73.9c-2.9,4.2-5.7,7.8-6.5,8.1
	c-0.3,0.1-2.1,0.3-4,0.4l-3.4,0.2l2-2.1c18.6-19.9,28.2-47.6,30.7-88.9c0.4-6.7,0.4-27.3,0-34c-2.3-37.4-11.3-65.3-27.4-84.7
	c-2.7-3.2-8.4-8.9-11.6-11.4c-7.4-5.9-17.4-11.2-27-14.3C317.4,6.7,308.8,5,300.2,4c-5.3-0.6-24.2-0.5-29.2,0.2
	c-14.1,1.8-24.2,4.7-34.6,10c-16.3,8.3-29,21.8-37.6,39.8c-7.5,15.8-11.9,34.3-13.8,58c-0.6,7.5-0.8,24.9-0.4,33.9
	c2,45.1,13.4,77.8,34.2,97.7c11.7,11.2,26,18.4,44.2,22c7.7,1.5,14.6,2.2,24.2,2.4c3.7,0.1,6.7,0.2,6.8,0.2c0.1,0.1-1.1,1-2.6,2.2
	c-1.5,1.1-3.7,2.9-4.9,3.9l-2.2,1.8l-1.8,0c-2.4,0-9.4-0.5-12.6-0.8c-11.4-1.3-22.6-4.2-31.5-8.2c-1.7-0.8-3.3-1.3-3.5-1.3
	c-0.3,0.1-0.5,1-0.7,2.8c-1.1,9.2-2.5,16.1-4.3,20.9c-2,5.3-5.2,10.6-8.6,14c-1.8,1.8-2.4,2.2-4.8,3.3c-5.1,2.2-10,4.9-19.1,10.2
	c-2,1.2-4.9,2.8-6.4,3.5c-1.5,0.7-2.9,1.4-3.1,1.6s-0.6,0.2-0.9,0.1c-0.3-0.1-3,0.5-6,1.3c-3,0.8-5.9,1.4-6.4,1.3
	c-0.8-0.1-0.4-0.3,2.9-1.7c4.9-2,5-2.3,0.7-2.8c-12.4-1.4-13.8-1.5-20.3-1.5c-7.5,0-11.9,0.4-21,1.9c-17.3,2.9-30.9,7-44.6,13.7
	c-11,5.4-18.7,10.5-27.5,18.2c-7.9,7-13.8,14.3-23.3,28.9c-7.2,11.1-8.1,12.7-10.1,17.8c-5.7,14.5-8.8,25-11.6,40.4
	c-1.7,9.1-2.2,13.4-2.6,21.8c-0.2,3.2-0.4,6-0.5,6.3c-0.2,0.6-4.1,8-6.6,12.6c-1.7,3.1-1.7,3.5,0.3,3c3.2-0.8,9.7-0.6,14.9,0.4
	c4.7,0.9,16.8,5.1,23.9,8.1c13.2,5.7,19.4,9.5,37.9,22.6c1.8,1.3,4.2,3.2,5.4,4.3c1.2,1.1,2.3,2,2.6,2s1.4-1.2,2.5-2.7
	c2.5-3.2,6.8-8,10.2-11.7c1.4-1.5,2.5-2.8,2.5-2.9s-0.2-0.9-0.4-1.7c-0.5-1.8-1.1-5.7-0.9-5.9c0.1-0.1,0.5,1.4,0.9,3.3
	c0.7,2.8,0.9,3.4,1.3,3.4c0.3,0,1.9-1.3,3.7-2.9c6.3-5.7,9.9-8.5,19.5-14.9c5.7-3.8,6.6-4.4,15.2-9c9.8-5.3,12.1-6.5,24.5-12.1
	c16.9-7.7,20.8-9.3,36-14.9c22.6-8.4,30.5-11.9,42.8-18.9c7.7-4.4,18.5-11.6,21.5-14.3c0.5-0.5,2.1-1.7,3.4-2.8s3.7-3.1,5.3-4.6
	c1.5-1.5,2.8-2.6,2.8-2.4c0,0.9-9.3,9.4-10.9,10c-0.4,0.1-1.2,0.7-1.9,1.3c-2.5,2.1-9.5,7.3-12.5,9.2c-3.9,2.6-13.5,8.2-18.1,10.6
	c-4.3,2.2-17.6,7.9-29.1,12.4c-16.3,6.4-21.1,8.4-32.5,13.8c-24.4,11.4-40.7,20.8-54.7,31.4c-6.6,5-16.5,14.5-21.9,21
	c-3.4,4.1-7.7,10-9.4,13c-2.1,3.7-5.2,10.2-6.2,13.2c-0.5,1.6-1.4,4.9-2,7.4c-1,4.6-1.4,5.7-3.8,10c-0.7,1.2-1.2,2.5-1.2,2.8
	c0,0.3-0.1,0.7-0.2,0.8c-0.3,0.3-1.8-6.2-1.8-8c0-3.2,2.4-10.9,4.9-16c1.7-3.3,5.6-10,7.7-13.1c1-1.4,1.7-2.7,1.6-2.9
	c-0.1-0.2-0.8-0.7-1.7-1.1c-0.9-0.4-8-4-15.7-8c-20.4-10.4-28.6-14-43.7-19c-5.4-1.8-5.7-1.8-6,0.1c-0.3,2.1-1,8.8-1.3,12.9
	c-0.2,3.1-0.2,4.6,0,5.7c0.3,1.2,0.2,1.8-0.2,3.2c-0.4,1.5-0.4,2.8-0.3,10.7c0.4,22.4,2.6,36.5,8,51.5c3.8,10.5,10.3,20.3,18,27.1
	c3.8,3.4,6.3,5.2,9.8,7C63.4,613.9,64,614.3,62.8,613.9L62.8,613.9z M24.5,507c0.2-1.7,0.7-5.5,1.1-8.6c0.7-4.9,0.7-5.6,0.4-6
	c-0.4-0.4-3.5-1.3-7.4-2c-3.4-0.6-7.9-0.6-9.6,0c-3.4,1.3-3.6,3.4-0.6,7.8c1.6,2.3,3.2,3.7,8.1,7c2.4,1.6,4.9,3.3,5.5,3.9
	c0.6,0.6,1.3,1,1.6,0.9C24.2,510,24.3,509.7,24.5,507L24.5,507z M83,337.4c7-4.1,16.1-8.2,24.8-11.2c2.5-0.9,4.7-1.8,4.8-2
	c0.1-0.2-0.4-1-1.1-1.7c-1.5-1.7-1.7-2.6-2-7.5c-0.2-3.2-0.4-4.3-0.9-4.3c-0.1,0-0.6,0.6-1.1,1.4c-1.2,1.8-3.3,3.2-8.8,6.1
	c-4.6,2.3-10,5.7-12.6,7.9c-2.1,1.8-4.1,4.5-5.8,7.9c-1.9,3.7-2.3,6.1-1.1,5.6C79.3,339.5,81.1,338.5,83,337.4L83,337.4z
	 M187.8,318.7c10.6-4.1,18.2-8.1,25.6-13.6c8.2-6.1,13.9-16,17.8-31.2c0.8-3.2,0.9-3.6,0.6-4.8c-1-3.7-2.4-5.5-6.4-8.2
	c-1.2-0.8-2.8-2.2-3.6-3.2c-0.8-1-2.2-2.3-3.1-3.1c-0.9-0.7-3-2.7-4.7-4.3c-1.7-1.6-3.2-2.9-3.2-2.9c-0.4,0-0.1,1.2,0.6,3.8
	c1.1,3.5,1.7,7.4,1.1,7.1c-0.1-0.1-0.3-0.9-0.4-1.8c-0.3-2.4-2-8.3-3-10.6c-1.1-2.4-5-6.7-5.8-6.4c-0.3,0.1-0.5,0-0.6-0.4
	c-0.1-0.3-1-1-2.1-1.7c-1.8-1.1-3.3-2.4-5-4.4c-0.7-0.9-1.1-1.1-3.3-1.6c-4.1-1-6.4-1.2-9.3-1.1c-6.6,0.4-12.2,3.1-17,8.2
	c-5.5,5.8-7.4,11.4-8.6,26c-1,12.3-1.4,14.4-3.3,18.3c-1.6,3.4-2.7,4.9-5.5,7.8c-2.6,2.8-5.3,4.5-8.4,5.5c-2.3,0.8-2.7,0.8-7,0.8
	c-2.5,0-4.6,0.1-4.6,0.2c0,0.4,1.8,1.5,4.3,2.8c5.2,2.6,10.2,6.6,12.5,10c1,1.5,1.6,3.5,1.6,5.1c0,2.1-0.6,2,7.8,1.8
	c8.4-0.2,12.2,0.1,21.4,1.7C182.7,320,184.5,320,187.8,318.7L187.8,318.7z M176.3,296.5c-2.1-0.7-4.4-2.5-5.3-4.3
	c-1.4-2.7-3.7-11.4-3.5-13.2c0.2-1.3,0.7-1.4,4.3-0.8c5.6,0.9,8.5,0.3,11.4-2.1c0.7-0.6,1.3-1,1.3-0.8c0,0.4-1.4,2-1.7,2
	c-0.1,0-0.8,0.4-1.5,0.8c-2.1,1.4-3.3,1.7-6.8,1.7c-1.7,0-3.6-0.1-4.1-0.1c-1.4-0.1-1.3,0.4,0.1,4c1.4,3.5,3.2,6.2,5.2,8.1
	c0.8,0.7,2,1.9,2.7,2.5s1.8,1.4,2.4,1.7l1.2,0.6l-1,0c-0.5,0-1.7,0.1-2.6,0.1C177.7,296.7,176.7,296.6,176.3,296.5L176.3,296.5z
	 M200.8,245.6c0-0.2,0.4-1.3,0.9-2.6c0.6-1.5,0.9-2,0.8-1.4C202.4,242.5,200.8,246.1,200.8,245.6L200.8,245.6z M326.1,438.6
	c-4.2-0.4-7.6-1-8.6-1.4c-2-0.8-4.5-2-4.7-2.3c-0.2-0.4-0.1-0.4,1.4,0.3c2.3,1,6.4,1.6,11.4,1.8c4.1,0.2,5.3,0.1,9-0.4
	c4.8-0.7,6.5-1.3,9.9-3.2c5.8-3.4,8.6-6.6,12.1-13.6c1.7-3.5,2.8-7.3,3.7-12.7c0.6-3.4,0.7-13.3,0.3-26c-0.3-9,0-12.1,1.2-15.9
	c2-6,5.5-10,12.4-14.3c2.4-1.5,5.2-3,6.1-3.3c3-1.1,6-0.8,13.1,1c4.2,1.1,6.2,1,8.7-0.2c2.7-1.4,4.8-3.4,5.9-5.8
	c1.2-2.5,1.3-2.4-3.6-5c-5.6-3.1-10.4-4.5-16.5-4.8c-5.6-0.3-9.8,0.7-15.1,3.5c-2.7,1.4-6.4,3.8-6.4,4.1c0,0.1-0.6,0.6-1.3,1.1
	c-1.3,0.9-1.3,0.9-0.8,0.2c0.3-0.4,2-2,3.8-3.6c3.6-3.1,6.7-4.9,10.7-6.3c7.6-2.5,18.8-1.2,26,3c1.8,1.1,2.7,1.2,2.7,0.4
	c0-1.5-0.9-5.1-1.8-6.7c-1.2-2.4-4.7-6.1-6.8-7.1c-1.4-0.7-1.5-0.7-6.4-0.6c-9.3,0.2-18.4,1.1-21,1.9c-2.3,0.8-5.3,2.5-9.7,5.6
	c-4.9,3.5-6.1,4.4-8.5,6.7c-1,0.9-2.1,1.9-2.5,2.2l-0.7,0.5l0.5-0.7c0.6-0.8,5.8-6.2,8.3-8.7c3.4-3.4,8.8-6.9,12.5-8.2
	c1.9-0.6,7.5-1.4,12.6-1.8c7.6-0.5,7.8-0.6,7.8-1c0-0.6-3.2-2.5-5.3-3.2c-1.4-0.4-2.5-0.6-4.1-0.6c-6.6,0.1-19.5,3.3-23.7,5.8
	c-4.4,2.6-12.7,9.5-16.5,13.8c-1.1,1.2-2,2.1-2.1,2c-0.1-0.1,2-3.1,2.4-3.2c0.1,0,0.8-0.8,1.5-1.7c1.9-2.4,6.3-6.6,9.3-8.8
	c4.4-3.2,6.6-4.4,10.7-5.7c3.7-1.2,4.4-1.6,4.1-1.9c-0.1-0.1-2.7,0.1-5.8,0.6c-6.9,0.9-10.1,1.9-15.4,4.6
	c-11.9,6.1-17,10.2-25.1,20.5c-1.5,1.8-2.8,3.4-2.9,3.4c-0.6,0-0.2-0.7,2.4-3.7c0.8-0.9,2.2-2.6,3.1-3.8
	c4.2-5.5,13.3-13.1,21.3-17.7c4.3-2.5,6.2-3.3,9.4-4.1c1.9-0.5,2.8-0.6,8.3-0.5c6,0.1,7.2-0.1,6.3-0.8c-1.7-1.4-8.2-4.6-14.1-6.9
	c-0.5-0.2-1.7-1.2-2.7-2.3c-4.8-5.1-8.3-12.5-10-21.4c-1-5.1-1-5.1-0.2-5.5c1.7-0.8,1.7-0.8,3,3.3c2.9,8.7,5.9,14.4,10.2,19.7
	c2.8,3.4,8.3,7.6,16,12.2c2.8,1.6,2.3,1.6,8.4,1.2c4.1-0.2,6.1,0,8.4,1c1.9,0.8,5.4,3.4,5.8,4.1c0.2,0.4,0.8,0.8,1.8,1.1
	c0.8,0.3,2.1,1,3,1.7c0.8,0.7,1.6,1.2,1.8,1.2c0.7,0,4,3.8,5,5.8c1.2,2.3,2.3,6.2,2.3,7.6c-0.1,1.2,0,1.4,1.4,2.7
	c1.6,1.6,1.7,1.8,0.5,4.9c-0.5,1.3-1.1,2.1-3.1,4.1c-1.4,1.3-3,2.8-3.7,3.2c-1.1,0.7-1.4,0.8-3.7,0.8c-1.7,0-3.8-0.3-6.6-0.8
	c-10.7-2.2-9.6-2.1-11.5-1.6c-2.3,0.6-5.8,2.4-6.7,3.4c-0.4,0.5-2,2.1-3.6,3.7c-4,4-5.5,6.4-6.5,10.4c-0.7,2.6-0.9,9.6-0.6,19.3
	c0.2,5.5,0.3,6.9,0.6,7.1c0.2,0.2,1.7,0.2,3.7,0.2c2.8-0.1,3.5-0.2,4.8-0.8c2-0.9,2.8-2.1,4.1-6.1c1.2-3.5,2.3-5.5,4.6-7.6
	c2.8-2.6,8-4.6,11.2-4.2c2,0.2,3.5,1.3,4.1,2.9c0.7,2.1,0.9,6.8,0.5,15.4c-0.4,9.6-0.6,10.5-2.9,12.1c-0.7,0.5-2.9,2.2-4.9,3.8
	c-6.1,4.9-9.5,7.5-10.5,8c-0.5,0.3-3,1.7-5.4,3.2c-2.4,1.4-8,4.4-12.5,6.7c-6.7,3.4-8.7,4.5-11.4,6.5c-3.7,2.8-7.3,4.7-9.6,5.3
	C336.9,438.5,329.7,439,326.1,438.6L326.1,438.6z M360.1,425.1c6.3-3.1,23.5-14.3,29.8-19.3c2-1.6,4.1-3.2,4.7-3.6
	c0.6-0.4,1.2-1.1,1.3-1.6c0.5-1.6,1-9.2,1-15.8c0-6.3,0-6.8-0.6-8c-0.7-1.6-1.2-1.7-4.8-1.5c-3.1,0.2-5.5,0.9-7.6,2.3
	c-3.1,2-4.2,4-5,9.1c-0.5,3.3-0.6,3.5-1.6,4.3c-0.6,0.5-1.7,1.1-2.5,1.3c-0.8,0.2-2.9,0.9-4.6,1.4c-1.8,0.6-3.6,1-4.4,1
	c-1.1,0-1.5,0.1-1.7,0.5c-0.1,0.3-0.3,2.6-0.4,5.1c-0.2,4.8-0.5,7.6-1.7,12.5c-0.9,3.7-2.1,6.7-4.2,10.1c-0.9,1.5-1.7,2.9-1.7,3.1
	C356.2,426.9,356.6,426.9,360.1,425.1L360.1,425.1z M291.5,395.9c0-0.6,3-9.3,4.7-13.6c0.4-1,0.7-1.9,0.7-2.1c0-0.2-0.6-1.3-1.2-2.5
	c-0.7-1.2-1.2-2.3-1.1-2.4c0.1-0.1,0.8-0.2,1.6-0.1c0.9,0.1,1.7,0.1,2-0.1c0.3-0.2,1.4-2,2.5-4.1c2.3-4.6,6.2-11.4,8.3-14.6
	c1.9-2.8,6.3-9.1,7.2-10.3c0.6-0.8,0.7-0.8,0.7-0.2c0,0.3-1,2-2.5,3.9c-5.3,7-11.5,17.7-14.7,25.2c-1.7,4-6.1,15.3-6.5,16.8
	C292.9,393.3,291.6,396.3,291.5,395.9L291.5,395.9z M245.6,371.6c-16.3-5-30-13-40.9-23.9c-2.7-2.8-4.1-4.5-8.2-10.3
	c-4.5-6.4-7.8-11.8-8.3-13.5c-0.1-0.4,0.2,0,0.8,0.8c0.5,0.8,1.3,2,1.6,2.6s2,2.5,3.7,4.3c1.6,1.7,4.3,4.6,5.9,6.4
	c3.5,4,5.2,5.6,8.9,8.6c10.6,8.4,22.4,14.8,34.9,18.8c2.5,0.8,4.6,1.5,4.7,1.5c0.2,0.2,0.7,5.6,0.6,5.7
	C249.2,372.6,247.6,372.2,245.6,371.6L245.6,371.6z M476.6,330.4c-0.2-0.6,0.1-0.7,0.9-0.4c1.2,0.5,1.3,0.8,0.3,0.8
	C477.1,330.8,476.7,330.6,476.6,330.4L476.6,330.4z M455.1,324.2c-2.1-0.6-5.4-2.7-4.2-2.8c0.6,0,6,1.5,6.3,1.7
	c0.4,0.3,0.3,1.3-0.1,1.5C456.9,324.6,456,324.5,455.1,324.2z M432.8,319.8c-5.7-0.9-9.9-1.2-16.3-1.2c-5.4,0-13.3,0.5-15.7,1.1
	c-0.6,0.1-1.7-0.5-1.5-0.8c0.1-0.1,2.4-0.5,5.1-0.9c6.1-0.9,15.3-1.2,20.9-0.7c4,0.3,10.7,1.2,10.9,1.4c0.1,0.1,0.2,0.5,0.3,0.9
	C436.7,320.5,437,320.4,432.8,319.8L432.8,319.8z M338.8,72.5c-7-1.1-19.7-5.9-27.5-10.4c-5.9-3.5-11.3-7.3-19-13.5
	c-4.9-3.9-7.5-6.4-12-11.5c-3.7-4.2-3.7-4.8-0.1-1.2c4.3,4.3,7.6,6.9,14.9,11.7c8.5,5.7,11.9,7.7,18.2,10.8c5.7,2.8,18.5,7.8,25,9.7
	c4.2,1.3,9.1,2.4,9.6,2.2c0.6-0.2,0.3-0.5-1.9-2.1c-7.8-5.8-16.3-18.3-21.9-32.5c-1.3-3.4-2.5-7.1-2.3-7.3c0.1-0.1,0.3,0.4,0.4,0.9
	c0.6,2,1.6,3.5,2.8,4.7c2.8,2.6,10.4,7,17.3,10.1c4.7,2.1,4.7,2.1,5,1.7c0.3-0.3-0.5-3-1.4-4.7c-0.2-0.4-0.5-1.1-0.6-1.5
	c-0.3-1,0.2-0.4,1.2,1.5c1,1.9,4.1,5.9,5.3,6.9c0.5,0.4,1.3,1,1.9,1.3c1.2,0.6,1.6,1.5,1.1,2.4c-0.4,0.8-1.8,0.8-3,0
	c-0.5-0.3-2.5-1.2-4.4-1.9c-8.6-3.4-14.4-7-19.8-12.2c-2.3-2.2-2.6-2.4-2.7-1.9c-0.1,1,5.5,11.6,9.5,17.8c6,9.2,12.8,16,17.7,17.5
	c0.7,0.2,0.4,0.8-0.8,1.4c-0.9,0.5-1.7,0.6-5.6,0.6C343.1,72.9,340.3,72.7,338.8,72.5L338.8,72.5z"/>
</svg>
