<?xml version="1.0" encoding="utf-8"?>
<!-- Generator: Adobe Illustrator 25.2.1, SVG Export Plug-In . SVG Version: 6.00 Build 0)  -->
<!DOCTYPE svg PUBLIC "-//W3C//DTD SVG 1.1//EN" "http://www.w3.org/Graphics/SVG/1.1/DTD/svg11.dtd" [
	<!ENTITY ns_extend "http://ns.adobe.com/Extensibility/1.0/">
	<!ENTITY ns_ai "http://ns.adobe.com/AdobeIllustrator/10.0/">
	<!ENTITY ns_graphs "http://ns.adobe.com/Graphs/1.0/">
	<!ENTITY ns_vars "http://ns.adobe.com/Variables/1.0/">
	<!ENTITY ns_imrep "http://ns.adobe.com/ImageReplacement/1.0/">
	<!ENTITY ns_sfw "http://ns.adobe.com/SaveForWeb/1.0/">
	<!ENTITY ns_custom "http://ns.adobe.com/GenericCustomNamespace/1.0/">
	<!ENTITY ns_adobe_xpath "http://ns.adobe.com/XPath/1.0/">
]>
<svg version="1.1"
	 id="svg1966" xmlns:x="&ns_extend;" xmlns:i="&ns_ai;" xmlns:graph="&ns_graphs;" xmlns:cc="http://creativecommons.org/ns#" xmlns:dc="http://purl.org/dc/elements/1.1/" xmlns:inkscape="http://www.inkscape.org/namespaces/inkscape" xmlns:rdf="http://www.w3.org/1999/02/22-rdf-syntax-ns#" xmlns:sodipodi="http://sodipodi.sourceforge.net/DTD/sodipodi-0.dtd" xmlns:svg="http://www.w3.org/2000/svg"
	 xmlns="http://www.w3.org/2000/svg" xmlns:xlink="http://www.w3.org/1999/xlink" x="0px" y="0px" width="504px" height="396px"
	 viewBox="0 0 504 396" style="enable-background:new 0 0 504 396;" xml:space="preserve">
<style type="text/css">
	.st0{fill:#D0D1D0;}
	.st1{fill:#B0B0B0;}
	.st2{fill:#8F8F8F;}
	.st3{fill:#717272;}
	.st4{fill:#4E4E4E;}
	.st5{fill:#2E2E2E;}
	.st6{fill:#070808;}
</style>
<metadata  id="metadata1972">
	<rdf:RDF>
		<cc:Work  rdf:about="">
			<dc:format>image/svg+xml</dc:format>
			<dc:type  rdf:resource="http://purl.org/dc/dcmitype/StillImage"></dc:type>
			<dc:title></dc:title>
		</cc:Work>
	</rdf:RDF>
	<sfw  xmlns="&ns_sfw;">
		<slices></slices>
		<sliceSourceBounds  bottomLeftOrigin="true" height="378.7" width="480.8" x="16.3" y="2.9"></sliceSourceBounds>
	</sfw>
</metadata>
<sodipodi:namedview  bordercolor="#666666" borderopacity="1" gridtolerance="10" guidetolerance="10" id="namedview1968" inkscape:current-layer="svg1966" inkscape:cx="528" inkscape:cy="408" inkscape:pageopacity="0" inkscape:pageshadow="2" inkscape:window-height="1699" inkscape:window-maximized="1" inkscape:window-width="2736" inkscape:window-x="-13" inkscape:window-y="-13" inkscape:zoom="0.28921569" objecttolerance="10" pagecolor="#ffffff" showgrid="false">
	</sodipodi:namedview>
<path id="path2533" inkscape:connector-curvature="0" class="st0" d="M114.6,393c0-0.1,0.6-1.3,1.4-2.6c2-3.2,4-6.9,5.1-9.2
	c2.3-4.8,9.9-13.9,16.7-19.9c1.1-1,2-1.8,2-1.9s-0.2-0.3-0.6-0.4c-1-0.3-0.6-0.7,0.8-0.7c0.7,0,1.5-0.2,2-0.5c1-0.7,1.2-0.7,1.2-0.1
	c0,0.5,0.3,0.5,2.5,0c6.4-1.5,9-3.3,12.9-9c2.3-3.4,3.4-5.4,5.1-9.5c3.6-8.7,5.1-15,7-28.3c1.4-9.6,2.4-15.7,4-23.2
	c0.7-3.5,1.9-9.6,2.6-13.6c1.5-8.8,2.2-11.5,4.2-18.2c2.1-6.8,2.1-6.6,2.8-12.4c0.5-4.3,0.5-5.4,0.3-7.3c-0.7-5-2.5-9-5.6-12.1
	c-4.1-4.1-8.4-5.9-14.1-5.9c-2,0-2.2,0.1-2.5,0.6c-0.2,0.3-0.4,2.3-0.6,4.5c-0.7,11.1-1.2,12.6-6.1,20.1l-2.4,3.6l0.2,2.7
	c0.4,6.5,1.1,10.8,3,18.9c0.8,3.4,0.9,5.3,0.3,5.5c-0.2,0.1-0.9-0.1-1.5-0.4c-2-1-3.6-5.2-4.6-12.1c-0.6-4.3-0.7-13.4,0-21.4
	c1.3-16.3,2.1-28,2-28.3c-0.1-0.2-0.5,0.2-0.9,0.7c-0.4,0.6-1.6,2-2.6,3.1s-2.3,2.6-3,3.4c-1.1,1.3-1.6,1.7-1.6,1.2s3.9-7.1,5.3-9
	c4.4-6,12.5-14.1,18.8-18.9c1-0.7,4.4-3.5,7.5-6.1s6.8-5.5,8.1-6.5s4.2-3.4,6.5-5.5c7.2-6.4,9.5-8.4,11.4-9.8c1-0.7,3.3-2.8,5.2-4.6
	c4.3-4.1,11.6-10.4,16.5-14.1c4.6-3.5,10.2-9.1,11.9-11.6c1.6-2.6,2.8-5.2,3.6-8.5c2.2-8.5,1.2-14.3-3.4-20.5
	c-1.4-1.9-1.9-2.2-1.9-1.4c0,0.8-1,2.2-2,2.7c-0.5,0.3-2.6,2-4.6,3.8s-5,4.4-6.7,5.8s-5.1,4.2-7.5,6.2s-6.1,5.1-8.2,6.9
	c-7,5.9-19.8,15.5-27.6,20.7c-4.2,2.8-8.9,6-10.3,7c-4.9,3.5-18.4,12.8-19.1,13.2c-1.9,1-6.1,3.9-6.5,4.5c-0.5,0.8-2.2,7.9-3.1,13.3
	c-0.4,2.2-0.8,6.3-1,9c-0.3,5-0.1,14.1,0.3,16.3c0.3,1.8-0.2,1.3-1.5-1.2c-2.3-4.5-3.3-10.4-2.8-17.9c0.2-3.6,1-8.7,1.7-11.9
	c0.2-0.7,0.4-2.1,0.7-3.2c0.4-2,2-7.8,3.5-12.2c1.9-5.9,7.9-21.7,10.9-28.8c5-11.9,12.1-30,13.2-33.7c2.9-9.6,3.9-17.1,2.9-22.8
	c-0.8-4.5-3.2-10.1-6.2-14.6c-1.7-2.6-5.5-7-7-8.3c-2.5-2.1-5.8-4.5-6.8-4.9c-1.7-0.7-1.8-0.6-1.8,1.4c0,4.2-1.2,12-3.2,20.2
	c-7.9,33.7-12.6,46.3-29.2,80.2c-2.6,5.2-5.8,11.9-7.2,14.9c-1.4,3-3.1,6.6-3.8,8c-1,2-1.2,2.7-1,3.2c1.6,4.1,6.5,14,10.6,21.2
	c1.7,3.1,3.6,6.6,4.1,8c0.5,1.3,1.6,3.4,2.3,4.7c1.5,2.5,1.5,2.5,1,2.5c-0.4,0-6.4-4.5-7.9-5.9c-3.3-3.1-11-17.2-15.2-27.9
	c-5-12.6-13.2-34.1-14.2-37.4c-0.7-2.1-2.3-7.5-3.6-12.1c-1.3-4.5-2.7-9.3-3.2-10.7c-2.6-7.2-7.7-15.9-12.1-20.5
	c-1.9-1.9-6.3-5.1-8.5-6.2c-4.2-1.9-9.4-2.4-13.7-1.3c-2,0.5-8.8,3-9.2,3.4c-0.1,0.1,1.5,3.2,3.5,6.9c3.3,6.4,6.7,13.7,11.2,24.3
	c1.1,2.5,3.7,8.7,5.9,13.9c5,11.8,5.2,12.3,8.2,20.7c6.3,18,10.7,36.3,12.3,51.2c1.5,14.3,1.6,31.3,0.3,41.3
	c-1.8,13.7-6,28.4-11.6,40.4c-0.9,1.9-2.1,4.8-2.6,6.3c-1.3,3.6-3.9,8.9-7.4,14.6c-1.5,2.6-4.9,8.8-7.4,14
	c-8.5,17.4-12.3,23.9-21.1,36.5c-4.3,6.2-5.4,7.6-5.6,7.4s1-2.5,3.7-7c4.4-7.5,11.9-20.7,15-26.4c4.9-9.1,19.2-38.4,20-41.1
	c0.2-0.7,1.2-2.9,2.1-4.8c4.4-9.2,8-20.3,10.6-32.9c2.8-13.6,2.8-34.5,0-53.7c-2.2-15.6-7.9-37.1-14.1-53.5c-1.3-3.5-7.6-19-8.5-21
	c-0.3-0.6-2.4-5.8-4.7-11.5c-5.3-13.1-9.7-22.5-10.6-22.6c-0.3,0-0.6-0.2-0.6-0.4c-0.2-2.7-0.2-3.1,0.7-3.9c1.2-1.2,6.7-3.9,9.3-4.6
	c1.8-0.5,2.9-0.6,6.3-0.6c4.5,0,6.7,0.4,10,1.9c1.9,0.9,6.6,4.4,8.7,6.5c5.9,6,12.1,16.9,15.3,26.9c5.4,17,5.8,18.1,12.1,32.8
	c3.4,7.9,6.5,15.1,6.8,16c0.4,0.9,0.7,1.6,0.8,1.6c0.1,0,0.5-0.9,1-2c1.7-4.4,4-10,4.7-11.7c2.3-4.9,6.6-16,6.4-16.3
	c-0.1-0.2-0.3-1.3-0.4-2.6c-1.2-15.1-3.2-23.9-10.5-45.1c-4-11.6-3.9-11.3-2.5-12.3c0.9-0.7,5.3-1.1,9.3-0.9
	c6.3,0.3,10.5,1.5,14.3,4c3.7,2.4,5.7,5.1,7,9.3c0.4,1.3,0.8,2.4,0.9,2.6c0.1,0.1,1-2,1.9-4.8c1-2.8,2.5-7.2,3.4-9.8
	c2.2-6.3,5.7-18.3,7.5-26.3c0.8-3.4,1.4-7.8,1.4-9.7c0-2.1,0.3-2.7,1-1.8c0.2,0.3,0.7,0.6,1,0.6c1.1,0,2.5,0.6,5.2,2.4
	c3.8,2.5,5.6,4,7.9,6.6c5.4,6.2,9,13.4,10.2,20c1.4,7.8-0.6,18.5-5.8,32.4c-0.8,2.2-2.6,7.1-4,11s-3.6,10-5,13.6s-3.5,9.6-4.8,13.3
	l-2.3,6.7l1,3.4c0.6,1.9,1.1,3.8,1.3,4.3l0.3,0.9l7.4-5.3c10.3-7.4,14-10,16.9-12.2c1.4-1,4-2.9,5.8-4.2c4.1-2.9,23.6-17.8,31-23.7
	c7.9-6.3,10.1-8.3,17.9-15.9c2.6-2.6,4.7-4.3,5-4.3c1.6,0,5.6,4.6,7.5,8.4c1.5,3.1,1.9,5.2,1.9,9.2c0,5.3-1,9.2-4,15.1
	c-2.1,4.2-7.2,9.5-14.3,14.9c-4.3,3.2-11.8,9.7-17.3,14.8c-4.1,3.8-7.5,6.8-9.1,7.9c-0.6,0.4-3,2.4-5.3,4.6
	c-2.4,2.1-6.1,5.3-8.3,7.1s-6,5-8.5,7.1s-5.6,4.8-7,5.9c-1.4,1.1-5.2,4.7-8.5,8l-6.1,6l-0.2,10.2c-0.1,5.6-0.3,11.9-0.5,14.1
	s-0.2,5.2-0.2,6.9l0.1,3l1.6-3.2c3.2-6.3,4-9.1,4.3-16.3c0.3-5.7,0.5-6.7,1.7-8.3c1.4-1.7,3.6-2.2,5.9-1.4c0.6,0.2,2.1,0.4,3.4,0.5
	c2.1,0.1,2.6,0.2,4.7,1.2c1.2,0.6,3.3,1.9,4.5,2.9c3.6,2.9,5.5,5.8,6.9,10.8c0.7,2.5,0.7,3.1,0.7,7.8c0,7.5-0.4,10-3.2,18.7
	c-2.2,6.9-2.5,8.4-4,16.7c-0.7,4-1.9,10.5-2.8,14.5c-1.8,8.6-2.4,12.5-4.1,23.7c-1.7,11.8-2.8,16.5-5.5,24.1
	c-2.6,7.1-4.7,11.3-8.2,15.9c-2.6,3.5-4.7,5.4-7.4,6.7c-3.2,1.5-5.3,2-8.1,1.8l-2.4-0.2l-1.3,1.6c-3.1,3.6-5.6,7-7.7,10.3
	c-3.2,5.1-5.9,8.5-9.9,12.8c-1.9,2-4.3,4.7-5.3,5.9C115.4,392.6,114.6,393.4,114.6,393L114.6,393z M144.6,169.6c1.1-0.8,2-1.6,2-1.7
	c0-0.2-0.2-1-0.5-1.8s-0.6-1.9-0.7-2.5c-0.1-0.6-0.3-1-0.4-1c-0.2,0-2.8,7.8-2.8,8.3C142.3,171.1,142.6,171,144.6,169.6L144.6,169.6
	z M116.2,136c5.3-12.9,9.8-24.1,11.1-27.8l1.1-2.9l-0.8-1.4c-3.5-6.3-7.1-9.5-12.6-11.4c-3.5-1.2-15.5-2.9-15.5-2.2
	c0,0.2,1.3,3.4,2.9,7.2c3.4,8.1,4.4,11.1,6,17.5c2.4,9.4,3.6,18.5,3.5,26.5c0,2.6,0,4.7,0.1,4.6C112,146.2,114,141.6,116.2,136
	L116.2,136z M403.7,375.8c-1.7-1.7-4.3-3.9-5.8-4.9c-3.2-2.3-7.7-6.8-11.3-11.5c-3.1-4-6.3-7.5-8.5-9.3l-1.6-1.3l-1.5,0.4
	c-3.1,0.8-7.8,0.2-11.1-1.4c-2-1-4.5-3.1-7.1-6.1c-3.1-3.5-5.4-7-7.9-11.9c-4.3-8.2-5.9-12.6-9.3-25.8c-3.1-11.5-3.6-13.2-6.5-22.1
	c-1.3-4.1-3.4-10.6-4.5-14.5c-2.3-7.8-3-9.9-5.8-16c-2.7-6-3-6.9-4.3-12.2c-1.2-4.8-1.2-4.8-1.1-9.6c0-4,0.1-5.2,0.6-7
	c1.3-4.8,3.8-8.3,8.2-11.5c2.5-1.8,4.1-2.5,6.8-2.9c1-0.2,2.2-0.5,2.6-0.7c2.1-1.1,4.3-0.7,5.9,1c1.2,1.3,1.7,2.9,2.2,7.1
	c0.7,5.4,1.5,8,3.5,11.9c1.2,2.3,4.5,7.2,4.5,6.7c0-0.2-0.2-2.1-0.5-4.1c-1.6-10.9-3.3-23.8-3.6-25.9c-0.3-2.4-0.3-2.5-1.4-3.5
	c-1-0.9-7.1-5.7-11.1-8.8c-2.1-1.6-16.4-11.2-21.9-14.8c-2.3-1.4-5.9-3.9-8.1-5.5s-6.7-4.6-10-6.8s-7.2-4.9-8.6-6
	c-3.9-2.9-11.4-7.9-16.1-10.8c-4.5-2.7-9.3-6.1-11.9-8.6c-4.5-4.1-8.2-11.2-9.3-18c-0.5-3-0.5-5.3,0-8c0.9-4.7,5.3-11.6,7.3-11.6
	c0.4,0,1.8,0.9,3.9,2.6c4.3,3.4,10.8,8.2,13,9.7c8,5.2,34.4,21.1,43.5,26.1c2.7,1.5,6.9,3.9,9.2,5.3c5,3,21.1,11.9,21.2,11.7
	s1.3-7.5,1.3-8.1c0-0.9-11.6-25-20.7-42.9c-5.1-10-8.4-19.1-9.2-25.2c-0.6-4.3-0.2-9.7,1-13.6c1.2-4.1,4-10,6.7-14
	c3-4.4,8.8-9.6,11.4-10.3c0.8-0.2,1.3-0.5,1.4-0.8c0.2-0.9,1-0.4,1.1,0.6c0.1,1.2,1.2,5.7,2.2,8.6c0.7,2.1,3.7,9.9,6.2,16.2
	c2.2,5.4,11.6,24.8,11.9,24.5c0.1-0.1,0.3-1.1,0.6-2.3c1.5-7.1,7.3-12.5,15.9-14.7c3.9-1,6.7-1.4,10-1.4c2.2,0,2.8,0.1,3.6,0.6
	c0.8,0.5,0.9,0.7,0.8,1.3c-0.1,0.4-1.2,5.2-2.4,10.6c-4.4,19.5-5.3,26.6-5.3,40.5v9.2l1.7,3.2c1.8,3.3,6.4,11.8,8.5,15.5
	c0.7,1.2,2.1,3.8,3.1,5.8s2,3.6,2.1,3.6s0.5-1,0.8-2.3c0.3-1.2,2.3-7.8,4.3-14.6c4.7-15.6,5.4-18.6,7.5-29.3
	c2.4-12.8,3.9-17.5,8-25.8c2.9-5.7,5-8.8,9-12.6c2.7-2.6,3.9-3.5,5.6-4.4c5.3-2.7,11.1-3.5,16.7-2c2.5,0.7,7.6,2.7,8.2,3.2
	c0.3,0.3,0.5,1,0.5,2.2c0.1,1.6,0,1.8-0.4,1.8c-0.8,0-3.9,9.1-8,23.5c-1.9,6.6-3.8,13.2-4.2,14.7c-9.6,31.2-14.4,62.6-13.2,87.5
	c0.7,15.6,2.5,27.6,5.4,37.5c1.3,4.6,4.6,13.4,6.8,18.4c2.5,5.7,7.2,14.3,9.6,17.7c0.5,0.7,1.3,2.1,1.8,3.2
	c1.3,2.7,5.2,8.9,7.1,11.4c6.5,8.3,10.1,13.2,17.9,24.5c2.1,3,5.3,7.6,7.2,10.1c5,6.9,7.3,10.3,7.3,10.9c0,0.7-0.8,1.4-1.5,1.3
	c-0.3-0.1-1.2-1-2.2-2.3c-0.9-1.2-3.5-4.6-5.7-7.5c-4.4-5.7-18.6-25.6-21.5-29.9c-0.9-1.4-2.8-4.6-4.2-7c-4.1-7.2-5.4-9-6.6-9.9
	c-2.5-1.9-8.9-12.9-12.9-22.3c-2.6-6-5.9-15.6-7.3-21.1c-1.5-6-1.9-7.8-2.8-14.4c-3.6-27.1-2.3-50.6,4.6-81.2
	c1.7-7.6,1.9-8.1,5.7-20.8c8.5-28.7,9.4-31.3,12.9-40.3c1.4-3.5,2.5-6.6,2.5-6.7c0-0.4-6.8-2.2-9.9-2.6c-4-0.5-9.5,0.6-13.2,2.8
	c-2.7,1.6-7.1,5.9-9.2,9c-3.3,4.9-6.8,13.3-8.3,19.6c-0.3,1.4-1.3,6.6-2.1,11.6s-1.8,10.6-2.2,12.3c-0.7,3.4-8.5,33.3-10.3,39.7
	c-2.4,8.4-5.2,15.8-8.6,22.6c-2.3,4.6-2.4,4.7-5.6,8.2c-3,3.3-4.2,4.4-4.5,4.1c-0.1-0.1,0.4-1.4,1.1-3s1.4-3.5,1.7-4.4
	c0.2-0.8,1.6-4.1,2.9-7.3c2.9-6.8,4.8-11.8,6.9-18c2.1-6.4,2.1-5.7,0.5-8c-0.7-1.1-2.5-3.9-3.8-6.1s-4.3-6.8-6.4-10
	c-19.6-29.8-26.4-42.1-34.5-62.4c-5.6-14-10.7-29.3-12.2-37c-0.9-4.3-0.9-4.4-1.5-4.3c-1.9,0.2-7.5,5.9-10.9,11.1
	c-6,9.1-8,18.1-6.2,26.9c0.6,2.9,2.9,9.8,4.7,13.8c1.8,4.1,9.2,18,16,30.2c5,9,13.5,25.3,15.8,30.6c5.7,13.1,8.3,22,9,31
	c0.3,3.6,0.2,4.3-0.3,7.6c-0.5,3.5-1.7,7.3-2.4,7.5c-0.2,0.1-0.3-1.1-0.3-2.9c0-4.6-1.6-15.2-3-20.5c-1-3.9-3.8-12.3-4.9-14.6
	c-0.7-1.5-0.7-1.5-3.9-3.1c-1.8-0.9-3.3-1.6-3.5-1.6s-0.5-0.2-0.8-0.4c-0.2-0.2-2.2-1.3-4.4-2.5c-13-6.9-18.7-9.9-27.3-14.3
	c-10.1-5.2-21-11.6-30.3-17.8c-8.4-5.7-23.3-15.8-25.5-17.3c-1.1-0.8-2.2-1.4-2.5-1.4c-0.6,0-1.5-1-1.9-2.1l-0.3-0.8l-1.2,1.9
	c-4.3,6.8-4.5,13.6-0.8,22.3c2.9,6.7,7.4,11.1,18.3,17.7c5.3,3.2,10.8,7,16.4,11.1c2.3,1.7,7.5,5.4,11.5,8s8.8,5.9,10.6,7.1
	c3.5,2.4,13.9,9,20,12.7c10.3,6.3,19.4,14.1,24.5,21c4.1,5.6,4,5.9-0.5,1.7c-1.7-1.6-3.6-3.3-4.3-3.8l-1.2-0.9l0.2,1.1
	c0.1,0.6,1,5.5,2.1,11c5.3,27.3,5.4,28.2,5.2,36.6c-0.2,5.9-0.5,8.2-1.6,10.6c-0.7,1.6-1.8,2.8-2.6,2.8c-1,0-1-1.4-0.3-6.5
	c0.5-3.9,0.6-5.7,0.6-12.1c0-4.1-0.1-7.9-0.2-8.3c-0.1-0.4-1.6-2.4-3.4-4.5c-4.8-5.8-6.3-9.2-7.4-16.5c-0.6-4.3-1.3-6.5-1.9-6.6
	c-2.2-0.2-6.5,0.7-9.4,2.1c-3.5,1.7-7,5.5-8.7,9.4c-2,4.9-2.1,9.5-0.2,17.1c1,3.9,1.6,5.7,3.5,9.9c3.2,7.1,3.9,9,6.1,16.6
	c1.1,3.6,3,9.8,4.2,13.6c3.1,9.5,4.1,12.8,7,23.7c2.8,10.6,4.2,14.8,6.7,20.6c3.3,7.4,6.7,12.8,10.8,17.1c3,3.1,4.9,4.5,7.6,5.3
	c2.6,0.8,7.1,1.5,7.6,1.2c0.2-0.1,0.2-0.2,0.1-0.2s-0.1-0.1,0-0.3c0.2-0.2,0.5-0.2,1.1,0.1c0.5,0.2,1.4,0.4,2.2,0.4h1.3l-0.6,0.5
	l-0.6,0.5l4.6,3.5c2.5,1.9,5.7,4.4,7.1,5.5c3.3,2.7,7.8,7.7,9.5,10.6c0.8,1.3,1.8,2.8,2.2,3.3s1.3,1.8,2.1,2.8s1.7,2.3,2.1,2.9
	C408.2,379.8,407.5,379.5,403.7,375.8L403.7,375.8z M352.8,157.5c-0.8-1.9-1.6-3.5-1.7-3.6c-0.2-0.2-1.1,3.8-1.1,4.8
	c0,0.3,0.7,0.8,2.1,1.5c1.2,0.6,2.2,1,2.2,0.9C354.3,161,353.6,159.4,352.8,157.5L352.8,157.5z M381.6,129.4
	c-0.6-3.9-0.8-14.1-0.4-19.2c0.4-4.6,1.5-12.5,2.2-15.9c0.5-2.2,4.4-16.6,4.8-17.6c0.2-0.5-2.1-0.3-6.4,0.8
	c-7.3,1.8-10,2.9-13.2,5.3c-2.8,2.1-4.8,5-6.8,10l-0.6,1.5l1.6,3.2c1.7,3.4,6.6,12.5,8.6,16.1c1.4,2.4,7.8,14.3,9.3,17.3
	c0.6,1.1,1.1,1.9,1.2,1.7C382,132.5,381.8,131,381.6,129.4L381.6,129.4z M100.3,351.2c-2.9-0.3-7.2-1.5-8.9-2.4
	c-1.4-0.8-1.9-1.3-3.8-4.5c-0.9-1.5-2.8-3.5-4.5-4.6c-1.8-1.2-1.1-1.4,1.7-0.4c1.9,0.7,2.4,0.8,5.8,0.7c3.5,0,3.9,0,6.4,0.9
	c5.8,1.9,9.9,2.3,13.4,1.2c4.7-1.5,9-4.4,11.4-7.9c4.9-7.3,6.9-17.3,7.3-37c0.2-8.8-0.2-13.7-1.4-20.4c-1-5.3-1.1-6.2-0.6-5.3
	c0.9,1.5,2.6,8.2,3.1,12.2c0.9,7,1.3,22.8,0.7,28.2c-0.1,1.3-0.4,3.9-0.6,5.8c-0.8,8.8-3.6,17.7-7.3,22.9c-1.3,1.9-4.9,5.4-6.8,6.7
	C112,350.3,105.9,351.8,100.3,351.2L100.3,351.2z M406.7,336.2c-2.3-0.4-5-1.4-6.9-2.3c-2.4-1.3-6.1-4.1-7.5-5.8
	c-3.6-4.4-7-11.7-8.8-19.2c-3.2-12.8-5-33-3.9-42.2c0.5-3.9,1.2-7.6,1.5-7.3c0.1,0.1,0,2.7-0.2,5.8c-0.4,6.6-0.2,12.3,1,20.5
	c2.7,19.6,6.2,29.8,12.3,35.9c2.2,2.1,4.4,3.6,7.7,4.8c6.3,2.4,10.6,2.1,18.2-1.4c2.4-1.1,3.2-1.3,4.4-1.3c1.8,0,3.7-0.5,6.6-1.8
	c1.2-0.5,2.2-0.9,2.3-0.8c0.1,0.1-0.9,1.2-2.1,2.4c-1.3,1.3-2.7,3-3.3,4c-2.1,3.8-3.2,4.8-7.1,6.4c-3.5,1.5-7,2.2-10.5,2.3
	C408.8,336.3,407.1,336.3,406.7,336.2L406.7,336.2z M263.6,84.6c-0.5-0.6-1.7-1.6-2.8-2.2c-1-0.6-2-1.2-2.1-1.4
	c-0.1-0.2-1.9-1.4-4.1-2.9c-4.4-2.9-6.2-4.5-6.2-5.5c0-0.7,1.6-2.7,8-10.2c1.9-2.3,4.2-4.9,5-5.9c1.1-1.3,1.9-2,3.1-2.6
	c2.3-1.2,2.4-1.1,2.3,4l-0.1,4.1l1.2,0.2c0.8,0.1,2.4,0,5.2-0.5c5.6-0.9,12.3-1.4,14.4-1s2.8,1.3,2.6,3c-0.1,0.7-1.2,3.9-2.5,7.1
	c-2.8,6.9-3,7.3-4.1,8.5c-0.8,0.8-1,0.9-2.5,0.9c-0.9,0-2.9-0.2-4.4-0.4c-1.5-0.2-4.4-0.4-6.4-0.4h-3.6v2.2c0,2.8-0.4,3.9-1.4,3.9
	C264.6,85.7,264.2,85.4,263.6,84.6L263.6,84.6z M227.5,84.2c-0.1-0.2-0.2-1-0.3-1.7c-0.1-0.8-0.2-2-0.3-2.7l-0.2-1.3h-3.6
	c-2,0-4.8,0.2-6.3,0.4c-1.5,0.2-3.5,0.4-4.4,0.4c-1.5,0-1.7-0.1-2.5-0.9c-1.1-1.2-1.3-1.5-4.1-8.5c-1.3-3.2-2.4-6.4-2.5-7.1
	c-0.2-1.8,0.5-2.6,2.6-3c2-0.4,8.8,0,14.4,1c2.8,0.5,4.4,0.6,5.2,0.5l1.2-0.2l-0.1-4.1c-0.1-5.1,0-5.2,2.3-4c1.1,0.6,2,1.3,3.1,2.6
	c0.8,1,3,3.6,5,5.9c6.4,7.4,8,9.5,8,10.2c0,1-1.8,2.5-6.2,5.5c-2.1,1.4-4,2.7-4.1,2.9s-1,0.8-2.1,1.4s-2.3,1.6-2.8,2.2
	C228.9,84.6,227.7,85,227.5,84.2L227.5,84.2z M230.9,47c-5.1-0.2-6-0.3-6.5-1.3c-0.5-0.9-0.6-4.5-0.3-6.4c0.8-4.4,3.5-7.2,9.4-9.7
	c1.8-0.8,2.7-1.9,2.7-3.6c0-2.4-1.7-3.6-4-2.9c-1.2,0.4-2.2,1.5-3.6,4.3c-0.6,1.2-1.3,2.3-1.6,2.4c-0.4,0.2-0.9,0-2.4-1
	c-2.3-1.5-3.2-3-2.9-4.6c0.6-2.8,4.2-6.9,7.7-8.6c1.8-0.9,2.4-1,4.5-1.2c2.3-0.1,2.5-0.1,4.2,0.8c2.9,1.4,4.9,4.4,5.6,8.2
	c0.7,3.8-1.3,8.8-4.7,11.6c-0.8,0.7-1.6,1.3-1.8,1.5c-0.2,0.1,0.5,0.2,1.5,0.1c1.5-0.2,1.9-0.1,2.3,0.3c0.6,0.6,1,2.1,1.2,5
	s-0.1,4.2-1.2,5C240.3,47.3,240.6,47.3,230.9,47L230.9,47z M259.9,45.8c-0.2-0.3-0.7-1.5-1.2-2.6s-0.9-1.9-1-1.9s-0.6,0.9-1,1.8
	s-0.9,1.9-1.2,2c-1.2,0.7-8,0-8.7-0.8c-0.8-0.9,1.1-4.6,4.2-8.6c1.3-1.6,1.7-2.4,1.6-2.8c-0.1-0.3-1.4-1.9-3-3.6
	c-2.3-2.4-2.8-3.2-2.8-3.8c0-0.7,0.1-0.8,0.8-0.8c0.5,0,2.1-0.4,3.6-1c3-1.1,3.7-1.1,4.2-0.3c0.2,0.3,0.8,1.3,1.5,2.3l1.2,1.7
	l1.1-0.9c0.6-0.5,1.6-1.6,2.1-2.4c0.7-1,1.2-1.6,1.7-1.6c0.4-0.1,1.5,0.4,2.9,1.3c1.2,0.7,2.8,1.6,3.4,1.9c1.9,0.9,1.9,1-1.3,5.3
	c-2.2,2.9-3.5,5.3-3.5,6.1c0,0.7,2.1,4.6,2.7,5.2c0.7,0.6,0.7,1.6,0.1,2.1c-0.3,0.2-1.1,0.5-1.8,0.6s-2,0.4-2.7,0.7
	C260.9,46.6,260.3,46.6,259.9,45.8L259.9,45.8z"/>
<path id="path2531" inkscape:connector-curvature="0" class="st1" d="M117.5,388.3c0.6-1,1.5-2.7,2.1-3.7s1.4-2.6,1.9-3.6
	c2.3-4.7,9.7-13.5,16.4-19.5c1.2-1.1,2.2-2.1,2.3-2.3c0.4-0.7,1.8-1.2,2.6-1c1.2,0.2,6.1-1.1,8.7-2.3c1.8-0.9,2.6-1.5,4.1-3
	c5.7-6.2,10.3-16.3,13.2-29.2c0.4-1.7,1.2-6.8,1.9-11.5c1.7-11.5,2.7-17.2,4.2-24.7c0.7-3.5,1.9-9.6,2.6-13.6
	c1.5-8.8,2.1-11.2,4.2-18c0.9-2.9,1.8-5.8,1.9-6.6c0.5-2.3,1.2-8.9,1.2-11.3c0-4.7-2-10-4.9-13.2c-4.1-4.6-8.7-6.7-14.6-6.7h-2.9
	l-0.4,0.8c-0.2,0.5-0.5,3-0.8,6.9c-0.5,8.5-1.1,10.4-5.6,17l-2.6,3.8l0.1,2.6c0.2,5.6,1,11.4,2.7,18.1c1,4.2,1.2,6.6,0.6,6.6
	c-0.2,0-0.8-0.3-1.3-0.6c-1.9-1.3-3.2-4.9-4.3-11.6c-0.6-4.1-0.7-14,0-22.1c1.4-18.3,2.1-28.3,2-28.4c-0.1-0.1-0.5,0.4-1,1
	c-5.2,6-6,6.8-6,6.1c0-0.1,0.7-1.4,1.5-2.9c3.5-6.1,12.2-15.6,20.4-22c1.3-1,5-4,8.2-6.6c3.3-2.6,7-5.6,8.3-6.7
	c1.3-1,4.2-3.4,6.3-5.3c8.2-7.2,9.7-8.6,11.5-9.9c1-0.7,3.4-2.9,5.3-4.7c4.6-4.3,11.6-10.4,16.3-14c4.3-3.3,9.7-8.5,11.4-10.9
	c3.1-4.3,5-10.3,5.2-16.2c0.2-5.7-0.9-9.4-4.4-13.9c-1.6-2.1-2-2.4-2.3-1.6c-0.5,1.6-0.8,2.1-1.5,2.5c-0.4,0.2-2.8,2.2-5.2,4.3
	c-4,3.6-7.5,6.5-10.7,8.9c-0.6,0.5-3.8,3.2-7.1,5.9c-9.4,8-22,17.7-30.4,23.3c-4.1,2.8-8.5,5.8-9.7,6.7
	c-1.8,1.3-19.8,13.8-20.8,14.4c-4,2.5-6.2,3.8-6.7,4.3c-0.8,0.8-2.7,8.4-3.8,15.7c-0.5,3.2-1,17-0.7,20.3c0.1,1.3,0.2,2.5,0.1,2.6
	c-0.3,0.5-0.6,0.1-1.3-1.4c-4.3-9.2-3.1-24.4,3.6-44.9c2-6.1,7.6-20.8,11.1-29.2c5-12,11.1-27.6,12.5-31.9c2.2-6.7,3.6-14,3.6-18.3
	c0-6.4-1.9-12.3-6.1-18.9c-3.1-4.9-6.6-8.7-11-12c-3-2.2-3.7-2.6-5.1-2.7c-0.7-0.1-1-0.2-1-0.6c0-0.4,0.2-0.5,1.4-0.4
	c1.8,0.1,3.6,1,7.1,3.5c7.9,5.6,14.4,15.6,16.3,25.1c0.7,3.6,0.4,10.5-0.7,15.7c-1.2,5.6-2.5,9.9-5,16.6c-1.2,3.2-2.9,8.1-3.9,10.9
	s-3.2,9-5,13.7s-4.1,11.3-5.2,14.6l-2,6l0.5,1.6c0.3,0.9,0.9,2.8,1.2,4.2s0.8,2.7,0.9,2.8c0.2,0.2,13.5-9.2,24.6-17.3
	c1.4-1,3.9-2.8,5.8-4.1c4.1-2.9,23.5-17.7,30.9-23.6c7.3-5.8,10.5-8.7,17.1-15c3-2.9,5.6-5.2,5.9-5.2c2.3,0,7.5,7.2,8.7,12.1
	c1,3.8,0.4,11.2-1.2,14.9c-1.7,4-3.2,7-4.5,8.7c-2,2.7-7.5,7.9-12.1,11.4c-4.4,3.3-10,8-13.8,11.6c-1.4,1.3-3.5,3.2-4.7,4.3
	s-2.3,2.1-2.4,2.2c-0.3,0.4-4.2,3.7-5.2,4.3c-0.7,0.5-3.5,2.8-8.1,6.9c-1.4,1.2-4.3,3.7-6.6,5.5s-5.5,4.6-7.3,6
	c-1.7,1.5-4.7,4-6.6,5.6s-6.2,5.6-9.7,9l-6.2,6.2l-0.2,11.7c-0.1,6.4-0.3,12.7-0.4,14c-0.3,2.7-0.4,8.8-0.1,8.8c0.3,0,3.8-7.1,4.5-9
	c1.2-3.6,1.6-5.7,1.8-11c0.1-2.9,0.4-5.7,0.6-6.2c0.5-1.3,1.7-2.6,2.6-3c1.1-0.5,3.2-0.5,4-0.1c0.3,0.2,1.6,0.4,2.8,0.4
	c2.6,0.1,4.9,0.8,7,2.2c5.5,3.6,7.8,6.6,9.4,12.2c2,7,1.4,15.4-2,26.1c-2.3,7.1-2.8,9.3-4.3,17.7c-0.7,4-1.9,10.5-2.8,14.5
	c-1.8,8.6-2.5,12.7-4,23c-1.7,11.8-3.1,17.9-6,25.5c-2.4,6.5-4.6,10.5-8.1,15.2c-2.4,3.2-4.4,5-6.9,6.2c-3,1.5-5.1,1.9-8.1,1.8
	l-2.5-0.1l-1.4,1.7c-3,3.5-5.7,7-7.8,10.3c-3.2,5-6.6,9.3-11.1,14.2c-2.2,2.4-4.2,4.4-4.4,4.4C116.6,390.2,116.9,389.4,117.5,388.3
	L117.5,388.3z M144.8,169.7c1.8-1.3,2.2-1.7,2.1-2.1c-0.5-2.1-1.7-5.9-1.9-5.7s-2,5.5-2.8,8.3C141.7,171.9,141.7,171.9,144.8,169.7z
	 M402.4,374.4c-1.2-1.1-3.3-2.9-4.7-3.9c-3-2.1-7-6.3-11.8-12.3c-3.8-4.7-8.5-9.5-9.5-9.5c-0.3,0-1.3,0.2-2.1,0.4
	c-3.2,0.8-8.6-0.4-11.8-2.5c-3.1-2-8.3-8-11.1-12.9c-1.8-3.1-4.6-8.8-6.2-12.5c-1.9-4.6-2.9-8-5.5-17.7c-2.5-9.5-4.1-14.8-7-23.7
	c-1.1-3.4-3-9.4-4.1-13.3c-2.3-7.9-2.6-8.8-6-16.4c-1.7-3.9-2.6-6.3-3.2-8.6c-1.6-6.4-1.9-8.3-1.9-11.9c0-8.5,2.6-13.9,8.8-18.3
	c2.6-1.8,4.1-2.5,6.5-2.9c1-0.2,2.4-0.5,3.2-0.8c2.2-0.8,3.7-0.6,5.2,0.8c1.1,1.1,1.7,3.1,2.4,7.6c0.7,5.1,0.9,5.7,2.3,9
	c1.6,3.8,6,10.7,6.2,9.7c0.1-0.5-0.5-5.2-1.3-10.2s-2.5-17.2-2.7-20.1c-0.2-1.9-0.4-2.7-0.7-3.1c-0.6-0.7-6.7-5.6-11.1-8.9
	c-1.6-1.2-7.8-5.4-13.7-9.4c-6-4-12.4-8.3-14.4-9.7s-6.8-4.7-10.8-7.3c-4-2.7-8.6-5.9-10.3-7.1c-3.9-2.9-11.4-8-15.4-10.4
	c-6.6-4-12.7-8.5-14.8-11.2c-3-3.7-5.6-8.7-6.7-13c-0.6-2.3-0.7-3.3-0.7-6.7c0-3.8,0-4.1,0.8-6.4c1.4-3.9,5.1-9.3,6.5-9.3
	c0.2,0,1.7,1.1,3.4,2.4c9.2,7.3,14,10.6,29.5,20c7.8,4.8,21.5,12.8,26.9,15.8c3.1,1.7,7,4,8.8,5c10.7,6.3,22.2,12.6,22.5,12.3
	c0.1-0.2,0.5-2.1,0.8-4.4l0.7-4.1l-2.3-4.9c-1.3-2.7-4.7-9.8-7.7-15.7C324,97.4,322.9,94.9,320.6,87c-1.2-4-1.6-6.6-1.5-10.5
	c0-5.5,1.2-10,4.3-16.5c3-6.3,6.1-10.3,10.8-14.1c2.4-1.9,3.6-2.6,5.2-2.8c1.1-0.2,1.2-0.1,1.2,0.4c0,0.4-0.2,0.6-0.6,0.6
	c-2.2,0-7.9,5.5-11.8,11.6c-3.8,5.8-5.7,10.5-6.6,16.3c-0.5,3.3-0.4,6.9,0.3,10.5c0.6,3.1,3.1,10.4,5,14.5
	c1.8,4.1,9.5,18.6,16.2,30.4c5,9,12.4,23.2,15,29.2c2.7,6,4.6,10.9,6.2,16c1.8,5.9,2.7,10.1,3.1,15.2c0.3,3.5,0.2,4.6-0.1,7.4
	c-0.4,3.2-1.3,6.4-1.8,6.4c-0.4,0-0.6-0.8-0.6-2.7c0-2.7-1.3-12.4-2.4-17.1c-0.7-3.3-4.2-14.1-5.4-16.8l-0.7-1.5l-3.3-1.6
	c-4.3-2.1-4-1.9-9.6-4.9c-2.7-1.5-6.9-3.7-9.3-5s-5.4-2.9-6.7-3.6c-1.3-0.7-6-3.1-10.6-5.4c-9.9-5-23.5-13.1-32.5-19.3
	c-2.4-1.6-6.7-4.6-9.8-6.6c-3-2-7.8-5.2-10.6-7.2c-2.8-1.9-5.3-3.5-5.5-3.5c-0.5,0-1.2-0.8-1.6-1.9c-0.2-0.5-0.4-0.8-0.6-0.8
	s-0.8,1-1.5,2c-2.6,4.2-3.6,7.9-3.3,12.2c0.4,6.6,3.8,14.3,8.2,18.6c2.5,2.4,7.3,6,12.6,9.2c5.8,3.5,11.2,7.2,16.3,11.1
	c2.1,1.6,7.3,5.2,11.5,8s9.2,6.2,11,7.4c3.5,2.4,13.9,9,20,12.7c7.4,4.6,13.1,8.9,18.2,14c3.8,3.8,7.9,8.9,7.7,9.5
	c-0.1,0.2-1.1-0.6-2.4-1.8c-2.7-2.4-5.2-4.4-5.3-4.2c-0.1,0.1,0,0.9,0.3,1.8c0.2,0.9,1.2,6,2.2,11.2s2.4,12.5,3,16
	c0.7,3.5,1.4,7.5,1.5,8.8c1.1,8.8,0.7,17.9-1.1,21.9c-1,2.4-2.5,3.3-2.9,1.8c-0.1-0.4,0.1-3,0.5-5.7c0.6-4.2,0.7-6.1,0.6-11.9
	c0-3.8-0.1-7.5-0.2-8c-0.1-0.7-1-2-3-4.4c-3.5-4.3-3.7-4.5-5.1-7.2c-1.3-2.5-2-5.3-2.7-9.4c-0.5-3.5-0.9-5-1.4-6.3l-0.4-1l-2.3,0.1
	c-2.5,0.2-6.5,1.4-8.6,2.6c-3.4,2-6.9,6.5-8.2,10.3c-1.6,5-1.6,8.1,0.1,15.2c1.1,4.7,1.5,5.8,4.3,12.1c2.5,5.6,3.3,7.8,5.6,15.8
	c1.2,4.1,3.2,10.6,4.5,14.5c2.7,8.2,3.8,11.9,6.6,22.6c2.4,9.1,3.3,12,5.1,16.7c1.5,3.7,4.5,10,6.2,12.7c3.3,5.5,8.5,11.1,11.8,12.7
	c2.3,1.1,5.9,1.8,9.2,1.9c2.9,0.1,3,0.1,3.8,0.9c0.5,0.4,2.1,1.7,3.6,2.8c9.5,7,14.4,11.7,17.7,17c0.8,1.4,2.4,3.7,3.5,5.2
	s2,2.8,2,2.9C405.1,376.7,404.5,376.2,402.4,374.4L402.4,374.4z M354.6,161c-0.5-1.3-3.4-7.5-3.6-7.7c-0.3-0.3-0.4,0.2-1,3.2
	c-0.2,1.3-0.4,2.5-0.3,2.6c0.3,0.3,4.4,2.5,4.7,2.5C354.7,161.7,354.8,161.5,354.6,161L354.6,161z M18.3,372.9c0-0.2,0.9-1.9,2-3.8
	c2.4-4.1,3-5.1,8.1-14.1c2.1-3.7,5-8.8,6.4-11.4c4.6-8.4,18.8-37.6,19.9-40.7c0.3-1,1.1-2.7,1.6-3.7c5.2-10.4,10.2-26.8,12.2-39.9
	c1.4-9.5,1.5-24.7,0.2-38.5c-2-21.8-8.5-46.6-19.2-73.1c-2.2-5.5-4.3-10.6-4.7-11.4c-0.4-0.8-2.5-6.1-4.9-11.8s-5.3-12.5-6.5-15.1
	s-2.6-5.3-2.9-6.1c-0.4-0.8-0.9-1.4-1.1-1.4s-0.4-0.1-0.4-0.2s-0.1-0.8-0.1-1.4c-0.1-0.9,0-1.4,0.3-1.7c0.6-0.7,5.7-3.4,7.6-4
	c5.6-2,12.7-1.8,17.7,0.5c3.6,1.6,9.3,6.5,12.6,10.9c3,3.9,7.5,11.7,9.5,16.6c0.5,1.1,2.2,6.4,3.9,11.8c3.4,10.7,4.5,13.6,10.8,28.1
	c2.3,5.4,4.9,11.4,5.7,13.4s1.5,3.5,1.6,3.5s0.5-0.8,0.9-1.9c2.8-7.2,4.1-10.4,4.6-11.3c0.9-1.8,7.1-17.2,7.1-17.7
	c0-0.3-0.1-0.5-0.3-0.5c-0.3,0-0.4-0.6-1-6.7c-1.1-12-3.4-21.2-10-40.5c-1.9-5.4-3.4-10.1-3.4-10.5c0-1.3,1-1.8,4-2.2
	c5.1-0.5,12.3,0.2,16.1,1.7c5.3,2,9.4,6.1,11,11c1.1,3.5,0.8,4-0.9,1.3c-2.7-4.4-5-6.6-8.9-8.6c-2.5-1.3-5-1.9-10.5-2.7
	c-5.4-0.8-8.3-1-8.2-0.6c0,0.2,1.4,3.6,3.1,7.6c3.4,8.2,4.4,11.3,6.2,18.3c2.3,9.3,3.3,17.2,3.3,25.9c0,5,0,5.7,0.3,4.9
	c1.9-4.3,14.9-36.5,15.9-39.6c0.4-1.3,1-2.8,1.3-3.4c0.6-1.5,7.1-20.3,8-23.2c0.6-2.1,1.2-4.4,4.3-16.3c0.4-1.6,1-4.6,1.4-6.6
	c0.7-4.4,1.1-5.2,1.1-2.4c0,4.3-1.2,11.6-4.2,24.5c-6.3,27.1-12.4,43.4-28.2,75.4c-2.9,5.8-5.4,11-5.6,11.5s-1.7,3.9-3.4,7.4
	c-1.7,3.5-3,6.6-3,6.9c0,1.2,6,13.3,10.6,21.6c1.7,3.1,3.6,6.6,4.1,7.7c0.5,1.2,1.4,3,2,4.1s1.1,2.1,1.1,2.2c0,0.5-1-0.1-4.1-2.5
	c-3.7-2.9-5.2-4.7-8.4-10.1c-4.7-8-7.8-14.6-12.7-27.5c-1.2-3.2-3.8-10-5.8-15c-5.1-13.2-5.1-13.3-8.7-25.7
	c-4-13.8-5.2-16.9-9.2-23.8c-2.1-3.6-2.6-4.2-5.1-7.2c-2-2.4-6.8-6.3-9.5-7.6c-4.2-2.1-10.3-2.6-14.9-1.4c-2.2,0.6-7.3,2.5-8.5,3.2
	c-0.4,0.2,0,1.2,4,9.1c3.6,7.1,12.8,27.5,12.8,28.3c0,0.1,1.6,3.9,3.5,8.4c4.7,10.9,6.1,14.4,9.2,23.6c5.2,15.6,8.5,28.8,10.4,42.2
	c2.3,15.8,2.6,35.9,0.9,48.1c-1.9,13.4-5.9,27.1-11.3,38.8c-0.9,1.9-2,4.7-2.5,6.2c-1.3,3.8-3.9,9-7.5,14.9
	c-1.9,3.1-4.5,8.1-6.7,12.6c-5.5,11.4-12.1,23.6-16.4,30c-2.5,3.7-7,10.1-7.8,11.1C18.6,373,18.3,373.1,18.3,372.9L18.3,372.9z
	 M100,350.9c-4-0.5-8.4-2-9.8-3.3c-0.3-0.3-0.9-1.2-1.4-1.9c-1.3-2.2-3.1-4.5-4.4-5.4c-2-1.4-1.6-1.6,1.1-0.7
	c1.4,0.5,2.3,0.6,5.3,0.6c3.3,0,3.8,0,6,0.8c5.7,1.9,9.9,2.3,13.6,1.3c3.8-1.1,7.4-3.3,10.1-6.1c6.3-6.8,9-19.5,9-42.2
	c0-7.4-0.4-13.6-1.1-17c-0.1-0.5-0.1-0.6,0.1-0.3c0.4,0.7,1.4,4.7,1.7,7c0.9,6.9,1.2,22.2,0.6,28.5c-0.8,7.8-0.9,9.2-1.4,11.9
	c-1,5.5-3.7,12.4-6.1,15.9c-1.2,1.8-4.2,4.8-6.1,6.2C112.4,350,106.1,351.7,100,350.9L100,350.9z M491.8,336.7
	c-1.8-2.4-4.8-6.4-6.7-8.9c-3.7-5-14.1-19.4-17.8-24.9c-1.3-1.9-3.7-5.8-5.4-8.8c-4-6.9-5-8.4-6.5-9.7c-3.2-2.8-10-15.1-14.2-25.7
	c-4.9-12.5-7.1-20.8-8.7-32.6c-3.5-26.5-2.2-49.7,4.6-79.9c1.7-7.5,2.5-10.6,6.3-23.3c8.3-27.6,8.8-29.4,12.3-38.4
	c1.4-3.6,2.5-6.6,2.5-6.8s-0.8-0.5-1.9-0.8c-7.8-2.3-10.3-2.5-15.2-1.5c-4.5,0.9-7.3,2.5-11.3,6.4c-4,3.8-6.3,7.5-9.3,14.6
	c-2.6,6.2-3.3,9-5.5,22.2c-2,11.9-2.2,12.8-6.9,30.7c-7.4,28.2-9.2,33.6-14.6,44.2c-1.9,3.7-2.3,4.3-5.1,7.3
	c-1.7,1.8-3.2,3.3-3.4,3.3c-0.5,0-0.5,0,0.5-2.6c0.5-1.2,1.1-2.9,1.4-3.8c0.3-0.8,1.5-4,2.8-7c4-9.5,8.6-22.1,8.6-23.8
	c0-0.8-6.8-11.8-13.4-21.8c-4-6-11.7-18.3-15.5-24.7c-9.3-15.6-16.4-31.5-23.5-52.7c-4.2-12.5-5.4-16.9-6-21.7
	c-0.3-2.4,0.2-1.3,1.5,2.9c1.3,4.5,1.9,6.1,7.1,19.2c2,5,11.7,24.8,12.1,24.8c0.2,0,0.3-0.3,0.3-0.7c0-1.5,1-4.8,1.9-6.6
	c1.8-3.6,6.1-7.1,10.6-8.9c2.6-1,7-2,10.8-2.5c4.6-0.5,7.1,0.1,6.8,1.6c-0.1,0.4-1.2,5.5-2.5,11.3c-4.3,19-5.1,25.9-5.2,39.9v8.9
	l1.7,3.2c1.7,3.2,6.2,11.5,8.5,15.6c0.7,1.2,2.1,3.8,3.1,5.8c2.1,4.1,2.5,4.6,2.7,3.8c0.1-0.3,0.7-2.3,1.3-4.5
	c0.6-2.2,2.3-7.8,3.7-12.5c4.2-14.1,5.2-17.7,6.7-25.3c2.4-12.3,2.8-14,3.6-16.9c1.9-6.3,5.5-14.1,8.6-18.9c2.1-3.2,7.8-9,10.3-10.4
	c4.9-2.9,11.9-3.9,17.2-2.5c2.2,0.6,8,2.8,8.3,3.2c0.1,0.2,0.3,1,0.4,1.9c0.2,1.5,0.1,1.6-0.4,1.6c-0.3,0-0.6,0-0.6,0.1
	s-1,3-2.2,6.5s-3.6,11.5-5.4,17.7c-1.7,6.2-3.3,11.4-3.4,11.7c-0.3,0.5-4.2,14.6-5.7,20.3c-1.4,5.5-3.9,17.2-4.9,23.5
	c-4.2,25-4.6,44.3-1.4,67.6c1.3,9.7,3.2,16.7,7.6,28.1c3.5,9,8.4,18.7,12.6,24.7c0.6,0.9,1.2,2,1.4,2.3c0.2,0.8,4.4,7.7,5.9,9.8
	c0.6,0.8,1.9,2.6,3.1,4.1c5.1,6.6,8.4,11.2,13.1,17.9c2.8,4,7,9.9,9.3,13.2c8.8,12.4,8.7,12.2,7.9,13
	C495.6,341.5,495,340.9,491.8,336.7L491.8,336.7z M381.9,129.9c-0.6-3.9-0.8-15.5-0.4-20.4c0.4-4.5,1.5-12.2,2.3-15.4
	c0.4-1.9,3.9-14.7,4.8-17.5c0.1-0.5,0-0.5-1.5-0.3c-2.8,0.3-12.1,2.8-14.2,3.8c-2.7,1.2-5.2,3.1-6.8,4.9c-0.7,0.8-2,2.9-2.9,4.7
	c-0.9,1.8-1.8,3.5-2,3.8c-0.3,0.4,0.1,1.2,1.9,4.9c1.2,2.5,4,7.7,6.2,11.7s6,11,8.4,15.5c2.6,4.9,4.5,8.1,4.6,7.8
	C382.3,133.1,382.1,131.5,381.9,129.9z M405.6,335.7c-7.3-1.6-13.3-6.6-17.1-14c-3.5-6.9-5.6-14.8-7.3-26.6
	c-1.4-9.6-2-22.3-1.4-27.3c0.2-1.5,0.4-2.8,0.5-2.8c0.1-0.1,0.2,2.5,0.2,5.7c0.1,8.6,0.9,15.8,3.7,30.2c0.2,0.9,0.8,3.3,1.4,5.2
	c3.8,13.1,10.1,19.8,20.5,22c4.2,0.9,7.9,0.1,14.2-2.7c2.2-1,3.1-1.3,4.7-1.4c1.9-0.1,4.4-0.8,6-1.7c1.5-0.8,1.4-0.3-0.4,1.7
	c-1,1.1-2.3,2.8-2.8,3.7c-2,3.6-3.9,5-8.8,6.8C414.4,336,409.2,336.5,405.6,335.7L405.6,335.7z M263.5,84.1
	c-0.7-0.7-1.6-1.4-2.1-1.7c-0.5-0.2-1.5-0.9-2.3-1.6s-2.7-2-4.3-2.9c-3.5-2.3-5.6-3.9-5.9-4.7c-0.2-0.5-0.2-0.8,0.2-1.4
	c0.6-1,3.6-4.6,7-8.4c1.4-1.7,3.2-3.7,3.8-4.5c2.1-2.6,3.4-3.9,4.7-4.5c1-0.5,1.3-0.6,1.5-0.3c0.1,0.2,0.2,2.2,0.2,4.5v4.1l1.1,0.3
	c0.8,0.2,2.1,0.1,5.6-0.5c5.4-0.9,11.3-1.3,13.7-1c2.3,0.3,3.2,1.1,3,2.6c-0.1,1.1-4,11.1-5.4,13.9c-0.4,0.9-1.1,1.8-1.4,2
	c-0.8,0.5-2.5,0.5-6.1,0c-2.9-0.4-10.2-0.6-10.4-0.2c-0.1,0.1-0.2,1.4-0.3,2.7c-0.1,1.4-0.2,2.7-0.3,2.8
	C265.5,85.7,264.7,85.4,263.5,84.1L263.5,84.1z M227.7,84c-0.1-0.2-0.2-1-0.3-1.7c-0.1-0.8-0.3-1.9-0.4-2.6l-0.2-1.2l-3.7-0.1
	c-2.2,0-4.9,0.1-6.7,0.3c-5.6,0.8-6.2,0.6-7.6-2c-1.4-2.8-5.3-12.7-5.4-13.9c-0.2-1.6,0.7-2.4,3-2.6c2.4-0.3,8.3,0.2,13.7,1
	c3.5,0.6,4.8,0.7,5.6,0.5l1.1-0.3v-4.1c0-2.3,0.1-4.3,0.2-4.5c0.2-0.3,0.5-0.2,1.5,0.3c1.3,0.7,2.6,1.9,4.7,4.5
	c0.7,0.8,2.4,2.9,3.8,4.5c3.3,3.8,6.3,7.5,7,8.4c0.4,0.6,0.4,0.9,0.2,1.4c-0.4,0.8-2.4,2.5-5.9,4.7c-1.5,1-3.4,2.3-4.3,2.9
	s-1.9,1.4-2.3,1.6c-0.5,0.2-1.4,1-2.1,1.7C228.5,84.3,227.9,84.6,227.7,84L227.7,84z M231.2,46.7c-6.6-0.2-6.7-0.3-7-3.3
	c-0.3-2.5,0.1-5.1,1-7s3.9-4.6,5.9-5.5c4.4-1.9,5.2-2.7,5.2-5.1c0-1.2-0.1-1.5-0.9-2.3c-2.2-2.2-5.1-0.6-7.2,3.9
	c-0.5,1.1-1.1,2-1.4,2.1c-0.9,0.3-4.3-2.4-4.8-3.9c-0.6-1.7,0.8-4.4,3.7-7.1c2-1.9,3.6-2.9,5.7-3.5c4.7-1.4,8.7,0.4,10.9,5
	c0.9,1.8,1,2.4,1.1,4.4c0.2,4.7-1.6,8-6.5,11.9l-1,0.8l1.2-0.2c0.7-0.1,1.7-0.2,2.4-0.3c1.6-0.2,1.9,0.4,2.3,4.2
	c0.5,5.1-0.2,6.2-3.7,6.1C237.3,46.9,234.1,46.8,231.2,46.7L231.2,46.7z M260.1,45.6c-0.2-0.3-0.8-1.6-1.3-2.7
	c-0.5-1.2-1-2.1-1.1-2.1c-0.3,0-1.6,2.7-1.6,3.2c0,0.2-0.3,0.5-0.6,0.8c-0.4,0.4-1,0.5-2.6,0.5c-2.7,0-5.9-0.6-6-1
	c-0.4-1,1.6-4.9,4-7.8c1.9-2.3,2.2-2.9,1.8-3.7c-0.2-0.3-1.3-1.6-2.4-2.8c-2.6-2.7-3.3-3.6-3.3-4.3c0-0.4,0.1-0.5,0.5-0.4
	c0.3,0.1,1.8-0.3,3.4-0.9c3.4-1.2,3.9-1.3,4.2-0.4c0.1,0.3,0.6,1.1,1.1,1.7c0.5,0.6,1,1.4,1.2,1.7s0.5,0.6,0.6,0.6
	c0.4,0,3.3-3,3.8-4c0.3-0.5,0.7-0.9,1-0.9s1.8,0.7,3.4,1.7s3.1,1.8,3.3,1.9c1,0.5,0.6,1.4-2.6,5.4c-1.5,1.9-2.9,4.5-2.9,5.3
	c0,0.7,2.1,4.9,2.8,5.6c0.7,0.7,0.5,1.7-0.4,1.9c-0.3,0.1-1.3,0.3-2.1,0.4s-1.8,0.5-2.2,0.7C261.1,46.3,260.6,46.3,260.1,45.6
	L260.1,45.6z"/>
<path id="path2529" inkscape:connector-curvature="0" class="st2" d="M118.6,386.7c0.7-1.3,2-3.6,2.7-5.1c2.4-4.4,5.7-8.7,10.6-13.9
	c2.5-2.6,5.7-5.8,7.1-7.1c2.2-2.1,2.6-2.3,3.3-2.2c0.5,0.1,1.9-0.1,3.5-0.5c6.7-1.7,8.8-3.1,12.9-8.8c3.8-5.4,7.3-13.5,9.6-23
	c1.1-4.4,1.5-6.4,3.1-17.6c0.8-5.5,2.3-14,3.4-19.7c1.1-5.6,2.5-13,3.2-16.6c1.3-7.4,1.9-9.9,3.8-15.9c1.9-6,2.1-6.9,2.8-12.3
	c0.7-5.6,0.6-8.1-0.4-11.7c-1-3.5-2.4-5.9-4.8-8.3c-3.5-3.6-6.3-5-11.2-5.9c-4.7-0.8-5.9-0.6-6.3,1.2c-0.2,0.6-0.4,3.3-0.6,5.8
	c-0.3,6-0.6,7.9-1.6,10.5c-1,2.5-1.2,2.9-4.3,7.6l-2.3,3.5l0.3,4.7c0.4,5.5,1,9.4,2.3,15.1c1.3,5.5,1.5,7,0.9,7
	c-2.4,0-4.4-4.6-5.5-12.7c-0.6-4.2-0.6-13,0-20.4c1.3-17,2.1-27,2.3-27.7l0.2-0.8l0.2,1.1c0.1,0.6,0.1,5.1-0.1,10
	c-0.1,4.9-0.3,11.7-0.4,15.2c-0.1,3.6-0.1,6.2,0.1,6.2c0.1,0,1-1.5,2-3.4c3.6-7.1,4.2-9.2,4.5-16.3c0.2-3.6,0.4-5.7,0.7-6.6
	c0.9-2.8,3.7-4.2,6.3-3.2c0.6,0.2,2.2,0.5,3.5,0.6c2.8,0.2,4.7,0.9,8.1,3.2c4.2,2.9,6.5,6.3,8,11.7c0.7,2.5,0.7,3.1,0.7,7.8
	c0,6.6-0.6,10.1-2.8,17.1c-2.3,7.1-2.8,9.3-4,16.1c-0.6,3.2-1.6,8.9-2.4,12.6c-2.3,11.4-3.2,16.2-4.6,26
	c-2.2,14.9-3.4,19.6-7.1,28.8c-3.6,9-8.8,16.2-13.5,18.6c-3.6,1.9-6.9,2.6-9.5,2c-0.8-0.2-1.2-0.2-1.6,0.1c-1,0.7-5.8,6.8-8.8,11.3
	c-1.7,2.6-4,5.9-5.1,7.3c-1.9,2.5-9.3,10.7-9.9,10.9C117.4,389.1,117.8,388,118.6,386.7L118.6,386.7z M402,373.7
	c-1-0.8-3-2.4-4.4-3.5c-3.4-2.5-6.6-5.9-11.5-12c-3.3-4.1-7.8-8.8-9.2-9.6c-0.2-0.1-1.2,0-2.1,0.2c-3.4,0.9-8.7-0.1-12-2.3
	c-2-1.3-4-3.2-6.5-6.2c-2.7-3.3-4.5-6-7.2-11.1c-4-7.8-5.9-12.9-9.2-25.6c-2.8-10.5-3.3-12.4-6.2-21.2c-1.4-4.1-3.4-10.6-4.5-14.4
	c-2.6-8.8-3.2-10.5-6.1-17.1c-2.6-5.9-2.9-6.7-4.1-11.9c-1.1-4.5-1.4-6.6-1.4-9.1c0-5.7,1.6-11.1,4.4-14.5c1.3-1.7,5.1-4.6,7.3-5.7
	c0.8-0.4,2.4-0.9,3.7-1.1c1.2-0.2,2.6-0.6,3-0.8s1.5-0.4,2.3-0.4c1.3,0,1.6,0.1,2.5,0.9c1.3,1.2,1.9,2.5,2.4,6
	c1.2,7.6,1.6,9.3,3.6,13.3c1,1.9,5,7.8,5.3,7.8c0.2,0,0.2-0.4,0.1-1s-0.4-2.8-0.7-5c-0.3-2.2-0.7-5.1-1-6.6
	c-0.4-2.3-2.1-15.2-2.5-18.3c-0.1-0.6,0-1.2,0.1-1.2c0.3,0,0.7,1.9,2.9,13.2c1,5.2,2.3,12.1,2.9,15.2c1.5,8,1.9,11,2.1,16.7
	c0.2,7.4-0.6,12.7-2.4,15.4c-0.7,1-1.2,1.3-1.6,1c-0.4-0.2-0.3-3.4,0.2-6.6c0.4-2.4,0.5-4.7,0.5-11.5c0-5.9-0.1-8.7-0.3-9.1
	c-0.2-0.3-1.7-2.2-3.3-4.2c-4.7-5.6-6.1-8.8-7.2-16c-0.7-4.4-1.2-6.3-1.9-6.9c-1-0.9-6.4,0.1-10.2,1.9c-2.3,1.1-5.4,3.9-7,6.4
	c-2.1,3.2-3.2,7.2-3.2,11.7c0,2.1,0.2,3.6,1.1,7.5c1.1,4.9,1.8,6.8,5,14c2.3,5.2,2.8,6.6,5.4,15.6c1.2,4.1,3.2,10.5,4.4,14.1
	c2.8,8.4,3.4,10.7,5.8,19.8c2.3,8.9,3.5,12.7,4.9,16.7c2.2,5.8,5.6,12.8,8.3,16.7c3.1,4.6,7.7,9.3,10.4,10.5
	c2.7,1.3,8.4,2.4,10.6,2.1l1.2-0.2l5.5,4.2c3,2.3,6.4,4.9,7.5,5.8c2.3,1.9,6.9,6.8,8.2,8.7c0.5,0.7,1.5,2.2,2.2,3.4s1.9,2.8,2.6,3.8
	s1.1,1.8,1.1,1.8C403.9,375.2,403,374.6,402,373.7L402,373.7z M19.4,371.3c0-0.2,2.9-5.4,6.5-11.7c3.6-6.2,7.7-13.6,9.2-16.4
	c4.8-8.8,18.7-37.5,19.7-40.4c0.3-0.9,1-2.6,1.6-3.7c5.5-11,10.4-27.4,12.4-41.7c1.1-8.1,1-25.5-0.2-38
	c-2.1-21.5-8.6-45.9-19.2-72.1c-2.3-5.7-4.4-10.8-4.6-11.3s-2.2-5.2-4.4-10.6s-4.8-11.5-5.7-13.6c-3.7-8-4.8-10.2-5.2-10.3
	c-0.6-0.2-0.6-2.5,0-3c0.8-0.8,6-3.4,8.1-4.1c6.4-2.1,14.3-1.3,19.3,2.1c5.4,3.6,8.9,7.2,12.6,13c4.1,6.3,6.8,11.8,9,18.7
	c6.1,18.9,6,18.6,12.3,33.3c3.4,7.9,6.5,15.2,6.9,16.3s0.9,1.9,1,1.9s0.7-1.2,1.2-2.7c1.3-3.5,3.8-9.5,5.6-13.6
	c0.8-1.8,3.9-9.3,6.9-16.7s6.9-17,8.7-21.4c4.5-10.8,7.6-19.1,12.2-32.2c3.9-11.1,4.1-12,8.2-27.8c0.4-1.7,1-4.1,1.2-5.5
	c0.6-3.7,1-4.1,0.8-0.8c-0.1,3-1.5,10.8-3,17.1c-0.5,2.2-1.5,6.4-2.2,9.2c-1.7,7.3-4.8,18-7.1,24.6c-4.4,13-9.2,24-20.5,47.2
	c-2.8,5.8-5.9,12.1-6.7,14c-0.9,1.9-2.3,5-3.2,6.9l-1.7,3.5l1.2,2.7c2.2,4.9,6.6,13.6,9.8,19.2c1.7,3.1,3.6,6.6,4.1,7.9
	c0.5,1.3,1.4,3,1.9,3.9c1.6,2.7,1.3,2.6-2.9-0.6c-3.9-3.1-5.4-4.9-9.3-11.6c-4.1-7.1-7.1-13.8-11.9-26.2c-1.6-4.2-4.4-11.5-6.2-16.2
	c-4.4-11.3-5-13.2-8.4-25.1c-3.6-12.7-5-16.2-9-23c-3.3-5.6-6.1-8.9-10.4-12c-3.3-2.5-5.2-3.4-8.1-4.2c-3.7-0.9-6.9-1-9.9-0.3
	c-2.8,0.7-10.1,3.5-10.1,3.9c0,0.1,2,4.2,4.5,9.1c2.5,5,6.2,12.8,8.3,17.9c13.7,32.1,12.8,29.8,15.9,38.7
	c9.6,27.6,13.5,49.1,13.5,74.9c0,12.6-0.8,19.7-3.3,30.5c-2.6,11.1-5.3,19.1-9.7,28.6c-0.5,1.1-1.4,3.4-2,4.9
	c-1.5,4.2-3.8,8.7-7.4,14.8c-1.9,3.2-4.5,8.1-6.5,12.2c-3.6,7.6-7.7,15.4-11.8,22.6c-3,5.2-4.6,7.7-8.6,13.3
	C19.6,371.4,19.4,371.7,19.4,371.3L19.4,371.3z M98.9,350.6c-2-0.3-6.1-1.5-7.4-2.2c-1.2-0.6-1.2-0.6-3.6-4.3
	c-1-1.5-2.1-2.9-2.9-3.4c-1.4-1-1.6-1.5-0.6-1.2c2.4,0.8,4.4,1,6.8,0.9c2.5-0.1,2.8-0.1,5.9,0.9c3.4,1.1,7.3,1.9,9.2,1.9
	c2,0,5-0.9,7.8-2.2c5-2.4,7.7-5.2,10.1-10.3c1.7-3.5,2.6-6.3,3.4-10.4c0.5-2.6,1.3-8.8,1.3-9.8c0-0.2,0.2-2.7,0.3-5.5
	c0.3-5.1,0.2-21.6-0.2-23.4c-0.1-0.6-0.1-0.7,0.1-0.5c1.2,1.1,2.2,23.4,1.4,29.9c-0.1,1.2-0.4,3.8-0.6,5.8
	c-0.8,9.6-3.5,18.3-7.3,23.6c-1.5,2.1-5.6,6-7.6,7.2C110.5,350.4,104.8,351.5,98.9,350.6z M494.1,339.5c-0.6-0.8-2.7-3.5-4.6-6
	c-8.3-10.7-22.6-30.9-25.6-36.1c-5.8-10-6.8-11.5-8.3-12.9c-4.4-4.2-11.4-17.4-16.3-31.1c-3.4-9.3-5.2-16.6-6.4-25.2
	c-1.7-12.2-2.2-20.4-2-32.8c0.2-10.4,0.6-16,2-25.9c2.2-15.4,4.7-26.6,9.7-43.5c8.7-29.2,10.1-33.6,13.8-43.1c1.5-3.9,2-5.3,1.7-5.5
	c-0.4-0.5-5.9-2-8.7-2.5c-1.3-0.2-3-0.4-3.9-0.4c-3.4,0-8.3,1.4-11.2,3.2c-2.4,1.4-7.3,6.4-9.2,9.2c-3.1,4.7-6.4,12.6-8,18.9
	c-0.4,1.4-1.4,7.1-2.3,12.6c-2,11.9-2.4,13.8-5.8,26.7c-1.4,5.4-3.4,12.8-4.3,16.3c-2.2,8.3-3,11.1-4.8,16.4
	c-3.2,9.3-7.4,18.1-10,20.9c-0.9,1-1.9,2.2-2.4,2.8c-0.8,1.1-2.3,2.3-2.5,2c-0.1-0.1,0.3-1.2,0.8-2.4c0.5-1.3,1.1-2.8,1.3-3.5
	c0.2-0.7,1.3-3.5,2.5-6.3s2.9-6.8,3.7-8.9c1.6-4.2,5.3-15,5.3-15.7c0-0.5-3.6-6.3-10-16.2c-10.3-15.9-12.8-19.8-16.1-25.3
	c-9.7-15.8-16.1-29.1-22.6-46.3c-1.9-5.1-6.1-17.4-7.5-22.2c-1.3-4.1-2.4-9.5-2.1-9.8c0.1-0.1,0.7,1.5,1.3,3.5
	c1,3.3,3.5,9.7,6.6,17.6c1.7,4.1,6.4,14,13.6,28.3c2.2,4.4,7,13.5,9.3,17.4c0.6,1.1,2.9,5.2,4.9,9.1c3.5,6.5,5.9,10.8,6.4,11.8
	c0.1,0.2,0.5,1,0.9,1.8c1.1,2.2,7.5,14,10,18.4c0.6,1.1,2,3.6,3.1,5.8c1.1,2.1,2.2,4,2.4,4.2c0.3,0.3,0.5,0,1-1.9
	c0.4-1.3,2.4-7.9,4.4-14.8c5.2-17.5,5.1-17.2,7.6-29.7c2.8-14,3.9-17.6,8.1-26c3.1-6.3,5.5-9.5,9.8-13.4c4.8-4.4,9.4-6.1,16-6.1
	c1.8,0,3.5,0.2,4.8,0.5c2.6,0.7,7.8,2.7,8.2,3.2c0.5,0.6,0.6,2.4,0.1,2.9c-0.2,0.2-0.6,1.2-1,2.1c-2.8,7.9-4.5,13.5-7.1,22.6
	c-1.6,5.8-3.4,11.7-3.8,13.1c-0.9,2.6-4.4,15.2-5.7,20.2c-1.2,4.7-3.7,16.5-4.5,21.6c-2.8,16.5-3.8,28.6-3.5,42.4
	c0.2,10.9,0.7,17.2,2.3,27.8c2.2,15.5,10.6,37.2,19.3,50.1c0.7,1.1,1.7,2.8,2.3,3.9c1.6,3.2,5.8,9.6,9,13.7
	c4.1,5.3,7.7,10.2,12.6,17.3c5.5,7.9,11.4,16.2,14.4,20.3c2.1,2.8,3.5,5,3.5,5.5c0,0.2-0.9,1-1.1,1
	C495.4,341,494.8,340.3,494.1,339.5L494.1,339.5z M406.3,335.7c-3.9-0.7-7.1-2.2-10.5-4.9c-3.5-2.8-5.8-6-8.3-11.7
	c-2.5-5.5-3.4-8.6-5-17.3c-1.4-7.3-2.1-13.6-2.6-22.5c-0.2-3.8-0.1-10.9,0.2-10.6c0,0,0.2,2.4,0.4,5.1c0.4,5.8,1.3,13.7,2.3,19.3
	c0.4,2.1,0.8,4.6,1,5.5c0.6,4.1,3.1,12.1,4.7,15.3c1.2,2.4,3.5,5.8,5,7.5c2.5,2.8,7,5.2,11.8,6.4c1.8,0.5,2.8,0.5,5.1,0.4
	c3.2-0.2,5.4-0.8,10.2-3c2-0.9,3.1-1.2,4.8-1.4c2-0.2,4.5-0.9,5.9-1.6c0.9-0.5,0.7-0.1-1.2,2.1c-1,1.1-2.2,2.8-2.6,3.7
	c-0.5,0.9-1.4,2.2-2,2.8c-1.9,1.9-7,3.9-11.7,4.7C410.5,336.2,408.9,336.2,406.3,335.7L406.3,335.7z M146.4,217.6
	c0-0.2,0.6-1.4,1.3-2.6c2.6-4.4,8.4-11.2,13.7-16.1c3.9-3.5,4.7-4.2,10.4-8.8c15.3-12.3,14.9-11.9,22.4-18.6
	c3.3-2.9,5.9-5.1,8.9-7.5c0.9-0.7,3.1-2.7,4.9-4.4c4-3.8,10.8-9.7,14.5-12.5c5.7-4.3,11-9.4,13.1-12.3c1.5-2.2,3.2-6.2,4.1-9.6
	c0.8-2.9,0.9-3.8,0.9-7.1c0-4.2-0.4-6.2-2-9.5c-1-1.9-4.1-6.1-4.4-5.9c-0.2,0.1-0.5,0.6-0.7,1.3c-0.3,0.7-0.7,1.4-1.1,1.5
	c-0.3,0.2-2.4,1.8-4.5,3.7c-5.6,4.9-9.2,8-10.3,8.7c-0.5,0.4-2.9,2.3-5.3,4.4c-7.6,6.5-8.7,7.4-15.9,13c-10,7.8-10.8,8.4-17.7,13
	c-3.4,2.3-7,4.7-8.1,5.5c-1.7,1.3-4.3,3.1-17.9,12.4c-2.3,1.6-4.4,3-4.7,3.2c-3.1,1.9-6.6,4.3-6.8,4.7c-0.4,0.8-2.2,8.4-2.9,12.6
	c-1,5.7-1.3,11.3-1.2,18.8c0.1,3.8,0,6.4-0.1,6.4c-0.5-0.3-1.6-2.8-2.3-5.5c-0.7-2.4-0.8-3.4-0.9-7.8c-0.1-3.8,0-6,0.3-8.5
	c0.9-7,2.8-14.9,5.4-23.3c1.6-5.1,7.8-21.4,10.8-28.8c5.3-12.7,12.3-30.7,13.5-34.6c0.6-2,1.5-5.5,2-7.7c0.8-3.7,0.9-4.3,0.9-9.3
	c0-5.1,0-5.5-0.8-8.1c-1.9-6.7-6.8-14.5-12.2-19.6c-3.1-2.9-6.5-5.3-8.3-5.9c-0.9-0.3-1.6-0.6-1.6-0.7c0-0.3,3.1,0.1,4,0.5
	c1.2,0.6,4.7,3,6.6,4.5c4.3,3.4,10.3,12,12.3,17.8c1.6,4.5,1.9,6.4,1.9,11.4c0,4-0.1,5.2-0.8,8.4c-1.4,6.9-2.6,10.9-5.9,19.7
	c-0.9,2.4-2.3,6.3-3.1,8.5s-2.9,8.1-4.7,13s-4.3,11.8-5.5,15.3l-2.2,6.4l0.8,2.8c0.5,1.5,1,3.5,1.3,4.5c0.3,0.9,0.6,1.7,0.7,1.7
	c0.3,0,8.2-5.6,20.4-14.4c2.9-2.1,7.1-5.1,9.3-6.7c5-3.5,21.9-16.4,30.2-23c9.5-7.6,11.9-9.6,20.3-17.9c2-1.9,3.7-3.5,3.8-3.5
	c1.5,0,5.7,4.8,7.4,8.5c3,6.6,2.3,14.6-2.1,23.4c-2.3,4.7-6.8,9.3-15.1,15.6c-4.1,3.1-10.7,8.7-14.1,12c-4.3,4.1-9.4,8.6-10.6,9.4
	c-1.5,1-3.1,2.3-7.1,6c-1.7,1.6-5,4.3-7.2,6.1s-5.8,4.8-8.1,6.7s-5.6,4.7-7.4,6.2c-3.3,2.7-13.8,13-16.5,16.2
	c-1.9,2.2-4.7,5.3-5.5,6.2C146.6,217.8,146.4,217.9,146.4,217.6L146.4,217.6z M144.3,170.3c3-2.1,3-2,2.4-3.8
	c-0.3-0.8-0.6-2.2-0.8-3.1c-0.5-2.4-0.5-2.5-0.8-2s-3.3,9.5-3.3,10c0,0.2,0.1,0.4,0.1,0.4C142,171.8,143,171.1,144.3,170.3z
	 M354.3,207.2c-1.8-1.6-5.4-4.6-5.6-4.6c-0.1,0-0.8-0.6-1.6-1.4c-1.4-1.4-8.9-7.3-13.1-10.4c-1.1-0.8-6.3-4.3-11.5-7.8
	s-11.1-7.4-13-8.7c-2-1.3-7.3-4.9-11.8-8c-4.5-3-9.4-6.4-10.8-7.5c-3.9-2.9-11.5-8-15.8-10.6c-6.2-3.7-11.3-7.6-14-10.5
	c-4-4.4-7-11.3-7.8-17.7c-0.6-4.7,0.5-9,3.1-13.4c1.6-2.6,3.2-4.3,4-4.3c0.4,0,1.6,0.8,3,1.9c7.4,5.9,13.5,10.2,22.3,15.6
	c12.7,7.9,26.5,16.1,37.5,22.3c2.5,1.4,6,3.4,7.8,4.5c4.1,2.4,19.6,11,20.1,11.2c0.3,0.1,0.6-0.9,1.2-4.3l0.8-4.4l-3-6.3
	c-3.4-7.2-13.8-28.4-17.8-36.3c-3.2-6.2-4.8-10-6.5-14.9c-3.2-9.4-3.8-14.4-2.3-21.5c1.4-6.7,6.3-16.1,10.7-20.6
	c2-2,5.8-5.1,6.7-5.5c1.1-0.4,2.9-0.6,2.9-0.3c0,0.2-0.2,0.3-0.4,0.3c-0.9,0-3.2,1.7-6.1,4.5c-6.3,6.2-10.9,14.8-12.4,22.8
	c-0.6,3.2-0.4,9.1,0.4,12.4c0.9,3.5,2.8,9.2,4.5,13.1c2,4.5,8.9,17.6,16.7,31.5c4.6,8.3,12.1,22.7,14.6,28.5
	c4.4,9.9,7.4,18.7,8.7,26.1c0.7,3.8,0.8,10.1,0.3,13.7c-0.4,3-1,4.8-1.5,4.8c-0.1,0-0.4-1.5-0.6-3.4c-1.2-12.3-2.6-18.8-6.2-28.6
	c-2.2-5.9-1.7-5.3-5.6-7.3c-1.9-0.9-3.6-1.8-3.9-1.9c-0.2-0.1-5.6-3-11.9-6.4s-15.2-8-19.7-10.3s-9-4.6-9.9-5.2
	c-4.9-2.9-16-9.7-18.8-11.5c-6.3-4.2-27.8-18.7-28.3-19.1c-0.2-0.2-1-0.6-1.6-1c-0.9-0.5-1.4-1-1.8-1.9l-0.6-1.2l-1,1.4
	c-1.2,1.6-2.9,4.9-3.4,6.7c-0.7,2.3-0.9,5.3-0.6,7.7c0.3,3,0.9,5,2.3,8.5c2.9,7.2,7.2,11.4,18.7,18.4c5.4,3.3,9.9,6.4,15.9,10.8
	c2.5,1.9,6.6,4.7,8.9,6.3c2.4,1.6,5.9,3.9,7.8,5.2c6.1,4.2,9,6.1,17.8,11.6c11,6.9,14.6,9.3,18.4,12.1c4.5,3.4,9.7,8.2,12.3,11.5
	C356.7,208.7,357.1,209.7,354.3,207.2L354.3,207.2z M354.9,161.5c0-0.6-3.7-8.5-4-8.6s-1.2,4.6-1.2,5.8c0,0.4,0.6,0.9,2.4,1.8
	C354.7,162,354.9,162.1,354.9,161.5L354.9,161.5z M110.6,145.1c-1.3-15.3-3.5-24.4-12.1-49.1c-2-5.8-2.1-6-1.6-6.5
	c0.8-0.9,1.4-1,4.7-1.3c5.4-0.4,12.1,0.4,15.8,2c5.2,2.3,8.7,6,10.2,10.8c0.8,2.5,0.8,2.5,0.5,2.5c-0.1,0-0.8-1-1.6-2.1
	c-3.2-5.1-7.5-8.3-13-9.7c-4.1-1-14.6-2.3-14.6-1.7c0,0.1,1.3,3.5,3,7.5c4.3,10.5,6.5,17.8,8.1,26.9c1.5,8.7,2.1,23,1,23
	C110.9,147.4,110.7,146.4,110.6,145.1z M382.7,134c-0.6-2.3-1.3-8.2-1.4-13.5c-0.2-5.9,0.2-11.5,1.1-18.4c0.9-6.5,1.4-8.7,4-17.7
	c1.2-4.2,2.2-7.9,2.2-8.2c0-0.6-1.4-0.4-7,0.9c-5.7,1.4-7.5,2-10,3.3c-4,2.1-6.5,4.7-8.5,8.9c-0.7,1.5-1.5,2.9-1.6,3
	c-0.8,0.5,0.2-4.3,1.5-6.5c3.5-6.7,12.1-10.9,23-11.3c3.2-0.1,3.5-0.1,4.3,0.4c0.7,0.4,0.9,0.7,0.7,1c-0.5,1.4-4.9,22-5.8,27
	c-1.7,10.2-1.9,12.4-1.9,22.2c0,4.9-0.1,9.1-0.2,9.1C383,134.5,382.8,134.3,382.7,134L382.7,134z M263.7,84.1
	c-0.6-0.6-1.6-1.4-2.3-1.8c-0.7-0.4-1.8-1.2-2.4-1.6s-2.5-1.8-4.1-2.9c-3.6-2.4-5.5-3.9-5.8-4.7c-0.1-0.3,0-0.9,0.3-1.3
	c0.6-1,3.6-4.6,7-8.4c1.4-1.7,3.2-3.7,3.8-4.5c0.7-0.8,1.7-2,2.2-2.6c1.1-1.1,3.5-2.5,3.7-2.1c0.1,0.1,0.1,2,0.1,4.2
	c0,2.6,0.1,4.1,0.2,4.3c0.5,0.5,4,0.3,7.5-0.3c4.1-0.7,10.3-1.2,12.5-1c2.4,0.3,3.2,0.9,3.1,2.5c-0.1,1.2-3.5,9.9-5.1,13.2
	c-0.5,1.1-1.2,2.1-1.5,2.4c-0.7,0.6-2.3,0.6-6.4,0.1c-3.7-0.5-9.8-0.6-10.2-0.1c-0.2,0.2-0.3,1.2-0.3,2.4
	C266,85.5,265.5,85.9,263.7,84.1L263.7,84.1z M227.8,82.9c-0.1-0.6-0.2-1.8-0.3-2.7c-0.1-0.8-0.3-1.7-0.5-1.9
	c-0.4-0.5-6.4-0.4-10.2,0.1c-4.1,0.5-5.7,0.5-6.4-0.1c-0.3-0.3-1-1.3-1.5-2.4c-1.6-3.2-4.9-12-5.1-13.2c-0.2-1.5,0.7-2.2,3.1-2.5
	c2.2-0.2,8.4,0.3,12.5,1c3.5,0.6,7,0.7,7.5,0.3c0.2-0.2,0.3-1.7,0.2-4.3c0-2.2,0-4.1,0.1-4.2c0.2-0.4,2.6,1,3.7,2.1
	c0.5,0.6,1.5,1.7,2.2,2.6c0.7,0.8,2.4,2.9,3.8,4.5c3.3,3.8,6.3,7.5,7,8.4c0.3,0.4,0.4,1,0.3,1.3c-0.2,0.7-2.1,2.3-5.8,4.7
	c-1.7,1.1-3.5,2.4-4.1,2.9s-1.7,1.2-2.4,1.6s-1.8,1.2-2.3,1.8c-0.6,0.6-1.2,1.1-1.3,1.1C228.1,84,227.9,83.5,227.8,82.9L227.8,82.9z
	 M230.8,46.5c-6.6-0.2-6.4,0-6.4-4.6c0-3.1,0-3.3,0.9-5c1.3-2.7,3.7-4.8,6.9-6.1c2.7-1.1,3.5-1.7,4.1-3.1c1.3-3.1-1.1-6-4.1-5.1
	c-1.3,0.4-3,2.3-4.1,4.8c-0.5,1.2-1.1,2.1-1.3,2.1c-0.6,0-3.3-2.1-4-3c-0.8-1.2-0.8-2.1,0.2-4.1c1.1-2.2,4.2-5.2,6.7-6.4
	c1.6-0.8,2.2-0.9,4.2-1s2.6,0,3.6,0.4c1.5,0.7,3.1,2,3.9,3.4c3.3,5.2,2.2,11.6-2.7,15.8c-0.9,0.7-1.9,1.7-2.4,2.1l-0.9,0.8l1.5-0.2
	c0.8-0.1,2.1-0.2,2.7-0.2c1.2,0,1.2,0,1.6,1.1c0.2,0.6,0.4,2.4,0.4,4.2c0,2.9,0,3.1-0.6,3.8C240.3,46.8,241.1,46.8,230.8,46.5
	L230.8,46.5z M260.3,45.6c-0.2-0.2-0.4-0.6-0.5-1c-0.4-1.2-1.8-4.1-2.1-4.3c-0.2-0.1-0.6,0.5-1,1.4c-1.2,2.9-1.3,2.9-2.5,3.2
	c-1.2,0.2-6-0.2-6.8-0.7c-0.4-0.2-0.5-0.5-0.3-1.1c0.3-1.6,2.5-5.1,4.9-7.8c1.6-1.9,1.5-2.3-1.9-5.8c-2.9-3.1-3.5-4.1-2.3-4.1
	c0.3,0,1.8-0.4,3.3-1c1.5-0.5,2.9-1,3.1-1c0.2,0,0.6,0.4,0.9,0.8c1.7,2.7,2.6,3.9,2.9,3.9c0.5,0,3-2.6,3.7-3.8
	c0.4-0.8,0.9-1.2,1.2-1.2c0.3,0,1.7,0.7,3.2,1.6c4.4,2.6,4,2.2,3.4,3.1c-0.3,0.4-1.3,1.9-2.4,3.3c-1.9,2.5-3.5,5.3-3.5,6.1
	c0,0.6,2.1,4.9,2.8,5.6c0.9,0.9,0.4,1.5-1.6,1.9c-0.9,0.2-2.1,0.5-2.7,0.8C261,46,260.7,46,260.3,45.6z"/>
<path id="path2527" inkscape:connector-curvature="0" class="st3" d="M118.1,387.7c0-0.1,0.6-1.2,1.3-2.4c0.7-1.2,1.7-3.1,2.3-4.2
	c2.5-4.9,9.4-13,16.7-19.7c2.7-2.5,3-2.7,4-2.7c1.8,0,6.7-1.4,9.1-2.5c1.7-0.8,2.6-1.5,4.1-3.1c5-5.2,9.2-13.8,12.1-24.4
	c1.5-5.5,2-8.3,3.6-19.3c1.4-10,2.4-15.3,3.9-22.6c0.5-2.4,1.4-6.8,1.9-9.9c1.7-9.8,2.6-13.8,3.7-17.4c0.6-2,1.5-5,2.1-6.9
	c1.3-4.3,2.2-10.8,2-15.2c-0.1-3.7-1.1-7.2-2.9-10.1c-2-3.3-6.2-6.9-9.7-8.2c-3.6-1.3-9.3-1.9-10.2-1c-0.6,0.6-0.9,2.7-1.2,8.5
	c-0.4,7.5-1.1,9.5-5.3,15.9l-2.7,4.1v2.5c0.1,5.5,1,11.6,2.6,18.3c0.9,3.7,1.2,6.3,0.8,6.3c-0.1,0-0.6-0.2-1.1-0.5
	c-3.5-2.2-5.6-16.1-4.4-30c0.2-2.9,0.5-6.4,0.6-8c0.3-6.1,1.6-20.9,1.8-21.3c0.3-0.5,0,18.4-0.3,22.2c-0.4,4.1-0.3,8.8,0.1,8.8
	c0.4,0,4.5-8.3,5.1-10.1c1-3.1,1.2-4.5,1.5-10c0.3-5.3,0.4-6.1,1-7.2c1-1.9,1.8-2.4,4-2.4c3.1,0.1,7,0.6,8.7,1.2
	c3.5,1.3,8.3,5.1,10.2,8.3c1,1.7,2,4.4,2.7,7.3c0.9,3.9,0.4,12.8-0.9,18.1c-0.2,0.8-1.1,3.6-1.9,6.2c-2,6.3-2.7,8.9-4,16.7
	c-0.6,3.6-1.8,9.8-2.6,13.8c-1.9,9.4-2.6,13-4.2,24.3c-1.8,12.5-3,17.5-5.8,25.1c-2.6,6.9-6,13.1-9.7,17.5
	c-3.7,4.3-9.4,6.5-14.8,5.7l-1.1-0.2l-2.6,3.2c-1.4,1.8-2.9,3.5-3.2,3.9s-1.7,2.3-3,4.4c-3.2,5-6.9,10-9,12
	c-0.9,0.9-2.4,2.5-3.3,3.5C118.8,387.8,118.1,388.3,118.1,387.7L118.1,387.7z M401.3,373c-0.9-0.8-2.7-2.2-4-3.1
	c-2.7-1.9-7-6.4-10.4-10.9c-2.5-3.2-8.4-9.5-9.7-10.3c-0.7-0.4-0.9-0.5-1.9-0.1c-1.5,0.5-5.2,0.5-7.5-0.1c-3.1-0.7-5.1-1.9-7.8-4.5
	c-4.4-4.1-7.2-8.1-10.6-14.6c-4.1-8-6-13.1-9.6-26.7c-2.6-9.8-3.8-13.9-6.9-23.3c-1-3.2-2.8-9-4-12.9c-2.2-7.7-2.7-9-5.5-15.1
	c-2.8-6.3-3.1-7.1-4.3-12.1c-1.4-5.9-1.7-8.5-1.3-12.1c0.7-7.3,2.9-11.4,8.1-15.3c2.7-2,4.3-2.7,7.2-3.3c1.2-0.2,2.6-0.6,3.1-0.9
	c1.1-0.6,3-0.5,4.1,0.1c1.7,1,2.3,2.6,3.1,8c0.3,2.1,0.7,4.4,0.8,5.1c0.3,1.4,1.6,4.6,2.6,6.7c0.8,1.5,4.9,7.8,5.3,8.1
	c0.2,0.1,0.3-0.1,0.3-0.6c0-1.1-0.8-6.8-1.2-9.5c-0.6-3.5-2.9-20.5-2.8-20.8c0.2-0.6,0.7,1.4,2.4,10.5c3.4,18.1,4.3,22.9,4.8,26.3
	c0.6,4.3,0.6,12.6,0,16c-0.7,4.2-2.2,7.3-3.3,6.9c-0.4-0.2-0.5-0.4-0.3-2.6c0.1-1.3,0.3-2.9,0.4-3.6c0.8-4.4,1-17.7,0.3-20.3
	c-0.1-0.5-1.5-2.3-3-4.1c-5.3-6.3-6.3-8.5-7.7-17c-0.4-2.5-1-5.1-1.3-5.6l-0.5-1.1h-2.3c-1.9,0-2.9,0.2-5,0.9
	c-3.4,1.1-5.3,2.4-7.9,5.1c-3.7,3.9-5.2,8.1-5.3,13.9c0,2.9,0.1,3.8,1,7.7c1.3,5.5,1.4,5.8,3.9,11.5c3,6.9,3.7,8.7,6.1,16.9
	c1.2,4.1,3.2,10.6,4.5,14.5c3,9,3.8,11.8,6.5,22.1c1.2,4.7,2.6,9.7,3.1,11.1c2.7,8.3,7.3,17.8,11.3,23.2c2.2,3,6.3,7,8.1,8
	c2.2,1.3,6.3,2.3,9.9,2.4c2.8,0.1,3,0.1,4,0.9c0.6,0.4,2.3,1.8,3.9,3c9.5,7.1,14.2,11.6,17.1,16.4c0.7,1.2,1.8,2.8,2.3,3.5
	c1.3,1.7,2,3,1.8,3C403.1,374.5,402.3,373.8,401.3,373L401.3,373z M20.3,369.8c0.1-0.2,2.9-5.3,6.4-11.3s7.4-13.1,8.8-15.7
	c4.5-8.4,18-36,19.3-39.6c0.4-1.1,1.5-3.5,2.3-5.3c4.3-9.1,7.5-18.9,10.2-31.4c2.6-12,3.2-28,1.5-45.5c-2.1-22.2-8.5-46.6-19.1-73.2
	c-2.2-5.5-4.3-10.6-4.7-11.4c-0.4-0.8-2.5-5.9-4.7-11.3c-2.2-5.4-4.8-11.5-5.8-13.6c-3.5-7.4-4.8-10.2-5.1-10.2
	c-0.4,0-0.6-2-0.2-2.6c0.2-0.3,2-1.4,4-2.4c4.9-2.5,7.6-3.1,12.7-2.9c5.5,0.2,8.4,1.3,12.8,4.6c4.4,3.3,6.9,6.1,10.4,11.5
	c5.4,8.2,7,12,11.9,27.7c2.3,7.4,3.5,10.4,9.8,25.1c2.8,6.5,5.6,13.1,6.2,14.6c1,2.3,1.2,2.8,1.5,2.5c0.2-0.2,1.1-2.3,2-4.6
	s2.1-5.4,2.8-6.9c1.9-4.3,5-11.9,9.2-22.2c2.2-5.4,5.2-12.9,6.9-16.9c6.2-15.1,7.4-18.2,13.4-35.4c4.2-12,5-14.7,8.5-28.7
	c1.9-7.7,1.8-7.3,1.6-4.5c-0.3,5.1-4.5,23.8-8.8,38.5c-5,17.3-10.2,29.9-23.7,57.6c-6.2,12.6-11.3,23.5-11.4,24.4
	c-0.2,1.2,5.8,13.6,11.3,23.3c1.6,2.8,3.1,5.6,3.3,6.3c0.4,1.2,0.8,2,2.3,4.7c0.3,0.6,0.6,1.2,0.5,1.3s-0.7-0.3-1.5-0.9
	s-2.2-1.7-3.3-2.5c-1.6-1.2-2.4-2.1-4.1-4.7c-3-4.5-4.8-7.6-7.8-13.6c-2.7-5.5-4.5-9.9-12.7-31c-6.1-15.7-6.2-16.1-9.8-28.6
	c-3.6-12.5-5.1-16.4-9.1-23.1c-3.2-5.5-6-8.7-10.1-11.8c-5.1-3.9-8.1-4.9-14-4.9c-3,0-4.1,0.1-5.8,0.6c-2.5,0.7-8.2,3-8.7,3.5
	c-0.3,0.3,0,1.1,1.6,4c4.5,8.4,12.7,26.2,15.4,33.6c0.3,0.9,2.4,5.7,4.5,10.6c4.2,9.6,5.3,12.6,8.6,22.5c4.8,14.4,8.2,28.1,10,40.7
	c2.7,19,2.7,40.6-0.1,54.6c-2.4,11.9-5.8,22.8-10.3,32.5c-0.9,1.9-2,4.7-2.5,6.2c-1.4,3.9-4,9.1-7.5,14.9c-1.8,2.9-4.4,7.8-6.1,11.4
	c-6.8,14.4-13.4,26.2-19.2,34.4C21.1,369.2,20.1,370.5,20.3,369.8L20.3,369.8z M99.8,350.6c-2.3-0.3-5.9-1.3-7.5-2s-2.3-1.4-3.6-3.6
	c-0.6-1-1.9-2.7-2.8-3.7s-1.5-1.7-1.2-1.7c1.8,0.7,3.2,0.8,6.3,0.8c3.2,0,3.6,0,5.9,0.8c5.7,1.9,9.9,2.4,13.6,1.3
	c4.2-1.2,8.9-4.3,11.3-7.4c1.6-2.1,3.8-6.4,4.7-9.4c2.2-6.8,3.3-17.8,3.3-33.1c0-5.1,0.1-8.6,0.2-7.8c0.8,5.6,1.2,21.5,0.6,27.6
	c-0.2,1.9-0.5,4.7-0.6,6.2c-0.7,6.4-2.6,13.3-5,18.2c-4.1,8.2-12.2,13.6-20.6,13.9C102.8,350.8,100.8,350.8,99.8,350.6L99.8,350.6z
	 M493.8,338.9c-0.7-1-3.3-4.3-5.6-7.3c-4-5.2-17.8-24.4-21.3-29.6c-0.9-1.4-3-4.8-4.7-7.7c-4.2-7.3-5.3-8.9-6.6-9.9
	c-2-1.6-6.6-9.2-10.4-16.9c-3.7-7.7-7.7-18.6-9.7-26.3c-1.4-5.6-1.8-7.6-2.7-13.9c-3.6-26.7-2.3-50.6,4.4-80.5
	c1.8-8,2.5-10.5,5.8-21.4c1.4-4.7,2.7-8.9,2.8-9.3c0.2-1,4.7-15.9,6.2-20.4c0.6-1.9,2.3-6.6,3.8-10.5s2.7-7.2,2.7-7.3
	c0-0.4-0.8-0.7-4.7-1.7c-5.2-1.4-7.4-1.6-9.9-1.3c-6.4,0.8-9.5,2.4-14.4,7.1c-3.2,3.1-5.5,6.5-7.8,11.3c-3.6,7.5-4.7,11.5-6.9,24.6
	c-2.2,13.3-2.2,13-7,31.5c-7.3,28-9.2,33.6-14.5,44.2c-1.8,3.5-2.3,4.3-4.8,7.1c-3.4,3.7-3.9,4-2.7,1.3c0.3-0.7,1-2.5,1.5-3.9
	s1.9-4.9,3.1-7.7c3.8-8.7,8.3-21.4,8.3-23.2c0-0.4-0.4-1.4-0.9-2.1c-0.5-0.8-2.4-3.8-4.3-6.8c-1.8-3-4.8-7.7-6.6-10.4
	c-21.6-32.4-30.5-49.8-40.4-78.9c-3.9-11.4-5.6-17.3-5.6-19.1c0-0.5,0.3,0.1,0.9,2c0.8,2.5,3.7,10,6.4,16.7
	c1.4,3.5,5.4,11.9,11.1,23.2c4.6,9.1,7.2,14,15,28.4c1.7,3.1,4.1,7.6,5.4,10c6.2,11.6,8.4,15.7,10.6,19.7c1.1,1.9,2.7,4.8,3.7,6.6
	c1,1.7,2.4,4.5,3.3,6.1c0.8,1.6,1.7,2.9,1.9,2.9c0.2,0,0.7-1.3,1.2-3.2c0.5-1.8,2.6-8.8,4.6-15.6c4.4-14.8,5.1-17.5,7-27.2
	c0.8-4.1,1.6-8.5,1.9-9.9c1.6-7.2,5.8-17,9.9-23.2c2.4-3.7,7.1-8.4,9.8-10c5-2.9,12.1-3.9,17.4-2.5c2.3,0.6,7.2,2.6,7.7,3.1
	s0.5,2.1,0,2.9c-0.9,1.4-4.8,13.3-7.8,24.2c-1.8,6.3-3.4,12-3.7,12.6c-0.5,1.2-1.6,5.1-4.4,15.5c-3.6,13-6.9,30.3-8.3,43.6
	c-1.6,14.7-1.6,30.5,0,45.1c1.5,13.8,3.3,21.1,8,33.7c3.5,9.3,8.5,19.3,12.5,25.1c0.7,1,1.6,2.6,2.2,3.7c1.3,2.6,5.9,9.9,7.3,11.6
	c3.9,4.8,11.6,15.4,18.2,24.9c1.3,2,4.3,6.2,6.7,9.5c6.6,9.1,7.2,10.1,7.1,10.8c-0.1,0.4-0.3,0.6-0.6,0.7
	C495.3,340.8,494.8,340.3,493.8,338.9L493.8,338.9z M405.9,335.5c-5.9-1.2-11.7-5.2-15.3-10.7c-1.4-2.1-3.1-5.7-4.5-9.2
	c-2.2-5.6-4.6-17.5-5.6-28.4c-0.5-5-0.9-14.5-0.6-14.2c0.1,0.1,0.4,2.3,0.6,4.8c0.7,7.9,2.2,17.5,3.9,24.7
	c2.8,12.2,7.7,19.8,15,23.4c7.6,3.8,12.3,3.6,21.3-0.5c1.8-0.8,2.9-1.1,4.8-1.3c1.3-0.1,3.1-0.5,3.9-0.8s1.5-0.5,1.6-0.4
	s-0.5,0.8-1.2,1.6c-0.8,0.8-1.9,2.5-2.6,3.7c-1.5,2.6-2.7,3.7-5.3,4.9C416.6,335.4,410.4,336.4,405.9,335.5L405.9,335.5z
	 M146.7,217.2c0-0.6,2.8-4.9,5.1-7.8c4.8-5.9,10.8-11.8,17.7-17.2c1.9-1.5,4.8-3.8,6.4-5.2s5.1-4.2,7.7-6.2s6-4.9,7.7-6.4
	c6-5.4,8.9-7.9,10.6-9.2c1-0.7,3.7-3.1,6-5.3c5.3-4.9,11.3-10.1,15.5-13.3c4.3-3.3,8.2-6.8,10.6-9.5c2-2.4,4.6-7,5.3-9.7
	c1.3-4.9,1.6-6.7,1.4-10.3c-0.1-3.7-0.6-5.6-1.9-8.2c-0.8-1.6-3.1-4.8-4-5.7l-0.8-0.8l-0.3,0.8c-0.6,1.6-1,2.1-1.7,2.6
	c-0.4,0.2-2.2,1.7-4,3.3c-4.2,3.7-9.9,8.5-10.8,9.1c-0.4,0.2-3.5,2.9-7,5.8s-9.8,8.1-14.1,11.5c-4.3,3.3-8.3,6.5-8.9,6.9
	c-0.6,0.5-4.7,3.3-9.2,6.3s-8.8,6-9.6,6.6s-4.3,3.1-7.7,5.4c-3.4,2.3-7.5,5.1-9.1,6.3c-1.6,1.1-3.7,2.5-4.5,3
	c-0.9,0.5-2.6,1.6-3.8,2.4c-2.6,1.7-2.4,1.4-4,8.6c-1.7,7.8-2.1,10.5-2.3,18.8c-0.1,4.2-0.1,8.6,0,9.7c0.1,1.1,0.1,2.1,0,2.1
	c-0.3,0.2-1.3-2-2-4.5c-2.4-8.5-1-21.4,4.1-37.9c1.9-6.2,8.1-22.9,12.4-33.1c4.9-11.8,11.1-27.6,12.3-31.3c2-6.2,3.6-14.3,3.6-18.1
	c0-5.1-1.1-9.6-3.5-14.5c-2-4.1-3.7-6.6-6.8-10.3c-2.6-3.1-7.2-7-10.1-8.6c-1.4-0.7-1.6-0.9-1-1c1.6-0.2,8.1,4.1,11.5,7.8
	c2.4,2.6,5.2,6.5,7.2,10.3c6,11,5.5,22.2-2.1,42.7c-1.3,3.4-3.3,9-4.5,12.4s-3.4,9.4-4.8,13.3c-2.9,7.7-6.7,19-6.6,19.1
	c0.1,0.1,0.6,2,1.3,4.3s1.3,4.3,1.5,4.5s3.3-1.9,8.2-5.4c10.2-7.3,13.4-9.6,16.4-11.9c1.4-1,3.9-2.8,5.8-4.1
	c6.6-4.6,32.3-24.5,38.5-29.8c1.1-1,4.9-4.5,8.5-7.8c3.5-3.3,6.6-6.1,6.9-6.2c1-0.2,4.2,3.1,6.1,6.3c2.8,4.7,3.6,10.1,2.2,16.6
	c-0.7,3.3-3.3,9.3-5.2,11.9c-2.5,3.4-7.4,8-13.2,12.4c-4.6,3.5-12.4,10.3-19.2,16.7c-2.3,2.2-4.8,4.3-6.2,5.2
	c-0.6,0.4-2.9,2.4-5.2,4.4c-2.2,2-5.9,5.2-8.2,7c-3.8,3.1-10.2,8.5-17,14.4c-2.9,2.5-11.9,11.3-13.9,13.5c-0.7,0.8-2.3,2.6-3.6,4.1
	C147.5,216.8,146.7,217.6,146.7,217.2L146.7,217.2z M144.6,170.2c1.3-0.9,2.5-1.8,2.6-2c0.1-0.1-0.2-1.6-0.7-3.2s-0.9-3.2-0.9-3.5
	s-0.2-0.5-0.3-0.5c-0.3,0-3.2,8.4-3.6,10.3C141.3,172.4,141.5,172.4,144.6,170.2L144.6,170.2z M355,207.7c-0.1-0.2-1.6-1.4-3.2-2.9
	c-1.7-1.4-3.5-3-4-3.5c-1-1-7.4-6.1-11.2-9c-2.8-2.2-12.9-9-19.7-13.4c-2.8-1.8-7-4.6-9.5-6.4c-2.4-1.7-7.3-5-10.8-7.4
	c-3.5-2.3-7.8-5.3-9.6-6.6c-4.3-3.2-12.2-8.5-16.7-11.2c-7.2-4.3-12.8-9-15.5-13.1c-5.5-8.5-6.9-17.8-3.8-24.7
	c1.5-3.2,4.5-7.2,5.6-7.2c0.2,0,1.7,1.1,3.3,2.4c7,5.5,12.7,9.6,18,12.9c13.7,8.5,30.4,18.5,40,23.9c3.2,1.8,7.4,4.2,9.3,5.3
	c4.9,2.9,19.9,11.2,20.2,11.2c0.2,0,0.3-0.1,0.3-0.2c0-0.1,0.3-2.2,0.7-4.6l0.7-4.4l-1.2-2.5c-2.2-4.7-16.8-34.3-19.6-39.9
	c-3.3-6.6-5.2-11-6.9-16.1c-1.9-5.9-2.3-7.7-2.5-12.3c-0.2-4.7,0.2-7.7,1.6-11.8c1.2-3.6,4.6-10.3,6.6-13.1c2.8-3.8,8.6-9,10.6-9.4
	c0.5-0.1,0.9-0.1,0.9,0s-0.6,0.6-1.4,1.1c-2.6,1.7-7,6.5-9.8,10.7c-3.9,5.8-5.9,10.9-6.8,16.8c-0.8,5.4,0,10.4,2.8,18.4
	c2.3,6.6,7.3,16.5,18.4,36.3c5.4,9.6,12.4,23.3,15.3,29.6c7.2,16,10.4,29.1,9.3,38.3c-0.4,3-1.1,5.9-1.5,5.9c-0.2,0-0.3-0.7-0.3-1.5
	c-0.1-1.4-0.6-5.8-1.3-11.2c-0.2-1.6-0.7-4.3-1.1-6c-0.8-3.6-4.4-14.7-5.5-17c-0.7-1.4-0.9-1.6-3.8-3.1c-1.7-0.9-3.2-1.6-3.4-1.6
	c-0.2,0-0.8-0.3-1.4-0.7s-4.2-2.3-8.2-4.4s-8.9-4.7-11.1-5.9s-8.1-4.2-13-6.8c-13.4-6.9-24.9-14-51.5-32.2c-3.3-2.2-6.1-4.1-6.2-4.1
	c-0.4,0-1.3-1.1-1.6-2c-0.2-0.4-0.4-0.8-0.6-0.8c-0.4,0-1.9,2.3-3.2,5c-2.1,4.4-2.5,8.2-1.5,13.1c1,4.8,3.3,9.9,6.3,13.7
	c2.1,2.7,7.8,7,14.9,11.3c4.7,2.8,10.5,6.8,15.7,10.7c2.2,1.6,7.2,5.1,11.1,7.7s8.9,6,10.9,7.3c3.8,2.6,15.3,9.9,20.5,13.1
	c3.7,2.2,10.7,7.2,13.3,9.4c1.1,0.9,3.2,2.8,4.6,4.3c3.4,3.3,7.6,8.5,6.8,8.5C355.3,208,355.1,207.9,355,207.7L355,207.7z
	 M355.1,161.9c0-0.5-3.9-9-4.2-9.3c-0.4-0.4-1.7,6.2-1.3,6.6c0.3,0.3,5,2.9,5.3,2.9C355,162.2,355.1,162.1,355.1,161.9L355.1,161.9z
	 M111,146.4c-0.1-0.3-0.3-1.5-0.3-2.6c-1.3-15-3.3-22.8-12.6-50c-0.7-2.1-1.2-3.9-1.1-4.2c0.4-1,1.8-1.3,6-1.5
	c13.2-0.5,21.8,3.9,24.7,12.6c0.3,1,0.5,1.9,0.5,2c-0.2,0.2-0.1,0.4-1.8-2.3c-2.4-3.6-4.5-5.5-8.1-7.4c-2.6-1.3-5.1-1.9-10.8-2.8
	c-6-0.8-8.2-1-8.3-0.8c-0.1,0.1,1.3,3.7,3,7.9c1.7,4.2,3.6,9.2,4.2,11.1c3.2,10.4,5.1,21.1,5.4,30.9
	C111.6,143.7,111.3,147.5,111,146.4L111,146.4z M382.7,133.5c-1-3.3-1.6-17.5-1-24.2c0.8-8.9,1.8-14.2,4.8-24.8
	c1.3-4.5,2.3-8.3,2.3-8.5c0-0.6-8.1,1.1-13.3,2.8c-6.2,2-10,5.2-12.5,10.4c-0.7,1.6-1.5,2.8-1.6,2.8c-0.4,0-0.4,0.1,0.1-2.2
	c1.1-5.3,5.7-10.2,11.8-12.6c4.1-1.6,12.4-3.1,15.4-2.6c1.7,0.3,2.2,0.9,1.9,2.4c-1.1,4.5-4.6,20.5-5.2,24.4
	c-1.8,10.6-2.3,15.3-2.2,25c0,4.2,0,7.6-0.1,7.6C382.9,134,382.8,133.7,382.7,133.5L382.7,133.5z M264.1,84.1
	c-0.3-0.4-1.2-1.1-1.9-1.6c-0.7-0.4-1.8-1.2-2.6-1.8s-2.9-2-4.9-3.3c-3.6-2.4-5.6-4.1-5.6-4.7c0-0.4,3.8-5.1,7.8-9.7
	c1.5-1.7,3.5-4.1,4.5-5.3c1.2-1.5,2.1-2.3,3.1-2.8l1.3-0.7v4.3c0,2.9,0.1,4.4,0.3,4.6c0.5,0.5,4.1,0.3,7.8-0.3
	c4.1-0.7,10.2-1.2,12.5-1c2.2,0.2,2.9,0.8,2.7,2.3c-0.1,0.5-1.1,3.5-2.4,6.6c-3.5,8.8-3.7,9.1-5.9,9.1c-0.8,0-2.7-0.2-4.4-0.4
	c-3.7-0.5-10-0.6-10.5-0.1c-0.2,0.2-0.3,1.2-0.3,2.6C265.7,85,265.3,85.6,264.1,84.1L264.1,84.1z M228,82.5
	c-0.1-0.7-0.3-1.9-0.3-2.7c-0.1-0.8-0.3-1.5-0.4-1.7c-0.4-0.5-6.7-0.4-10.5,0.1c-1.7,0.2-3.6,0.4-4.4,0.4c-2.2,0-2.4-0.3-5.9-9.1
	c-1.2-3.1-2.3-6.1-2.4-6.6c-0.2-1.5,0.5-2,2.7-2.3c2.3-0.2,8.4,0.2,12.5,1c3.7,0.7,7.3,0.8,7.8,0.3c0.2-0.2,0.3-1.7,0.3-4.6V53
	l1.3,0.7c0.9,0.5,1.9,1.3,3.1,2.8c0.9,1.2,3,3.6,4.5,5.3c4.1,4.6,7.8,9.3,7.8,9.7c0,0.7-2,2.3-5.6,4.7c-2,1.3-4.1,2.7-4.7,3.2
	c-0.6,0.5-1.5,1.1-2,1.4s-1.5,1-2.1,1.7c-0.7,0.7-1.3,1.2-1.3,1.2C228.3,83.8,228.1,83.2,228,82.5L228,82.5z M231,46.2
	c-6.6-0.2-6.2,0.1-6.2-4.3c0-2.9,0.1-3.4,0.8-4.8c0.9-2,3.7-4.8,5.4-5.5c3.9-1.7,4.7-2.1,5.2-3c1.2-1.9,1-4.1-0.3-5.4
	c-2.3-2.3-5.7-0.8-7.8,3.7c-0.5,1.1-1.1,2.1-1.3,2.2c-0.4,0.3-3.2-1.8-3.8-2.7c-0.3-0.5-0.5-1.2-0.5-1.5c0-2.3,3.8-6.8,7.2-8.5
	c1.5-0.8,2.3-0.9,4.2-1c2.2-0.1,2.4-0.1,4.1,0.7c2.6,1.3,4.2,3.6,5,7.2c0.3,1.6,0.3,2.1,0,3.8c-0.8,3.7-2.5,6.2-6.1,8.8
	c-0.9,0.7-1.7,1.3-1.8,1.5c-0.5,0.7,0.4,0.8,2.6,0.3c1.3-0.3,2.5-0.4,2.7-0.3c0.6,0.2,1,2.3,1.1,5.3c0,2.7,0,2.9-0.6,3.4
	c-0.5,0.4-1,0.5-2.6,0.5C237.1,46.4,233.9,46.3,231,46.2L231,46.2z M260.5,45.2c-0.2-0.3-0.8-1.5-1.3-2.8c-1.4-3.1-1.7-3.1-2.9-0.1
	c-0.9,2.2-0.9,2.2-2.1,2.4c-0.7,0.1-2.1,0.1-3.6-0.1c-3.2-0.4-3.3-0.5-3.1-1.5c0.2-1.2,2.5-4.9,4.3-7.1c2.4-2.9,2.4-2.8-2.5-8
	c-1.8-1.9-2-2.3-1.2-2.3c0.3,0,1.7-0.5,3.2-1c3-1.1,3.5-1.2,3.5-0.6c0,0.2,0.2,0.5,0.4,0.7s0.9,1,1.4,1.8s1.2,1.6,1.4,1.7
	c0.5,0.2,2.7-1.8,3.9-3.5c0.5-0.7,1.1-1.3,1.2-1.3s1.5,0.7,2.9,1.5s2.8,1.6,3.1,1.7c0.8,0.3,0.7,0.7-0.7,2.7
	c-3.2,4.6-4.1,5.8-4.5,6.9l-0.4,1.2l1.2,2.6c0.6,1.4,1.4,2.8,1.7,3.2c0.7,0.8,0.5,1.1-1.2,1.3c-0.8,0.1-2,0.4-2.6,0.7
	C261,45.8,260.9,45.8,260.5,45.2L260.5,45.2z M268.1,27.1c-0.3-0.3-0.5,0.1-0.3,0.5c0.2,0.3,0.2,0.3,0.3,0
	C268.2,27.4,268.2,27.1,268.1,27.1L268.1,27.1z"/>
<path id="path2525" inkscape:connector-curvature="0" class="st4" d="M118.7,387.1c0-0.2,0.4-1.2,1-2.1c0.5-0.9,1.4-2.5,2-3.5
	c1.8-3.6,5.9-9,10.6-13.8c2.4-2.5,5.1-5.2,6-6c1.6-1.4,2.2-1.8,1.7-1.1c-0.4,0.5-4.5,5.6-5.2,6.5c-0.3,0.4-1.6,2.3-2.8,4.2
	c-1.2,1.9-3.3,5-4.7,6.7C124.4,381.7,118.7,387.7,118.7,387.1L118.7,387.1z M400.7,372.3c-1.1-0.9-2.7-2.1-3.6-2.7
	c-2-1.4-6.7-6.4-10.5-11.1c-1.5-2-4.1-4.9-5.6-6.4c-3.6-3.7-2.1-2.8,7.1,4.5c4.3,3.4,8.9,8.3,10.6,11.2c0.6,1,1.6,2.5,2.3,3.5
	c1.2,1.7,2,2.9,1.7,2.9C402.7,374,401.8,373.2,400.7,372.3L400.7,372.3z M21.3,368.4c0-0.2,3.6-6.7,7.1-12.8
	c4.7-8,10.5-18.9,14.3-26.7c1.3-2.7,4.5-9.2,7-14.4c2.5-5.2,4.9-10.3,5.2-11.2c0.3-1,1.4-3.3,2.3-5.2c5.6-11.8,10-26.8,11.9-40.6
	c1.1-8.3,1-25.1-0.2-37.9c-1.8-18.9-8.3-44.7-16.4-65.3c-2.3-5.8-6.6-16.4-7.4-18.2c-0.4-0.8-2.4-5.7-4.6-11
	c-2.1-5.3-4.7-11.4-5.8-13.6c-3.9-8.3-4.9-10.4-5.2-10.5c-0.2-0.1-0.3-0.4-0.3-0.6c0-0.7,0.4-0.1,1.9,2.7c5.2,9.8,8,15.9,19.4,42.8
	c5,11.8,4.7,11.1,7.8,19.7c7,19.9,11.1,38.1,12.8,56.2c0.4,4.2,0.5,8,0.5,18.1c0,11.8-0.1,13.1-0.6,17.3c-2,14.4-6,28.4-11.5,40.4
	c-0.8,1.8-1.9,4.5-2.5,6.1c-1.4,4.1-3.7,8.7-7.5,14.9c-1.9,3.1-4.6,8.1-6.1,11.4c-7.1,15-14.9,28.8-20.8,36.8
	C22,367.7,21.3,368.5,21.3,368.4L21.3,368.4z M53.9,309.1c0.5-1.1,0.9-2.2,0.9-2.4c-0.1-0.3-2.1,3.9-2.1,4.3
	C52.6,311.5,53,310.9,53.9,309.1L53.9,309.1z M143.1,359.2c-0.4-0.3-0.4-0.3,2.3-0.8c3.9-0.8,7.7-2.6,9.7-4.5
	c3-2.8,7.2-9.8,9.6-15.7c3.3-8.3,4.6-13.7,6.7-28.1c1.4-9.8,2.4-15.1,4.5-25.4c0.7-3.3,1.7-8.9,2.4-12.4c1.3-7.5,1.9-9.8,4.1-16.9
	c1.7-5.5,1.9-6.4,2.7-12.6c0.5-4.3,0.4-6.6-0.4-10c-1.2-4.6-3.8-8.4-7.6-11.3c-2.3-1.7-4.1-2.6-7.1-3.3c-2.7-0.6-7-0.8-7.6-0.2
	c-0.7,0.5-1,2.3-1.2,7.2c-0.1,2.6-0.4,5.5-0.5,6.5c-0.3,2-1.3,5-2.6,7.1c-1.1,1.9-3.8,5.8-4,5.7c-0.1-0.1,0.7-1.9,1.8-4
	c1.1-2.2,2.3-5.2,2.9-7.1c0.9-3,1-3.6,1.2-8.6c0.1-2.9,0.4-5.8,0.5-6.4c0.2-0.6,0.8-1.5,1.3-2.1c1.3-1.3,3-1.7,4.8-1
	c0.6,0.2,2.2,0.5,3.5,0.5c1.9,0.1,2.7,0.3,4.2,1c9,4.2,12.9,11.4,12.5,22.9c-0.2,5.6-0.9,9.4-3,16.1c-2.4,7.5-2.7,8.9-4,16.4
	c-0.6,3.5-2,11-3.1,16.6s-2.5,13.1-3,16.7c-2.1,14.1-2.4,16.1-3.6,20.6c-2,7.7-4.9,15.5-7.7,20.2c-3.4,5.8-6.8,9.6-10.1,11.2
	C148.9,359,144.3,359.9,143.1,359.2L143.1,359.2z M98.3,350.2c-2.9-0.5-5.6-1.4-6.9-2.2c-0.7-0.4-1.5-1.4-2-2.3
	c-1.1-1.9-2.2-3.4-3.5-4.7l-0.9-1l1.9,0.4c1.3,0.3,2.7,0.3,4.5,0.2c2.5-0.2,2.8-0.1,5.5,0.8c3,1,7.8,2.1,9.5,2.1
	c3.1,0,8.2-1.9,11.5-4.2c4.9-3.5,8.2-9.3,10.1-17.7c0.6-2.9,1.3-7.9,1.5-11c0.1-1.3,0.3-4.1,0.4-6.3s0.3-6.8,0.3-10.1
	c0-5.2,0.1-5.9,0.3-4.4c0.4,2.7,0.4,20.1,0,24.4c-0.8,8.1-1.4,11.8-3.1,16.7c-2,6-4.1,9.7-7.7,13.1c-3.5,3.3-6.5,5-10.8,6.1
	C106,350.7,101.4,350.8,98.3,350.2L98.3,350.2z M368.4,348.6c-3.8-0.9-6.2-2.3-9.4-5.6c-4.1-4.2-7-8.5-10.4-15.3
	c-3.3-6.7-5.3-12.2-8.2-23.2c-2.8-10.6-3.9-14.3-6.7-22.9c-1.3-4.1-3.3-10.4-4.3-14c-2.4-8.1-3.2-10.4-6.1-17
	c-2.8-6.2-2.7-5.9-4.1-11.8c-1.1-4.5-1.2-4.9-1.2-9.1c0-3.6,0.1-4.8,0.6-6.8c0.8-3.2,2.4-6.3,4.4-8.3c3-3.1,7.9-5.9,10.3-5.9
	c0.4,0,1.3-0.2,2.1-0.5c2.5-0.9,3.9-0.9,5.2,0.2c1.3,1.1,1.9,2.6,2.6,7.7c0.4,2.5,0.8,5.1,1,5.6c0.6,2.3,2.7,6.6,4.9,10
	c2.6,4.1,3,4.6,3.4,4.3c0.2-0.2-0.4-5.4-2.2-17.7c-1.2-7.8-1.6-12.2-1.1-10.7c0.2,0.5,1,4.8,1.9,9.6s2.1,11.4,2.7,14.5
	c1.8,9.4,2,11.4,2,18.2c0,8-0.7,11.8-2.5,14c-1.4,1.7-1.6,0.7-0.8-4.7c0.5-3.7,0.6-5.4,0.6-12.6c0-7.3-0.1-8.5-0.5-9.2
	c-0.3-0.5-1.5-2.1-2.8-3.6c-2.9-3.4-3.6-4.4-5-7.1c-1.3-2.6-1.7-4.1-2.6-9.8c-0.7-4.6-1.3-6.4-2.1-6.8c-0.6-0.3-3.8,0-6.3,0.7
	c-6.9,1.8-12.3,7.7-13.8,15c-0.7,3.5-0.6,6.6,0.5,11.5c1.4,6,1.5,6.6,4,12.1c3.1,7.1,3.9,9.1,6,16.5c1.1,3.6,3,9.9,4.4,14
	c2.7,8.1,4.5,14.3,7.2,24.9c2.6,10,4.4,15,7.7,21.8c3.4,7,5.9,10.7,10.4,15.2c3.4,3.4,5,4.3,8.5,5.1c1.7,0.4,5.7,1,6.5,1
	c0.2,0,0.2,0.1,0,0.3C374.7,349,370.4,349,368.4,348.6L368.4,348.6z M493.7,338.7c-0.9-1.2-3.2-4.2-5.2-6.8
	c-6.6-8.5-21-28.8-23.7-33.2c-0.9-1.5-3-5-4.6-7.7c-2.1-3.6-3.4-5.4-4.4-6.4c-5.5-5.4-14.9-24.6-19.1-39.4c-1.6-5.5-2.7-10.6-3.5-16
	c-1.6-11.4-2.2-19.2-2.2-30.9c0-16.5,1.8-31.4,6.2-51.2c1.8-8,2.6-11,6-22.3c1.4-4.7,2.6-8.7,2.6-8.9s1.5-5.3,3.4-11.4
	c3-9.8,4.8-15,7.9-22.7c1.7-4.2,1.1-2.1-1.1,4.5c-1.2,3.6-3.7,11.7-5.5,18.1s-3.4,12-3.7,12.5c-0.4,0.9-4.8,16.4-5.9,21.1
	c-1.1,4.2-3.5,16.3-4.5,22.2c-1.2,7.2-2.2,14.6-2.8,21.9c-0.6,6.6-0.7,24.3-0.1,30.7c1.1,13.8,2.8,23.6,5.3,31.8
	c1.4,4.4,4.7,13.4,6.7,17.9c2.6,5.9,7.2,14.3,9.6,17.7c0.5,0.7,1.3,2.1,1.9,3.2c1.7,3.5,5.5,9.1,9.1,13.9c4.6,5.9,9,12.1,13.9,19.1
	c2.1,3.1,5.8,8.3,8.1,11.6c7.7,10.8,8.4,11.8,8.1,12.2C495.7,341,495.3,340.8,493.7,338.7L493.7,338.7z M406.1,335.4
	c-5.9-1.1-11.5-5-15.2-10.5c-2.6-4-5.3-10.3-6.8-16.4c-2.1-8.3-4.3-25.1-4-29.9c0.1-1.1,0.2-0.9,0.4,1.6c1.9,16.4,4.6,28.2,7.9,34.3
	c3.4,6.5,6.9,9.9,12.4,12.1c6.8,2.8,11.8,2.6,19.6-1.1c1.8-0.9,2.8-1.2,4.7-1.3c1.3-0.1,3.1-0.5,3.9-0.8s1.7-0.5,1.7-0.5
	c0,0.1-0.5,0.8-1.3,1.7c-0.7,0.9-1.8,2.4-2.4,3.4c-1.9,3.2-3.6,4.5-8.5,6.1c-2.9,1-6.7,1.7-8.8,1.6
	C408.9,335.8,407.2,335.6,406.1,335.4L406.1,335.4z M155.1,272.7c-2.1-1.6-3.7-7.8-4.3-16.3c-0.3-4.9-0.3-6.4,1.4-29.6
	c0.7-9.8,0.8-11,1.1-10.5c0.1,0.2,0.1,4.4-0.1,9.6c-0.5,12.5-0.5,19.3,0,19.2c0.3-0.1,0.2,0.2-0.1,0.8c-0.4,0.8-0.4,1.3-0.1,5.7
	c0.4,5.5,1,9.5,2.3,15c1.2,5,1.5,6.7,0.9,6.7C156,273.3,155.5,273,155.1,272.7L155.1,272.7z M147.2,216.4c0-0.4,1.9-3.5,3.2-5.2
	c5.2-6.8,11.2-12.7,20.5-20.1c12.6-10.1,17.3-13.9,19.5-15.9c1.4-1.2,3.4-3,4.5-4s2.8-2.4,3.6-3.2c0.9-0.8,2.5-2.1,3.6-2.9
	c1.1-0.8,3.6-3,5.6-4.9c4.7-4.5,10.7-9.6,15.8-13.6c4.7-3.6,9.7-8.4,11.6-10.9c2-2.7,3.6-6.1,4.7-10.3c0.9-3.3,1-4.2,1-7.3
	c0-4.3-0.6-6.9-2.4-10.1c-1.5-2.7-3.9-5.7-4.5-5.6c-0.2,0-0.6,0.6-0.7,1.1c-0.2,0.8-0.7,1.4-1.9,2.3c-0.9,0.7-4.1,3.4-7.1,6.1
	c-3.1,2.7-6.3,5.3-7.1,5.9s-3.9,3.1-6.7,5.6c-10.3,8.8-22.7,18.4-31.6,24.3c-3.6,2.4-7.4,5-8.4,5.8c-1.1,0.8-4.5,3.2-7.7,5.4
	s-7.7,5.3-10.1,6.9c-2.4,1.6-4.5,3.1-4.8,3.3c-3.3,2-6.7,4.3-7,4.8c-0.4,0.7-2,7-2.9,12c-1.1,5.9-1.3,7.9-1.3,16.7
	c0,4.7,0,8.6-0.1,8.6c-0.3,0-1.3-2.5-1.9-4.8c-0.8-2.7-0.8-2.9-0.8-9.3c0-5.7,0.1-7.1,0.6-10.1c1.8-10.4,3.7-16.8,8.7-30.6
	c3.9-10.5,4-11,7.7-19.7c3-7.1,8.7-21.4,11.1-27.7c1.9-5,3.4-10.5,4.4-16.2c0.8-4.6,0.7-10.8-0.4-14.7c-1.8-6.3-7.2-15.2-12-19.5
	c-2.1-1.9-5.7-4.7-7.1-5.5c-1.1-0.6-1.3-0.8-0.8-0.8c0.9,0,1.9,0.5,5.3,2.8c4.8,3.2,8.6,7.5,12.1,13.6c3.4,5.9,4.7,10.1,4.9,16.2
	c0.1,3.3,0,4.6-0.4,7.4c-1.2,6.9-2.8,12.6-5.7,20.3c-0.8,2.2-2.6,7.1-3.9,10.8c-1.3,3.8-3.6,10.1-5.1,14s-3.6,10-4.8,13.6l-2.2,6.4
	l1,3.2c0.5,1.7,1.1,3.8,1.3,4.5s0.5,1.4,0.7,1.5c0.3,0.1,6.3-4,20.5-14.3c2.9-2.1,7.1-5.1,9.3-6.7c4.9-3.5,21.7-16.2,30.2-23
	c9.3-7.4,12-9.7,20.1-17.6c2.1-2.1,4-3.8,4.1-3.8c0.6,0,2.7,1.8,4.2,3.7c3.3,4.2,4.7,7.9,4.7,13.2c0,3.4-0.7,7.9-1.6,9.8
	c-2.7,5.7-3.4,7.1-4.5,8.5c-2,2.6-7.7,8-11.9,11.2c-4.3,3.3-11.3,9.1-14.4,12.1c-4.9,4.6-9.9,9-11.4,10.1c-0.9,0.6-3.7,3-6.2,5.2
	s-6.2,5.4-8.3,7.1s-5.9,4.9-8.4,7s-5.6,4.8-7,5.9c-3.1,2.6-13.4,12.7-15.9,15.7C150,213.7,147.2,216.7,147.2,216.4L147.2,216.4z
	 M144.7,170.2c1.8-1.2,2.5-1.9,2.5-2.3c0-0.3-0.2-1.4-0.6-2.4c-0.3-1-0.7-2.5-0.9-3.3s-0.5-1.5-0.6-1.5s-0.5,0.8-0.9,1.7
	c-1.1,2.8-3.1,9.4-2.9,9.7C141.5,172.4,141.6,172.4,144.7,170.2L144.7,170.2z M232,103.9c0.4-0.4,0.6-0.7,0.5-0.8
	c-0.1-0.1-0.5,0.2-0.9,0.7s-0.7,0.8-0.5,0.8S231.6,104.3,232,103.9L232,103.9z M113.2,213.8c-3.4-2.6-4.6-4.1-8.1-9.8
	c-2.5-4.2-7.3-13.9-9.4-19.1c-3.9-9.7-13.5-34.9-14.6-38.2c-0.6-1.9-2.2-7.2-3.4-11.7c-2.8-9.8-3.8-12.9-5.8-17
	c-3.9-8.3-8-13.8-13.1-17.8c-4.7-3.7-8.3-5.1-14-5.5c-2.2-0.1-2.9-0.1-5.2,0.6c-1.5,0.4-4.3,1.4-6.3,2.2c-2,0.8-3.7,1.5-3.9,1.5
	c-0.2,0.1,0-0.2,0.3-0.5c0.7-0.7,5.4-3.2,7.4-3.9c5.6-1.9,12.6-1.7,17.6,0.7c2,0.9,6.5,4.3,8.5,6.4c3.6,3.6,7.7,9.7,10.9,16.2
	c2.3,4.6,3,6.4,5.8,15.4c3.9,12.5,3.3,10.9,17.6,44.4c0.4,1,0.9,1.8,1.2,1.8c0.2,0,0.7-0.8,1.1-1.9c1.9-4.8,4.4-10.9,5.4-13.3
	c0.6-1.4,2.7-6.5,4.7-11.3c1.9-4.8,5.2-12.7,7.1-17.6c9.5-23.4,10.9-27.1,16.2-42c3.1-9,5.1-15.4,6.7-21.5c0.4-1.6,1.3-4.9,1.9-7.4
	c0.8-3.3,1.2-4.3,1.2-3.6c0.1,0.9-1.9,11.3-2.9,15.4c-0.3,1.1-1.1,4.5-1.8,7.5c-5.7,24.2-11.6,39.7-27.6,72.3
	c-2.8,5.8-6.2,12.9-7.6,15.8c-1.3,2.9-2.8,6-3.3,7s-0.9,1.9-0.9,2.1c0,1.1,6.5,14.2,10.9,22c1.7,3.1,3.6,6.6,4.1,8
	c0.5,1.3,1.4,3,1.8,3.7s0.7,1.4,0.7,1.4S114.9,215.2,113.2,213.8L113.2,213.8z M352.3,205.1c-1.5-1.3-3.5-3-4.5-3.9
	c-6-5.3-13.5-10.8-25.4-18.6c-5.7-3.8-12-8-14-9.4s-7-4.7-11.1-7.5s-8.9-6.1-10.6-7.3c-3.9-2.9-11.8-8.2-15.8-10.5
	c-6-3.6-11.9-8-14-10.6c-3.7-4.5-6.3-10.2-7.2-15.9c-0.5-3.3-0.4-5.8,0.4-9c0.9-3.3,4-8.4,5.8-9.5c0.7-0.4,0.8-0.4,2.9,1.3
	c9.7,7.7,21.2,15.4,34.2,23c1.7,1,6.7,3.9,11.1,6.6c4.5,2.6,9.8,5.8,11.9,6.9c2.1,1.2,6.1,3.4,8.8,5c9.9,5.8,22.5,12.6,22.8,12.4
	c0.1-0.1,0.6-2.2,1-4.6l0.7-4.3l-1.2-2.7c-1.1-2.5-10.7-22.2-19.8-40.6c-3.9-8-5.3-11.1-7.1-16.9c-3.6-11.3-2.9-18.7,2.8-30
	c2.4-4.7,4.9-8.2,8.1-11c2.9-2.5,4.5-3.7,5.4-3.9c0.8-0.2,0.7-0.1-0.4,0.7c-0.7,0.5-2.5,2.2-4.1,3.8c-6.2,6.3-10.9,15.1-12.2,22.8
	c-1.5,9.1,1.4,19.4,10.1,35.7c6.1,11.4,7.4,13.8,11.6,21.3c4.6,8.2,12.1,22.7,14.6,28.5c4.9,10.9,7.9,20.2,9,27.9
	c0.7,4.6,0.3,13-0.7,15.5c-0.2,0.4-0.4,0.7-0.4,0.7c-0.1-0.1-0.2-1.5-0.4-3.1c-1.2-12-2.6-18.5-6.3-28.7c-2-5.4-1.7-5.1-5.1-6.9
	c-1.6-0.8-3.3-1.6-3.6-1.7c-0.4-0.1-1-0.4-1.4-0.7s-3-1.7-5.8-3.2s-7-3.7-9.5-5c-6.8-3.7-12.1-6.4-18.6-9.7
	c-5.5-2.8-16.6-9.3-24.6-14.5c-1.8-1.2-9.2-6.1-16.4-11s-13.8-9.3-14.5-9.7c-1-0.6-1.5-1.2-1.9-2c-0.3-0.6-0.7-1.2-0.8-1.2
	c-0.4,0-2.3,3.1-3.4,5.5c-1.5,3.1-1.9,5.5-1.7,9.5c0.3,6.9,3.6,14.2,8.4,18.9c2.6,2.5,7.3,6,11.8,8.7c5,3,12.2,7.9,16.7,11.3
	c2,1.5,6.9,4.9,10.7,7.5s8.6,5.8,10.5,7.1s4.9,3.3,6.7,4.4c1.8,1.1,5.6,3.5,8.5,5.3s6.6,4.2,8.1,5.1c7.1,4.4,16.4,12.2,20.6,17.3
	c1.5,1.8,2.6,3.4,2.4,3.3C355,207.4,353.8,206.4,352.3,205.1L352.3,205.1z M355.4,162.1c0-0.2-1.8-4.2-3.1-7.1
	c-1.2-2.6-1.8-3.3-2-2.7s-1,6.1-1,6.6c0,0.3,0.9,1,2.5,1.8C354.1,162,355.4,162.5,355.4,162.1L355.4,162.1z M258.6,104.8
	c-0.7-0.6-1.3-1-1.4-0.9c-0.2,0.2,1.8,2.1,2.3,2.1C259.7,106,259.3,105.5,258.6,104.8z M385.6,203.1c0-0.2,0.4-1.1,0.8-2.1
	s0.9-2.4,1.1-3.1s1.4-3.8,2.8-7c2.9-6.7,4.8-11.7,6.9-18.1c2.1-6.3,2.1-6.1,0.9-7.7c-0.5-0.7-2-3.1-3.3-5.2
	c-1.3-2.1-4.1-6.6-6.3-9.9c-16.7-25.7-21.7-34.1-28.1-47.1c-5-10.2-9.1-20.4-14.1-35.1c-3.2-9.4-5-15.3-4.9-16
	c0.1-0.3,0.3,0.1,0.6,1c0.5,1.4,3.4,8.9,6,15.5c1.5,3.7,5,11.2,11,23.2c4.9,9.9,6.1,12.1,14.3,27.2c2.3,4.1,5.6,10.3,7.4,13.7
	s4.5,8.5,6,11.2c2.7,5,3.3,6.1,7,12.6c1,1.7,2.5,4.5,3.4,6.2s1.7,3.1,1.9,3.1c0.2,0,0.7-1.1,1.1-2.7c0.4-1.5,2.5-8.6,4.7-15.8
	c4.8-16,5.1-17.4,7.2-28.4c0.9-4.8,2-9.9,2.3-11.3c1.8-7,6.1-16.4,9.9-21.8c1.9-2.7,7.2-7.9,9.4-9.1c5.7-3.3,12.6-3.9,19.1-1.7
	c3.1,1,6.1,2.3,5.9,2.5c-0.1,0.1-1.7-0.3-3.5-0.8c-3.9-1.1-7.5-1.8-9.5-1.8c-3.4,0-8.9,1.6-11.8,3.4c-2.4,1.6-6.8,6-8.7,8.8
	c-3.6,5.4-7,13.5-8.6,20.6c-0.4,1.7-1.4,7.2-2.2,12.2c-0.8,5.1-1.9,11-2.5,13.2c-1,4.4-8.8,33.9-10,38.3c-2.3,7.8-5.1,15.3-8.4,21.8
	c-2,4-2.6,4.9-4.4,6.9c-1.1,1.2-2.1,2.4-2.1,2.5s-0.4,0.5-0.8,0.8C385.9,203.1,385.6,203.2,385.6,203.1L385.6,203.1z M111,144.9
	c-0.1-0.4-0.4-3-0.7-5.9c-1.2-11-3.3-19.6-9.7-38.2c-3.5-10.2-3.7-10.8-3.3-11.3c0.8-0.8,2.5-1.1,7.2-1.1c5,0,8.3,0.4,11.6,1.6
	c4.4,1.5,8.3,4.7,10.1,8.2c0.9,1.8,1.7,4,1.5,4.2c-0.1,0.1-0.9-1-1.8-2.4c-2.5-3.7-5.7-6.2-10-7.7c-2.4-0.9-8-1.9-12.9-2.4
	c-3.8-0.4-4.3-0.4-4.3,0.1c0,0.2,1.3,3.6,3,7.6c3.5,8.5,4.5,11.3,6.2,17.9c2,7.9,2.7,12,3.3,20.3C111.5,140.4,111.4,146.4,111,144.9
	z M382.6,132.2c0-0.2-0.2-1.5-0.4-3c-0.6-3.8-0.8-13.1-0.4-18.1c0.3-4.6,1.4-12.3,2.2-16.3c0.3-1.4,1.5-6.1,2.7-10.4s2.2-8,2.2-8.3
	c0-0.5-0.1-0.5-0.9-0.4c-0.5,0.1-1.4,0.2-2,0.3c-2.2,0.3-10.6,2.6-12.6,3.4c-4.9,2.1-8,4.9-10.3,9.5c-1.5,3.1-1.9,3.3-1.4,0.8
	c1.3-6.1,7.4-11.5,15.3-13.6c5.5-1.4,12.1-1.8,13.2-0.9c0.6,0.5,0.6,0.5,0.2,2c-0.2,0.8-1.4,5.7-2.5,10.8c-3.9,17.7-5.2,27.8-5,38.4
	c0.1,2.9,0,5.4-0.1,5.6C382.7,132.3,382.6,132.3,382.6,132.2L382.6,132.2z M458.3,79.2c0-0.1,0.1-0.4,0.3-0.6
	c0.2-0.3,0.3-0.3,0.3,0.2c0,0.3-0.1,0.6-0.3,0.6S458.3,79.3,458.3,79.2z"/>
<path id="path2523" inkscape:connector-curvature="0" class="st5" d="M119,386.6c0-0.1,0.5-1.1,1.2-2.2s1.5-2.6,1.9-3.4
	c1.4-3,5.4-8.2,10.6-13.6c4.8-5,6.8-6.9,6.1-5.7c-0.2,0.3-1,1.3-1.8,2.3s-2.9,3.8-4.5,6.2c-4,5.9-6.6,9.4-9.3,12.2
	c-1.2,1.3-2.6,2.8-3,3.4C119.5,386.8,119,387.1,119,386.6L119,386.6z M401.3,372.7c-0.5-0.4-2-1.6-3.4-2.7
	c-3.1-2.3-7.2-6.6-10.4-10.7c-1.3-1.7-3.5-4.3-5-5.8s-2.7-2.9-2.6-3s3.2,2.1,8.4,6.3c3.3,2.6,8,7.4,9.5,9.7c0.5,0.7,1.5,2.2,2.2,3.3
	c1.7,2.5,2.4,3.6,2.3,3.6C402.2,373.4,401.8,373.1,401.3,372.7L401.3,372.7z M23.2,365.2c0.5-0.8,2.9-5.1,5.4-9.5s5.7-10.2,7.2-12.9
	c4.5-8.3,18-36.1,19.3-39.6c0.4-1.1,1.5-3.6,2.4-5.5c4.2-8.8,7.2-17.9,10.1-30.7c3.3-14.5,3.4-35.2,0.4-56.5
	c-1.2-8.7-3.9-20.7-7.1-32.1c-1.6-5.6-5.7-17.9-7.5-22.5c-1.7-4.3-7.7-19.1-8.2-20.2c-0.2-0.5-2.2-5.3-4.4-10.7
	c-2.2-5.4-4.9-11.8-6.1-14.2s-2-4.4-1.9-4.5c0.4-0.4,12,24.9,13.9,30.2c0.3,0.8,1.8,4.4,3.4,8.1c4.3,9.8,6.3,15.1,9.3,23.9
	c6.4,19.1,10.1,35.5,11.5,51.4c1.6,17.3,1.1,33.6-1.2,45.2c-2.4,12.1-5.9,22.9-10.3,32.7c-0.8,1.7-1.8,4.3-2.4,5.9
	c-1.4,4-3.9,9.1-7.6,15.1c-1.8,3-4.4,7.9-6.3,11.9c-6,12.3-12.6,24.3-17.4,31.5C22.8,366.4,21.7,367.7,23.2,365.2L23.2,365.2z
	 M53.7,309.7c1.8-3.7,2.1-4.6,1.7-4.6c-0.3,0-2.2,3.8-3.3,6.7C51,314.3,52.1,313,53.7,309.7z M144.2,359.2c-0.9-0.2-0.6-0.3,2.1-0.9
	c6.2-1.5,9-3.6,13-9.4c3.6-5.2,6.5-12,8.8-20.2c1.5-5.4,2-8.4,3.5-18.4c1.5-10.2,2.3-14.8,3.7-21.7c1.3-6.1,2.1-10.5,3.3-17.3
	c1-6.1,1.7-8.8,3.7-15.3c1.9-6.1,2.2-7.2,2.7-12.3c0.5-4.6,0.4-8.6-0.3-11.2c-0.2-0.9-1-2.8-1.7-4.2c-2.2-4.4-6.6-8.3-11.1-9.8
	c-3.6-1.1-8.3-1.6-9.5-1c-0.8,0.4-1.1,1.8-1.4,6.5c-0.4,7.4-0.7,8.9-1.7,11.5c-0.9,2.3-2.8,5.5-4,7l-0.6,0.7l0.4-1
	c0.2-0.5,1-2.3,1.8-3.8c2.3-4.7,2.8-6.9,3.2-13.7c0.4-6.4,0.6-7.3,2.1-8.6c0.8-0.7,1-0.8,2.6-0.8c2.9,0.1,7.3,0.7,8.9,1.2
	c2.3,0.9,6.1,3.5,8,5.6c6,6.5,6.8,18.3,2.3,32.5c-2.4,7.5-3,10.1-4.3,17.7c-0.7,3.9-1.9,10.4-2.7,14.4c-1.9,9.4-2.6,13.2-4.1,23.5
	c-1.4,9.4-1.7,11.4-2.9,16c-3.8,15.2-10.9,27.6-17.7,31.1c-1.7,0.8-5.9,2.2-6.6,2.1C145.3,359.4,144.7,359.3,144.2,359.2
	L144.2,359.2z M99.8,350.3c-2.5-0.3-6-1.3-7.7-2.1c-1.2-0.6-1.7-1-2.4-2.3c-1.7-2.7-2.3-3.5-3.3-4.6l-1-1l1.6,0.2
	c0.9,0.1,2.9,0.2,4.4,0.2c2.5-0.1,3.1,0,5.3,0.8c7.9,2.6,12.4,2.5,18.1-0.5c4.4-2.3,7.3-5.2,9.4-9.5c3.7-7.4,4.9-14.1,5.8-33.8
	l0.2-4.7l0.2,4.3c0.3,6,0.1,11.5-0.9,21.3c-0.8,8.2-3.5,16.3-6.8,21.3c-1.4,2-5.2,5.7-7.4,7.1C111,349.9,105.5,351.1,99.8,350.3
	L99.8,350.3z M370.5,348.7c-5.1-0.5-8.3-2.3-12.7-7.3c-3-3.4-4.9-6-7.2-10.2c-4.2-7.7-6.7-14.1-9.3-24.1
	c-3.3-12.4-4.8-17.7-7.4-25.6c-1.4-4.3-3.4-10.8-4.5-14.4c-2.3-7.8-2.9-9.6-5.4-15c-3.1-6.8-3.4-7.8-4.5-12.6
	c-1.4-6-1.7-8.6-1.4-12.3c0.7-7,3-11.3,7.8-14.8c2.7-2,4.6-2.9,7.2-3.4c1.2-0.2,2.7-0.6,3.2-0.8c1.3-0.5,2.5-0.5,3.7,0
	c1.7,0.8,2.4,2.4,3.1,7.8c0.3,2.1,0.7,4.4,0.8,5.1c0.4,2.1,2.4,6.5,4,8.9c0.8,1.2,1.8,2.8,2.2,3.5l0.8,1.2l-1.2-1.2
	c-3-3.2-5.2-7.1-6.2-10.7c-0.3-1.1-0.8-3.8-1.2-5.9c-1-6.2-1.4-7-3.8-7c-1.7,0-5.8,1-8,2c-3.4,1.5-7.1,5.2-8.9,8.8
	c-1.5,3.1-2.1,5.8-2.1,9.6c0,2.9,0.1,3.8,1.1,8.2c1.2,5.1,1.3,5.5,4.5,12.8c2.5,5.8,3,7.1,5.4,15.1c1.1,3.7,3.1,10.2,4.5,14.5
	c2.6,7.9,4.1,13.2,7.4,25.5c2.6,9.9,5.1,16.5,8.7,23.3c3.9,7.2,9.4,13.8,13.3,16c1.6,0.9,5.6,2,8.3,2.2c1,0.1,1.9,0.3,1.9,0.4
	s-0.2,0.3-0.5,0.3s-0.7,0-1,0.1S371.6,348.8,370.5,348.7L370.5,348.7z M492.7,337c-7.8-10.3-10.7-14.1-16.3-22
	c-8.7-12.2-10.5-14.9-13.5-20.2c-4.2-7.4-5.5-9.2-7-10.7c-3.3-3.1-9.6-14.4-13.6-24.3c-3.2-8-6.2-17.4-7.6-24.1
	c-0.2-1.1-0.7-4.2-1.1-6.7c-2.9-20.2-3-39.3-0.1-59.4c1.6-11.2,4.5-25.2,7.1-34.4c1.2-4.3,2.2-7.6,7.9-26.8
	c1.1-3.8,2.8-9.1,3.6-11.7c1.5-4.6,3.9-11.2,4.1-11c0,0-0.5,1.9-1.3,4.2c-0.7,2.3-2.7,8.8-4.2,14.5c-1.6,5.7-3.1,10.8-3.3,11.3
	c-0.4,0.9-5.1,17.4-6.3,22.1c-0.4,1.5-1.4,6-2.2,9.9c-6,28.3-7.2,51.4-4.1,76.4c0.4,3.1,0.9,7,1.2,8.6c2.6,14.5,10.7,34.6,18.6,46.6
	c0.9,1.3,2,3.2,2.5,4.3c1.3,2.5,5.3,8.9,6.8,10.9c0.7,0.9,2.3,3,3.6,4.7c2.5,3.3,9.6,13,13.3,18.5c2.3,3.4,8.6,12.2,13,18.3
	c2.3,3.1,2.9,4.5,2,4.5C495.5,340.5,494.1,338.9,492.7,337L492.7,337z M472.4,307.2c-0.6-1.3-3.5-5.4-4.5-6.5l-0.9-1l0.7,1.4
	c0.7,1.3,4.7,7,5,7C472.8,308.1,472.6,307.7,472.4,307.2z M405.5,335.1c-3.6-0.8-6.4-2.3-9.8-5c-1-0.8-2.3-2-2.8-2.7
	c-3.5-4.2-6.8-11.6-8.7-19c-1.4-5.5-2.8-14.5-3.4-21.3s-0.5-6.9,0.5-0.3c2.9,19.5,5.6,27.6,11.5,34.4c2.5,2.9,6.9,5.5,11.6,6.8
	c3.4,1,7.4,0.9,10.7-0.3c1.4-0.5,3.7-1.4,5.2-2.1c2.2-1,3.2-1.3,5.2-1.5c1.3-0.1,2.9-0.5,3.5-0.7s1.1-0.4,1.2-0.3s-0.4,0.8-1.1,1.5
	s-1.6,2.1-2.1,3.1c-1.6,3-3.3,4.3-7.7,5.9C414.6,335.5,409.3,336,405.5,335.1z M155.4,272.9c-0.9-0.5-2.2-3.1-3-5.9
	c-1.6-6.1-2-15.2-1.3-23.9c0.2-2.9,0.5-6.6,0.6-8.2c0.2-4.5,1.2-17,1.4-17.1c0.2-0.2-0.2,15.2-0.5,18.4c-0.3,3.5-0.3,8.7,0,9.3
	c0.1,0.3,0.2,0.8,0.1,1.2c-0.3,1.1,0.1,8,0.8,12.1c0.3,2,1.1,5.7,1.7,8.2c0.6,2.5,1.1,5,1,5.5C156.1,273.2,156.1,273.2,155.4,272.9
	L155.4,272.9z M352.1,263.6c0-0.5,0.3-2.9,0.6-5.3c0.5-3.6,0.6-5.5,0.6-11.6c0-5.2-0.1-7.6-0.4-8.5c-0.2-0.7-0.3-1.8-0.3-2.5
	c0.1-1.3-0.2-3.3-2.1-16.5c-1-7-1.3-9.3-1-9c0.1,0.1,0.8,3.8,1.6,8.2c4.5,23.8,4.6,24.7,4.6,31.7c0,6.8-0.6,10.5-2.2,13.2
	C352.8,264.8,352.1,264.9,352.1,263.6L352.1,263.6z M112.9,213.5c-3.1-2.5-4.6-4.3-7.7-9.6c-4.4-7.3-7.7-14.6-12.9-28.1
	c-1.7-4.5-4.5-11.6-6.1-15.8c-4.1-10.4-5-13.2-8.4-25.1c-3.1-10.9-4.1-13.6-6.4-18.1c-4-8-7.9-13.1-13.1-17c-5-3.8-8.2-4.9-14-4.9
	c-4.2,0-5.7,0.3-10.9,2.4c-1.7,0.7-3.2,1.2-3.2,1.1c-0.2-0.2,4.2-2.5,6.1-3.3c2.8-1.1,6-1.6,9.8-1.5c5.3,0.2,8.2,1.3,12.7,4.6
	c6,4.5,10.4,10.2,15.4,20.2c1.9,3.7,2.7,5.9,4.3,10.7c5.3,16.6,5.6,17.3,11.8,32c3.4,7.9,6.6,15.4,7.1,16.7c0.5,1.2,1.1,2.3,1.3,2.3
	c0.2,0,0.4,0.3,0.4,0.8c0,1.6,5.6,13.1,11,22.6c1.6,2.9,3.4,6.3,4,7.7s1.3,2.8,1.6,3.2C116.6,216,115.7,215.7,112.9,213.5
	L112.9,213.5z M148.3,214.7c2.2-4.5,11.9-14.8,19.7-21c1.3-1.1,4.9-3.9,7.9-6.4c3-2.4,7.3-5.9,9.5-7.7s5.7-4.8,7.8-6.6
	c3.6-3.3,7-6.1,10.7-9.1c0.9-0.7,3-2.7,4.8-4.3c4.2-4,10.3-9.2,14.6-12.5c10.6-8.1,14.6-13.3,16.7-21.3c1.1-4.2,1.4-9,0.7-12.2
	c-0.6-2.8-2.2-6.1-4.1-8.5c-1.9-2.5-2.2-2.9-0.9-1.8c2.5,2.3,4.6,5.7,5.7,9.3c0.8,2.7,0.9,7.9,0.1,11.5c-0.5,2.5-2.8,8.1-4.3,10.6
	c-2.1,3.5-7.4,8.7-13.5,13.3c-1.5,1.1-3.3,2.5-3.9,3c-3.4,2.8-8.2,7-10.4,9c-7.5,7-9.7,9-11.2,9.9c-0.6,0.4-3.4,2.7-6.2,5.2
	s-6.7,5.8-8.6,7.4s-5.3,4.3-7.4,6.2c-2.1,1.8-5.3,4.5-7.1,6c-4,3.3-13,12.1-15.9,15.5c-1.2,1.4-2.9,3.2-3.7,4.1l-1.5,1.5
	L148.3,214.7z M136,210c-0.8-1.7-1.7-5.6-2-8.7c-0.8-8.6,1.2-20.6,5.8-34.6c2.3-7.2,7.5-21,11.4-30.1c4.7-11.3,11.1-27.5,12.4-31.5
	c2.1-6.4,3.7-14.6,3.7-18.5c0-5-1.1-9.5-3.4-14.3c-3.4-7-7.9-12.6-13.9-17.1c-2.8-2.1-2.9-2.2-2.5-2.2s5.4,3.3,6.9,4.6
	c3.9,3.2,9.7,11.5,11.7,16.8c1.8,4.7,2.5,10.2,2.1,14.8c-0.7,6.5-2.8,14.7-6,23.2c-1,2.8-2.8,7.6-3.9,10.7
	c-1.1,3.1-3.4,9.4-5.1,14.1c-3.5,9.3-6.9,19.4-6.9,20.2c0,0.5,2.4,8.9,2.6,9.4c0.1,0.1,0.3,0.2,0.5,0.1c0.5-0.2,15.2-10.7,24.8-17.7
	c2.2-1.6,4.8-3.4,5.8-4.1c3.3-2.2,20.7-15.5,30.4-23.3c7.7-6.1,9.4-7.6,17.1-15c2.6-2.4,4.5-4.2,4.3-3.8c-0.2,0.3-0.7,1-1,1.4
	c-0.9,1.2-0.3,1.1,1.2-0.3c1.3-1.2,1.8-0.9,0.6,0.4c-1.3,1.4-14,12.2-15.6,13.3c-0.6,0.4-3.5,2.8-6.4,5.3
	c-10.5,9-22.8,18.5-31.8,24.5c-3.6,2.4-7.6,5.1-8.8,6s-4.3,3-6.9,4.8c-2.6,1.8-7.1,4.9-10.1,6.9c-3,2.1-5.5,3.7-5.6,3.7
	c-0.4,0-5.6,3.5-6.2,4.1c-0.6,0.6-0.9,1.6-1.7,4.8c-2.4,9.9-2.9,14.2-3,24.9c0,4.2-0.1,7.6-0.1,7.6C136.4,210.8,136.2,210.4,136,210
	L136,210z M142.4,172.1c0.1-0.1,1.3-1,2.6-2c1.4-0.9,2.5-1.8,2.5-2s-0.4-1.6-0.8-3.1s-0.8-3.1-0.8-3.4c0-0.9-0.5-1.5-0.8-1.1
	c-0.3,0.3-3.4,9.5-3.7,10.9c-0.2,0.8-0.1,1,0.4,1C142,172.4,142.3,172.2,142.4,172.1z M349.1,209.5c0-0.3,0.1-0.4,0.2-0.2
	s0.1,0.4,0,0.5C349.2,209.9,349.1,209.8,349.1,209.5L349.1,209.5z M353.1,205.6c-10-8.9-15.9-13.4-30.4-23
	c-5.8-3.8-12.1-8.1-14.1-9.4c-2-1.4-6.8-4.7-10.8-7.3c-4-2.7-8.9-6-10.8-7.5c-4.6-3.4-11.7-8.2-16.1-10.7c-6.2-3.7-11.8-8-14.2-11
	c-1.6-2-3.7-5.6-4.8-8.2c-2.8-6.5-3-13.6-0.6-18.9c0.8-1.8,3.5-5.9,3.8-5.7c0.1,0.1-0.2,0.6-0.6,1.2c-1.2,1.9-2.9,5.4-3.4,7.2
	c-0.7,2.7-0.7,7.7,0.1,10.8c0.9,3.3,2.5,7.1,4,9.7c2.6,4.2,8.3,9,16.3,13.8c4.6,2.7,11,7.1,15.9,10.8c3.2,2.4,8.8,6.2,23.1,15.9
	c1.6,1.1,6.8,4.4,11.5,7.3s10,6.3,11.9,7.5c8.8,5.8,15.5,11.7,20.2,17.8C354.6,206.6,354,206.4,353.1,205.6z M385.9,202.8
	c0-0.2,0.2-0.7,0.4-1.3c0.2-0.6,0.8-2.2,1.3-3.6s1.6-4.2,2.5-6.2c3.9-8.9,8.9-22.9,8.9-24.9c0-0.6,0.1-1,0.3-1.1
	c0.2-0.1,1.1-2.8,2-6.2c1-3.3,2.9-9.8,4.2-14.3c4.3-14.4,4.7-15.7,6.6-26c1.8-9.7,2.3-11.8,3.3-14.9c2.1-6.3,5.4-13.5,8.5-18.1
	c2-3,7-8.1,9.4-9.6c4.7-2.8,10.9-4,16-2.9c2.2,0.5,6,1.7,7.4,2.5c1.1,0.6,0.5,0.5-2.1-0.3c-1.3-0.4-3.7-0.9-5.4-1.2
	c-2.6-0.5-3.4-0.5-5.4-0.3c-5.6,0.7-9.1,2.2-13.1,5.9c-3.5,3.1-6,6.4-8.3,10.9c-4.1,8-5.6,13-7.9,26.7c-2.1,12.5-2.5,14.2-5.7,26.6
	c-1.5,5.7-3.4,12.8-4.1,15.8c-4,15.3-7.1,24.3-11.7,33.3c-1.4,2.7-2.3,4.1-4.4,6.5c-1.5,1.7-2.7,3.1-2.8,3.1
	S385.9,202.9,385.9,202.8L385.9,202.8z M364.7,198.8c0-0.7-0.2-2.6-0.4-4.2s-0.6-4.3-0.8-6c-0.6-4.7-1.7-8.9-3.3-14.1
	c-2.3-7.1-3.6-10.2-4.4-10.9c-0.4-0.3-2-1.2-3.6-2c-1.6-0.7-3-1.4-3.3-1.6c-0.2-0.1-1.2-0.6-2.1-1.1c-1.6-0.8-9.2-4.9-17.3-9.2
	c-2.1-1.1-7.7-4-12.5-6.5c-7.6-3.9-13.8-7.4-25.4-14.6c-1.7-1-5.1-3.3-7.7-5.1s-8.4-5.7-12.9-8.7c-11.3-7.5-12.4-8.3-13.5-9.4
	c-0.5-0.5-0.9-1-0.8-1.1s0.5,0.1,0.9,0.5c2.1,1.9,3.5,2.2,1.7,0.3l-1.2-1.3l1.1,0.8c0.6,0.4,3.8,2.8,7,5.2c5.9,4.4,16,11,27.6,17.8
	c3,1.8,8.3,4.9,11.8,7s8.4,4.9,11,6.4c2.6,1.4,6.8,3.8,9.3,5.3c6.4,3.7,21.1,11.9,21.5,11.9c0.5,0,0.5-0.2,1.3-4.9l0.7-4.5l-1-2.2
	c-1.4-3-14.2-29.2-19.3-39.5c-4.3-8.7-6.2-13.1-7.8-18.2c-1.6-5.1-1.8-6.5-2-10.8c-0.3-6.7,0.7-10.9,4.4-18.4c2.5-5,4.8-8.3,7.7-11
	c2.3-2.1,5-4.2,5.3-4.2c0.1,0-1.3,1.5-3.2,3.4c-3.2,3.2-4.4,4.6-8.3,10.7c-1,1.5-3.4,7.5-4.1,10c-0.3,1.1-0.7,3.3-0.8,4.8
	c-0.7,6.1,0.9,13.5,5.2,23.5c1.6,3.8,9.4,18.5,15.7,29.7c6.5,11.6,14.1,26.4,17.5,34.4c5.2,12.3,8.2,24.7,7.6,32
	c-0.2,2.9-0.7,6.1-0.9,6.7C365.1,200.5,364.7,200.1,364.7,198.8L364.7,198.8z M355.7,162.3c0-0.3-3.8-8.6-4.3-9.5
	c-0.3-0.5-0.6-0.9-0.8-0.9c-0.3,0-1.6,6.6-1.4,7.2C349.5,160,355.7,163,355.7,162.3L355.7,162.3z M100,177.8c0-0.3,2.6-7,3.6-9.4
	c2.4-5.5,4.6-10.7,8.9-21.3c2.5-6.1,5.5-13.7,6.8-16.9c7-17,9.2-22.8,14.3-37.7c3.6-10.4,4.1-12.2,7.2-24c0.9-3.6,1.8-6.4,1.8-6.3
	c0.1,0.3-2.1,11.7-2.4,12.5c-0.1,0.3-0.6,2.4-1.1,4.5c-2.2,10.1-6,23.6-9.2,32.6c-4.3,12.2-11.5,28.4-21.4,48.2c-1.4,2.9-3,6-3.4,7
	C103.2,172,100,178.5,100,177.8L100,177.8z M395.2,160.1c-1.9-3-3.7-5.9-14.2-22.1c-15.7-24.4-23.4-39.4-31.5-61.4
	c-2.6-7-7.1-20.7-7.4-22.5c-0.2-0.9,3.1,7,4.5,10.9c3,8.3,14.3,31.2,24.5,49.7c1.6,2.8,4.2,7.6,5.8,10.7c10,18.6,13,24.2,14,25.8
	c3.9,6.9,6.6,12,6.3,12C397.2,163.3,396.2,161.9,395.2,160.1L395.2,160.1z M111,143.6c-0.1-0.2-0.4-2.3-0.6-4.7
	c-0.7-6.3-1.5-10.7-3.2-17.3c-1.1-4.1-3.4-12-4.2-14.3c-2.6-7-5.9-17.2-5.7-17.5c0.3-0.9,1.5-1.2,5.9-1.3c11-0.3,18.6,2.7,22.4,8.8
	c1,1.5,2.1,4.3,1.9,4.5c0,0-0.7-0.8-1.4-1.8c-2.6-3.8-6.4-6.7-10.7-8.1c-3.9-1.3-15.9-2.9-16.6-2.2c-0.3,0.3,0.3,1.8,2.8,8
	c1.7,4.2,3.6,9,4.1,10.6c2.3,7.1,4.5,17.5,5,23.2c0.1,1.1,0.3,2.9,0.4,4.1C111.3,137.8,111.3,144.3,111,143.6L111,143.6z
	 M382.6,131.1c0,0-0.2-1.4-0.4-3.1c-0.5-3.6-0.6-14.7-0.1-19.2c0.8-8.7,1.8-13.9,4.8-24.5c1.3-4.6,2.3-8.4,2.2-8.6
	c-0.3-0.4-3-0.1-7.4,1c-5.1,1.3-7.8,2.1-10,3.3c-2.5,1.3-3.2,1.8-5.3,3.9c-1.4,1.4-2.1,2.4-3.1,4.4c-0.7,1.4-1.3,2.5-1.4,2.4
	c-0.3-0.3,0.5-3.1,1.4-4.7c2.2-4.1,7-7.8,12.3-9.5c5.2-1.6,13.6-2.4,14.6-1.4c0.4,0.4,0.4,0.6,0.2,1.6c-1.1,4.5-4.6,20.5-5.2,24.4
	c-1.8,10.2-2.3,15.4-2.2,23.6c0,3.4,0,6.2-0.1,6.2C382.6,131.2,382.6,131.2,382.6,131.1L382.6,131.1z M256,103.2
	c-0.2-0.3,0.5-0.7,0.9-0.4c0.2,0.1,0.3,0.3,0.3,0.4C257.2,103.6,256.2,103.6,256,103.2L256,103.2z M232.8,102.4
	c-0.2-0.1-0.3-0.4-0.2-0.5c0.2-0.4,1.2-0.4,1.4-0.1C234.2,102.1,233.2,102.7,232.8,102.4L232.8,102.4z"/>
<path id="path2521" inkscape:connector-curvature="0" class="st6" d="M120.2,384.9c0.4-0.6,1.2-2,1.7-3.1c1.1-2.1,2.8-4.6,5.1-7.7
	c1.6-2.2,10.7-11.6,10.7-11.2c0,0.2-0.7,1-1.5,1.9s-2.6,3.4-4.1,5.6c-3.6,5.5-6.5,9.3-9,11.9c-1.2,1.2-2.3,2.5-2.6,2.9
	C119.7,386.5,119.4,386.1,120.2,384.9L120.2,384.9z M400.7,371.9c-0.2-0.2-1.4-1.1-2.6-2c-2.8-2-7.2-6.5-10.8-11.1
	c-1.5-2-3.3-4.1-4-4.8c-0.7-0.7-1.4-1.5-1.6-1.8c-0.5-0.7-0.8-0.9,5.1,3.8c6,4.8,9.4,8.3,11.9,12.4c0.8,1.2,1.7,2.7,2.1,3.1
	c0.4,0.5,0.6,0.9,0.4,0.9C401.1,372.3,400.8,372.1,400.7,371.9z M25.2,362c0.5-0.9,2.3-4,4-6.9c6.4-11.2,11.1-20.2,20-38.7
	c2.2-4.6,4.1-8.4,4.2-8.3c0,0-0.4,1.1-0.9,2.2s-1.2,2.6-1.4,3.2c-0.3,0.9-0.3,1.1,0.1,1.1c0.6,0,0.5,0.2-2.3,4.9
	c-1.3,2.2-4.5,8.2-7,13.3c-4.8,9.8-7.1,14.1-11.4,21.5c-2.6,4.4-5.7,9.3-6,9.3C24.4,363.5,24.7,362.8,25.2,362L25.2,362z
	 M144.9,358.9c0.3-0.1,1.5-0.5,2.7-0.8c3.4-0.9,6-2.3,7.9-4.3c3.6-3.6,7.4-10,9.9-16.5c3-7.8,4.4-13.7,6.1-25.6
	c1.6-11.3,2.3-15.2,4.1-24c0.8-4,2.1-10.5,2.8-14.5c1.4-8.3,2-10.5,4.2-17.6c1.8-5.7,2-6.7,2.7-12.3c0.7-6.2,0.2-10.4-2-14.8
	c-1.9-3.8-5.3-7.2-9.3-9.2c-3.6-1.7-9.9-2.7-11.7-1.8c-1,0.5-1.4,2-1.7,7.2c-0.5,8.3-0.8,10-3.4,14.5c-1.5,2.7-1.7,2.4-0.3-0.4
	c0.7-1.4,1.5-3.6,1.9-5c0.4-1.3,0.8-2.5,0.9-2.7c0.1-0.2,0.3-2.8,0.4-5.8s0.4-6,0.5-6.6c0.2-0.6,0.7-1.5,1.4-2.2
	c1.1-1.1,1.1-1.1,2.8-0.9c8,0.7,8.7,0.9,12.4,3.3c4.4,2.9,7,6.7,8.4,12.1c0.5,2.1,0.6,3.1,0.6,7.4c0,6.4-0.6,9.6-3.1,17.6
	c-2.1,6.6-2.9,10.2-4,16.6c-1,5.8-1.9,10.8-3,16c-1.2,5.6-2.6,13.5-3.9,22.9c-1.7,11.5-2.9,16.9-5.8,24.6
	c-3.7,10.1-9.3,18.4-14.1,20.9c-1.6,0.9-5.9,2.2-7.1,2.1C144.5,359.1,144.4,359.1,144.9,358.9z M99.5,350.1
	c-2.5-0.3-6.1-1.4-7.5-2.2c-1.1-0.6-1.6-1.2-2.7-3c-0.8-1.2-1.8-2.6-2.2-3.1l-0.8-0.9l4.1,0.1c3.7,0.1,4.4,0.2,7,1
	c8.7,2.8,13.7,2.2,20.2-2.2c3.6-2.5,5.9-5.3,8-10.1c2.7-6,3.9-12.7,4.5-24.5c0.2-3.2,0.4-5.8,0.4-5.9c0.2-0.2,0.1,9.3-0.2,11.5
	c-0.2,1.3-0.5,4.3-0.7,6.8c-0.5,5.2-1.1,8.6-2.4,12.5c-2,6.1-3.7,9.2-6.9,12.5c-3.7,3.9-7.4,6.1-12,7.2
	C105.9,350.4,102.5,350.5,99.5,350.1L99.5,350.1z M370,348.4c-4.6-0.5-8-2.5-12.1-7.2c-3.1-3.5-5.4-6.9-8-12
	c-4-7.8-5.8-12.6-9.1-25.1c-3.1-11.6-3.6-13.2-6.4-22c-1.3-4.1-3.4-10.6-4.5-14.4c-2.5-8.4-3.3-10.9-5.9-16.6
	c-3-6.7-3.2-7.3-5.1-15.4c-0.9-4-0.8-9.1,0.3-13.5c1-4.1,3.6-7.6,7.4-10.2c2.6-1.8,4-2.4,6.5-2.9c1.1-0.2,2.4-0.6,3-0.8
	c1.6-0.7,3.3-0.6,4.3,0.3c0.5,0.4,1,1.1,1.3,1.5c0.5,0.9,1.1,3.8,1.4,6.3c0.4,3.7,1.2,6.5,2.8,10c0.9,1.9,2,4,2.5,4.7l0.9,1.3
	l-0.9-1c-3.1-3.4-4.8-7.7-5.8-14.4c-0.5-3.8-1.1-5.9-1.8-6.7c-0.6-0.7-0.9-0.8-2-0.8c-3.4,0-9.3,2.2-12.1,4.5
	c-4.8,3.9-7.3,9.6-7.3,16.3c0,2.6,0.2,3.8,1.1,7.9c1.3,5.7,1.3,5.6,4,11.7c3.1,6.9,3.5,8,6.2,17.1c1.3,4.5,3.4,11.1,4.5,14.5
	c2.5,7.6,3.5,11.1,6.4,22.1c3.4,12.8,4.9,17,9.1,25.2c3.1,6,5.3,9.2,9.3,13.2c2.5,2.5,3.6,3.4,5,4.1c1.9,0.9,5.9,2,7.7,2
	c0.6,0,1,0.1,1,0.3C373.5,348.7,373,348.7,370,348.4L370,348.4z M492.6,336.6c-1.5-2-4.4-5.8-6.4-8.4c-3.3-4.4-10.6-14.5-16.9-23.5
	c-2.1-3-5.3-8.1-8.1-13.1c-0.9-1.5-0.7-1.8,0.2-0.3c0.3,0.6,1.1,1.7,1.8,2.5s1.5,2.2,1.8,3s1.2,2.4,1.8,3.4c2.2,3.5,8.7,12.4,9,12.1
	c0.1-0.1-0.9-1.7-2.1-3.7s-2.2-3.6-2.1-3.6s6.2,8.5,9,12.7c2.2,3.3,8.5,12.1,12.8,18.1c2.2,3,2.8,4.3,2.1,4.3
	C495.4,340.2,494.1,338.6,492.6,336.6L492.6,336.6z M407.2,335.3c-2.3-0.3-5.5-1.4-7.3-2.4c-2-1.1-5.5-4-6.6-5.3
	c-4.6-5.6-7.9-13.9-9.9-24.6c-0.4-2-0.8-4.3-1-5.1c-0.4-1.9-1.1-7.7-1.1-8.6c0-0.8,0.1-0.6,1.2,5.8c1.5,8.4,3.1,14.2,5.2,18.7
	c3.6,7.5,7.8,11.5,14.8,14c6.2,2.2,9.7,1.9,17.7-1.6c2.5-1.1,3.6-1.4,5.3-1.6c1.2-0.1,2.7-0.4,3.2-0.6c1.2-0.5,1.3-0.2,0.3,0.7
	c-0.4,0.4-1.3,1.6-2,2.8c-1.5,2.5-2.7,3.8-4.6,4.8C417.7,334.6,411.5,335.9,407.2,335.3L407.2,335.3z M55.9,304.8
	c0-0.6-0.3-0.7-0.8-0.2c-0.2,0.2-0.3,0.3-0.3,0.2c0-0.5,1.3-3.7,3-7.2c4.7-9.9,7.9-20.3,10.5-32.9c1.6-8.2,1.8-10.5,1.8-24.5
	c0-8.1-0.1-14.1-0.4-16.5c-1.9-20.2-5.6-37.1-12.9-58.7c-2.2-6.5-9.6-25.6-11-28.3c-0.8-1.6-8.5-20.6-8.4-20.7s4.9,10.8,7.6,17.2
	c0.7,1.7,2.6,6.1,4.1,9.7c4.8,11.2,6.3,14.9,8.1,20.2C67.4,192,71.5,214,71.5,240c0,11.5-0.8,19.4-2.9,28.6
	c-2.6,11.6-4.9,18.7-9.2,28.4c-1.2,2.6-2.4,5.6-2.7,6.7C56.1,305.5,55.9,305.8,55.9,304.8L55.9,304.8z M459.9,289.5
	c-0.2-0.3-0.2-0.5-0.2-0.5c0.1,0,0.3,0.2,0.4,0.5c0.2,0.3,0.2,0.5,0.2,0.5S460.1,289.8,459.9,289.5z M455.9,283.9
	c-5.2-5.3-12.6-20.2-17.7-35.7c-6.4-19.1-8.5-48.8-5.2-74.4c1.1-8.4,2.7-17.6,4.9-27.5c1.7-7.7,2.5-10.5,5.9-21.6
	c1.3-4.4,2.5-8.2,2.5-8.4c0-0.2,1.1-4,2.5-8.5c3.4-11.1,4.2-13.6,4.3-13.5c0.2,0.2-5.6,20.7-6.2,22.1c-0.5,1.2-4.4,14.8-5.9,20.8
	c-2.7,10.8-5.5,26.1-6.8,37.9c-2.8,24.7-0.8,53.2,4.9,71.1c1.4,4.3,4.4,12.4,6,16c2.6,5.9,6.9,13.8,9.6,17.7
	c1.1,1.7,3.3,5.8,3.1,5.8C457.6,285.6,456.8,284.9,455.9,283.9z M155.3,272.5c-3.4-3.4-4.9-15.9-3.8-30.9c0.2-3.3,0.6-8.9,0.9-12.3
	s0.5-6.4,0.6-6.4c0.1-0.1,0.1,1.8,0,4.1s-0.2,8.2-0.3,13c-0.2,12.4,0.2,17.4,2.4,26.5c0.6,2.5,1.1,5.1,1,5.6l-0.1,1L155.3,272.5
	L155.3,272.5z M352.4,262.9c0-0.7,0.2-2.5,0.4-4c0.6-3.9,1-11.1,0.8-14.3c-0.3-5.9-1.5-17.1-2.1-19.5c-0.4-1.7-1.4-9.2-1.3-9.7
	c0-0.3,0.6,2.1,1.1,5.3s1.5,8.3,2.1,11.4c1.3,7,1.9,11.1,2.1,15.9c0.2,4-0.2,9.3-0.9,11.9c-0.4,1.7-1.7,4.3-2.1,4.3
	C352.5,264.2,352.4,263.7,352.4,262.9L352.4,262.9z M112.8,213.1c-3.8-3-6.7-7.4-11.8-17.7c-3.5-6.9-4.2-8.7-12.5-30.3
	c-6.4-16.6-6.9-17.9-9.9-28.5c-4-14-5.4-17.7-9.4-24.5c-3.6-6.1-6.3-9.2-10.8-12.6c-4.6-3.5-7.9-4.7-13.3-5c-3.6-0.2-5.8,0.3-11,2.3
	c-0.8,0.3-1.4,0.5-1.4,0.4c0-0.2,3.6-2,5.1-2.4c5.1-1.6,12-1.3,16.6,0.7c1.8,0.8,6.7,4.4,8.6,6.4c4.6,4.6,10.6,14.3,13.5,21.8
	c0.6,1.6,2.1,6,3.2,9.7c3.4,10.8,4.2,13.2,10.3,27.3c3.1,7.3,6.2,14.6,6.9,16.2c0.6,1.6,1.3,3,1.5,3.2s0.4,0.5,0.4,0.8
	c0,1.3,6.7,14.9,11,22.4c1.4,2.4,3.1,5.6,3.7,7.1c0.7,1.5,1.4,3.1,1.8,3.6c0.3,0.5,0.5,0.9,0.3,0.9
	C115.4,215.1,114.1,214.2,112.8,213.1L112.8,213.1z M349.9,214.4c0-0.3,0.1-0.4,0.2-0.2s0.1,0.4,0,0.5
	C350,214.9,349.9,214.7,349.9,214.4L349.9,214.4z M149.1,213.7c1.5-2.7,8.3-10.4,12.8-14.5c3.8-3.4,4.6-4.1,10.2-8.6
	c15.4-12.3,17.7-14.2,25.3-21.2c1.2-1.1,3.3-2.8,4.7-3.9c1.4-1,4.1-3.4,6.1-5.3c4.5-4.3,11-9.9,15.2-13.1
	c10.4-8,14.5-13.2,16.7-21.3c0.9-3.4,1-4.2,1-7.5c0-4.4-0.4-6.5-2-9.8c-0.6-1.2-0.9-1.9-0.6-1.6c0.9,1.2,1.8,2.8,2.5,4.9
	c0.7,2,0.8,2.5,0.8,6.3c0,4.3-0.5,7.3-1.5,9.6c-3,6.5-3.7,7.8-6.4,10.9c-1.8,2.1-6.5,6.2-10.3,9.1c-1.7,1.3-3.8,3-4.6,3.7
	s-2.4,2.1-3.6,3c-2.4,2-9.7,8.6-11.7,10.6s-4.5,4.1-5.5,4.6c-0.5,0.2-2.4,1.9-4.4,3.6c-2,1.7-5.2,4.6-7.2,6.3
	c-8.1,6.7-11.6,9.7-16.2,13.6c-5.2,4.4-14.6,13.5-17.7,17.1c-1.1,1.2-2.4,2.8-3,3.4l-1.1,1.1L149.1,213.7z M135.3,207.3
	c-2.1-7.5-1.6-16.8,1.6-29.8c2.2-9.1,7.8-24.9,14.5-41c3.7-8.8,8.7-21.4,11.1-27.9c2.2-5.8,4.4-15,4.8-20c0.2-2.9-0.2-7.3-1.1-10.5
	c-1.8-6.6-7.1-14.9-13-20.4c-2.2-2.1-1.8-2.1,0.7,0c5.3,4.3,11.2,13.7,13.1,20.8c0.8,3,0.9,3.6,0.9,7.8c0,4.2-0.1,4.9-1,9.3
	c-1.1,5.4-2.4,9.7-4.4,15.1c-0.8,2-2.6,7.1-4.1,11.2s-3.8,10.4-5.1,14c-4.1,11-7.6,21.5-7.4,22.2c0.3,1.6,2.5,8.7,2.7,9
	c0.2,0.2,0.4,0.3,0.6,0.2c0.2-0.1,4.1-2.9,8.8-6.2c4.7-3.4,9.1-6.5,9.9-7.1c0.8-0.5,2.9-2.1,4.8-3.5c1.9-1.4,4.9-3.5,6.7-4.8
	c4-2.8,23.5-17.7,31-23.7c6.7-5.4,10.2-8.3,14.9-12.9c2.6-2.5,3.8-3.4,3.9-3.2c0.2,0.3,0.3,0.3,0.8,0c0.3-0.2,0.6-0.3,0.7-0.3
	c0.2,0.2-10.4,9.3-14.9,12.8c-0.9,0.7-3.7,3-6.2,5.2c-9.8,8.4-21.5,17.4-30.7,23.6c-3.9,2.7-8,5.5-9.1,6.2
	c-3,2.2-22.3,15.4-22.5,15.4c-0.1,0,0-0.2,0.2-0.5c0.2-0.4,0.1-1.3-0.5-3.4c-0.4-1.6-0.9-3.3-1-3.9c-0.2-1.1-0.9-1.6-1.3-1
	c-0.5,0.8-3.9,11.5-3.8,12.1c0,0.4-0.1,0.9-0.4,1.3c-0.7,1.1-2.9,11-3.8,17.1c-0.4,2.5-0.8,15.9-0.5,17.7
	C136.6,210.6,136.1,210,135.3,207.3L135.3,207.3z M349.7,202.4c-3.3-2.8-10.4-8.5-14.3-11.4c-2.5-1.9-16.7-11.4-21.4-14.4
	c-1.9-1.2-5.8-3.9-8.7-5.9c-2.9-2-7.3-5-9.8-6.7s-5.9-4-7.5-5.2c-4.3-3.2-13.1-9.1-17-11.4c-6.4-3.7-12.3-8.4-14.7-11.7
	c-2.9-4-5.2-9.1-6.1-13.6c-0.5-2.5-0.4-6.8,0.1-9.1c0.4-1.7,2.2-5.6,2.5-5.6c0.1,0-0.2,0.8-0.7,1.8c-1.7,3.8-2.2,8.7-1.2,13.2
	c0.7,3.3,2.9,8.5,4.6,11.2c2.8,4.2,7.9,8.5,16.2,13.5c4.6,2.8,11.1,7.2,15.8,10.7c2,1.5,6.5,4.7,10,7s7.9,5.3,9.9,6.7s5,3.4,6.7,4.5
	s6.2,3.8,9.9,6.2s7.8,4.9,9,5.7c7.5,4.8,16.1,12.1,20,17C353.6,205.7,353,205.2,349.7,202.4L349.7,202.4z M386.1,202.5
	c0-0.1,0.3-0.8,0.6-1.6c0.4-0.8,0.8-2.2,1.1-3c0.2-0.8,1.3-3.6,2.4-6c4-9.1,9-23.1,9-24.9c0-0.4,0.1-0.9,0.3-1
	c0.2-0.2,0.8-2.1,1.4-4.2c0.6-2.2,2.4-8.2,4-13.4c4.7-15.8,5.2-17.7,7.6-29.4c2.3-11.9,3.3-15.4,5.9-21.4
	c3.4-7.9,6.3-12.4,10.6-16.7c3.3-3.2,5.1-4.5,8-5.6c5.1-1.9,12.1-1.9,16.6,0c1.3,0.6,1,0.5-1.8-0.2c-3.7-0.9-9-0.9-12.2,0.1
	c-4.1,1.3-5.9,2.3-9.6,5.7c-3.8,3.5-6.5,7.4-9.3,13.6c-3.1,7-4.1,10.7-6.2,23.2c-0.8,5.1-1.8,10.7-2.2,12.5
	c-0.6,3.1-7.2,28.3-9.9,38.2c-3.6,13.1-9.3,26.6-12.9,30.5c-0.9,1-2,2.3-2.5,2.9C386.5,202.2,386.1,202.6,386.1,202.5L386.1,202.5z
	 M365,199.1c0-0.3-0.1-1.1-0.1-1.8s-0.1-1.6-0.2-2.1s-0.4-2.8-0.7-5.2c-0.3-2.4-0.8-5.5-1.1-7c-1.3-6-5.4-18.2-6.5-19.4
	c-0.3-0.3-0.5-0.8-0.4-1c0.2-0.4-0.9-3-3.4-8.3c-1.1-2.3-1.5-2.9-1.9-2.9c-0.3,0.1-0.5,0.4-0.6,0.9c0,0.5-0.3,2-0.5,3.4
	s-0.4,2.9-0.3,3.4s0.1,0.8,0,0.8c0,0-0.5-0.3-1.1-0.6c-0.8-0.5-0.9-0.6-0.6-0.7c0.5-0.1,0.5,0.1,1.4-5.6l0.7-4.3l-1.4-3
	c-2.1-4.4-16-32.8-19.3-39.3c-3.6-7.3-5.1-10.6-7-16.5c-2-5.9-2.5-8.9-2.5-13.4c0-5.8,1.2-10.2,4.8-17.4c2.3-4.6,4.5-7.7,7.3-10.3
	c1.3-1.2,2.5-2.2,2.6-2.2s-0.9,1.2-2.2,2.6s-3.2,3.7-4.1,5s-1.9,2.9-2.3,3.4c-0.9,1.1-2.9,5.5-3.9,8.7c-1.5,4.5-1.9,10.7-1.1,15.5
	c0.7,4.2,3.1,11.1,5.7,16.8c1.6,3.5,10.5,20.2,15.8,29.5c5.4,9.6,14.1,26.9,16.5,32.6c6.2,14.9,8.5,25.9,7.4,34.6
	C365.5,198.5,365.1,200.1,365,199.1L365,199.1z M101.4,174.7c0-0.4,2.4-6.4,3.2-7.9c0.4-0.7,2.6-6,4.9-11.7s6-14.7,8.1-19.9
	c9.3-22.9,10.6-26.2,15.7-40.7c3.4-9.6,5.8-17.4,6.3-19.7c0.4-2,2.1-8.3,2.2-7.7c0,0.6-1,5.8-1.6,7.9c-0.3,1-1,4.1-1.7,6.9
	c-1.5,6.7-4.5,17.6-6.6,24.1c-4.8,14.7-9.5,25.7-21.4,50c-2.8,5.8-6,12.4-7,14.7C101.5,174.9,101.4,175.1,101.4,174.7z M393.1,156.4
	c-1.3-2.1-4.1-6.4-6.1-9.5c-19.2-29.3-25.8-41.3-33.9-61.6c-3-7.7-9.6-26.3-9.4-26.8c0-0.1,0.7,1.5,1.5,3.6
	c2.9,7.7,4.9,12.1,11.5,25.5c6.3,12.7,8.5,17,17,32.5c1.7,3.1,4.6,8.5,6.4,11.9c1.8,3.5,4.6,8.5,6,11.2c1.5,2.7,3.2,5.9,3.8,7
	s1.5,2.7,2,3.4c1.1,1.7,3.8,6.7,3.6,6.7C395.6,160.3,394.4,158.5,393.1,156.4L393.1,156.4z M343.2,156.8c-9.9-5.3-22-11.7-28-14.7
	c-7.8-4-20.6-11.6-29.6-17.7c-3-2-9.7-6.5-14.8-9.9c-5.1-3.4-9.6-6.5-9.9-6.7l-0.6-0.5h1.1c0.9,0,1.6,0.4,4.5,2.6
	c1.9,1.4,4.6,3.4,6,4.4c6.4,4.4,33.2,20.6,43.9,26.6c2.3,1.3,7,4,10.4,5.9c3.4,2,9.2,5.3,13,7.3c5.8,3.2,7.1,4,6.7,4
	C345.7,158.1,344.6,157.5,343.2,156.8L343.2,156.8z M110.5,138.3c-0.5-4.9-2.1-12.7-3.8-19.1c-1.5-5.6-2.9-9.9-7.1-22
	c-1.3-3.8-2.3-7.1-2.3-7.4s0.3-0.6,0.7-0.7c0.5-0.2,0.6-0.1,0.5,0.5c-0.1,0.5,0.9,3.2,2.8,7.7c3.4,8.3,4.6,11.6,6.3,18.2
	c2.1,8.1,3.6,19.2,3.4,24.1C110.9,141.7,110.9,141.7,110.5,138.3L110.5,138.3z M382.2,126.5c-0.7-7.5-0.5-15.2,0.8-24
	c0.9-6.5,1.6-9.5,4.2-18.7c1.2-4.3,2.1-8,2-8.2c-0.1-0.3,0-0.4,0.4-0.3s0.5,0.3,0.5,0.9c0,0.4-1,5.3-2.3,10.8
	c-3.6,16.2-4.9,25-5.2,35.4C382.4,127.4,382.4,128.2,382.2,126.5L382.2,126.5z M125.3,98.6c-2.5-3.4-6.4-6-11.2-7.3
	c-2.7-0.8-11.2-2.1-13.6-2.1c-1.2,0-1.4-0.1-1-0.3c0.8-0.5,10.8-0.1,13.3,0.5c5.5,1.2,10.2,4.3,12.6,8.3c0.9,1.5,1.5,2.8,1.3,2.8
	C126.7,100.5,126.1,99.7,125.3,98.6L125.3,98.6z M362.2,88.9c0.4-1.7,2-4.4,3.5-6c3.7-3.9,8-6,14.8-7.2c2.7-0.5,8.9-0.8,6.9-0.4
	c-5.1,1.1-12.8,3.2-14.5,3.9c-4.5,1.9-8.1,5.2-9.8,8.6c-0.5,1.1-1,2-1.1,2S362.1,89.4,362.2,88.9L362.2,88.9z"/>
</svg>
