<?xml version="1.0" encoding="UTF-8" standalone="no"?>
<!-- Created with Inkscape (http://www.inkscape.org/) -->

<svg
   xmlns:dc="http://purl.org/dc/elements/1.1/"
   xmlns:cc="http://creativecommons.org/ns#"
   xmlns:rdf="http://www.w3.org/1999/02/22-rdf-syntax-ns#"
   xmlns:svg="http://www.w3.org/2000/svg"
   xmlns="http://www.w3.org/2000/svg"
   xmlns:sodipodi="http://sodipodi.sourceforge.net/DTD/sodipodi-0.dtd"
   xmlns:inkscape="http://www.inkscape.org/namespaces/inkscape"
   version="1.1"
   id="svg2032"
   width="445.67633"
   height="241.91808"
   viewBox="0 0 445.67633 241.91808"
   sodipodi:docname="gm.svg"
   inkscape:version="0.92.4 (5da689c313, 2019-01-14)">
  <metadata
     id="metadata2038">
    <rdf:RDF>
      <cc:Work
         rdf:about="">
        <dc:format>image/svg+xml</dc:format>
        <dc:type
           rdf:resource="http://purl.org/dc/dcmitype/StillImage" />
        <dc:title></dc:title>
      </cc:Work>
    </rdf:RDF>
  </metadata>
  <defs
     id="defs2036" />
  <sodipodi:namedview
     pagecolor="#ffffff"
     bordercolor="#666666"
     borderopacity="1"
     objecttolerance="10"
     gridtolerance="10"
     guidetolerance="10"
     inkscape:pageopacity="0"
     inkscape:pageshadow="2"
     inkscape:window-width="2736"
     inkscape:window-height="1699"
     id="namedview2034"
     showgrid="false"
     inkscape:zoom="1.7058824"
     inkscape:cx="530.74576"
     inkscape:cy="72.143258"
     inkscape:window-x="-13"
     inkscape:window-y="-13"
     inkscape:window-maximized="1"
     inkscape:current-layer="svg2032" />
  <path
     style="fill:#000000;stroke-width:0.2742857"
     d="m 355.47449,241.82617 c 0,-0.051 0.81386,-1.56299 1.80856,-3.36 2.80449,-5.06647 4.7631,-9.07096 5.75681,-11.77015 1.18906,-3.22974 1.19227,-2.59209 0.005,1.03172 -1.10129,3.3619 -2.76069,6.75207 -5.41273,11.05816 -1.69278,2.74854 -2.15783,3.40378 -2.15783,3.04027 z m 17.68125,-7.03872 c 1.36125,-9.12066 1.62605,-10.3081 3.02655,-13.57325 1.87337,-4.36759 2.81623,-6.14949 4.01316,-7.58425 l 1.06094,-1.27178 -1.30237,-0.18813 c -0.71632,-0.10346 -1.91953,-0.35353 -2.67382,-0.55571 -0.75428,-0.20217 -1.74171,-0.45336 -2.19428,-0.55819 -0.79417,-0.18399 -0.80125,-0.19892 -0.20297,-0.42756 0.34093,-0.13031 2.00722,-0.22357 3.70285,-0.20728 5.46438,0.0525 6.53247,-0.33984 13.47495,-4.95044 3.97366,-2.63899 4.74303,-3.05176 5.41346,-2.90453 0.65546,0.14398 0.83301,0.0586 1.10101,-0.52964 0.29994,-0.65829 0.19499,-0.83194 -1.71211,-2.83241 -2.22312,-2.33198 -3.73734,-4.91485 -4.50556,-7.68541 l -0.47536,-1.71428 h -1.26671 c -0.69669,0 -2.37756,-0.18355 -3.73528,-0.40663 -1.35771,-0.2231 -2.56114,-0.40775 -2.67428,-0.41039 -0.11315,-0.003 -0.20572,0.52822 -0.20572,1.17971 0,1.4005 -0.63623,3.67471 -1.51178,5.40378 -1.00534,1.98539 -5.98313,6.29505 -8.71622,7.54629 -4.46019,2.04194 -9.80975,-0.4052 -15.13034,-6.92133 l -2.2848,-2.79818 -0.19935,3.62104 c -0.33241,6.03807 -1.60515,8.87528 -4.7195,10.5208 -0.91192,0.48184 -2.46374,1.42766 -3.44848,2.10185 -2.0784,1.42292 -4.13429,2.25184 -6.56235,2.64585 -2.22086,0.36041 -6.98932,0.3668 -7.21003,0.01 -0.10796,-0.17467 0.7579,-0.28422 2.38381,-0.30163 2.68329,-0.0287 4.9982,-0.43615 2.82761,-0.49764 -2.65549,-0.0752 -2.46108,-0.39418 0.55414,-0.90909 4.60767,-0.78687 7.73338,-2.57958 9.33252,-5.35263 0.41382,-0.71759 1.41452,-2.13255 2.22374,-3.14436 0.80923,-1.01179 1.71989,-2.26091 2.02371,-2.77583 0.53395,-0.905 2.17119,-5.72739 2.18104,-6.42418 0.003,-0.18835 -0.54295,-1.05235 -1.21248,-1.92 -1.41345,-1.83163 -8.98412,-14.31782 -11.60009,-19.13179 -0.98373,-1.81028 -2.53597,-4.52571 -3.44945,-6.03428 -1.72646,-2.85123 -5.85002,-11.20191 -7.17841,-14.53714 -0.42059,-1.056 -0.936,-2.31429 -1.14534,-2.79618 -0.90972,-2.09404 -4.21204,-11.72942 -4.11137,-11.99594 0.061,-0.16148 0.25558,0.0711 0.43241,0.51678 0.60334,1.52069 4.76577,10.42977 5.90071,12.62962 1.4601,2.83011 6.09814,9.79101 8.7103,13.07268 1.12147,1.40887 3.194,4.22789 4.60564,6.26446 8.59754,12.4037 18.0232,24.52817 21.03711,27.06054 3.77491,3.17181 5.20907,3.49662 7.98358,1.80804 3.57564,-2.17613 4.67256,-3.46772 5.84892,-6.88688 0.79878,-2.32166 0.72326,-2.61109 -0.92525,-3.54597 -2.07094,-1.17446 -4.70918,-4.04494 -5.73764,-6.24274 -1.13483,-2.4251 -1.36847,-5.87693 -0.63451,-9.37443 0.46141,-2.19862 0.46352,-2.37276 0.0326,-2.68786 -0.25344,-0.18531 -0.81609,-1.37052 -1.25031,-2.6338 -0.87549,-2.54696 -2.52828,-6.6675 -3.17968,-7.92716 -0.23191,-0.44848 -0.32594,-0.81937 -0.20892,-0.82417 0.54843,-0.0225 -0.93461,-0.81414 -1.52517,-0.81414 -1.35969,0 -4.77723,-1.93879 -6.56009,-3.72159 -4.60435,-4.60413 -5.91303,-11.91574 -3.47276,-19.40228 l 0.69786,-2.14105 -2.16647,-3.34467 c -1.19158,-1.83958 -2.95386,-4.69709 -3.91622,-6.35001 -0.99327,-1.70606 -2.49529,-3.79565 -3.47422,-4.83336 -0.94845,-1.00542 -1.72446,-1.90211 -1.72446,-1.99266 0,-0.26021 2.23782,-0.003 2.43155,0.28082 0.0958,0.13972 0.73994,1.04977 1.43144,2.02228 0.6915,0.97253 2.76913,4.26767 4.61699,7.32252 1.84784,3.05486 3.44789,5.55429 3.55563,5.55429 0.10776,0 0.68382,-0.50148 1.28017,-1.11442 0.59632,-0.61292 1.48537,-1.36356 1.97565,-1.66807 0.49029,-0.30454 0.89143,-0.6364 0.89143,-0.7375 0,-0.1011 -0.56363,-0.4828 -1.2525,-0.84826 -2.52485,-1.33942 -6.7375,-5.9354 -5.90946,-6.44717 0.14099,-0.0871 0.7104,0.46015 1.26537,1.21616 2.059,2.80493 6.20064,5.32405 9.15549,5.56879 2.30575,0.19099 4.48035,1.30703 7.37757,3.78635 1.24024,1.06135 2.25496,1.80149 2.25496,1.64479 0,-0.46094 -0.88353,-2.26848 -1.73316,-3.54567 -1.75397,-2.63662 0.33181,-1.09944 2.63112,1.93912 0.82771,1.0938 1.83815,2.83672 2.24541,3.87316 0.831,2.11483 1.28588,5.58761 0.96526,7.36951 -0.11569,0.6429 -0.22261,2.75657 -0.23764,4.69706 -0.0443,5.72248 -0.53716,9.12016 -2.59159,17.86615 -1.97494,8.4076 -2.1736,9.60225 -2.05346,12.34881 0.12795,2.92564 0.81825,4.61532 2.8131,6.88569 2.75846,3.13945 5.52875,4.20886 11.45121,4.42061 l 4.02739,0.14397 0.44289,-1.61384 c 0.24356,-0.88759 0.67663,-2.35438 0.96236,-3.25953 0.28572,-0.90514 1.19909,-4.24325 2.02974,-7.41805 0.83065,-3.17478 2.00522,-7.30964 2.61018,-9.18858 2.79171,-8.6705 3.35073,-12.68094 3.34555,-24.00109 -0.006,-13.14092 -1.02662,-18.53168 -5.08657,-26.8667 -1.99093,-4.08741 -3.46209,-6.16792 -6.16298,-8.71581 -2.59003,-2.44328 -4.38989,-3.73506 -9.07041,-6.5099 -8.41597,-4.989372 -16.6771,-9.208572 -19.63842,-10.029942 -0.89335,-0.24779 -3.0511,-0.513 -4.79501,-0.58933 -2.92822,-0.12818 -3.30122,-0.0861 -4.87647,0.55019 -3.39313,1.37055 -4.59662,2.33354 -9.88751,7.91174 -2.80789,2.960392 -5.14647,5.346622 -5.19683,5.302742 -0.17319,-0.15094 1.94893,-3.283232 3.81035,-5.624172 2.84475,-3.57765 5.79675,-6.25366 8.37833,-7.59506 3.97286,-2.06435 6.75324,-2.41884 11.57666,-1.47596 l 2.5538,0.4992 1.69763,-1.77981 c 1.54665,-1.62149 4.69388,-4.17232 5.14785,-4.17232 0.10239,0 0.91085,-0.43719 1.79655,-0.9715 4.5773,-2.7614 11.28573,-2.91335 16.35324,-0.37045 3.40745,1.70987 5.56726,3.11155 7.73573,5.02031 1.21498,1.06947 2.40299,2.09595 2.64006,2.2811 0.34966,0.27302 0.88161,0.18333 2.81768,-0.47518 4.35791,-1.48224 8.17706,-1.7619 11.22114,-0.82167 2.60854,0.80568 4.91024,2.74343 9.61155,8.09167 7.73052,8.794262 14.91513,20.868292 18.97374,31.886072 2.34034,6.35325 2.70251,8.0422 2.53964,11.84344 -0.11537,2.69261 -0.37136,4.08749 -1.68971,9.20763 -0.85457,3.31886 -2.15495,8.81143 -2.88974,12.20572 -1.40895,6.50847 -2.80674,10.83286 -5.76548,17.83683 -2.58449,6.11802 -4.53831,8.58322 -10.4289,13.15855 -4.02961,3.12985 -4.30145,3.28789 -5.6734,3.29818 -1.01171,0.008 -1.08774,0.0779 -2.28088,2.10873 -1.52961,2.60361 -4.21813,5.51836 -5.83472,6.32572 -2.16093,1.07923 -6.14103,0.68837 -9.33718,-0.91697 -0.75187,-0.37766 -1.45176,-0.65162 -1.55533,-0.60883 -0.10355,0.0428 -0.92884,0.94179 -1.83399,1.99779 -1.33462,1.55704 -2.38165,2.38066 -5.53857,4.35686 -4.19687,2.62717 -6.63371,3.67381 -9.22593,3.96264 l -1.64571,0.18336 -1.02303,1.92 c -0.56264,1.056 -1.64185,3.79019 -2.39822,6.076 -0.75637,2.28582 -1.63502,4.75439 -1.95256,5.48571 -0.31751,0.73133 -0.74065,1.82343 -0.9403,2.42686 -1.004,3.03469 -2.59911,7.01494 -2.47321,6.17143 z m 36.88383,-33.04224 c 1.72082,-0.88987 4.02654,-4.26142 7.79076,-11.39205 5.097,-9.65538 12.41269,-31.79517 14.31132,-43.31098 0.99283,-6.02177 0.23051,-11.18923 -2.45184,-16.62045 -2.28595,-4.62854 -4.14363,-7.09294 -14.85896,-19.71182 -0.91971,-1.0831 -3.2456,-4.04977 -5.16861,-6.59262 -6.16499,-8.152102 -8.4994,-10.921012 -12.2787,-14.564132 -5.26912,-5.07928 -9.06317,-7.24624 -13.79564,-7.87946 -3.56116,-0.47649 -7.62726,0.37637 -10.05367,2.10874 -0.5043,0.36002 -2.08946,1.46803 -3.5226,2.46226 -1.43314,0.9942 -2.96536,2.10437 -3.40493,2.46703 l -0.79918,0.65939 0.93633,0.3948 c 5.8902,2.48347 17.01106,7.96444 21.17614,10.436712 2.60336,1.54527 6.8532,4.927 8.51597,6.7764 3.47205,3.86177 6.68958,10.74122 8.08951,17.29645 0.97402,4.56083 1.26103,8.4923 1.24959,17.11768 -0.0165,12.36595 -0.5585,16.01096 -3.82741,25.73477 -2.37397,7.06163 -4.8184,14.86733 -4.92848,15.73786 -0.11116,0.87928 -0.67531,2.53805 -1.25661,3.69482 -0.33748,0.67159 -0.40441,1.04138 -0.20075,1.10927 0.17203,0.0574 0.22917,0.34222 0.13081,0.65214 -0.17047,0.53713 -1.53397,1.20828 -2.45475,1.20828 -0.64065,0 -0.57998,0.43458 0.32547,2.33143 1.67139,3.50145 4.34233,6.32613 7.95892,8.41692 2.96571,1.71454 6.7708,2.36972 8.51731,1.46656 z m -5.00859,-5.70062 c -1.02646,-1.37445 -1.36285,-2.7769 -1.22573,-5.1103 0.10061,-1.71239 0.32168,-2.51334 1.22447,-4.436 1.27902,-2.72393 2.14735,-3.55084 3.72866,-3.55084 1.12016,0 9.60659,2.05357 10.35039,2.50464 0.58341,0.35377 -1.1639,0.0484 -4.98722,-0.87157 -4.76753,-1.1472 -5.57969,-1.23292 -6.42608,-0.67834 -0.43375,0.28419 -1.15384,1.40281 -1.8299,2.84264 -1.49984,3.19431 -1.68658,5.59721 -0.64813,8.33977 0.38556,1.01828 0.65112,1.85143 0.59015,1.85143 -0.061,0 -0.41047,-0.40115 -0.77661,-0.89143 z m 23.02294,-13.96178 c 2.30839,-2.37534 5.62486,-7.15345 7.30069,-10.51822 1.66261,-3.33828 2.42257,-5.56301 4.07053,-11.91637 0.8826,-3.40257 2.22098,-8.39509 2.97422,-11.09447 2.63644,-9.44824 2.54373,-11.40683 -0.90723,-19.16599 -3.61467,-8.12725 -12.986,-24.08182 -17.64896,-30.047212 -1.02394,-1.3099 -2.5821,-3.33199 -3.46256,-4.49351 -2.04379,-2.69607 -4.23722,-4.76906 -5.75792,-5.44175 -1.57056,-0.69474 -4.81366,-1.13974 -6.8855,-0.94477 -2.54466,0.23942 -6.45699,0.99672 -6.45699,1.24986 0,0.12444 0.43178,0.55562 0.95951,0.95814 1.05161,0.80209 6.97928,7.24679 10.45292,11.364642 12.55101,14.87868 18.50603,24.08163 20.36486,31.47215 0.42657,1.69596 0.84318,3.01596 0.9258,2.93334 0.37662,-0.37662 0.82483,4.86764 0.66108,7.73472 -0.48291,8.45508 -4.41929,23.31226 -9.80558,37.00924 -1.19037,3.02704 -2.1643,5.60039 -2.1643,5.71855 0,0.3303 2.90158,-2.26864 5.37943,-4.81835 z m -0.44229,-6.10099 c 0.43499,-0.26685 1.28747,-0.40997 2.33143,-0.39143 l 1.64571,0.0292 -1.78285,0.1993 c -0.98057,0.1096 -2.02972,0.28575 -2.33143,0.39143 -0.36093,0.12642 -0.31403,0.0483 0.13714,-0.22851 z m -50.79442,-14.5658 c 1.92636,-7.63853 2.4946,-13.13777 2.00571,-19.41024 -0.16185,-2.07678 -0.55466,-4.88498 -0.87288,-6.24044 -0.53415,-2.27509 -0.66644,-2.5358 -1.72137,-3.3922 -2.13668,-1.73456 -5.72944,-4.03702 -6.16767,-3.95262 -0.29705,0.0572 -0.55367,0.65365 -0.80264,1.86549 -1.7704,8.61765 -1.68996,13.29905 0.27146,15.79258 0.31985,0.40663 1.51568,1.35382 2.65739,2.10487 1.14172,0.75105 1.82899,1.29855 1.52728,1.21668 -0.30172,-0.0819 -0.98057,-0.22752 -1.50857,-0.32366 -2.75194,-0.50098 -4.10469,-1.64659 -4.99913,-4.2336 -0.53311,-1.54187 -0.62156,-2.34204 -0.60884,-5.50686 0.017,-4.19773 0.40586,-6.09565 1.89606,-9.25108 0.65431,-1.38553 0.84142,-2.04113 0.62134,-2.17715 -0.65118,-0.40246 -3.62943,-0.16553 -4.88133,0.38834 -3.09611,1.36975 -4.52316,4.79303 -4.48781,10.7656 0.0176,2.98892 0.11669,3.70994 0.7722,5.62286 1.6368,4.77652 3.30361,6.69518 7.98465,9.19118 1.20686,0.6435 2.50286,1.33733 2.88,1.54184 0.37714,0.20448 1.056,0.51579 1.50857,0.69177 l 0.82286,0.31996 -0.82286,0.19803 c -0.45257,0.10892 -1.224,0.21263 -1.71428,0.23048 -0.51594,0.0189 -0.88938,0.17689 -0.88658,0.37531 0.003,0.18857 0.74716,1.37453 1.65441,2.63547 0.90723,1.26095 2.04145,3.20407 2.52047,4.31808 0.47904,1.11402 0.95509,1.93375 1.05789,1.82167 0.1028,-0.1121 0.68497,-2.17865 1.29367,-4.59236 z m -37.69163,66.65143 c 0,-2.112 0.0435,-2.93974 0.0957,-1.83942 0.0522,1.1003 0.0518,2.8283 0,3.84 -0.0526,1.01168 -0.0953,0.11142 -0.0949,-2.00058 z M 162.2402,224.33573 c -1.65943,-0.14029 -6.84343,-0.73953 -11.52,-1.33165 -10.77641,-1.36444 -13.02168,-1.55444 -24.41143,-2.06587 -5.12914,-0.23032 -10.51194,-0.54533 -11.96182,-0.70003 -7.04154,-0.75138 -13.76099,-3.85136 -17.980824,-8.29536 -2.10964,-2.22174 -4.92735,-6.59232 -6.30627,-9.78171 -0.94651,-2.18927 -1.73491,-6.25032 -1.73804,-8.95264 -0.003,-1.17608 0.42262,-3.23369 1.24619,-6.0478 0.16721,-0.57131 0.0896,-0.58939 -2.94383,-0.68572 -2.86455,-0.091 -3.26304,-0.17156 -4.94674,-1.00043 -2.21247,-1.08921 -3.59863,-2.58251 -5.09165,-5.48516 -2.36917,-4.60608 -3.60965,-10.53227 -3.07965,-14.71247 0.39525,-3.11739 1.21964,-5.02047 2.82649,-6.52482 l 1.38059,-1.29249 -0.79938,-0.30295 c -2.86796,-1.08691 -6.61635,-3.59292 -7.90892,-5.28757 -1.00836,-1.322 -2.52724,-4.53668 -3.01325,-6.37736 -0.23668,-0.89647 -0.57915,-3.25522 -0.761,-5.24163 -0.39593,-4.32463 -0.0831,-7.40187 1.0196,-10.02898 0.39689,-0.94565 0.85533,-2.04167 1.0187,-2.4356 0.24768,-0.59718 0.19638,-0.85764 -0.30871,-1.56697 -0.59583,-0.83673 -0.64279,-0.85039 -2.85721,-0.83023 -4.02053,0.0366 -12.46587,-0.9845 -29.54285,-3.57189 -9.07576,-1.3751 -10.33337,-1.48391 -17.96571,-1.55473 -6.43064,-0.0597 -7.6765702,-0.14173 -9.4628602,-0.62337 -2.08331,-0.56171 -4.71152,-1.66047 -5.51213,-2.30441 -2.11911996,-1.70441 -2.16506996,-8.6343 -0.0996,-15.02343 1.10498,-3.418042 1.97771,-4.885252 3.97133,-6.676552 3.554,-3.19332 6.8470402,-4.02772 20.7032702,-5.24596 9.4497,-0.83081 27.50213,-1.06113 48.68571,-0.62115 12.52926,0.26022 14.88626,0.36132 24.13715,1.03535 11.001734,0.80157 11.165154,0.81386 14.400004,1.08244 1.65942,0.13777 4.00457,0.32396 5.21142,0.41373 3.71529,0.27637 10.93369,0.95468 11.65715,1.09542 0.37714,0.0733 1.11771,0.15009 1.64571,0.17052 1.66793,0.0646 10.93624,1.5911 13.25549,2.18326 4.12015,1.05197 7.57945,2.47063 10.31092,4.2285 0.54018,0.347652 1.96959,0.823812 3.17645,1.058142 3.17063,0.61558 7.4047,2.82887 11.73987,6.13684 3.86367,2.94821 3.76108,2.86823 9.9451,7.75359 2.387,1.88571 5.78828,4.47771 7.55841,5.76 6.60354,4.78357 18.49805,13.89786 21.45606,16.44093 3.18953,2.74209 4.96045,4.85017 7.09533,8.44608 2.73013,4.59854 3.33704,6.12546 4.35088,10.94606 l 0.3543,1.68447 0.97859,-0.34105 c 1.42667,-0.49725 5.56938,-0.93177 10.5786,-1.10965 2.41372,-0.0857 5.19086,-0.21199 6.17143,-0.28062 1.59437,-0.11163 -0.39972,0.29988 -10.28571,2.12264 -1.056,0.19469 -3.16512,0.33669 -4.68694,0.31554 l -2.76694,-0.0384 -0.30537,1.95843 c -0.28361,1.81895 -1.69686,6.85662 -1.87389,6.67963 -0.0432,-0.0432 0.0965,-1.06146 0.31058,-2.26275 0.7977,-4.47739 0.3919,-8.5824 -1.12375,-11.36714 -1.88097,-3.45597 -7.44445,-8.64439 -14.25216,-13.29137 -2.85927,-1.95173 -5.63068,-3.87552 -6.15868,-4.27507 -0.528,-0.39955 -2.13257,-1.57305 -3.56571,-2.60777 -1.43314,-1.03472 -3.29716,-2.38179 -4.14226,-2.99347 -0.84511,-0.61171 -2.56633,-1.85275 -3.82495,-2.75789 -4.18505,-3.00974 -6.95621,-5.10248 -9.44993,-7.13642 -12.31853,-10.04728 -14.39515,-11.601 -17.25581,-12.91063 -3.05272,-1.39759 -3.76597,-1.4042 -16.61848,-0.15412 -6.41143,0.62362 -13.75543,1.26525 -16.32,1.4259 -5.37046,0.33639 -17.82983,0.42202 -21.25714,0.14611 -2.25614,-0.18163 -12.860774,-1.08502 -16.423494,-1.39907 -1.72561,-0.15212 -1.74657,-0.14573 -1.55325,0.47415 0.10776,0.3456 0.26169,1.99746 0.34206,3.6708 0.1274,2.65316 0.0668,3.29365 -0.4735,5.00571 -0.65247,2.06735 -0.97794,2.57275 -0.69027,1.07186 0.12979,-0.67716 0.10256,-0.78273 -0.11339,-0.43925 -0.92437,1.47031 -9.31677,1.60485 -13.381,0.21452 -2.85295,-0.97596 -5.79892,-3.42415 -5.39306,-4.4818 0.0921,-0.23997 0.26057,-0.43633 0.37437,-0.43633 0.11383,0 1.1189,0.59473 2.23351,1.32162 2.30433,1.50275 2.96083,1.79023 5.45516,2.3887 1.95774,0.46974 9.08969,0.86581 10.26745,0.57021 l 0.74065,-0.18591 -0.0869,-4.49376 c -0.0478,-2.47156 -0.16918,-4.57572 -0.26976,-4.67589 -0.10058,-0.10017 -3.24126,-0.17022 -6.97934,-0.15568 -4.31128,0.0167 -7.13348,-0.0848 -7.71815,-0.27774 -0.81671,-0.26954 -1.04421,-0.22311 -1.99765,0.40783 -0.59177,0.39163 -1.17844,0.71205 -1.30368,0.71205 -0.12527,0 -0.46733,0.1943 -0.76018,0.43178 -0.29283,0.23745 -0.38518,0.35797 -0.20525,0.26778 0.17996,-0.0902 0.0299,0.36793 -0.33348,1.01807 -0.36337,0.65014 -0.85415,1.93725 -1.09059,2.86025 -0.38575,1.50569 -0.38764,1.881 -0.0186,3.65124 0.53168,2.54998 1.93539,5.57965 3.03075,6.54141 0.47462,0.41669 0.81392,0.90462 0.75404,1.08431 -0.15909,0.47723 2.86497,3.39691 4.84164,4.67448 2.28608,1.47758 4.92021,2.44748 7.57574,2.78946 3.20346,0.41253 10.74193,0.26718 16.86756,-0.32522 7.721144,-0.74671 22.356014,-0.82755 26.192614,-0.14469 5.11779,0.91091 8.59798,1.93336 11.38124,3.34374 0.74605,0.37808 1.47088,0.68739 1.61074,0.68739 0.15363,0 0.14732,-0.4613 -0.0159,-1.16572 -0.28468,-1.22819 -0.0965,-4.64793 0.29417,-5.34602 0.16153,-0.28863 0.27769,-0.0544 0.39056,0.78759 0.19595,1.46186 0.93142,5.87956 1.1351,6.81825 0.0815,0.37549 0.3964,1.01847 0.69984,1.42889 0.30344,0.41044 0.5517,0.82135 0.5517,0.91315 0,0.37347 -1.73538,-1.10175 -2.20556,-1.87491 -0.42646,-0.70124 -0.83448,-0.91386 -2.60788,-1.35895 -1.58134,-0.39689 -2.18005,-0.44963 -2.41588,-0.2129 -0.20179,0.20256 -0.30256,1.40923 -0.28276,3.38554 0.0339,3.38364 0.42361,4.93366 1.77797,7.07193 1.11818,1.76547 0.9913,1.9166 -0.29861,0.35564 -0.60255,-0.72919 -1.2754,-1.88434 -1.49522,-2.56701 -0.58979,-1.8319 -0.818,-5.43154 -0.4524,-7.13631 0.17145,-0.79943 0.24998,-1.51524 0.17453,-1.59069 -0.61158,-0.61158 -8.90683,-0.82947 -13.19361,-0.34654 -2.20666,0.24859 -9.59092,0.86609 -20.280584,1.696 -5.14264,0.39925 -15.14512,0.15829 -18.51428,-0.44602 -3.57847,-0.64183 -6.91148,-2.20334 -9.7897,-4.58644 -1.23577,-1.02317 -2.32304,-1.98361 -2.41618,-2.13433 -0.36538,-0.59119 -0.685,-0.20377 -1.18821,1.44028 -0.76921,2.51308 -0.93597,4.88415 -0.59322,8.43431 0.71673,7.42365 2.4458,10.9257 6.82738,13.82814 2.87097,1.90182 6.9072,3.41025 10.99993,4.11099 8.69238,1.48825 26.339304,1.36765 39.360004,-0.26896 5.5008,-0.69142 21.76827,-3.27845 21.98633,-3.49654 0.0691,-0.0691 -0.20665,-0.91044 -0.61279,-1.86964 -0.8979,-2.12059 -4.77065,-13.77057 -4.62656,-13.91753 0.13996,-0.14277 2.12851,4.16357 3.44566,7.46189 2.86636,7.17764 5.11027,11.10072 8.91299,15.58285 6.55524,7.72644 12.03297,11.07067 21.0709,12.86403 1.51834,0.30128 3.62461,0.84708 4.68061,1.21292 1.056,0.36584 2.63023,0.80473 3.49829,0.97533 0.86809,0.17058 2.32751,0.61459 3.24321,0.98666 1.05408,0.42833 2.78952,0.80256 4.73028,1.0201 l 3.06536,0.3436 -1.78286,0.51244 c -0.98057,0.28186 -1.98816,0.50129 -2.23907,0.48763 -0.25092,-0.0137 -1.42349,0.34741 -2.60572,0.8024 -3.78314,1.45596 -4.5501,1.62357 -8.18378,1.78872 -4.25894,0.19354 -5.81299,-0.12499 -9.46606,-1.94019 -6.2089,-3.08519 -11.83159,-8.06674 -15.83271,-14.02735 -1.73568,-2.58572 -1.88489,-2.62944 -2.07102,-0.60672 -0.14625,1.58932 -0.0811,1.87183 0.89017,3.85755 1.1085,2.26634 1.21522,3.44871 0.2573,2.85049 -0.28629,-0.17878 -0.52053,-0.53763 -0.52053,-0.79738 0,-0.25977 -0.256,-1.15652 -0.5689,-1.99279 l -0.56887,-1.5205 -1.6009,1.60089 c -0.88048,0.88049 -2.3216,1.9612 -3.20253,2.40162 -0.88092,0.44042 -1.65594,0.83446 -1.72227,0.87563 -0.0663,0.0412 0.44961,0.65834 1.14657,1.37143 2.5787,2.63849 4.3699,7.14621 3.81716,9.60631 -0.27478,1.2229 -3.16946,4.89641 -5.43829,6.90144 -1.25525,1.10932 -9.57288,7.14854 -13.11912,9.52547 -2.41593,1.6193 -12.36526,7.20014 -13.68055,7.67372 -0.62197,0.22396 -2.02346,0.4495 -3.11437,0.5012 -1.09092,0.0517 -2.35606,0.17585 -2.81143,0.27585 -1.09542,0.24061 -1.0444,0.0802 0.24595,-0.77378 0.59065,-0.39086 1.85579,-1.40906 2.81143,-2.26264 1.43218,-1.27924 3.15952,-2.2619 9.82897,-5.59148 11.11727,-5.55009 17.70257,-9.56706 21.09737,-12.86924 2.42491,-2.35875 2.89023,-3.25234 2.87375,-5.51887 -0.0107,-1.45342 -0.19474,-2.17328 -0.99678,-3.89566 -1.06201,-2.28063 -2.1916,-3.92623 -2.98744,-4.35217 -0.55971,-0.29955 -7.70449,2.0284 -14.73989,4.80263 -12.05843,4.75496 -21.95493,7.2144 -34.595584,8.59757 l -4.52571,0.4952 -0.36047,1.35908 c -0.52427,1.97667 -0.48601,6.75157 0.0711,8.86988 0.7616,2.89588 1.87564,4.96081 4.82649,8.94632 3.14167,4.24318 5.759454,6.35679 10.420864,8.4138 4.49579,1.98391 8.33949,2.66222 17.54487,3.09611 12.93748,0.60985 19.74353,1.12271 25.92,1.95313 3.93411,0.52896 4.45342,0.59205 7.54286,0.91653 9.15311,0.96129 19.46403,0.87725 25.64572,-0.20901 6.70096,-1.17751 7.46605,-1.82507 16.09404,-13.62199 3.44815,-4.71461 5.77473,-7.81714 5.86206,-7.81714 0.0503,0 -0.68385,1.63543 -1.63134,3.63429 -0.94752,1.99885 -1.88303,4.128 -2.07895,4.73143 -0.19589,0.60342 -0.81872,2.02285 -1.38402,3.15428 l -1.02786,2.05714 6.41681,-0.0941 6.41678,-0.0941 3.90624,1.02972 c 2.14842,0.56638 5.29102,1.62394 6.9835,2.35014 1.69251,0.72622 4.34622,1.64607 5.89714,2.04414 2.9632,0.76054 3.84801,1.13258 1.99702,0.8397 -3.78267,-0.59855 -8.42679,-1.03395 -9.6,-0.90002 -0.75428,0.0861 -3.65485,0.0462 -6.44571,-0.0887 -5.05701,-0.24439 -5.0883,-0.24982 -9.18857,-1.5984 -2.26286,-0.74425 -4.74259,-1.60806 -5.51054,-1.91954 l -1.39625,-0.56637 -1.47097,2.05679 c -2.34407,3.27763 -5.41681,6.20711 -7.58976,7.23593 -3.48573,1.65038 -5.78808,1.96539 -15.02677,2.05602 -4.52571,0.0444 -9.58628,-0.0341 -11.24571,-0.17437 z M 98.605916,182.12311 c 11.172294,-1.28838 19.770184,-3.1262 28.251434,-6.03881 6.29444,-2.16165 8.38584,-2.84372 13.41089,-4.37382 5.26069,-1.60183 6.84395,-2.32207 8.53901,-3.88452 1.36413,-1.25743 1.558,-1.86939 1.75025,-5.52485 0.0244,-0.46223 0.0614,-0.46286 0.748,-0.0129 0.63004,0.4128 0.54813,0.1943 -0.64018,-1.70795 -0.74946,-1.19975 -1.89235,-3.20303 -2.53981,-4.45174 -0.87834,-1.6941 -1.29021,-2.23614 -1.62264,-2.13542 -1.61585,0.48951 -15.74803,3.21742 -20.62574,3.98136 -3.0774,0.48198 -9.01714,1.08373 -12.45978,1.26229 -1.81029,0.0939 -5.08115,0.27031 -7.26858,0.39198 -9.124714,0.5076 -20.938914,-0.067 -25.234284,-1.22723 -0.82972,-0.22412 -1.64325,-0.40896 -1.80785,-0.41075 -0.42514,-0.005 -1.62753,2.31871 -2.16641,4.18607 -1.0783,3.73654 -0.16979,9.98348 2.16137,14.86204 1.61768,3.38537 3.42552,5.11529 5.92717,5.67162 1.48249,0.32969 8.11184,0.0429 13.57715,-0.58733 z m 34.403304,-17.86366 c -0.33896,-0.63335 -0.17667,-2.24982 0.33967,-3.38309 0.50318,-1.1043 0.79497,-0.80456 0.32103,0.32975 -0.28677,0.68634 -0.37693,1.45571 -0.27322,2.33142 0.17055,1.44014 0.0836,1.60216 -0.38748,0.72192 z M 63.573406,118.42173 c -0.95493,-3.67241 -0.94761,-5.73164 0.0272,-7.61908 0.90857,-1.75952 1.60589,-2.4322 3.41985,-3.29914 1.47675,-0.70576 1.54151,-0.77337 0.82286,-0.85884 -0.69323,-0.0824 -0.60116,-0.16188 0.82675,-0.71369 0.88377,-0.34151 2.11806,-0.97059 2.74285,-1.39795 1.87738,-1.2841 2.65871,-1.59522 5.66518,-2.25578 2.52766,-0.55538 3.64172,-0.63344 9.18512,-0.64378 3.46971,-0.007 7.296,0.0757 8.50286,0.18259 1.20685,0.10689 4.416,0.4057 7.131434,0.66405 7.68211,0.73081 20.31406,0.65793 31.09862,-0.17941 1.90376,-0.14781 4.32538,-0.33268 5.38138,-0.4108 1.056,-0.0781 2.47542,-0.19814 3.15428,-0.26671 0.67886,-0.0686 2.16,-0.19151 3.29143,-0.27317 5.26656,-0.38013 8.58029,-0.6743 8.67621,-0.77022 0.0577,-0.0577 -1.16111,-0.44722 -2.70849,-0.865562 -1.54739,-0.41834 -3.88208,-1.04868 -5.1882,-1.40072 -3.41058,-0.91924 -18.77354,-2.82452 -25.32809,-3.1411 -11.56855,-0.55874 -34.120984,-1.4177 -42.788574,-1.62966 -27.9509,-0.68363 -61.45326,0.68239 -66.86663,2.7264 -2.2149102,0.83632 -4.5746902,3.07707 -5.7820402,5.490432 -1.26115,2.5209 -1.90191,6.126 -1.77732,9.99988 0.0867,2.69656 0.14797,2.98346 0.73896,3.46159 1.43022,1.15705 5.67768,1.83086 15.5384602,2.46498 2.71542,0.17464 5.184,0.37309 5.48571,0.44103 0.30171,0.0679 4.25143,0.22664 8.77714,0.35265 8.26602,0.23018 16.65515,1.04286 25.37143,2.45784 1.73486,0.28164 3.66051,0.52507 4.27921,0.54098 l 1.12493,0.0289 -0.80237,-3.08572 z m -37.94753,-1.73787 c 0.52689,-1.31518 1.55878,-5.04187 1.83459,-6.62568 0.43122,-2.47625 0.61784,-1.92685 0.28097,0.82717 -0.27461,2.24503 -1.44534,5.77931 -2.03514,6.14383 -0.19059,0.11778 -0.21829,0 -0.0804,-0.34532 z m 37.32361,-11.63356 c 0.0709,-0.37714 0.14038,-1.30285 0.15434,-2.05714 0.0228,-1.23582 0.0523,-1.29795 0.29713,-0.62836 0.19922,0.54473 0.15802,1.09377 -0.15434,2.05714 -0.23435,0.72274 -0.36806,1.00551 -0.29713,0.62836 z M 286.28309,215.58745 c 0.49391,-0.84404 1.40473,-2.47025 4.19191,-7.48438 0.40142,-0.72214 1.49102,-2.38843 2.42137,-3.70286 2.74217,-3.87426 4.10235,-5.86906 4.99614,-7.32705 0.82511,-1.34597 0.83731,-1.3536 0.65705,-0.41143 -0.39017,2.03951 -4.8353,10.35187 -6.729,12.58324 -0.46392,0.54665 -1.83118,2.22819 -3.03834,3.73676 -2.58759,3.23369 -3.30325,3.97989 -2.49913,2.60572 z m -56.57658,-15.87023 c -4.07948,-1.83577 -8.67755,-4.3643 -10.00345,-5.50099 -0.67414,-0.57798 -0.6672,-0.57759 0.41143,0.0225 0.60343,0.33564 4.05943,2.12508 7.68,3.97654 3.62057,1.85145 6.45943,3.36422 6.30857,3.3617 -0.15086,-0.003 -2.12931,-0.83937 -4.39655,-1.85963 z m 139.83579,-5.04817 c -1.12534,-1.18418 -5.56495,-8.96158 -5.56495,-9.74883 0,-0.29255 2.43977,-3.38033 3.79855,-4.80743 1.24548,-1.30813 2.75879,-2.10844 3.9391,-2.08315 l 0.90235,0.0192 -1.07227,0.39289 c -1.57029,0.57534 -2.61913,1.46984 -4.96364,4.23321 l -2.09713,2.47184 1.29512,2.39742 c 2.34671,4.34395 3.47325,6.22738 4.18025,6.98885 0.38373,0.41327 0.63651,0.81258 0.56177,0.88732 -0.0747,0.0747 -0.51536,-0.2634 -0.97915,-0.75143 z m -72.34415,-0.55291 c -0.28067,-0.48562 -1.21878,-2.0185 -2.08465,-3.40633 -2.4531,-3.93185 -2.5898,-4.50423 -2.57469,-10.77951 0.0151,-6.25846 0.38293,-8.72848 2.22607,-14.94857 3.09674,-10.45061 7.85684,-24.44478 11.2424,-33.05143 2.13858,-5.43659 7.44524,-16.28936 9.45526,-19.33714 2.22542,-3.37437 5.65703,-6.6553 8.3884,-8.02006 4.19125,-2.09417 7.38736,-2.24303 10.84353,-0.50496 3.71125,1.86632 5.55307,2.8899 5.63333,3.1307 0.11216,0.33641 -2.85145,-0.16029 -3.76018,-0.63023 -0.4091,-0.21156 -1.74734,-0.58798 -2.97389,-0.83652 -2.64211,-0.53535 -4.16171,-0.31891 -6.92015,0.98562 -3.87908,1.83451 -7.36528,5.0558 -9.92077,9.16688 -2.21832,3.56865 -6.61394,12.62946 -8.67377,17.87945 -3.38638,8.63098 -9.45326,26.35329 -11.67544,34.10589 -1.73664,6.05867 -2.18166,13.94337 -1.05997,18.78037 0.69073,2.97866 1.47755,5.65695 2.08726,7.10496 0.56368,1.33882 0.44176,1.52788 -0.23274,0.36088 z m -135.64366,-4.30225 c 0,-0.17033 0.58628,-0.89058 1.30286,-1.60057 2.05514,-2.03619 7.82773,-4.65227 11.58857,-5.2518 1.67484,-0.26699 10.09769,-0.36489 8.91428,-0.1036 -0.30171,0.0666 -1.536,0.3722 -2.74285,0.6791 -1.20686,0.30687 -2.44115,0.59789 -2.74286,0.64669 -0.30172,0.0488 -2.832,0.72474 -5.62286,1.50212 -4.65235,1.29586 -7.32247,2.35214 -9.77055,3.86513 -0.53316,0.3295 -0.92659,0.44116 -0.92659,0.26293 z m -26.13545,-5.87594 c -0.88057,-0.81609 -1.38962,-2.63254 -1.22318,-4.36466 0.19809,-2.06164 0.61229,-2.04277 0.64282,0.0293 0.0266,1.80268 0.4306,3.0924 1.37011,4.37343 0.59695,0.81397 0.10398,0.79021 -0.78975,-0.0381 z m 251.59554,-0.70113 c -0.54764,-0.28968 -1.25728,-1.02364 -1.64572,-1.70217 -0.64377,-1.12451 -0.68215,-1.42096 -0.66884,-5.17006 0.0206,-5.78535 0.54621,-6.58689 4.69774,-7.1624 1.45753,-0.20204 2.89273,-0.21254 4.47673,-0.0328 l 2.33143,0.2646 -3.18542,0.0367 c -4.07835,0.047 -5.93883,0.3965 -6.8256,1.28225 -0.65974,0.659 -0.68955,0.8397 -0.77563,4.69981 -0.10908,4.89262 0.17958,5.91758 2.07421,7.36421 1.34252,1.02509 1.08773,1.24844 -0.4789,0.4198 z m -158.80866,-8.09053 c 1.28228,-0.20393 4.64996,-0.82439 7.48372,-1.3788 2.83378,-0.55442 5.29802,-0.95945 5.47614,-0.9001 0.5012,0.16707 -11.20784,2.37372 -13.37129,2.51992 l -1.92,0.12974 z m 13.93714,-2.53478 c 0.19801,-0.0792 0.43458,-0.0695 0.52572,0.0217 0.0911,0.0911 -0.0709,0.15598 -0.36,0.14408 -0.31954,-0.0132 -0.38452,-0.0782 -0.16572,-0.16572 z m 122.09371,-47.77698 c -0.67069,-0.43296 -1.65142,-1.25299 -2.17942,-1.82227 -0.78685,-0.84837 -0.55181,-0.72708 1.30285,0.67236 1.99886,1.50824 2.48138,1.93711 2.17942,1.93711 -0.0459,0 -0.63217,-0.35424 -1.30285,-0.7872 z M 133.30306,76.545048 c -2.84303,-0.901 -4.75362,-2.03575 -6.96156,-4.13475 -4.85993,-4.62007 -7.2731,-10.23993 -8.30335,-19.33714 -0.36814,-3.2507 -0.38441,-4.40827 -0.10601,-7.54286 0.57716,-6.49846 1.87006,-12.74049 3.83435,-18.51214 0.46168,-1.35654 0.83943,-2.63101 0.83943,-2.83214 0,-0.5915 2.92959,-6.58206 4.31407,-8.82161 4.3143,-6.9787603 9.2671,-11.4684303 15.27385,-13.8456403 3.85868,-1.52707996 6.28199,-1.84406996 9.26715,-1.21225996 1.65345,0.34996 3.27116,1.09415996 2.75636,1.26799996 -0.66471,0.22447 -0.33057,0.55052 0.73961,0.72164 1.62701,0.26016 4.134,2.69659 5.35674,5.20589 1.12403,2.30675 1.51016,4.4561003 1.51299,8.4215603 0.003,4.07882 0.15522,3.94991 -4.55449,3.85577 -2.08962,-0.0417 -3.96801,-0.17033 -4.17413,-0.28569 -0.27983,-0.15659 -0.3908,-1.07213 -0.43782,-3.61226 -0.0513,-2.77449 -0.17686,-3.69447 -0.67995,-4.98397 -0.73352,-1.8800903 -1.67117,-3.0691703 -2.70413,-3.4292503 -3.36389,-1.17266 -11.8738,5.5923003 -16.05594,12.7636903 -2.85954,4.90349 -4.66045,10.61971 -5.03161,15.97083 -0.4952,7.13969 2.89744,18.06676 7.3062,23.53193 2.33288,2.89188 6.2835,5.0018 9.34623,4.99159 1.45668,-0.005 4.36208,-0.65847 5.46715,-1.22992 1.48323,-0.76701 2.25369,-2.13049 2.4059,-4.25763 0.0753,-1.05276 0.0485,-1.9141 -0.0596,-1.9141 -0.10813,0 -1.01958,0.36066 -2.02544,0.80149 -1.00586,0.4408 -2.1617,0.88454 -2.56855,0.98608 -1.06318,0.26529 -2.55481,-0.31512 -3.40734,-1.32589 -0.92316,-1.09449 -2.84722,-5.03241 -2.84722,-5.82731 0,-0.85141 0.95912,-1.95278 1.99285,-2.2884 1.48833,-0.48323 5.59562,-0.81515 10.21286,-0.82535 2.41372,-0.005 5.25257,-0.0883 6.30857,-0.18448 2.4977,-0.22744 6.47073,-1.24913 8.93453,-2.29756 2.4723,-1.05208 3.35693,-1.06362 4.36356,-0.057 0.96323,0.96324 1.34795,2.23134 1.63688,5.39553 0.26013,2.84868 1.18925,9.40468 1.79322,12.6533 0.55275,2.97312 0.52672,3.46581 -0.22016,4.16746 -0.46484,0.4367 -0.97805,0.59638 -1.91671,0.59638 -1.32403,0 -6.35326,1.46085 -6.64296,1.9296 -0.25132,0.40663 -1.1201,0.31423 -1.51457,-0.16114 -0.42545,-0.51258 0.0148,-4.48312 0.82859,-7.47176 0.40256,-1.47851 0.46546,-2.36204 0.32055,-4.50166 -0.0992,-1.46416 -0.31137,-2.79319 -0.47155,-2.95337 -0.60729,-0.6073 -1.90434,-0.74589 -3.64037,-0.38899 -2.2102,0.45441 -2.53432,0.73132 -2.50036,2.13635 0.0516,2.1368 -0.67642,5.58556 -1.32489,6.2758 -0.33317,0.35465 -0.60576,0.73881 -0.60576,0.85368 0,0.39687 -2.59337,3.59937 -3.79213,4.68286 -3.70319,3.34702 -8.44918,5.87259 -13.3903,7.12556 -2.29166,0.58112 -6.8877,0.52893 -8.87471,-0.10075 z m 193.58364,-7.47075 c -0.0681,-0.20176 0.0298,-0.73714 0.21748,-1.18971 0.1877,-0.45257 0.90411,-3.04457 1.59204,-5.76 2.09283,-8.2611 2.83354,-10.93435 5.26541,-19.00306 2.55088,-8.46356 3.73399,-11.77133 7.03584,-19.67123 5.56432,-13.31298 9.57337,-19.8857103 12.1293,-19.8857103 1.60235,0 2.00955,0.58664 8.51961,12.2742803 0.86129,1.54629 1.60164,2.81143 1.64525,2.81143 0.0436,0 0.78396,-1.26514 1.64525,-2.81143 6.51006,-11.6876403 6.91727,-12.2742803 8.51962,-12.2742803 2.55593,0 6.56497,6.5727303 12.12929,19.8857103 3.30186,7.8999 4.48496,11.20767 7.03584,19.67123 2.40574,7.98201 3.06098,10.34641 5.33494,19.25096 1.07254,4.19989 1.27091,5.32611 1.04393,5.92739 l -0.28021,0.74236 -4.84399,0.1912 c -4.91142,0.19387 -8.50834,0.0448 -10.02591,-0.41537 -0.64323,-0.1951 -0.9035,-0.48947 -1.13102,-1.27916 -0.16254,-0.56415 -0.61437,-1.95146 -1.0041,-3.08289 -1.80096,-5.2283 -3.55124,-12.55387 -5.00108,-20.93143 -1.20541,-6.96519 -2.9522,-15.85613 -3.57883,-18.21581 l -0.45337,-1.70724 -0.77359,1.63582 c -1.21964,2.57889 -5.24267,8.12873 -6.75453,9.31795 -0.45219,0.35569 -1.11476,0.55214 -1.86224,0.55214 -0.74748,0 -1.41005,-0.19645 -1.86223,-0.55214 -1.51187,-1.18922 -5.5349,-6.73906 -6.75454,-9.31795 l -0.77359,-1.63582 -0.45337,1.70724 c -0.62663,2.35968 -2.37342,11.25062 -3.57882,18.21581 -1.44985,8.37756 -3.20012,15.70313 -5.00108,20.93143 -0.38974,1.13143 -0.84099,2.51649 -1.00279,3.07789 -0.21194,0.73542 -0.50677,1.0949 -1.05468,1.28588 -1.21509,0.42361 -6.87588,0.61353 -11.28127,0.37852 -2.23274,-0.11912 -4.16286,-0.1132 -4.28914,0.0132 -0.12631,0.12634 -0.28534,0.0646 -0.35342,-0.13714 z"
     id="path2585"
     inkscape:connector-curvature="0" />
</svg>
