<?xml version="1.0" encoding="utf-8"?>
<!-- Generator: Adobe Illustrator 25.2.1, SVG Export Plug-In . SVG Version: 6.00 Build 0)  -->
<!DOCTYPE svg PUBLIC "-//W3C//DTD SVG 1.1//EN" "http://www.w3.org/Graphics/SVG/1.1/DTD/svg11.dtd" [
	<!ENTITY ns_extend "http://ns.adobe.com/Extensibility/1.0/">
	<!ENTITY ns_ai "http://ns.adobe.com/AdobeIllustrator/10.0/">
	<!ENTITY ns_graphs "http://ns.adobe.com/Graphs/1.0/">
	<!ENTITY ns_vars "http://ns.adobe.com/Variables/1.0/">
	<!ENTITY ns_imrep "http://ns.adobe.com/ImageReplacement/1.0/">
	<!ENTITY ns_sfw "http://ns.adobe.com/SaveForWeb/1.0/">
	<!ENTITY ns_custom "http://ns.adobe.com/GenericCustomNamespace/1.0/">
	<!ENTITY ns_adobe_xpath "http://ns.adobe.com/XPath/1.0/">
]>
<svg version="1.1"
	 id="svg8" xmlns:x="&ns_extend;" xmlns:i="&ns_ai;" xmlns:graph="&ns_graphs;" inkscape:version="0.92.4 (5da689c313, 2019-01-14)" sodipodi:docname="npc.svg" xmlns:cc="http://creativecommons.org/ns#" xmlns:dc="http://purl.org/dc/elements/1.1/" xmlns:inkscape="http://www.inkscape.org/namespaces/inkscape" xmlns:rdf="http://www.w3.org/1999/02/22-rdf-syntax-ns#" xmlns:sodipodi="http://sodipodi.sourceforge.net/DTD/sodipodi-0.dtd" xmlns:svg="http://www.w3.org/2000/svg"
	 xmlns="http://www.w3.org/2000/svg" xmlns:xlink="http://www.w3.org/1999/xlink" x="0px" y="0px" width="513.2px" height="191.1px"
	 viewBox="0 0 513.2 191.1" style="enable-background:new 0 0 513.2 191.1;" xml:space="preserve">
<metadata  id="metadata5">
	<rdf:RDF>
		<cc:Work  rdf:about="">
			<dc:format>image/svg+xml</dc:format>
			<dc:type  rdf:resource="http://purl.org/dc/dcmitype/StillImage"></dc:type>
			<dc:title></dc:title>
		</cc:Work>
	</rdf:RDF>
	<sfw  xmlns="&ns_sfw;">
		<slices></slices>
		<sliceSourceBounds  bottomLeftOrigin="true" height="191.2" width="512.9" x="0" y="0"></sliceSourceBounds>
	</sfw>
</metadata>
<sodipodi:namedview  bordercolor="#666666" borderopacity="1.0" id="base" inkscape:current-layer="layer1" inkscape:cx="-582.71579" inkscape:cy="-373.05021" inkscape:document-units="mm" inkscape:pageopacity="0.0" inkscape:pageshadow="2" inkscape:window-height="1699" inkscape:window-maximized="1" inkscape:window-width="2736" inkscape:window-x="-13" inkscape:window-y="-13" inkscape:zoom="0.35" pagecolor="#ffffff" showgrid="false">
	</sodipodi:namedview>
<g id="layer1" transform="translate(-71.778075,17.291441)" inkscape:groupmode="layer" inkscape:label="Layer 1">
	<path id="path826" inkscape:connector-curvature="0" d="M288.3,173.7c-0.4-0.1-0.9-0.5-1.2-0.8c-0.3-0.3-0.5-0.6-0.5-0.5
		s-0.3-0.3-0.6-0.9c-0.4-0.6-1-2.1-1.5-3.4c-0.7-2-0.9-3.1-1.4-7.1c-1.4-10.7-1.4-16.2-0.1-29.1c0.3-2.8,0.7-7.8,0.9-11.1
		c0.2-3.3,0.5-6.4,0.6-6.8s0.8-1.7,1.6-2.9c0.8-1.2,1.7-2.6,2-3.2c0.9-1.5,1.7-2.7,3.3-4.7c0.8-1,1.5-1.9,1.4-1.9
		c0,0-1.2,0.1-2.6,0.2c-1.4,0.2-5.4,0.4-8.9,0.5c-5.6,0.2-12.2,0.6-14,0.9c-3.3,0.6-15.3,2.4-17.1,2.6c-4.8,0.5-9.5,0.2-12.3-0.6
		c-2.3-0.7-4.3-2.7-5.3-5.3c-0.5-1.3-0.5-1.7-0.5-5.6v-4.2l2.6-1.1c7.6-3.3,12.9-5,21.9-6.9c5.9-1.3,18.8-4.1,22.1-4.8
		c2-0.4,6.4-1.4,9.8-2.2c3.4-0.7,7.9-1.8,10.1-2.2c8.7-2,10.4-2.4,13.4-3.1c1.7-0.4,4.1-1,5.2-1.2c1.2-0.3,5.9-1.4,10.4-2.4
		c13.7-3.2,17.8-3.9,28.1-4.7c2.2-0.2,4.4-0.4,4.9-0.4c4-0.4,17.5-0.5,21.2-0.1c4.2,0.5,5.8,1,10,3.8c2.7,1.7,3.4,2.3,8.5,6.3
		c11.3,9,17.9,15.1,22.8,20.9c0.6,0.7,2.1,2.5,3.5,4.1c3.4,4,3.4,4,0.5,1.4c-1.4-1.3-3.3-2.9-4.1-3.6c-1.9-1.5-6.1-5.2-8.7-7.4
		c-18.5-16.4-25.2-21.6-29.8-22.6c-6.4-1.5-23.6-1-39.5,1.1c-4.5,0.6-8.7,1.4-25.1,5.1c-13.7,3.1-23.2,5.1-31.3,6.7
		c-9.7,1.9-27.1,5.5-28.9,6.1c-0.7,0.2-2.9,0.7-4.8,1.1c-6.8,1.5-10.7,2.6-17.7,5.1c-5.4,2-5,1.5-4,4.6c1.2,3.7,4.2,7.5,7.3,8.9
		c2.6,1.2,3.9,1.5,7.7,1.6c3.7,0.1,3.9,0.1,12.8-1.4c3.4-0.6,8.7-1.3,11.8-1.7c3.2-0.4,7.5-1,9.7-1.4c4.8-0.8,6.1-1,8.8-1.3
		c3.9-0.3,21-0.4,22.6-0.1c1.7,0.3,3.5,1,4.4,1.6c1,0.7,1.6,1.7,2.2,3.6c0.6,2,0.6,2,1.8,2.3c0.9,0.2,2.1,0.8,3.6,1.8
		c0.5,0.3,0.5,0.3,2.4-1.2c1.8-1.5,4.5-4.4,6.3-6.7c1.4-1.8,0.6-0.4-1.5,2.7c-1.4,2.1-2.4,3.3-3.4,4.2c-0.8,0.7-2.4,2.2-3.6,3.2
		c-1.2,1.1-3.1,2.7-4.3,3.7c-4.6,3.7-6.8,5.8-10.4,10c-5.5,6.3-8.4,11-9.2,15.1c-0.8,3.6-1,8.9-0.4,10.5c0.2,0.5,0.4,1.1,0.4,1.4
		c0.1,0.6,2.1,1.9,3.5,2.4c1.8,0.6,3.2,0.6,5.3,0.1c4.2-0.9,6.4-2.7,9.5-7.6c2.5-4.1,3.5-5.3,6.5-8.3c2.8-2.9,4-3.7,7-4.9
		c4.1-1.7,20.1-7.7,25.4-9.5c3.3-1.1,6.7-2.5,8-3.1c3-1.5,10.6-6.8,12.7-8.9c0.9-0.9,1.8-2,2.1-2.5c0.6-1.1,1.1-2.9,1.3-5
		c0.1-0.8,0.3-2.3,0.4-3.3c0.2-1,0.3-2.5,0.3-3.2c0-0.8,0.1-1.4,0.2-1.4c0.2,0,0.6,1.3,1.1,3.4c0.2,1.1,0.5,2.3,0.5,2.5l0.1,0.5
		l0.8-0.5c0.4-0.3,1-0.6,1.4-0.7c0.7-0.3,3.9-1.1,4-1s-1.8,1.2-4.2,2.5l-2,1.1l-0.3,1.7c-0.3,2.1-0.9,3.6-1.8,5
		c-1.1,1.6-3.8,4.2-6.5,6c-1.3,0.9-2.3,1.7-2.3,1.7c0,0.1,0.4,0.3,0.8,0.6c1.7,0.9,3.4,3.2,5,6.3c1.2,2.4,1.5,3.8,1.3,6.1
		c-0.1,1-0.1,1.9-0.2,2c-0.2,0.2-1.6-3.2-2-4.5c-1-4.1-3.4-8.2-5.2-9.4l-0.7-0.4l-2.3,1.5c-2.1,1.4-2.3,1.5-1.9,1.8
		c0.7,0.5,0.7,1.5,0.1,3.5c-1.1,3.5-1.7,4.1-3.1,3.4c-0.5-0.2-1.8-0.8-3-1.3c-1.9-0.8-2.3-0.9-4.3-1c-1.2,0-2.8,0-3.5,0.1
		c-1.9,0.3-20.5,7.2-23.6,8.7c-1.5,0.7-2.1,1.2-4,3.1c-2.6,2.6-3.9,4.2-6.7,8.3c-2.7,3.9-4.1,5.2-7.1,6.7c-3.2,1.6-5.3,1.9-7.9,1.3
		c-1.2-0.3-3-1.2-3.7-1.7c-0.4-0.3-0.4-0.3,0,0.2c0.9,1,1,1.5,1.1,4.4c0.1,2.1,0,3.2-0.2,4.2c-0.5,2-2.1,5.6-3.1,7.1
		c-1.4,1.9-2.9,3.8-3.2,3.8c-0.1,0-0.7,0.2-1.3,0.5C293.8,173.3,289.7,174.1,288.3,173.7L288.3,173.7z M290.9,171.9
		c2-0.4,5.7-1.7,6.7-2.3c1.3-0.8,3.2-4.3,4.3-8.1c0.3-1.1,0.3-1.8,0.2-5.8c-0.1-4.6-0.2-4.6-0.7-5.3c-0.3-0.4-1.1-1.7-1.7-3
		c-1.5-2.9-1.7-4.3-1.4-7.4c0.5-4.6,1.9-8.4,4.5-12c1-1.3,1-1.4,0.8-2.2c-0.2-0.7-0.1-1,0.5-2.5c1.1-2.6,6.1-11.7,7.3-13.4
		c1.8-2.3,6-6.9,7.2-7.8c0.8-0.6-1-2.1-3.5-2.9c-3.2-1-7.8-0.9-14,0.3c-5.4,1.1-5.9,1.3-7.5,3.6c-2.6,3.7-4.4,6.5-5.4,8.4l-1.2,2.2
		l-0.2,2.7c-1.6,25.6-1.7,31.3-0.7,38.6c0.4,3.1,0.3,2.9,2,2.9c1.6,0,2.7,0.4,3.1,1.1c0.2,0.3,0.5,1.6,0.8,2.9
		c0.5,2.8,0.4,4.1-0.7,5.6c-0.7,1.1-1.1,1.1-0.4,0.1c0.2-0.4,0.6-1.2,0.8-1.9c0.3-1,0.3-1.4,0.1-2.8c-0.5-3.6-0.8-4.2-2.4-4.6
		c-1-0.3-2.5-0.3-2.6-0.1c-0.1,0.1,0.1,1.1,0.3,2.3c0.6,3.2,0.6,7-0.2,10.4c-0.1,0.6-0.1,0.7,0.5,1
		C288.3,172.4,288.8,172.4,290.9,171.9L290.9,171.9z M368.5,124.8c0.5-0.9,0.5-1.2,0.5-2.5v-1.5l-1.7,0.8c-0.9,0.4-2.8,1.1-4.2,1.6
		c-1.4,0.4-2.5,0.9-2.5,0.9c0,0.1,0.5,0.2,1.1,0.4c0.6,0.1,1.8,0.5,2.7,0.9c1.8,0.7,1.9,0.7,2.4-0.8c0.2-0.6,0.2-0.8-0.1-1.1
		c-0.4-0.4-0.4-0.4,0.1-0.2c0.6,0.3,0.6,0.9,0.1,1.8c-0.5,0.8-0.5,1.2-0.1,1.5C367.2,126.6,367.8,126.1,368.5,124.8L368.5,124.8z
		 M308.6,121.4l2.2-2.3l-1.1-0.4c-0.6-0.2-1.1-0.4-1.1-0.4c-0.4,0.5-3.8,6.2-4,6.7c-0.4,1-0.3,1,0.7-0.2
		C306,124.1,307.4,122.6,308.6,121.4L308.6,121.4z M315.2,115.2c0.7-0.6,2.4-1.7,3.7-2.6c4.3-2.8,5.6-3.8,5.5-3.9s-0.6-0.4-1.2-0.7
		c-0.6-0.3-1.2-0.7-1.4-0.8c-0.2-0.1-1.1-0.8-2.1-1.4l-1.8-1.1l-0.4,0.6c-0.2,0.3-1.4,1.9-2.6,3.5c-2,2.5-5.6,8-5.6,8.4
		c0,0.1,0.4,0.4,0.9,0.7c0.6,0.4,0.9,0.7,0.8,0.8c-0.1,0.1,0.5-0.3,1.3-1.1C313.3,116.8,314.5,115.8,315.2,115.2L315.2,115.2z
		 M320,103.6c-0.4-0.7-0.8-1.3-0.9-1.3s-0.2,0.3-0.3,0.7c-0.1,0.4-0.3,0.8-0.4,1s0.1,0.4,1,0.6c0.7,0.2,1.2,0.3,1.3,0.3
		C320.7,104.9,320.4,104.3,320,103.6L320,103.6z M493,168.7c0.2-0.8,0.4-1.7,1.1-5.1c0.1-0.6,0.6-2.1,1.1-3.3s0.9-2.2,0.9-2.2
		s-0.5,0.6-1.1,1.4c-1.1,1.4-1.6,1.9-0.9,0.9c0.8-1.2,3.1-5,4.7-7.8c0.9-1.6,2.4-3.8,3.2-4.9c1.7-2.3,5.3-6,7-7.2
		c0.6-0.4,1.1-0.9,1.1-1c-0.1-0.1-0.7-0.2-1.5-0.2s-1.8-0.1-2.3-0.2l-0.9-0.1l1.4-0.4c0.8-0.2,2.8-1,4.4-1.8s4.2-1.9,5.8-2.6
		c3.3-1.4,8.2-3.9,11.5-5.9c7.4-4.5,31.4-20.8,38.4-26.1c3.6-2.7,9.3-7.1,10.3-7.9c0.9-0.7,3.5-4.3,3.4-4.7c0-0.1,0-0.1,0.1-0.1
		s0.6-0.3,1.1-0.6l1-0.7l-0.4-0.8c-0.7-1.4-2.9-4.1-3.6-4.6c-2.4-1.6-9.1-2-13.1-0.9c-3.4,1-4.4,1.8-10.4,7.6c-6.3,6.2-9,8-13,9.1
		c-2,0.5-3.3,0.5-5.4,0c-1.5-0.4-2-0.4-4.1-0.3c-1.4,0.1-3.3,0.3-4.3,0.4s-1.9,0.2-1.9,0.2c-0.2-0.2,5.4-1.3,6.4-1.3
		c1.2,0,1.2,0,0.8-0.4s-0.4-0.4,0-0.4c0.3,0,0.1-0.2-0.5-1c-1.1-1.2-3-4.4-3.9-6.7c-0.6-1.5-1.6-3.5-3-6.2c-0.7-1.4-2.4-5.4-2.4-5.8
		c0-0.2-0.1-0.3-0.2-0.3c-0.1,0-0.2,0.2-0.2,0.4c0,0.2-0.3,0.9-0.6,1.5l-0.6,1.1l-0.1-3c0-1.7,0-3.4,0.2-3.9
		c0.7-2.8,4.7-11.5,6.6-14.4c1.4-2.1,4.1-5.5,5.5-7l1.2-1.3l-2.1,0.1c-1.1,0.1-3,0.2-4.2,0.4c-2.5,0.3-2.7,0.4-4.6,2.9
		c-2.5,3.2-5,9.3-6.2,15.2c-0.7,3.2-2.2,8.2-1.8,6c0.1-0.3,0.1-1.5,0.2-2.5c0.3-5.5,3.7-15.3,6.3-18.2c0.3-0.3,1.1-1.1,2-1.7
		c0.8-0.7,1.4-1.3,1.3-1.3c-0.4-0.1-2.8,0.6-4.5,1.4c-2.4,1.1-4.6,2.7-6.7,4.7c-1.4,1.4-1.9,2-2.2,2.9c-0.4,1.2-1.5,6.4-1.9,9.1
		c-0.1,0.8-0.3,2.3-0.5,3.2l-0.3,1.6l-0.1-2.2c-0.2-2.3,0.1-4.6,0.9-7.7c0.2-0.9,0.4-1.7,0.3-1.7c-0.1-0.1-1.5,3.1-1.9,4.5
		c-1,3.4-1.4,8.8-1,13.4c0.4,4.4,0.8,13.8,0.8,17.3c0,4.8-0.3,9.6-0.9,14.9c-0.2,2-1.4,8.4-2,10.7c-1.8,7.5-4.6,13-8.4,16.5
		c-3.7,3.4-7.7,5.5-13.5,7c-3,0.8-5.1,0.9-7.7,0.6c-3.5-0.4-7.2-1.6-8.1-2.6c-0.2-0.2,0-0.2,0.7,0.2c2.1,1.1,3.7,1.4,6.8,1.5
		c4.5,0.2,7.9-0.5,12-2.4s8.2-5.4,10.4-8.8c2-3.1,3.9-8.9,5.1-15.2c2-10.4,2.2-16.7,1.1-28.3c-0.8-7.8-0.8-11.6-0.2-15.7
		c1.2-7.9,3.6-13.4,8.1-18.4c1.8-2,3.4-3.7,2.8-3c-0.7,0.8-0.3,0.7,1.5-0.6c3.7-2.6,7.9-4.2,11.9-4.4c0.1,0,0.1-0.1-0.2-0.2
		c-0.2-0.1,2.4-0.2,5.8-0.3c6.6-0.1,8.1-0.3,10.1-1c2.5-0.9,3.4-2.7,3.4-6.6c0-3.5-0.6-4.4-3.3-4.9c-1.8-0.4-9.4-0.6-15.4-0.6
		l-4.5,0.1l-3.8,0.9c-5.3,1.3-10,2.7-11.5,3.4c-5.1,2.6-11.3,8.6-16.2,15.8c-1.5,2.1-3.2,4.9-3.9,6.2c-0.7,1.2-1.4,2.2-1.5,2.2
		c-0.3-0.1-0.9,0.8-1.9,2.9c-0.5,0.9-1.2,2.3-1.6,3s-0.8,1.3-0.8,1.4s-2.1,3.6-2.2,3.6c0,0,0-0.2,0.1-0.5s0.2-0.5,0.1-0.5
		c-0.2,0-6.2,11.2-9,16.7c-1.7,3.5-3.4,6.4-8.2,14.5c-7.9,13.3-10.1,17.9-14.9,31.4c-1.1,3-2.4,6.4-3,7.6c-0.6,1.2-1.2,2.7-1.4,3.3
		c-0.4,1.1-2,5.1-2,4.9c0-0.3,1.1-5.7,1.7-8.3c1.5-6.4,6.3-18.8,10.2-26.6c1.9-3.8,4.2-7.6,9.8-16.9c2.3-3.8,5.1-8.7,6.3-10.8
		c4.5-8.6,8.7-16,11.5-20.3c0.6-0.9,1.5-2.8,2.2-4.2c3-7,7.5-14.6,12.2-20.6c2.5-3.1,8-8.8,10.4-10.5c5-3.7,8.4-5.6,12.3-6.9
		c2.7-0.9,5-1.2,8.6-1.3c7.7-0.2,13.4,1.1,20.6,4.8c2.1,1.1,5.2,2.6,6.9,3.4c4.4,2.1,8.4,4.2,9.4,5l0.8,0.7v-1.1
		c0-1.2,0.4-2,1.3-2.4c0.3-0.2,0.2,0-0.2,0.4c-1.2,1.1-1.1,3.2,0.1,4.5c1.1,1.1,1.6,3.7,1.3,5.8c-0.1,0.7-0.2,1.2-0.1,1.3
		c0.1,0.1,1.3-0.8,2.4-1.6c0.4-0.3,1-1,1.4-1.6c1.2-1.9,0.9-3.1-1.5-6.4c-2-2.6-4.5-5.3-6.4-6.7c-8.8-6.7-28-10.6-38.6-7.9
		c-2.6,0.7-6.5,2.2-9.7,3.9c-1.8,1-3.3,1.8-3.4,1.9c-0.1,0.1-0.5,0.4-1,0.6c-0.5,0.3-1.4,0.8-1.9,1.2s-1,0.7-1,0.6
		c0,0,0.7-0.8,1.6-1.7c2-2,6.5-5.2,9-6.4c3.7-1.8,7.4-3,10.8-3.4c2.6-0.4,9-0.3,12.2,0.1c7.5,1,18.4,5.1,23.1,8.7
		c1.6,1.2,4.8,4.4,5.9,5.9c1.3,1.7,2.6,4,2.8,5c0.1,0.6,0.2,1.5,0.1,2.3c-0.1,0.8,0,1.9,0.2,2.9c0.8,3.9-1.1,5.6-6,5.5
		c-1.8,0-2.2,0-3.1,0.5c-4.6,2.3-12.3,1.5-17.2-1.8c-1.5-1-1.2-1,0.6-0.1c3.1,1.6,8.5,2.2,12.7,1.5c3.9-0.7,5.4-2,5.4-4.7
		c0-1.5-0.5-2.8-1.5-3.7c-1.7-1.6-3-2.3-11-6c-2.5-1.2-5.2-2.5-6.1-3c-4.6-2.6-10.3-4.5-15-5c-3-0.3-8.4-0.3-10.6,0.1
		c-6.5,1.1-13.9,5.5-19.4,11.4c-2.7,2.9-3.8,4.2-5.8,7c-1.5,2.1-4.1,6.2-5.3,8.4l-0.5,0.8l0.5-0.6c0.3-0.3,1.2-1.6,2-2.8
		c3.1-4.7,3.9-5.7,6.3-8.1c2.1-2.1,2.9-2.7,4.9-3.9c1.4-0.8,3.2-1.8,4-2.1c2.7-1.2,9.1-3.3,11-3.7c3.8-0.8,14.6-1,16.6-0.2
		c0.3,0.1,0.9,0.1,1.5,0c2.1-0.3,7.4,0.1,8.9,0.7c1.5,0.6,2.5,2.4,2.8,5c0.5,4.3-1.3,7.5-4.8,8.6c-1,0.3-2.5,0.5-4.5,0.7
		c-5.5,0.4-4.9,0.2-6.2,1.8c-2.9,3.5-6.3,9.4-7.8,13.2c-1,2.6-3.1,9.7-3.1,10.5c0,0.2,1.1,2.7,2.5,5.6c1.4,2.8,2.7,5.5,2.8,6
		c0.8,2.4,2.4,5.3,4.2,7.3c0.5,0.6,1.1,1.4,1.3,1.8c0.7,1.4,3.7,1.9,6.7,1.2c3.6-0.9,7.5-3.6,12.8-8.8c6.5-6.4,8.5-7.7,14.2-8.5
		c4.8-0.7,9.1,0.2,12.3,2.7c1.9,1.5,3.6,3.8,3.6,5.2c0,0.5,0.1,1.2,0.2,1.5l0.1,0.6l-0.7-0.5c-0.4-0.3-0.8-0.5-0.9-0.5
		c-0.1,0-0.8,0.6-1.4,1.4c-2.2,2.7-4.8,5.1-8.3,8c-1.9,1.6-3.8,3-4.1,3.2s-1.7,1.2-3,2.3c-1.3,1.1-6.3,4.9-11,8.4
		c-9.9,7.5-11.6,8.8-14.7,11.4c-7.6,6.3-11.1,8.8-15.6,11.3c-5.3,2.9-9.7,4.4-12.7,4.4c-1.6,0-1.2-0.3-4.4,3.2
		c-3.1,3.3-7.3,10.7-10.3,17.9c-0.7,1.7-1.6,3.5-1.9,4c-0.4,0.5-0.8,1.2-1,1.5c-0.7,1.4-1.9,3.4-1.9,3.4
		C492.8,169.6,492.9,169.2,493,168.7L493,168.7z M581.2,90.9c0.3-0.3,0.4-0.5,0.4-0.5c-0.1,0-0.3,0.2-0.6,0.5s-0.4,0.5-0.4,0.5
		C580.6,91.4,580.9,91.2,581.2,90.9z M570.5,50.5c2.6-0.6,3.5-1.5,3.5-3.7v-1.4l-1.2,1.2c-0.7,0.7-1.9,1.5-2.9,2s-1.9,1.2-2.2,1.6
		l-0.6,0.7l1.2-0.1C569,50.7,570,50.6,570.5,50.5L570.5,50.5z M482.9,162.4c-0.2-0.9-0.4-2.6-0.5-3.8c-0.1-2-0.1-2.7,0-6.4
		c0-0.8,0.1,0.5,0.2,2.8s0.3,5.3,0.5,6.6s0.3,2.4,0.3,2.4C483.3,164,483.1,163.3,482.9,162.4L482.9,162.4z M123.3,156.2
		c0.4-0.5,1.4-2.1,2.3-3.6c0.9-1.4,2-3.1,2.5-3.7c1.8-2.5,2.7-3.5,3.5-4.4l0.8-0.9l-0.7-0.3c-1-0.5-1.3-0.9-1.8-2.2
		c-0.4-1-0.4-1,0-0.8c0.7,0.6,2.8,1.6,4.3,2c2.3,0.7,5.9,0.5,11.9-0.6c2.5-0.5,7-1.3,10-1.9c7.5-1.4,8.9-1.8,13.1-3.9
		c1.2-0.6,2.2-1,2.3-0.9s0,0.2-0.2,0.3c-5.7,3.5-5.9,3.6-10.6,4.5c-2.2,0.4-5,1.1-6.1,1.5s-2.8,1-3.7,1.3c-2.1,0.8-4.2,1-12,1.1
		l-6.1,0.1l-0.8,1.4c-0.4,0.8-1.1,2.1-1.6,3s-1.4,2.2-2.1,3c-0.7,0.8-1.5,1.6-1.7,1.9c-0.2,0.3-1.2,1.3-2.1,2.2
		C122.8,157,122.6,157,123.3,156.2L123.3,156.2z M148.5,142.8c1.6-0.4,3.9-1.2,3.6-1.3c-0.1,0-2.1,0.3-4.4,0.7l-4.2,0.8h1.9
		C146.4,143.1,147.8,142.9,148.5,142.8L148.5,142.8z M132.9,142.5c-0.4-0.2-1-0.5-1.4-0.7s-0.7-0.4-0.7-0.3c0,0.2,2.1,1.4,2.5,1.3
		C133.5,142.9,133.3,142.7,132.9,142.5L132.9,142.5z M112.2,155.2c1.6-1.6,8.3-7.5,7.4-6.4c-0.2,0.3-2,1.9-4,3.7
		C110.4,157.1,110.4,157.1,112.2,155.2z M94.3,149.7c0.2-0.7,3.5-9.5,3.6-9.4s-2.6,7.6-3.2,8.8C94.4,149.5,94.3,149.8,94.3,149.7
		L94.3,149.7z M306.8,149.5c-0.9-0.5-1.8-1.7-2.1-2.7c-0.6-1.8-0.1-3.7,1.5-5.5c0.7-0.9,3.5-3.3,3.8-3.3c0.1,0-0.8,0.9-1.8,1.9
		c-2.4,2.4-3.1,3.6-3.1,5.4c0,1.6,0.5,2.6,1.9,3.8C307.9,149.9,307.9,150.1,306.8,149.5L306.8,149.5z M315.5,147.9
		c0.6-0.7,1.1-1.3,1.2-1.4c0.1-0.1,0.2-0.1,0.2,0c0,0.3-1.8,2.4-2.1,2.5C314.6,149.1,314.9,148.6,315.5,147.9L315.5,147.9z
		 M317,144.9c-0.2-0.8-1.4-2.4-3.1-4.3c-0.8-0.9-1-1.2-0.6-0.9c0.9,0.6,3.3,3.3,3.7,4.1c0.2,0.4,0.3,0.9,0.3,1.2
		C317.1,145.6,317.1,145.6,317,144.9L317,144.9z M177.4,140.6c-1.5-0.2-2.7-0.9-3.8-2c-0.9-0.9-2.1-3.2-2.1-3.8
		c0-0.5-0.1-0.5-1.6,0.1c-2.5,0.9-2.7,0.9-3.4,0.6c-1-0.5-4.1-3.1-5.4-4.6c-1.4-1.5-2.4-3.7-2.7-5.4c-0.3-1.8,0-3.3,1.1-5
		c0.7-1.1,0.9-1.7,1.2-3.3c0.2-1.1,0.6-2.9,0.9-3.9c0.3-1,0.7-2.8,0.9-4c0.5-2.5,0.5-2.5-1.6-4.8c-0.8-0.9-1.6-2-1.9-2.6
		c-0.3-0.6-0.9-1.6-1.4-2.3c-2-2.8-3.1-6.5-3.5-11c-0.1-1.5-0.1-2.1,0.2-2.9c0.2-0.5,0.4-1.5,0.6-2.3c0.3-1.4,1.6-4.3,2.4-5.1
		c0.3-0.3,0.5-0.6,0.5-0.7s0.2-0.3,0.4-0.4c0.4-0.2,0.3-0.5-2.2-4.5c-1.4-2.4-3.6-6-4.8-8.2c-4.6-8.2-4.8-8.4-6.2-9.8
		c-1.6-1.5-4.2-3-6.2-3.6c-3.8-1-8.2,0.3-10.6,3.1c-0.5,0.6-1.5,1.6-2.2,2.2l-1.4,1.2l0.7-1.3c1-1.9,4-4.8,5.7-5.7
		c2.4-1.2,3.2-1.4,5.8-1.4c1.9,0,2.7,0.1,3.9,0.5c2.2,0.7,3.6,1.4,4.8,2.4l1,0.9l1.9-0.6c5.5-1.8,14.3-2.6,18.5-1.8
		c3.1,0.6,4.4,1.4,9.1,5.2c2.8,2.3,3,2.3,5.2,3.1c1.3,0.4,3.4,1.1,4.7,1.4c3.4,1,5.2,1.7,7.8,3.2c3.5,2.1,6.6,4.8,9,8
		c2.2,2.8,6.8,11.8,8.1,15.8c1.2,3.5,1.4,5.2,1.2,7.8c-0.1,1.1-0.1,2.4-0.1,2.8s0.1,1.3,0.1,2c0,1.7-0.8,3.2-4.1,8.1
		c-1.5,2.2-3.2,4.9-3.8,5.9c-2.2,4-6.9,11-8.7,13c-1.7,1.9-6.9,7.3-7.9,8.3c-2.1,2-5.5,4.7-6.4,5.1
		C180.2,140.6,178.6,140.7,177.4,140.6L177.4,140.6z M179.9,137.7c0.7-0.2,3.7-2.4,5.6-4.2c0.5-0.4,2.6-2.7,4.7-4.9
		c4.6-5,8-9.6,11.9-16.6c0.5-1,2.1-3.3,3.4-5.1c1.5-2.2,2.9-4.5,3.9-6.4c1.5-2.9,1.5-3,1.4-4.2c-0.3-3.7-2-7.6-7.6-17.2
		c-3-5.2-4-6.5-6.7-9.2c-3.8-3.8-6.1-5.4-11.5-7.7c-3.9-1.7-4.1-1.8-2.8-0.5c1.1,1,1.5,1.4,3.8,3.4c2.1,1.8,3,2.6,5.5,5
		c3.6,3.5,4.8,5,6.3,7.9c1.7,3.3,2.2,4.9,2.3,7.4c0.2,3.6-0.4,6.5-3.4,16.8c-2.6,8.7-3.9,11.7-7.3,16.8c-3.7,5.5-4.9,7.2-7,9.3
		c-2.1,2.2-3.6,3.3-5.5,4.2l-1,0.5l0.1,1c0.1,0.6,0.4,1.5,0.6,2.1c0.6,1.4,0.6,1.4,0,0.8c-0.6-0.6-0.9-1.6-0.9-2.9v-1l-1.9,0.6
		c-1,0.4-1.9,0.8-1.9,0.9c0,0.4,1.5,2.3,2.1,2.7c0.3,0.2,1,0.5,1.5,0.6C176.5,138.1,178.7,138,179.9,137.7L179.9,137.7z M184,131
		c-0.9-0.9-0.9-1.1,0-0.7c0.4,0.2,1.1,1.3,0.9,1.5C184.9,131.9,184.5,131.5,184,131L184,131z M171.2,132.5c1.4-0.5,3.6-1.5,4.9-2.1
		c2.1-1,2.6-1.4,4.5-3.2c2.4-2.3,3.3-3.4,6.8-8.6c2.4-3.6,3.9-6.3,5.1-9.5c0.9-2.4,4.8-16.2,5.3-18.5c0.2-1.1,0.4-2.7,0.4-4.3
		c0-3-0.3-3.8-2.2-7.2c-1.8-3.1-4.4-5.9-11.9-12.6c-1.8-1.6-3.6-3.3-4.1-3.9c-1.8-2-4-4.2-6.8-6.5c-4.1-3.4-6.3-4.4-10.7-4.7
		c-1.9-0.1-7.4,0.2-10.5,0.7c-1.9,0.3-4.7,0.9-4.9,1c0,0,0.2,0.5,0.5,1s1.3,2.1,2.1,3.7c0.8,1.5,2.2,4.1,3.1,5.7
		c0.9,1.6,2,3.8,2.5,4.9s1.1,2.3,1.3,2.7c0.2,0.4,0.6,1.2,0.8,1.9c0.2,0.6,0.7,1.7,1,2.3l0.5,1.2l1.7,0.1c2,0.1,3.9,0.9,5.2,2.1
		l0.8,0.8l-0.1-1c-0.1-0.5-0.4-1.6-0.7-2.3c-0.5-1.4-0.4-2,0.2-1.3c0.5,0.6,2.6,5.6,3.8,9.3c1.3,4,2.4,8.3,2.7,10.5
		c0.3,2.8,0,4.1-2.4,10.8c-1.2,3.3-2.1,6.2-2.1,6.5s-0.5,1.4-1.2,2.6c-1.3,2.1-1.8,2.8-1.5,2.1c0.3-0.7-0.1-0.3-1.8,1.8
		c-2.5,3.2-3,4-2.9,5.6c0,2.5,1.5,4.9,4.9,7.7C167.7,133.9,167.4,133.9,171.2,132.5L171.2,132.5z M166,129.9c-0.9-1-1-1.7-0.4-3.9
		c1-3.7,1.2-3.9,5.1-3.9c3,0,3.9,0.2,5,1.2c0.5,0.4,0.8,1,1.1,2c0.6,1.9,0.5,2-0.4,0.3c-0.5-1-1-1.7-1.4-2c-1.4-0.9-5.8-1.1-7.2-0.4
		c-0.6,0.3-0.9,0.9-1.5,3.2c-0.4,1.5-0.4,2.2,0.1,3.2c0.2,0.4,0.4,0.8,0.3,0.9C166.5,130.5,166.3,130.3,166,129.9L166,129.9z
		 M163.9,114.8c1.1-1.4,2.2-2.8,2.4-3.2l0.3-0.8l-1.2-1.4c-0.6-0.8-1.2-1.4-1.2-1.4s-0.2,0.8-0.4,1.7c-0.2,0.9-0.7,3-1.2,4.5
		c-0.5,1.6-0.9,2.9-0.9,3C161.7,117.5,161.6,117.6,163.9,114.8z M168.1,105.6c1.9-6.6,2.9-12.4,2.6-14.7c-0.3-2.2-0.3-2.2-1.6,0.8
		c-1.3,3.2-3.6,7.9-3.8,7.9c-0.1,0-0.4,0.3-0.7,0.6c-0.8,0.9-0.8,0.5,0-0.7c0.4-0.6,1.1-1.8,1.6-2.7c0.5-0.9,1.1-1.9,1.3-2.2
		c0.2-0.3,0.9-1.8,1.5-3.4l1.2-2.9l-0.3-1c-0.2-0.6-0.3-1.3-0.3-1.6c0-0.3-0.1-0.6-0.2-0.6c-0.1-0.1-0.4-0.8-0.8-1.7
		c-0.4-1-0.7-1.5-0.8-1.5c-0.1,0.1-0.5-0.2-0.8-0.5c-1.5-1.6-3.2-2.4-5.6-2.8c-1.8-0.3-2.2-0.1-3.1,1.7c-0.4,0.8-1,2.5-1.4,3.6
		c-0.6,1.9-0.7,2.3-0.7,4.3c0,1.5,0.1,2.7,0.4,3.7c0.6,2.2,2.5,6.5,3.8,8.6c0.6,1,1.2,2,1.4,2.3c0.1,0.3,1,1.3,2,2.4
		c1,1,2.1,2.3,2.5,2.9s0.7,1.1,0.8,1C167,109.3,167.5,107.6,168.1,105.6L168.1,105.6z M163.5,101c-1.3-1.4-3.1-4.8-4.1-7.6
		c-0.5-1.5-0.6-1.7-0.6-1.1s-0.1,0.5-0.4-0.7c-0.5-1.7-0.4-3.9,0.3-5.6c0.6-1.6,2.3-3.3,3.9-4.1c1.1-0.5,1.2-0.6,0.9-0.8
		c-0.3-0.1-0.2-0.1,0.2-0.1c1.6,0.3,2,0.4,2,0.5s0.4,0.5,0.8,0.9c0.5,0.4,0.8,0.9,0.8,1.1c0,0.3-0.1,0.3-0.3,0
		c-0.2-0.1-0.3-0.3-0.2-0.4c0.2-0.2-1.8-1.5-2.4-1.5c-1.5,0-4,2-5,3.9c-1.3,2.7,0,8.3,3.2,13.4c1.3,2.1,1.7,2.4,2.2,1.7
		c0.2-0.3,0.4-0.4,0.4-0.3c0,0.3-0.7,1.1-1,1.1C164.1,101.5,163.8,101.3,163.5,101L163.5,101z M167.4,84.3c-0.1-0.1,0-0.2,0.1-0.3
		c0.1-0.1,0.2,0,0.3,0.1s0,0.2-0.1,0.3C167.6,84.4,167.4,84.4,167.4,84.3L167.4,84.3z M170.9,97.7c0.7-1.7,0.7-2,0.6-3.1l-0.2-1.2
		L171,95c-0.3,1.6-0.8,3.6-1,4.4c-0.1,0.2-0.1,0.3,0,0.3C170.1,99.6,170.5,98.7,170.9,97.7L170.9,97.7z M147.3,132
		c-3.7-0.9-6.3-3.1-7.4-6.3c-0.5-1.4-0.5-1.6-0.7-5.4c-0.1-3.3,0.2-7.4,1.2-15.4s1-8.3,0.6-10c-0.2-0.8-0.8-2.7-1.4-4.2
		c-0.6-1.5-1.1-3-1.3-3.4c-0.3-0.7-1.2-2.6-3.7-7.3c-2.1-3.9-3.1-6-3.5-7.5c-0.4-1.3-0.3-1.5,0.2-0.3c0.4,1.1,2.9,5.5,5.1,9.1
		c0.9,1.5,1.8,3.1,2.1,3.6c0.6,1.2,2.7,6.5,3.6,8.9c0.8,2.2,0.8,2.9,0.2,10c-1,12.2-1,17.5-0.1,20.5c0.7,2.3,2.4,4,5.2,5.2
		c1.4,0.6,1.8,0.7,3.6,0.7s2,0,3.1-0.7s3-2.4,3.5-3.3c0.4-0.8,0.5-0.3,0,0.8c-0.6,1.7-1.8,2.9-3.7,3.8
		C150.9,132.3,149.6,132.5,147.3,132L147.3,132z M106.9,130.2c-0.8-0.4-1.3-0.5-2.6-0.6h-1.6l0.9-0.3c1.6-0.5,2.3-0.9,3.4-2
		c0.6-0.6,1.8-1.5,2.8-2c2.1-1.2,4.1-3.1,6-5.8c2.1-3,4.9-9.7,5-11.7c0-0.3,0.1-0.4,0.1-0.3c0.4,0.9-0.9,6.2-2.6,10.5
		c-3.6,9.6-5.5,12.1-9.2,12.5C108.1,130.7,107.8,130.7,106.9,130.2L106.9,130.2z M149.2,129.2c-1-0.5-2.1-2-2.5-3.6
		c-0.6-2.1-0.1-6.7,0.9-7.8c0.5-0.6,2.8-1.1,4.9-1.1c1.1,0,1.2,0,0.7-0.2c-0.3-0.1-1.4-0.2-2.4-0.2c-1.2,0-1.6-0.1-1.3-0.2
		c0.8-0.3,3.8,0,5.4,0.5c1.8,0.6,3,1.2,3,1.4c0,0.2-0.2,0.2-1.1-0.1c-1.6-0.6-4.1-0.8-5.9-0.5c-0.9,0.1-2,0.4-2.3,0.5
		c-0.6,0.3-0.7,0.4-1,1.8c-0.2,1.1-0.3,2.2-0.3,3.6c0.1,1.8,0.2,2.2,0.8,3.4c1,2,1.9,2.5,4.4,2.2c0.8-0.1,1.5-0.2,1.6-0.1
		c0.1,0.1-1.8,0.7-2.8,0.9C150.3,129.7,149.9,129.6,149.2,129.2L149.2,129.2z M390.7,126.8c0-1.4-0.1-4.1-0.2-6
		c-0.2-4,0-14,0.2-11.5c0.2,2.1,0.3,18.2,0.2,19.2C390.8,129.1,390.7,128.5,390.7,126.8L390.7,126.8z M155.9,126.2
		c0.1-0.3,0.4-1.5,0.7-2.7s0.6-1.9,0.6-1.6c0,0.8-0.5,2.7-1,3.9C155.9,126.3,155.8,126.5,155.9,126.2L155.9,126.2z M133,126
		c-0.5-0.1-1.3-0.3-1.8-0.6c-1.5-0.6-5.1-3.2-6.1-4.2c-2.5-2.7-3.3-6.9-3.7-19l-0.1-4l-0.5-0.2c-1.7-0.7-3.2-1.7-5.4-3.7
		c-3.9-3.5-5.5-5.7-8.7-11.4c-1.6-3-1.6-3.4,0.1-0.8c2.2,3.4,4.7,6.6,6.1,8c0.7,0.6,2.7,2.3,4.5,3.8c1.8,1.4,3.4,2.8,3.5,2.9
		c0.2,0.3,0.2,0.3,0.3-0.1c0.1-0.2,0.2-0.8,0.2-1.2c0-1.1,0.2-0.8,0.4,0.7c0.2,1.4,0.9,9.7,1.2,14.7c0.3,4.5,1.5,8,3.4,9.7
		c1.1,1.1,4.5,3.1,5.9,3.6c1.5,0.5,3.4,0.7,5.2,0.4c0.8-0.1,1.5-0.2,1.5-0.2c0.2,0.2-2.2,1.4-2.9,1.5
		C134.3,126.1,133.8,126.1,133,126L133,126z M72,123c0.8-0.9,2.6-3.4,3-4.3c0.6-1.1,4.9-5.4,7-6.8c0.9-0.6,2.1-1.6,2.6-2.1
		s1.1-1,1.1-0.9c0.2,0.2-2.3,4.7-3.3,6c-1.3,1.6-5.1,4.9-6.3,5.6c-1.5,0.8-2.7,1.6-3.8,2.5C71.7,123.5,71.6,123.5,72,123L72,123z
		 M131.9,121.4c-1-0.9-1.4-1.9-1.7-5.1c-0.4-3.3-0.1-3.8,2.4-4.3c1.6-0.3,5.9-0.3,5.4,0c-0.2,0.1-1.3,0.3-2.4,0.4
		c-2.8,0.3-4.3,0.6-4.7,1c-0.3,0.4-0.3,0.5,0,2.9c0.4,2.9,0.8,4.1,1.5,4.9C133.3,122.2,132.9,122.2,131.9,121.4L131.9,121.4z
		 M510.5,110.6c1.6-2.8,4.2-6.3,5.1-6.7c0.6-0.3,0.6-0.3-0.2,0.6c-0.5,0.5-1.7,2.1-2.8,3.5C510.8,110.4,510.2,111.2,510.5,110.6
		L510.5,110.6z M85.7,108c-0.3-0.7-0.6-1.6-0.8-2.2c-0.9-4,4.1-15.7,14.2-32.4c6.2-10.4,10.6-15.5,15.4-17.9
		c2.1-1.1,4.1-1.3,6.3-0.8c0.9,0.2,2.3,0.5,3,0.6l1.3,0.3h-1c-0.6,0-1.8-0.1-2.8-0.3c-3-0.5-5.3,0-8.2,1.9c-4.3,2.9-8.4,8-13.9,17.3
		c-7.3,12.4-11.9,22.1-13,27.6c-0.3,1.6-0.4,3.7-0.1,5.5c0.1,0.7,0.2,1.4,0.1,1.4C86.3,109.1,86,108.6,85.7,108L85.7,108z M571.3,98
		c0-0.8,0.7-1.7,2.6-3.3c1-0.8,2.3-1.9,2.8-2.4c1-0.9,3-2.3,3.3-2.3c0.1,0-0.3,0.4-0.9,0.8c-0.5,0.4-1.7,1.5-2.7,2.3
		c-0.9,0.8-2.3,2.1-3,2.7c-0.8,0.7-1.6,1.5-1.8,2C571.3,98.5,571.3,98.5,571.3,98L571.3,98z M238.9,92.4c0.1-0.1,0.9-0.2,1.7-0.2
		c3.2-0.2,7.3-1.7,8.2-3c0.2-0.3,0.4-0.6,0.5-0.5c0,0-0.2,0.4-0.4,0.8c-0.6,0.8-2.6,1.8-4.7,2.4C242.7,92.2,238.6,92.7,238.9,92.4
		L238.9,92.4z M197.8,50.8c-0.1-0.1-0.5-0.6-0.8-1.2c-0.3-0.6-0.8-1.4-1.1-1.9c-1.9-2.8-11.9-19.8-14.3-24.3l-0.9-1.6l-0.2,0.8
		c-0.3,1.3-1,5.3-1.3,7.7c-0.1,1.2-0.3,4.8-0.3,8.1s-0.1,6.1-0.1,6.3c0,0.8-1,1.1-3.8,1.2c-1.5,0.1-4.7,0.3-7.1,0.4
		c-2.4,0.1-4.5,0.3-4.7,0.4c-0.5,0.4-0.4-0.4,0.4-3.3c1-3.3,3.1-12.8,5-22.4c4.3-21.9,5.2-26.4,6.4-30c0.7-2.2,1.4-3.2,2-3
		c0.2,0.1,0.6,0.6,0.9,1.2c0.3,0.6,0.9,1.4,1.2,1.9c1.8,2.6,11.9,19.7,14.3,24.3l0.9,1.6l0.2-0.8c0.3-1.3,1-5.3,1.3-7.7
		c0.1-1.2,0.3-4.8,0.3-8.1s0.1-6.1,0.1-6.3c0-0.8,1-1.1,3.7-1.2c1.4-0.1,4.5-0.3,6.9-0.4c4-0.2,4.3-0.2,4.7,0.1
		c0.5,0.5,0.5,0.7-0.3,3.5c-0.8,2.7-3,12.8-4.7,21.7c-5.1,26-6.3,31.3-7.5,32.6C198.2,51,198.1,51,197.8,50.8L197.8,50.8z
		 M467.5,48.5c-3.6-0.6-7.5-2.2-10.5-4.4c-2.3-1.7-6.8-6.2-8.2-8.2c-2.2-3.4-4-7.6-4.9-11.5c-0.5-2.5-0.5-13.9,0-16.4
		c0.8-3.9,2.6-8.1,4.9-11.5c1.3-2,5.8-6.5,8.2-8.2c2.1-1.5,4.4-2.6,6.9-3.5c5.5-1.8,10.1-1.6,14.9,0.8c4.4,2.2,7,5.2,8.8,10.3
		c1,2.8,1.5,5.8,1.3,7.4s-0.7,1.8-4.3,2.4c-5.9,0.9-10,1.3-10.3,1.1c-0.2-0.1-0.6-0.9-1-1.7c-1.5-3.6-3.1-4.9-6.4-5.4
		c-2.1-0.3-4.9,1.2-6.9,3.8c-2.7,3.5-4.4,8.4-4.4,12.6c0,6,3.4,12.8,7.6,15.5c0.9,0.6,2.8,1,3.7,0.9c3.3-0.5,4.9-1.9,6.4-5.4
		c0.4-0.9,0.8-1.6,1-1.7c0.4-0.2,4.4,0.3,10.3,1.1c3.6,0.5,4.1,0.8,4.3,2.4c0.2,1.6-0.3,4.7-1.3,7.4c-1.3,3.7-3,6.2-5.5,8.3
		c-1.6,1.3-4.9,2.9-7,3.5C473,48.8,469.7,48.9,467.5,48.5z M315.4,47.8c-0.1-0.1-0.4-0.8-0.7-1.7c-0.4-1.1-0.6-2.6-0.9-5.3
		c-0.4-4.8-0.3-15.2,0.3-24.5c0.2-3.5,0.5-10.7,0.6-16.1c0.2-10.4,0.3-11.7,0.7-12.4c0.4-0.6,2.6-2.2,3.9-2.9
		c6.6-3.1,16.2-3,22.9,0.3c3,1.5,5.6,4,7,6.9c1,2.2,1.3,3.5,1.3,6c0,4.5-1.7,8.5-5.3,12.2c-3.5,3.7-8.2,6.2-13.3,7.1
		c-0.9,0.2-1.8,0.4-1.9,0.5c-0.3,0.3,0.4,6,1,8.7c0.3,1.2,0.7,3.4,1,4.9c0.7,3.4,2,8.9,2.8,11.7c0.7,2.5,0.7,2.7,0.1,3.3
		c-0.4,0.4-0.8,0.4-6.8,0.5c-3.9,0.1-7.3,0.2-8.7,0.4C316.3,47.9,315.6,48,315.4,47.8L315.4,47.8z M329.2,5c0-0.1,0.7-0.4,1.4-0.5
		c1.7-0.4,3.6-1.4,4.4-2.4c1.1-1.4,1-3.4-0.3-5.2c-1.6-2.2-5.1-3.8-8-3.8c-2.1,0-2.1,0-1.8,2.1c0.1,0.9,0.3,2.6,0.4,3.8
		c0.3,3,0.8,5.7,1.1,6C326.6,5.3,329.1,5.3,329.2,5L329.2,5z M560.8,44.9c-0.6-0.3-1.6-0.8-2.1-1.1c-1.6-1.1-2.1-2.2-1.5-3.8
		l0.3-0.9l-0.1,1.1c-0.2,1.9,0.5,2.8,3.2,4.1c0.7,0.4,1.3,0.7,1.4,0.8C562.1,45.4,562.1,45.4,560.8,44.9L560.8,44.9z M541.9,40.5
		c-1.6-0.4-2.3-0.8-3.2-1.8l-0.8-0.8l1.2,0.9c0.8,0.6,1.8,1.1,2.6,1.3c0.7,0.2,1.6,0.5,1.8,0.5l0.5,0.2h-0.5
		C543.2,40.8,542.5,40.7,541.9,40.5L541.9,40.5z"/>
</g>
</svg>
