<?xml version="1.0" encoding="utf-8"?>
<!-- Generator: Adobe Illustrator 25.2.1, SVG Export Plug-In . SVG Version: 6.00 Build 0)  -->
<!DOCTYPE svg PUBLIC "-//W3C//DTD SVG 1.1//EN" "http://www.w3.org/Graphics/SVG/1.1/DTD/svg11.dtd" [
	<!ENTITY ns_extend "http://ns.adobe.com/Extensibility/1.0/">
	<!ENTITY ns_ai "http://ns.adobe.com/AdobeIllustrator/10.0/">
	<!ENTITY ns_graphs "http://ns.adobe.com/Graphs/1.0/">
	<!ENTITY ns_vars "http://ns.adobe.com/Variables/1.0/">
	<!ENTITY ns_imrep "http://ns.adobe.com/ImageReplacement/1.0/">
	<!ENTITY ns_sfw "http://ns.adobe.com/SaveForWeb/1.0/">
	<!ENTITY ns_custom "http://ns.adobe.com/GenericCustomNamespace/1.0/">
	<!ENTITY ns_adobe_xpath "http://ns.adobe.com/XPath/1.0/">
]>
<svg version="1.1"
	 id="svg1413" xmlns:x="&ns_extend;" xmlns:i="&ns_ai;" xmlns:graph="&ns_graphs;" inkscape:version="0.92.4 (5da689c313, 2019-01-14)" sodipodi:docname="overcome.svg" xmlns:cc="http://creativecommons.org/ns#" xmlns:dc="http://purl.org/dc/elements/1.1/" xmlns:inkscape="http://www.inkscape.org/namespaces/inkscape" xmlns:rdf="http://www.w3.org/1999/02/22-rdf-syntax-ns#" xmlns:sodipodi="http://sodipodi.sourceforge.net/DTD/sodipodi-0.dtd" xmlns:svg="http://www.w3.org/2000/svg"
	 xmlns="http://www.w3.org/2000/svg" xmlns:xlink="http://www.w3.org/1999/xlink" x="0px" y="0px" width="1624.1px"
	 height="1525.4px" viewBox="0 0 1624.1 1525.4" style="enable-background:new 0 0 1624.1 1525.4;" xml:space="preserve">
<metadata  id="metadata1419">
	<rdf:RDF>
		<cc:Work  rdf:about="">
			<dc:format>image/svg+xml</dc:format>
			<dc:type  rdf:resource="http://purl.org/dc/dcmitype/StillImage"></dc:type>
			<dc:title></dc:title>
		</cc:Work>
	</rdf:RDF>
	<sfw  xmlns="&ns_sfw;">
		<slices></slices>
		<sliceSourceBounds  bottomLeftOrigin="true" height="1525.4" width="1624.1" x="0" y="0"></sliceSourceBounds>
	</sfw>
</metadata>
<sodipodi:namedview  bordercolor="#666666" borderopacity="1" gridtolerance="10" guidetolerance="10" id="namedview1415" inkscape:current-layer="svg1413" inkscape:cx="635.44153" inkscape:cy="376.3806" inkscape:pageopacity="0" inkscape:pageshadow="2" inkscape:window-height="1699" inkscape:window-maximized="1" inkscape:window-width="2736" inkscape:window-x="-13" inkscape:window-y="-13" inkscape:zoom="0.28921569" objecttolerance="10" pagecolor="#ffffff" showgrid="false">
	</sodipodi:namedview>
<path id="path1966" inkscape:connector-curvature="0" d="M96.8,710.4c-0.2-0.4-4.8-11.3-5.4-12.8c-2.4-6.6-5.8-21.1-7.3-31.2
	c-1.7-11.5-2-18.9-1.9-37c0.1-18.9,0.9-35,2.8-59.2c1.1-14.3,2.6-26.8,5.2-42.9c1.5-9.5,2.5-13.9,5.6-25.9
	c2.9-11.2,6.9-23.9,10.2-33.1c2.1-5.9,3.5-12.6,4.7-22.6c0.2-2.1,0.6-3.9,1.1-5c1.1-2.8,8.3-20.2,9.4-22.6c0.5-1.3,2-4.4,3.2-6.9
	l2.2-4.5l-1.1-1.2c-1.3-1.5-4.5-7.7-5.1-10c-0.5-2.2-0.5-3,0.2-4.4c0.7-1.3,1.7-2.1,3.8-2.7c0.8-0.2,3.6-1.5,6.1-2.7
	c2.5-1.3,5.6-2.6,6.7-3c1.2-0.4,2.4-1,2.7-1.3c0.3-0.3,1-0.9,1.6-1.3c5.3-3.6,6.6-4.5,8.4-5.4c1.1-0.6,4.1-1.9,6.6-2.9
	c2.5-1,5-2.2,5.6-2.7c1.8-1.4,8-5.1,12.4-7.2c16.5-8.1,32.9-12.8,55-15.8c3.8-0.5,5.8-0.6,12.3-0.6c8.3,0,10.4,0.2,20.6,1.9
	c2.2,0.4,4.2,0.7,4.6,0.8c0.3,0.1,0.7,0,0.9-0.1c0.2-0.1-0.3-2.2-1.4-5.7c-3.2-10.6-4.9-18.3-5.9-26.6c-0.4-3.5-0.5-6.2-0.5-17.7
	c0-12.3,0.1-14.1,0.6-18.7c1.4-11.4,2.6-15.9,5.6-20.5c1.3-1.9,5.4-6.4,5.9-6.4c0.3,0,5.1-3,5.2-3.3c0-0.1-0.4-1.3-0.9-2.7
	c-6.6-16-10.4-34.4-12-58.7c-0.4-6.6-0.4-28.5,0-35.4c1.3-21,3.9-37,8.6-52c5.2-16.9,12.6-30.4,22.8-41.9c1.6-1.8,3.4-4.1,4-5.2
	c2.5-4.2,7.6-10,11.9-13.6c8.5-7,18.2-11.9,28.8-14.6c6.1-1.6,9.1-1.9,16.2-1.9c6.8,0,9.9,0.4,11.9,1.5c1,0.5,1.1,0.5,2.4,0.1
	c4.9-1.5,11.9-2.6,18.7-3c1.6-0.1,8-0.2,14.3-0.3c29-0.4,34.4-0.9,40.7-4c1.2-0.6,3.4-1.9,4.7-2.9c2.9-2.1,9.3-8.5,12-11.9
	c2-2.5,2.5-2.9,3.4-2.4c0.5,0.2,0.6,0.6,0.6,1.7c0,3.4-0.7,6-3.7,14c-1,2.6-1.7,4.7-1.5,4.9c0.3,0.3,3.7-1.5,7.5-4
	c4.7-3.1,6.6-4.7,11.3-9.2c4.8-4.6,5.5-5.2,7-5.2c2.1,0,2.9,1.9,2.8,7c-0.1,10.5-4.1,24.6-10.5,36.9c-4.4,8.4-7.8,13.3-13,18.7
	c-2.5,2.6-3.8,3.6-5.3,4.5c-1.1,0.6-2,1.1-2,1.2s0.7,1.3,1.6,2.9c9,15.2,15.4,36.4,17.9,60.2c2.1,19.4,2.2,42.8,0.3,62.1
	c-3.2,31.3-12,56.4-26.3,74.4c-3,3.8-8.4,9.3-12.1,12.4c-1.6,1.3-2.9,2.5-2.9,2.6c0,0.6-3.1,3.5-5.3,5c-3,2-4.3,3.5-4.3,4.8
	c0,1.3,2,9,3.5,13.6c3.7,11,8.5,18.6,15.1,23.9c3.1,2.4,11.2,7.5,15.1,9.4c4.2,2,13,5.7,14.4,6c0.5,0.1,2.9-0.2,5.6-0.6
	c10.9-1.8,13-2.1,21.1-2.1c8.4,0,11.1,0.2,21.3,1.9c25.4,4.2,47.2,12.9,64.5,25.5c1.1,0.8,2.5,1.8,3.3,2.2s2.3,1.5,3.4,2.5
	c1.1,0.9,2.3,1.9,2.6,2.1s1,0.8,1.5,1.2c1,0.8,1,0.8,4.2,0.8l3.2,0l1.2,0.9c1,0.8,1.3,1.2,1.9,3.2c0.6,2,0.7,2.7,0.6,5.5
	c-0.1,3.5,0,4.1,0.8,4.6c1.4,0.9,9.6,5.3,13.7,7.3c2.6,1.3,5.7,2.9,6.9,3.6s3.9,2.1,6,3.2c2.1,1.1,5.5,2.9,7.5,3.9
	c3.9,2,10.4,5.6,18.5,10.2c2.7,1.5,6.5,3.6,8.4,4.7c6.1,3.3,12.6,7.2,17.1,10.1c0.8,0.5,3,2,5.1,3.3c12.2,7.9,17.8,11.8,28.5,19.6
	c8.6,6.2,11.6,8.6,15.6,12c1.7,1.5,4.6,4,6.4,5.5c2.7,2.3,13.5,12.8,11.9,11.6c-0.3-0.2-0.5-0.3-0.5-0.2s1.3,1.2,3,2.5
	c7.7,6.1,15.8,16.8,22.1,29.4c2.5,5,3.6,7.7,6,14.9c3.5,10.6,4.3,18.3,2.7,26c-2.6,12.9-11.1,24.1-26.2,34.5
	c-10,6.9-20.8,12.3-34,17c-5.9,2.1-9.2,3-16.2,4.4c-13,2.6-22.5,3.3-33.5,2.6c-4.6-0.3-7.1-0.6-16-2.2c-19.8-3.5-30-6.4-50.9-14.8
	c-13.9-5.5-15.8-6.5-30.2-14.7c-5.6-3.2-11.4-6.5-12.9-7.3c-1.5-0.8-4.3-2.4-6.2-3.4c-6.8-3.8-21.7-11.9-22-11.9
	c-0.1,0-0.6,1.1-0.9,2.4s-1.5,4.3-2.5,6.4c-1,2.2-2.2,4.7-2.6,5.6l-0.7,1.6l1.2,4.8c0.7,2.6,1.5,6.2,1.8,8
	c2.2,11.7,2.9,14.6,8.9,39.1c5,20.2,6.5,27.4,8.4,39.1c1.6,10.1,4.1,31.5,3.7,32.1c-0.1,0.1,0,0.3,0.1,0.4c0.2,0.1,0.3,0.3,0.3,0.5
	c0,0.3-0.5,0.4-2,0.4l-2,0l-0.3-1.9c-0.5-2.8-3.2-20.7-4-26.5c-1.1-8.2-2.5-17-3.8-24c-0.7-3.5-2.8-14.7-4.6-24.8
	s-3.9-21.2-4.4-24.5s-1.6-9.7-2.3-14c-1.3-7.8-1.3-7.8-1.8-7c-0.4,0.8-0.5,0.8-0.3,0.1c1.1-5.4,1.4-7.1,1.9-10.8
	c0.2-1.7,0.8-4.2,1.2-5.7c0.5-1.5,0.8-2.9,0.8-3.2c0-0.5-0.1-0.6-8.4-4.8c-17.3-8.9-45.7-21-63.4-27c-12.3-4.2-28.5-8.3-53.8-13.5
	c-8.4-1.7-25.2-5.5-30.2-6.8c-1.5-0.4-6-1.6-9.9-2.6c-3.9-1-9.2-2.3-11.7-2.8c-6.7-1.4-18.9-2.7-19.6-2.2c-0.2,0.1-0.7,0.9-1.2,1.7
	c-1.8,2.9-3.8,5.5-7.3,9c-4.4,4.6-6.3,5.8-17,11.6c-2.1,1.2-4.7,2.4-5.6,2.8c-2,0.8-7.1,1.6-13.5,2.2c-2.6,0.3-4.7,0.5-4.7,0.5
	c-0.3,0.3,0,8.9,0.3,11.2c0.7,4.2,0.3,6.8-5.6,31.6c-3.1,13.1-4,17.3-7,33.6c-2.4,13-2.9,15.6-4.1,19.5c-3,10-8.8,23.2-14,31.9
	c-1.9,3.1-7.3,11-11.5,16.9c-5.2,7.2-13.2,15.3-20,20.4c-5.5,4.1-13.1,9.2-15.6,10.4c-2.3,1.1-2.5,1.2-4.4,1.1l-2-0.1l3.6-2
	c3.4-2,4.4-2.7,10.8-7.5c5.6-4.3,8.4-6.7,12.9-11.3c5.3-5.4,8.1-8.8,11.8-14.3c10.2-15.3,13.9-22.2,18.5-34.7c3.1-8.3,4.6-14,7-27
	c3.9-20.8,4.6-24,9.3-42.7c2.5-10.1,4.8-19.5,5.1-20.8s0.9-3.7,1.5-5.2c0.9-2.3,1.4-4.4,2.7-10.4c0.2-0.7,0.1-0.8-0.5-0.6
	c-2.5,0.6-28.2,0.8-30.5,0.3c-0.3-0.1-6.2-0.1-13.2-0.1c-9.4,0-13.3-0.1-15.2-0.4c-1.4-0.2-3.5-0.4-4.5-0.5
	c-1.7-0.1-1.8-0.1-0.8,0.1c0.6,0.2,2.7,0.5,4.7,0.8l3.6,0.5l-5.9-0.1c-10-0.2-17.2-1.4-20-3.5c-2-1.4-2.1-2.1-2.7-11.3
	c-0.3-4.4-0.7-11.1-1-14.8c-0.5-7.9-0.3-12.2,0.7-14.3l0.6-1.2l-2.2-2.9c-1.9-2.5-3.2-4.8-4-6.9c-0.2-0.5-0.2-0.5-0.4-0.1
	c-0.1,0.2-1.2,2.1-2.5,4.1c-1.2,2-4.6,7.2-7.5,11.4c-6.3,9.1-10.1,14.8-15.6,23.3c-2.3,3.5-4.2,6.4-4.3,6.4
	c-0.5,0.4-9.9,15.4-14.5,23.5c-14.6,25.2-20.4,37.3-31.2,65.7c-3.7,9.7-5.5,15.2-6.5,20.7c-0.6,3.3-0.6,11.9,0,16.2
	c0.3,1.6,0.4,3,0.4,3.1c-0.1,0.1-0.5-1.2-1-2.8c-1.1-3.6-2.2-9.1-2.2-10.9c0-3.5,1.8-11.9,3.7-17.6c1.7-4.9,8.6-22.4,11.3-28.7
	c8.4-19.6,19.2-39.4,34.5-63.1c6.7-10.4,15-22.9,17.9-27c1.4-1.9,2.5-3.6,2.5-3.7c0-0.5-7.3-12.8-10.5-17.9c-3.2-4.9-4-6.5-2.7-4.9
	c0.3,0.4-0.2-0.8-1.2-2.5c-9.3-16.8-19-35.4-30.1-57.3c-6.7-13.3-7.2-14.3-7.5-14.4c-0.4-0.1-5.1,9.3-8.1,16.3
	c-1.7,3.9-3.8,9.4-4.8,12.4c-1.8,5.2-5.9,18.9-5.9,19.5c0,0.4,3.8-7.6,5.4-11.3c2-4.9,5.6-10.9,6.7-11.2c0.3-0.1,0.2,0.1-0.2,0.5
	c-0.8,0.9-3.6,7.3-6.3,14.2c-0.7,1.7-2,5.1-3,7.5c-7.9,19.5-16.1,50.6-19.2,73.7c-2.6,18.8-3.6,28.3-4.5,42.3
	c-3.3,49.1-3.8,73.5-2,90.4c1,9.1,2.4,17.1,4.6,26c1.2,4.9,5.3,18.1,7.5,24.1l1.1,3.1h-3C98.3,710.6,96.9,710.5,96.8,710.4
	L96.8,710.4z M695.7,615.1c14.8-1.4,29.1-5.1,43.5-11.3c8.5-3.6,15-7.1,22.1-11.8c5.3-3.5,8.8-6.4,12.3-10c5.2-5.4,7.5-9,9.6-15.2
	c2.5-7.3,2.3-15-0.6-24.4c-1.5-4.8-4.3-12.5-5.8-15.5c-1.8-3.8-5.9-11.4-8.5-15.6c-1.3-2.1-3.3-5.4-4.4-7.4
	c-2.6-4.4-3.6-5.7-2.2-2.9c0.5,1.1,0.9,2.1,0.9,2.1c-0.1,0.1-1.5-2-3.2-4.6c-3.9-5.9-5.6-8-10.5-12.8c-6.2-6.2-11.6-10-22.2-15.6
	c-5.9-3.1-16.4-7-28.1-10.5c-5.2-1.5-25.5-6.1-34.3-7.7c-5.5-1-17.1-2.6-23.5-3.1c-2.6-0.2-5.1-0.5-5.5-0.6s-1.9-0.2-3.4-0.3
	c-1.5-0.1-3.1-0.2-3.4-0.3c-0.6-0.1-14.3-1.4-24.3-2.3c-3.5-0.3-14.4-1.5-17.4-1.9c-1.1-0.1-3.4-0.4-4.9-0.5s-4.5-0.5-6.4-0.7
	c-4.2-0.5-14.5-1.4-18.2-1.7c-1.4-0.1-3.2-0.2-4-0.3c-0.8-0.1-6.4-0.1-12.5-0.2c-9.8,0-14.3,0.1-31.4,1c-20.6,1.1-47.2,0.5-73.6-1.5
	c-15.8-1.2-31.8-2.8-38.5-3.8c-10.8-1.6-15.7-2.2-22.2-2.6c-3.6-0.2-7.1-0.5-7.7-0.7c-1.1-0.2,8.2-0.4,15.1-0.3
	c3.2,0,11.3,0.6,13.4,1c1.9,0.3,18.1,1.4,26.6,1.8c7.6,0.4,16,0.8,18.4,0.9c9.7,0.6,50.1,0.8,59.5,0.2c3.2-0.2,6.5-0.4,7.4-0.5
	s2.7-0.2,4-0.3c1.3-0.1,4.9-0.3,8-0.6c3.1-0.2,7.6-0.5,10-0.7c5.6-0.4,24.3-0.5,29.3-0.2c5.8,0.3,10.4,0.6,13.7,0.9
	c0.6,0.1,2.5,0.2,4.3,0.3l3.2,0.2l1.2-3.1c2.5-6.5,8.8-20.2,12.9-27.7c2.3-4.2,4.2-8,4.3-8.4c0.1-0.4,1-2.5,2-4.6c1-2.1,1.8-4,1.7-4
	c-0.1-0.1-0.4-0.2-0.6-0.2c-0.2,0-1.5-0.7-2.9-1.5c-3.7-2.3-7.5-4.1-14.1-6.7c-3.2-1.3-5.7-2.3-5.6-2.4c0.1,0,2.6,0.6,5.6,1.4
	c2.9,0.8,5.4,1.4,5.4,1.4c0.1-0.1-3.6-2.5-6.5-4.2c-2.2-1.3-11.8-6-14.9-7.3c-1-0.4-1.8-0.8-1.7-0.9c0.1-0.1,1,0.2,2.1,0.6
	c4.5,1.6,11.6,4,11.8,3.9c0.7-0.2-8.7-5.7-15-8.7c-14.7-7-31-11.7-49.9-14.2c-9.9-1.3-18.1-1.4-29.3-0.1c-3.5,0.4-6.7,0.8-7.1,0.9
	l-0.7,0.1l0.8,0.5c0.4,0.3,1,0.8,1.3,1.1s1.1,1,1.7,1.4s1.1,0.9,1,1c-0.1,0.1-0.9,0.1-1.7-0.2c-3.1-0.8-3.2-0.8-3.9,0.3
	c-4.6,6.4-16,18.7-22.1,23.7c-7.4,6.2-19.4,14.2-26.7,18c-10.5,5.4-26.3,10.1-39.5,11.8c-8.8,1.2-12.5,1.4-18.4,1
	c-12-0.7-18.2-1.6-27.5-4c-2.1-0.5-3.9-0.9-4-0.7c-0.3,0.3-2.8,9.2-2.8,9.8c0,0.1,0.5,0.5,1.2,0.8c5.1,2.9,7.7,4.3,10.9,5.8
	c6.7,3.1,10.3,5.3,13.1,8c3.3,3.2,4,5,4.3,10.5l0.2,3.6L366,440c-0.9-1.8-4.5-6.3-7.1-8.7c-2.6-2.5-6.4-4.9-12.3-7.8
	c-2.9-1.4-6.9-3.8-21.2-12.3c-3.3-2-6.8-4-7.7-4.5c-0.9-0.5-3.4-2-5.5-3.4c-2.1-1.4-4.3-2.7-4.9-2.9c-0.6-0.2-3.6-1.5-6.6-2.9
	c-7.3-3.4-10.6-4.5-14-4.7c-4.4-0.2-7.3,0.8-10.1,3.7l-1.5,1.5l0.7,0.4c1,0.5,0.9,0.7-0.2,0.5c-0.9-0.2-1-0.1-1.8,1.2
	c-1.3,2-4.1,7.7-5.5,11.2c-1.7,4.2-3.4,9.9-4.9,16.6c-3.5,15.8-5,27.8-3.9,32c0.5,2.1,1.8,4.1,4,6.2c1.9,1.9,3.2,2.8,7.8,5.7
	c5.5,3.4,13.2,6.3,18.1,6.7c2,0.2,4.4,0.1,4.6-0.2c0.1-0.1,1.4-2,3-4.4c3.9-5.8,8.6-12.5,11.8-17c1.5-2.1,2.9-4.1,3.1-4.6
	c0.2-0.5,0.7-1.2,1.1-1.6l0.7-0.8l-1-0.2c-0.5-0.1-2.3-1.1-3.9-2.2c-3.3-2.2-5.4-3-8.3-3c-2.2,0-3.3,0.4-3.9,1.6
	c-0.3,0.5-0.4,0.7-0.3,0.4s0.1-0.5,0-0.5c-0.2,0-2.8,4-3.7,5.7c-1.1,2.1-1.1,1.4,0-1.7c0.8-2.4,2.6-5.7,3.6-6.6
	c0.3-0.3,0.9-1.5,1.3-2.7c1-3.1,2.3-5.5,4.1-7.4l1.5-1.6l-0.6,2.3c-0.3,1.3-1.1,3.3-1.8,4.5c-0.6,1.2-1.1,2.2-1,2.2s0.5-0.1,1.1-0.3
	c2.4-1,5.9-0.8,8.7,0.6c2,1,4.8,3.8,5.2,5.3c0.3,1.3,0.1,3.4-0.4,4c-0.2,0.2-0.4,0.7-0.4,1.2s-0.4,2.3-1,4.2
	c-1.6,5.5-4.7,11.5-9.3,17.9c-5.7,7.9-7.1,9.4-9.5,10.1c-0.3,0.1-0.4,0.7-0.4,2.2l-0.1,2.1l0.8-0.2c0.5-0.1,1.8-0.5,3-0.8
	c1.2-0.3,3.5-0.7,5.1-0.8c4.4-0.3,4.8-0.3,2.8,0.3c-5.2,1.5-6.8,1.9-10.7,2.8l-1.5,0.3l-1.2,2.3c-3.9,7.5-8.5,10.7-14.7,10.1
	c-1.9-0.2-7.6-1.6-11.8-2.9L263,498l-1.9,2c-1,1.1-1.9,2.1-1.9,2.2c0,0.4-3.8,2.6-5,3c-1.7,0.4-4.7,0.2-5.9-0.4
	c-0.8-0.4-1-0.4-1.2-0.1c-0.6,0.8-3.1,2.4-4.8,3.1c-1.9,0.8-3.3,0.9-4.6,0.4c-0.4-0.2-0.8-0.2-0.8-0.2c0,0,0,0.7,0.2,1.4
	c0.2,0.8,0.2,3,0.1,5.3c-0.2,4.3-0.2,4.3-1.1-1.6c-0.5-3.7-1.3-6.2-3.1-10c-3.4-7.1-6.1-9.4-14-12.2c-3.8-1.3-10.7-1.7-10.7-0.6
	c0,0.2-0.2,0.3-0.4,0.2c-0.6-0.2-1.4,0.9-1.8,2.2c-0.5,2-0.3,7.1,0.5,16.8c0.5,5.1,0.9,11.3,1,13.8c0.1,2.9,0.3,4.7,0.6,5.1
	c1,1.5,3.7,2.6,9.3,3.5c4.7,0.8,4.4,0.8,15.8,0.4c5-0.2,17.9-0.3,28.8-0.4c19.9,0,22.3-0.1,34.8-1.3c4.4-0.4,10.3-1.3,11.6-1.8
	c1.5-0.5,3-1.2,4.1-1.9c0.5-0.3,2.2-1.2,3.7-2c4.2-2.2,9.1-5.2,10.7-6.6c0.8-0.7,3.3-3.2,5.6-5.6c4.9-5.2,7.3-7.3,8.2-7.4
	c2-0.2,7.7-0.1,10.6,0.2c5.4,0.5,9.6,1.3,19.3,3.7c15.6,3.9,26,6.1,42.9,9.3c23.3,4.4,38.9,7.9,49.6,11.1
	c13.7,4.1,40.1,14.2,54.9,20.9c1.7,0.8,4.1,1.8,5.4,2.4c3.3,1.4,16.3,7.9,21.1,10.4c2.2,1.2,6.2,3.3,8.9,4.7
	c11.1,5.7,25.7,13.5,36.3,19.4c8.5,4.7,16.6,8.4,29.8,13.6c17.7,7,28,9.8,45.8,12.7c7.7,1.3,9.8,1.5,14.3,1.7
	c2.1,0.1,3.9,0.2,3.9,0.3C684,615.7,692.8,615.4,695.7,615.1L695.7,615.1z M332,474.4c-0.8-0.1-2.1-0.1-2.9-0.1
	c-0.8,0.1-2.1-0.1-3.1-0.3c-3.7-1-5.8-3.1-7.8-7.7c-1-2.3-2-6.4-1.8-6.6c0,0,0.5,0.7,0.9,1.7c1.2,2.6,3.5,4.8,7.4,7
	c1.7,1,3.9,2.5,4.9,3.3c1,0.9,1.8,1.6,1.8,1.6c0,0,0.8,0.3,1.7,0.7C334.9,474.7,334.7,474.8,332,474.4L332,474.4z M239.7,507
	c1.8-0.4,2.8-0.9,5-2.3l1.4-1l-2.4-1.6c-3.2-2.1-5.2-3.8-9.9-8.4c-4.4-4.3-6.7-7.1-9.7-11.7c-3.9-5.9-5.8-10.1-7.3-15.6
	c-0.7-2.6-0.7-3.4-0.8-7.4c0-4.2,0.1-4.7,0.9-8.1c1.9-7.5,5.6-15.9,9.5-21.9c1.9-3,6.1-7.8,9.7-11.1c3.4-3.1,8.4-7.3,10.6-8.7
	c1.4-0.9,1.5-1,1.8-2.8c0.4-2.2,1.8-6,3.4-9c0.7-1.2,3.3-5.4,5.8-9.3c2.5-3.9,6.6-10.5,9.1-14.7c5.6-9.4,5.5-9.3,7-10.6l1.2-1
	l-1.2-1.8c-1.3-2-2.6-4.4-3.8-7.2c-0.9-2.1-0.8-2.1-1.4-1.6c-0.2,0.2-1.3,0.4-2.4,0.5c-1.1,0.1-3,0.2-4.2,0.4
	c-2.6,0.3-2.6,0.3-2.6,0c0-0.1,1.3-0.8,2.9-1.4c1.6-0.7,2.8-1.2,2.8-1.3c0,0-1.3-0.2-2.8-0.4s-4.8-0.6-7.4-0.9
	c-9.4-1.1-18.2-1-27.8,0.3c-17.2,2.3-32.2,6.4-46,12.5c-4,1.8-10,4.8-9.9,4.9c0.1,0.1,1.3-0.1,2.8-0.4c3.5-0.7,12-2,12.1-1.8
	c0.1,0.1-0.6,0.3-1.4,0.4c-0.8,0.2-3.1,0.8-5.1,1.4c-2,0.6-4.1,1.1-4.6,1.2c-1.1,0.1-6.2,2-16.2,6.1c-8.4,3.4-9.3,3.8-13.5,6.2
	c-2.6,1.5-3.4,2.1-2.9,2.1c0.6,0,8.4-1.4,10.4-1.9c3.4-0.8,9.5-2,9.6-1.9c0.1,0.1-6.7,2.6-8.3,3c-1.2,0.3-7.1,2.3-14.6,4.9
	c-2,0.7-4.8,1.8-6.1,2.4c-2.5,1.1-6.2,3.3-6.2,3.6c0,0.1,0.5,0.8,1,1.5c3.3,4.1,12,20.3,30.6,56.9c7.4,14.6,16.1,31.6,18.7,36.5
	c5.1,9.6,6.6,12.4,6.8,12.4c0.2,0.1,7.5-10.1,11.2-15.6l3-4.4l-0.1-2.3c-0.2-2.9,0.6-5.9,2.8-10.3c2.2-4.5,6.7-11.6,11.5-18
	c1.8-2.4,4.2-5.6,5.3-7.1s2.2-3.1,2.6-3.4l0.6-0.7l-0.5,0.8c-1.7,2.9-3.7,5.9-6.8,10.7c-2,3-4.1,6.3-4.7,7.3c-0.6,1-1.3,2-1.5,2.3
	c-0.9,1-3.2,5.2-4.6,8.5c-2.6,6.1-3,9.2-1.5,12.6c0.8,1.8,5.2,8.6,5.5,8.6c0.1,0,0.8-0.3,1.7-0.6c1.9-0.7,5.3-1,7.7-0.6
	c3.8,0.7,9.2,3.4,12.4,6.3c2.8,2.5,5.7,7.4,7,11.9c0.3,1.1,0.6,2.1,0.7,2.3C236.8,507.4,237.6,507.4,239.7,507L239.7,507z
	 M255.6,499.8c0.7-0.2,2.1-0.5,2.9-0.7s2.1-0.5,2.7-0.8l1.2-0.5l-4.8-2.4c-5.6-2.8-7.4-4-11.2-7.7c-4.7-4.5-6.9-7.9-9.5-14.3
	c-3-7.5-3-16.6-0.2-28.5c2.2-9,7.1-22.1,12.6-33.3c0.8-1.7,1.6-3.3,1.6-3.4c0.2-0.4-1.5,0.6-2.3,1.3c-0.4,0.4-0.6,0.7-0.5,0.9
	c0.1,0.1,0,0.1-0.1,0c-0.2-0.1-0.9,0.2-1.6,0.9c-0.7,0.6-1.4,1.1-1.6,1.2c-0.7,0.2-7.8,7.2-11.1,10.9c-4.1,4.6-6.3,7.7-8.3,11.9
	c-7.5,15.6-8.3,25.6-2.9,36.2c3.2,6.3,8.1,12.7,13.2,17.3c6.3,5.6,9.3,7.9,13.8,10.2C251.9,500.4,253.3,500.5,255.6,499.8
	L255.6,499.8z M283.3,497.6c2.2-0.7,6.4-5.4,6.6-7.2c0-0.2,0.3-0.8,0.5-1.2c0.5-0.8,1.2-4.7,0.9-5c-0.1-0.1-1-0.3-1.9-0.4
	c-2.5-0.3-5.7-1.5-9.5-3.4c-4.1-2.1-7-4-11.1-7.3c-7.8-6.3-10.5-10.1-10.8-15.3c-0.4-6.6,3.7-29.7,7.4-41.2c1.6-5.1,4.6-12,7-16.1
	c0.8-1.4,1-2,0.8-2.1c-0.2-0.1-2.2-0.1-4.4,0c-6.1,0.3-8,1.2-11.9,5.7c-3.3,3.7-4.8,6.5-8.2,14.8c-4.1,10.1-7.5,22.3-8.9,31.3
	c-0.8,5.1-0.8,12,0,15.5c0.7,3.2,3.4,8.9,5.8,12c1.9,2.6,5.9,6.4,9,8.8c6.8,5.1,21.1,11.6,25.8,11.6
	C281.2,498,282.5,497.8,283.3,497.6L283.3,497.6z M724,465.8c-3.1-2.2-16.7-10.8-24.1-15.4c-5.1-3.1-11.2-6.9-13.6-8.4
	c-5.5-3.4-10.1-6.2-18.1-10.8c-3.5-2-8.2-4.8-10.4-6.2c-4.8-2.9-11.5-6.9-18.2-10.8c-2.7-1.6-5.9-3.5-7.1-4.2
	c-1.2-0.7-5.6-3.4-9.7-5.9s-8.6-5.3-9.9-6.1l-2.4-1.5l1.9,3.1c2.2,3.5,5.1,9.4,7.6,15.1c3.6,8.4,7.2,17.4,7.2,18
	c0,0.3-0.3,1.9-0.6,3.5l-0.6,2.9l-1.3-4.1c-2.6-8.1-6.6-18.3-10.8-27.1c-2-4.3-7.3-14.3-7.9-15c-0.2-0.2-0.5-0.8-0.6-1.2
	c-0.3-1.1-0.8-1.1-1.1,0c-0.4,1.2-3.1,5.3-3.8,5.8c-1.7,1.2-6.6,11.4-12.7,26.6c-3.5,8.7-4.4,11.4-4,11.5c0.2,0.1,2.2,0.3,4.6,0.6
	c2.3,0.2,5.9,0.6,7.9,0.8c3,0.3,10.8,1.1,16.4,1.6c0.8,0.1,3.3,0.3,5.8,0.6c2.4,0.2,5.1,0.5,6,0.6c2,0.2,2.1,0.2,11.2,1.1
	c21.8,2.2,34.9,5,55.9,11.9c9.8,3.3,22,8.2,29.7,11.9C724,466.1,725.1,466.5,724,465.8L724,465.8z M338,402.6
	c1-4.2,2.3-8.3,3.2-10.7c1.5-3.9,7.3-14.1,12.6-22.2c0.7-1.2,0.9-1.5,0.6-1.7c-0.4-0.3-3.9-1.4-8.2-2.6c-1.7-0.5-3-0.9-2.7-0.9
	c0.2,0,4.7-0.1,10-0.1c8.1-0.1,9.7-0.1,10.4-0.5c0.8-0.4,3.3-2.9,5.6-5.7c1.6-1.9,6.5-8.5,14.8-20.2c8.8-12.3,9.4-13.2,11.3-17
	c0.9-1.8,3-5.6,4.7-8.4c1.7-2.8,4-6.8,5.2-8.9c1.8-3.2,4.7-8.1,9.3-15.7c1.5-2.5,4.8-9.3,5.5-11.5c0.8-2.5,0.8-4.4-0.1-7
	c-1.1-3.1-2-4.4-4.9-7.4c-3.1-3.1-3.1-3.1-12.2-16.5c-5.7-8.4-6.5-9.7-10-15.6c-1.9-3.2-3-4.7-3.2-4.2c-0.1,0.3-1.1,2-3.2,5.2
	c-2.3,3.6-4.2,8.9-5,14c-0.5,3.5-0.5,11.1,0,13.6c0.8,3.7,4,10.6,5.8,12.5c1.1,1.1,1.2,1.4,1.1,2.2c-0.2,1.5-3.7,5.7-9.8,12
	c-2.2,2.3-4.6,4.9-5.2,5.8c-1.8,2.4-3.6,5.1-3.4,5.1c0.1,0-0.1,0.3-0.5,0.8c-0.4,0.4-1,1.2-1.3,1.7s-1.1,1.1-1.6,1.5
	s-1.5,0.9-2.1,1.2c-0.6,0.4-3.1,1.4-5.5,2.2c-7.5,2.6-11.3,4.8-18.4,10.5c-4.7,3.8-9.3,8.2-11.9,11.5c-1,1.2-1.8,2.2-1.9,2.2
	c-0.1-0.1,1.9-4.5,2.8-5.8c0.9-1.4,0.9-1.5-0.1-1.2c-1.3,0.4-3.1,0.1-4.2-0.7c-0.5-0.4-1.4-1.4-2-2.3c-0.6-0.9-1.3-1.9-1.7-2.4
	c-0.4-0.4-1-1.5-1.5-2.5l-0.8-1.7l-1.3,3.4c-0.7,1.8-1.5,3.5-1.6,3.7c-0.4,0.5-0.4,0.4,1.6,3.1c3.4,4.8,4.5,7.3,5.7,12.8
	c0.4,2,0.8,3.8,0.8,4.1c0.2,1.1-0.2,0.1-1-2.1c-1.9-5.4-4.4-11.4-6.1-14.3c-0.8-1.4-1.4-2.5-1.5-2.6c-0.1-0.1-0.4,0.1-0.7,0.4
	c-1.6,1.5-3.6,1.8-6.2,1c-1.8-0.5-3.7-2-5.7-4.2c-5.3-6.1-6-14.5-2.4-26.8c1-3.4,1.1-3.7,0.7-4.7c-0.4-1.1-3.4-6.3-5.7-9.6
	c-2-3-0.9-2,2.1,2c1.4,1.9,3.2,4.1,4,5c2.8,3.2,2.8,3.5,1.6,8.4c-1.3,5.1-1.8,8.9-1.6,12.7c0.2,3.9,0.6,5.5,2.1,8.5
	c2,4.1,5.1,6.7,8,6.8c1.8,0,2.4-0.8,4.4-6.3c1.7-4.6,4.4-9.4,10-17.7c2.6-3.9,5.2-7.9,5.6-8.8c0.8-1.6,0.9-1.9,0.9-4.3
	c0-4.1-1.3-8.3-4.6-15.2c-3.9-8.2-9.2-14.4-14.3-17c-3.8-1.9-6.9-2.6-12.7-2.8c-5.4-0.2-14.2,0.7-16,1.6c-0.3,0.2-1,0.3-1.4,0.4
	c-1.3,0.1-7.3,2.4-9.2,3.6c-3,1.7-7,5.8-8.6,8.5c-2.3,4-3.3,7.4-4.3,15.1c-1,7.3-1.3,12.5-1.3,22.2c0,11.9,0.6,18.2,2.4,26.6
	c1.9,8.7,4.9,18.8,7.6,25c3,7,4.7,10,6.7,11.6c3,2.4,8,5,12.6,6.4c1.9,0.6,3.4,1.2,3.4,1.2c0,0-2.1-0.3-4.6-0.8
	c-6.1-1.2-9-2.3-11.7-4.5l-1.4-1.1l-0.5,0.6c-1.3,1.4-3.4,5.2-7.5,13.2c-2.4,4.7-5.3,10.1-6.6,12.1c-6.8,10.5-9.4,14.9-11.1,18.8
	l-0.3,0.7l1-0.3c0.7-0.2,1.3-0.8,2.4-2.3c4.1-5.5,7.3-8.3,11.2-9.6c3.1-1.1,5.7-0.7,9,1.3l1,0.6l1.8-1.8c2.3-2.2,3.7-3.1,6.6-3.8
	c2.8-0.7,5.6-0.6,9.6,0.4c4.5,1.1,12.6,4.5,16.3,6.9c1.1,0.7,3.3,1.8,4.9,2.5s3.3,1.5,3.9,1.7c0.6,0.3,2.1,0.9,3.3,1.4
	c1.2,0.5,4.5,2.1,7.4,3.7c2.9,1.6,5.8,3.1,6.6,3.5l1.4,0.7l0.6-3.3C336.8,407.5,337.5,404.5,338,402.6L338,402.6z M128,404.3
	c1.2-2,2.3-4.2,2.1-4.2c-0.2,0-2.2,3.2-2.7,4.5C127.2,405,127.8,404.7,128,404.3z M384.9,403.8c5.8-0.5,8.6-0.8,12.8-1.5
	c9.8-1.7,20.8-5,29.4-8.7c7.4-3.3,22.6-13.2,30.3-19.9c7-6,20.7-21,19.7-21.6c-0.1-0.1-1.4-0.4-2.9-0.7c-3.3-0.7-6.7-2.3-12.8-5.9
	c-5.1-3-9.6-5.6-9.8-5.6c-0.1,0-0.9-0.5-1.9-1.1s-1.9-1.1-1.9-1.1c-0.2,0-7.8-3.3-8.9-3.8c-2-1-5.7-5.9-8.2-10.8
	c-2.4-4.7-4.2-11.7-5.3-20.1c-0.2-1.9-0.6-3.6-0.7-3.9c-0.1-0.3-0.3-1-0.3-1.7s-0.1-1.8-0.2-2.4c-0.2-1.5-0.4-1.5-3.8,0.1
	c-3.9,1.8-4.8,2.2-5.1,2.2c-0.3,0-1.7,2-4,5.8c-2,3.2-12,18.2-15,22.5c-1.2,1.7-3.8,5.7-5.8,8.9c-2,3.2-4.5,7.2-5.5,9
	c-2.1,3.4-9.6,14-12.3,17.3c-2.6,3.2-6.5,7-7.8,7.7c-2.6,1.3-5.7,1.7-7.7,1l-1-0.4l-0.6,1.4c-0.4,0.8-1.9,3.6-3.4,6.2
	c-7,12.5-11.5,21.9-10.5,22.5c0.5,0.3,11.2,2.9,14.1,3.4c4.4,0.7,10,1.4,14.9,1.7c1.6,0.1,2.9,0.2,3,0.3
	C373.9,404.3,380.5,404.2,384.9,403.8L384.9,403.8z M397.8,376.8c2-2.7,3.9-5.8,4.4-7c2.5-5.8,4.7-13.2,6.4-21.6
	c2-10.3,4.8-26.4,7.2-41.8c0.4-2.6,0.9-4.7,1-4.7c0.1,0,0.2,0.3,0.1,0.8s-0.3,2.3-0.6,4.2c-2,16-3.5,25.8-6.1,38.2
	c-2.2,11.1-3.2,14.6-5.8,21.2c-2,5.1-3.5,7.5-6.7,11.1l-0.9,1L397.8,376.8z M332.9,316c2.7-5.2,9.7-11.8,15.7-14.8l1.7-0.8l0.2-4.7
	c0.4-9.3,0.1-17.1-0.8-29.7c-1-13.2-2.3-19.8-4.8-24.9c-1.8-3.6-3.6-4.6-8.7-5.3c-2.6-0.3-3.8-0.4-6.4-0.1
	c-6.4,0.6-10.9,1.4-19.3,3.5c-2.4,0.6-6,1.4-7.9,1.8c-4.9,1-6.5,1.4-8,2.2c-0.7,0.4-1.1,0.6-0.8,0.6c2.7-0.7,7.2-1.1,11.2-1.1
	c5.2,0,7.6,0.4,11,2c4,1.9,8.2,5.6,11.1,10c4.7,7,8.8,18.1,9.2,24.7c0.3,4.8-0.6,6.8-6.1,14.6c-1.5,2.2-3.5,4.9-4.3,6.2
	c-2.1,3-6,9.7-6,10.4c0,0.6,2.4,3.5,4,4.8c1.1,0.9,2,1.3,3.1,1.6c1.2,0.3,3,0.9,4.6,1.6C331.6,318.4,332.2,317.3,332.9,316
	L332.9,316z M353.1,298.9c2.9-1.3,10.4-3.4,11.9-3.3l1.3,0.1l1.9-2.8c1.1-1.5,2.4-3.4,3-4.1l1.1-1.3l-0.2-4.4
	c-0.1-2.4-0.6-7.8-1.1-11.9s-1.4-12-1.9-17.6c-1.7-17.6-3.2-23.7-6.5-26.2c-1.1-0.9-2.3-1.2-4.9-1.4c-3.5-0.3-16.2-0.2-18.8,0.1
	c-2.5,0.3-7.8,1.9-10.5,3.3l-1.5,0.7l1.1,0.1c6.7,0.4,11.5,1.2,13.6,2.3c3,1.5,5.3,5,7.2,10.9c2.7,8.3,3.9,21.1,3.6,36.9
	c-0.2,9.6-0.3,11.3-0.9,15.2c-0.4,2.7-0.5,4.2-0.3,4.2C351.3,299.7,352.2,299.3,353.1,298.9L353.1,298.9z M423,285.4
	c0.6-0.4,1.8-1,2.7-1.5c6.8-3.4,16.5-11.7,22.4-19c15-18.7,23.3-45.3,25.7-82.1c0.5-6.9,0.5-29.2,0-35.8
	c-2.1-30.7-8.3-53.9-19.2-72.2c-3.6-6-8.6-12.6-12.8-16.7l-1.6-1.6l-1.8,0.6c-2.5,0.8-4.8,1.2-8.9,1.8c-3,0.4-4.9,0.4-11.7,0.3
	l-8.1-0.2l-1.6,0.8c-9,4.5-21.9,8.2-31.9,9.1c-5,0.4-7.9,0.3-10-0.7l-1.6-0.7l3.2,0.2c9.2,0.5,22.2-2.7,36.1-8.8
	c0.7-0.3,1.1-0.7,1-0.9c-0.1-0.2,0.1-0.3,0.6-0.3c1.3,0,10-5.3,13.7-8.5c2.4-2,9.2-9.1,11.7-12.2c1.1-1.3,2-2.3,2-2.3
	c0.5,0.5-6.6,12-8.6,14c-2,2-5.9,4.9-9,6.9c-1.7,1-3.1,1.9-3.1,2c0.1,0.1,4.8-0.2,10.3-0.6c10.9-0.8,20.3-4.5,27-10.5
	c0.6-0.6,2-1.6,3-2.3c1-0.7,3.2-2.5,4.8-4c1.6-1.5,3-2.7,3.1-2.7c0.3,0.3-7,11-8.5,12.4c-1,0.9-3.8,2.9-6.2,4.4
	c-0.5,0.3-0.3,0.5,1.6,2.5c3.4,3.5,6.3,7.1,9.4,11.7l1.3,1.8l1.3-1.1c1.4-1.1,3-2.8,5-5.2c7.9-9.6,18.4-33.4,21.8-49.7
	c0.9-4.1,1.2-8.3,0.7-9.5c-0.3-0.8-0.4-0.8-1.2-0.5c-0.5,0.2-2.1,1.5-3.6,2.9c-8.4,7.9-19.4,15.7-22.1,15.7c-0.8,0-1.3-0.6-1.3-1.6
	c0-0.3,0.8-2.7,1.8-5.3s2.2-5.7,2.6-7c0.8-2.2,1.6-6.3,1.3-6.5c-0.2-0.2-2.1,1.9-5.9,6.3c-3.2,3.7-8.1,8.4-10.8,10.2
	c-3.6,2.4-8.1,4.1-13.2,4.8c-5.7,0.8-8.6,0.9-37.5,1.4c-15.5,0.2-20.9,1.1-32,4.9c-5.1,1.8-9.4,3.4-15.3,6c-1.6,0.7-2.9,1.2-2.9,1.2
	c0-0.2,4.4-3.2,6.7-4.5c1.3-0.8,3.2-1.8,4.3-2.3c4.8-2.2,8.1-3.7,9.4-4.2c1.3-0.5,1.3-0.5,0.7-0.8c-1-0.4-14.4-0.4-17.5,0.1
	c-11.1,1.6-21.3,5.3-29.9,11c-7.1,4.7-10.7,8-15.7,14.3c-3.3,4.1-6,7.8-6,8c0,0.1,0.2,0.2,0.4,0.2c0.3,0.1-0.2,0.8-1.4,2.1
	C287.3,72.6,279.8,88,275,106.6c-2.5,9.6-4,19.7-5.2,32.9c-0.6,6.6-0.8,27.9-0.4,36.2c1.3,27.4,6.2,50.1,14.8,68.6
	c0.4,0.8,0.7,1.6,0.8,1.6c0,0,1.3-0.3,2.9-0.8c2.1-0.6,3.1-1.1,4.1-1.9c3.4-2.8,7.3-4.8,16.1-8.1c8.7-3.3,11.4-4.2,14.2-4.5
	c2-0.2,2.6-0.4,3.7-1.2c2.7-1.9,7.8-4.2,11.5-5.2c2.4-0.6,9.7-1.6,14.1-1.8l3.1-0.2l1.6-1.6c1.2-1.2,2.4-2,4.4-3
	c3.6-1.7,5.9-2.3,9.5-2.3c3.2,0,4.5,0.4,6.6,2c0.9,0.7,3.6,4.3,3.6,4.7c0,0.1,0.5,1.2,1.1,2.4s1.2,2.7,1.3,3.3c0.1,0.6,0.3,1,0.4,1
	c0.1,0,0.8-0.8,1.5-1.8c1.3-1.8,3.2-3.4,4.1-3.4c1.8,0,9.4,4.3,11.8,6.7c2.5,2.6,6.3,8,10.9,15.8c2.4,4,4.9,8.1,5.7,9.2
	c7.1,10.2,8.6,13.3,9,18.3c0.2,2.7-0.2,4.4-2.4,8.3c-1.7,3.1-2.2,4.1-1.8,4.1C421.9,286,422.4,285.7,423,285.4L423,285.4z
	 M378.3,280c2.2-2.8,4.7-5.9,5.6-6.9l1.7-1.8l-1.7-1.9c-3.6-4.1-5.5-7.7-6.4-11.8c-0.7-3.4-0.7-11.2,0.1-14.9
	c0.7-3.3,1.9-6.7,3.5-10.2l1.2-2.6l-1.3-2.5c-2.4-4.6-5.8-8.1-8.5-8.6c-1.6-0.3-7.8,0.1-9.3,0.6c-1.9,0.6-6.5,2.4-6.8,2.6
	c-0.1,0.1,0.9,0.3,2.2,0.5s2.9,0.6,3.5,0.9c3.5,1.7,5.5,5.6,7,13.4c0.9,5,1.4,9.3,4.1,38.1c0.2,1.7,0.3,4.9,0.3,7
	c0,3.1,0.1,3.7,0.4,3.4C374.2,285.2,376.2,282.8,378.3,280L378.3,280z"/>
<path id="path1979" inkscape:connector-curvature="0" d="M943.3,709.8c0.1-0.4,0.3-2.2,0.4-4c0.5-6.2,2.2-19.7,3.3-26.9
	c1.9-12.6,2.9-17,9.4-44c4.6-19.2,7.1-30.2,7.4-32.6c0.1-0.8,0.6-3.3,1.1-5.5c0.5-2.3,0.9-4.2,0.9-4.2c0,0-0.6-0.4-1.3-0.8
	c-0.7-0.4-2.2-1.7-3.3-2.9c-1.1-1.2-2.1-2.1-2.3-2c-0.1,0.1-0.2,0-0.1-0.2c0.1-0.2-0.2-0.9-0.6-1.6c-3-4.8-3.7-9.1-2.2-14.9
	c0.5-1.9,1.5-4.1,5.5-12.6c0.9-1.9,2.1-4.4,2.6-5.5c0.5-1.1,2.2-5,3.8-8.6c1.7-3.8,3.4-8.1,4-10.3c0.6-2.1,1.4-4.6,1.8-5.6
	c1-2.6,4.4-9.5,5.5-11.2c0.8-1.2,5.9-7.8,9.2-11.6c0.5-0.6,1-1.8,1.4-3.3c0.4-1.3,1.4-3.9,2.2-5.6c1.3-2.7,1.8-3.4,3.6-5.2
	c1.1-1.1,3.1-2.8,4.3-3.7c2.8-2.1,9.7-5.6,11.2-5.6c0.8,0,1.3-0.3,2.4-1.2c0.8-0.7,1.9-1.5,2.5-1.8c1.3-0.7,9.3-2.7,10.7-2.7
	c0.5,0,1.1-0.1,1.3-0.2c0.2-0.1,0.5-1.9,0.8-3.9c1.2-9.3,3.4-17.8,7.5-28.1c0.8-1.9,1.8-4.2,2.2-5.1c1.3-2.6,4-6.3,5.9-8.4
	c1.1-1.2,1.5-1.5,1.1-0.9c-2.7,3.8-3.9,5.9-6.7,12c-1.9,4.1-4.6,15-5.7,22.7c-0.6,4.3-0.8,15.1-0.4,18.5c0.6,4.5,3.5,15.1,5,18.3
	l0.9,1.8l-1.7-1.7c-0.9-0.9-2.3-2.3-3.1-3.1c-2.7-2.6-4.8-8.4-5.5-15.1c-0.2-1.7-0.2-3.9-0.1-4.9c0.2-1.7,0.1-1.9-0.4-1.9
	c-0.8,0-9.3,3-10.8,3.8c-0.7,0.4-1.8,1-2.3,1.2c-2.7,1.5-5.1,6.8-6.3,14.2c-1.1,6.9-1.2,20.1-0.3,28.5c0.7,6.3,2.6,13,5,17.3
	c2.2,4.1,6.9,9,10.3,11c4.6,2.6,8.1,3.3,16.1,3.3c6.9,0,9.5-0.5,10.5-2c0.5-0.7,2.1-4.8,2.1-5.3c0-0.2-0.7-0.4-1.6-0.6
	c-0.9-0.2-2.7-0.9-4.2-1.6c-3.3-1.6-6-4.2-7.3-7c-2.1-4.4-2.2-10.4-0.5-21c0.9-5.3,1-6.6,1-10.8c0-3.3-0.1-5.3-0.4-6.6
	c-0.5-2.1-0.4-2.4,0.2-0.8c1,2.8,1.8,8.1,1.8,13.2c0.1,6.7,0.7,15.3,1.4,18.4c1.1,5,4,7.9,9.9,9.9c3.3,1.1,4.1,1.5,5.4,2.6
	c0.7,0.5,1.4,1,1.5,1c0.2,0,0.5-0.8,0.6-1.8c0.7-4.2,1.6-6.4,5.7-14c4.8-9,7.2-14.3,9.3-21c0.8-2.5,1.4-4.4,1.5-4.2
	c0,0.2-0.5,2.5-1.1,5.2c-1.1,5-1.9,7.6-3,10.1c-0.3,0.8-1.9,5-3.6,9.5c-2.9,8-3.9,11.3-3.9,14c0,6.5,4.4,11.8,11.5,13.9
	c1.8,0.5,3,0.7,5.4,0.7c3.1,0,5,0.4,6.3,1.2l0.7,0.4l0.2-1.2c0.6-4,2.1-7.9,7.6-19.3c2-4.2,3.9-8.2,4.1-8.8
	c3.5-8.8,4.5-12.1,4.9-16.4l0.2-2.2l0,2.1c0.1,3.1-0.7,7.8-1.9,11.7c-1.2,4-4.1,12.2-5.7,16.6c-2.2,5.6-4.4,12.7-4.8,15.3
	c-0.4,2.2-0.4,3-0.1,4.8c0.9,5.9,5.1,10.3,10.9,11.5c3.6,0.7,7.5,0.1,12-1.9c1.3-0.6,2.8-1.1,3.4-1.1c1,0,2.8-0.8,3.8-1.6
	c0.3-0.2,0.1,0.2-0.5,1.1c-1.9,2.7-2.3,3.4-2.3,3.7c0,0.3,8.8,2.5,13.6,3.5c4.4,0.8,6.3,0.9,8.8,0.4c3.3-0.7,5.2-1.7,7.4-4.1
	c2.4-2.6,3.9-4.8,6.8-10.4c4.4-8.5,6.4-14.2,9.9-29c1-4.1,2.8-11.1,4.2-15.5c1.3-4.4,2.7-9.2,3.2-10.7c1.1-3.8,1.9-7.7,2.1-10.9
	l0.2-2.8l-1.1-2.7c-0.6-1.5-1.4-3.6-1.7-4.6c-1.7-5.3-4.8-9.7-12.5-17.7c-5.9-6.1-9.7-10.9-16-19.9c-13.2-18.8-18-25.1-22.9-30.3
	c-1.4-1.4-3.3-3.5-4.4-4.6c-4.4-4.7-15.9-13.7-20.3-15.9c-6.5-3.3-14.2-4.6-20.3-3.7c-6.9,1.1-11.5,2.5-23.7,7
	c-11.6,4.3-15.7,6-17.1,7.3c-1.1,1-3.5,2.2-15.8,8.2c-12.4,6-27.5,14.8-50.7,29.5c-16.6,10.5-20.4,12.7-48.5,28.3
	c-15.5,8.5-21.5,12-31.7,18.6c-21.2,13.6-43.2,29.9-58,43.1c-8,7.1-12.4,11.8-17.1,17.9c-1.1,1.5-2.8,3.6-3.8,4.6
	c-1.7,1.9-4.1,5.3-4.1,5.8c0,0.1-0.4,1.2-0.9,2.3l-0.9,2l0.1-1.5c0.5-6.5,1.5-11.5,2.8-14.4c2.2-4.6,8-12.2,13.6-17.7
	c11.4-11.1,21.1-18.9,39.6-31.9c8.2-5.8,10.3-7.1,17.8-11.6c15.7-9.3,19.8-11.6,33.5-18.4c5.4-2.7,9.8-5,9.8-5.1
	c0-0.1-1.8-3.5-3.9-7.5c-4.9-9.1-13.2-25.1-21-40.6c-6.9-13.8-7.2-14.3-7.6-14.3c-0.5,0-5,9.2-8,16.2c-1.7,3.9-4.1,10.2-5.4,14
	c-1.9,5.6-2.7,7.7-4.4,10.8c-1.1,2.1-2,3.9-1.9,3.9c0.1,0.1,0.7-0.3,1.3-0.8c1.2-0.9,1.2-0.9,0.7-0.2c-0.3,0.4-1.6,2.2-2.9,4
	s-3.2,4.5-4.2,6c-1,1.5-2.4,3.7-3.2,4.7c-0.8,1.1-3.6,5.3-6.3,9.3c-2.7,4.1-6.1,8.8-7.8,10.7c-12.5,14.8-17.6,21.1-26,32.4
	c-9.9,13.3-14.3,20.1-19.5,30.4c-6.4,12.9-10.1,24.8-12.2,39.9c-1.2,8.8-1.4,11.8-1.4,22.8c0,11.2,0.2,14.6,1.4,21
	c2.3,12.5,7.5,23.9,14.8,32.4c6,7.1,16.6,12.7,27,14.4c7.5,1.2,17.9,0.8,25.6-1.1c4.6-1.1,12.6-4.3,19.2-7.6
	c15-7.5,29-17.4,42.1-29.7c6.7-6.3,12.5-12.7,19.7-21.9c4-5.1,14.1-20,17-25.2c3.7-6.5,4.3-7,1.2-0.9c-2.5,4.8-9.4,16.4-11.4,19.3
	c-0.7,1-2.5,3.5-3.9,5.5c-3.4,4.8-8.8,11.9-11.4,14.9c-6.6,7.7-17.3,18.3-25.5,25.2c-10.1,8.5-16.9,13.5-24.6,18
	c-5.3,3.1-8.5,4.7-13.5,6.7c-9.9,4-14.9,5-25.1,5.2c-8.5,0.1-13.2-0.4-19.1-2.4c-6.8-2.3-13.5-6.2-18.4-10.7
	c-10.4-9.7-17.9-27.9-19.6-47.2c-0.4-4.3-0.4-21.4,0-26.3c0.4-5.1,1.2-11.7,2.2-17.5c4.7-27.5,17.3-51.7,47.8-92.5
	c5.4-7.2,6.6-8.7,12.4-15.5c8.1-9.5,15.8-17.6,19.7-20.4c1.2-0.9,2.2-1.7,2.3-1.8c0.1-0.1,0.3-1.8,0.6-3.6c0.3-2.1,0.7-4,1.1-5
	c1.1-2.8,8.3-20.2,9.4-22.6c0.5-1.3,2-4.4,3.2-6.9l2.2-4.5l-1.1-1.2c-1.3-1.5-4.5-7.7-5.1-10c-0.5-2.2-0.5-3,0.2-4.4
	c0.7-1.3,1.7-2.1,3.8-2.7c0.8-0.2,3.6-1.5,6.1-2.7c2.5-1.3,5.6-2.6,6.7-3c1.2-0.4,2.4-1,2.7-1.3c0.3-0.3,1-0.9,1.6-1.3
	c5.3-3.6,6.6-4.5,8.4-5.4c1.1-0.6,4.1-1.9,6.6-2.9c2.5-1,5-2.2,5.6-2.7c1.8-1.4,8-5.1,12.4-7.2c16.5-8.1,32.9-12.8,55-15.8
	c3.8-0.5,5.8-0.6,12.3-0.6c8.3,0,11.1,0.3,20.4,1.9c5.4,0.9,6.7,0.9,9.8-0.3c10.8-4.2,16.9-7.5,24.7-13c5.6-4,10.4-10.2,13.7-17.6
	c2.5-5.6,5.5-16,5.3-18c-0.1-0.6-0.5-2-1-3.1c-1-2.1-2.1-3.3-4.9-5.1c-2.5-1.6-15.7-14.7-18.7-18.5c-14.5-18.2-22.8-42.1-25.9-74.2
	c-1.4-15.3-1.5-37.2-0.1-53.5c2.6-31.2,10-55.9,22.2-74.3c3-4.5,4.9-7,8.6-11.1c1.6-1.8,3.4-4.1,4-5.2c2.5-4.2,7.6-10,11.9-13.6
	c8.5-7,18.2-11.9,28.8-14.6c6.1-1.6,9.1-1.9,16.2-1.9c6.8,0,9.9,0.4,11.9,1.5c1,0.5,1.1,0.5,2.4,0.1c4.9-1.5,11.9-2.6,18.7-3
	c1.6-0.1,8-0.2,14.3-0.3c29-0.4,34.4-0.9,40.7-4c1.2-0.6,3.4-1.9,4.7-2.9c2.9-2.1,9.3-8.5,12-11.9c2-2.5,2.5-2.9,3.4-2.4
	c0.5,0.2,0.6,0.6,0.6,1.7c0,3.4-0.7,6-3.7,14c-1,2.6-1.7,4.7-1.5,4.9c0.3,0.3,3.7-1.5,7.5-4c4.7-3.1,6.6-4.7,11.3-9.2
	c4.8-4.6,5.5-5.2,7-5.2c2.1,0,2.9,1.9,2.8,7c-0.1,10.5-4.1,24.6-10.5,36.9c-4.4,8.4-7.8,13.3-13,18.7c-2.5,2.6-3.8,3.6-5.3,4.5
	c-1.1,0.6-2,1.1-2,1.2s0.7,1.3,1.6,2.9c9,15.2,15.4,36.4,17.9,60.2c2.1,19.4,2.2,42.8,0.3,62.1c-3.2,31.3-12,56.4-26.3,74.4
	c-3,3.8-8.4,9.3-12.1,12.4c-1.6,1.3-2.9,2.5-2.9,2.6c0,0.6-3.1,3.5-5.3,5c-3,2-4.3,3.5-4.3,4.8c0,1.3,2,9,3.5,13.6
	c3.7,11,8.5,18.6,15.1,23.9c3.1,2.4,11.2,7.5,15.1,9.4c4.2,2,13,5.7,14.4,6c0.5,0.1,2.9-0.2,5.6-0.6c10.9-1.8,13-2.1,21.1-2.1
	c8.4,0,11.1,0.2,21.3,1.9c25.4,4.2,47.2,12.9,64.5,25.5c1.1,0.8,2.5,1.8,3.3,2.2s2.3,1.5,3.4,2.5c1.1,0.9,2.3,1.9,2.6,2.1
	c0.3,0.2,1,0.8,1.5,1.2c1,0.8,1,0.8,4.2,0.8l3.2,0l1.2,0.9c1,0.8,1.3,1.2,1.8,3.2c0.4,1.4,0.7,2.9,0.7,4v1.8l2.9,2
	c1.6,1.1,3.8,2.5,4.9,3.1c2,1.1,5.7,3.7,6.3,4.5c0.6,0.8,5.2,3.7,9.1,5.7c2.4,1.3,4.1,2.4,5.3,3.4c1.9,1.7,4.4,3.3,10.3,6.2
	c3.8,1.9,7.6,3.6,19.9,8.9c22.6,9.8,34.7,15.8,54,27.2c22.5,13.2,30.1,18.6,39.4,27.9c9.4,9.4,16,20.2,19.6,32.2
	c4.2,13.9,3.3,32.6-2.5,49.9c-2.8,8.4-6.4,15.8-11.2,22.9c-4.3,6.4-8,10.7-13.8,15.8c-14,12.3-32.1,22.1-50.6,27.2
	c-9.4,2.6-16.6,3.7-26.2,3.9c-9.8,0.2-16.3-0.5-29.4-3.2c-14.6-3-23.7-5.6-48.4-13.9c-19.8-6.6-26.2-8.9-38.3-13.3
	c-5.3-2-8.6-3.1-16.9-5.9c-7.8-2.6-7.1-2.5-6.9-1.8c0.1,0.3,0.4,1.6,0.6,3c1.8,9.8,2.8,14.2,8.8,38.4c5,20.2,6.5,27.4,8.4,39.1
	c1.6,10.1,4.1,31.5,3.7,32.1c-0.1,0.1,0,0.3,0.1,0.4c0.2,0.1,0.3,0.3,0.3,0.5c0,0.3-0.5,0.4-2,0.4l-2,0l-0.3-1.9
	c-0.5-2.8-3.2-20.7-4-26.5c-1.1-8.2-2.5-17-3.8-24c-0.7-3.5-2.8-14.7-4.6-24.8c-1.9-10.1-3.9-21.2-4.4-24.5s-1.3-7.8-1.6-9.7
	l-0.6-3.6l-5.8-1.8c-3.2-1-6.7-2.1-7.8-2.4c-3.4-1-7-2.1-8.3-2.7c-6.3-2.8-8.1-3.6-8.3-3.6c-0.1,0-1-0.3-1.9-0.7
	c-10.8-4.2-13.2-4.8-27.1-6.7c-8.5-1.2-15.9-1.9-23.5-2.2c-31.3-1.3-40.3-1.6-40.6-1.2c-0.1,0.2-1,0.4-2,0.5s-2.7,0.3-3.7,0.5
	l-1.9,0.3l0.1,8.5c0.1,9.3-0.1,11-1.5,14c-0.6,1.3-1,1.7-3.1,3.1c-3,2-5,2.6-8.4,2.6c-6.6,0-12.3-3.4-15.2-9.1
	c-1.8-3.6-2.1-5.2-1.9-10l0.1-4.2l-2.4-1c-1.3-0.6-3.6-1.8-5.1-2.7c-1.5-0.9-3.2-1.9-4-2.3l-1.3-0.6l-0.7,0.7
	c-1.1,1-4.3,2.5-6.8,3.2c-1.8,0.5-2.9,0.6-6.2,0.6c-3.7,0-4.1,0-6-0.8c-2-0.8-2-0.8-2.4-0.2c-4,5.7-12.9,15.4-16.6,18.1
	c-3.9,2.9-10.2,6.6-17.2,10c-4.1,2.1-7.7,3.9-8,4.1c-0.4,0.3-2.2,1.2-13.4,6c-2.2,0.9-6.9,2.7-10.4,4s-8.9,3.1-11.8,4.2
	c-8.6,3.1-18,6.2-21.4,7.1c-2.6,0.7-3.8,0.9-7.3,1l-4.2,0.1l0.4,0.8c0.2,0.4,0.4,0.9,0.4,1c0,0.5-7.6-7.2-10-10.2
	c-3-3.8-4.6-6.2-7.6-12.2c-2.6-5.1-4.1-9.3-4.4-12.1l-0.2-2.1l-0.4,2.2c-0.2,1.2-0.5,2.6-0.6,3s-0.7,3.7-1.2,7.1
	c-0.9,5.4-3,16.8-8.8,47.3c-1.3,6.9-2.7,15.4-3.8,23.7c-1.1,8.3-3.7,25-4.2,27.6l-0.5,2.4H945h-1.9L943.3,709.8L943.3,709.8z
	 M996,630.7c1.5-0.4,4.5-1.3,6.7-2.1c2.2-0.8,6-2.1,8.5-3c2.5-0.9,6.9-2.5,9.7-3.5c2.9-1.1,7.2-2.6,9.7-3.5
	c6.8-2.3,9.9-3.6,17.6-7.1c3.9-1.8,7.1-3.2,7.2-3.2c0.4,0,15.7-8.4,18.2-9.9c7.4-4.7,11.7-8.1,15-12c1.1-1.3,2.8-3.3,4-4.6
	c1.1-1.3,2.7-3.1,3.4-4l1.4-1.6l-0.8-0.6c-1.7-1.2-4.1-3.8-5-5.2c-1.3-2.2-2.2-4.8-2.4-7.2c-0.1-1.1-0.2-2-0.3-2s-0.6,0.4-1.3,0.9
	c-1.9,1.4-2.9,1.7-6.7,1.7c-4.2,0-6.9-0.6-10.3-2.2c-4.3-2-8-5.4-9.6-9c-0.7-1.6-1.2-4.4-1.1-5.9c0.1-1.2-0.5-1.2-2.4-0.1
	c-0.8,0.4-1.9,0.9-2.5,1c-0.6,0.1-1,0.3-1,0.5c0,1.1-0.6,5.2-1,6.3c-0.2,0.7-0.9,1.8-1.4,2.4l-1,1.2l0.5,1c0.8,1.7,1.3,3.8,1.3,6.1
	c0,1.5,0.1,2.1,0.3,2.1c0.2,0,1.1-0.2,2.1-0.5s2.2-0.5,2.6-0.5l0.8,0l-0.8,0.4c-0.5,0.2-1.7,0.5-2.8,0.7c-1.1,0.2-2.1,0.5-2.2,0.6
	c-0.1,0.2-0.5,1.2-0.9,2.4c-2.2,7.5-7.1,12.6-12.8,13.5c-2.7,0.4-2.9,0.5-3.3,1.9c-0.6,2.3-4.3,6.3-8.3,8.9
	c-2.9,1.9-4.5,2.4-8.2,2.5c-3,0.1-3.1,0.1-4,0.9c-1.5,1.4-3.8,2.9-5.9,3.6l-2,0.7l-0.1,3.7c-0.1,2.1-0.3,4.4-0.5,5.2l-0.4,1.5l0-1.7
	c0-0.9-0.2-2.6-0.5-3.6c-0.4-1.8-0.6-1.9-3.1-4.4c-4.2-4.1-9.5-7.4-13.9-8.6c-2.5-0.7-7.7-0.8-10.6-0.3c-2.9,0.6-5.6,1.8-6,2.9
	c-0.5,1.3,0.5,4,4,10.8c4.4,8.5,9.1,18.1,9.7,19.8c0.3,0.8,0.8,2.1,1.1,2.8l0.6,1.4l2.9-0.2C991.9,631.4,994.5,631,996,630.7
	L996,630.7z M1448.8,626.2c21-2.2,43.5-11,60.1-23.4c15.5-11.6,25.9-29.6,28.9-50c0.5-3.7,0.5-13.8-0.1-17.3
	c-1.4-8.2-4.4-16-9.6-25.2c-8.9-15.6-19.3-26.1-39-39c-3.6-2.4-12.9-8.5-20.8-13.8c-21-13.9-30.1-19.4-48.4-29.2
	c-13.8-7.4-20.9-11.6-28.4-16.9c-1.7-1.2-3.4-2.3-4-2.6c-0.5-0.3-1.9-1.2-3.2-2c-1.2-0.9-3.3-2.1-4.6-2.8c-1.3-0.7-4.5-2.6-7.1-4.2
	c-6.7-4.1-7.1-4.3-8-4.3c-0.7,0.1-0.9-0.1-1.2-0.9c-0.4-1.2-0.7-1.2-1.1,0c-0.4,1.2-3.1,5.3-3.8,5.8c-0.7,0.5-1.4,1.6-3.4,5.4
	c-3.5,6.7-11.3,25.5-14.1,34.2c-1.9,6-4.4,14.2-4.4,14.6c0,0.2,0.2,0.2,0.5,0.1c2-0.6,24-2.6,34.6-3.2c4.5-0.2,30.8-0.2,32.1,0.1
	c0.4,0.1,2.2,0.2,4,0.3c13.9,0.8,36.6,5.4,48.6,9.9c11.7,4.4,19,8.8,25.8,15.9c3,3.1,7.1,7.9,7.1,8.3c0,0.1-1.1-0.9-2.4-2.2
	c-3.2-3.1-4.7-4.3-9.3-7.5c-7.9-5.5-13.1-8.4-19.6-11.1c-10.7-4.4-28.2-8.6-44-10.6c-8-1-29.9-1.5-41.6-1c-21.8,1-42,3.5-63.2,7.7
	c-14.2,2.8-25.2,6-44,12.9c-27.5,10-37.2,12.9-52.8,16.2c-9.5,2-16,2.8-24.1,2.8c-3.9,0-4.6-0.1-6.4-0.6c-1.1-0.3-2-0.7-1.9-0.8
	c0.1-0.1,1.1,0.1,2.2,0.3c2.3,0.5,3.9,0.5,12.6-0.4c13.9-1.5,27.3-4.6,44.6-10.4c9.6-3.2,12.7-4.3,21.4-7.5
	c24.9-9.2,34.3-11.9,53.5-15.5c3.9-0.7,9.2-1.7,11.8-2.1c2.6-0.4,5.1-0.8,5.6-0.9l1-0.2l3.2-9.3c1.7-5.1,3.7-10.7,4.4-12.5
	c2.8-7,8.4-18.8,12.3-26.1c2.3-4.2,4.2-8,4.3-8.4c0.1-0.4,1-2.5,2-4.6c1-2.1,1.8-4,1.7-4c-0.1-0.1-0.3-0.2-0.6-0.2
	c-0.2,0-1.5-0.7-2.9-1.5c-3.7-2.3-7.5-4.1-14.1-6.7c-3.2-1.3-5.7-2.3-5.6-2.4c0.1,0,2.6,0.6,5.6,1.4c2.9,0.8,5.4,1.4,5.4,1.4
	c0.1-0.1-3.6-2.5-6.5-4.2c-2.2-1.3-11.8-6-14.9-7.3c-1-0.4-1.8-0.8-1.7-0.9c0.1-0.1,1,0.2,2.1,0.6c4.5,1.6,11.6,4,11.8,3.9
	c0.7-0.2-8.7-5.7-15-8.7c-14.7-7-31-11.7-49.9-14.2c-9.9-1.3-18.1-1.4-29.3-0.1c-3.5,0.4-6.7,0.8-7.1,0.9l-0.7,0.1l0.8,0.5
	c0.4,0.3,1,0.8,1.3,1.1c0.3,0.3,1.1,1,1.7,1.4c0.6,0.4,1.1,0.9,1,1c-0.1,0.1-0.9,0.1-1.7-0.2c-3.1-0.8-3.2-0.8-3.9,0.3
	c-4.6,6.4-16,18.7-22.1,23.7c-7.4,6.2-19.4,14.2-26.7,18c-10.5,5.4-26.3,10.1-39.5,11.8c-10.6,1.4-16.1,1.5-26,0.4
	c-1.4-0.2-2.6-0.2-2.7-0.1c-0.1,0.1,1.9,2.2,4.4,4.7c7.3,7.4,10.8,11.8,24.3,30.3c3.6,5,5.6,7.5,14.1,17.9c2.6,3.2,5.5,7.1,6.5,8.6
	c1.8,2.8,4.8,8.8,5.2,10.1c0.1,0.4,0.3,0.8,0.4,0.8c0.1,0,0.4,0.5,0.5,1.2c0.2,0.6,0.5,1.5,0.7,2c0.8,1.8,2.5,7,3,9.1
	c0.7,2.9,0.7,8.5,0,12.6c-0.3,1.6-1.6,6.9-2.9,11.8c-1.3,4.9-3.2,11.9-4.1,15.5c-2.8,11.2-4.8,17.5-7.7,24.1l-1.1,2.6v5.2v5.2l2-0.2
	c1.1-0.1,3.5-0.2,5.3-0.3s5.3-0.2,7.7-0.3c5.7-0.3,21.7-0.2,25.4,0.2c1.6,0.1,4.8,0.3,7.2,0.3c6.1,0.1,11.6,0.4,19.7,1.3
	c17.3,1.8,27.8,3.6,39.2,6.5c8.5,2.2,14.8,3.9,18.9,5.1c6.3,1.8,28.1,9.1,45.5,15.2c9,3.1,37.7,12.6,46.1,15.3
	c5.7,1.8,11.3,3.4,20.7,5.9c8.6,2.3,20.7,4.7,26.7,5.3c1.7,0.2,3.4,0.3,4,0.4C1433.7,626.7,1445.6,626.6,1448.8,626.2L1448.8,626.2z
	 M1007.7,601c0.5-0.2,1.5-0.9,2.2-1.4c0.7-0.5,1.4-0.9,1.5-0.9c0.4,0,2.9-2,2.7-2.2c-0.1-0.1-1.8-0.7-3.8-1.4
	c-2-0.6-4.1-1.5-4.8-1.9c-0.7-0.4-1.9-1-2.6-1.4c-0.8-0.4-2.1-1.2-3-1.7c-2.3-1.3-6.8-4.1-10.8-6.8c-9.4-6.4-13.1-9.4-16.9-13.9
	c-4.9-5.8-6-13.5-3.4-23.8c0.3-1.2,0.5-2.3,0.5-2.5c-0.1-0.2-0.3,0.3-0.5,1.1c-0.5,1.8-2.4,6.8-3.7,9.4c-1.8,4-6,15.2-6.4,17.2
	c-1,5.3,0.4,9.1,5.7,14.7c1.4,1.5,3,3.5,3.6,4.4c0.6,0.9,1.1,1.7,1.2,1.7c0.1,0.1,0.8-0.4,1.6-1c4.2-3.2,9.8-4.5,15.9-3.9
	c6.1,0.6,13.3,3.9,16.4,7.4c1.2,1.4,2.7,4.1,3.3,6c0.2,0.6,0.4,1.2,0.5,1.2S1007.2,601.2,1007.7,601L1007.7,601z M1159.3,598.7
	c1.6-1.2,2-2.6,2.1-7.4c0.1-3.7,0-5.1-0.8-10.4c-0.5-3.4-1-7.7-1.1-9.6l-0.2-3.5l-0.8,1.5c-2.5,4.5-6.5,8.9-9.5,10.7
	c-4.3,2.4-10.2,2.8-14.9,1c-0.5-0.2-0.5-0.1-0.3,1.3c0.1,0.8,0.6,2.4,1.1,3.5c1.2,2.6,4.6,6.1,8.2,8.6c2.6,1.8,7.5,4.1,10,4.8
	C1155.5,599.7,1158.2,599.5,1159.3,598.7L1159.3,598.7z M967.8,593.6c0.3-0.4,0.1-0.7-0.4-0.7c-0.3,0-0.5,0.5-0.8,2.6l-0.2,1.1
	l0.5-1.3C967.3,594.6,967.7,593.8,967.8,593.6L967.8,593.6z M1024.7,589.5c0.8-0.4,2.9-1.8,4.6-3.1l3.1-2.4l-3.7-0.7
	c-4.1-0.8-11-2.8-14.5-4.3c-2.8-1.1-7.9-3.8-10.6-5.5c-3.7-2.4-7.8-7.2-9.5-11.3c-2.7-6.3-4.7-17.1-5.7-30
	c-0.5-6.9-0.3-22.4,0.4-26.4c0.2-1,0.1-0.9-1.4,1.2c-0.9,1.2-2.7,3.9-4.1,5.9c-5.7,8.5-7.3,12.3-10.6,25.4c-1.7,6.6-2.4,10-2.8,13.4
	c-0.5,4.9,0.5,9.5,2.9,13.1c4.1,6,15.6,13.7,29.6,19.8c7.2,3.1,11.6,4.7,15.4,5.7C1019.9,590.6,1023,590.4,1024.7,589.5
	L1024.7,589.5z M1043.1,578c2-1,3.3-2.2,4.8-4.5c1.6-2.4,2.4-4.2,2.9-6.3c0.7-3,0.5-7.1-0.4-8.5c-0.2-0.4-0.3-0.4-0.9,0
	c-5.1,3.1-12.2,3.8-19.7,1.9c-3-0.8-5.1-1.6-8.6-3.6c-2.6-1.4-3.6-2.2-6-4.6c-2.7-2.7-3-3.1-4.4-6c-4.1-8.4-5.7-17.4-5.7-31.8
	c0-14.2,1.6-23.8,5-30.1c0.4-0.8,0.7-1.5,0.7-1.5c-0.5,0-10.3,7-12.1,8.6c-1.9,1.8-2.4,2.5-3.5,4.6c-2.7,5.4-3.3,9.9-3.1,22.8
	c0.3,15.4,1.8,26.6,5,36.6c1.4,4.3,2.5,6.4,5.1,9.2c2.7,2.9,5.1,4.4,12.4,7.7c2.7,1.2,9.1,3.3,14,4.7c5.2,1.4,7.3,1.8,10.1,1.7
	C1041.2,578.8,1041.7,578.7,1043.1,578L1043.1,578z M1175.8,488.3c-0.2-1-0.4-1.8-0.5-1.7c-0.1,0.1,0,1,0.2,1.9
	c0.2,1,0.4,1.8,0.5,1.7C1176,490.2,1175.9,489.3,1175.8,488.3z M937.5,461c12.3-6.1,19.1-9.9,34.2-19c24.6-14.9,38-22.4,47.7-26.7
	c2.2-1,5.5-2.7,7.3-3.8c1.8-1.1,4.2-2.6,5.3-3.2c3.3-1.8,11.1-5.6,14.3-6.9c4.5-1.8,16.4-6.2,19.1-7c1.3-0.4,2.6-0.8,2.8-0.9
	c0.2-0.1-0.7-0.8-2.3-1.9c-5.5-3.7-11.4-8.7-17.3-14.7c-3.7-3.7-13.7-15-18-20.2c-1.3-1.6-2.6-2.9-2.8-3c-0.2-0.1-0.6,0.1-0.8,0.2
	c-0.2,0.2-1.3,0.4-2.4,0.4c-1.1,0.1-3,0.2-4.2,0.4c-2.6,0.3-2.6,0.3-2.6,0c0-0.1,1.3-0.8,2.9-1.4c1.6-0.7,2.8-1.2,2.8-1.3
	c0,0-1.3-0.2-2.8-0.4s-4.8-0.6-7.4-0.9c-9.4-1.1-18.2-1-27.8,0.3c-17.2,2.3-32.2,6.4-46,12.5c-4,1.8-10,4.8-9.9,4.9
	c0.1,0.1,1.3-0.1,2.8-0.4c3.5-0.7,12-2,12.1-1.8c0.1,0.1-0.6,0.3-1.4,0.4c-0.8,0.2-3.1,0.8-5.1,1.4c-2,0.6-4.1,1.1-4.6,1.2
	c-1.1,0.1-6.2,2-16.2,6.1c-8.4,3.4-9.3,3.8-13.5,6.2c-2.6,1.5-3.4,2.1-2.9,2.1c0.6,0,8.4-1.4,10.4-1.9c3.4-0.8,9.5-2,9.6-1.9
	c0.1,0.1-6.7,2.6-8.3,3c-1.2,0.3-7.1,2.3-14.6,4.9c-2,0.7-4.8,1.8-6.1,2.4c-2.5,1.1-6.2,3.3-6.2,3.6c0,0.1,0.5,0.8,1,1.5
	c2.3,2.9,7.2,11.5,14.3,25.3c12.1,23.4,14.9,28.8,19,36.9c2.4,4.8,4.5,8.9,4.7,9.1C924.9,467.3,924.8,467.3,937.5,461L937.5,461z
	 M886.3,407c1.2-2,2.3-4.2,2.1-4.2c-0.2,0-2.2,3.2-2.7,4.5C885.4,407.7,886,407.5,886.3,407z M1143.2,406.6
	c5.8-0.5,8.6-0.8,12.8-1.5c9.8-1.7,20.8-5,29.4-8.7c7.4-3.3,22.6-13.2,30.3-19.9c7-6,20.7-21,19.7-21.6c-0.1-0.1-1.4-0.4-2.9-0.7
	c-3.3-0.7-6.7-2.3-12.8-5.9c-5.1-3-9.6-5.6-9.8-5.6c-0.1,0-0.9-0.5-1.9-1.1s-1.9-1.1-1.9-1.1c-0.2,0-7.8-3.3-8.9-3.8
	c-2-1-5.7-5.9-8.2-10.8c-2.4-4.7-4.2-11.7-5.3-20.1c-0.2-1.9-0.6-3.6-0.7-3.9c-0.1-0.3-0.3-1-0.3-1.7s-0.1-1.8-0.2-2.4
	c-0.2-1.5-0.4-1.5-3.8,0.1c-3.4,1.6-3.8,1.8-6.3,2.7c-9.9,3.7-20.6,6-32.6,6.9c-5.1,0.4-17.9,0.4-22.9,0c-13.1-1-24.5-3.7-34.8-8.2
	c-1.9-0.8-3.6-1.6-3.9-1.6c-0.5-0.2-0.5-0.5-1.3,5.9c-0.7,5.5-1.2,8.2-2.2,12.2c-1.9,7.7-5.6,14.6-10.4,19.4
	c-2.1,2.1-2.6,2.4-4.9,3.4c-4.3,1.8-9.4,4.5-18.3,9.8c-4.3,2.6-9.3,5.1-10.5,5.3c-0.5,0.1-0.9,0.3-0.9,0.4
	c0,0.2,11.7,11.9,18.8,18.7c7.5,7.2,16.6,14.2,23.4,18.1c2.8,1.6,2.1,1.5,7.1,0.8c5.4-0.8,11.2,0.1,17.4,2.6c1.6,0.6,3.4,1.4,4,1.8
	c1.6,0.9,6.5,4.2,9.6,6.5c1.5,1.1,3.1,2.2,3.6,2.4c1.2,0.5,9.6,1.5,15.5,1.9c1.6,0.1,2.9,0.2,3,0.3
	C1132.1,407.1,1138.7,406.9,1143.2,406.6L1143.2,406.6z M1156,379.5c2-2.7,3.9-5.8,4.4-7c2.5-5.8,4.7-13.2,6.4-21.6
	c2-10.3,4.8-26.4,7.2-41.8c0.4-2.6,0.9-4.7,1-4.7c0.1,0,0.2,0.3,0.1,0.8c-0.1,0.4-0.3,2.3-0.6,4.2c-2,16-3.5,25.8-6.1,38.2
	c-2.2,11.1-3.2,14.6-5.8,21.2c-2,5.1-3.5,7.5-6.7,11.1l-0.9,1L1156,379.5z M1100.7,378.4c-3.1-3.9-4.5-6.6-6.8-13.5
	c-1.7-4.9-2.6-8.6-4.4-17.3c-2.6-12.9-3.2-16.8-5.4-32.9c-0.6-4.5-1.2-8.7-1.3-9.3c-0.1-0.6-0.1-1,0.1-1c0.1,0,0.3,0.5,0.4,1
	c1.9,12.9,5.5,34.3,7.8,45.6c2.6,13.2,5.7,21.7,9.8,27.2c1.3,1.7,1.6,2.2,1.4,2.2C1102.3,380.3,1101.6,379.5,1100.7,378.4
	L1100.7,378.4z M1378,402.1c-1.1-0.9-2.6-1.8-4.8-2.9c-3.4-1.7-3-1.3,1.3,1.1C1377.9,402.2,1378.6,402.6,1378,402.1L1378,402.1z
	 M1371.1,397c0-0.1-0.7-0.6-1.6-1.2c-0.9-0.6-1.6-1-1.6-0.8c0,0.2-0.3,0.2-0.9,0.1c-0.5-0.1,0.2,0.3,1.6,0.9
	C1371.2,397.2,1371.1,397.1,1371.1,397z M1142.1,298.2c0.5-0.1,1.7-0.2,2.8-0.3c9-0.7,19.7-3.1,27.4-6c3.3-1.2,7.8-3.2,8.9-3.9
	c0.5-0.3,1.7-1,2.7-1.5c6.8-3.4,16.5-11.7,22.4-19c15-18.7,23.3-45.3,25.7-82.1c0.5-6.9,0.5-29.2,0-35.8
	c-2.1-30.7-8.3-53.9-19.2-72.2c-3.6-6-8.6-12.6-12.8-16.7l-1.6-1.6l-1.8,0.6c-2.5,0.8-4.8,1.2-8.9,1.8c-3,0.4-4.9,0.4-11.7,0.3
	l-8.1-0.2l-1.6,0.8c-9,4.5-21.9,8.2-31.9,9.1c-5,0.4-7.9,0.3-10-0.7l-1.6-0.7l3.2,0.2c9.2,0.5,22.2-2.7,36.1-8.8
	c0.7-0.3,1.1-0.7,1-0.9c-0.1-0.2,0.1-0.3,0.6-0.3c1.3,0,10-5.3,13.7-8.5c2.4-2,9.2-9.1,11.7-12.2c1.1-1.3,2-2.3,2-2.3
	c0.5,0.5-6.6,12-8.6,14c-2,2-5.9,4.9-9,6.9c-1.7,1-3.1,1.9-3.1,2c0.1,0.1,4.8-0.2,10.3-0.6c10.9-0.8,20.3-4.5,27-10.5
	c0.6-0.6,2-1.6,3-2.3c1-0.7,3.2-2.5,4.8-4c1.6-1.5,3-2.7,3.1-2.7c0.3,0.3-7,11-8.5,12.4c-1,0.9-3.8,2.9-6.2,4.4
	c-0.5,0.3-0.3,0.5,1.6,2.5c3.4,3.5,6.3,7.1,9.4,11.7l1.3,1.8l1.3-1.1c1.4-1.1,3-2.8,5-5.2c7.9-9.6,18.4-33.4,21.8-49.7
	c0.9-4.1,1.2-8.3,0.7-9.5c-0.3-0.8-0.4-0.8-1.2-0.5c-0.5,0.2-2.1,1.5-3.6,2.9c-8.4,7.9-19.4,15.7-22.1,15.7c-0.8,0-1.3-0.6-1.3-1.6
	c0-0.3,0.8-2.7,1.8-5.3c1-2.6,2.2-5.7,2.6-7c0.8-2.2,1.6-6.3,1.3-6.5c-0.2-0.2-2.1,1.9-5.9,6.3c-3.2,3.7-8.1,8.4-10.8,10.2
	c-3.6,2.4-8.1,4.1-13.2,4.8c-5.7,0.8-8.6,0.9-37.5,1.4c-15.5,0.2-20.9,1.1-32,4.9c-5.1,1.8-9.4,3.4-15.3,6c-1.6,0.7-2.9,1.2-2.9,1.2
	c0-0.2,4.4-3.2,6.7-4.5c1.3-0.8,3.2-1.8,4.3-2.3c4.8-2.2,8.1-3.7,9.4-4.2c1.3-0.5,1.3-0.5,0.7-0.8c-1-0.4-14.4-0.4-17.5,0.1
	c-11.1,1.6-21.3,5.3-29.9,11c-7.1,4.7-10.7,8-15.7,14.3c-3.3,4.1-6,7.8-6,8c0,0.1,0.2,0.2,0.4,0.2c0.3,0.1-0.2,0.8-1.4,2.1
	c-10.1,11.5-17.7,26.9-22.5,45.5c-2.5,9.6-4,19.7-5.2,32.9c-0.6,6.6-0.8,27.9-0.4,36.2c2.8,57,21.1,94.1,54.2,110
	c11.8,5.7,25.8,9,40.9,9.9C1126.9,298.5,1140.4,298.5,1142.1,298.2L1142.1,298.2z M1181.3,574.9c0.3-0.1,0.7-0.1,1,0
	c0.3,0.1,0,0.1-0.5,0.1S1181.1,575,1181.3,574.9z M1121.6,572.9c0.1-0.2,0.7-1.1,1.2-1.9c3.3-5.1,4.9-9.5,7.4-22
	c1.3-6.2,2.1-9.6,3.7-14.7c2.2-7.1,2.6-7.9,4.2-10.3c0.6-0.8,1.2-1.8,1.3-2.1c0.3-0.4,0.3,0,0.5,2.6c0.2,2.9,0.1,3.7-0.9,9.8
	c-1.3,7.7-1.5,8.7-4.2,15.6c-2.4,6.2-5.1,12.2-7.2,15.7c-0.9,1.5-1.6,2.8-1.6,2.9c0,0.4-2.3,2.9-3.6,3.9
	C1121.9,572.9,1121.5,573.1,1121.6,572.9L1121.6,572.9z M1160.5,490.2c-2.2-0.4-4.2-1.3-11.2-5c-4.7-2.5-5.8-2.7-16.6-2.6
	c-4.9,0-12.4,0.1-16.6,0.1l-7.7,0.1l-2.7-0.8c-1.5-0.4-4.7-1.5-7.1-2.4c-6.6-2.4-7.9-2.6-13.7-2.6c-4.3,0-5.4,0.1-8.4,0.7
	c-4.4,0.9-7.8,2.1-11.4,3.8c-1.6,0.8-2.9,1.3-3,1.3c-0.2-0.2,6.8-3.5,9-4.3c6.2-2.1,14.3-3,19.6-2.1c1.4,0.2,5,1.2,8,2.2
	c8.9,2.9,7.9,2.8,16.2,2.6c15.2-0.3,25.8-0.2,27.8,0.2c2.8,0.6,5.8,1.7,8.5,3.3c3.6,2.2,6.4,3.5,9.5,4.5
	C1164.7,490.8,1164.6,490.9,1160.5,490.2L1160.5,490.2z"/>
<path id="path1996" inkscape:connector-curvature="0" d="M7.2,1524.2c-2.8-4.8-5.6-13.5-6.7-20.8c-0.6-4.2-0.6-13.5,0-18.5
	c1.2-9.3,3.9-18.8,8.2-28.8c1.1-2.6,2.3-5.7,2.6-6.8c0.3-1.1,1.6-4.8,2.7-8.1c1.2-3.3,2.6-7.8,3.2-9.9c2.8-9.6,7.5-21.9,11.8-31
	c3.9-8.1,5.9-12.3,6.9-13.9c0.6-1,1.5-2.8,2.1-4.1c4.2-9.5,12.4-24.9,18.3-34.3c11.6-18.5,28.9-42.6,40-55.7
	c6-7.1,17.1-17.8,26.5-25.6l5.4-4.5l1.9-3.2c4.8-8.3,11.1-17.1,17.7-24.5c4-4.6,11.2-11.5,14.4-13.9l2.6-2l-1.5-2.9
	c-2.7-5.2-3.4-8-2.3-10.1c0.7-1.4,1.7-2.1,3.9-2.8c0.8-0.2,3.6-1.5,6.1-2.7c2.5-1.3,5.6-2.6,6.7-3c1.2-0.4,2.4-1,2.7-1.3
	c0.3-0.3,1-0.9,1.6-1.3c5.3-3.6,6.6-4.5,8.4-5.4c1.1-0.6,4.1-1.9,6.6-2.9c2.5-1,5-2.2,5.6-2.7c1.8-1.4,8-5.1,12.4-7.2
	c16.5-8.1,32.9-12.8,55-15.8c3.8-0.5,5.8-0.6,12.3-0.6c8.3,0,11.1,0.3,20.4,1.9c5.4,0.9,6.7,0.9,9.8-0.3c10.8-4.2,16.9-7.5,24.7-13
	c5.6-4,10.4-10.2,13.7-17.6c2.5-5.6,5.5-16,5.3-18c-0.1-0.6-0.5-2-1-3.1c-1-2.1-2.1-3.3-4.9-5.1c-2.5-1.6-15.7-14.7-18.7-18.5
	c-14.5-18.2-22.8-42.1-25.9-74.2c-1.4-15.3-1.5-37.2-0.1-53.5c2.6-31.2,10-55.9,22.2-74.3c3-4.5,4.9-7,8.6-11.1
	c1.6-1.8,3.4-4.1,4-5.2c2.5-4.2,7.6-10,11.9-13.6c8.5-7,18.2-11.9,28.8-14.6c6.1-1.6,9.1-1.9,16.2-1.9c6.8,0,9.9,0.4,11.9,1.5
	c1,0.5,1.1,0.5,2.4,0.1c4.9-1.5,11.9-2.6,18.7-3c1.6-0.1,8-0.2,14.3-0.3c29-0.4,34.4-0.9,40.7-4c1.2-0.6,3.4-1.9,4.7-2.9
	c2.9-2.1,9.3-8.5,12-11.9c2-2.5,2.5-2.9,3.4-2.4c0.5,0.2,0.6,0.6,0.6,1.7c0,3.4-0.7,6-3.7,14c-1,2.6-1.7,4.7-1.5,4.9
	c0.3,0.3,3.7-1.5,7.5-4c4.7-3.1,6.6-4.7,11.3-9.2c4.8-4.6,5.5-5.2,7-5.2c2.1,0,2.9,1.9,2.8,7c-0.1,10.5-4.1,24.6-10.5,36.9
	c-4.4,8.4-7.8,13.3-13,18.7c-2.5,2.6-3.8,3.6-5.3,4.5c-1.1,0.6-2,1.1-2,1.2c0,0,0.7,1.3,1.6,2.9c9,15.2,15.4,36.4,17.9,60.2
	c2.1,19.4,2.2,42.8,0.3,62.1c-3.2,31.3-12,56.4-26.3,74.4c-3,3.8-8.4,9.3-12.1,12.4c-1.6,1.3-2.9,2.5-2.9,2.6c0,0.6-3.1,3.5-5.3,5
	c-3,2-4.3,3.5-4.3,4.8c0,1.3,2,9,3.5,13.6c3.7,11,8.5,18.6,15.1,23.9c3.1,2.4,11.2,7.5,15.1,9.4c4.2,2,13,5.7,14.4,6
	c0.5,0.1,2.9-0.2,5.6-0.6c10.9-1.8,13-2.1,21.1-2.1c8.4,0,11.1,0.2,21.3,1.9c25.4,4.2,47.2,12.9,64.5,25.5c1.1,0.8,2.5,1.8,3.3,2.2
	c0.8,0.4,2.3,1.5,3.4,2.5c1.1,0.9,2.3,1.9,2.6,2.1c0.3,0.2,1,0.8,1.5,1.2c1,0.8,1,0.8,4.2,0.8l3.2,0l1.2,0.9c1,0.8,1.3,1.2,1.9,3.2
	c0.6,2,0.7,2.7,0.6,5.6c0,2.2,0,3.5,0.3,4c0.2,0.3,0.3,0.6,0.2,0.6c-0.1,0,0.8,1.5,1.9,3.2c1.8,2.9,2.6,3.8,7.9,9.1
	c6.3,6.3,8.6,9,13.6,15.5c3.9,5.2,7,9.8,9.8,14.6l2.2,3.7l4.7,3.8c6.2,5.1,9.7,8.3,15.9,14.4c10.7,10.6,18.9,20.6,33.8,41.6
	c16,22.4,26.3,39.6,34.9,58.2c0.8,1.7,3.1,6.3,5.1,10.3c8.5,16.8,12.7,27.2,17,41.8c2.1,6.9,6.4,19.5,8,22.9
	c7.3,16.4,10.5,33.8,8.6,47c-1.4,9.7-5,19.5-9.8,26.6l-1.3,1.9l-1.9,0.1c-1.5,0.1-1.9,0-1.9-0.3c0-0.6,2.5-5.6,4.1-8
	c1.8-2.7,2.6-4.8,5-13.4c2.9-10.2,3.1-11.1,2.7-19.9c-0.3-7.8-0.6-9.8-2.3-16.5c-2.2-8.9-4.6-15.5-8.6-23.6
	c-5.9-11.9-12.6-21.1-22.7-31.3c-7.8-7.8-13.7-12.6-23.1-18.9c-6.2-4.1-10.8-6.8-17.9-10.4c-11.9-5.9-21.4-10-51.6-21.9
	c-9.6-3.8-17.7-7.8-22.4-11.1c-2.5-1.7-2.4-2.1,0.2-0.4c5.3,3.5,12.9,7,28.6,13c31.3,12,48.1,19.7,60.9,27.8
	c15.4,9.8,29.2,22,38.7,34.5c2.1,2.8,2,2.6,4.9,7c1.3,1.9,2.4,3.4,2.4,3.4c0.1-0.1-1.5-6.2-2.5-9.2c-1.3-3.9-12.2-30.2-17-40.8
	c-4.4-9.9-5.5-12-8.8-18.7c-8.6-17.2-20.2-35.4-38.2-59.8c-10.3-14-16.4-21.2-25.1-29.8c-6.7-6.5-11.2-10.5-21.9-19.2
	c-3.3-2.7-8.5-7.3-8.4-7.5c0.1-0.1,2.7,1.3,4.8,2.7l0.7,0.4l-0.4-0.7c-4.1-6.4-5.5-8.6-8.4-12.6c-8.9-12.4-12.4-16.5-20.4-23.4
	c-4.4-3.8-9.2-7.4-9.5-7.2c-0.1,0.1-0.3,0-0.3-0.2c-0.1-0.2-0.5,0.4-1,1.3s-1.1,1.8-1.3,2c-0.8,1-4.5,8.2-6.7,13.3
	c-7.9,18-12.7,32-15.6,45.1l-1.4,6.4l0.9,0.8c0.5,0.4,1,0.8,1.1,0.8c0.1,0,3.8,4.1,7.5,8.5c0.6,0.7,2.7,4,4.6,7.3
	c1.9,3.3,4.8,8.1,6.3,10.8c1.5,2.6,3.2,5.5,3.7,6.4c0.5,0.9,1.3,2.4,1.9,3.4c3.5,6.1,10.9,19.9,14.2,26.4c1.4,2.9,2.9,5.5,3.2,5.9
	c0.3,0.3,0.5,0.6,0.4,0.6s0.1,0.5,0.4,1.1c0.7,1.3,0.7,2,0.1,2.6c-0.6,0.6-0.9,0.3-1.8-1.6c-1.9-4.2-4.9-10.1-6.7-13.2
	c-1.2-2-2.5-4.2-2.9-5.1c-0.5-0.8-1.3-2.1-1.8-2.9c-0.6-0.8-3.1-5.2-5.7-9.9c-10-18-15-26.5-18.5-31.3c-1.3-1.8-2.9-4.1-3.5-5.1
	c-1.4-2.3-2.7-3.9-3.5-4.3c-5.9-2.9-11.2-3.8-17.9-3.1c-1.7,0.2-5.7,0.9-9.5,1.8c-10.1,2.4-9.5,2.2-24.7,8.1c-1.9,0.7-5.8,2.1-8.6,3
	c-2.9,0.9-6.2,2.2-7.3,2.8c-3.8,2-7.5,6-9.8,10.8c-1.5,3-1.6,5.7-0.5,9.5c1,3.4,4.4,9.4,5.4,9.7c0.3,0.1,1-0.2,2-1
	c2.8-2.2,8.1-4.5,16.4-7.2c4.7-1.6,10.1-3.6,13.7-5.1c5.6-2.4,9.6-4,9.8-3.7c0.1,0.1-0.7,0.4-1.6,0.9c-0.9,0.4-3.8,1.9-6.2,3.2
	c-2.5,1.4-5.1,2.7-5.8,3c-2.7,1-16.3,7.4-18.7,8.8c-5.4,3-7.2,4.6-8.8,7.9c-1.3,2.6-1.8,4.9-1.8,8.9c0,6,1.4,9.6,4.3,11.1
	c4.2,2.2,17.1,1.7,28.7-0.9c1.7-0.4,5.7-1.1,8.9-1.5s6.3-0.9,6.7-1c0.5-0.1,0.8-0.1,0.7,0c-0.1,0.1-1.6,0.5-3.3,0.9
	c-1.7,0.4-5,1.2-7.2,1.8c-2.2,0.6-4.1,1.1-4.2,1c-0.1-0.1-0.9,0.1-1.8,0.4c-10.1,3.2-26.9,5.4-31.4,4.1c-2.7-0.8-4.9-3.1-6-6.5
	c-0.5-1.7-0.6-2.5-0.6-6.7c0-4.2,0.1-5.1,0.7-7.5c0.8-3.1,2.2-6,3.9-8.2l1.2-1.5l-1-0.7c-1.4-0.9-4.5-4.7-5.5-6.6
	c-2-3.7-2.6-7.5-1.8-10.6c1.3-5.1,6.3-11.5,11.3-14.4c2.5-1.5,4.4-2.2,9.1-3.6c1.9-0.6,3.5-1.1,3.6-1.1c0.1-0.1-0.6-1.1-1.7-2.4
	c-6.1-7.3-8.3-11.1-9.7-16.6c-0.9-3.4-0.8-9.1,0-12.6c1.1-4.7,4.1-9.7,7.2-12.2c1.9-1.5,5.1-3,6.5-3c4,0,6.7,2.4,11,9.5
	c4.3,7.1,11.3,16.9,14.2,20c0.7,0.8,2,2.3,3,3.4c0.9,1.1,2,2.4,2.4,2.8l0.8,0.7l2.6-0.5c4.7-0.9,10.9-0.6,15.6,0.8
	c1,0.3,2.2,0.6,2.7,0.7l0.9,0.2l-0.6-1c-0.3-0.6-0.6-1.2-0.6-1.5c0-0.6,4.9-15.7,6.8-21.3c2.4-6.8,3.5-9.5,6.6-16.5
	c3.6-8,4.9-10.7,9.3-18.9c1.8-3.3,3.3-6.4,3.4-6.8c0.1-0.4,1-2.4,1.9-4.4c1-2,1.7-3.7,1.6-3.8c-0.1-0.1-0.4-0.2-0.6-0.2
	c-0.2,0-1.5-0.7-2.9-1.5c-3.7-2.3-7.5-4.1-14.1-6.7c-3.2-1.3-5.7-2.3-5.6-2.4s2.6,0.6,5.6,1.4c2.9,0.8,5.4,1.4,5.4,1.4
	c0.1-0.1-3.6-2.5-6.5-4.2c-2.2-1.3-11.8-6-14.9-7.3c-1-0.4-1.8-0.8-1.7-0.9c0.1-0.1,1,0.2,2.1,0.6c4.5,1.6,11.6,4,11.8,3.9
	c0.7-0.2-8.7-5.7-15-8.7c-14.7-7-31-11.7-49.9-14.2c-9.9-1.3-18.1-1.4-29.3-0.1c-3.5,0.4-6.7,0.8-7.1,0.9l-0.7,0.1l0.8,0.5
	c0.4,0.3,1,0.8,1.3,1.1c0.3,0.3,1.1,1,1.7,1.4c0.6,0.4,1.1,0.9,1,1c-0.1,0.1-0.9,0.1-1.7-0.2c-3.1-0.8-3.2-0.8-3.9,0.3
	c-4.6,6.4-16,18.7-22.1,23.7c-7.4,6.2-19.4,14.2-26.7,18c-10.5,5.4-26.3,10.1-39.5,11.8c-8.8,1.2-12.5,1.4-18.4,1
	c-15.1-0.9-24-2.6-37.3-6.9c-18.2-6-28.8-12.2-41.4-24.5c-3.7-3.6-15.2-16.3-20.4-22.6c-1.3-1.6-2.6-2.9-2.8-3
	c-0.2-0.1-0.6,0.1-0.8,0.2c-0.2,0.2-1.3,0.4-2.4,0.4c-1.1,0.1-3,0.2-4.2,0.4c-2.6,0.3-2.6,0.3-2.6,0c0-0.1,1.3-0.8,2.9-1.4
	c1.6-0.7,2.8-1.2,2.8-1.3c0,0-1.3-0.2-2.8-0.4c-1.5-0.2-4.8-0.6-7.4-0.9c-9.4-1.1-18.2-1-27.8,0.3c-17.2,2.3-32.2,6.4-46,12.5
	c-4,1.8-10,4.8-9.9,4.9c0.1,0.1,1.3-0.1,2.8-0.4c3.5-0.7,12-2,12.1-1.8c0.1,0.1-0.6,0.3-1.4,0.4c-0.8,0.2-3.1,0.8-5.1,1.4
	c-2,0.6-4.1,1.1-4.6,1.2c-1.1,0.1-6.2,2-16.2,6.1c-8.4,3.4-9.3,3.8-13.5,6.2c-2.6,1.5-3.4,2.1-2.9,2.1c0.6,0,8.4-1.4,10.4-1.9
	c3.4-0.8,9.5-2,9.6-1.9c0.1,0.1-6.7,2.6-8.3,3c-1.2,0.3-7.1,2.3-14.6,4.9c-2,0.7-4.8,1.8-6.1,2.4c-2.5,1.1-6.2,3.3-6.2,3.6
	c0,0.1,0.5,0.8,1,1.5c1.5,1.9,3,4.5,6,9.9c1.4,2.7,3,5.5,3.4,6.2c2.5,4.6,14.4,27.5,23,44.5l5.9,11.6l4.6-0.1c3.9-0.1,5.1,0,7.6,0.4
	l3,0.6l1.7-1.9c0.9-1,1.7-2,1.7-2.1c0-0.1,0.9-1.2,1.9-2.5c4.7-5.6,9.6-12.4,14.1-19.7c3.6-5.8,5.6-8.2,7.6-9.4
	c1.3-0.8,1.7-0.8,3.7-0.8c2,0,2.4,0.1,4.3,1.1c6.5,3.4,10.9,12.5,10.3,21.4c-0.5,7.1-3.5,13.2-10.7,21.9c-0.7,0.9-1.3,1.7-1.3,1.8
	c0,0.3,1.5,0.8,5.8,2.1c4.9,1.4,8.3,3.2,11.3,6.1c4.6,4.4,7.4,9.5,7.4,13.6c0,2.1-0.7,4.9-1.8,7.2c-1,2-4.8,7.1-5.9,7.9l-0.6,0.4
	l1.1,1.5c2.8,3.7,4.1,8.1,4.4,14.1c0.2,4.3-0.2,6.7-1.4,9.4c-1.5,3.3-3.5,4.9-6.9,5.7c-1.8,0.4-2.6,0.4-6.3,0.1
	c-4.9-0.4-4.5-0.3-9.2-1.1c-4.6-0.8-8.6-1.6-13.7-3c-6.2-1.7-15-3.8-15.6-3.8c-0.3,0-0.5-0.1-0.5-0.2c0-0.3,11.5,1.4,14.9,2.1
	c6.8,1.5,12.2,2.2,18.7,2.4c7.9,0.2,11.7-0.6,13.1-2.8c1.3-2.1,1.6-3.5,1.8-7.8c0.1-4.7-0.3-7.1-1.7-10.1
	c-2.3-4.7-6.4-7.5-18.9-13.2c-3-1.4-7.6-3.6-10.3-5c-2.6-1.4-6.5-3.3-8.5-4.4c-2-1-3.5-1.9-3.3-1.9c0.4,0,5,1.8,11.4,4.6
	c2.1,0.9,6.3,2.4,9.2,3.3c11.2,3.5,16.7,5.8,19.6,8.2c0.8,0.6,1.5,1.1,1.6,1.1c0.1,0,0.7-0.8,1.4-1.7c4.3-6,5.7-11.8,4-16.1
	c-1.7-4.2-5-8.6-8.3-10.9c-2.5-1.8-3.4-2.2-10-4.3c-3.3-1.1-9-3.2-12.7-4.6c-3.7-1.5-7.8-3.1-9.2-3.5c-2.8-0.9-13.4-3.6-14.4-3.6
	c-0.3,0-0.8-0.1-1.1-0.3c-1.9-1-13.3-1.5-12.7-0.5c0.1,0.1-0.5,0.2-1.3,0.2c-1.5,0-4.8,0.8-6.5,1.7c-1,0.5-3,2.5-3.5,3.4
	c-0.4,0.8-0.8,3-1.6,9.4c-0.7,5.8-1.9,12.3-2.9,15.9c-0.3,1.1-1.5,5-2.7,8.5c-3.2,9.6-3.8,13.3-3.4,21.3c0.5,9.3,0.3,11.2-1.5,14.9
	c-0.5,1.1-1.4,2.9-1.9,4c-0.5,1.1-1.5,3.1-2.2,4.6c-2,4.2-2.3,5.5-2.5,9.3c-0.1,2.1,0,3.9,0.1,4.7c0.2,0.7,0.2,1.4,0.2,1.5
	c-0.1,0.1-0.5-0.6-0.9-1.5c-0.7-1.5-0.8-1.9-0.7-4.8c0-3.8,0.5-5.2,3.9-12.5c1.2-2.6,2.6-5.8,3.1-7.3l0.9-2.6l-0.1-8.5
	c-0.1-11.8,0.1-13.4,3.6-23.8c2.4-7.2,3.8-12,4.5-16c0.4-2.3,2.2-15.1,2.1-15.2c-0.1-0.1-3.6,4.4-6,7.7c-1.1,1.5-3,4.5-4.4,6.8
	c-3.9,6.6-14.2,24.8-18.7,33.4c-4.2,7.9-9.6,16.3-11.6,17.9c-0.4,0.4-0.4,0.3-0.1-0.2c0.5-1,0.4-1-1.6,0.5
	c-3.2,2.3-10.4,6.2-16.3,8.8c-1.4,0.6-7.4,3-13.3,5.4c-31.2,12.3-46.5,19.3-58.8,27c-13.4,8.4-25,18.2-34.1,29
	c-1.5,1.7-3.3,3.8-4.1,4.7c-1.6,1.8-6.4,9-8.7,13c-6.8,11.8-11.6,25.5-13.1,37.5c-0.5,3.7-1.1,12.4-1,14.3c0,0.7,0.2,2.2,0.5,3.3
	c1,5.1,4.6,17.1,5.1,17.3c0.1,0,0.6,1,1,2.1c0.4,1.1,1.4,3.4,2.2,5l1.5,2.9h-2.7H7.9L7.2,1524.2L7.2,1524.2z M13.8,1445.4
	c0-0.2-0.1-0.1-0.3,0.1c-0.1,0.2-0.3,0.5-0.3,0.7s0.1,0.1,0.3-0.1C13.7,1445.9,13.8,1445.6,13.8,1445.4z M18.6,1437.9
	c5.5-8.5,11.9-16.1,19.6-23.3c7.3-6.7,12.9-11.2,21.1-16.6c14.5-9.6,30-16.8,65.2-30.3c5.6-2.1,11.6-4.5,13.3-5.3
	c4.7-2,12-5.8,14.5-7.5c1.2-0.8,2.2-1.4,2.2-1.3c0,0.1,1.6-2.9,3.6-6.8c4.1-8.1,10.5-20,13.9-25.9c1.3-2.2,2.3-4.1,2.3-4.2
	c0-0.1,1.3-2.3,2.8-4.9c1.6-2.6,4.4-7.3,6.2-10.5c9.3-15.9,14.7-22.2,17.6-20.4c0.3,0.2,0.6,0.1,1.1-0.3l0.7-0.6l-0.5,0.6
	c-0.3,0.3-0.5,0.7-0.4,0.8c0.3,0.3,3.1-0.9,3-1.2c0-0.2-1.9-3.6-4-7.6c-2.2-4-4.9-9.2-6.1-11.5c-1.2-2.3-5-9.8-8.5-16.6
	c-3.5-6.8-8-15.6-10-19.6c-2.2-4.4-3.8-7.2-4-7.2c-0.2,0-0.5-0.4-0.8-1c-0.2-0.6-0.5-1.1-0.7-1.1c-0.1,0-0.7,0.5-1.3,1.1
	c-0.6,0.6-1.5,1.4-2.1,1.6c-2.5,1.2-13.7,11.5-17,15.7c-4,5.1-11.4,15.5-15.2,21.4c-2.2,3.4-2.2,3.5-1.2,2.8c0.6-0.4,1.8-1,2.8-1.5
	l1.8-0.9l-2.1,1.9c-1.1,1.1-2.4,2.2-2.7,2.4c-0.8,0.6-9.6,7.7-13.9,11.3c-10.2,8.6-20.4,19.4-30.2,32c-10.8,13.9-25.4,34.9-33.5,48
	c-9,14.5-16.1,29.1-27.8,56.9c-7.8,18.5-9.5,22.9-10.7,27.6c-0.6,2.4-1.2,4.6-1.3,4.9C16.2,1441.6,16.6,1441.1,18.6,1437.9z
	 M254.8,1289.3c0.7-1,3.1-4.7,5.2-8c1.4-2.2,2.8-5.5,3.6-8.6c0.9-3.1,1.2-8.9,0.7-12.1c-0.8-4.7-2.9-9-6-11.9
	c-2.5-2.4-3.5-2.8-5.9-2.7c-3.2,0.2-4.7,1.7-9.5,9.4c-4.7,7.6-12,17.1-17.3,22.7c-1.7,1.8-2.4,2.7-2.2,2.8c0.2,0.1,2.9,0.7,5.9,1.4
	c6.4,1.4,9.1,2.3,17.9,5.6c3.5,1.3,6.5,2.5,6.6,2.5C254,1290.3,254.4,1289.8,254.8,1289.3z M562.8,1284c1.2-0.4,4.5-1.7,7.2-2.7
	c6-2.3,9.3-3.3,13.9-4.3c1.8-0.4,4.2-0.9,5.3-1.2l2-0.4l-0.8-1c-0.4-0.6-1.9-2.2-3.3-3.6s-2.5-2.7-2.5-2.8c0-0.1-1.1-1.5-2.4-3.1
	c-4.4-5.5-8-10.7-11.8-16.7c-3.8-6.2-5.7-7.8-9.1-7.8c-2.4,0-3.4,0.5-5.9,3c-1.7,1.7-2.3,2.6-3.3,4.7c-1.7,3.6-2.1,5.3-2.3,9.5
	c-0.2,4,0.1,6.5,1.2,10.2c0.7,2.4,2.5,6.6,2.8,6.6c0.1,0,0.7,0.9,1.2,2c0.6,1.1,1.8,3.2,2.7,4.6c0.9,1.4,1.8,2.9,2,3.2
	c0.2,0.3,0.5,0.6,0.6,0.6C560.6,1284.8,561.7,1284.5,562.8,1284z M425.6,1218.6c5.8-0.5,8.6-0.8,12.8-1.5c9.8-1.7,20.8-5,29.4-8.7
	c7.4-3.3,22.6-13.2,30.3-19.9c7-6,20.7-21,19.7-21.6c-0.1-0.1-1.4-0.4-2.9-0.7c-3.3-0.7-6.7-2.3-12.8-5.9c-5.1-3-9.6-5.6-9.8-5.6
	c-0.1,0-0.9-0.5-1.9-1.1c-1-0.6-1.9-1.1-1.9-1.1c-0.2,0-7.8-3.3-8.9-3.8c-2-1-5.7-5.9-8.2-10.8c-2.4-4.7-4.2-11.7-5.3-20.1
	c-0.2-1.9-0.6-3.6-0.7-3.9c-0.1-0.3-0.3-1-0.3-1.7c0-0.7-0.1-1.8-0.2-2.4c-0.2-1.5-0.4-1.5-3.8,0.1c-3.4,1.6-3.8,1.8-6.3,2.7
	c-9.9,3.7-20.6,6-32.6,6.9c-5.1,0.4-17.9,0.4-22.9,0c-13.1-1-24.5-3.7-34.8-8.2c-1.9-0.8-3.6-1.6-3.9-1.6c-0.5-0.2-0.5-0.5-1.3,5.9
	c-0.7,5.5-1.2,8.2-2.2,12.2c-1.9,7.7-5.6,14.6-10.4,19.3c-2.1,2.1-2.6,2.4-4.9,3.4c-4.3,1.8-9.4,4.5-18.3,9.8
	c-4.3,2.6-9.3,5.1-10.5,5.3c-0.5,0.1-0.9,0.3-0.9,0.4c0,0.2,11.7,11.9,18.8,18.7c5.1,4.9,13.7,12,18.1,14.9
	c7.6,5,14.6,8.2,26.6,12.2c12.9,4.3,23.2,6.3,35.8,7.1c1.6,0.1,2.9,0.2,3,0.3C414.5,1219.1,421.1,1218.9,425.6,1218.6L425.6,1218.6z
	 M438.4,1191.6c2-2.7,3.9-5.8,4.4-7c2.5-5.8,4.7-13.2,6.4-21.6c2-10.3,4.8-26.4,7.2-41.8c0.4-2.6,0.9-4.7,1-4.7
	c0.1,0,0.2,0.3,0.1,0.8c-0.1,0.4-0.3,2.3-0.6,4.2c-2,16-3.5,25.8-6.1,38.2c-2.2,11.1-3.2,14.6-5.8,21.2c-2,5.1-3.5,7.5-6.7,11.1
	l-0.9,1L438.4,1191.6z M383.1,1190.4c-3.1-3.9-4.5-6.6-6.8-13.5c-1.7-4.9-2.6-8.6-4.4-17.3c-2.6-12.9-3.2-16.8-5.4-32.9
	c-0.6-4.5-1.2-8.7-1.3-9.3c-0.1-0.6-0.1-1,0.1-1c0.1,0,0.3,0.5,0.4,1c1.9,12.9,5.5,34.3,7.8,45.6c2.6,13.2,5.7,21.7,9.8,27.2
	c1.3,1.7,1.6,2.2,1.4,2.2C384.7,1192.4,384,1191.5,383.1,1190.4L383.1,1190.4z M648,1210.3c-0.8-1.5-1.5-2.7-1.6-2.8
	c-0.1-0.1-0.3-0.5-0.5-0.9c-0.1-0.4-0.4-0.8-0.5-0.9c-0.3-0.1-2.1,3.6-1.8,3.7c0.1,0,1.4,0.9,2.8,1.8s2.7,1.8,2.8,1.8
	C649.3,1212.9,648.8,1211.8,648,1210.3z M641.1,1208.7c0.3-0.5,0.5-1,0.4-1c-0.2,0-1.1,1.4-1.1,1.8
	C640.3,1209.9,640.6,1209.6,641.1,1208.7L641.1,1208.7z M424.6,1110.3c0.5-0.1,1.7-0.2,2.8-0.3c9-0.7,19.7-3.1,27.4-6
	c3.3-1.2,7.8-3.2,8.9-3.9c0.5-0.3,1.7-1,2.7-1.5c6.8-3.4,16.5-11.7,22.4-19c15-18.7,23.3-45.3,25.7-82.1c0.5-6.9,0.5-29.2,0-35.8
	c-2.1-30.7-8.3-53.9-19.2-72.2c-3.6-6-8.6-12.6-12.8-16.7l-1.6-1.6l-1.8,0.6c-2.5,0.8-4.8,1.2-8.9,1.8c-3,0.4-4.9,0.4-11.7,0.3
	l-8.1-0.2l-1.6,0.8c-9,4.5-21.9,8.2-31.9,9.1c-5,0.4-7.9,0.3-10-0.7l-1.6-0.7l3.2,0.2c9.2,0.5,22.2-2.7,36.1-8.8
	c0.7-0.3,1.1-0.7,1-0.9c-0.1-0.2,0.1-0.3,0.6-0.3c1.3,0,10-5.3,13.7-8.5c2.4-2,9.2-9.1,11.7-12.2c1.1-1.3,2-2.3,2-2.3
	c0.5,0.5-6.6,12-8.6,14c-2,2-5.9,4.9-9,6.9c-1.7,1-3.1,1.9-3.1,2c0.1,0.1,4.8-0.2,10.3-0.6c10.9-0.8,20.3-4.5,27-10.5
	c0.6-0.6,2-1.6,3-2.3c1-0.7,3.2-2.5,4.8-4c1.6-1.5,3-2.7,3.1-2.7c0.3,0.3-7,11-8.5,12.4c-1,0.9-3.8,2.9-6.2,4.4
	c-0.5,0.3-0.3,0.5,1.6,2.5c3.4,3.5,6.3,7.1,9.4,11.7l1.3,1.9l1.3-1.1c1.4-1.1,3-2.8,5-5.2c7.9-9.6,18.4-33.4,21.8-49.7
	c0.9-4.1,1.2-8.3,0.7-9.5c-0.3-0.8-0.4-0.8-1.2-0.5c-0.5,0.2-2.1,1.5-3.6,2.9c-8.4,7.9-19.4,15.7-22.1,15.7c-0.8,0-1.3-0.6-1.3-1.6
	c0-0.3,0.8-2.7,1.8-5.3c1-2.6,2.2-5.7,2.6-7c0.8-2.2,1.6-6.3,1.3-6.5c-0.2-0.2-2.1,1.9-5.9,6.3c-3.2,3.7-8.1,8.4-10.8,10.2
	c-3.6,2.4-8.1,4.1-13.2,4.8c-5.7,0.8-8.6,0.9-37.5,1.4c-15.5,0.2-20.9,1.1-32,4.9c-5.1,1.8-9.4,3.4-15.3,6c-1.6,0.7-2.9,1.2-2.9,1.2
	c0-0.2,4.4-3.2,6.7-4.5c1.3-0.8,3.2-1.8,4.3-2.3c4.8-2.2,8.1-3.7,9.4-4.2c1.3-0.5,1.3-0.5,0.7-0.8c-1-0.4-14.4-0.4-17.5,0.1
	c-11.1,1.6-21.3,5.3-29.9,11c-7.1,4.7-10.7,8-15.7,14.3c-3.3,4.1-6,7.8-6,8c0,0.1,0.2,0.2,0.4,0.2c0.3,0.1-0.2,0.8-1.4,2.1
	c-10.1,11.5-17.7,26.9-22.5,45.5c-2.5,9.6-4,19.7-5.2,32.9c-0.6,6.6-0.8,27.9-0.4,36.2c2.8,57,21.1,94.1,54.2,110
	c11.8,5.7,25.8,9,40.9,9.9C409.3,1110.6,422.8,1110.5,424.6,1110.3L424.6,1110.3z M84,1519.5c12-12.1,15.7-16.6,34.6-42.9
	c15.4-21.3,21.9-29.8,30-39.4c4.9-5.8,13-13.9,16.8-16.9c1.5-1.2,3.7-3,4.8-4c2.9-2.5,4.6-3.8,4.9-3.8c0.6,0,1,0.8,0.7,1.5
	c-0.3,0.6-0.2,0.7,1.2,1.2c2.7,1,6,1.5,10.4,1.5c6.3,0,10.5-1.1,14.8-4c2.8-1.8,4.6-3.7,6.3-6.4l1.4-2.2l-3.3-0.6
	c-1.8-0.3-4-0.7-4.9-0.8l-1.6-0.2l1.1-0.2c0.6-0.1,2.4-0.3,4-0.4c1.6-0.1,3.2-0.2,3.6-0.2c1.6-0.1,11.4,0.4,16.5,0.9
	c1.3,0.1,4.2,0.2,6.4,0.2c5.3-0.1,6.3-0.5,9-3.6c2.6-3,2.9-3.8,3.2-7.1c0.2-2.1,0.1-3.1-0.2-4.1c-0.2-0.7-0.3-1.4-0.2-1.5
	c0.2-0.4-4.6-1.9-15.1-4.5c-4.2-1.1-8.1-2.4-14.8-5.1c-1.2-0.5-2.2-0.9-2.1-1c0.1-0.1,1.5,0.3,3.2,0.9c3.5,1.1,11.1,3.1,15.3,4
	c1.6,0.3,4.8,1.1,7.2,1.8c9.6,2.7,12.3,3.1,15.4,2.3c5.3-1.4,9.1-4.9,9.8-9.2c0.4-2.4-0.4-7.5-1.7-11.8c-0.1-0.3,0.1,0,0.4,0.7
	c1.2,2.4,2,6.5,2,9.8c0,2.9,0,3.1-0.9,4.9c-2,4-5.9,6.8-10.4,7.4l-2.3,0.3l0,1c0,1.2,0.8,6.4,1.6,10c0.7,3.3,0.7,3.3,0.1,2.1
	l-0.5-0.9l-1.2,7.2c-0.6,4-1.3,7.6-1.4,8c-0.1,0.5-0.7,3.7-1.2,7.1c-0.9,5.4-3,16.8-8.8,47.3c-1.3,6.9-2.7,15.4-3.8,23.7
	c-1.1,8.3-3.7,25-4.2,27.6l-0.5,2.4h-1.9h-1.9l0.2-0.8c0.1-0.4,0.3-2.2,0.4-4c0.5-6.2,2.2-19.7,3.3-26.9c1.9-12.6,2.9-17,9.4-44
	c4.6-18.9,7.1-30,7.4-32.5c0.2-1.9,1.3-6.9,2.6-12l1.1-4.3l-2.5-5c-1.4-2.7-2.6-4.8-2.6-4.7c-0.1,0.2,0,0.5,0.2,0.8
	c0.1,0.3,0.3,1.7,0.3,3.1c0.1,3.1-0.2,3.7-3.1,7.3c-2.4,2.9-4.1,4.1-6.6,4.6c-4.9,1-12.4,1.2-19.2,0.6c-2.3-0.2-4.6-0.4-5.2-0.4
	h-1.1l-1.5,2.9c-1.2,2.4-1.9,3.3-3.4,4.9c-3,2.9-8.2,5.4-13.2,6.3c-5.6,1-13.6,0-17-2.1l-0.9-0.6l-1.3,0.9
	c-2.6,1.8-1.8,1.1-14.7,14.7c-4.9,5.2-9.1,9.9-20.1,22.7c-6.4,7.5-8.4,10.1-13.8,17.7c-3.5,4.9-7.6,10.8-9.2,13.1
	c-7.6,10.8-14.2,19.7-15.9,21.7c-7.3,8.1-18.8,18.8-20.2,18.8C78.3,1525.4,79.9,1523.6,84,1519.5L84,1519.5z M244.4,1386.6
	c-0.1-0.2-0.3-0.3-0.5-0.3c-0.2,0-0.2,0.2,0.1,0.4C244.3,1387.2,244.7,1387.1,244.4,1386.6L244.4,1386.6z M737.3,1521.6
	c-7.7-6.2-11.3-9.4-16.5-14.7c-3-3.1-6.2-6.5-7-7.5c-1.9-2.3-10.7-14.6-20.8-29.1c-4.1-5.9-8.1-11.5-8.8-12.4
	c-1.2-1.6-10.5-12.4-19.2-22.3c-5.9-6.8-21.4-23.1-23-24.3l-1.3-1l-1.8,0.8c-3,1.4-6.5,2-11.8,2c-4.1,0-4.9-0.1-7-0.6
	c-4.9-1.4-9.4-4.1-12-7.2c-0.7-0.8-1.8-2.7-2.5-4.1l-1.3-2.7l-1,0.1c-11.8,1.5-23.4,1.1-26.8-0.8c-1.1-0.6-1.2-0.6-1.3-0.2
	c-0.1,0.3,0.4,2.6,1.1,5.3c0.7,2.6,1.5,6.2,1.8,7.9c2.2,11.7,2.9,14.6,8.9,39.1c5,20.2,6.5,27.4,8.4,39.1
	c1.6,10.1,4.1,31.5,3.7,32.1c-0.1,0.1,0,0.3,0.1,0.4c0.2,0.1,0.3,0.3,0.3,0.5c0,0.3-0.5,0.4-2,0.4l-2,0l-0.3-1.9
	c-0.5-2.8-3.2-20.7-4-26.5c-1.1-8.2-2.5-17-3.8-24c-0.7-3.5-2.8-14.7-4.6-24.8s-3.9-21.2-4.4-24.5s-1.6-9.7-2.3-14
	c-1.3-7.8-1.3-7.8-1.8-7c-0.4,0.8-0.5,0.8-0.3,0.1c0.1-0.4,0.3-1.3,0.4-2l0.2-1.4l-1.7-1.8c-2.4-2.6-3.2-4.2-3.4-7.4
	c-0.1-1.8,0-3.2,0.3-4.5c0.2-1.1,0.4-2,0.3-2c0,0-0.7,0.1-1.5,0.2c-1.8,0.4-4.5,0.4-6.3,0c-4.7-0.9-9.2-5-10.4-9.4
	c-0.4-1.5-0.4-2.1-0.1-4.4c0.4-2.9,0.9-5.2,1.8-7.6c0.8-2.1,0.9-1.9,0.2,0.3c-1.4,4.5-1.7,9.7-0.8,12.1c1.5,3.9,5.5,6.9,10.3,7.7
	c2.3,0.4,5.4,0,10.2-1.4c7.8-2.2,10-2.7,14.8-3.8c2.7-0.6,7.2-1.8,10-2.6c4.9-1.4,6.5-1.8,4.1-0.9c-0.6,0.2-3,1.2-5.3,2.1
	c-4.2,1.7-9.1,3.3-10.1,3.3c-0.3,0-2.3,0.5-4.4,1.1c-2.1,0.6-5.5,1.5-7.6,2.1l-3.8,1l-0.2,2.4c-0.3,3,0.2,6.6,1.1,8.4
	c1,2.1,3.1,4.3,5,5.2c1.4,0.7,2,0.8,4.8,0.9c1.8,0.1,6-0.1,9.5-0.3c12-0.9,14.4-0.9,18.6-0.5c2.2,0.2,4.1,0.4,4.3,0.4
	c0.2,0-0.8,0.3-2.2,0.5c-1.5,0.3-2.8,0.5-3,0.5c-0.2,0-1.2,0.1-2.2,0.3l-1.8,0.4l1.4,2.2c2.8,4.5,5.6,6.7,11,8.8
	c5.9,2.2,15.1,2.3,20.7,0.1c1.4-0.5,1.5-0.6,1.1-1c-0.5-0.6-0.5-1.1-0.1-1.1c0.2,0,1.3,0.7,2.4,1.5c1.1,0.8,2.8,2,3.7,2.7
	c5.7,3.8,12.9,10.6,20.2,19.1c8.4,9.8,15.3,18.6,25.6,32.8c1,1.4,4.4,6.1,7.7,10.6c7.2,10,14.1,19.2,16.3,21.9
	c5.1,6.3,14.9,16.9,21.5,23.4c2.6,2.5,4.7,4.6,4.7,4.6C740.6,1524.3,739.1,1523.1,737.3,1521.6L737.3,1521.6z M636,1374.4
	c0.4-1.6,0.1-7.7-0.5-9.5c-0.3-0.8-1.2-3.1-2.1-4.9c-2.6-5.5-4.8-10.7-5.1-12.3c-0.4-2-0.4-4.3-0.2-11c0.4-9-0.1-11.9-3.7-22.5
	c-2.3-6.8-3.2-10.2-4.1-15.4c-0.5-2.8-1.9-13.7-1.9-14.4c0-0.2,0.3,0.3,0.7,1c0.5,1,0.8,2.4,1.4,6.3c1.1,8.1,2.3,13.4,4.6,19.9
	c3.7,10.7,4,12,4.6,18.4c0.2,2.6,0.2,4.6,0,8.3c-0.2,2.7-0.2,5.7-0.1,6.7c0.3,2.5,1.7,6.6,4,11.4c3.6,7.4,4.2,9.6,4.1,13.7
	c0,1.5-0.2,2.3-0.8,3.6c-0.4,0.9-0.8,1.7-0.9,1.7C635.8,1375.6,635.8,1375.1,636,1374.4L636,1374.4z M259.8,1362.8
	c-0.3-0.7-0.2-0.9,0.1-0.3c0.2,0.3,0.2,0.6,0.2,0.6C260,1363.2,259.9,1363.1,259.8,1362.8z M554.2,1357.6c0-0.2,0.1-0.5,0.3-0.7
	c0.1-0.2,0.3-0.3,0.3-0.1c0,0.2-0.1,0.5-0.3,0.7C554.3,1357.7,554.2,1357.8,554.2,1357.6z"/>
<path id="path2009" inkscape:connector-curvature="0" d="M816.8,1522.3c-3.9-8-5.7-15.6-5.7-24.7c0-7.1,0.9-12.8,3-19.4
	c0.6-1.9,1.3-4.6,1.5-6c0.6-3.3,1-5,4-15.8c2.6-9.4,4.4-14.9,7.9-24.4c5.1-13.7,7.5-19.3,13.6-31.3c7.4-14.7,17.5-31.9,29.1-49.5
	c14.6-22.3,31.3-43.1,52.6-65.9c3.1-3.3,3.2-3.5,4.9-7.2c3.6-7.8,9.6-19.3,11.6-22.5c7.4-11.6,21.1-27.6,30.3-35.4l4.1-3.5l-1.2-2.5
	c-1.2-2.6-2-5.2-2-6.6c0-1.2,1-3.1,2-3.7c0.5-0.3,1.6-0.7,2.4-1c0.8-0.2,3.6-1.5,6.1-2.7c2.5-1.3,5.6-2.6,6.7-3
	c1.2-0.4,2.4-1,2.7-1.3c0.3-0.3,1-0.9,1.6-1.3c5.3-3.6,6.6-4.5,8.4-5.4c1.1-0.6,4.1-1.9,6.6-2.9c2.5-1,5-2.2,5.6-2.7
	c1.8-1.4,8-5.1,12.4-7.2c16.5-8.1,32.9-12.8,55-15.8c3.8-0.5,5.8-0.6,12.3-0.6c8.3,0,11.1,0.3,20.4,1.9c5.4,0.9,6.7,0.9,9.8-0.3
	c10.8-4.2,16.9-7.5,24.7-13c5.6-4,10.4-10.2,13.7-17.6c2.5-5.6,5.5-16,5.3-18c-0.1-0.6-0.5-2-1-3.1c-1-2.1-2.1-3.3-4.9-5.1
	c-2.5-1.6-15.7-14.7-18.7-18.5c-14.5-18.2-22.8-42.1-25.9-74.2c-1.4-15.3-1.5-37.2-0.1-53.5c2.6-31.2,10-55.9,22.2-74.3
	c3-4.5,4.9-7,8.6-11.1c1.6-1.8,3.4-4.1,4-5.2c2.5-4.2,7.6-10,11.9-13.6c8.5-7,18.2-11.9,28.8-14.6c6.1-1.6,9.1-1.9,16.2-1.9
	c6.8,0,9.9,0.4,11.9,1.5c1,0.5,1.1,0.5,2.4,0.1c4.9-1.5,11.9-2.6,18.7-3c1.6-0.1,8-0.2,14.3-0.3c29-0.4,34.4-0.9,40.7-4
	c1.2-0.6,3.4-1.9,4.7-2.9c2.9-2.1,9.3-8.5,12-11.9c2-2.5,2.5-2.9,3.4-2.4c0.5,0.2,0.6,0.6,0.6,1.7c0,3.4-0.7,6-3.7,14
	c-1,2.6-1.7,4.7-1.5,4.9c0.3,0.3,3.7-1.5,7.5-4c4.7-3.1,6.6-4.7,11.3-9.2c4.8-4.6,5.5-5.2,7-5.2c2.1,0,2.9,1.9,2.8,7
	c-0.1,10.5-4.1,24.6-10.5,36.9c-4.4,8.4-7.8,13.3-13,18.7c-2.5,2.6-3.8,3.6-5.3,4.5c-1.1,0.6-2,1.1-2,1.2c0,0,0.7,1.3,1.6,2.9
	c9,15.2,15.4,36.4,17.9,60.2c2.1,19.4,2.2,42.8,0.3,62.1c-3.2,31.3-12,56.4-26.3,74.4c-3,3.8-8.4,9.3-12.1,12.4
	c-1.6,1.3-2.9,2.5-2.9,2.6c0,0.6-3.1,3.5-5.3,5c-3,2-4.3,3.5-4.3,4.8c0,1.3,2,9,3.5,13.6c3.7,11,8.5,18.6,15.1,23.9
	c3.1,2.4,11.2,7.5,15.1,9.4c4.2,2,13,5.7,14.4,6c0.5,0.1,2.9-0.2,5.6-0.6c10.9-1.8,13-2.1,21.1-2.1c8.4,0,11.1,0.2,21.3,1.9
	c25.4,4.2,47.2,12.9,64.5,25.5c1.1,0.8,2.5,1.8,3.3,2.2c0.8,0.4,2.3,1.5,3.4,2.5s2.3,1.9,2.6,2.1c0.3,0.2,1,0.8,1.5,1.2
	c1,0.8,1,0.8,4.2,0.8l3.2,0l1.2,0.9c1,0.8,1.3,1.2,1.9,3.2c0.6,2,0.7,2.7,0.6,5.6c-0.1,3.7,0.2,4.6,1.5,5.5c2.2,1.4,9.3,7.7,12,10.6
	c4.9,5.3,5.5,5.9,8.7,9.7c8.2,9.5,13.6,17.4,17.7,25.9c1.6,3.2,3.7,7.5,4.6,9.5c1,2,2.4,4.9,3.1,6.5c1.3,2.7,1.6,3.2,4.2,5.9
	c12.1,12.5,28,31.2,38.6,45.4c12.7,17.1,27.3,39.8,38.7,60.7c2.5,4.6,9.1,17.8,10.8,21.6c3.5,8.1,9.1,22.7,11.9,31.1
	c2.5,7.6,6.9,24,7.6,28.3c0.2,1.5,0.9,4.2,1.5,6c2.4,7.5,3.2,13,3,21c-0.1,4.9-0.2,6.2-0.9,9.3c-1.4,6.4-4.1,13.5-6.9,17.8
	c-1.5,2.3-3.8,4.5-4.6,4.5c-0.6,0-0.7-0.1-0.5-0.5c0.1-0.3,0.4-1.1,0.7-1.9c0.3-0.8,1.7-3.6,3.1-6.3c4.1-7.9,5.7-12.7,6.6-19.5
	c1.6-12.3-2-27-9.5-38.4c-8.5-13-22.7-26-38.9-35.6c-10.5-6.2-14.5-8.1-42.1-19.2c-12.4-5-21.4-8.5-23.7-9.1c-1-0.3-1.6-0.5-1.5-0.6
	c0.9-0.3,17.1,5.4,36.4,12.8c3.6,1.4,7.3,2.8,8.2,3.2c6.3,2.3,18.4,8.1,23.3,11.1c1,0.6,1.9,1.1,2,1.1c0.1,0,2.1,1.3,4.5,2.9
	c8.5,5.6,15.8,11.6,22.2,18.1c3.5,3.6,8,9,9.7,11.6c0.4,0.7,0.8,1.1,0.9,0.9c0.1-0.4-8.9-25.3-13-35.6
	c-7.3-18.4-17.1-36.9-35.1-65.6c-12.9-20.7-23.9-36.1-37.3-52.1c-3.4-4.1-15.3-17.7-17.6-20.2c-0.9-1-2-2.4-2.3-3.1
	c-1-2.2-4-7-6.1-9.6c-2.2-2.8-1.8-2.4,2.6,1.8c2.9,2.8,3,2.8,2.2,1.5c-2.5-4.4-5.2-8.3-8.7-12.8c-5.8-7.2-21.7-25.3-28.6-32.5
	c-2.4-2.6-5.2-5.5-6.1-6.6s-2.4-2.9-3.4-4c-1-1.1-2.8-3.5-3.9-5.2c-1.2-1.8-2.2-3.2-2.3-3.2c-0.1,0-0.7,0.7-1.2,1.6
	s-1.3,1.7-1.6,1.9c-1.7,1-6.7,11.6-12.9,27.1c-4.9,12.3-8.3,23.3-10.8,35c-1,4.6-1.8,8.9-1.9,9.7c-0.1,0.8-0.5,2.4-0.9,3.6
	c-0.4,1.2-0.7,2.3-0.8,2.5c-0.1,0.2,0.5,0.7,1.2,1.2c2.9,1.8,6.3,6.4,6.3,8.2c0,0.6-0.1,0.6-0.4-0.3c-1.3-3.7-6.7-7.9-12-9.3
	c-2.7-0.7-6.1-0.7-8-0.1c-4.3,1.5-9,6.3-13.5,13.9c-3.6,6.1-5.3,11.8-6,20.4c-0.1,1.7-0.6,9.9-1,18.1c-1,20-0.9,21.6,2.4,27.1
	c2,3.4,3.8,5.2,6.2,6.4c1.5,0.7,2,0.8,3.9,0.8c1.2,0,2.5-0.1,2.8-0.2c0.5-0.1,0.5,0-0.4,0.8c-0.9,0.8-1.3,1-2.8,1.1
	c-2.1,0.2-3.5-0.1-5.8-1.3c-2.5-1.3-4.3-3.3-5.9-6.6c-2.6-5.2-2.7-6.7-2.8-28.5c-0.1-14.2,0-16.4,0.4-19.5c1.3-9,3.9-15.5,9.4-23.2
	c1-1.4,1.8-2.7,1.8-3.1c0-1-1.3-6.9-2.1-9.3c-2.7-8.3-9-15.6-15.7-18.1c-6-2.3-10.2,0.6-12.5,8.5c-0.4,1.4-0.9,2.8-1,3.3
	c-0.5,1.3-0.6,11.2-0.2,14.4c0.2,1.6,0.9,6.3,1.7,10.5c2.1,11.9,2.4,14.4,2.6,20.2c0.1,5,0.1,6-0.9,14.1
	c-1.7,14.6-1.7,22.5-0.2,30.3c0.5,2.3,1.2,5.3,1.7,6.7c1,3,3.5,8.4,5.2,10.9c4,6.2,13.8,16,22.2,22.3c1.4,1.1,3.5,2.8,4.5,3.9
	c1.1,1,2.4,2.3,3.1,2.7c0.6,0.5,1.1,0.9,1.1,0.9c-0.1,0.1-3.7-0.6-5.9-1.3c-1-0.3-2.4-0.9-3.2-1.4c-2.7-1.7-7.4-6-11.8-10.7
	c-1-1.1-1.8-1.8-1.7-1.6c0.2,0.6,2.1,9.4,3.2,15.3c0.9,4.9,2.7,12.2,7.5,32c5,20.2,6.5,27.4,8.4,39.1c1.6,10.1,4.1,31.5,3.7,32.1
	c-0.1,0.1,0,0.3,0.1,0.4s0.3,0.3,0.3,0.5c0,0.3-0.5,0.4-2,0.4l-2,0l-0.3-1.9c-0.5-2.9-2.3-15.1-4.1-27.5
	c-1.7-11.9-2.6-17.2-4.2-26.1c-0.6-2.9-2.4-12.9-4.1-22c-1.7-9.2-3.6-19.7-4.2-23.5c-3.4-21.2-3.5-21.6-4.3-21.3
	c-0.3,0.1-0.4,0-0.4-0.4c0-0.3-0.9-1.8-2-3.3c-4.3-5.8-7.6-11.9-9.7-17.4c-1.1-2.9-2.7-9-3-11.1c-0.1-0.7-0.4-2.7-0.7-4.4
	c-1.1-6.5-1.2-8.4-1.2-14.7c0-5.4,0.1-7.2,0.8-12.2c0.7-5.2,0.8-6.7,0.8-12.6c0-6.5-0.1-7.1-1.4-17.3c-1.3-9.5-1.4-11.1-1.4-15.6
	c0-2.8,0.1-6.1,0.3-7.3s0.3-2.8,0.4-3.6c0.1-0.8,0.5-2.3,0.8-3.4c1.6-4.8,4-8.2,6.9-9.6c1.3-0.7,1.7-0.7,3.9-0.6
	c4.2,0.2,7.8,2.2,12.2,6.7c5.6,5.8,8.3,11.6,9.3,19.8l0.3,2.8l2.5-2.4c2.7-2.7,5.1-4.4,7.5-5.3c1.2-0.5,2.1-0.6,4.2-0.6
	c1.4,0,2.9,0.1,3.4,0.2c0.5,0.1,0.8,0.1,0.9-0.1c0.1-0.2,2-6.3,4.4-13.7c5.1-15.9,7.6-23.4,9.6-28.5c2.8-7.2,8.4-19.1,12.5-26.7
	c2.3-4.2,4.2-8,4.3-8.4c0.1-0.4,1-2.5,2-4.6s1.8-4,1.7-4c-0.1-0.1-0.4-0.2-0.6-0.2c-0.2,0-1.5-0.7-2.9-1.5
	c-3.7-2.3-7.5-4.1-14.1-6.7c-3.2-1.3-5.7-2.3-5.6-2.4s2.6,0.6,5.6,1.4s5.4,1.4,5.4,1.4c0.1-0.1-3.6-2.5-6.5-4.2
	c-2.2-1.3-11.8-6-14.9-7.3c-1-0.4-1.8-0.8-1.7-0.9c0.1-0.1,1,0.2,2.1,0.6c4.5,1.6,11.6,4,11.8,3.9c0.7-0.2-8.7-5.7-15-8.7
	c-14.7-7-31-11.7-49.9-14.2c-9.9-1.3-18.1-1.4-29.3-0.1c-3.5,0.4-6.7,0.8-7.1,0.9l-0.7,0.1l0.8,0.5c0.4,0.3,1,0.8,1.3,1.1
	c0.3,0.3,1.1,1,1.7,1.4c0.6,0.4,1.1,0.9,1,1c-0.1,0.1-0.9,0.1-1.7-0.2c-3.1-0.8-3.2-0.8-3.9,0.3c-4.6,6.4-16,18.7-22.1,23.7
	c-7.4,6.2-19.4,14.2-26.7,18c-10.5,5.4-26.3,10.1-39.5,11.8c-8.8,1.2-12.5,1.4-18.4,1c-15.1-0.9-24-2.6-37.3-6.9
	c-18.2-6-28.8-12.2-41.4-24.5c-3.7-3.6-15.2-16.3-20.4-22.6c-1.3-1.6-2.6-2.9-2.8-3c-0.2,0-0.6,0.1-0.8,0.2
	c-0.2,0.2-1.3,0.4-2.4,0.4c-1.1,0.1-3,0.2-4.2,0.4c-2.6,0.3-2.6,0.3-2.6,0c0-0.1,1.3-0.8,2.9-1.4c1.6-0.7,2.8-1.2,2.8-1.3
	c0,0-1.3-0.2-2.8-0.4c-1.5-0.2-4.8-0.6-7.4-0.9c-9.4-1.1-18.2-1-27.8,0.3c-17.2,2.3-32.2,6.4-46,12.5c-4,1.8-10,4.8-9.9,4.9
	c0.1,0.1,1.3-0.1,2.8-0.4c3.5-0.7,12-2,12.1-1.8c0.1,0.1-0.6,0.3-1.4,0.4c-0.8,0.2-3.1,0.8-5.1,1.4c-2,0.6-4.1,1.1-4.6,1.2
	c-1.1,0.1-6.2,2-16.2,6.1c-8.4,3.4-9.3,3.8-13.5,6.2c-2.6,1.5-3.4,2.1-2.9,2.1c0.6,0,8.4-1.4,10.4-1.9c3.4-0.8,9.5-2,9.6-1.9
	c0.1,0.1-6.7,2.6-8.3,3c-1.2,0.3-7.1,2.3-14.6,4.9c-5.2,1.8-9.6,4-12.3,6c-0.1,0,0.1,0.4,0.5,0.8c3.9,4.9,12.8,21.5,33.4,62.1
	c3.2,6.3,7.3,14.3,9.1,17.8l3.3,6.4l1.2,0.4c2.2,0.8,5,2.7,7.6,5.1c2.8,2.7,2.6,2.8,3-0.6c0.9-7.8,4.3-14.7,10.3-20.4
	c4.2-4,7.6-5.7,11.4-5.7c2.6,0,4.7,1,6.7,3.1c4,4.3,5.5,10.8,5.2,22.4c-0.1,5.2-0.3,7.1-1.4,15.2c-1.3,9-1.3,9.6-1.3,16
	c0,5.8,0.1,7.5,0.7,12.3c1.3,9.9,1.3,16.7-0.2,26.5c-0.4,2.4-0.7,5-0.8,5.7c-0.4,3.7-2.8,11.2-5.1,16c-1.6,3.3-1.6,3.4-1.4,4.7
	c1.1,5.1,1.4,6.8,1.4,6.9c0,0.1-0.2-0.3-0.5-0.8l-0.5-0.9l-1.2,7.2c-0.6,4-1.3,7.6-1.4,8c-0.1,0.5-0.7,3.7-1.2,7.1
	c-0.9,5.4-3,16.8-8.8,47.3c-1.3,6.9-2.7,15.4-3.8,23.7c-1.1,8.3-3.7,25-4.2,27.6l-0.5,2.4h-1.9h-1.9l0.2-0.8c0.1-0.4,0.3-2.2,0.4-4
	c0.5-6.2,2.2-19.7,3.3-26.9c1.9-12.6,2.9-17,9.4-44c4.6-18.9,7.1-30,7.4-32.5c0.2-1.9,1.3-6.9,2.6-12l1.1-4.3l-0.9-1.7l-0.9-1.7
	l-2.2,3.2c-3.4,5.1-7.1,9.5-11.9,14.2c-4.3,4.2-7.9,7.3-10.1,8.4c-1.1,0.6-4.9,1.7-6.7,2l-1.1,0.2l1.8-1.4c1-0.8,2.5-2,3.4-2.9
	s2.7-2.3,3.9-3.2c7.9-5.9,17.4-15.5,21.5-21.7c3.1-4.7,6.1-11.8,7.1-17.2c0.2-1.3,0.6-2.9,0.7-3.6c0.4-1.9,0.7-9.4,0.5-14.2
	c-0.1-2.3-0.6-7.6-1.1-11.7c-0.8-6.5-0.9-8.2-0.9-13.7c0-7.1,0.1-7.6,2.3-20.7c2.2-12.6,2.3-13.8,2.1-20.5c-0.1-5.3-0.2-5.8-1-8.5
	c-1.6-5.3-3.2-7.9-6-9.5c-2.3-1.3-6.2-0.7-10.1,1.6c-2.1,1.3-5.9,4.9-7.9,7.5c-3,4-5,9.2-6.4,16.3c-0.2,1.2-0.3,2.4-0.2,2.6
	c0.1,0.2,1.1,1.6,2.2,3.1c3.7,5.2,5.7,9.3,7.4,15.1c1.9,6.6,2.2,11.6,1.8,31.4c-0.3,16.7-0.4,18.1-1.6,21.3
	c-0.9,2.4-3.1,5.9-4.8,7.4c-3.9,3.6-8.9,4.4-11.3,1.8l-0.5-0.6l1.1,0.2c0.6,0.1,2,0.2,3,0.2c3.7-0.1,6.6-2.2,9.4-6.8
	c3.2-5.4,3.5-7.7,2.6-24c-1.2-23.2-1.4-25.8-2.6-30.7c-0.9-3.6-1.8-5.9-3.6-9.3c-4.3-8.1-9.8-14.1-14.7-15.9
	c-5.9-2.2-16.3,2.4-19.4,8.6c-0.5,0.9-0.8,1.4-0.8,1.1c0-2.2,4.2-7.2,7.7-9.2c2-1.1,5.3-2.4,6.5-2.4c0.4,0,1.2-0.1,1.7-0.2
	c0.8-0.2,0.9-0.2,0.4-0.8c-0.5-0.8-0.3-0.8,0.4,0c0.3,0.3-0.3-0.8-1.2-2.5c-4.9-8.9-13.2-24.5-17.3-32.4c-2.5-4.9-5.6-10.8-6.7-13
	c-6.4-12.4-13.3-26.4-13.4-27.4c-0.1-1-0.2-1.1-0.9-1.1c-0.4,0-0.8-0.1-0.8-0.2s-0.8,0.8-1.8,2.2c-1.9,2.5-7.5,8.8-12.6,14.1
	c-11.5,12-31.3,35.6-33.8,40.2c-0.3,0.6-1.5,2.5-2.5,4.3c-1.1,1.8-2.1,3.5-2.3,3.8c-0.2,0.4,1.5-1.1,3.7-3.3c2.2-2.2,4.1-4,4.2-4.1
	c0.1-0.1-0.8,1-1.9,2.5c-1.1,1.4-3,4.2-4.2,6.2c-2.3,3.8-2.2,3.8-7.6,9.8c-21.2,23.4-35.4,42.4-52.4,69.6
	c-16.8,27-26.6,45.2-33.5,62.3c-2.2,5.5-7.3,19.2-9.7,25.8c-4.5,12.8-4.9,14.1-4.3,13.3c0.3-0.4,1.7-2.2,3-4
	c7.1-9.6,18-19.5,29.9-27.3c10.6-7,21.7-12.3,40-19.3c15.6-6,33.3-12.2,34.5-12.1c0.3,0-0.7,0.4-2.2,0.9c-3.6,1.2-11.8,4.4-27.8,11
	c-7.2,2.9-13.3,5.4-13.5,5.4c-0.6,0-10.2,4.3-14.7,6.6c-20.4,10.4-37.7,25.1-47.9,40.6c-6.6,10-10.2,22.7-9.7,34
	c0.3,7.7,2.1,13.9,6.3,22.2c1.5,2.9,2.7,5.4,2.7,5.4s-0.9,0.1-2,0.1h-2L816.8,1522.3z M1235.5,1218.6c5.8-0.5,8.6-0.8,12.8-1.5
	c9.8-1.7,20.8-5,29.4-8.7c7.4-3.3,22.6-13.2,30.3-19.9c7-6,20.7-21,19.7-21.6c-0.1-0.1-1.4-0.4-2.9-0.7c-3.3-0.7-6.7-2.3-12.8-5.9
	c-5.1-3-9.6-5.6-9.8-5.6c-0.1,0-0.9-0.5-1.9-1.1c-1-0.6-1.9-1.1-1.9-1.1c-0.2,0-7.8-3.3-8.9-3.8c-2-1-5.7-5.9-8.2-10.8
	c-2.4-4.7-4.2-11.7-5.3-20.1c-0.2-1.9-0.6-3.6-0.7-3.9c-0.1-0.3-0.3-1-0.3-1.7s-0.1-1.8-0.2-2.4c-0.2-1.5-0.4-1.5-3.8,0.1
	c-3.4,1.6-3.8,1.8-6.3,2.7c-9.9,3.7-20.6,6-32.6,6.9c-5.1,0.4-17.9,0.4-22.9,0c-13.1-1-24.5-3.7-34.8-8.2c-1.9-0.8-3.6-1.6-3.9-1.6
	c-0.5-0.2-0.5-0.5-1.3,5.9c-0.7,5.5-1.2,8.2-2.2,12.2c-1.9,7.7-5.6,14.6-10.4,19.3c-2.1,2.1-2.6,2.4-4.9,3.4
	c-4.3,1.8-9.4,4.5-18.3,9.8c-4.3,2.6-9.3,5.1-10.5,5.3c-0.5,0.1-0.9,0.3-0.9,0.4c0,0.2,11.7,11.9,18.8,18.7
	c5.1,4.9,13.7,12,18.1,14.9c7.6,5,14.6,8.2,26.6,12.2c12.9,4.3,23.2,6.3,35.8,7.1c1.6,0.1,2.9,0.2,3,0.3
	C1224.5,1219.1,1231.1,1218.9,1235.5,1218.6L1235.5,1218.6z M1248.4,1191.6c2-2.7,3.9-5.8,4.4-7c2.5-5.8,4.7-13.2,6.4-21.6
	c2-10.3,4.8-26.4,7.2-41.8c0.4-2.6,0.9-4.7,1-4.7c0.1,0,0.2,0.3,0.1,0.8c-0.1,0.4-0.3,2.3-0.6,4.2c-2,16-3.5,25.8-6.1,38.2
	c-2.2,11.1-3.2,14.6-5.8,21.2c-2,5.1-3.5,7.5-6.7,11.1l-0.9,1L1248.4,1191.6z M1193,1190.4c-3.1-3.9-4.5-6.6-6.8-13.5
	c-1.7-4.9-2.6-8.6-4.4-17.3c-2.6-12.9-3.2-16.8-5.4-32.9c-0.6-4.5-1.2-8.7-1.3-9.3c-0.1-0.6-0.1-1,0.1-1c0.1,0,0.3,0.5,0.4,1
	c1.9,12.9,5.5,34.3,7.8,45.6c2.6,13.2,5.7,21.7,9.8,27.2c1.3,1.7,1.6,2.2,1.4,2.2C1194.7,1192.4,1193.9,1191.5,1193,1190.4
	L1193,1190.4z M1456.8,1208.2c-0.2-0.3-0.4-0.7-0.5-0.8c-0.1-0.1-0.3-0.5-0.5-0.9c-0.4-1.1-0.8-1.2-1.2-0.1c-0.3,1-0.4,1,1,1.8
	C1457,1209,1457.2,1209,1456.8,1208.2L1456.8,1208.2z M1234.5,1110.3c0.5-0.1,1.7-0.2,2.8-0.3c9-0.7,19.7-3.1,27.4-6
	c3.3-1.2,7.8-3.2,8.9-3.9c0.5-0.3,1.7-1,2.7-1.5c6.8-3.4,16.5-11.7,22.4-19c15-18.7,23.3-45.3,25.7-82.1c0.5-6.9,0.5-29.2,0-35.8
	c-2.1-30.7-8.3-53.9-19.2-72.2c-3.6-6-8.6-12.6-12.8-16.7l-1.6-1.6l-1.8,0.6c-2.5,0.8-4.8,1.2-8.9,1.8c-3,0.4-4.9,0.4-11.7,0.3
	l-8.1-0.2l-1.6,0.8c-9,4.5-21.9,8.2-31.9,9.1c-5,0.4-7.9,0.3-10-0.7l-1.6-0.7l3.2,0.2c9.2,0.5,22.2-2.7,36.1-8.8
	c0.7-0.3,1.1-0.7,1-0.9c-0.1-0.2,0.1-0.3,0.6-0.3c1.3,0,10-5.3,13.7-8.5c2.4-2,9.2-9.1,11.7-12.2c1.1-1.3,2-2.3,2-2.3
	c0.5,0.5-6.6,12-8.6,14c-2,2-5.9,4.9-9,6.9c-1.7,1-3.1,1.9-3.1,2c0.1,0.1,4.8-0.2,10.3-0.6c10.9-0.8,20.3-4.5,27-10.5
	c0.6-0.6,2-1.6,3-2.3c1-0.7,3.2-2.5,4.8-4c1.6-1.5,3-2.7,3.1-2.7c0.3,0.3-7,11-8.5,12.4c-1,0.9-3.8,2.9-6.2,4.4
	c-0.5,0.3-0.3,0.5,1.6,2.5c3.4,3.5,6.3,7.1,9.4,11.7l1.3,1.9l1.3-1.1c1.4-1.1,3-2.8,5-5.2c7.9-9.6,18.4-33.4,21.8-49.7
	c0.9-4.1,1.2-8.3,0.7-9.5c-0.3-0.8-0.4-0.8-1.2-0.5c-0.5,0.2-2.1,1.5-3.6,2.9c-8.4,7.9-19.4,15.7-22.1,15.7c-0.8,0-1.3-0.6-1.3-1.6
	c0-0.3,0.8-2.7,1.8-5.3c1-2.6,2.2-5.7,2.6-7c0.8-2.2,1.6-6.3,1.3-6.5c-0.2-0.2-2.1,1.9-5.9,6.3c-3.2,3.7-8.1,8.4-10.8,10.2
	c-3.6,2.4-8.1,4.1-13.2,4.8c-5.7,0.8-8.6,0.9-37.5,1.4c-15.5,0.2-20.9,1.1-32,4.9c-5.1,1.8-9.4,3.4-15.3,6c-1.6,0.7-2.9,1.2-2.9,1.2
	c0-0.2,4.4-3.2,6.7-4.5c1.3-0.8,3.2-1.8,4.3-2.3c4.8-2.2,8.1-3.7,9.4-4.2c1.3-0.5,1.3-0.5,0.7-0.8c-1-0.4-14.4-0.4-17.5,0.1
	c-11.1,1.6-21.3,5.3-29.9,11c-7.1,4.7-10.7,8-15.7,14.3c-3.3,4.1-6,7.8-6,8c0,0.1,0.2,0.2,0.4,0.2c0.3,0.1-0.2,0.8-1.4,2.1
	c-10.1,11.5-17.7,26.9-22.5,45.5c-2.5,9.6-4,19.7-5.2,32.9c-0.6,6.6-0.8,27.9-0.4,36.2c2.8,57,21.1,94.1,54.2,110
	c11.8,5.7,25.8,9,40.9,9.9C1219.3,1110.6,1232.8,1110.5,1234.5,1110.3L1234.5,1110.3z M887.3,1524.9c0.5-0.3,1.6-0.9,2.6-1.4
	c1-0.5,2.7-1.7,3.8-2.5c1.1-0.9,4.6-3.1,7.9-5c7.2-4.2,9.1-5.4,15.2-9.5c9.9-6.7,25.3-17.7,54.3-39c10.9-8,19.5-14.6,24.8-18.8
	c5.1-4.1,11.6-9.5,11.7-9.9c0-0.1,1.9-1.7,4.1-3.6c2.2-1.9,5.1-4.5,6.6-5.9c4.2-3.9,7.2-6.4,7.5-6.4c0.4,0-3.6,4.4-7.6,8.3
	c-3.6,3.5-9.7,9-10.1,9.2c-0.2,0.1-2.3,1.9-4.7,4c-7.7,6.8-21.5,18.2-33.6,27.8c-26,20.6-30.9,24.3-40.7,31.3
	c-18.7,13.2-29,19.3-34.2,20.1c-1,0.2-2.9,0.7-4.3,1.1c-1.3,0.4-2.8,0.8-3.2,0.8h-0.8L887.3,1524.9L887.3,1524.9z M1547.3,1520.4
	c-2-0.7-4.6-1.5-5.6-1.6c-1.1-0.2-2.6-0.5-3.5-0.7c-5.1-1.3-17.7-9-35.2-21.6c-14-10-54.9-42.8-69.3-55.4
	c-12.2-10.7-25.1-23.2-24.1-23.2c0.4,0,1.2,0.7,5.9,4.9c12.6,11.5,21.1,18.6,34,28.4c6.6,5,25.1,18.6,31.8,23.4
	c0.9,0.6,3.8,2.7,6.5,4.7c9.5,6.9,11.8,8.5,18.5,13.3c6,4.3,16.6,11.5,20.6,14c0.8,0.5,4.2,2.5,7.5,4.5s6.6,4,7.3,4.7
	c1.9,1.8,2.9,2.4,6.5,4.3c3,1.5,3.8,2,3.1,1.9C1551.1,1521.8,1549.4,1521.2,1547.3,1520.4L1547.3,1520.4z M960.4,1443.1
	c-6.9-0.7-12.8-3.9-16.3-8.9c-2.5-3.6-4.1-7.6-6.4-16.5c-2.3-8.7-3.6-14.9-4.3-20.2c-0.1-0.4-0.2-1.6-0.4-2.7
	c-1.7-12.3-2.5-23.5-2.5-36.6c0-8.5,0.7-14.3,2.3-19.1c2.4-7,6.5-10,11.8-8.4c1.7,0.5,4.6,1.9,5.4,2.6c0.3,0.2,0.5,0.4,0.6,0.3
	c0-0.1,0.3-1.2,0.6-2.5c1.1-6,5-12.3,9-14.7c4.6-2.8,11.1-2.1,16.5,1.8c0.7,0.5,1.4,0.9,1.4,0.9c0,0,0.4-1.5,0.8-3.2
	c1.1-4.8,2.7-7.8,5.6-10.7c3.1-3.1,5.1-4.1,8.6-4.3c4.4-0.2,7.7,1.4,12.9,6.3c5,4.7,8,9.2,11.3,16.9c2,4.6,3.6,10.5,6.2,22.6
	c1.5,7.1,4.4,24.9,5,31.1c0.6,5.7-0.1,8.5-2.4,11.1c-1.9,2-4.2,3.2-7.1,3.6l-2.1,0.3l-2.1,3.1c-3.1,4.5-4,5.9-4.9,7.5
	c-0.4,0.8-1.3,2-1.9,2.6s-1.5,1.8-2.1,2.7l-1,1.5l0.1-3.2c0.1-2.5,0.2-3.5,0.7-4.7c1.1-2.7,3.2-5.7,5.6-8.1c1.3-1.3,2.3-2.3,2.2-2.4
	c0,0-0.9-0.5-1.9-1c-1-0.5-2.2-1.2-2.8-1.7l-1-0.8l0,2.1c0,2-0.1,2.3-1,3.9c-1.8,3.2-4.5,5-9,5.9c-5.2,1-10.3-0.6-12.9-4.3l-0.7-1
	l-1,1.6c-1.4,2.2-2.5,3.3-4.4,3.9c-5.1,1.8-10.1,0.4-14.2-4c-2.3-2.4-3.7-5-5.8-10.9c-0.1-0.3-0.6-0.6-1.2-0.8
	c-0.6-0.2-2.7-1.6-4.9-3.2c-2.1-1.6-5.5-4.2-7.5-5.7s-3.6-2.8-3.6-2.8c0-0.1,1.3,0.6,2.9,1.5c1.6,0.9,3.6,1.9,4.3,2.3
	c2,1.1,8.2,3.8,8.6,3.8c0.3,0-0.2-2.6-0.8-3.6c-0.1-0.3-0.2-0.5,0-0.5c0.1,0,0.6,0.7,1.1,1.6c3.2,5.4,8.8,13.2,11,15.3
	c2.7,2.5,6.2,3.5,9,2.5c0.7-0.2,2.1-0.5,3-0.6c1.9-0.2,2.9-0.7,2.7-1.4c-0.1-0.3-0.1-0.4,0.1-0.3c0.3,0.2,0.6-0.3,0.9-2
	c0.5-2.8-0.8-6.3-5.6-14.2c-8.1-13.5-11.3-18.4-18.9-29.3c-7.8-11.3-9.8-13.5-13.8-15.4c-3.7-1.8-6.2-1.7-8.7,0.1
	c-3.3,2.5-5.5,8.5-6.3,17.1c-0.5,5.7,0.1,18.3,1.4,29.6c0.3,2.6,0.6,5.3,0.7,6.2c0.4,4.5,3.2,17.7,5.2,24.9
	c5.7,20.1,8.9,24.5,19.4,27.2c1.5,0.4,3.5,0.6,6.2,0.7c2.5,0.1,5,0.4,6.6,0.7c1.4,0.3,3.6,0.6,4.8,0.7l2.2,0.2l-2.1,0.6
	c-1.1,0.3-2.4,0.8-2.9,0.9c-0.5,0.2-1.7,0.6-2.7,1C968,1443.2,964,1443.5,960.4,1443.1L960.4,1443.1z M996.9,1398.5
	c3.8-0.7,6.4-2.3,7.5-4.5c0.4-0.8,0.7-1.7,0.7-2s-0.4-2.2-1-4.1c-0.5-1.9-1.1-4.3-1.2-5.4c-0.7-6.3-0.7-6.2-2.9-9.3
	c-2.3-3.4-4.2-7.1-8.1-15.9c-3-6.8-3.8-8.8-7.9-19.7c-2.8-7.6-3.8-9.7-5.7-12.6c-3.3-5-7.3-7.4-12.7-7.4c-2,0-2.6,0.1-4,0.8
	c-1.9,0.9-3.7,2.4-5.3,4.5c-1.3,1.7-4.5,8.1-5,9.9c-0.3,1.3-0.3,1.3,0.3,1.8c0.7,0.5,6,5.4,7.7,7.3c1.7,1.8,6.7,8.1,8.3,10.4
	c0.8,1.2,2.8,4.8,4.5,8c4,7.5,6.1,11.2,7.9,14.4c2.3,3.9,4.6,9,5.4,11.8c0.9,3,0.8,5-0.1,6.9l-0.6,1.2l1,1.1
	c1.3,1.3,2.9,2.3,4.9,2.9C992.7,1399,994.4,1399,996.9,1398.5L996.9,1398.5z M1021.1,1390.3c1.7-0.6,3.6-2.3,4.2-3.7
	c0.8-1.9,0.6-5.2-0.8-13.8c-0.7-4.2-1.6-10.7-2.1-14.4c-1.4-11.1-3.9-25.1-5.3-29.8c-1.5-5.1-3.8-9.9-6.7-14.3
	c-1.8-2.8-7.3-8.4-9.9-10.1c-5.2-3.5-11-2.8-15.5,1.7c-3,3-4.7,6.1-6.1,11.3l-0.7,2.5l1,1.1c3.7,4,5.8,8,12.1,23.1
	c1.3,3.2,4.3,10,6.6,15.1c3.8,8.5,4.3,9.7,5.3,13.7c0.6,2.4,1.2,4.6,1.3,4.8c0.1,0.2,0.3,0.8,0.4,1.4c0.1,0.5,0.6,1.6,1,2.4
	c0.4,0.8,1,2.3,1.2,3.3c0.5,2.3,1.1,2.9,4.8,4.7c2.4,1.2,2.8,1.3,4.9,1.3c1.2,0,2.3,0.1,2.4,0.2
	C1019.5,1390.8,1019.6,1390.7,1021.1,1390.3L1021.1,1390.3z M1464.8,1437.6c-1.3-0.5-3.4-1.2-4.7-1.7c-1.3-0.5-2.4-0.9-2.3-0.9
	c0,0,0.9-0.1,2-0.1c1.1,0,3.3-0.3,4.9-0.7c1.7-0.4,4-0.6,5.3-0.6c5.5,0,10.1-1,13.8-2.9c4.4-2.3,7.2-6.6,10.3-15.9
	c3.3-10,5.7-20,7.6-31.4c0.7-4.1,2-17.3,2.4-24.7c1-17.9-1.6-28.9-7.6-31.7c-3-1.4-6.8-0.3-11.4,3.4c-2.5,2-6.7,7.5-15.4,20.3
	c-3.4,5-14.3,22.8-16.4,27c-2,3.8-2.1,4.2-2.4,6.9c-0.2,1.8,0.3,4.3,0.8,4c0.1-0.1,0.2,0.1,0.2,0.4c0,0.9,0.6,1.2,2.2,1.2
	c0.8,0,2.4,0.2,3.4,0.5c4.7,1.3,7.7,0.1,11.5-4.7c1.5-1.9,6.5-9.3,6.8-10.2c0.2-0.5,2.6-4.4,2.8-4.4c0.1,0-0.2,1-0.5,2.1
	c-0.3,1.2-0.5,2.2-0.4,2.2c0.3,0.1,7.2-3.3,12.3-6c2-1.1,3.6-1.9,3.6-1.8c0,0.1-6.2,4.8-7.5,5.7c-0.6,0.4-2.7,1.9-4.5,3.2
	c-1.9,1.4-3.8,2.6-4.2,2.7c-0.7,0.2-1,0.6-2.3,3.9c-1.7,4.1-2.5,5.3-5,7.9c-3.1,3.2-6.2,4.6-10.1,4.6c-4.1,0-6.3-1.1-7.6-3.8
	c-1.1-2.3-1-2.3-2.7-0.5c-1.6,1.7-4.3,3.4-5.7,3.5c-0.5,0.1-1.7,0.2-2.7,0.3c-3.8,0.4-9.2-1.4-11.3-3.7c-0.5-0.6-1.3-1.7-1.7-2.4
	c-0.7-1.2-0.8-1.6-0.8-3.6l0-2.2l-1.3,0.7c-0.7,0.4-2,1-2.9,1.5l-1.6,0.8l1.5,1.1c1.9,1.5,2.8,2.5,4.7,5.5c1.9,3,2.4,4.7,2.4,7.2
	c0,1,0,2.6,0.1,3.4l0.2,1.5l-0.7-1.3c-0.4-0.7-1.2-1.6-1.7-2.1c-1.3-1-1.8-1.6-2.9-3.4c-0.5-0.8-2.3-3.6-4-6.2l-3.1-4.7l-2.1-0.3
	c-3.8-0.5-7.1-2.7-8.6-5.7c-1.5-3-1.4-5.7,1-20.8c2.5-16,5.4-30,7.9-37.5c1.6-4.8,4.6-11.2,6.9-14.6c2.9-4.2,8.8-10,11.9-11.5
	c5.5-2.8,11.1-1.8,15.6,2.8c1.5,1.5,3.4,4.3,4.2,6.2c0.7,1.6,2,6.6,1.9,7.2c-0.1,0.2-0.3-0.5-0.6-1.6c-1.1-4.7-2.9-8-5.9-11
	c-5.1-5.2-10.9-5.5-16.8-0.9c-2.5,1.9-6.8,6.4-8.2,8.5c-4.2,6.3-5.2,8.2-6.9,13.9c-1.7,5.3-4.1,18.4-5.6,30.4
	c-0.5,3.7-1.4,10.2-2.1,14.4c-1.8,11.3-1.7,13.8,0.7,16.2c1,1,3.1,2.1,4,2c0.3,0,1.7-0.1,3-0.1c2.2-0.1,2.7-0.2,4.5-1.1
	c2.2-1.1,4.3-2.6,4.7-3.2c0.1-0.2,0.5-1.3,0.9-2.5s0.9-2.7,1.2-3.4c0.6-1.4,1.4-4.3,2.5-8.5c0.7-2.5,1.4-4.3,5.9-14.3
	c1.8-3.9,4.2-9.6,5.5-12.6c6.3-15.3,8.1-18.7,12.2-23.7c1.3-1.6,1.9-2.1,4.7-3.8c2.9-1.8,4.8-2.3,8.4-2.3c3.5,0,5.3,0.5,7.5,2.3
	c3.7,2.9,7.4,10.1,8,15.7l0.1,0.7l1.2-0.8c0.7-0.4,2.1-1.1,3.2-1.6c2.6-1.1,5.9-1.1,7.8-0.2c3.5,1.9,5.9,6.4,7.3,14.3
	c1.1,6.1,0.7,33.1-0.7,40.9c-0.1,0.8-0.5,3.5-0.8,5.9c-0.8,6.1-0.7,5.7-1.3,9.1c-2.1,11.6-5.6,24.2-7.9,28.8
	c-2.4,4.8-5.8,8.2-10.3,10.4c-3.6,1.7-5.3,2.2-9.3,2.6C1468.8,1438.6,1467.4,1438.5,1464.8,1437.6L1464.8,1437.6z M1443.9,1393.6
	c2-0.5,4.1-1.6,5.5-2.9l1.2-1.1l-0.6-1.5c-1.7-3.8-0.1-9,5.5-18.8c1.1-2,3.6-6.5,5.6-10c1.9-3.5,3.9-7.2,4.5-8.2
	c2.8-5,8.5-12.2,14.3-18l4.4-4.4l-0.3-1.2c-0.5-1.8-3.1-7.1-4.6-9c-1.7-2.3-3.9-4.3-5.8-5.2c-2.2-1.1-5.8-1.2-8.5-0.4
	c-3.5,1.1-5.9,3.1-8.6,7.4c-1.7,2.7-2.4,4.2-6.5,15c-5.1,13.6-11.1,26.8-14.2,31.6c-2.2,3.4-2.4,3.9-3,8.3c-0.3,2.1-0.9,5-1.4,6.6
	c-1.3,4.3-1.3,5.1-0.4,6.9c1.3,2.5,3.7,3.9,7.5,4.8C1440.8,1394.1,1442.1,1394.1,1443.9,1393.6L1443.9,1393.6z M991.7,1410.5
	c-0.5-1.6-3.2-7-4.6-9.1c-0.7-1-1.1-1.9-1-1.9c0.4,0,3.2,4.4,4.4,6.9c1.1,2.2,1.9,4.8,1.6,5.1
	C992.1,1411.5,991.9,1411.1,991.7,1410.5L991.7,1410.5z M1443.3,1405.8c0.5-2.6,3.2-8,5.2-10.3l1-1.1l-0.8,1.3
	c-1.1,1.7-3.4,6.2-4.6,8.9C1443.5,1405.9,1443.2,1406.4,1443.3,1405.8L1443.3,1405.8z"/>
</svg>
